<svg xmlns="http://www.w3.org/2000/svg" xmlns:xlink="http://www.w3.org/1999/xlink" width="375" height="171.304" viewBox="0 0 375 171.304"><defs><clipPath id="a"><rect width="99.178" height="128.042" fill="none"/></clipPath><clipPath id="b"><rect width="98.088" height="126.202" fill="none"/></clipPath><clipPath id="c"><path d="M1.854,22.559,0,17.328a21.49,21.49,0,0,1,1.854-3.476c.774-.966-.066-2.98,0-3.211s-.1-6.034-.1-6.034L10.4,0A40.382,40.382,0,0,1,8.37,8.82c-1.384,3.244-2.423,5.562-2.423,5.562l.674,4.3L2.715,22.559Z" fill="none"/></clipPath></defs><g transform="translate(0 -496)"><g transform="translate(0 614.28)"><path d="M0,40.72H375v12H0Z" transform="translate(0 0)" fill="#ec8935"/></g><g transform="translate(20.5 539.262)"><g transform="translate(0 0)" clip-path="url(#a)"><path d="M18.59,110.842c1.32-3.961,8.924-36.1,8.924-36.1s2.257-3.042,3.806-3.849,2.313-4.837,2.522-7.2.035-12.647,3.961-13.932c0,0-3.241-4.224-.924-6.844A11.96,11.96,0,0,1,33.46,32.044c1.355-6.671,5.906-13.2,9.172-13.9,0,0,3.54.238,4.4-.975,0,0,7.453-2.771,12.964,0a21.383,21.383,0,0,1,9.352,8.658c1.252,2.213,2.991,8.266.765,11.064a5.187,5.187,0,0,0-.931,2.242c-.041,1.016,1.262,15.594-7.346,19.1l.391,3.788s.625-.486,1.7.452a48.986,48.986,0,0,0,9.937,6.364c4.327,1.939,5.351,5.171,5.351,5.171l5.42,12.193,4.482-10.525,1.594-.309s-.448-5.667,1.463-8.273,4.968-5.8,4.795-9.068c0,0,2.4-.452,2.189,1.841a14.7,14.7,0,0,1-1.343,4.551s8.674-4.134,10.272-5.8c0,0,2.432-.313,2.918.452s1.946-.208,2.328.938.869,1.5,1.112,2.3-1.181,2.672-1.181,2.672.035.695.139,1.39S103.989,78.149,99.264,79.5l1.181.556-6.636,22.826s-1.163,7.734-9.458,7.22a7.352,7.352,0,0,1-5.679-3.231l-4.021,9L76.4,131.215l-8.789.546s.764,1.456-2.328,1.977c0,0,1.355,2.154-1.459,3.544,0,0,1.008,2.189-1.772,3.057,0,0-.553,2.357-3.891,2.05s-7.921-3.718-7.921-3.718l-5.906-5.641-1.257,2.862a7.635,7.635,0,0,1-3.086-1.529c-.133-.118-.457-.38-.932-.755l-9.4-1.163,1.124-5.213c-5.5-4.2-11.394-8.677-11.394-8.677a10.488,10.488,0,0,1-.8-7.713m59.122-5.4h0m.956,1.423-.01-.016.01.016m-.037-.056-.087-.129.087.129m-.143-.213-.1-.155.1.155m-.129-.192-.162-.242.162.242m-.212-.315-.024-.036.024.036m-.21-.312-.064-.1.064.1m-.088-.131-.018-.027.018.027m-.075-.112-.026-.039.026.039m-.037-.054-.02-.029.02.029M61.829,58.243h0m-1.6.651.008,0-.008,0m.037-.015.06-.024-.06.024m.117-.048.162-.066-.162.066m.2-.081.238-.1-.238.1m.324-.132.081-.033-.081.033m.172-.07.122-.05-.122.05m.2-.083.038-.015-.038.015m.079-.032.12-.049-.12.049m.184-.075.266-.108-.266.108m-1.737.708-.146.06.146-.06m-.279.114-.256.1.256-.1m-.34.139-.084.034.084-.034m-.39.159-.048.02.048-.02m-.142.058-.038.016.038-.016m-.134.055-.048.02.048-.02m-.105.043-.005,0,.005,0m-.07.029-.06.024.06-.024m-.146.059h0m-.059.024-.053.021.053-.021m-.062.025-.02.008.02-.008m-.024.01-.028.011.028-.011m-.041.017-.01,0,.01,0" transform="translate(-16.212 -15.136)" fill="#fff"/><path d="M348.69,936.163s.012-.446,1.27.227,4.875,4.39,8.736,5.727,4.561,2.336,5.662,4.948,5.82,13.063,5.78,12.945,4.208-9.857,4.208-9.857.207-.953,2.188.493a17.3,17.3,0,0,0,6.346,2.871c2.089.46,2.477-.079,2.6.831s-5.82,20.823-5.82,20.823-1.809,6.255-4.326,7.561-6.8,1.386-8.179.475-1.293-1.68-1.293-1.68l4.391-8.75-15.258-7.407s-1.893-9.948-2.452-12.66-3.3-13.2-3.3-13.2Z" transform="translate(-303.871 -888.846)" fill="#dce4eb"/><path d="M821.3,2046.608l1.208,13.064-6.86.428-.076-1.454Z" transform="translate(-764.433 -1943.466)" fill="#dce4eb"/><path d="M1244.209,953.675c2.73-12.138,5.823-24.209,8.629-36.336,0,0,.765-5.622,3.908-6.557s7.9-4.378,9.171-6.3c1.828-2.646,1.516-4.885,3.9-4.468,4.41,4.959,9.773,18.7,10.807,24.37l-4.443-1.741L1263.6,948.755s.482,1.421,0,2.075.431,1.334.746,1.382c1.082.755,13.879,9.224,13.727,10,0,.437-1.544.049-2.8,1.992s-4.327,3.885-5.179,8.257-2.878,2.249-2.878,2.249l-2.523-1.909-8.656-1.081.763-4.893-1.576-1.193q-3.328-2.509-6.636-5.048c-2.359-1.535-4.855-3.813-4.377-6.913" transform="translate(-1244.15 -854.606)" fill="#dce4eb"/><path d="M1456.356,683.77l2.315,2.137-.272,7.471s-.722-.914-1.894.352c-1.345,1.453-1.694,4.632-3.539,6.247a17.016,17.016,0,0,1-5.413,3.455c.079-1.522.55-3.773.688-5.315.148-1.645.219-3.3.344-4.942a31.726,31.726,0,0,1,.9-5.894c.45-1.665,1.981-4.429,3.685-5.235Z" transform="translate(-1432.445 -647.673)" fill="#f9e9aa"/><path d="M938.923,14.019c5.583-3.232,12.447-1.225,17.186,2.62a14.212,14.212,0,0,1,4.445,6.06c.852,2.336,2.08,5.313,1.626,7.834-.425,2.367-.993,2.876-.993,2.876a18.711,18.711,0,0,1-3.9-2.549,19.792,19.792,0,0,1-2.482-2.221s-3.439.218-5.212-.619-8.692-7.221-9.112-7.865-1.312.364-1.418,1.493-2.535,13.231-6.346,15.293l-1.241,2c-.2.329-1.545,1.412-1.859,1.255-.14-.07-1.115-.873-1.226-.983-3.465-3.463-3.671-9.219-2.138-13.63a20.743,20.743,0,0,1,3.34-5.847c1.123-1.444,2.663-3.873,4.365-4.637a20.692,20.692,0,0,1,4.964-1.076" transform="translate(-909.734 -11.779)" fill="#f9e9aa"/><path d="M638.722,882.112a.78.78,0,0,1-.243.043c-.379,0-.524-.364-.665-.715l-.032-.081c-.3-.727-.6-1.464-.9-2.176-.222-.533-.452-1.084-.675-1.627-.349-.849-.751-1.691-1.14-2.505a33.56,33.56,0,0,1-1.6-3.724,8.742,8.742,0,0,0-1.05-2.092,5.462,5.462,0,0,0-2.424-2.1c-1.09-.459-2.16-1.013-3.2-1.548-.425-.22-.865-.447-1.3-.665a33.974,33.974,0,0,0,2.649,5.117c.285.466.371.737.307.967s-.272.411-.724.647c-.093.049-.191.095-.286.14a2.522,2.522,0,0,0-1.024.725c.18.085.353.171.521.255a11.6,11.6,0,0,0,1.11.5,1.587,1.587,0,0,1,1.118,1.841c-.048.618-.1,1.246-.152,1.854-.124,1.478-.252,3.006-.329,4.514-.079,1.545-.237,3.112-.39,4.627-.06.6-.122,1.212-.179,1.819-.04.431-.09.968-.66.968l-.069,0c-.653-.046-.622-.56-.594-1.014,0-.036,0-.072.006-.108.021-.413.061-.852.122-1.34.234-1.872.349-3.786.461-5.636.105-1.751.214-3.562.424-5.335a.932.932,0,0,0-.677-1.134c-.526-.2-1.045-.444-1.548-.68-.272-.128-.554-.26-.833-.384-.344-.152-.7-.31-.719-.76-.022-.494.347-.686.728-.84a8.49,8.49,0,0,0,2.043-1.144c-.377-.706-.769-1.414-1.147-2.1-.851-1.538-1.73-3.129-2.472-4.75a1.413,1.413,0,0,0-.578-.565l-.075-.05q-.288-.193-.578-.382a16.58,16.58,0,0,1-2.91-2.241l-.006-.006a1.214,1.214,0,0,0-.855-.485c-.018.07-.032.145-.047.224-.052.288-.107.585-.4.687a.868.868,0,0,1-.16.082.643.643,0,0,1-.231.041.774.774,0,0,1-.733-.525,21.811,21.811,0,0,1-.717-4.369.773.773,0,0,1,.72-.8l.06,0a.667.667,0,0,1,.211.035.518.518,0,0,1,.376.277.766.766,0,0,1,.154.411c.042.7.117,1.394.225,2.06.007.043.014.085.021.128l.007.039a.672.672,0,0,0,.564.287,2.577,2.577,0,0,1,1.507.714,43.746,43.746,0,0,0,10.892,6.714,6.938,6.938,0,0,1,3.211,3.085,29.678,29.678,0,0,1,1.54,3.373c.372.914.756,1.858,1.21,2.755.7,1.385,1.288,2.855,1.857,4.277.189.473.385.963.582,1.442a1.213,1.213,0,0,1,.107.9.655.655,0,0,1-.418.333" transform="translate(-571.054 -812.176)" fill="#3a3d3f"/><path d="M.258,809.813l.019-.078L1.712,803.7c2.167-9.109,4.408-18.528,6.643-27.785a31.873,31.873,0,0,1,1.1-3.412c.121-.332.246-.675.366-1.012a4.863,4.863,0,0,1,.328-.731l0,0a7.149,7.149,0,0,1,3.4-3.154c1.016-.5,2-1.094,2.958-1.666.416-.249.846-.507,1.273-.754a14.631,14.631,0,0,0,3.585-2.875,13.655,13.655,0,0,0,2.433-3.886,2,2,0,0,1,1.615-1.241.912.912,0,0,0,.57-.236v-6a.779.779,0,0,1,.72-.8l.058,0a.773.773,0,0,1,.742.725v1.816c.034.943.034,1.977,0,3.254v1.382a.85.85,0,0,1-.055.3l-.012.33a1.177,1.177,0,0,0,.178.832c.393.533.779,1.085,1.152,1.619.288.412.585.838.884,1.252a42.012,42.012,0,0,1,5.122,10.467,1.125,1.125,0,0,0,.47.656.634.634,0,0,1,.208-.04q1.312-.02,2.623-.09c.461-.037.908-.067,1.346-.088l.111-.006q1.834-.139,3.658-.378,1.228-.161,2.45-.367c.8-.135,1.411-.25,2.175-.408-.15-.569-.283-1.146-.411-1.7a27.538,27.538,0,0,0-.867-3.188,28.333,28.333,0,0,1-1.018-3.381c-.1-.438-.125-.906.435-1.049a.781.781,0,0,1,.192-.026c.4,0,.567.391.654.685.167.565.341,1.137.509,1.691.4,1.317.813,2.679,1.168,4.032,1.2,4.569,2.01,9.3,2.794,13.867.161.94.328,1.912.5,2.867.134.765.221,1.55.305,2.31.031.281.063.572.1.857a1.567,1.567,0,0,1-.013.568l4.174,2.024h0l3.279,1.59c0-.032.009-.064.015-.1a23.785,23.785,0,0,0-.7-9.475c-.352-1.511-.586-3.068-.812-4.574-.138-.918-.28-1.866-.448-2.795a.915.915,0,0,1,.09-.7.6.6,0,0,1,.421-.232.838.838,0,0,1,.124-.01c.434,0,.589.394.674.738.031.123.053.25.074.373l.007.041c.133.768.261,1.551.384,2.307.333,2.04.677,4.15,1.159,6.2a24.306,24.306,0,0,1,.584,5.791,13.863,13.863,0,0,1-.242,2.564,1.83,1.83,0,0,1-.136.449l4.619,2.239a.74.74,0,0,1,.343.989l-3.74,7.714a7.687,7.687,0,0,0,5.8,2.653,8.251,8.251,0,0,0,2.76-.485,6.981,6.981,0,0,0,3.677-3.532,36.33,36.33,0,0,0,2.839-7.476c1.259-4.36,2.519-8.8,3.738-13.093l.024-.085.96-3.38c.014-.048.031-.1.048-.144a.714.714,0,0,0,0-.657c-4.133-.472-7.19-1.81-9.619-4.21-.075.151-.139.277-.2.387-.105.207-.181.357-.25.512-1.148,2.577-2,4.585-2.815,6.526-.827,1.959-1.681,3.981-2.837,6.574l-.006.014a4.393,4.393,0,0,1-.458.853.633.633,0,0,1-.511.271.737.737,0,0,1-.327-.082.607.607,0,0,1-.352-.687,3,3,0,0,1,.218-.679c1.208-2.718,2.13-4.892,3.022-7l0-.006c.931-2.2,1.894-4.467,3.171-7.326.287-.643.7-.983,1.188-.983a1.249,1.249,0,0,1,.479.1,3.4,3.4,0,0,0,0-.977,11.944,11.944,0,0,1,2.377-8.424,21.427,21.427,0,0,0,3.72-7.551.938.938,0,0,1,.995-.837l.091,0a2.76,2.76,0,0,1,2.475,2.21,5.054,5.054,0,0,1-.3,2.328,6.313,6.313,0,0,1-.249.659,4.206,4.206,0,0,0-.33,1.028,1.145,1.145,0,0,0,.531-.187c.044-.024.093-.051.142-.076a41.839,41.839,0,0,0,4.863-3.045l.154-.107c.213-.147.426-.3.615-.431l0,0a19.288,19.288,0,0,1,2.654-1.665,3.222,3.222,0,0,1,1.4-.328,2.394,2.394,0,0,1,1.83.762.78.78,0,0,0,.622.339,1.51,1.51,0,0,0,.289-.033,2.927,2.927,0,0,1,.559-.058c1.068,0,1.709.71,1.759,1.949a.768.768,0,0,0,.313.645,2.105,2.105,0,0,1,.81,1.425,1.935,1.935,0,0,1-.51,1.442l-.066.076c-.462.532-.86.991-.512,1.749a.99.99,0,0,1-.1.8c-.027.065-.052.127-.073.188a9.575,9.575,0,0,1-2.205,3.187l-.064.07a50.524,50.524,0,0,1-8.793,7.857c-.463.315-.955.605-1.431.886-.25.148-.5.3-.753.451a.512.512,0,0,1,.23.165c.18.239.1.667-.111,1.425-.561,1.978-1.126,3.991-1.673,5.938l0,.008c-1.191,4.242-2.423,8.629-3.688,12.934a35.706,35.706,0,0,1-3.039,7.226,7.425,7.425,0,0,1-3.162,2.948,9.612,9.612,0,0,1-4.369,1.048,7.654,7.654,0,0,1-4.9-1.635c-.446-.37-.872-.76-1.273-1.166l-3.554,7.331,1.731,15.389a.763.763,0,0,1-.58.877.682.682,0,0,1-.141.014.746.746,0,0,1-.75-.6l-1.48-13.16-5.882,12.13a.736.736,0,0,1-.329.336,2.221,2.221,0,0,1,.318,2.01,2.732,2.732,0,0,1-2.312,2.035,2.548,2.548,0,0,1-1.094,2.99.594.594,0,0,0-.224.676,2.023,2.023,0,0,1-1.129,2.338,3.819,3.819,0,0,0-1.713,1.581,1.968,1.968,0,0,1-1.54.914l-.1.012a15.9,15.9,0,0,1-1.871.15,4.836,4.836,0,0,1-2.528-.622c-.7-.4-1.444-.746-2.167-1.076l0-.021-.009.019c-.311-.142-.634-.289-.947-.44-2.454-1.175-4.994-3.762-6.691-5.6-.4-.439-.44-.821-.106-1.137a.688.688,0,0,1,.472-.214,1.091,1.091,0,0,1,.713.409l.06.064c.036.039.075.081.113.119.241.242.5.5.764.779a20.133,20.133,0,0,0,4.583,3.887c.71.355,1.434.71,2.135,1.053l.027.013c.662.324,1.346.66,2.017.994a3.444,3.444,0,0,0,1.573.344,10.212,10.212,0,0,0,1.581-.168l.292-.046a.827.827,0,0,0,.645-.534,2.636,2.636,0,0,1,1.657-1.539,1.3,1.3,0,0,0,.739-.6.575.575,0,0,0-.028-.465c-.507-1.1.09-1.614.8-2.083.763-.5.841-.929.321-1.756a.983.983,0,0,1-.165-.865.956.956,0,0,1,.677-.529,5.027,5.027,0,0,1,.707-.137c.179-.026.364-.053.541-.094a1.079,1.079,0,0,0,.829-.979.921.921,0,0,0-.538-.981,4.681,4.681,0,0,0-.589-.315c-2.158-.913-3.9-1.708-5.475-2.5-.464-.234-.842-.475-.759-1.064a1.263,1.263,0,0,1,1.013-1.2,1.731,1.731,0,0,1,.378-.04,3.228,3.228,0,0,1,.739.1l.167.039c.674.159,1.372.323,2.063.461a3.017,3.017,0,0,0,.586.061,1.642,1.642,0,0,0,1.551-.847.909.909,0,0,0-.462-.281c-.069-.025-.141-.051-.209-.083a23.977,23.977,0,0,0-6.277-1.937,4.855,4.855,0,0,0-.782-.073,3.654,3.654,0,0,0-1.428.406c-.108.047-.221.1-.33.141-.624.255-1.251.525-1.865.8-.455.2-.913.419-1.363.635-.1.048-.2.106-.307.167a1.934,1.934,0,0,1-.911.339.652.652,0,0,1-.595-.422.605.605,0,0,1-.041-.487,1.475,1.475,0,0,1,.8-.7c1.053-.482,2.128-.956,3.194-1.409.135-.057.273-.12.407-.18a7.863,7.863,0,0,1,1.148-.447,6.287,6.287,0,0,1,1.638-.222,7.281,7.281,0,0,1,1.561.177,32.116,32.116,0,0,1,6.792,2.373c.411.192.927.534.664,1.278a2.807,2.807,0,0,1-2.306,2.087,6.412,6.412,0,0,1-1.033.08,10.047,10.047,0,0,1-1.395-.107,7.508,7.508,0,0,0,.847.426c.33.149.669.294,1,.435.7.3,1.423.613,2.109.972a.74.74,0,0,1,.053-.146l14.7-30.317L56.36,792.61l-1.009,2.081a.74.74,0,0,1-.989.343l-14.257-6.913a.74.74,0,0,1-.343-.989l1.009-2.081-7.764-3.765L21.561,804.894a.74.74,0,1,1-1.332-.646l10.515-21.687a2.133,2.133,0,0,1-.433-.465c-.494-.645-.993-1.3-1.475-1.935-.9-1.187-1.836-2.414-2.767-3.61a1.334,1.334,0,0,1,0-1.848c.328-.424.639-.87.94-1.3.128-.183.259-.372.39-.556a1.241,1.241,0,0,0-.726-.317c-.066-.011-.128-.022-.189-.037-.694-.166-1.4-.327-2.085-.483-.66-.151-1.343-.307-2.013-.466-.993-.236-1.215-.561-1.082-1.578.053-.406.114-.818.172-1.217.11-.747.223-1.518.293-2.281a14.688,14.688,0,0,0,.025-1.648c-.005-.258-.011-.525-.012-.8l-.463.329a49.081,49.081,0,0,1-5.915,3.8,8.429,8.429,0,0,0-3.825,3.188l.008.008.011.012-.009.014q-.087.132-.17.272a.739.739,0,0,1-.054.093,9.048,9.048,0,0,0-.736,1.707c-.956,2.943-1.665,6-2.351,8.954-.229.986-.465,2-.708,3.005-2.167,8.945-4.081,16.981-5.852,24.566a5.736,5.736,0,0,0,2.294,6.556c4.494,3.307,9.007,6.747,13.372,10.073,1.948,1.485,3.962,3.02,5.948,4.523l.169.129a5.608,5.608,0,0,0,1.853,1.07c.5.138.705.448.593.9a.668.668,0,0,1-.737.514c-.048,0-.1,0-.152-.008a3.93,3.93,0,0,1-1.976-.9l-5.168-3.933L13.865,825.8,13.3,829.5a.8.8,0,0,1-.745.727h0c-.023,0-.046,0-.069,0a.882.882,0,0,1-.59-.327.633.633,0,0,1-.137-.492l.709-4.674c-3.213-2.444-6.46-4.91-9.677-7.343a7.443,7.443,0,0,1-1.672-1.658,7.158,7.158,0,0,1-1.109-4.009,6.11,6.11,0,0,1,.247-1.912M87.785,771.58a38.8,38.8,0,0,0,4.913-4.764l0,0c.5-.546,1.017-1.109,1.536-1.654a3.545,3.545,0,0,0,.962-1.867.969.969,0,0,0-.1-.005,1.128,1.128,0,0,0-.706.309l-.052.04c-1.757,1.328-3.3,2.51-4.716,3.613a11.278,11.278,0,0,1-3.182,1.684c-.254.092-.507.18-.751.265l-.013,0c-2.107.735-4.286,1.5-5.407,3.767a.719.719,0,0,1-.64.431A.811.811,0,0,1,79,772.117a5.992,5.992,0,0,1,2.1-2.415,18.611,18.611,0,0,1,4.605-2.174,10.987,10.987,0,0,0,3.627-1.994c.392-.307.781-.624,1.156-.932a24.468,24.468,0,0,1,3.333-2.427l.194-.11a5.708,5.708,0,0,0,1.925-1.476c.041-.055.087-.108.131-.16.18-.209.334-.388.181-.623a.287.287,0,0,0-.233-.161.806.806,0,0,0-.363.155c-.062.038-.121.074-.18.1a27.892,27.892,0,0,0-5.281,3.5,15.661,15.661,0,0,1-3.225,2.017,1.485,1.485,0,0,1-.61.164.665.665,0,0,1-.634-.442c-.266-.589.132-.883.6-1.113a12.642,12.642,0,0,0,1.2-.657c.942-.594,1.85-1.274,2.729-1.933a26.376,26.376,0,0,1,4.495-2.912.842.842,0,0,0,.372-.477l.02-.047c.09-.207.174-.4.034-.585a.317.317,0,0,0-.269-.133,1.256,1.256,0,0,0-.321.062l-.02.006a3.6,3.6,0,0,0-1.459.8,36.7,36.7,0,0,1-4.775,3.471c-.913.591-1.857,1.2-2.753,1.85a1.192,1.192,0,0,1-.673.268.7.7,0,0,1-.593-.359c-.27-.411-.145-.81.359-1.152q.291-.2.581-.4c.578-.4,1.176-.809,1.785-1.186a39.7,39.7,0,0,0,5.013-3.611c.03-.026.064-.052.089-.071.146-.112.251-.193.187-.372s-.194-.189-.391-.2l-.095-.006c-.091-.008-.175-.011-.257-.011a1.685,1.685,0,0,0-.992.282c-.4.272-.808.541-1.2.8l-.023.015c-.493.326-1,.662-1.5,1A38.948,38.948,0,0,1,80.8,762.6l-.085.036a1.572,1.572,0,0,1-.6.167.722.722,0,0,1-.463-.169,1.081,1.081,0,0,1-.287-1.112v-.01a4.457,4.457,0,0,1,.373-1.192l.059-.14c.06-.145.122-.29.184-.435a8.442,8.442,0,0,0,.752-2.392c.056-.529.054-1.055-.619-1.176a1.167,1.167,0,0,0-.273.615c-.014.062-.027.119-.042.175a19.74,19.74,0,0,1-3.287,6.238c-2.014,2.833-2.762,5.423-2.355,8.151a3.028,3.028,0,0,1-.252,1.825,9.951,9.951,0,0,0,1.052.858,12.756,12.756,0,0,0,5.9,2.24l.052-.029a53.59,53.59,0,0,0,6.884-4.674m-37.13,15.808q-.122-.831-.243-1.662c-.579-3.978-1.178-8.091-2.139-12.071-.014-.059-.024-.122-.034-.182a.8.8,0,0,0-.288-.591l-.164.026q-1.13.225-2.267.414a67.186,67.186,0,0,1-9.52.886l-.53.045c.057.18.108.345.156.5.1.327.186.609.291.884.653,1.716,1.193,3.5,1.716,5.227q.141.464.282.929a2.222,2.222,0,0,1,.063.256L49.212,787.5l1.584.768c-.046-.258-.091-.539-.141-.879M42.1,785.7l-.686,1.415,12.925,6.267.686-1.415-10.273-4.981ZM23.319,770.392c1.488.315,3.078.681,5,1.152a.866.866,0,0,1,.585,1.518,21.377,21.377,0,0,1-1.331,1.841.945.945,0,0,0,0,1.423c.971,1.207,1.92,2.465,2.837,3.681q.474.629.95,1.257l.007.01.63-1.3a.74.74,0,0,1,.989-.343l3.367,1.633c-.361-1.231-.776-2.452-1.181-3.64-.322-.946-.656-1.923-.957-2.894-1.876-6.043-4.135-10.579-7.107-14.278l-.122-.15a4,4,0,0,1-1-1.812l-.08,0a.866.866,0,0,0-.864.507,20.461,20.461,0,0,1-1.434,2.466,2.9,2.9,0,0,0-.433,1.754,27.951,27.951,0,0,1-.445,6.281c-.107.56.036.778.589.894" transform="translate(1.263 -712.337)" fill="#3a3d3f"/><path d="M1247.264,1692.162c2.582,1.832,5.2,3.706,7.73,5.518l1.638,1.173.8.571c.932.666,1.9,1.353,2.833,2.046a2.315,2.315,0,0,1,1.1,1.636.772.772,0,0,1-.584.937.809.809,0,0,1-.179.021.675.675,0,0,1-.653-.6,1.809,1.809,0,0,0-.88-1.087c-1.572-1.122-3.17-2.265-4.715-3.37-2.815-2.013-5.725-4.1-8.595-6.132-.809-.574-.965-1.151-.505-1.871a.812.812,0,0,0-.236-1.167,1.713,1.713,0,0,1-.688-1.373c.022-.106.041-.212.059-.314a4.214,4.214,0,0,1,.156-.667c.746-2.12,1.519-4.271,2.266-6.352l.009-.024c.147-.41.341-.847.775-.847a.841.841,0,0,1,.271.05.692.692,0,0,1,.433.337,1.369,1.369,0,0,1-.116.98l-.007.019q-.285.8-.567,1.591c-.507,1.428-1.031,2.9-1.575,4.346a1.186,1.186,0,0,0,.278,1.516,1.637,1.637,0,0,1,.532,1.925c-.284.595-.024.82.424,1.138" transform="translate(-1224.898 -1595.581)" fill="#3a3d3f"/><path d="M1280.063,2150.216v0a11.516,11.516,0,0,1,.959-3.057,37.644,37.644,0,0,1,5.093-7.763,2.641,2.641,0,0,1,.542-.492.952.952,0,0,1,.527-.19.65.65,0,0,1,.489.234.684.684,0,0,1-.068,1.007c-.086.1-.177.2-.265.292-.156.167-.317.341-.458.525l-.074.1c-2.217,2.886-4.509,5.871-5.324,9.611a.684.684,0,0,1-.7.579,1.007,1.007,0,0,1-.151-.012c-.472-.074-.555-.459-.574-.825" transform="translate(-1253.198 -2030.925)" fill="#3a3d3f"/><path d="M1616,1867.547a.748.748,0,0,1-.7.778,16.69,16.69,0,0,0-2.263.235l-.139.025-.027.005-.288.059q-.287.062-.572.134-.534.135-1.058.3a16.884,16.884,0,0,0-2.077.828l-.186.092-.2.1q-.26.137-.515.283-.51.291-1,.619a.74.74,0,1,1-.823-1.231,17.558,17.558,0,0,1,9.066-2.933.755.755,0,0,1,.777.7" transform="translate(-1597.749 -1772.763)" fill="#3a3d3f"/><path d="M1481.428,1193.9a18.121,18.121,0,0,1,2.667,2.321,19.555,19.555,0,0,1,5.271,11.537.74.74,0,0,1-1.479.076c-.027-.294-.061-.588-.1-.88q-.03-.211-.065-.421c-.014-.086-.03-.172-.045-.259l-.005-.029-.007-.033c-.115-.557-.247-1.109-.408-1.654a18.979,18.979,0,0,0-1.068-2.764l-.08-.162-.09-.175q-.075-.146-.153-.29-.172-.318-.355-.629-.4-.678-.856-1.321-.436-.615-.921-1.195-.112-.134-.227-.266l-.076-.086-.132-.146q-.244-.266-.5-.522a18.066,18.066,0,0,0-2.348-1.992.748.748,0,0,1-.067-1.045.758.758,0,0,1,1.045-.067" transform="translate(-1464.789 -1133.569)" fill="#3a3d3f"/><path d="M1067.036,664.569a.925.925,0,0,1,.77-1.488c.865-.056,1.809-.095,2.973-.121h.018l.024-.025h.044a.1.1,0,0,1,.065.021c.423-.011.853-.034,1.27-.056.537-.029,1.093-.059,1.641-.062h.01a1.137,1.137,0,0,1,.983.472.934.934,0,0,1,.027.922,9.014,9.014,0,0,1-2.037,3.115,2.343,2.343,0,0,1-1.612.739,2.431,2.431,0,0,1-1.357-.467,9.858,9.858,0,0,1-2.82-3.05m4.2,2.17a1.183,1.183,0,0,0,.726-.428,7.364,7.364,0,0,0,1.343-1.988l-4.687.1a5.635,5.635,0,0,0,2.432,2.276.509.509,0,0,0,.186.036" transform="translate(-1029.557 -629.432)" fill="#3a3d3f"/><path d="M1123.7,786.31l.048,0c.088-.006.179-.011.27-.011.31,0,.726.066.749.641.029.71-.619.737-1.007.753-.077,0-.156.006-.237.006-.236,0-.862,0-.865-.707,0-.641.528-.66.916-.674l.126-.005" transform="translate(-1082.164 -746.669)" fill="#3a3d3f"/><path d="M1068.362,540.251a.6.6,0,0,1,.031-.78.652.652,0,0,1,.392-.224.464.464,0,0,1,.061,0,.434.434,0,0,1,.271.093,4.588,4.588,0,0,1,1.452,1.75.655.655,0,0,1-.087.572,2.667,2.667,0,0,1-1.585,1.052.794.794,0,0,1-.083.016.731.731,0,0,1-.093.006h0a.578.578,0,0,1-.536-.347.607.607,0,0,1,.234-.8,1.705,1.705,0,0,1,.284-.159,1.36,1.36,0,0,0,.317-.188l.064-.055-.181-.227c-.191-.239-.371-.464-.54-.7" transform="translate(-1025.255 -512.067)" fill="#3a3d3f"/><path d="M1012.194,453.436a1.233,1.233,0,1,1-1.25-1.038,1.155,1.155,0,0,1,1.25,1.038" transform="translate(-963.905 -429.598)" fill="#3a3d3f"/><path d="M1274.249,463.048a1.123,1.123,0,1,1,.074,2.21h-.017a1.123,1.123,0,1,1-.074-2.209Z" transform="translate(-1240.582 -439.711)" fill="#3a3d3f"/><path d="M898.46,94.874c.109-.4.233-.87.331-1.338a26.84,26.84,0,0,0,.425-3.65c.065-.93.132-1.892.276-2.834.023-.458.042-.928.061-1.383V85.64c.043-1.032.088-2.1.173-3.148a12.037,12.037,0,0,1,3-6.82,2.786,2.786,0,0,1,.441-.447c-.092-.114-.181-.231-.265-.352a6.806,6.806,0,0,1-1.2-3.779,3.7,3.7,0,0,1,.75-2.438.816.816,0,0,1-.081-.081c-.253-.3-.532-.577-.8-.849a11.86,11.86,0,0,1-1.112-1.235,7.7,7.7,0,0,1-1.388-3.322,20.052,20.052,0,0,1-.223-3.56,19.186,19.186,0,0,1,.843-5.017,24.06,24.06,0,0,1,3.279-6.241l.145-.22a17.956,17.956,0,0,1,4.926-4.692,3.479,3.479,0,0,1,2.12-.588c.36,0,.728.029,1.085.057l.141.011a.623.623,0,0,1,.608.627.668.668,0,0,1-.606.72,2.678,2.678,0,0,1-.465.046,1.67,1.67,0,0,1-.222-.014,2.88,2.88,0,0,0-.383-.026,3.538,3.538,0,0,0-2.174.845,19.182,19.182,0,0,0-4.544,4.871,17.923,17.923,0,0,0-3.309,10.4c0,3.13.83,5.192,2.706,6.686a1.513,1.513,0,0,1,.449.57,2.6,2.6,0,0,1,1.528-.494,3.394,3.394,0,0,1,1.2.239,1,1,0,0,1,.6.488.688.688,0,0,1-.016.547.576.576,0,0,1-.561.406,1.409,1.409,0,0,1-.507-.118,1.837,1.837,0,0,0-.667-.138,1.663,1.663,0,0,0-1.328.77,2.789,2.789,0,0,0-.6,2.085,4.95,4.95,0,0,0,2.964,4.294,3.353,3.353,0,0,0,1.434.269h.132a1.456,1.456,0,0,1,.4.048.536.536,0,0,1,.156-.023,1.122,1.122,0,0,1,.675.341c.38.33.765.668,1.137.995.681.6,1.383,1.215,2.086,1.808A30.091,30.091,0,0,0,920.3,84a9,9,0,0,0,3.157.782,4.263,4.263,0,0,0,1.149-.153,12.423,12.423,0,0,0,5.3-3.127,13.288,13.288,0,0,0,3.039-4.056,16.127,16.127,0,0,0,1.424-4.886c.229-1.692.391-3.4.482-5.075.046-.858.075-1.727.086-2.582,0-.079,0-.173-.007-.273a1.731,1.731,0,0,1,.221-1.2.583.583,0,0,1,.439-.169c.03,0,.063,0,.1,0,.67.064.725.725.7,1.293-.051,1.083-.116,2.234-.207,3.62a33.636,33.636,0,0,1-1.238,8.041,15.549,15.549,0,0,1-4.065,6.263,14.805,14.805,0,0,1-4.555,2.987,6.758,6.758,0,0,1-2.872.6,9.321,9.321,0,0,1-2.951-.5,28.189,28.189,0,0,1-5.617-2.662,38.588,38.588,0,0,1-6.965-5.529l-.017-.017a2.4,2.4,0,0,1-.286.032c-.117.007-.232.01-.341.01a3.885,3.885,0,0,1-1.338-.215,6.276,6.276,0,0,1-1.634-.881,9.441,9.441,0,0,0-3.049,6c-.348,2.835-.494,5.737-.636,8.545l-.008.158a23.26,23.26,0,0,1-.677,4.288c-.108.45-.378.707-.741.707a.915.915,0,0,1-.3-.053c-.442-.152-.581-.505-.426-1.078" transform="translate(-882.484 -40.691)" fill="#3a3d3f"/><path d="M886.517,22.487a.684.684,0,0,1-.386-.407,1.008,1.008,0,0,1,.168-.783,8.166,8.166,0,0,0,.62-5.914,17.062,17.062,0,0,0-3.472-7.613,15.65,15.65,0,0,0-6.917-5.055,18.2,18.2,0,0,0-6.058-1.245c-.153,0-.307,0-.46.009-2.026.078-4.121.158-5.957,1.339a.9.9,0,0,1-.48.16.661.661,0,0,1-.526-.274.7.7,0,0,1,.12-1.007,3.5,3.5,0,0,1,1.7-.929A26.349,26.349,0,0,1,870.619,0a14.235,14.235,0,0,1,3.324.376A19.78,19.78,0,0,1,881.6,3.9a18.207,18.207,0,0,1,5.219,6.619,20.677,20.677,0,0,1,1.872,7.155,8.653,8.653,0,0,1-1,4.063l-.089.2c-.193.43-.433.64-.732.64a.8.8,0,0,1-.348-.089" transform="translate(-832.999 0.004)" fill="#3a3d3f"/><path d="M1346.6,175.553a2.413,2.413,0,0,1,.071-.4.609.609,0,0,1,.619-.455h.035a.618.618,0,0,1,.621.5,3.083,3.083,0,0,1,.058.52c0,.065.006.126.011.184v.017a26.14,26.14,0,0,1-.7,3.427q-.068.271-.136.542a38.454,38.454,0,0,1-1.626,5.207,20.223,20.223,0,0,1-2.668,4.77l-.094.123a9.684,9.684,0,0,1-1.4,1.576,1.115,1.115,0,0,1-.7.328.691.691,0,0,1-.519-.262c-.4-.451-.093-.836.222-1.122a11.115,11.115,0,0,0,1.437-1.7c2.923-3.97,3.879-8.766,4.724-13,.017-.085.028-.174.038-.26" transform="translate(-1316.366 -165.893)" fill="#3a3d3f"/><path d="M926.931,183.585a36.609,36.609,0,0,1-2.719-4.164l-.012-.02a1.042,1.042,0,0,1-.121-1.016.677.677,0,0,1,.6-.333.928.928,0,0,1,.724.552c.139.225.277.453.409.673.331.549.674,1.117,1.047,1.646l.24.34c1.771,2.51,3.6,5.1,6.32,6.8.409.255.8.548,1.181.831l.11.082a.7.7,0,0,1,.263.978.631.631,0,0,1-.571.34.992.992,0,0,1-.33-.062l-.019-.007a1.846,1.846,0,0,1-.528-.253c-.4-.313-.826-.613-1.237-.9a13.047,13.047,0,0,1-2.869-2.477c-.41-.52-.845-1.034-1.266-1.532-.406-.48-.827-.976-1.225-1.479" transform="translate(-882.47 -169.079)" fill="#3a3d3f"/><path d="M1087.03,149.251a.69.69,0,0,1,.429-.17,1.011,1.011,0,0,1,.729.5,25.721,25.721,0,0,0,4.654,4.9,17.864,17.864,0,0,0,5.97,3.146.689.689,0,0,1,.558.845c-.081.371-.334.543-.8.543-.046,0-.1,0-.147,0h-.008l-.008,0-.145-.038c-.139-.037-.312-.082-.484-.134a16.369,16.369,0,0,1-4.186-2.046,25.17,25.17,0,0,1-6.526-6.253c-.305-.408-.548-.88-.037-1.288" transform="translate(-1054.98 -141.568)" fill="#3a3d3f"/><path d="M562.567,317.643h.008l3.4.315a.694.694,0,0,1-.12,1.382h-.008l-3.4-.315a.694.694,0,0,1,.12-1.382" transform="translate(-495.74 -301.633)" fill="#3a3d3f"/><path d="M577.659,202.415l3.333-1.466a.694.694,0,1,1,.559,1.27l-3.333,1.466a.694.694,0,1,1-.559-1.27" transform="translate(-511.879 -190.765)" fill="#3a3d3f"/><path d="M657.442,109.322l2.071-2.714a.693.693,0,1,1,1.1.841l-2.071,2.714a.694.694,0,0,1-1.1-.841" transform="translate(-594.706 -100.976)" fill="#3a3d3f"/></g></g><g transform="translate(353.858 664) rotate(180)"><g transform="translate(0 0)"><g transform="translate(0)" clip-path="url(#b)"><path d="M27.395,121.722A7.271,7.271,0,0,1,21.7,119c-2.058-2.843-4.39-7.1-4.207-9.7s.142-3.629.83-5.191,2.749-6.122,2.749-6.122-3.28-5.36,3.686-7.678l.875-.631.312-5.966a.936.936,0,0,1-1.367-.582,11.953,11.953,0,0,1-.564-2.68s-.776.529-1.269-.6-1.881-3.985-1.881-3.985S9.66,69.581,8.143,69.016a4.718,4.718,0,0,1-2.821-3.773C5,63.48.033,27.44.033,27.44s-.388-3.982,1.516-5.57S12.234,13.9,12.234,13.9L11.67,8.15,29.126,6.53S35.941-.181,39.811,0,43.478,1.45,44.219,2.12s2.327,1.552,2.01,2.715S47.71,6.81,47.71,6.81L60.158,7.8,58.174,31.56l1.7,2.861s4.3-4.655,7.652-4.126,7.793,2.186,10.4,11.778,3.7,14.987,3.7,14.987l-.882,1.411.741,2.21-1.375.506s-.035,1.058,1.693,1.834,12.237,7.582,14,12.378v1.516l1.2,1.869a2.235,2.235,0,0,0-1.128,1.622c-.176,1.164.282,2.222-.705,2.116s-1.728-.564-1.9-.035-1.164,1.587-2.01,1.2-8.569-5.783-10.509-6.1l-.6.494,1.34,4.443S81,84.074,80.259,83.968s-.529-.141-1.128-1.587A26.149,26.149,0,0,0,75.992,76.6c-1.3-1.587-3.1-4.161-3.1-6.594s.212-3.033-.212-3.632-.846-1.34-.846-1.34h-.972l-4.812-8.887-4.731,11.6s.217,1.977-2.957,3.07a57.058,57.058,0,0,0-9.193,3.959c-1.845,1.154-3.182,3.588-3.836,4.54A20.488,20.488,0,0,1,43.2,81.676s6.312,2.387,7.935,8.352,2.253,18.026,2.343,20.529-.992,7.582-5.653,9.909-9.033,5.466-13.406,4.443-5.507-1.157-7.021-3.188" transform="translate(0.539 0.668)" fill="#fff"/><path d="M20.691,26.067,33.4,51.826l4.007-1.79c-1.135,1.692-9.655,22.115-13.516,23.624-1.137-.339-1.137-.439-1.8-2.274-1-4.1-12.335-7.637-15.137-9.573,0,0-1.356-.9-1.935-4.487S.137,21.386.137,21.386a7.323,7.323,0,0,1,2.912-7.379c4.009-2.912,9.414-6.661,9.414-6.661l-.678-5.924L26.84,0l-.147.175c-.583.682-1.116,1.4-1.7,2.082-.041,0-.093.009-.109.009-4.028-.194-2.381,3.321-1.261,5.56,1.193,1.822,1.975,3.931,3.435,5.562.516.81,1.42.03,2.042-.236l.755.927a1.946,1.946,0,0,1-.977,2.161c-1.364.8-9.93,5.731-9.93,5.731s-.664,1.227-.35,1.681,2.1,2.413,2.1,2.413" transform="translate(2.357 7.198)" fill="#a9b9ca"/><path d="M0,45.4l1.877-5.533S5.32,23.537,5.32,19.792L17.5,13.55,12.614,3.268S15.283.732,17.5.316s8.73-1.765,12.053,7.491a100.194,100.194,0,0,1,4.51,19.185s.164.5-.451.624-4.948-.568-10.892,3.76c0,0-.5.655-.823.572s-2.828-6.537-2.828-6.537L14.709,37.022s-.41,1.623-4.346,3.537S1.871,43.121,0,45.4" transform="translate(49.139 31.124)" fill="#a9b9ca"/><path d="M10.6,23.337s-.295,2.685-.295,2.792L8.872,23.71s.191-1.592.324-2.683C6.932,16.147,1.968,5.634,1.968,5.634A1.248,1.248,0,0,0,2.6,4.017C2.233,2.809-.037,2.506,0,1.978A19.475,19.475,0,0,1,.4,0L12.428.94Z" transform="translate(49.798 7.631)" fill="#a9b9ca"/></g></g><g transform="translate(39.308 51.857)"><g transform="translate(0 0)" clip-path="url(#c)"><path d="M.67.67a.392.392,0,1,0-.555,0A.392.392,0,0,0,.67.67" transform="translate(9.52 22.202)" fill="#f4dd92"/><path d="M.67.67a.392.392,0,1,0-.555,0A.392.392,0,0,0,.67.67" transform="translate(10.552 21.17)" fill="#f4dd92"/><path d="M.67.67a.392.392,0,1,0-.555,0A.392.392,0,0,0,.67.67" transform="translate(7.456 22.202)" fill="#f4dd92"/><path d="M.67.67a.392.392,0,1,0-.555,0A.392.392,0,0,0,.67.67" transform="translate(8.488 21.17)" fill="#f4dd92"/><path d="M.67.67a.392.392,0,1,0-.555,0A.392.392,0,0,0,.67.67" transform="translate(9.52 20.138)" fill="#f4dd92"/><path d="M.67.67a.392.392,0,1,0-.555,0A.392.392,0,0,0,.67.67" transform="translate(10.552 19.106)" fill="#f4dd92"/><path d="M.67.67a.392.392,0,1,0-.555,0A.392.392,0,0,0,.67.67" transform="translate(5.391 22.202)" fill="#f4dd92"/><path d="M.67.67a.392.392,0,1,0-.555,0A.392.392,0,0,0,.67.67" transform="translate(6.424 21.17)" fill="#f4dd92"/><path d="M.67.67a.392.392,0,1,0-.555,0A.392.392,0,0,0,.67.67" transform="translate(7.456 20.138)" fill="#f4dd92"/><path d="M.67.67a.392.392,0,1,0-.555,0A.392.392,0,0,0,.67.67" transform="translate(8.488 19.106)" fill="#f4dd92"/><path d="M.67.67a.392.392,0,1,0-.555,0A.392.392,0,0,0,.67.67" transform="translate(9.52 18.074)" fill="#f4dd92"/><path d="M.67.67a.392.392,0,1,0-.555,0A.392.392,0,0,0,.67.67" transform="translate(10.552 17.042)" fill="#f4dd92"/><path d="M.67.67a.392.392,0,1,0-.555,0A.392.392,0,0,0,.67.67" transform="translate(3.327 22.202)" fill="#f4dd92"/><path d="M.67.67a.392.392,0,1,0-.555,0A.392.392,0,0,0,.67.67" transform="translate(4.359 21.17)" fill="#f4dd92"/><path d="M.67.67a.392.392,0,1,0-.555,0A.392.392,0,0,0,.67.67" transform="translate(5.391 20.138)" fill="#f4dd92"/><path d="M.67.67a.392.392,0,1,0-.555,0A.392.392,0,0,0,.67.67" transform="translate(6.424 19.106)" fill="#f4dd92"/><path d="M.67.67a.392.392,0,1,0-.555,0A.392.392,0,0,0,.67.67" transform="translate(7.456 18.074)" fill="#f4dd92"/><path d="M.67.67a.392.392,0,1,0-.555,0A.392.392,0,0,0,.67.67" transform="translate(8.488 17.042)" fill="#f4dd92"/><path d="M.67.67a.392.392,0,1,0-.555,0A.392.392,0,0,0,.67.67" transform="translate(9.52 16.01)" fill="#f4dd92"/><path d="M.67.67a.392.392,0,1,0-.555,0A.392.392,0,0,0,.67.67" transform="translate(10.552 14.977)" fill="#f4dd92"/><path d="M.67.67a.392.392,0,1,0-.555,0A.392.392,0,0,0,.67.67" transform="translate(1.263 22.202)" fill="#f4dd92"/><path d="M.67.67a.392.392,0,1,0-.555,0A.392.392,0,0,0,.67.67" transform="translate(2.295 21.17)" fill="#f4dd92"/><path d="M.67.67a.392.392,0,1,0-.555,0A.392.392,0,0,0,.67.67" transform="translate(3.327 20.138)" fill="#f4dd92"/><path d="M.67.67a.392.392,0,1,0-.555,0A.392.392,0,0,0,.67.67" transform="translate(4.359 19.106)" fill="#f4dd92"/><path d="M.67.67a.392.392,0,1,0-.555,0A.392.392,0,0,0,.67.67" transform="translate(5.391 18.074)" fill="#f4dd92"/><path d="M.67.67a.392.392,0,1,0-.555,0A.392.392,0,0,0,.67.67" transform="translate(6.424 17.042)" fill="#f4dd92"/><path d="M.67.67a.392.392,0,1,0-.555,0A.392.392,0,0,0,.67.67" transform="translate(7.456 16.01)" fill="#f4dd92"/><path d="M.67.67a.392.392,0,1,0-.555,0A.392.392,0,0,0,.67.67" transform="translate(8.488 14.977)" fill="#f4dd92"/><path d="M.67.67a.392.392,0,1,0-.555,0A.392.392,0,0,0,.67.67" transform="translate(9.52 13.945)" fill="#f4dd92"/><path d="M.67.67a.392.392,0,1,0-.555,0A.392.392,0,0,0,.67.67" transform="translate(10.552 12.913)" fill="#f4dd92"/><path d="M.67.67a.392.392,0,1,0-.555,0A.392.392,0,0,0,.67.67" transform="translate(-0.802 22.202)" fill="#f4dd92"/><path d="M.67.67a.392.392,0,1,0-.555,0A.392.392,0,0,0,.67.67" transform="translate(0.231 21.17)" fill="#f4dd92"/><path d="M.67.67a.392.392,0,1,0-.555,0A.392.392,0,0,0,.67.67" transform="translate(1.263 20.138)" fill="#f4dd92"/><path d="M.67.67a.392.392,0,1,0-.555,0A.392.392,0,0,0,.67.67" transform="translate(2.295 19.106)" fill="#f4dd92"/><path d="M.67.67a.392.392,0,1,0-.555,0A.392.392,0,0,0,.67.67" transform="translate(3.327 18.074)" fill="#f4dd92"/><path d="M.67.67a.392.392,0,1,0-.555,0A.392.392,0,0,0,.67.67" transform="translate(4.359 17.042)" fill="#f4dd92"/><path d="M.67.67a.392.392,0,1,0-.555,0A.392.392,0,0,0,.67.67" transform="translate(5.391 16.01)" fill="#f4dd92"/><path d="M.67.67a.392.392,0,1,0-.555,0A.392.392,0,0,0,.67.67" transform="translate(6.424 14.977)" fill="#f4dd92"/><path d="M.67.67a.392.392,0,1,0-.555,0A.392.392,0,0,0,.67.67" transform="translate(7.456 13.945)" fill="#f4dd92"/><path d="M.67.67a.392.392,0,1,0-.555,0A.392.392,0,0,0,.67.67" transform="translate(8.488 12.913)" fill="#f4dd92"/><path d="M.67.67a.392.392,0,1,0-.555,0A.392.392,0,0,0,.67.67" transform="translate(9.52 11.881)" fill="#f4dd92"/><path d="M.67.67a.392.392,0,1,0-.555,0A.392.392,0,0,0,.67.67" transform="translate(10.552 10.849)" fill="#f4dd92"/><path d="M.67.67a.392.392,0,1,0-.555,0A.392.392,0,0,0,.67.67" transform="translate(-0.802 20.138)" fill="#f4dd92"/><path d="M.67.67a.392.392,0,1,0-.555,0A.392.392,0,0,0,.67.67" transform="translate(0.231 19.106)" fill="#f4dd92"/><path d="M.67.67a.392.392,0,1,0-.555,0A.392.392,0,0,0,.67.67" transform="translate(1.263 18.074)" fill="#f4dd92"/><path d="M.67.67a.392.392,0,1,0-.555,0A.392.392,0,0,0,.67.67" transform="translate(2.295 17.042)" fill="#f4dd92"/><path d="M.67.67a.392.392,0,1,0-.555,0A.392.392,0,0,0,.67.67" transform="translate(3.327 16.01)" fill="#f4dd92"/><path d="M.67.67a.392.392,0,1,0-.555,0A.392.392,0,0,0,.67.67" transform="translate(4.359 14.977)" fill="#f4dd92"/><path d="M.67.67a.392.392,0,1,0-.555,0A.392.392,0,0,0,.67.67" transform="translate(5.391 13.945)" fill="#f4dd92"/><path d="M.67.67a.392.392,0,1,0-.555,0A.392.392,0,0,0,.67.67" transform="translate(6.424 12.913)" fill="#f4dd92"/><path d="M.67.67a.392.392,0,1,0-.555,0A.392.392,0,0,0,.67.67" transform="translate(7.456 11.881)" fill="#f4dd92"/><path d="M.67.67a.392.392,0,1,0-.555,0A.392.392,0,0,0,.67.67" transform="translate(8.488 10.849)" fill="#f4dd92"/><path d="M.67.67a.392.392,0,1,0-.555,0A.392.392,0,0,0,.67.67" transform="translate(9.52 9.816)" fill="#f4dd92"/><path d="M.67.67a.392.392,0,1,0-.555,0A.392.392,0,0,0,.67.67" transform="translate(10.552 8.784)" fill="#f4dd92"/><path d="M.67.67a.392.392,0,1,0-.555,0A.392.392,0,0,0,.67.67" transform="translate(-0.802 18.074)" fill="#f4dd92"/><path d="M.67.67a.392.392,0,1,0-.555,0A.392.392,0,0,0,.67.67" transform="translate(0.231 17.042)" fill="#f4dd92"/><path d="M.67.67a.392.392,0,1,0-.555,0A.392.392,0,0,0,.67.67" transform="translate(1.263 16.01)" fill="#f4dd92"/><path d="M.67.67a.392.392,0,1,0-.555,0A.392.392,0,0,0,.67.67" transform="translate(2.295 14.977)" fill="#f4dd92"/><path d="M.67.67a.392.392,0,1,0-.555,0A.392.392,0,0,0,.67.67" transform="translate(3.327 13.945)" fill="#f4dd92"/><path d="M.67.67a.392.392,0,1,0-.555,0A.392.392,0,0,0,.67.67" transform="translate(4.359 12.913)" fill="#f4dd92"/><path d="M.67.67a.392.392,0,1,0-.555,0A.392.392,0,0,0,.67.67" transform="translate(5.391 11.881)" fill="#f4dd92"/><path d="M.67.67a.392.392,0,1,0-.555,0A.392.392,0,0,0,.67.67" transform="translate(6.424 10.849)" fill="#f4dd92"/><path d="M.67.67a.392.392,0,1,0-.555,0A.392.392,0,0,0,.67.67" transform="translate(7.456 9.816)" fill="#f4dd92"/><path d="M.67.67a.392.392,0,1,0-.555,0A.392.392,0,0,0,.67.67" transform="translate(8.488 8.784)" fill="#f4dd92"/><path d="M.67.67a.392.392,0,1,0-.555,0A.392.392,0,0,0,.67.67" transform="translate(9.52 7.752)" fill="#f4dd92"/><path d="M.67.67a.392.392,0,1,0-.555,0A.392.392,0,0,0,.67.67" transform="translate(10.552 6.72)" fill="#f4dd92"/><path d="M.67.67a.392.392,0,1,0-.555,0A.392.392,0,0,0,.67.67" transform="translate(-0.802 16.01)" fill="#f4dd92"/><path d="M.67.67a.392.392,0,1,0-.555,0A.392.392,0,0,0,.67.67" transform="translate(0.231 14.977)" fill="#f4dd92"/><path d="M.67.67a.392.392,0,1,0-.555,0A.392.392,0,0,0,.67.67" transform="translate(1.263 13.945)" fill="#f4dd92"/><path d="M.67.67a.392.392,0,1,0-.555,0A.392.392,0,0,0,.67.67" transform="translate(2.295 12.913)" fill="#f4dd92"/><path d="M.67.67a.392.392,0,1,0-.555,0A.392.392,0,0,0,.67.67" transform="translate(3.327 11.881)" fill="#f4dd92"/><path d="M.67.67a.392.392,0,1,0-.555,0A.392.392,0,0,0,.67.67" transform="translate(4.359 10.849)" fill="#f4dd92"/><path d="M.67.67a.392.392,0,1,0-.555,0A.392.392,0,0,0,.67.67" transform="translate(5.391 9.816)" fill="#f4dd92"/><path d="M.67.67a.392.392,0,1,0-.555,0A.392.392,0,0,0,.67.67" transform="translate(6.424 8.784)" fill="#f4dd92"/><path d="M.67.67a.392.392,0,1,0-.555,0A.392.392,0,0,0,.67.67" transform="translate(7.456 7.752)" fill="#f4dd92"/><path d="M.67.67a.392.392,0,1,0-.555,0A.392.392,0,0,0,.67.67" transform="translate(8.488 6.72)" fill="#f4dd92"/><path d="M.67.67a.392.392,0,1,0-.555,0A.392.392,0,0,0,.67.67" transform="translate(9.52 5.688)" fill="#f4dd92"/><path d="M.67.67a.392.392,0,1,0-.555,0A.392.392,0,0,0,.67.67" transform="translate(10.552 4.656)" fill="#f4dd92"/><path d="M.67.67a.392.392,0,1,0-.555,0A.392.392,0,0,0,.67.67" transform="translate(-0.802 13.945)" fill="#f4dd92"/><path d="M.67.67a.392.392,0,1,0-.555,0A.392.392,0,0,0,.67.67" transform="translate(0.231 12.913)" fill="#f4dd92"/><path d="M.67.67a.392.392,0,1,0-.555,0A.392.392,0,0,0,.67.67" transform="translate(1.263 11.881)" fill="#f4dd92"/><path d="M.67.67a.392.392,0,1,0-.555,0A.392.392,0,0,0,.67.67" transform="translate(2.295 10.849)" fill="#f4dd92"/><path d="M.67.67a.392.392,0,1,0-.555,0A.392.392,0,0,0,.67.67" transform="translate(3.327 9.816)" fill="#f4dd92"/><path d="M.67.67a.392.392,0,1,0-.555,0A.392.392,0,0,0,.67.67" transform="translate(4.359 8.784)" fill="#f4dd92"/><path d="M.67.67a.392.392,0,1,0-.555,0A.392.392,0,0,0,.67.67" transform="translate(5.391 7.752)" fill="#f4dd92"/><path d="M.67.67a.392.392,0,1,0-.555,0A.392.392,0,0,0,.67.67" transform="translate(6.424 6.72)" fill="#f4dd92"/><path d="M.67.67a.392.392,0,1,0-.555,0A.392.392,0,0,0,.67.67" transform="translate(7.456 5.688)" fill="#f4dd92"/><path d="M.67.67a.392.392,0,1,0-.555,0A.392.392,0,0,0,.67.67" transform="translate(8.488 4.656)" fill="#f4dd92"/><path d="M.67.67a.392.392,0,1,0-.555,0A.392.392,0,0,0,.67.67" transform="translate(9.52 3.623)" fill="#f4dd92"/><path d="M.67.67a.392.392,0,1,0-.555,0A.392.392,0,0,0,.67.67" transform="translate(10.552 2.591)" fill="#f4dd92"/><path d="M.67.67a.392.392,0,1,0-.555,0A.392.392,0,0,0,.67.67" transform="translate(-0.802 11.881)" fill="#f4dd92"/><path d="M.67.67a.392.392,0,1,0-.555,0A.392.392,0,0,0,.67.67" transform="translate(0.231 10.849)" fill="#f4dd92"/><path d="M.67.67a.392.392,0,1,0-.555,0A.392.392,0,0,0,.67.67" transform="translate(1.263 9.816)" fill="#f4dd92"/><path d="M.67.67a.392.392,0,1,0-.555,0A.392.392,0,0,0,.67.67" transform="translate(2.295 8.784)" fill="#f4dd92"/><path d="M.67.67a.392.392,0,1,0-.555,0A.392.392,0,0,0,.67.67" transform="translate(3.327 7.752)" fill="#f4dd92"/><path d="M.67.67a.392.392,0,1,0-.555,0A.392.392,0,0,0,.67.67" transform="translate(4.359 6.72)" fill="#f4dd92"/><path d="M.67.67a.392.392,0,1,0-.555,0A.392.392,0,0,0,.67.67" transform="translate(5.391 5.688)" fill="#f4dd92"/><path d="M.67.67a.392.392,0,1,0-.555,0A.392.392,0,0,0,.67.67" transform="translate(6.424 4.656)" fill="#f4dd92"/><path d="M.67.67a.392.392,0,1,0-.555,0A.392.392,0,0,0,.67.67" transform="translate(7.456 3.623)" fill="#f4dd92"/><path d="M.67.67a.392.392,0,1,0-.555,0A.392.392,0,0,0,.67.67" transform="translate(8.488 2.591)" fill="#f4dd92"/><path d="M.67.67a.392.392,0,1,0-.555,0A.392.392,0,0,0,.67.67" transform="translate(9.52 1.559)" fill="#f4dd92"/><path d="M.67.67a.392.392,0,1,0-.555,0A.392.392,0,0,0,.67.67" transform="translate(10.552 0.527)" fill="#f4dd92"/><path d="M.67.67a.392.392,0,1,0-.555,0A.392.392,0,0,0,.67.67" transform="translate(-0.802 9.816)" fill="#f4dd92"/><path d="M.67.67a.392.392,0,1,0-.555,0A.392.392,0,0,0,.67.67" transform="translate(0.231 8.784)" fill="#f4dd92"/><path d="M.67.67a.392.392,0,1,0-.555,0A.392.392,0,0,0,.67.67" transform="translate(1.263 7.752)" fill="#f4dd92"/><path d="M.67.67a.392.392,0,1,0-.555,0A.392.392,0,0,0,.67.67" transform="translate(2.295 6.72)" fill="#f4dd92"/><path d="M.67.67a.392.392,0,1,0-.555,0A.392.392,0,0,0,.67.67" transform="translate(3.327 5.688)" fill="#f4dd92"/><path d="M.67.67a.392.392,0,1,0-.555,0A.392.392,0,0,0,.67.67" transform="translate(4.359 4.656)" fill="#f4dd92"/><path d="M.67.67a.392.392,0,1,0-.555,0A.392.392,0,0,0,.67.67" transform="translate(5.391 3.623)" fill="#f4dd92"/><path d="M.67.67a.392.392,0,1,0-.555,0A.392.392,0,0,0,.67.67" transform="translate(6.424 2.591)" fill="#f4dd92"/><path d="M.67.67a.392.392,0,1,0-.555,0A.392.392,0,0,0,.67.67" transform="translate(7.456 1.559)" fill="#f4dd92"/><path d="M.67.67a.392.392,0,1,0-.555,0A.392.392,0,0,0,.67.67" transform="translate(8.488 0.527)" fill="#f4dd92"/><path d="M.67.67a.392.392,0,1,0-.555,0A.392.392,0,0,0,.67.67" transform="translate(9.52 -0.505)" fill="#f4dd92"/><path d="M.67.67a.392.392,0,1,0-.555,0A.392.392,0,0,0,.67.67" transform="translate(-0.802 7.752)" fill="#f4dd92"/><path d="M.67.67a.392.392,0,1,0-.555,0A.392.392,0,0,0,.67.67" transform="translate(0.231 6.72)" fill="#f4dd92"/><path d="M.67.67a.392.392,0,1,0-.555,0A.392.392,0,0,0,.67.67" transform="translate(1.263 5.688)" fill="#f4dd92"/><path d="M.67.67a.392.392,0,1,0-.555,0A.392.392,0,0,0,.67.67" transform="translate(2.295 4.656)" fill="#f4dd92"/><path d="M.67.67a.392.392,0,1,0-.555,0A.392.392,0,0,0,.67.67" transform="translate(3.327 3.623)" fill="#f4dd92"/><path d="M.67.67a.392.392,0,1,0-.555,0A.392.392,0,0,0,.67.67" transform="translate(4.359 2.591)" fill="#f4dd92"/><path d="M.67.67a.392.392,0,1,0-.555,0A.392.392,0,0,0,.67.67" transform="translate(5.391 1.559)" fill="#f4dd92"/><path d="M.67.67a.392.392,0,1,0-.555,0A.392.392,0,0,0,.67.67" transform="translate(6.424 0.527)" fill="#f4dd92"/><path d="M.67.67a.392.392,0,1,0-.555,0A.392.392,0,0,0,.67.67" transform="translate(7.456 -0.505)" fill="#f4dd92"/><path d="M.67.67a.392.392,0,1,0-.555,0A.392.392,0,0,0,.67.67" transform="translate(-0.802 5.688)" fill="#f4dd92"/><path d="M.67.67a.392.392,0,1,0-.555,0A.392.392,0,0,0,.67.67" transform="translate(0.231 4.656)" fill="#f4dd92"/><path d="M.67.67a.392.392,0,1,0-.555,0A.392.392,0,0,0,.67.67" transform="translate(1.263 3.623)" fill="#f4dd92"/><path d="M.67.67a.392.392,0,1,0-.555,0A.392.392,0,0,0,.67.67" transform="translate(2.295 2.591)" fill="#f4dd92"/><path d="M.67.67a.392.392,0,1,0-.555,0A.392.392,0,0,0,.67.67" transform="translate(3.327 1.559)" fill="#f4dd92"/><path d="M.67.67a.392.392,0,1,0-.555,0A.392.392,0,0,0,.67.67" transform="translate(4.359 0.527)" fill="#f4dd92"/><path d="M.67.67a.392.392,0,1,0-.555,0A.392.392,0,0,0,.67.67" transform="translate(5.391 -0.505)" fill="#f4dd92"/><path d="M.67.67a.392.392,0,1,0-.555,0A.392.392,0,0,0,.67.67" transform="translate(-0.802 3.623)" fill="#f4dd92"/><path d="M.67.67a.392.392,0,1,0-.555,0A.392.392,0,0,0,.67.67" transform="translate(0.231 2.591)" fill="#f4dd92"/><path d="M.67.67a.392.392,0,1,0-.555,0A.392.392,0,0,0,.67.67" transform="translate(1.263 1.559)" fill="#f4dd92"/><path d="M.67.67a.392.392,0,1,0-.555,0A.392.392,0,0,0,.67.67" transform="translate(2.295 0.527)" fill="#f4dd92"/><path d="M.67.67a.392.392,0,1,0-.555,0A.392.392,0,0,0,.67.67" transform="translate(3.327 -0.505)" fill="#f4dd92"/><path d="M.67.67a.392.392,0,1,0-.555,0A.392.392,0,0,0,.67.67" transform="translate(-0.802 1.559)" fill="#f4dd92"/><path d="M.67.67a.392.392,0,1,0-.555,0A.392.392,0,0,0,.67.67" transform="translate(0.231 0.527)" fill="#f4dd92"/><path d="M.67.67a.392.392,0,1,0-.555,0A.392.392,0,0,0,.67.67" transform="translate(1.263 -0.505)" fill="#f4dd92"/><path d="M.67.67a.392.392,0,1,0-.555,0A.392.392,0,0,0,.67.67" transform="translate(-0.802 -0.505)" fill="#f4dd92"/></g></g><g transform="translate(0 0)"><g transform="translate(0)" clip-path="url(#b)"><path d="M35.109,12.187c-.029,1.387-.5,6.137-3.641,8.261s-8.193,6.107-14.242,5.96c0,0-5.844.118-7.43-3.187,0,0-2.63.835-5.345-2.183S.516,13.4.134,11.98.193,6.994,1.367,4.368C2.139,2.643,2.751,1.059,3.081.174a5.888,5.888,0,0,0,2.1.132A8.721,8.721,0,0,0,6.743,0L6.536,2.879A3.02,3.02,0,0,1,7.887,4.928a22.994,22.994,0,0,1,0,3.629s1.909,8.32,6.7,8.084c0,0,1.66,2.036,2.871,1.652s1.907-1.3,3.071-1.829,4.909-.014,5.129-.531,1.976-.738,2.6-.472,2.172-.725,3.272-2.111,1.592-3.5,2.091-3.714,1.519,1.164,1.489,2.55" transform="translate(20.134 99.023)" fill="#f9e9aa"/><path d="M2.236,8.412a.861.861,0,0,1-.216.728,1.928,1.928,0,0,0-.455,1.96c.008.06.016.119.024.179.188,1.464.375,2.95.556,4.388l.189,1.5c0,.035.009.07.015.108a2.72,2.72,0,0,1,.031.311c.011.453-.171.716-.541.782a.89.89,0,0,1-.153.014c-.343,0-.577-.233-.642-.639-.089-.556-.157-1.125-.222-1.676l0-.017c-.028-.237-.057-.474-.086-.711Q.474,13.3.215,11.261L.018,9.7A.73.73,0,0,1,.345,8.87a.975.975,0,0,0,.488-1.3,1.3,1.3,0,0,1,.742-1.554C3.759,4.695,5.918,3.358,8.123,1.991c.269-.167.536-.345.8-.521A13.074,13.074,0,0,1,10.686.421c.077-.036.153-.08.228-.124s.138-.081.211-.116A1.478,1.478,0,0,1,11.73,0a.577.577,0,0,1,.533.354c.288.543-.172.824-.507,1.03L6.219,4.776,4.563,5.791c-.11.067-.22.136-.329.206-.24.152-.489.309-.743.446-.8.431-1.547.838-1.255,1.968" transform="translate(17.567 22.537)" fill="#3a3d3f"/><path d="M3.017,11.928c-.657,2.83-1.182,5.372-1.6,7.77L1.4,19.78c-.076.449-.192.887-.685.887a.96.96,0,0,1-.155-.013.646.646,0,0,1-.45-.249,1.143,1.143,0,0,1-.061-.847c.114-.581.222-1.173.327-1.746.245-1.341.5-2.728.838-4.071A91.93,91.93,0,0,0,3.113,2l.077-.656A4.044,4.044,0,0,1,3.358.476.647.647,0,0,1,3.978,0,.852.852,0,0,1,4.2.03.618.618,0,0,1,4.68.637C4.5,1.88,4.352,3.123,4.208,4.328a70.054,70.054,0,0,1-1.19,7.6" transform="translate(48.547 51.754)" fill="#3a3d3f"/><path d="M2.564,15.221A12.667,12.667,0,0,1,1.14,16.246a.972.972,0,0,1-.507.172.582.582,0,0,1-.5-.294c-.249-.38-.146-.715.314-1.026A24.189,24.189,0,0,0,7.238,7.3,19.68,19.68,0,0,0,9.26,1.819l0-.008q.089-.344.179-.687c.02-.078.037-.158.054-.238A3.412,3.412,0,0,1,9.575.554C9.691.186,9.906,0,10.215,0a.854.854,0,0,1,.135.011c.353.055.53.37.526.938V.954c-.082.329-.163.668-.241,1a20.631,20.631,0,0,1-1.62,4.917,27.345,27.345,0,0,1-6.449,8.354" transform="translate(10.525 51.117)" fill="#3a3d3f"/><path d="M7.779,2.437c-.145.005-.3.008-.492.008l-.38,0-.379,0H6.489a16.781,16.781,0,0,1-5.37-.906,3.66,3.66,0,0,1-.831-.391A.594.594,0,0,1,.062.366.6.6,0,0,1,.638,0L.707,0A1.868,1.868,0,0,1,1.2.118a15.72,15.72,0,0,0,5.489.972c.155,0,.312,0,.466-.006l.163,0a2.9,2.9,0,0,1,.508.038c.448.079.675.316.657.685a.646.646,0,0,1-.7.633" transform="translate(7.703 29.137)" fill="#3a3d3f"/><path d="M98.085,79.81a2.011,2.011,0,0,1-.75,1.374.825.825,0,0,0-.321.691c-.026,1.182-.622,1.871-1.635,1.889h-.042a2.873,2.873,0,0,1-.5-.046,1.624,1.624,0,0,0-.281-.029h-.018a.826.826,0,0,0-.657.368,2.3,2.3,0,0,1-1.742.761h-.052a3.126,3.126,0,0,1-1.3-.292,18.988,18.988,0,0,1-2.638-1.589l-.011-.008c-.186-.126-.4-.269-.608-.41l-.154-.1a41.324,41.324,0,0,0-4.86-2.92c-.051-.024-.1-.053-.139-.071a1.18,1.18,0,0,0-.558-.183H81.74l.012.078a4.206,4.206,0,0,0,.349,1.025,6.192,6.192,0,0,1,.254.638,4.936,4.936,0,0,1,.336,2.261,2.654,2.654,0,0,1-2.341,2.168l-.086,0H80.24a.863.863,0,0,1-.9-.757,21.2,21.2,0,0,0-3.816-7.4,11.721,11.721,0,0,1-2.485-8.221,2.933,2.933,0,0,0-.1-1.3l-.652-1.211a.831.831,0,0,1-.107-.165,1.074,1.074,0,0,1-.5.147c-.434,0-.784-.378-1.1-1.19l-.029-.076c-.141-.366-.263-.682-.737-.747-.3-.041-.4-.3-.5-.555-.02-.05-.041-.1-.063-.153-.8-1.784-1.619-3.628-2.605-5.4a8.16,8.16,0,0,1-.866,2.409c-.069.143-.148.306-.221.461a21.2,21.2,0,0,0-1.267,3.264,25.61,25.61,0,0,1-1.576,3.884c-.138.294-.281.6-.421.9a5.314,5.314,0,0,1-3.051,2.619c-.747.311-1.512.617-2.253.913-1.7.682-3.467,1.387-5.14,2.2a10.337,10.337,0,0,0-5.222,4.831,5.6,5.6,0,0,1-1.665,1.875,1,1,0,0,1-.616.257c-.346,0-.616-.276-.741-.757l-.009-.036a1.573,1.573,0,0,1-.077-.553,6.872,6.872,0,0,0-1.322-4.239c-.251-.435-.51-.884-.73-1.341a.333.333,0,0,0-.109-.1c-.021-.015-.045-.032-.068-.051l-.718.586q-.791.646-1.578,1.29a93.644,93.644,0,0,1-8.313,6.061,24.314,24.314,0,0,1-2.572,1.4c-.311.153-.628.31-.943.471a1.214,1.214,0,0,1,.044.359l-.112,4.624a.932.932,0,0,1-.736.978h-.031a.525.525,0,0,1-.375-.175,1.127,1.127,0,0,1-.284-.793l.1-4.253a1.446,1.446,0,0,1-.01-.3,1.359,1.359,0,0,1-1.027-1.105c-.107-.456-.228-.914-.346-1.357l-.027-.1C24.2,82,24,81.481,23.264,81.371c-.438-.066-.612-.488-.766-.861-.233-.565-.418-1.039-.567-1.42-.772-1.975-.772-1.975-2.8-3.161l-.005,0c-.33-.193-.7-.412-1.145-.677a74.191,74.191,0,0,0-7.036-3.571l-.411-.191a24.077,24.077,0,0,1-2.645-1.435A5.5,5.5,0,0,1,5.528,66.7a66.477,66.477,0,0,1-1.769-10.08c-.135-1.1-.274-2.238-.431-3.355-.486-3.475-.956-7.012-1.41-10.432l0-.03C1.359,38.625.785,34.3.177,30.057a11.417,11.417,0,0,1,.467-5.929A8.181,8.181,0,0,1,2.535,21.4a22.083,22.083,0,0,1,2.593-2.194c.526-.4,1.069-.813,1.582-1.251a26.651,26.651,0,0,1,3.826-2.563c.513-.3,1.038-.612,1.554-.935l-.553-5.42a.7.7,0,0,1,1.4-.072l.473,4.638a46.406,46.406,0,0,1,4.943-2.56c1.355-.634,2.756-1.29,4.077-2.044a1.966,1.966,0,0,1,.982-.274,2.11,2.11,0,0,1,1.188.393.9.9,0,0,0,.492.188.81.81,0,0,0,.494-.212,2.759,2.759,0,0,1,.816-.438,1.337,1.337,0,0,1,.417-.071.983.983,0,0,1,.575.176,1.172,1.172,0,0,1,.337-.6c1.789-1.943,4.466-4.669,7.05-5.907.32-.153.649-.3.967-.449l-.036-.014.12-.041-.01.021c.753-.344,1.529-.7,2.253-1.12A5.072,5.072,0,0,1,40.729,0,16.739,16.739,0,0,1,42.7.158l.1.012a2.044,2.044,0,0,1,1.6.948A4.063,4.063,0,0,0,46.224,2.8,2.1,2.1,0,0,1,47.4,5.23a.664.664,0,0,0,.249.746A2.659,2.659,0,0,1,48.79,9.1l-.011.036.036.007a2.852,2.852,0,0,1,2.414,2.123,2.3,2.3,0,0,1-.441,2.228.707.707,0,0,1,.087.137L58.35,29.088a113.385,113.385,0,0,1,.829-13.616c.182-1.378.289-2.791.393-4.156.052-.681.1-1.384.167-2.079.034-.375.09-1,.694-1a1.032,1.032,0,0,1,.142.011c.676.095.623.617.577,1.077-.005.054-.011.108-.015.161-.146,1.769-.338,3.563-.524,5.3l-.024,0,.023.008c-.345,3.217-.7,6.544-.778,9.836-.015.623-.033,1.258-.052,1.871v.017c-.052,1.772-.106,3.587-.068,5.4l6.035,12.485a.708.708,0,0,1-.328.946l-3.81,1.847,0,.042v.014c0,.035,0,.07,0,.1a116.843,116.843,0,0,1,.052,13.873c-.024.346-.023.7-.023,1.043,0,.205,0,.418,0,.627,0,.037,0,.076,0,.114v.016c-.005.473-.011,1.009-.679,1.009h-.029a.635.635,0,0,1-.465-.176,1.3,1.3,0,0,1-.188-.926l.008-.262c.058-2.027.119-4.122.21-6.182a71.8,71.8,0,0,0-.179-7.336l0-.038q-.037-.629-.072-1.259L56.715,49.56h0l-6.6,3.2a35.953,35.953,0,0,1-1.147,5.589,61.489,61.489,0,0,1-2.315,6.27c-.137.312-.325.74-.718.74a.75.75,0,0,1-.293-.068c-.642-.276-.4-.847-.229-1.264a42.528,42.528,0,0,0,3.055-9.6c.047-.292.089-.591.13-.883l.007-.051-6.889,3.34a1.726,1.726,0,0,1,.068.553q0,1.038,0,2.076v.817h.122v.9c0,.674,0,1.37,0,2.056,0,.431-.08.927-.673.93h-.006c-.591,0-.653-.482-.666-.933-.043-1.584-.08-3.195-.115-4.752l-.023-1.022-2.031.985a1.476,1.476,0,0,1-.083.28,2.119,2.119,0,0,1-.206.371,47.482,47.482,0,0,0-3.278,6.292c-.583,1.271-1.186,2.586-1.849,3.845-.011.021-.023.042-.036.063a.288.288,0,0,0-.064.234l.651-.618.026-.025c.568-.539,1.155-1.1,1.732-1.655.238-.23.471-.473.7-.707.129-.134.274-.286.416-.429a1.722,1.722,0,0,1,1.132-.642c.41,0,.774.3,1.145.947.13.227.254.461.385.708l0,.008.175.328c.155-.237.311-.467.463-.69a17.8,17.8,0,0,0,1.016-1.616c.218-.411.441-.594.723-.594a1.063,1.063,0,0,1,.517.167,4.565,4.565,0,0,0,2.3.666l.151,0,.075,0a1.242,1.242,0,0,1,1.3,1.133,18.825,18.825,0,0,1,.37,2.564,2.207,2.207,0,0,0,.719-.941l0-.007c.033-.067.067-.136.1-.2.127-.239.334-.557.668-.557a.7.7,0,0,1,.3.075.641.641,0,0,1,.355.377.89.89,0,0,1-.1.684,13.867,13.867,0,0,1-4.76,5.3.84.84,0,0,1-.446.145.615.615,0,0,1-.5-.269.656.656,0,0,1,.152-.937,2.193,2.193,0,0,1,.242-.193c.052-.037.105-.076.155-.117a6.665,6.665,0,0,1,.577-.4c.506-.329,1.03-.669,1.122-1.213A9.041,9.041,0,0,0,44.5,67.1a.421.421,0,0,0-.447-.367l-.065,0c-.068.005-.137.008-.205.008a3.87,3.87,0,0,1-1.589-.409.742.742,0,0,0-.306-.081c-.195,0-.332.134-.478.334a9.571,9.571,0,0,0-1.181,2.288,1.138,1.138,0,0,0,.128.931l.044.1a11.6,11.6,0,0,1,.827,2.258c.1.477.164,1-.423,1.158a.851.851,0,0,1-.223.033c-.431,0-.553-.43-.661-.81l-.009-.03a24.981,24.981,0,0,0-2.051-4.682l0,0q-.2-.39-.407-.784l-.187.163c-.128.11-.238.205-.337.307-.677.7-1.366,1.389-2.035,2.062-1.651,1.662-3.358,3.38-4.928,5.166a20.733,20.733,0,0,0-2.1,3.068c-.3.5-.615,1.026-.942,1.524l-.028.042c-.4.609-.812,1.239-1.74,1.274l.96,3.068c.326-.163.658-.32.979-.472a20.577,20.577,0,0,0,2.1-1.093A76.141,76.141,0,0,0,40.244,73.92a1.491,1.491,0,0,1,1.005-.377,1.474,1.474,0,0,1,1.315.748q.168.313.334.628A25.984,25.984,0,0,0,44.2,77.2a4.778,4.778,0,0,1,.591,2.692,2.047,2.047,0,0,0,.9-1.363,19.274,19.274,0,0,1,1.809-4.392l.117-.228c.176-.344.4-.518.654-.518a.715.715,0,0,1,.254.051c.417.159.535.5.352,1.022-.067.191-.138.376-.22.591l-.005.014-.1.26a1.068,1.068,0,0,0,.624-.368,2.275,2.275,0,0,1,.174-.161A31.2,31.2,0,0,0,54.5,69.573c.333-.428.332-.7,0-1.03-.271-.269-.549-.551-.794-.8q-.309-.314-.619-.626c-.33-.33-.471-.61-.431-.855s.259-.459.669-.662c.278-.137.556-.284.825-.426.459-.242.933-.492,1.417-.7a1.206,1.206,0,0,0,.792-1.333c-.11-4.3-.349-7.878-.752-11.26l-.014-.112c-.015-.127-.032-.258-.043-.388a1,1,0,0,1,.156-.754.647.647,0,0,1,.466-.207l.073,0c.539,0,.652.461.69.863q.082.871.167,1.742v.01c.1,1.036.2,2.107.3,3.161.149,1.668.193,3.367.236,5.01.024.933.049,1.9.093,2.847a1.188,1.188,0,0,1-.758,1.217c-.568.286-1.126.581-1.718.894l-.741.391c.164.178.318.35.468.517l0,0c.338.376.658.732.994,1.06a1.111,1.111,0,0,1,.04,1.777c-.54.6-1.056,1.224-1.6,1.89-.228.278-.463.564-.711.862a10.694,10.694,0,0,0,2.222-.806c.379-.172.738-.334,1.114-.471,2.021-.736,4.187-1.86,4.929-4.614a9.561,9.561,0,0,1,.5-1.324A9.2,9.2,0,0,0,63,64.038a19.191,19.191,0,0,1,1.28-3.294c.33-.716.672-1.456.944-2.209.15-.416.34-.6.614-.6a1.429,1.429,0,0,1,.715.282l-.533-1.149c-.5-1.079-1.019-2.2-1.532-3.291-.035-.076-.077-.152-.121-.234a1.12,1.12,0,0,1-.22-.807.643.643,0,0,1,.364-.365.856.856,0,0,1,.374-.1c.415,0,.615.43.791.81.022.047.043.094.065.139.79,1.642,1.581,3.3,2.347,4.9l.022.046q.857,1.791,1.715,3.581c.023.048.045.1.067.151a1.327,1.327,0,0,0,.4.582c2.743-2.422,6.2-3.872,10.878-4.562a3.333,3.333,0,0,0-.074-1.205c-.025-.129-.05-.263-.069-.4a90.455,90.455,0,0,0-4.741-17.476,10.209,10.209,0,0,0-5.577-6.425,7.24,7.24,0,0,0-2.905-.631,6.652,6.652,0,0,0-4.707,1.99l-.116.114a5.54,5.54,0,0,1-.761.664.726.726,0,0,1-.4.132.7.7,0,0,1-.543-.28.647.647,0,0,1,.064-.946c2.084-2.06,4.177-3.062,6.4-3.062a8.264,8.264,0,0,1,2.49.4,10.008,10.008,0,0,1,5.5,4.027,31.283,31.283,0,0,1,3.684,9.034c.2.717.418,1.444.624,2.148a59.65,59.65,0,0,1,2.483,11.027c.012.126.031.254.05.38a1.668,1.668,0,0,1-.39,1.677c-.171.16-.058.427.052.687a2.4,2.4,0,0,1,.112.3c.193.726.266,1.208.067,1.526a1.135,1.135,0,0,1-.664.426c.007.028.013.056.019.084l.082.4a14.946,14.946,0,0,0,2.414,1.579c.473.268.963.544,1.424.846a49.783,49.783,0,0,1,8.8,7.582l.064.067a9.4,9.4,0,0,1,2.219,3.081c.023.06.048.12.077.186a.932.932,0,0,1,.113.731c-.347.793.068,1.253.548,1.787l.067.074a1.844,1.844,0,0,1,.512,1.364M43.092,54.591l2.264-1.1,10.1-4.9L54.8,47.24l-12.368,6ZM25.3,79.183a3.275,3.275,0,0,0,.4-.475,91.712,91.712,0,0,0,8.254-14.8,24.906,24.906,0,0,1,1.661-3.168c.253-.43.51-.868.756-1.314l-2,.971a.708.708,0,0,1-.946-.328l-2.685-5.5a1.186,1.186,0,0,1-.122.287c-.5.864-1.015,1.733-1.513,2.572l-.227.383q-.35.59-.7,1.183c-.648,1.1-1.318,2.239-2.007,3.339-.312.5-.258.769.223,1.114.591.424,1.175.879,1.74,1.318.365.284.742.577,1.12.862a1.123,1.123,0,0,1,.566,1.077c-.064.464-.41.632-.823.789l-1.378.528-.007,0c-1.235.474-2.513.964-3.777,1.426a1.208,1.208,0,0,0-.862.964c-.181.8-.391,1.6-.6,2.375l-.007.027q-.121.461-.24.923l-.016.065c-.022.086-.044.175-.074.26-.143.412-.333.793-.742.793a.81.81,0,0,1-.228-.036c-.585-.172-.528-.683-.4-1.16.07-.251.152-.5.232-.747a8.078,8.078,0,0,0,.4-1.584,3.81,3.81,0,0,1,3.281-3.647,13.72,13.72,0,0,0,2.281-.814c.355-.15.721-.3,1.107-.454l-.939-.738-.028-.022c-.687-.539-1.335-1.048-1.971-1.556-.817-.653-.885-1.006-.362-1.89,1.14-1.926,2.335-3.934,3.389-5.706l1.183-1.988.044-.075c.055-.095.113-.192.178-.283a.813.813,0,0,1,.628-.408.627.627,0,0,1,.273.067L20.092,32.744a.708.708,0,1,1,1.274-.618L34.387,58.812l7.43-3.6-.966-1.991a.708.708,0,0,1,.328-.946l13.642-6.615a.708.708,0,0,1,.946.328l.966,1.991,7.43-3.6L49.633,14.311c-.673.343-1.376.645-2.058.939-.329.141-.7.3-1.053.46a8.067,8.067,0,0,0-.887.445l.024.067a10.49,10.49,0,0,1,1.455-.111,6.734,6.734,0,0,1,1.085.084,2.931,2.931,0,0,1,2.407,2.18c.265.751-.226,1.093-.683,1.306a33.841,33.841,0,0,1-7.16,2.5,7.643,7.643,0,0,1-1.64.186,6.6,6.6,0,0,1-1.72-.233,8.264,8.264,0,0,1-1.207-.469c-.134-.06-.286-.129-.43-.19C36.641,21,35.508,20.5,34.4,19.988a1.527,1.527,0,0,1-.83-.72.606.606,0,0,1,.041-.487.657.657,0,0,1,.6-.426,2.016,2.016,0,0,1,.944.353c.114.065.221.126.326.177.474.229.958.454,1.439.671.648.292,1.311.577,1.97.846.11.045.224.095.333.142l.014.006a3.882,3.882,0,0,0,1.52.432,5.174,5.174,0,0,0,.83-.077,25.336,25.336,0,0,0,6.633-2.046c.071-.033.145-.06.217-.086a.984.984,0,0,0,.5-.308l.012-.017-.01-.019a1.765,1.765,0,0,0-1.666-.912,3.222,3.222,0,0,0-.625.065c-.732.146-1.467.319-2.177.486l-.177.042a3.37,3.37,0,0,1-.772.109,1.79,1.79,0,0,1-.392-.041,1.3,1.3,0,0,1-1.043-1.239c-.084-.6.288-.839.783-1.088,1.664-.838,3.5-1.677,5.775-2.64a4.935,4.935,0,0,0,.626-.335,1,1,0,0,0,.584-1.069,1.17,1.17,0,0,0-.9-1.06c-.188-.044-.383-.072-.571-.1a5.3,5.3,0,0,1-.745-.144.977.977,0,0,1-.692-.538,1,1,0,0,1,.171-.883c.555-.883.467-1.362-.349-1.9-.739-.487-1.358-1.017-.835-2.156a.64.64,0,0,0,.03-.517,1.4,1.4,0,0,0-.8-.648,2.751,2.751,0,0,1-1.729-1.6.906.906,0,0,0-.707-.585l-.305-.048a10.841,10.841,0,0,0-1.676-.178,3.668,3.668,0,0,0-1.675.367c-.708.353-1.426.705-2.121,1.045l-.044.021c-.736.361-1.5.734-2.246,1.108a21.263,21.263,0,0,0-4.845,4.108l0,0c-.282.29-.548.563-.8.818-.042.042-.084.087-.12.127l-.063.068a1.122,1.122,0,0,1-.728.421.579.579,0,0,1-.247-.057,22.145,22.145,0,0,0,3.99,8.369l.082.1c.2.252.411.512.37.785a.649.649,0,0,1-.32.426.716.716,0,0,1-.4.139c-.336,0-.58-.318-.795-.6l-.067-.087a22.862,22.862,0,0,1-3.7-7.091c-.1-.305-.208-.613-.315-.913q-.069-.194-.138-.388c-1.324.529-1.308.583-.923,1.89a25.639,25.639,0,0,0,3.625,6.847q.3.446.594.894c.154.233.306.342.481.342a.68.68,0,0,0,.373-.139,2.214,2.214,0,0,1,.3-.161c.05-.023.1-.046.148-.071a1.548,1.548,0,0,1,.662-.21.594.594,0,0,1,.549.367c.3.58-.185.848-.579,1.064-.325.178-.592.345-.807.479a1.974,1.974,0,0,1-.9.409c-.4,0-.732-.429-1.578-1.655L28.4,20.1a26.474,26.474,0,0,1-3.9-7.136c-.039-.127-.079-.253-.12-.384a7.8,7.8,0,0,1-.408-1.728c-.04-.5-.2-.6-.456-.6a2.471,2.471,0,0,0-.439.058,5.344,5.344,0,0,0-1.768.815,9.209,9.209,0,0,1-.974.551c-.507.235-1.031.458-1.537.674a24.959,24.959,0,0,0-3.444,1.686c-.773.483-1.568.96-2.336,1.422l0,0A48.353,48.353,0,0,0,5.508,20.64c-.276.247-.563.489-.841.724-.5.419-1.011.853-1.468,1.32a7.041,7.041,0,0,0-1.822,6.08c.3,2.5.658,5.027,1,7.476v.007c.169,1.211.344,2.463.512,3.7q.474,3.5.944,7l.027.2c.632,4.7,1.286,9.554,1.946,14.356a42.7,42.7,0,0,0,1.074,4.9l.061.235a3.943,3.943,0,0,0,2.275,2.6c.774.379,1.557.757,2.317,1.124,1.657.8,3.371,1.627,5.033,2.488.9.465,1.776,1,2.626,1.514.58.352,1.179.715,1.78,1.055a3.94,3.94,0,0,1,1.847,2.2c.089.253.2.5.3.75.121.287.246.584.345.885.2.612.468,1.02,1.114,1.02.048,0,.1,0,.149-.007a1.5,1.5,0,0,1,.573-1.087m54.929-19.7a3.927,3.927,0,0,0-.759.115A18.313,18.313,0,0,0,72.3,62.615c-1.123.821-1.139.9-.377,2.153,2.631-2.373,5.933-3.289,9.09-4.023-.191-.952-.295-1.26-.787-1.26M96.375,79.151c-.044-.049-.088-.1-.129-.151A5.68,5.68,0,0,0,94.3,77.561l-.194-.1a24.1,24.1,0,0,1-3.322-2.327c-.376-.3-.765-.6-1.158-.9a10.9,10.9,0,0,0-3.636-1.912,18.293,18.293,0,0,1-4.566-2.055,5.848,5.848,0,0,1-2.094-2.319c-.265-.48-.193-.842.216-1.077a.7.7,0,0,1,.338-.1H79.9a.647.647,0,0,1,.568.378C81.622,69.389,83.8,70.1,85.9,70.8l.019.006c.241.079.49.161.739.246a11.064,11.064,0,0,1,3.15,1.594c1.415,1.061,2.958,2.2,4.718,3.479l.052.038a1.179,1.179,0,0,0,.725.3h.017a1,1,0,0,0,.1-.007l.071-.009-.014-.071a3.561,3.561,0,0,0-1-1.858c-.52-.527-1.038-1.072-1.541-1.6l-.008-.008a38.332,38.332,0,0,0-4.941-4.617A52.929,52.929,0,0,0,81.108,63.8a2.121,2.121,0,0,1-.72-.614.6.6,0,0,1-.124-.172l-.016-.024-.021-.032.011,0a1.319,1.319,0,0,1-.06-.216l-.07-.344a15.308,15.308,0,0,0-6.838,3.074.568.568,0,0,1,.082.115l.553,1.029a3.1,3.1,0,0,1,.4.748.922.922,0,0,1,.072.23,3.068,3.068,0,0,1,.066,1.211c-.355,2.716.434,5.273,2.482,8.046a19.417,19.417,0,0,1,3.344,6.073c.016.054.029.109.044.168a1.206,1.206,0,0,0,.3.637l.025.024.034-.007c.779-.155.69-.864.643-1.245a8.38,8.38,0,0,0-.79-2.365c-.064-.141-.127-.283-.189-.425-.021-.049-.036-.083-.049-.11l-.012-.028a4.348,4.348,0,0,1-.384-1.151v-.01c-.056-.406-.1-.757.24-1.041a.648.648,0,0,1,.412-.16h.012a1.549,1.549,0,0,1,.558.15l.082.033a38.369,38.369,0,0,1,7.039,3.937c.494.326,1,.647,1.487.957l.043.028c.388.247.789.5,1.186.76a1.7,1.7,0,0,0,.974.271h.047c.082,0,.167-.007.259-.016l.092-.008c.2-.015.366-.028.44-.25s-.066-.328-.216-.439c-.024-.018-.056-.042-.085-.066a39.219,39.219,0,0,0-5.019-3.477c-.606-.361-1.2-.755-1.779-1.135l-.025-.017-.555-.366c-.481-.314-.6-.654-.355-1.039a.624.624,0,0,1,.523-.334h.011a1.129,1.129,0,0,1,.618.24c.9.624,1.84,1.21,2.751,1.777A36.155,36.155,0,0,1,93.4,81.544a3.617,3.617,0,0,0,1.481.778l.02.005a1.333,1.333,0,0,0,.326.058h.01a.38.38,0,0,0,.315-.163c.159-.214.055-.442-.037-.643l-.021-.046a.883.883,0,0,0-.409-.5,25.983,25.983,0,0,1-4.474-2.785c-.879-.634-1.788-1.29-2.731-1.86a12.5,12.5,0,0,0-1.2-.63c-.52-.242-.8-.494-.581-1a.594.594,0,0,1,.557-.407h.014a1.433,1.433,0,0,1,.563.145,15.4,15.4,0,0,1,3.2,1.924,27.563,27.563,0,0,0,5.286,3.366c.056.026.115.06.172.094a.859.859,0,0,0,.392.156h.006a.343.343,0,0,0,.282-.195c.173-.277-.007-.478-.2-.691" transform="translate(0 0)" fill="#3a3d3f"/><path d="M7.69,3.694a.9.9,0,0,1-.024.886,1.092,1.092,0,0,1-.943.455h-.01c-.526,0-1.06-.03-1.576-.057-.4-.021-.813-.042-1.219-.052a.1.1,0,0,1-.063.021H3.812l-.023-.023H3.772C2.655,4.9,1.748,4.865.918,4.813A.955.955,0,0,1,.09,4.331a.946.946,0,0,1,.085-.946A9.467,9.467,0,0,1,2.877.451,2.335,2.335,0,0,1,4.179,0,2.249,2.249,0,0,1,5.728.707,8.654,8.654,0,0,1,7.69,3.694M4.9,1.7a1.137,1.137,0,0,0-.7-.409.491.491,0,0,0-.179.035,5.411,5.411,0,0,0-2.331,2.19l4.5.091A7.072,7.072,0,0,0,4.9,1.7" transform="translate(38.075 88.518)" fill="#3a3d3f"/><path d="M1.307,1.344c-.087,0-.174-.005-.259-.01L1,1.331l-.121,0C.509,1.314,0,1.3,0,.681,0,0,.6,0,.829,0c.077,0,.154,0,.228.006.373.015.994.039.968.721-.021.552-.42.616-.718.617" transform="translate(41.133 86.24)" fill="#3a3d3f"/><path d="M2.357,1.577A4.4,4.4,0,0,1,.966,3.259a.416.416,0,0,1-.26.09.442.442,0,0,1-.059,0A.626.626,0,0,1,.27,3.131a.577.577,0,0,1-.031-.749c.162-.231.334-.447.517-.677L.93,1.487.869,1.435a1.31,1.31,0,0,0-.3-.18A1.632,1.632,0,0,1,.291,1.1.583.583,0,0,1,.065.334.555.555,0,0,1,.578,0a.7.7,0,0,1,.09.006.737.737,0,0,1,.08.015A2.56,2.56,0,0,1,2.272,1.028a.627.627,0,0,1,.085.549" transform="translate(43.69 96.186)" fill="#3a3d3f"/><path d="M1.194,0A1.106,1.106,0,0,1,2.339,1.053a1.106,1.106,0,0,1-1.194,1A1.106,1.106,0,0,1,0,1,1.106,1.106,0,0,1,1.194,0" transform="translate(46.181 101.902)" fill="#3a3d3f"/><path d="M1.187,2.159l-.016,0A1.207,1.207,0,0,1,0,.949,1.208,1.208,0,0,1,1.411.008l.016,0A1.208,1.208,0,0,1,2.593,1.218a1.208,1.208,0,0,1-1.406.941" transform="translate(33.347 101.483)" fill="#3a3d3f"/><path d="M.012.686A.7.7,0,0,1,.858.18,2.973,2.973,0,0,0,2.578.063.759.759,0,0,1,3,.01.685.685,0,0,1,3.48.363a.675.675,0,0,1-.25.945,3.568,3.568,0,0,1-2.271.318,1.688,1.688,0,0,1-.53-.172A.7.7,0,0,1,.009.7V.693Z" transform="translate(46.334 106.169)" fill="#3a3d3f"/><path d="M.049.449a.713.713,0,0,1,.914-.4A5.249,5.249,0,0,0,4.269.386a.715.715,0,0,1,.8.6.719.719,0,0,1-.6.8A6.6,6.6,0,0,1,.446,1.363a.717.717,0,0,1-.4-.914" transform="translate(32.114 105.756)" fill="#3a3d3f"/><path d="M36.413,34.376a9.74,9.74,0,0,1-4.571,5.612c-.427.238-.856.492-1.274.741a21.143,21.143,0,0,1-3.36,1.731l-.4.149c-2.91,1.083-5.919,2.2-9.083,2.2h-.039c-3.123-.009-5.378-.925-6.894-2.8a1.089,1.089,0,0,0-.947-.4,6.625,6.625,0,0,1-4.73-2.021,11.313,11.313,0,0,1-2.674-3.93l-.007-.017c-.418-1.056-.85-2.148-1.359-3.182C-.3,29.675-.354,26.711.905,23.137A34.82,34.82,0,0,1,2.4,19.711c.337-.7.685-1.43,1-2.159a1.194,1.194,0,0,1,.127-.23,4.865,4.865,0,0,1-.742-2.616,5.713,5.713,0,0,1,1.48-3.831A8.2,8.2,0,0,1,8.2,8.527a2.7,2.7,0,0,1,.574-.084,1.207,1.207,0,0,1,.49.1.587.587,0,0,1,.333.666.747.747,0,0,1-.558.623c-.194.06-.394.113-.587.164-.293.077-.6.157-.88.264a5.406,5.406,0,0,0-2.7,2.1,4.253,4.253,0,0,0-.642,3.071c.189,1.094.7,1.672,1.466,1.672a2.582,2.582,0,0,0,1.239-.39,1.983,1.983,0,0,1,.3-.141.572.572,0,0,1,.521-.31.878.878,0,0,1,.171.018c.537.107.542.615.5.909l-.03.2A17.728,17.728,0,0,1,8,19.441a1.519,1.519,0,0,0,.474,1.647,3.121,3.121,0,0,1,.946,2.852A11.4,11.4,0,0,0,11.872,31.7a4.328,4.328,0,0,0,3.294,2.008.855.855,0,0,1,.651.3.682.682,0,0,1,.1.582c-.1.441-.452.478-.772.478l-.172,0h-.047c-2.318-.051-3.618-1.657-4.656-3.158a14.042,14.042,0,0,1-2.325-7.035c.008-.133.009-.253.01-.359A2.1,2.1,0,0,1,8,23.975a2,2,0,0,0-.65-2.086,2.75,2.75,0,0,1-.69-2.838c.069-.227.125-.461.173-.7a3.584,3.584,0,0,1-1.219.234,2.377,2.377,0,0,1-.288-.017,2.013,2.013,0,0,1-.468-.117c-.036-.014-.072-.029-.108-.045-.064-.028-.126-.06-.186-.093-.433,1-.85,1.9-1.271,2.749A24.489,24.489,0,0,0,2.168,23.81a10.148,10.148,0,0,0,.235,8.2c.293.6.552,1.227.8,1.834A15,15,0,0,0,5.2,37.611c1.454,1.818,2.926,2.629,4.772,2.629.078,0,.158,0,.239,0h.067a1.914,1.914,0,0,1,1.468.736,7.036,7.036,0,0,0,5.764,2.46c.283,0,.578-.011.877-.032a27.375,27.375,0,0,0,7.329-1.9,33.374,33.374,0,0,0,5.061-2.5l.09-.051A9.38,9.38,0,0,0,35.7,31.215c.045-.429.053-.869.062-1.3,0-.159.006-.318.011-.477,0-.013-.021-.04-.052-.083-.019-.026-.044-.059-.074-.1a8.281,8.281,0,0,1-2.6,3.605,4.1,4.1,0,0,1-2.758.981,6.621,6.621,0,0,1-.994-.081c-.46-.07-.692-.322-.655-.709s.292-.583.758-.616l.033,0c.029,0,.059,0,.09,0a.412.412,0,0,1,.057,0,4.476,4.476,0,0,0,.6.042c1.023,0,2.367-.312,3.7-2.745a13.411,13.411,0,0,0,1.261-6.567c0-.152,0-.306-.005-.456V22.7c0-.229-.008-.462,0-.7,0-.033-.007-.067-.009-.1q-.031-.491-.064-.981c-.063-.947-.128-1.926-.158-2.893a27.264,27.264,0,0,0-1-7.08A15.361,15.361,0,0,0,27.336,2.14a4.946,4.946,0,0,0-2.71-.756,9.534,9.534,0,0,0-2.674.448,26.163,26.163,0,0,0-5.971,2.9c-.277.165-.592.353-.9.532-.095.055-.189.117-.282.177a4.892,4.892,0,0,1-.444.266,1.115,1.115,0,0,1-.5.138.641.641,0,0,1-.57-.346.655.655,0,0,1,.3-.95l.623-.387C16.868,2.512,19.61.807,22.847.185,23.19.12,23.54.078,23.868.043c.18-.019.36-.026.534-.033h.006L24.621,0h.006c2.909.054,4.87,1.677,6.555,3.424a16.867,16.867,0,0,1,3.97,6.686,27.316,27.316,0,0,1,1.18,7.6c.023.681.072,1.371.12,2.037v.019c.022.3.046.65.067.988l.008.127c.012.191.024.386.032.582a.72.72,0,0,1,.011.079c.069.9.169,1.815.266,2.7.363,3.324.739,6.761-.425,10.132" transform="translate(17.441 81.392)" fill="#3a3d3f"/><path d="M5.319,1.64A8.257,8.257,0,0,1,1.654,4.634a2.139,2.139,0,0,1-.8.192A1.249,1.249,0,0,1,.6,4.8.677.677,0,0,1,0,4.134a.615.615,0,0,1,.506-.663A5.671,5.671,0,0,0,4.4.368.626.626,0,0,1,4.949,0a.679.679,0,0,1,.208.034.692.692,0,0,1,.486.76,1.638,1.638,0,0,1-.324.846" transform="translate(38.705 114.224)" fill="#3a3d3f"/><path d="M.87,3.248l-.009,0H.841c-.309,0-.731-.056-.827-.544A.626.626,0,0,1,.5,1.948,6.88,6.88,0,0,0,3.937.177.557.557,0,0,1,4.345,0a.687.687,0,0,1,.428.163.644.644,0,0,1,.135.888A3.251,3.251,0,0,1,3.922,2,7.82,7.82,0,0,1,.87,3.248" transform="translate(34.589 114.786)" fill="#3a3d3f"/><path d="M.717,1.627H.725l3.253-.3A.664.664,0,0,0,3.863,0H3.856L.6.3A.664.664,0,0,0,.717,1.627" transform="translate(64.824 107.844)" fill="#3a3d3f"/><path d="M.4,1.271l3.189,1.4A.664.664,0,0,0,4.12,1.46L.931.056A.664.664,0,1,0,.4,1.271" transform="translate(64.144 112.373)" fill="#3a3d3f"/><path d="M.136,1.066l1.982,2.6a.664.664,0,1,0,1.055-.805L1.191.261a.664.664,0,1,0-1.055.805" transform="translate(61.491 115.739)" fill="#3a3d3f"/></g></g></g><rect width="167" height="65" rx="32.5" transform="translate(104 496)" fill="#ffd86e"/><g transform="translate(-34)"><circle cx="6" cy="6" r="6" transform="translate(182 557)" fill="#ffd86e"/><circle cx="3.5" cy="3.5" r="3.5" transform="translate(172 569)" fill="#ffd86e"/><circle cx="3" cy="3" r="3" transform="translate(162 574)" fill="#ffd86e"/></g><g transform="translate(215 557)"><circle cx="6" cy="6" r="6" fill="#ffd86e"/><circle cx="3.5" cy="3.5" r="3.5" transform="translate(15 12)" fill="#ffd86e"/><circle cx="3" cy="3" r="3" transform="translate(26 17)" fill="#ffd86e"/></g><path d="M-16.86.5a.739.739,0,0,1-.51-.222.655.655,0,0,1-.2-.51.7.7,0,0,1,.216-.522.673.673,0,0,1,.516-.2,2.744,2.744,0,0,0,1.494-.312,1.086,1.086,0,0,0,.51-.984,1.071,1.071,0,0,0-.558-.972,3.1,3.1,0,0,0-1.59-.336q-.408,0-.78.036t-.72.1v1.512A2.532,2.532,0,0,1-19.044-.09a2.169,2.169,0,0,1-1.632.582,2.289,2.289,0,0,1-1.44-.444,1.675,1.675,0,0,1-.576-1.416,2.534,2.534,0,0,1,.75-1.788A4.979,4.979,0,0,1-19.9-4.392V-6.18q-.516.048-1,.072t-.906.036a.725.725,0,0,1-.516-.2.666.666,0,0,1-.216-.5.675.675,0,0,1,.21-.5.7.7,0,0,1,.51-.2q.42-.012.912-.036t1.008-.06V-9.06a.72.72,0,0,1,.2-.522.675.675,0,0,1,.5-.21.675.675,0,0,1,.5.21.72.72,0,0,1,.2.522V-7.7q.276-.024.516-.06t.468-.06a.742.742,0,0,1,.54.108.638.638,0,0,1,.288.456.617.617,0,0,1-.132.516.757.757,0,0,1-.48.264q-.252.048-.558.084t-.642.084v1.584a10.276,10.276,0,0,1,1.524-.108,5.269,5.269,0,0,1,1.908.312,2.753,2.753,0,0,1,1.242.894,2.239,2.239,0,0,1,.438,1.386A2.482,2.482,0,0,1-14.292-.18,3.847,3.847,0,0,1-16.86.5Zm2.616-5.832q-.192-.144-.468-.318t-.552-.336q-.276-.162-.48-.258a.77.77,0,0,1-.378-.408.652.652,0,0,1,.006-.54.684.684,0,0,1,.426-.372.72.72,0,0,1,.546.048q.252.12.576.312t.642.39q.318.2.522.354A.63.63,0,0,1-13.128-6a.733.733,0,0,1-.132.528.7.7,0,0,1-.462.27A.7.7,0,0,1-14.244-5.328ZM-20.676-.876a.783.783,0,0,0,.57-.2,1.179,1.179,0,0,0,.21-.828v-1.08a2.892,2.892,0,0,0-1,.714,1.31,1.31,0,0,0-.354.858Q-21.252-.876-20.676-.876ZM-.768.348a1.47,1.47,0,0,1-.714.624,1.042,1.042,0,0,1-.8-.03A1.622,1.622,0,0,1-2.976.3,4.034,4.034,0,0,1-3.432-.756,8.313,8.313,0,0,1-3.7-2.112q-.084-.732-.1-1.488a.691.691,0,0,0-.168-.54.94.94,0,0,0-.6-.144h-5.592a.57.57,0,0,1-.426-.18.585.585,0,0,1-.174-.42.579.579,0,0,1,.174-.426.579.579,0,0,1,.426-.174h5.628a3.674,3.674,0,0,1,1.29.18,1.073,1.073,0,0,1,.636.6,2.758,2.758,0,0,1,.15,1.128,8.008,8.008,0,0,0,.1,1.554A4.2,4.2,0,0,0-2-.852q.1.18.216.186t.2-.21q.06-.144.108-.264l.1-.24a.575.575,0,0,1,.372-.348.713.713,0,0,1,.528.036.572.572,0,0,1,.348.36.776.776,0,0,1-.036.516q-.12.264-.276.588A4.769,4.769,0,0,1-.768.348ZM-10,.816a1.113,1.113,0,0,1-.654.078.622.622,0,0,1-.426-.366.638.638,0,0,1-.018-.57.76.76,0,0,1,.462-.39,9.1,9.1,0,0,0,1.254-.576A10.564,10.564,0,0,0-8.22-1.752q-.348-.288-.684-.54t-.636-.444a.622.622,0,0,1-.3-.414.566.566,0,0,1,.072-.462.736.736,0,0,1,.444-.306.632.632,0,0,1,.5.078q.36.216.792.522t.876.654a9.475,9.475,0,0,0,1.08-1.284.726.726,0,0,1,.456-.318.668.668,0,0,1,.54.1.626.626,0,0,1,.276.45.773.773,0,0,1-.144.546,7.528,7.528,0,0,1-.522.678q-.294.342-.642.678.384.324.714.636t.594.588a.722.722,0,0,1,.192.528A.712.712,0,0,1-4.86.456.733.733,0,0,1-5.394.63.716.716,0,0,1-5.9.384Q-6.156.108-6.48-.21t-.7-.654A13.134,13.134,0,0,1-8.556.1,8.913,8.913,0,0,1-10,.816Zm-1.272-6.708a.616.616,0,0,1-.246-.462.66.66,0,0,1,.174-.5,7.985,7.985,0,0,0,.726-.912q.366-.528.69-1.08A10.452,10.452,0,0,0-9.4-9.852a.685.685,0,0,1,.408-.4.7.7,0,0,1,.54.024.664.664,0,0,1,.36.354.637.637,0,0,1-.036.522q-.024.06-.06.132t-.072.156h6.54a.566.566,0,0,1,.408.162.536.536,0,0,1,.168.4.542.542,0,0,1-.168.4.555.555,0,0,1-.408.168H-8.892q-.312.516-.654,1.008a10.169,10.169,0,0,1-.654.852,1.033,1.033,0,0,1-.51.318A.6.6,0,0,1-11.268-5.892Zm3.12-.288a.562.562,0,0,1-.4-.168.546.546,0,0,1-.174-.408.546.546,0,0,1,.174-.408.562.562,0,0,1,.4-.168H-2.9a.555.555,0,0,1,.408.168.555.555,0,0,1,.168.408.555.555,0,0,1-.168.408A.555.555,0,0,1-2.9-6.18Zm11.3,7.32A.6.6,0,0,1,2.724.966.57.57,0,0,1,2.544.54v-1.6H.9A.546.546,0,0,1,.492-1.23a.576.576,0,0,1-.168-.414.555.555,0,0,1,.168-.408A.555.555,0,0,1,.9-2.22H2.544v-.672a2.019,2.019,0,0,1-1.386-.42,1.823,1.823,0,0,1-.4-1.332v-.78a1.8,1.8,0,0,1,.4-1.332,2.063,2.063,0,0,1,1.386-.408v-.6H.948a.542.542,0,0,1-.4-.168.542.542,0,0,1-.168-.4.522.522,0,0,1,.168-.39.552.552,0,0,1,.4-.162h1.6v-.684a.579.579,0,0,1,.18-.444.611.611,0,0,1,.432-.168.611.611,0,0,1,.432.168.579.579,0,0,1,.18.444v.684H5.184a.532.532,0,0,1,.39.162.532.532,0,0,1,.162.39.552.552,0,0,1-.162.4.522.522,0,0,1-.39.168H3.768v.6a2.059,2.059,0,0,1,1.392.408,1.815,1.815,0,0,1,.4,1.332v.1A.586.586,0,0,1,5.718-5.5.739.739,0,0,1,5.952-5.6a6.406,6.406,0,0,0,.822-.348A8.631,8.631,0,0,0,7.548-6.4a6.274,6.274,0,0,1-1.1-2.052H6.072a.542.542,0,0,1-.4-.168.542.542,0,0,1-.168-.4.536.536,0,0,1,.168-.4.552.552,0,0,1,.4-.162H9.084a2.094,2.094,0,0,1,1.224.3.988.988,0,0,1,.444.786,1.8,1.8,0,0,1-.372,1.074q-.192.276-.408.534t-.456.51a6.974,6.974,0,0,0,1.572.744.634.634,0,0,1,.414.366.639.639,0,0,1-.006.534.646.646,0,0,1-.408.372.923.923,0,0,1-.6-.036,7.813,7.813,0,0,1-2-1.1,8.133,8.133,0,0,1-.96.6,8.692,8.692,0,0,1-1.1.492.83.83,0,0,1-.5.036.588.588,0,0,1-.366-.276,1.838,1.838,0,0,1-.4,1.338,2.036,2.036,0,0,1-1.392.414v.672h1.5a.576.576,0,0,1,.414.168.546.546,0,0,1,.174.408.565.565,0,0,1-.174.414.565.565,0,0,1-.414.174h-1.5V.528a.579.579,0,0,1-.18.444A.611.611,0,0,1,3.156,1.14ZM5.7.588a.57.57,0,0,1-.426-.18A.585.585,0,0,1,5.1-.012a.6.6,0,0,1,.174-.432A.57.57,0,0,1,5.7-.624H7.788V-2.052H6.4a.589.589,0,0,1-.432-.18.6.6,0,0,1-.18-.444.589.589,0,0,1,.18-.432.589.589,0,0,1,.432-.18H7.788v-.936A.627.627,0,0,1,7.98-4.7a.644.644,0,0,1,.456-.18A.638.638,0,0,1,8.9-4.7a.637.637,0,0,1,.186.48v.936H10.56a.589.589,0,0,1,.432.18.589.589,0,0,1,.18.432.6.6,0,0,1-.18.444.589.589,0,0,1-.432.18H9.084V-.624h1.98a.57.57,0,0,1,.426.18.6.6,0,0,1,.174.432.585.585,0,0,1-.174.42.57.57,0,0,1-.426.18ZM8.556-7.2q.168-.168.318-.348A3.526,3.526,0,0,0,9.132-7.9q.2-.3.12-.426T8.82-8.448H7.752a6.082,6.082,0,0,0,.354.654A4.068,4.068,0,0,0,8.556-7.2ZM3.768-3.936A.827.827,0,0,0,4.314-4.1a.77.77,0,0,0,.126-.51H3.768Zm-1.224,0v-.672H1.872a.81.81,0,0,0,.138.51A.8.8,0,0,0,2.544-3.936ZM3.768-5.484H4.44a.747.747,0,0,0-.132-.5.807.807,0,0,0-.54-.168Zm-1.9,0h.672v-.672a.786.786,0,0,0-.528.168A.787.787,0,0,0,1.872-5.484ZM14.652.192a.711.711,0,0,1-.54-.12.716.716,0,0,1-.3-.456Q13.7-1,13.644-1.806t-.06-1.71q0-.9.048-1.812t.15-1.746q.1-.834.246-1.494a.682.682,0,0,1,.312-.45.7.7,0,0,1,.54-.1.734.734,0,0,1,.45.318.7.7,0,0,1,.1.546,16.529,16.529,0,0,0-.3,1.848q-.108,1-.138,2.022t.03,1.992a15.113,15.113,0,0,0,.2,1.758.641.641,0,0,1-.114.528A.739.739,0,0,1,14.652.192Zm4.92-.648A3.9,3.9,0,0,1,17.25-1.02a2.375,2.375,0,0,1-.918-1.656.677.677,0,0,1,.126-.528.7.7,0,0,1,.474-.288.719.719,0,0,1,.528.138.7.7,0,0,1,.288.474,1.009,1.009,0,0,0,.492.768,2.78,2.78,0,0,0,1.368.252,10.5,10.5,0,0,0,2.172-.276.65.65,0,0,1,.54.1.7.7,0,0,1,.312.456.669.669,0,0,1-.108.534.758.758,0,0,1-.456.318,9.141,9.141,0,0,1-1.29.216Q20.136-.456,19.572-.456Zm-2.2-5.94a.682.682,0,0,1-.534-.1.693.693,0,0,1-.306-.462.7.7,0,0,1,.1-.54.647.647,0,0,1,.462-.3,10.607,10.607,0,0,1,1.5-.174q.828-.042,1.644-.012a10.872,10.872,0,0,1,1.44.138.672.672,0,0,1,.468.294.691.691,0,0,1,.108.546.652.652,0,0,1-.294.462.723.723,0,0,1-.534.114,11.433,11.433,0,0,0-2.016-.162A11.091,11.091,0,0,0,17.376-6.4ZM-58.86,18.5a.738.738,0,0,1-.51-.222.655.655,0,0,1-.2-.51.7.7,0,0,1,.216-.522.673.673,0,0,1,.516-.2,2.744,2.744,0,0,0,1.494-.312,1.086,1.086,0,0,0,.51-.984,1.071,1.071,0,0,0-.558-.972,3.1,3.1,0,0,0-1.59-.336q-.408,0-.78.036t-.72.1v1.512a2.532,2.532,0,0,1-.564,1.818,2.169,2.169,0,0,1-1.632.582,2.289,2.289,0,0,1-1.44-.444,1.675,1.675,0,0,1-.576-1.416,2.534,2.534,0,0,1,.75-1.788A4.979,4.979,0,0,1-61.9,13.608V11.82q-.516.048-1,.072t-.906.036a.725.725,0,0,1-.516-.2.666.666,0,0,1-.216-.5.675.675,0,0,1,.21-.5.7.7,0,0,1,.51-.2q.42-.012.912-.036t1.008-.06V8.94a.72.72,0,0,1,.2-.522.675.675,0,0,1,.5-.21.675.675,0,0,1,.5.21.72.72,0,0,1,.2.522V10.3q.276-.024.516-.06t.468-.06a.742.742,0,0,1,.54.108.638.638,0,0,1,.288.456.617.617,0,0,1-.132.516.757.757,0,0,1-.48.264q-.252.048-.558.084t-.642.084v1.584a10.276,10.276,0,0,1,1.524-.108,5.269,5.269,0,0,1,1.908.312,2.753,2.753,0,0,1,1.242.894,2.239,2.239,0,0,1,.438,1.386,2.482,2.482,0,0,1-.924,2.064A3.847,3.847,0,0,1-58.86,18.5Zm2.616-5.832q-.192-.144-.468-.318t-.552-.336q-.276-.162-.48-.258a.77.77,0,0,1-.378-.408.652.652,0,0,1,.006-.54.684.684,0,0,1,.426-.372.72.72,0,0,1,.546.048q.252.12.576.312t.642.39q.318.2.522.354a.63.63,0,0,1,.276.456.733.733,0,0,1-.132.528.7.7,0,0,1-.462.27A.7.7,0,0,1-56.244,12.672Zm-6.432,4.452a.783.783,0,0,0,.57-.2,1.179,1.179,0,0,0,.21-.828v-1.08a2.892,2.892,0,0,0-1,.714,1.31,1.31,0,0,0-.354.858Q-63.252,17.124-62.676,17.124Zm17.94,1.848a.766.766,0,0,1-.546-.186.732.732,0,0,1-.222-.5.632.632,0,0,1,.144-.5.71.71,0,0,1,.48-.252.984.984,0,0,0,.558-.18.734.734,0,0,0,.1-.456V12.264h-1.428a3.648,3.648,0,0,1-1.128-.144,1.067,1.067,0,0,1-.63-.51,2.183,2.183,0,0,1-.2-1.026V9.972a1.774,1.774,0,0,1,.456-1.392,2.276,2.276,0,0,1,1.5-.4h.84a2.276,2.276,0,0,1,1.5.4,1.774,1.774,0,0,1,.456,1.392v7.26a1.736,1.736,0,0,1-.444,1.332A2.093,2.093,0,0,1-44.736,18.972Zm-7.7.072a.657.657,0,0,1-.474-.192.655.655,0,0,1-.2-.492V9.96a1.791,1.791,0,0,1,.45-1.386,2.226,2.226,0,0,1,1.494-.4h.792a2.248,2.248,0,0,1,1.506.4,1.791,1.791,0,0,1,.45,1.386v.624a2.183,2.183,0,0,1-.2,1.026,1.066,1.066,0,0,1-.624.51,3.638,3.638,0,0,1-1.134.144h-1.38v6.1a.655.655,0,0,1-.2.492A.671.671,0,0,1-52.44,19.044Zm4.392-1.992a3.777,3.777,0,0,1-1.368-.2,1.251,1.251,0,0,1-.7-.624,2.55,2.55,0,0,1-.2-1.1,2.542,2.542,0,0,1,.2-1.1,1.232,1.232,0,0,1,.7-.612,3.886,3.886,0,0,1,1.368-.192,3.834,3.834,0,0,1,1.362.192,1.233,1.233,0,0,1,.69.612,2.542,2.542,0,0,1,.2,1.1,2.55,2.55,0,0,1-.2,1.1,1.252,1.252,0,0,1-.69.624A3.727,3.727,0,0,1-48.048,17.052Zm0-1.14a1.165,1.165,0,0,0,.714-.156.8.8,0,0,0,.186-.624.781.781,0,0,0-.186-.612,1.165,1.165,0,0,0-.714-.156,1.192,1.192,0,0,0-.726.156.781.781,0,0,0-.186.612.8.8,0,0,0,.186.624A1.192,1.192,0,0,0-48.048,15.912ZM-45.5,11.2h1.284v-.54h-2.052a.532.532,0,0,0,.186.438A1.175,1.175,0,0,0-45.5,11.2Zm-6.252,0h1.248a1.175,1.175,0,0,0,.582-.1.532.532,0,0,0,.186-.438h-2.016Zm5.484-1.44h2.052a.541.541,0,0,0-.192-.414,1.138,1.138,0,0,0-.576-.1H-45.5a1.18,1.18,0,0,0-.576.1A.494.494,0,0,0-46.272,9.756Zm-5.472,0h1.992a.512.512,0,0,0-.18-.414,1.138,1.138,0,0,0-.576-.1h-.48a1.142,1.142,0,0,0-.57.1A.5.5,0,0,0-51.744,9.756Zm13.788,7.3a1.983,1.983,0,0,1-1.056-.252,2.477,2.477,0,0,1-.888-.888,5.52,5.52,0,0,1-.552-1.368,10.77,10.77,0,0,1-.324-1.794,12.923,12.923,0,0,1-.048-1.926.741.741,0,0,1,.234-.5.637.637,0,0,1,.51-.174.678.678,0,0,1,.5.234.673.673,0,0,1,.174.522,12.4,12.4,0,0,0,.012,1.638A8.372,8.372,0,0,0-39.168,14a4.274,4.274,0,0,0,.42,1.086.8.8,0,0,0,.7.492q.516-.012.864-1.08a.72.72,0,0,1,.36-.414.681.681,0,0,1,.552-.042.65.65,0,0,1,.408.354.685.685,0,0,1,.036.546,3.5,3.5,0,0,1-.9,1.566A1.959,1.959,0,0,1-37.956,17.052Zm6.54-2.112a.678.678,0,0,1-.558-.024.741.741,0,0,1-.378-.408,4.982,4.982,0,0,0-.486-.9,7.051,7.051,0,0,0-.684-.864,4.821,4.821,0,0,0-.774-.684.721.721,0,0,1-.3-.468.629.629,0,0,1,.132-.54.662.662,0,0,1,.474-.264.783.783,0,0,1,.534.156,6.571,6.571,0,0,1,.99.852,8.45,8.45,0,0,1,.882,1.08A4.776,4.776,0,0,1-31,14a.75.75,0,0,1-.024.558A.649.649,0,0,1-31.416,14.94Zm6.516,3.852a4.574,4.574,0,0,1-1.554-.216,1.453,1.453,0,0,1-.834-.72,3.093,3.093,0,0,1-.252-1.368,3.086,3.086,0,0,1,.252-1.374,1.458,1.458,0,0,1,.834-.714,4.574,4.574,0,0,1,1.554-.216h1.788a4.564,4.564,0,0,1,1.56.216,1.483,1.483,0,0,1,.834.714,3.023,3.023,0,0,1,.258,1.374,3.03,3.03,0,0,1-.258,1.368,1.478,1.478,0,0,1-.834.72,4.564,4.564,0,0,1-1.56.216Zm-3.732-5.556a.918.918,0,0,1-.612.156.655.655,0,0,1-.492-.312.615.615,0,0,1-.084-.558.792.792,0,0,1,.36-.438,14.953,14.953,0,0,0,1.488-1q.768-.582,1.47-1.206T-25.3,8.712A1.793,1.793,0,0,1-24.03,8a2,2,0,0,1,1.326.684q.516.5,1.194,1.068t1.44,1.1a17.415,17.415,0,0,0,1.53.972.768.768,0,0,1,.354.468.684.684,0,0,1-.09.588.72.72,0,0,1-.516.348.9.9,0,0,1-.636-.156q-.732-.48-1.512-1.068T-22.428,10.8q-.708-.624-1.248-1.188a.483.483,0,0,0-.324-.2.467.467,0,0,0-.336.186q-.5.552-1.152,1.152t-1.344,1.164a.683.683,0,0,1,.276-.048h5.088a.608.608,0,0,1,.474.192.672.672,0,0,1,.174.468.656.656,0,0,1-.174.456.608.608,0,0,1-.474.192h-5.088a.608.608,0,0,1-.474-.192.656.656,0,0,1-.174-.456.631.631,0,0,1,.12-.4q-.4.3-.786.582T-28.632,13.236Zm3.744,4.272h1.776a1.533,1.533,0,0,0,.918-.2,1.037,1.037,0,0,0,.246-.822,1.058,1.058,0,0,0-.246-.828,1.5,1.5,0,0,0-.918-.2h-1.776a1.5,1.5,0,0,0-.918.2,1.058,1.058,0,0,0-.246.828,1.037,1.037,0,0,0,.246.822A1.533,1.533,0,0,0-24.888,17.508Zm11.064,1.428a.671.671,0,0,1-.492-.2.671.671,0,0,1-.2-.492v-3.1q-.336.312-.69.648t-.7.672a.718.718,0,0,1-.51.2.678.678,0,0,1-.5-.2.727.727,0,0,1-.186-.516.647.647,0,0,1,.222-.492q.564-.528,1.158-1.062t1.206-1.014V11.8q-.2.036-.528.108l-.636.144q-.312.072-.492.108a.714.714,0,0,1-.54-.1.661.661,0,0,1-.312-.444.738.738,0,0,1,.1-.552.661.661,0,0,1,.444-.312q.1-.024.348-.066t.564-.1q.312-.06.6-.108t.456-.084V8.664a.671.671,0,0,1,.2-.492.671.671,0,0,1,.492-.2.671.671,0,0,1,.492.2.671.671,0,0,1,.2.492v1.728a1.191,1.191,0,0,1,.6.456.9.9,0,0,1,.15.54,2.187,2.187,0,0,1-.138.684,6.334,6.334,0,0,1,1.152-.468,4.017,4.017,0,0,1,1.128-.168,3.279,3.279,0,0,1,2.358.786,2.762,2.762,0,0,1,.822,2.094,3.339,3.339,0,0,1-.39,1.572,3.336,3.336,0,0,1-1.29,1.284,6.633,6.633,0,0,1-2.412.768.68.68,0,0,1-.534-.126.753.753,0,0,1-.294-.474.667.667,0,0,1,.132-.534.721.721,0,0,1,.468-.282,4.621,4.621,0,0,0,2.244-.81,1.769,1.769,0,0,0,.648-1.4,1.384,1.384,0,0,0-.444-1.1,1.969,1.969,0,0,0-1.332-.39,3.483,3.483,0,0,0-1.44.318,7.9,7.9,0,0,0-1.428.846V18.24a.671.671,0,0,1-.2.492A.671.671,0,0,1-13.824,18.936Zm17.016-.924a12.294,12.294,0,0,1-2.862.024,3.589,3.589,0,0,1-1.986-.84,2.957,2.957,0,0,1-.768-1.17,5.025,5.025,0,0,1-.252-1.71v-1.1q-.576.072-1.092.15t-.96.162a.69.69,0,0,1-.528-.12.671.671,0,0,1-.288-.456.7.7,0,0,1,.114-.528.65.65,0,0,1,.45-.288q.492-.072,1.074-.15t1.23-.15v-2a.694.694,0,0,1,.21-.51.694.694,0,0,1,.51-.21.675.675,0,0,1,.5.21.7.7,0,0,1,.2.51v1.86q.624-.06,1.266-.108l1.266-.1q.06-.516.09-1t.042-.9a.717.717,0,0,1,.222-.5.664.664,0,0,1,.51-.192.739.739,0,0,1,.51.222.655.655,0,0,1,.2.51q-.012.408-.042.858t-.078.918q.528-.036,1.032-.054t.96-.03a.675.675,0,0,1,.5.21.71.71,0,0,1,0,1,.675.675,0,0,1-.5.21q-1-.024-2.136.036-.084.588-.186,1.146T2.2,14.928a.683.683,0,0,1-.324.438.73.73,0,0,1-.54.09.687.687,0,0,1-.45-.324.73.73,0,0,1-.09-.54q.1-.4.18-.84t.144-.9q-.588.036-1.182.09t-1.182.114v1.26A3.671,3.671,0,0,0-1.1,15.432a1.611,1.611,0,0,0,.432.708,2.29,2.29,0,0,0,1.32.5,12.449,12.449,0,0,0,2.4-.066.711.711,0,0,1,.792.648.693.693,0,0,1-.15.534A.674.674,0,0,1,3.192,18.012Zm10.944.732a.692.692,0,0,1-.54.114.714.714,0,0,1-.468-.282q-.408-.588-.918-1.224T11.2,16.134q-.5-.582-.912-.99a3.956,3.956,0,0,1-.948-1.308,1.569,1.569,0,0,1,.012-1.218,3.99,3.99,0,0,1,1-1.3q.252-.228.606-.576T11.7,10q.4-.4.768-.792T13.14,8.5a.692.692,0,0,1,.51-.222.711.711,0,0,1,.522.2.654.654,0,0,1,.222.5.711.711,0,0,1-.2.522q-.42.456-.93.966t-.99.972q-.48.462-.828.774a2.8,2.8,0,0,0-.618.738.65.65,0,0,0,0,.606,3.405,3.405,0,0,0,.57.744q.408.42.93,1.008t1.05,1.224q.528.636.924,1.212a.643.643,0,0,1,.126.534A.7.7,0,0,1,14.136,18.744Zm5.508-.36a.7.7,0,0,1-.324-.444.676.676,0,0,1,.084-.54,10.453,10.453,0,0,0,.828-1.668,16.682,16.682,0,0,0,.618-1.9q.258-.984.414-1.932-.348.036-.678.06t-.618.048a.739.739,0,0,1-.522-.174.679.679,0,0,1-.246-.486.726.726,0,0,1,.18-.522.658.658,0,0,1,.492-.234l.762-.048q.4-.024.81-.072.036-.408.048-.78t0-.708a.705.705,0,0,1,.18-.516.667.667,0,0,1,.492-.228.694.694,0,0,1,.516.186.686.686,0,0,1,.228.5,11.655,11.655,0,0,1-.036,1.368l.51-.09q.246-.042.45-.09a.72.72,0,0,1,.546.1.666.666,0,0,1,.306.444.7.7,0,0,1-.552.84q-.3.06-.66.12t-.768.12q-.168,1.092-.456,2.262a19.309,19.309,0,0,1-.7,2.244,10.932,10.932,0,0,1-.924,1.9.7.7,0,0,1-.444.324A.676.676,0,0,1,19.644,18.384ZM28,18.12a6.023,6.023,0,0,1-3.066.024,2.869,2.869,0,0,1-1.818-1.416.741.741,0,0,1-.054-.546.674.674,0,0,1,.342-.426.688.688,0,0,1,.546-.06.7.7,0,0,1,.426.348,1.6,1.6,0,0,0,1.2.792,5.61,5.61,0,0,0,2.136-.12.7.7,0,0,1,.54.1.682.682,0,0,1,.312.45.7.7,0,0,1-.1.546A.693.693,0,0,1,28,18.12Zm-.576-4.584a5.855,5.855,0,0,0-.936-.132,10.435,10.435,0,0,0-1.062-.018,6.725,6.725,0,0,0-.99.1.7.7,0,0,1-.528-.114.688.688,0,0,1-.3-.438.723.723,0,0,1,.114-.534.645.645,0,0,1,.45-.294,7.958,7.958,0,0,1,1.194-.132A10.918,10.918,0,0,1,26.616,12a7.631,7.631,0,0,1,1.14.168.636.636,0,0,1,.426.312.73.73,0,0,1,.09.54.68.68,0,0,1-.324.426A.706.706,0,0,1,27.42,13.536Zm.852-2.328a.5.5,0,0,1-.378.132.517.517,0,0,1-.366-.168q-.144-.168-.366-.408t-.4-.42a.443.443,0,0,1-.126-.312.478.478,0,0,1,.138-.348.462.462,0,0,1,.324-.138.528.528,0,0,1,.348.114,4.051,4.051,0,0,1,.444.366,4.6,4.6,0,0,1,.42.438.479.479,0,0,1,.132.366A.594.594,0,0,1,28.272,11.208Zm.336-1.092q-.156-.168-.4-.39t-.432-.378a.517.517,0,0,1-.144-.312.436.436,0,0,1,.108-.348.444.444,0,0,1,.312-.162.51.51,0,0,1,.348.09,4.172,4.172,0,0,1,.474.336,5.511,5.511,0,0,1,.45.4.521.521,0,0,1,.012.744.507.507,0,0,1-.732.024Zm8.724,8.58a7,7,0,0,1-2.574-.366,3.03,3.03,0,0,1-1.506-1.11,2.669,2.669,0,0,1-.42-1.692,2.123,2.123,0,0,1,.606-1.434,2.817,2.817,0,0,1,1.422-.72,5.447,5.447,0,0,1,1.932-.03,8.2,8.2,0,0,1-.69-.828,10.923,10.923,0,0,1-.666-1.02q-.708.108-1.422.186t-1.4.114a.718.718,0,0,1-.516-.174.647.647,0,0,1-.228-.486.664.664,0,0,1,.192-.51.717.717,0,0,1,.5-.222q.528-.024,1.1-.072t1.146-.12a5.753,5.753,0,0,1-.2-.57q-.084-.282-.144-.546a.758.758,0,0,1,.108-.54.661.661,0,0,1,.444-.312.691.691,0,0,1,.546.108.709.709,0,0,1,.306.456,8.249,8.249,0,0,0,.36,1.176q.588-.12,1.134-.252t1.014-.288a.685.685,0,0,1,.546.036.7.7,0,0,1,.312.948.728.728,0,0,1-.426.348q-.444.12-.93.24t-1.014.228a9.192,9.192,0,0,0,1.02,1.374A6.652,6.652,0,0,0,39.12,13.7a.7.7,0,0,1,.294.408.681.681,0,0,1-.054.492.754.754,0,0,1-.36.354.637.637,0,0,1-.492.03,6.545,6.545,0,0,0-3.1-.444q-1.11.216-1.17,1.116-.108,1.644,3.072,1.6a.655.655,0,0,1,.51.2.739.739,0,0,1,.222.51.7.7,0,0,1-.2.51A.717.717,0,0,1,37.332,18.7Zm8.712-1.644a1.983,1.983,0,0,1-1.056-.252,2.477,2.477,0,0,1-.888-.888,5.52,5.52,0,0,1-.552-1.368,10.77,10.77,0,0,1-.324-1.794,12.923,12.923,0,0,1-.048-1.926.741.741,0,0,1,.234-.5.637.637,0,0,1,.51-.174.7.7,0,0,1,.672.756,12.4,12.4,0,0,0,.012,1.638A8.372,8.372,0,0,0,44.832,14a4.274,4.274,0,0,0,.42,1.086.8.8,0,0,0,.7.492q.516-.012.864-1.08a.72.72,0,0,1,.36-.414.681.681,0,0,1,.552-.042.65.65,0,0,1,.408.354.685.685,0,0,1,.036.546,3.5,3.5,0,0,1-.9,1.566A1.959,1.959,0,0,1,46.044,17.052Zm6.54-2.112a.678.678,0,0,1-.558-.024.741.741,0,0,1-.378-.408,4.982,4.982,0,0,0-.486-.9,7.051,7.051,0,0,0-.684-.864,4.821,4.821,0,0,0-.774-.684.721.721,0,0,1-.3-.468.629.629,0,0,1,.132-.54.662.662,0,0,1,.474-.264.783.783,0,0,1,.534.156,6.571,6.571,0,0,1,.99.852,8.45,8.45,0,0,1,.882,1.08A4.776,4.776,0,0,1,53,14a.75.75,0,0,1-.024.558A.649.649,0,0,1,52.584,14.94ZM60,15.8a.6.6,0,0,1-.42-.168.638.638,0,0,1-.2-.42q-.036-.456-.066-1.044t-.066-1.206q-.036-.618-.06-1.182t-.036-1q-.012-.432-.012-.636V8.964a.79.79,0,0,1,.246-.588A.849.849,0,0,1,60,8.136a.865.865,0,0,1,.63.24.79.79,0,0,1,.246.588v1.188q0,.2-.018.636t-.042,1q-.024.564-.054,1.182T60.7,14.172q-.036.588-.072,1.044a.591.591,0,0,1-.192.42A.611.611,0,0,1,60,15.8Zm0,2.928a1.024,1.024,0,1,1,.72-.3A.982.982,0,0,1,60,18.732Z" transform="translate(188 523)" fill="#60432e" opacity="0.999"/></g></svg>