<svg xmlns="http://www.w3.org/2000/svg" xmlns:xlink="http://www.w3.org/1999/xlink" width="40" height="38" viewBox="0 0 40 38">
  <defs>
    <clipPath id="clip-path">
      <rect id="長方形_52196" data-name="長方形 52196" width="40" height="38" fill="#fbd86e"/>
    </clipPath>
  </defs>
  <g id="マスクグループ_48" data-name="マスクグループ 48" clip-path="url(#clip-path)">
    <path id="パス_40745" data-name="パス 40745" d="M0,0H48V58H0Z" transform="translate(-8 -15)" fill="#fff"/>
    <rect id="長方形_52194" data-name="長方形 52194" width="20" height="16" transform="translate(0 -10)" fill="#81d1dd"/>
    <path id="合体_49" data-name="合体 49" d="M300.427,0V.005H74.572V0H0V17.152C8.12,20.116,10.487,25.9,10.686,32.385a81.52,81.52,0,0,1,0,8.979c-.1,2.918,1.2,13.6,9.509,13.626s54.377-.041,54.377-.041v-.14H300.427v.14s24.223.114,44.8,0,19.089-12.36,19.089-12.36-.2-3.716,0-10.205S366.88,20.116,375,17.152V0Z" transform="translate(40 55) rotate(180)" fill="#fbd86e"/>
  </g>
</svg>
