<svg xmlns="http://www.w3.org/2000/svg" width="520" height="112.287" viewBox="0 0 520 112.287"><g transform="translate(-420 -9962)"><path d="M56,0H464a56,56,0,0,1,56,56v.287a56,56,0,0,1-56,56H56a56,56,0,0,1-56-56V56A56,56,0,0,1,56,0Z" transform="translate(420 9962)" fill="#ffd86e"/><path d="M13.5,23.225a1,1,0,0,1-.707-1.707L18.7,15.612,12.793,9.707a1,1,0,0,1,1.414-1.414l6.612,6.612a1,1,0,0,1,0,1.414l-6.612,6.612A1,1,0,0,1,13.5,23.225Z" transform="translate(891.41 10003.167)" fill="#ed8934"/><path d="M13.794,1.848a1.269,1.269,0,0,1-.9-.352,1.21,1.21,0,0,1-.374-.924V-3.982q-.946,1.034-2.1,2.079A23.02,23.02,0,0,1,8.228-.132a1.425,1.425,0,0,1-.99.253A1.184,1.184,0,0,1,6.358-.4a1.155,1.155,0,0,1-.187-.913,1.12,1.12,0,0,1,.517-.759A18.457,18.457,0,0,0,8.316-3.256q.9-.726,1.793-1.518t1.507-1.452H7.766a1.161,1.161,0,0,1-.836-.341,1.106,1.106,0,0,1-.352-.825,1.106,1.106,0,0,1,.352-.825,1.161,1.161,0,0,1,.836-.341h4.752v-1.76h-.11a7.27,7.27,0,0,1-2.475-.341,2.23,2.23,0,0,1-1.3-1.155,5.281,5.281,0,0,1-.385-2.222,5.267,5.267,0,0,1,.385-2.233,2.237,2.237,0,0,1,1.287-1.144,7.253,7.253,0,0,1,2.486-.341h2.728a7.352,7.352,0,0,1,2.5.341,2.194,2.194,0,0,1,1.287,1.144,5.4,5.4,0,0,1,.374,2.233,5.418,5.418,0,0,1-.374,2.222,2.188,2.188,0,0,1-1.287,1.155,7.352,7.352,0,0,1-2.5.341H15.07v1.76h4.752a1.15,1.15,0,0,1,.847.341,1.124,1.124,0,0,1,.341.825,1.124,1.124,0,0,1-.341.825,1.15,1.15,0,0,1-.847.341h-3.85q.616.616,1.507,1.386t1.8,1.474q.913.7,1.617,1.144a1.1,1.1,0,0,1,.517.781,1.229,1.229,0,0,1-.209.913,1.186,1.186,0,0,1-.858.539A1.414,1.414,0,0,1,19.338-.22Q18.7-.66,17.952-1.276t-1.5-1.32q-.748-.7-1.386-1.364V.572A1.21,1.21,0,0,1,14.7,1.5,1.269,1.269,0,0,1,13.794,1.848ZM4.862,1.98a1.242,1.242,0,0,1-.88-.352,1.158,1.158,0,0,1-.374-.88V-9.57Q3.1-8.756,2.6-8.1a1.2,1.2,0,0,1-.814.495A1.319,1.319,0,0,1,.836-7.81a1.273,1.273,0,0,1-.517-.781A1.055,1.055,0,0,1,.506-9.46q.616-.858,1.243-1.936t1.2-2.211q.572-1.133,1.023-2.2t.715-1.9a1.213,1.213,0,0,1,.638-.77,1.281,1.281,0,0,1,.99-.044,1.3,1.3,0,0,1,.737.561,1.1,1.1,0,0,1,.077.957q-.2.66-.451,1.342t-.561,1.386v15a1.175,1.175,0,0,1-.374.913A1.264,1.264,0,0,1,4.862,1.98Zm7.612-14.652h2.6a1.957,1.957,0,0,0,1.21-.264,1.448,1.448,0,0,0,.308-1.1,1.486,1.486,0,0,0-.308-1.122,1.957,1.957,0,0,0-1.21-.264h-2.6a1.909,1.909,0,0,0-1.188.264,1.486,1.486,0,0,0-.308,1.122,1.448,1.448,0,0,0,.308,1.1A1.909,1.909,0,0,0,12.474-12.672Zm16.06,14.5a1.2,1.2,0,0,1-.836-.319,1.114,1.114,0,0,1-.352-.869V-15.07a4.02,4.02,0,0,1,.286-1.683,1.7,1.7,0,0,1,1.045-.869,6.9,6.9,0,0,1,2.167-.264q2.442,0,3.1.968a2.444,2.444,0,0,1-.132,2.552l-.2.374q.814-.506,1.683-1.166t1.639-1.353q.77-.693,1.3-1.243a2.339,2.339,0,0,1,1.672-.814,2.519,2.519,0,0,1,1.738.682q.638.528,1.562,1.232T45.122-15.3q.99.649,1.782,1.067a1,1,0,0,1,.572.726,1.32,1.32,0,0,1-.132.946,1.359,1.359,0,0,1-.814.638,1.177,1.177,0,0,1-.99-.132q-.286-.176-.638-.4t-.726-.484a1.129,1.129,0,0,1,.088.462,1.1,1.1,0,0,1-.3.781,1.044,1.044,0,0,1-.8.319H41.382v1.122H42.46A6.144,6.144,0,0,1,44.407-10a1.8,1.8,0,0,1,1.067.9,4.2,4.2,0,0,1,.33,1.859,4.2,4.2,0,0,1-.33,1.859,1.8,1.8,0,0,1-1.067.9,6.144,6.144,0,0,1-1.947.253h-.484a12.165,12.165,0,0,0,2.1,1.881A11.571,11.571,0,0,0,46.64-.924a1.055,1.055,0,0,1,.66.682A1.174,1.174,0,0,1,47.256.7a1.165,1.165,0,0,1-.759.649A1.6,1.6,0,0,1,45.408,1.3,11.048,11.048,0,0,1,43.615.341a13.23,13.23,0,0,1-1.782-1.386,12.626,12.626,0,0,1-1.485-1.617,7.582,7.582,0,0,1-2.64,2.64,14.633,14.633,0,0,1-3.784,1.606,1.418,1.418,0,0,1-.957-.022,1.064,1.064,0,0,1-.6-.66,1.21,1.21,0,0,1,.055-.924,1.03,1.03,0,0,1,.649-.55,12.293,12.293,0,0,0,3.322-1.419,5.681,5.681,0,0,0,2.09-2.233h-.484a6.251,6.251,0,0,1-1.958-.253,1.8,1.8,0,0,1-1.078-.9,4.2,4.2,0,0,1-.33-1.859,4.2,4.2,0,0,1,.33-1.859,1.8,1.8,0,0,1,1.078-.9,6.251,6.251,0,0,1,1.958-.253h1.012v-1.122H37.114a1.052,1.052,0,0,1-.792-.319,1.082,1.082,0,0,1-.308-.781.691.691,0,0,1,.011-.11.692.692,0,0,0,.011-.11q-.352.264-.693.506t-.649.418a1.392,1.392,0,0,1-.968.209,1.147,1.147,0,0,1-.814-.561.519.519,0,0,1-.11-.242q-.088.176-.176.341t-.154.275a1.5,1.5,0,0,0-.209.781,1.488,1.488,0,0,0,.429.737,5.5,5.5,0,0,1,1.474,3.85,3.729,3.729,0,0,1-.825,2.651,3.175,3.175,0,0,1-2.255.935,1.2,1.2,0,0,1-1.364-.836V.638a1.132,1.132,0,0,1-.341.869A1.192,1.192,0,0,1,28.534,1.826Zm1.188-6.314a1.335,1.335,0,0,1,.33-.5,1.089,1.089,0,0,1,.55-.275,1.285,1.285,0,0,0,.8-.462,2.194,2.194,0,0,0,.231-1.188,4.073,4.073,0,0,0-.352-1.628A4.557,4.557,0,0,0,30.4-9.9a1.645,1.645,0,0,1-.5-.858,2.329,2.329,0,0,1,.275-1.144q.132-.242.385-.814t.506-1.166q.253-.594.363-.88.22-.528.088-.737t-.792-.209a1.371,1.371,0,0,0-.814.165.973.973,0,0,0-.2.737Zm7.436-9.086H43.3q-.748-.55-1.452-1.111t-1.166-.979a.914.914,0,0,0-.627-.341,1.011,1.011,0,0,0-.627.385q-.418.418-1.012.957T37.158-13.574Zm4.224,7.26h.77a2.079,2.079,0,0,0,1.012-.154q.22-.154.22-.77,0-.638-.22-.781a2.22,2.22,0,0,0-1.012-.143h-.77Zm-3.1,0h.726V-8.162H38.28a2.22,2.22,0,0,0-1.012.143q-.22.143-.22.781,0,.616.22.77A2.079,2.079,0,0,0,38.28-6.314ZM65.274-.066A1.344,1.344,0,0,1,64.24-.22a1.274,1.274,0,0,1-.616-.814,1.269,1.269,0,0,1,.154-1,1.282,1.282,0,0,1,.814-.6,6.6,6.6,0,0,0,3.6-2.068,5.592,5.592,0,0,0,1.155-3.63,5,5,0,0,0-.616-2.486,4.792,4.792,0,0,0-1.749-1.782,6.405,6.405,0,0,0-2.717-.836,29.082,29.082,0,0,1-1.331,6.391,12.734,12.734,0,0,1-2.2,4.158A3.559,3.559,0,0,1,58.08-1.43a3.624,3.624,0,0,1-2.134-.682A4.573,4.573,0,0,1,54.417-4.07a7.566,7.566,0,0,1-.561-3.058,8.491,8.491,0,0,1,.693-3.421,8.5,8.5,0,0,1,1.969-2.805,9.251,9.251,0,0,1,3-1.892,10.245,10.245,0,0,1,3.8-.682,9.972,9.972,0,0,1,4.455.957,7.6,7.6,0,0,1,3.069,2.662,7.058,7.058,0,0,1,1.122,3.971,8.214,8.214,0,0,1-1.705,5.313A9,9,0,0,1,65.274-.066ZM58.1-4.136q.4,0,.913-.671a8.966,8.966,0,0,0,1.045-1.9,20.844,20.844,0,0,0,.968-2.915,25.608,25.608,0,0,0,.66-3.729,6.477,6.477,0,0,0-2.882,1.265,6.106,6.106,0,0,0-1.76,2.222,6.61,6.61,0,0,0-.616,2.7A4.384,4.384,0,0,0,56.9-4.906,1.386,1.386,0,0,0,58.1-4.136Zm36.96,2.662a1.34,1.34,0,0,1-.858-.242,1.169,1.169,0,0,1-.462-.814,1.1,1.1,0,0,1,.264-.9,2.008,2.008,0,0,1-.935.407,8.444,8.444,0,0,1-1.6.121,7.05,7.05,0,0,1-1.914-.2,1.329,1.329,0,0,1-.891-.7,3.4,3.4,0,0,1-.231-1.386,2.656,2.656,0,0,1,.4-1.628,2.253,2.253,0,0,1,1.606-.616v-.858H88.55a.758.758,0,0,1-.616-.264.933.933,0,0,1-.22-.616.976.976,0,0,1,.22-.627.744.744,0,0,1,.616-.275h1.892v-.88H89.034a1.924,1.924,0,0,0-1.32.352,1.722,1.722,0,0,0-.374,1.276v6.644a1.061,1.061,0,0,1-.33.814,1.12,1.12,0,0,1-.792.308,1.082,1.082,0,0,1-.781-.308,1.08,1.08,0,0,1-.319-.814V-9.592a3.209,3.209,0,0,1,.759-2.4,3.5,3.5,0,0,1,2.431-.748q-.154-.4-.33-.8t-.22-.539a.745.745,0,0,1-.066-.528H85.4a.939.939,0,0,1-.726-.286,1,1,0,0,1-.264-.7,1.039,1.039,0,0,1,.264-.715.921.921,0,0,1,.726-.3h4.774v-.748a1.185,1.185,0,0,1,.385-.935,1.361,1.361,0,0,1,.935-.341,1.32,1.32,0,0,1,.924.341,1.2,1.2,0,0,1,.374.935v.748h4.95a.921.921,0,0,1,.726.3,1.039,1.039,0,0,1,.264.715,1,1,0,0,1-.264.7.939.939,0,0,1-.726.286H95.414a1.063,1.063,0,0,1,.011.264,1.129,1.129,0,0,1-.055.264q-.11.286-.264.66t-.308.682a3.35,3.35,0,0,1,2.376.759,3.245,3.245,0,0,1,.748,2.387v5.258a2.807,2.807,0,0,1-.715,2.178A3.3,3.3,0,0,1,95.062-1.474ZM91.036,1.408A25.235,25.235,0,0,1,85.987.99,6.757,6.757,0,0,1,82.83-.462l-.715.495L81.29.605q-.4.275-.594.407a1.255,1.255,0,0,1-.968.187,1.043,1.043,0,0,1-.792-.583,1.257,1.257,0,0,1-.121-.935,1.026,1.026,0,0,1,.583-.715q.33-.176.9-.473t1.056-.539V-7.194a1.126,1.126,0,0,0-.165-.7.861.861,0,0,0-.671-.2h-.748a1.044,1.044,0,0,1-.8-.319,1.1,1.1,0,0,1-.3-.781,1.143,1.143,0,0,1,.3-.792,1.026,1.026,0,0,1,.8-.33h1.672a1.983,1.983,0,0,1,2.244,2.244V-2.42a4.347,4.347,0,0,0,1.474.935,9.158,9.158,0,0,0,2.321.528,31.658,31.658,0,0,0,3.553.165q1.188,0,2.409-.022T95.766-.88q1.1-.044,1.87-.11a1.433,1.433,0,0,1,1.023.275,1.045,1.045,0,0,1,.407.869,1.205,1.205,0,0,1-.341.891,1.423,1.423,0,0,1-1.045.341q-.682,0-1.595.011t-1.859.011h-3.19Zm-7.37-15a1.194,1.194,0,0,1-.847.33.991.991,0,0,1-.8-.374q-.264-.33-.671-.748t-.825-.825q-.418-.407-.748-.693a.918.918,0,0,1-.33-.77,1.125,1.125,0,0,1,.33-.77,1.214,1.214,0,0,1,.792-.4,1.068,1.068,0,0,1,.836.286q.374.308.814.726l.858.814q.418.4.682.682a1.082,1.082,0,0,1,.341.869A1.285,1.285,0,0,1,83.666-13.6ZM94.094-3.52A1.157,1.157,0,0,1,94.38-3.7a1.238,1.238,0,0,1,.352-.088,1.546,1.546,0,0,0,.8-.275,1.245,1.245,0,0,0,.143-.737V-9.328A1.722,1.722,0,0,0,95.3-10.6a1.924,1.924,0,0,0-1.32-.352H92.6v.88H94.38A.744.744,0,0,1,95-9.8a.976.976,0,0,1,.22.627.933.933,0,0,1-.22.616.758.758,0,0,1-.616.264H92.6v.88a2.089,2.089,0,0,1,1.551.616,2.794,2.794,0,0,1,.363,1.606,4.828,4.828,0,0,1-.088,1A1.412,1.412,0,0,1,94.094-3.52Zm-3.476-9.218H92.51q.176-.374.4-.924t.374-.946H89.848q.11.22.253.594t.3.726Q90.552-12.936,90.618-12.738Zm.858,8.184a1.773,1.773,0,0,0,.836-.121.6.6,0,0,0,.176-.517.6.6,0,0,0-.176-.517,1.773,1.773,0,0,0-.836-.121,1.773,1.773,0,0,0-.836.121.6.6,0,0,0-.176.517.6.6,0,0,0,.176.517A1.773,1.773,0,0,0,91.476-4.554Zm28.248,6.226a1.38,1.38,0,0,1-.968-.363,1.432,1.432,0,0,1-.44-1,1.375,1.375,0,0,1,.341-.99,1.368,1.368,0,0,1,.979-.462,1.7,1.7,0,0,0,.935-.242,1.1,1.1,0,0,0,.231-.836V-5.478h-4.356V-.022a1.246,1.246,0,0,1-.385.968,1.365,1.365,0,0,1-.957.352,1.336,1.336,0,0,1-.935-.352,1.246,1.246,0,0,1-.385-.968V-5.478H109.45a17.535,17.535,0,0,1-.682,3.41,16.14,16.14,0,0,1-1.32,3.036,1.477,1.477,0,0,1-.825.693,1.442,1.442,0,0,1-1.089-.055,1.217,1.217,0,0,1-.715-.77,1.2,1.2,0,0,1,.121-1.012,14.3,14.3,0,0,0,1.474-3.85A21.892,21.892,0,0,0,106.92-9v-4.246a5.813,5.813,0,0,1,.495-2.607,2.927,2.927,0,0,1,1.617-1.419,8.445,8.445,0,0,1,3.014-.44h6.314a8.445,8.445,0,0,1,3.014.44,2.927,2.927,0,0,1,1.617,1.419,5.813,5.813,0,0,1,.495,2.607v11.33a5.119,5.119,0,0,1-.363,2.123,2.132,2.132,0,0,1-1.188,1.111A6.356,6.356,0,0,1,119.724,1.672Zm-3.278-9.5H120.8v-2.574h-4.356Zm-6.842,0h4.18v-2.574h-4.158v2Q109.626-8.118,109.6-7.832Zm6.842-4.95H120.8v-.462a2.047,2.047,0,0,0-.539-1.661,3.146,3.146,0,0,0-1.9-.429h-1.914Zm-6.82,0h4.158v-2.552h-1.738a3.093,3.093,0,0,0-1.892.429,2.072,2.072,0,0,0-.528,1.661ZM132.4-7.414a1.405,1.405,0,0,1-1-.176,1.087,1.087,0,0,1-.495-.748,1.068,1.068,0,0,1,.209-.836,1.289,1.289,0,0,1,.869-.44,24.268,24.268,0,0,0,3.465-.737,29.777,29.777,0,0,0,3.179-1.111,16.921,16.921,0,0,1-2.53-2.266,17.946,17.946,0,0,1-2.684,1.716,1.391,1.391,0,0,1-.968.165,1.03,1.03,0,0,1-.726-.539,1.174,1.174,0,0,1-.11-.858,1.041,1.041,0,0,1,.594-.682,16.7,16.7,0,0,0,2.035-1.3,25.3,25.3,0,0,0,1.98-1.617,16.452,16.452,0,0,0,1.6-1.639,1.043,1.043,0,0,1,.8-.407,1.285,1.285,0,0,1,.825.253,1.02,1.02,0,0,1,.418.737,1.064,1.064,0,0,1-.242.8,2.144,2.144,0,0,1-.2.253q-.11.121-.22.253h4.2a3.389,3.389,0,0,1,2.145.572,1.539,1.539,0,0,1,.616,1.452,2.946,2.946,0,0,1-1.111,1.782q-.4.352-.836.693a10.2,10.2,0,0,1-.946.649,22.449,22.449,0,0,0,3.113,1.034,30.15,30.15,0,0,0,3.443.66,1.294,1.294,0,0,1,.891.484,1.061,1.061,0,0,1,.187.9.961.961,0,0,1-.561.77,1.783,1.783,0,0,1-1.045.132,30.467,30.467,0,0,1-4.488-1,23.628,23.628,0,0,1-3.938-1.6A30.269,30.269,0,0,1,136.84-8.47,31.636,31.636,0,0,1,132.4-7.414Zm8.4,9.438a1.269,1.269,0,0,1-.9-.352,1.21,1.21,0,0,1-.374-.924V-3.168q-.814.726-1.87,1.5T135.421-.209q-1.177.693-2.343,1.243A1.988,1.988,0,0,1,132,1.177a.99.99,0,0,1-.814-.605,1.243,1.243,0,0,1-.022-1.045,1.362,1.362,0,0,1,.77-.693,21.8,21.8,0,0,0,2.035-.968q1.067-.572,2.09-1.221T137.874-4.6h-5.522a1.037,1.037,0,0,1-.759-.319,1.037,1.037,0,0,1-.319-.759,1.037,1.037,0,0,1,.319-.759,1.037,1.037,0,0,1,.759-.319h7.172V-7.81a1.237,1.237,0,0,1,.374-.946,1.269,1.269,0,0,1,.9-.352,1.308,1.308,0,0,1,.913.352,1.219,1.219,0,0,1,.385.946v1.056h7.128a1.037,1.037,0,0,1,.759.319,1.037,1.037,0,0,1,.319.759,1.037,1.037,0,0,1-.319.759,1.037,1.037,0,0,1-.759.319h-5.5q.858.638,1.914,1.287t2.167,1.21q1.111.561,2.1.957a1.159,1.159,0,0,1,.693.682,1.15,1.15,0,0,1-.033.946,1.246,1.246,0,0,1-.836.682,1.779,1.779,0,0,1-1.1-.088A23.182,23.182,0,0,1,146.377-.1q-1.177-.693-2.288-1.485A20.173,20.173,0,0,1,142.1-3.19V.748a1.193,1.193,0,0,1-.385.924A1.308,1.308,0,0,1,140.8,2.024Zm.176-14.63q.484-.286.924-.572t.836-.572q.484-.374.44-.616t-.682-.242H138.38A16.934,16.934,0,0,0,140.976-12.606ZM170.214,1.87a1.368,1.368,0,0,1-.957-.374,1.28,1.28,0,0,1-.407-.99v-6.05h-5.016a1.211,1.211,0,0,1-.891-.363,1.211,1.211,0,0,1-.363-.891,1.211,1.211,0,0,1,.363-.891,1.211,1.211,0,0,1,.891-.363h5.016v-3.7h-2.816q-.22.572-.484,1.111t-.506.979a1.606,1.606,0,0,1-.792.715,1.239,1.239,0,0,1-1.078-.033,1.237,1.237,0,0,1-.649-.737,1.18,1.18,0,0,1,.077-.957q.418-.77.869-1.8t.847-2.1q.4-1.067.616-1.859a1.249,1.249,0,0,1,.638-.825,1.266,1.266,0,0,1,.99-.1,1.32,1.32,0,0,1,.814.616,1.258,1.258,0,0,1,.066,1.012q-.11.352-.231.748t-.253.77h1.892v-2.926a1.28,1.28,0,0,1,.407-.99,1.368,1.368,0,0,1,.957-.374,1.319,1.319,0,0,1,.957.374,1.317,1.317,0,0,1,.385.99v2.926h3.63a1.186,1.186,0,0,1,.869.363,1.186,1.186,0,0,1,.363.869,1.186,1.186,0,0,1-.363.869,1.186,1.186,0,0,1-.869.363h-3.63v3.7H176a1.222,1.222,0,0,1,.88.363,1.193,1.193,0,0,1,.374.891,1.193,1.193,0,0,1-.374.891,1.222,1.222,0,0,1-.88.363h-4.444V.506a1.317,1.317,0,0,1-.385.99A1.319,1.319,0,0,1,170.214,1.87Zm-9.5.066a1.231,1.231,0,0,1-.891-.352,1.2,1.2,0,0,1-.363-.9V-8.91q-.242.374-.484.737t-.484.715a1.254,1.254,0,0,1-.836.506,1.319,1.319,0,0,1-.968-.2,1.1,1.1,0,0,1-.506-.781,1.23,1.23,0,0,1,.2-.935q.616-.858,1.287-1.991t1.309-2.365q.638-1.232,1.166-2.387t.836-2.057a1.329,1.329,0,0,1,.682-.8,1.315,1.315,0,0,1,.99-.033,1.179,1.179,0,0,1,.715.616,1.249,1.249,0,0,1,.011.99q-.264.77-.627,1.628t-.781,1.738V.682a1.184,1.184,0,0,1-.374.9A1.242,1.242,0,0,1,160.71,1.936ZM186.582.352a1.3,1.3,0,0,1-.99-.22,1.312,1.312,0,0,1-.55-.836q-.2-1.122-.308-2.607t-.11-3.135q0-1.65.088-3.322t.275-3.2q.187-1.529.451-2.739a1.25,1.25,0,0,1,.572-.825,1.283,1.283,0,0,1,.99-.187,1.345,1.345,0,0,1,.825.583,1.292,1.292,0,0,1,.187,1,30.3,30.3,0,0,0-.55,3.388q-.2,1.826-.253,3.707t.055,3.652a27.708,27.708,0,0,0,.374,3.223,1.175,1.175,0,0,1-.209.968A1.354,1.354,0,0,1,186.582.352ZM195.6-.836a7.154,7.154,0,0,1-4.257-1.034,4.354,4.354,0,0,1-1.683-3.036,1.242,1.242,0,0,1,.231-.968,1.281,1.281,0,0,1,.869-.528,1.317,1.317,0,0,1,.968.253,1.281,1.281,0,0,1,.528.869,1.85,1.85,0,0,0,.9,1.408,5.1,5.1,0,0,0,2.508.462,19.254,19.254,0,0,0,3.982-.506,1.192,1.192,0,0,1,.99.176,1.289,1.289,0,0,1,.572.836,1.227,1.227,0,0,1-.2.979,1.389,1.389,0,0,1-.836.583,16.758,16.758,0,0,1-2.365.4Q196.636-.836,195.6-.836Zm-4.026-10.89a1.251,1.251,0,0,1-.979-.187,1.27,1.27,0,0,1-.561-.847,1.283,1.283,0,0,1,.187-.99,1.186,1.186,0,0,1,.847-.55,19.447,19.447,0,0,1,2.75-.319q1.518-.077,3.014-.022a19.932,19.932,0,0,1,2.64.253,1.232,1.232,0,0,1,.858.539,1.266,1.266,0,0,1,.2,1,1.2,1.2,0,0,1-.539.847,1.325,1.325,0,0,1-.979.209,20.96,20.96,0,0,0-3.7-.3A20.334,20.334,0,0,0,191.576-11.726Zm25.916,11.2a1.329,1.329,0,0,1-.99-.264,1.242,1.242,0,0,1-.506-.88,1.329,1.329,0,0,1,.264-.99,1.242,1.242,0,0,1,.88-.506,14.357,14.357,0,0,0,4.389-1.122A5.5,5.5,0,0,0,223.9-6.215a4.032,4.032,0,0,0,.627-2.475,3.227,3.227,0,0,0-1.21-2.563,5.227,5.227,0,0,0-3.454-.627q-.946.066-2.112.253t-2.387.429q-1.221.242-2.343.506t-2,.506a1.229,1.229,0,0,1-1-.121,1.326,1.326,0,0,1-.627-.8,1.3,1.3,0,0,1,.121-1.034,1.317,1.317,0,0,1,.8-.638q.946-.264,2.134-.517t2.475-.484q1.287-.231,2.519-.407t2.244-.242q3.542-.264,5.39,1.21a5.822,5.822,0,0,1,2.068,4.334,6.4,6.4,0,0,1-.869,3.8,8.087,8.087,0,0,1-3.212,2.948A15.589,15.589,0,0,1,217.492-.528Zm23.562-1.21a3.635,3.635,0,0,1-1.936-.462,4.541,4.541,0,0,1-1.628-1.628,10.12,10.12,0,0,1-1.012-2.508,19.743,19.743,0,0,1-.594-3.289,23.692,23.692,0,0,1-.088-3.531,1.359,1.359,0,0,1,.429-.913,1.168,1.168,0,0,1,.935-.319,1.242,1.242,0,0,1,.913.429,1.233,1.233,0,0,1,.319.957,22.73,22.73,0,0,0,.022,3,15.349,15.349,0,0,0,.418,2.662,7.837,7.837,0,0,0,.77,1.991,1.473,1.473,0,0,0,1.276.9q.946-.022,1.584-1.98a1.319,1.319,0,0,1,.66-.759,1.249,1.249,0,0,1,1.012-.077,1.193,1.193,0,0,1,.748.649,1.256,1.256,0,0,1,.066,1,6.413,6.413,0,0,1-1.65,2.871A3.592,3.592,0,0,1,241.054-1.738Zm11.99-3.872a1.244,1.244,0,0,1-1.023-.044,1.358,1.358,0,0,1-.693-.748,9.132,9.132,0,0,0-.891-1.65,12.925,12.925,0,0,0-1.254-1.584,8.838,8.838,0,0,0-1.419-1.254,1.322,1.322,0,0,1-.55-.858,1.153,1.153,0,0,1,.242-.99,1.213,1.213,0,0,1,.869-.484,1.435,1.435,0,0,1,.979.286,12.048,12.048,0,0,1,1.815,1.562,15.491,15.491,0,0,1,1.617,1.98,8.756,8.756,0,0,1,1.078,2.068A1.376,1.376,0,0,1,253.77-6.3,1.189,1.189,0,0,1,253.044-5.61ZM276.32.7A10.268,10.268,0,0,1,272.03-.8a7.326,7.326,0,0,1-2.519-2.739,7.227,7.227,0,0,1-.825-3.344,7.873,7.873,0,0,1,.693-3.289,7.638,7.638,0,0,1,1.991-2.651q-1.32.2-2.816.451t-2.9.506q-1.408.253-2.464.451a1.219,1.219,0,0,1-.968-.242,1.308,1.308,0,0,1-.528-.858,1.224,1.224,0,0,1,.242-.979,1.335,1.335,0,0,1,.88-.517q.7-.11,1.8-.3t2.464-.407q1.364-.22,2.794-.462l2.805-.473q1.375-.231,2.519-.429t1.87-.33a1.227,1.227,0,0,1,.946.22,1.3,1.3,0,0,1,.55.814,1.283,1.283,0,0,1-.187.99,1.174,1.174,0,0,1-.825.55,7.414,7.414,0,0,0-2.783.913,6.887,6.887,0,0,0-1.947,1.672,7,7,0,0,0-1.144,2.079A6.613,6.613,0,0,0,271.3-7.04,4.414,4.414,0,0,0,272.756-3.6a7.369,7.369,0,0,0,3.938,1.683,1.321,1.321,0,0,1,.88.528,1.22,1.22,0,0,1,.242.968,1.335,1.335,0,0,1-.517.88A1.224,1.224,0,0,1,276.32.7Z" transform="translate(509.82 10027.039)" fill="#fff" opacity="0.999"/><path d="M8.428,4a4.459,4.459,0,1,0,4.428,4.459A4.448,4.448,0,0,0,8.428,4m0-4A8.459,8.459,0,1,1,0,8.459,8.443,8.443,0,0,1,8.428,0Z" transform="translate(480 10010.148)" fill="#ed8934"/></g></svg>