<svg xmlns="http://www.w3.org/2000/svg" width="725.785" height="112.287" viewBox="0 0 725.785 112.287"><defs><style>.a{fill:#ffd86e;}.b,.d,.f{fill:none;}.b,.d{stroke:#ed8934;}.b{stroke-linecap:round;stroke-linejoin:round;stroke-width:2px;}.c{fill:#fff;opacity:0.999;}.d{stroke-width:4px;}.e{stroke:none;}</style></defs><rect class="a" width="725.785" height="112.287" rx="56"/><g transform="translate(677.017 50.167)"><path class="b" d="M13.5,9l6.612,6.612L13.5,22.225" transform="translate(-13.5 -9)"/></g><g transform="translate(-166.895)"><path class="c" d="M10.582,1.892a1.148,1.148,0,0,1-.814-.308A1.061,1.061,0,0,1,9.438.77V-8.866q0-.286.011-.517t.033-.451q-.2.264-.429.539t-.363.451a.985.985,0,0,1-.66.352.931.931,0,0,1-.7-.2.983.983,0,0,1-.374-.627.845.845,0,0,1,.176-.693q.2-.22.539-.649t.517-.671a1.047,1.047,0,0,1,.627-.418.9.9,0,0,1,.737.154.879.879,0,0,1,.352.44,1.888,1.888,0,0,1,1.122-.781A7.594,7.594,0,0,1,13-12.144h.77v-1.364H9.944a1.017,1.017,0,0,1-.781-.319,1.076,1.076,0,0,1-.3-.759,1.115,1.115,0,0,1,.3-.77,1,1,0,0,1,.781-.33h3.828v-1.892a1.07,1.07,0,0,1,.341-.836,1.187,1.187,0,0,1,.825-.308,1.148,1.148,0,0,1,.814.308,1.088,1.088,0,0,1,.33.836v1.892h2.244q-.242-.22-.605-.528t-.583-.462a.8.8,0,0,1-.3-.616.946.946,0,0,1,.231-.66.943.943,0,0,1,.66-.341,1.045,1.045,0,0,1,.726.209q.242.176.66.539t.638.539a.847.847,0,0,1,.319.638.977.977,0,0,1-.253.682h.286a.993.993,0,0,1,.792.33,1.139,1.139,0,0,1,.286.77,1.1,1.1,0,0,1-.286.759,1.009,1.009,0,0,1-.792.319H16.082v1.364h.77a6.767,6.767,0,0,1,2.167.275,1.8,1.8,0,0,1,1.1.99,5.079,5.079,0,0,1,.319,2.013v7.81a2.979,2.979,0,0,1-.616,2.112,2.688,2.688,0,0,1-1.914.682,1.259,1.259,0,0,1-.924-.275A1.149,1.149,0,0,1,16.61.682a1.006,1.006,0,0,1,.858-1.21.989.989,0,0,0,.572-.253.913.913,0,0,0,.132-.561V-3.19h-2.09V.374a1.124,1.124,0,0,1-.33.847,1.126,1.126,0,0,1-.814.319,1.164,1.164,0,0,1-.825-.319,1.1,1.1,0,0,1-.341-.847V-3.19H11.7V.77a1.061,1.061,0,0,1-.33.814A1.12,1.12,0,0,1,10.582,1.892ZM4.818,1.87a1.164,1.164,0,0,1-.825-.319A1.1,1.1,0,0,1,3.652.7v-7.15q-.308.33-.638.66l-.638.638A1.242,1.242,0,0,1,1.5-4.8a1.242,1.242,0,0,1-.88-.352A1.141,1.141,0,0,1,.3-5.984,1.038,1.038,0,0,1,.66-6.776,20.9,20.9,0,0,0,2.266-8.327Q3.08-9.2,3.784-10.1a13.23,13.23,0,0,0,1.122-1.65q.242-.44.143-.627t-.561-.187H1.716a1.017,1.017,0,0,1-.781-.319,1.076,1.076,0,0,1-.3-.759,1.115,1.115,0,0,1,.3-.77,1,1,0,0,1,.781-.33H3.608v-2.794a1.08,1.08,0,0,1,.352-.858A1.228,1.228,0,0,1,4.8-18.7a1.187,1.187,0,0,1,.825.308,1.1,1.1,0,0,1,.341.858v2.794h.462a1.722,1.722,0,0,1,1.122.341,1.435,1.435,0,0,1,.517.88,1.823,1.823,0,0,1-.209,1.155q-.418.77-.88,1.529t-.99,1.507q.374.264.891.638t1.012.726l.8.572a.944.944,0,0,1,.418.7,1.047,1.047,0,0,1-.242.792,1.1,1.1,0,0,1-.737.429,1.059,1.059,0,0,1-.847-.209l-.561-.451Q6.38-6.4,6.006-6.688V.7a1.1,1.1,0,0,1-.341.847A1.192,1.192,0,0,1,4.818,1.87ZM16.082-5.1h2.09v-1.54h-2.09ZM11.7-5.1h2.068v-1.54H11.7Zm4.378-3.454h2.09v-.154a2.873,2.873,0,0,0-.1-.891.572.572,0,0,0-.418-.363,3.987,3.987,0,0,0-.979-.088h-.594Zm-4.378,0h2.068v-1.5h-.616a3.726,3.726,0,0,0-.946.088A.568.568,0,0,0,11.8-9.6a2.873,2.873,0,0,0-.1.891ZM34.32,1.738a1.644,1.644,0,0,1-1.078.066,1.057,1.057,0,0,1-.638-.616,1.134,1.134,0,0,1,.022-.9,1.093,1.093,0,0,1,.77-.594q.682-.176,1.529-.484t1.529-.616a2.591,2.591,0,0,1-1.771-.869,3.425,3.425,0,0,1-.495-2.035v-1.76a3.958,3.958,0,0,1,.341-1.815,1.934,1.934,0,0,1,1.166-.924,7.381,7.381,0,0,1,2.255-.275h3.344a7.381,7.381,0,0,1,2.255.275,1.934,1.934,0,0,1,1.166.924,3.958,3.958,0,0,1,.341,1.815v1.76a3.47,3.47,0,0,1-.5,2.057,2.547,2.547,0,0,1-1.793.847q.7.308,1.529.616A15.249,15.249,0,0,0,45.8-.308a1.093,1.093,0,0,1,.77.594,1.134,1.134,0,0,1,.022.9,1.059,1.059,0,0,1-.627.616A1.613,1.613,0,0,1,44.9,1.738q-1.012-.352-2.068-.8T41.008.066a.946.946,0,0,1-.473-.627,1.192,1.192,0,0,1,.1-.759H38.566a1.192,1.192,0,0,1,.1.759.946.946,0,0,1-.473.627q-.77.418-1.8.869T34.32,1.738Zm-3.96.352a1.088,1.088,0,0,1-.814-.341,1.143,1.143,0,0,1-.33-.825V-10.01q-.374.572-.836,1.166a1.185,1.185,0,0,1-.8.451,1.2,1.2,0,0,1-.957-.275,1.15,1.15,0,0,1-.374-.748,1.267,1.267,0,0,1,.242-.858,15.439,15.439,0,0,0,1.078-1.617q.55-.935,1.067-1.969t.935-2.024q.418-.99.682-1.76a1.17,1.17,0,0,1,.638-.737,1.21,1.21,0,0,1,.946-.033,1.067,1.067,0,0,1,.682.6,1.227,1.227,0,0,1,0,.913q-.2.616-.451,1.265t-.539,1.309V.924a1.143,1.143,0,0,1-.33.825A1.114,1.114,0,0,1,30.36,2.09ZM33.4-10.956a1.1,1.1,0,0,1-.781-.3,1.044,1.044,0,0,1-.319-.8v-.814a2.8,2.8,0,0,1,.649-2.079,3.4,3.4,0,0,1,2.321-.649l-.044-.066q-.154-.22-.363-.473t-.407-.517a.968.968,0,0,1-.176-.847,1.074,1.074,0,0,1,.528-.715,1.268,1.268,0,0,1,.9-.143,1.21,1.21,0,0,1,.748.5l.352.506q.2.286.352.528a1.04,1.04,0,0,1,.154.627,1,1,0,0,1-.22.583h1.32v-1.958a1.058,1.058,0,0,1,.363-.869,1.329,1.329,0,0,1,.869-.3,1.329,1.329,0,0,1,.869.3,1.058,1.058,0,0,1,.363.869v1.958h1.232a1.121,1.121,0,0,1-.209-.55,1,1,0,0,1,.121-.594q.154-.264.319-.55t.3-.528a1.16,1.16,0,0,1,.726-.583,1.251,1.251,0,0,1,.924.121,1.063,1.063,0,0,1,.572.693,1,1,0,0,1-.11.847q-.176.308-.352.561t-.352.5a.172.172,0,0,0-.033.044.313.313,0,0,1-.055.066,3.3,3.3,0,0,1,2.255.671,2.829,2.829,0,0,1,.627,2.057v.814a1.044,1.044,0,0,1-.319.8,1.1,1.1,0,0,1-.781.3,1.143,1.143,0,0,1-.792-.3,1.026,1.026,0,0,1-.33-.8v-.77a1.275,1.275,0,0,0-.231-.891,1.446,1.446,0,0,0-.979-.231h-7.7a1.446,1.446,0,0,0-.979.231,1.317,1.317,0,0,0-.231.913v.748a1.026,1.026,0,0,1-.33.8A1.115,1.115,0,0,1,33.4-10.956Zm4.6,1.408a3.819,3.819,0,0,1-2.167-.429,1.788,1.788,0,0,1-.561-1.507,1.751,1.751,0,0,1,.561-1.507,3.99,3.99,0,0,1,2.167-.407h3.19a3.921,3.921,0,0,1,2.167.407,1.788,1.788,0,0,1,.539,1.507,1.826,1.826,0,0,1-.539,1.507,3.754,3.754,0,0,1-2.167.429ZM36.63-4.84h5.984v-.726H36.63Zm1.562,2.046h2.86a3.249,3.249,0,0,0,1.1-.132A.709.709,0,0,0,42.57-3.5h-5.9a.706.706,0,0,0,.429.572A3.262,3.262,0,0,0,38.192-2.794ZM36.674-6.908h5.9a.709.709,0,0,0-.418-.572,3.249,3.249,0,0,0-1.1-.132h-2.86A3.262,3.262,0,0,0,37.1-7.48.706.706,0,0,0,36.674-6.908Zm1.54-4.114h2.75a1.132,1.132,0,0,0,.539-.088.408.408,0,0,0,.143-.374.382.382,0,0,0-.143-.352,1.132,1.132,0,0,0-.539-.088h-2.75a1.2,1.2,0,0,0-.561.088.382.382,0,0,0-.143.352.408.408,0,0,0,.143.374A1.2,1.2,0,0,0,38.214-11.022ZM55.22,1.87a1.368,1.368,0,0,1-.957-.374,1.28,1.28,0,0,1-.407-.99V-9.7a6.847,6.847,0,0,1,.517-2.937,3.032,3.032,0,0,1,1.694-1.529A8.758,8.758,0,0,1,59.2-14.63h2.332v-2.618a1.272,1.272,0,0,1,.407-1,1.391,1.391,0,0,1,.957-.363,1.38,1.38,0,0,1,.968.363,1.29,1.29,0,0,1,.4,1v2.618h2.354a8.742,8.742,0,0,1,3.146.462,3.034,3.034,0,0,1,1.683,1.529A6.847,6.847,0,0,1,71.962-9.7v7.678A3.791,3.791,0,0,1,71.038.869a4.315,4.315,0,0,1-2.97.847,1.562,1.562,0,0,1-1.023-.352A1.383,1.383,0,0,1,66.572.33a1.261,1.261,0,0,1,.385-.979,1.393,1.393,0,0,1,.957-.429,2.132,2.132,0,0,0,1.1-.286,1.271,1.271,0,0,0,.264-.968V-9.7a3.541,3.541,0,0,0-.242-1.463,1.34,1.34,0,0,0-.814-.715,5.114,5.114,0,0,0-1.606-.2H64.2a11.673,11.673,0,0,1-.154,1.276,10.033,10.033,0,0,1-.286,1.188q.726.506,1.639,1.243t1.782,1.5q.869.759,1.441,1.331a1.172,1.172,0,0,1,.4.979,1.477,1.477,0,0,1-.484.979,1.2,1.2,0,0,1-.957.363,1.312,1.312,0,0,1-.935-.451,15.938,15.938,0,0,0-1.122-1.188q-.66-.638-1.375-1.276T62.788-7.282A10.632,10.632,0,0,1,61.171-5.06a14.047,14.047,0,0,1-2.189,1.87,1.75,1.75,0,0,1-1.089.341,1.177,1.177,0,0,1-.979-.539A1.259,1.259,0,0,1,56.683-4.4a1.325,1.325,0,0,1,.583-.9,9.971,9.971,0,0,0,2.959-2.86,8.608,8.608,0,0,0,1.243-3.916H59.2a5.023,5.023,0,0,0-1.584.2,1.34,1.34,0,0,0-.814.715A3.541,3.541,0,0,0,56.562-9.7V.506a1.317,1.317,0,0,1-.385.99A1.319,1.319,0,0,1,55.22,1.87Zm32.3-.022a8.325,8.325,0,0,1-2.64-.341A2.433,2.433,0,0,1,83.446.33a5.016,5.016,0,0,1-.44-2.31,5.016,5.016,0,0,1,.44-2.31,2.433,2.433,0,0,1,1.43-1.177,8.325,8.325,0,0,1,2.64-.341h2.816a8.325,8.325,0,0,1,2.64.341A2.433,2.433,0,0,1,94.4-4.29a5.016,5.016,0,0,1,.44,2.31A5.016,5.016,0,0,1,94.4.33a2.433,2.433,0,0,1-1.43,1.177,8.325,8.325,0,0,1-2.64.341ZM80.5-11.264a1.276,1.276,0,0,1-.891-.33,1.158,1.158,0,0,1-.363-.9v-.7a3.077,3.077,0,0,1,.825-2.431,4.341,4.341,0,0,1,2.827-.715H87.45v-1.3a1.173,1.173,0,0,1,.407-.968,1.473,1.473,0,0,1,.957-.33,1.505,1.505,0,0,1,.979.33,1.173,1.173,0,0,1,.407.968v1.3h4.708a4.341,4.341,0,0,1,2.827.715A3.077,3.077,0,0,1,98.56-13.2v.7a1.141,1.141,0,0,1-.374.9,1.316,1.316,0,0,1-.9.33,1.373,1.373,0,0,1-.9-.308,1.075,1.075,0,0,1-.374-.88v-.594a1.128,1.128,0,0,0-.3-.88A1.718,1.718,0,0,0,94.6-14.19H83.2a1.769,1.769,0,0,0-1.122.264,1.1,1.1,0,0,0-.308.88v.594a1.075,1.075,0,0,1-.374.88A1.373,1.373,0,0,1,80.5-11.264Zm-.022,8.272a1.523,1.523,0,0,1-1.078.2,1.255,1.255,0,0,1-.836-.616,1.1,1.1,0,0,1-.11-.968,1.433,1.433,0,0,1,.726-.748q1.254-.638,2.574-1.485t2.585-1.782q1.265-.935,2.3-1.837a3.2,3.2,0,0,1,2.123-.946,3.45,3.45,0,0,1,2.145.858q1.012.792,2.277,1.65t2.651,1.65q1.386.792,2.706,1.43a1.451,1.451,0,0,1,.726.737A1.107,1.107,0,0,1,99.2-3.828a1.364,1.364,0,0,1-.869.715,1.559,1.559,0,0,1-1.177-.143q-1.232-.682-2.574-1.518T91.993-6.5Q90.75-7.392,89.76-8.228a1.41,1.41,0,0,0-.913-.429,1.537,1.537,0,0,0-.913.451q-.99.836-2.233,1.771T83.116-4.609Q81.774-3.718,80.476-2.992Zm7.04,2.508h2.816a2.614,2.614,0,0,0,1.551-.308,1.521,1.521,0,0,0,.363-1.188,1.517,1.517,0,0,0-.363-1.2,2.694,2.694,0,0,0-1.551-.3H87.516a2.749,2.749,0,0,0-1.573.3,1.517,1.517,0,0,0-.363,1.2,1.521,1.521,0,0,0,.363,1.188A2.667,2.667,0,0,0,87.516-.484ZM82.83-8.866a1.737,1.737,0,0,1-1.023.286,1.169,1.169,0,0,1-.913-.528,1.145,1.145,0,0,1-.187-.869,1.1,1.1,0,0,1,.517-.781q.9-.572,1.859-1.32a20.7,20.7,0,0,0,1.639-1.408,1.184,1.184,0,0,1,.891-.4,1.217,1.217,0,0,1,.891.374,1.028,1.028,0,0,1,.352.825,1.3,1.3,0,0,1-.374.847,20.854,20.854,0,0,1-1.727,1.584A19.141,19.141,0,0,1,82.83-8.866Zm11.946-.242q-.55-.352-1.254-.814t-1.375-.957q-.671-.495-1.155-.891a1.126,1.126,0,0,1-.429-.814,1.067,1.067,0,0,1,.3-.836,1.091,1.091,0,0,1,.8-.407,1.194,1.194,0,0,1,.869.275q.506.4,1.166.847t1.331.858q.671.407,1.243.693a.965.965,0,0,1,.539.7,1.315,1.315,0,0,1-.143.924,1.159,1.159,0,0,1-.836.605A1.535,1.535,0,0,1,94.776-9.108ZM114.84-5.94a2.335,2.335,0,0,1-1.716-.7,2.335,2.335,0,0,1-.7-1.716,2.335,2.335,0,0,1,.7-1.716,2.335,2.335,0,0,1,1.716-.7,2.335,2.335,0,0,1,1.716.7,2.335,2.335,0,0,1,.7,1.716,2.335,2.335,0,0,1-.7,1.716A2.335,2.335,0,0,1,114.84-5.94Zm21.186,7.832a1.243,1.243,0,0,1-.847-.319A1.1,1.1,0,0,1,134.816.7V-5.522q-.55.814-1.133,1.584a14.806,14.806,0,0,1-1.089,1.3,1.33,1.33,0,0,1-.847.4,1.079,1.079,0,0,1-.869-.308,1.085,1.085,0,0,1-.363-.792,1.043,1.043,0,0,1,.319-.792,15.538,15.538,0,0,0,1.221-1.419q.693-.891,1.364-1.848t1.111-1.7h-2.662a1.08,1.08,0,0,1-.792-.33,1.106,1.106,0,0,1-.33-.814,1.08,1.08,0,0,1,.33-.792,1.08,1.08,0,0,1,.792-.33h2.948v-5.962a1.131,1.131,0,0,1,.363-.88,1.22,1.22,0,0,1,.847-.33,1.17,1.17,0,0,1,.847.33,1.168,1.168,0,0,1,.341.88v5.962h2.376a1.08,1.08,0,0,1,.792.33,1.08,1.08,0,0,1,.33.792,1.106,1.106,0,0,1-.33.814,1.08,1.08,0,0,1-.792.33h-2.376v.132l.946,1q.55.583,1.1,1.122t.88.825a1.217,1.217,0,0,1,.352.66,1.042,1.042,0,0,1,.55-.2q1.034-.154,2.431-.407t2.8-.539v-10.8a1.158,1.158,0,0,1,.363-.9,1.247,1.247,0,0,1,.869-.33,1.287,1.287,0,0,1,.88.33,1.141,1.141,0,0,1,.374.9V-7l.7-.165.616-.143A1.16,1.16,0,0,1,151-7.15a1.087,1.087,0,0,1,.495.748,1.334,1.334,0,0,1-.132.9,1.032,1.032,0,0,1-.726.506q-.418.088-.891.2t-.979.22V.66a1.149,1.149,0,0,1-.374.891,1.264,1.264,0,0,1-.88.341,1.225,1.225,0,0,1-.869-.341,1.166,1.166,0,0,1-.363-.891V-4.048q-1.276.264-2.552.495t-2.31.407a1.321,1.321,0,0,1-.968-.187,1.088,1.088,0,0,1-.484-.825l-.022-.066a.964.964,0,0,1-.693.176,1.1,1.1,0,0,1-.671-.33q-.264-.242-.627-.638t-.737-.836V.7a1.132,1.132,0,0,1-.341.869A1.192,1.192,0,0,1,136.026,1.892Zm8.052-14.5q-.2-.2-.572-.506t-.748-.627q-.374-.319-.616-.5a1.062,1.062,0,0,1-.374-.781,1.129,1.129,0,0,1,.286-.825,1.252,1.252,0,0,1,.8-.418,1.232,1.232,0,0,1,.869.264q.242.176.627.484t.781.616a6.808,6.808,0,0,1,.616.528,1.055,1.055,0,0,1,.374.825,1.229,1.229,0,0,1-.352.869,1.225,1.225,0,0,1-.836.374A1.174,1.174,0,0,1,144.078-12.606Zm-.55,4.752q-.22-.2-.594-.495l-.759-.605q-.385-.308-.627-.484a.979.979,0,0,1-.4-.77,1.194,1.194,0,0,1,.264-.836,1.224,1.224,0,0,1,.792-.429,1.205,1.205,0,0,1,.88.253q.242.176.638.473l.792.594q.4.3.616.495a1.126,1.126,0,0,1,.4.825,1.22,1.22,0,0,1-.33.891,1.189,1.189,0,0,1-.814.385A1.135,1.135,0,0,1,143.528-7.854Zm-5.1-4.2a1.044,1.044,0,0,1-.583-.561.938.938,0,0,1,.011-.781q.154-.308.352-.814t.4-1q.2-.495.286-.8a1.108,1.108,0,0,1,.594-.649,1.07,1.07,0,0,1,.836-.033,1.173,1.173,0,0,1,.627.506.942.942,0,0,1,.033.836q-.11.352-.319.88t-.418,1.034q-.209.506-.363.836a1.053,1.053,0,0,1-.594.539A1.193,1.193,0,0,1,138.424-12.056Zm-4.862-.066a1.2,1.2,0,0,1-.858.033.964.964,0,0,1-.572-.627q-.088-.308-.275-.781t-.385-.957q-.2-.484-.33-.77a1.017,1.017,0,0,1,.022-.8,1,1,0,0,1,.594-.539,1.123,1.123,0,0,1,.858-.011,1.037,1.037,0,0,1,.572.6q.132.264.341.759t.407.99q.2.495.286.781a.879.879,0,0,1-.022.792A1.217,1.217,0,0,1,133.562-12.122ZM158.334,1.034A1.088,1.088,0,0,1,157.5.7a1.12,1.12,0,0,1-.308-.792A1.148,1.148,0,0,1,157.5-.9a1.088,1.088,0,0,1,.836-.33h3.784a.568.568,0,0,1-.121-.11,1.549,1.549,0,0,1-.1-.132q-.176-.286-.473-.715t-.6-.836q-.308-.407-.484-.627a1.119,1.119,0,0,1-.253-.869,1.091,1.091,0,0,1,.429-.781,1.376,1.376,0,0,1,.968-.286,1.248,1.248,0,0,1,.88.462q.176.22.495.649t.627.847q.308.418.462.66a1.18,1.18,0,0,1,.231.913,1.3,1.3,0,0,1-.473.825h1.672v-4.4H159.7a1.08,1.08,0,0,1-.858-.352,1.228,1.228,0,0,1-.308-.836,1.187,1.187,0,0,1,.308-.825,1.1,1.1,0,0,1,.858-.341h5.676V-9.724H162.69a1.088,1.088,0,0,1-.836-.33,1.148,1.148,0,0,1-.308-.814,1.174,1.174,0,0,1,.242-.748q-.924.66-1.837,1.265t-1.7,1.067a1.585,1.585,0,0,1-1.089.176,1.283,1.283,0,0,1-.869-.594,1.193,1.193,0,0,1-.143-1.023,1.25,1.25,0,0,1,.627-.759q1.012-.528,2.134-1.254t2.222-1.562q1.1-.836,2.057-1.672t1.661-1.584a2.8,2.8,0,0,1,1.914-.957,2.484,2.484,0,0,1,1.87.825,22.516,22.516,0,0,0,1.705,1.518q1,.814,2.123,1.628t2.222,1.5q1.1.682,2,1.122a1.283,1.283,0,0,1,.682.858,1.354,1.354,0,0,1-.132,1.122,1.517,1.517,0,0,1-.946.693,1.54,1.54,0,0,1-1.166-.187q-.836-.484-1.881-1.177t-2.112-1.5q-1.067-.8-2.013-1.606a16.946,16.946,0,0,1-1.584-1.507.809.809,0,0,0-1.342-.022,22.071,22.071,0,0,1-1.738,1.584q-1.034.858-2.2,1.716a.979.979,0,0,1,.44-.088h8.074a1.1,1.1,0,0,1,.847.341,1.164,1.164,0,0,1,.319.825,1.126,1.126,0,0,1-.319.814,1.124,1.124,0,0,1-.847.33h-2.618v1.738h5.61a1.1,1.1,0,0,1,.847.341,1.164,1.164,0,0,1,.319.825,1.2,1.2,0,0,1-.319.836,1.088,1.088,0,0,1-.847.352h-5.61v4.4h1.606a1.251,1.251,0,0,1-.4-.748,1.086,1.086,0,0,1,.2-.814q.154-.22.418-.649t.528-.869l.4-.66a1.207,1.207,0,0,1,.77-.594,1.307,1.307,0,0,1,.968.11,1.132,1.132,0,0,1,.594.748,1.243,1.243,0,0,1-.11.946l-.418.715q-.264.451-.528.88t-.44.671a.545.545,0,0,1-.1.143l-.121.121h3.5a1.088,1.088,0,0,1,.836.33,1.148,1.148,0,0,1,.308.814,1.12,1.12,0,0,1-.308.792,1.088,1.088,0,0,1-.836.33Zm26.928.858a1.481,1.481,0,0,1-1.034-.187,1.216,1.216,0,0,1-.55-.847,1.1,1.1,0,0,1,.242-.946,1.433,1.433,0,0,1,.88-.462q.594-.11,1.353-.264t1.617-.308V-3.674q-.858.462-1.727.847t-1.705.693a1.6,1.6,0,0,1-1.1.044,1.2,1.2,0,0,1-.682-.7,1.161,1.161,0,0,1,.022-.913,1.308,1.308,0,0,1,.836-.671,23.947,23.947,0,0,0,3.663-1.573,17.135,17.135,0,0,0,2.981-1.991H183.48a1.018,1.018,0,0,1-.748-.308A1.018,1.018,0,0,1,182.424-9a1.018,1.018,0,0,1,.308-.748,1.018,1.018,0,0,1,.748-.308h7.9v-1.188h-5.39a.993.993,0,0,1-.726-.308.993.993,0,0,1-.308-.726.958.958,0,0,1,.308-.715,1.011,1.011,0,0,1,.726-.3h5.39v-1.144H184.25a.993.993,0,0,1-.726-.308.993.993,0,0,1-.308-.726.983.983,0,0,1,.308-.737,1.011,1.011,0,0,1,.726-.3h7.128v-.77a1.263,1.263,0,0,1,.4-.979,1.352,1.352,0,0,1,.946-.363,1.341,1.341,0,0,1,.957.363,1.281,1.281,0,0,1,.385.979v.77h7.062a1,1,0,0,1,.737.3,1,1,0,0,1,.3.737,1.011,1.011,0,0,1-.3.726.982.982,0,0,1-.737.308h-7.062v1.144h5.39a.965.965,0,0,1,.726.3.994.994,0,0,1,.286.715,1.032,1.032,0,0,1-.286.726.948.948,0,0,1-.726.308h-5.39v1.188h7.788a1.018,1.018,0,0,1,.748.308,1.018,1.018,0,0,1,.308.748,1.018,1.018,0,0,1-.308.748,1.018,1.018,0,0,1-.748.308h-7.392q.418.748.891,1.441t.979,1.309q.528-.33,1.155-.748t1.188-.814q.561-.4.869-.638a1.369,1.369,0,0,1,.935-.319,1.006,1.006,0,0,1,.847.451,1.283,1.283,0,0,1,.264.9,1.093,1.093,0,0,1-.44.792q-.528.4-1.441.979T197.956-3.52a15.817,15.817,0,0,0,1.925,1.485,22.73,22.73,0,0,0,2.145,1.243,1.22,1.22,0,0,1,.616.715,1.208,1.208,0,0,1-.088,1,1.194,1.194,0,0,1-.88.66,1.732,1.732,0,0,1-1.144-.176,19.641,19.641,0,0,1-4.774-3.575A17.061,17.061,0,0,1,192.39-7a22.16,22.16,0,0,1-2.046,1.716v3.63q.924-.176,1.749-.363t1.419-.341a1.43,1.43,0,0,1,.968.066.951.951,0,0,1,.528.7,1.05,1.05,0,0,1-.132.957,1.433,1.433,0,0,1-.792.495q-.814.22-1.914.5t-2.321.561q-1.221.286-2.409.528T185.262,1.892Zm41.008-4.4q-1.078-.792-2.387-1.837t-2.64-2.189q-1.331-1.144-2.5-2.244A5.724,5.724,0,0,0,217.393-9.8a1.338,1.338,0,0,0-1.1-.033,6.457,6.457,0,0,0-1.463.924q-1.056.814-2.046,1.54t-1.892,1.3a1.294,1.294,0,0,1-1,.165,1.335,1.335,0,0,1-.847-.583,1.391,1.391,0,0,1-.187-1.012,1.186,1.186,0,0,1,.561-.836q.836-.506,1.914-1.243t2.09-1.485a8.054,8.054,0,0,1,2.442-1.342,3.313,3.313,0,0,1,2.178.077,7.444,7.444,0,0,1,2.332,1.573q1.1,1.034,2.464,2.156t2.695,2.134q1.331,1.012,2.343,1.738a1.257,1.257,0,0,1,.528.88,1.293,1.293,0,0,1-.242,1.012,1.413,1.413,0,0,1-.891.55A1.209,1.209,0,0,1,226.27-2.508Z" transform="translate(256.715 65.039)"/><g class="d" transform="translate(226.895 48.148)"><ellipse class="e" cx="8.428" cy="8.459" rx="8.428" ry="8.459"/><ellipse class="f" cx="8.428" cy="8.459" rx="6.428" ry="6.459"/></g></g></svg>