<svg xmlns="http://www.w3.org/2000/svg" width="315" height="60.096" viewBox="0 0 315 60.096"><defs><style>.a{fill:#ffd86e;}.b,.d,.f{fill:none;}.b,.d{stroke:#ed8934;}.b{stroke-linecap:round;stroke-linejoin:round;stroke-width:2px;}.c{fill:#fff;opacity:0.999;}.d{stroke-width:3px;}.e{stroke:none;}</style></defs><rect class="a" width="315" height="60.096" rx="30"/><g transform="translate(296.545 26)"><path class="b" d="M13.5,9l4.191,4.191L13.5,17.383" transform="translate(-13.5 -9)"/></g><g transform="translate(20.074 18)"><path class="c" d="M7.7,1.376A.835.835,0,0,1,7.1,1.152.772.772,0,0,1,6.864.56V-6.448q0-.208.008-.376T6.9-7.152q-.144.192-.312.392t-.264.328a.716.716,0,0,1-.48.256.677.677,0,0,1-.512-.144.715.715,0,0,1-.272-.456.614.614,0,0,1,.128-.5q.144-.16.392-.472t.376-.488a.761.761,0,0,1,.456-.3.655.655,0,0,1,.536.112.639.639,0,0,1,.256.32,1.373,1.373,0,0,1,.816-.568,5.523,5.523,0,0,1,1.44-.152h.56v-.992H7.232a.74.74,0,0,1-.568-.232.782.782,0,0,1-.216-.552.811.811,0,0,1,.216-.56.728.728,0,0,1,.568-.24h2.784v-1.376a.778.778,0,0,1,.248-.608.864.864,0,0,1,.6-.224.835.835,0,0,1,.592.224.791.791,0,0,1,.24.608v1.376h1.632q-.176-.16-.44-.384t-.424-.336a.585.585,0,0,1-.216-.448.688.688,0,0,1,.168-.48.686.686,0,0,1,.48-.248.76.76,0,0,1,.528.152q.176.128.48.392t.464.392a.616.616,0,0,1,.232.464.71.71,0,0,1-.184.5h.208a.722.722,0,0,1,.576.24.829.829,0,0,1,.208.56.8.8,0,0,1-.208.552.734.734,0,0,1-.576.232H11.7v.992h.56a4.921,4.921,0,0,1,1.576.2,1.309,1.309,0,0,1,.8.72,3.694,3.694,0,0,1,.232,1.464v5.68A2.167,2.167,0,0,1,14.416.768a1.955,1.955,0,0,1-1.392.5.916.916,0,0,1-.672-.2A.835.835,0,0,1,12.08.5a.731.731,0,0,1,.624-.88.719.719,0,0,0,.416-.184.664.664,0,0,0,.1-.408V-2.32H11.7V.272a.817.817,0,0,1-.24.616.819.819,0,0,1-.592.232.847.847,0,0,1-.6-.232.8.8,0,0,1-.248-.616V-2.32h-1.5V.56a.772.772,0,0,1-.24.592A.815.815,0,0,1,7.7,1.376ZM3.5,1.36a.847.847,0,0,1-.6-.232A.8.8,0,0,1,2.656.512v-5.2q-.224.24-.464.48l-.464.464a.9.9,0,0,1-.64.256.9.9,0,0,1-.64-.256.829.829,0,0,1-.232-.608A.755.755,0,0,1,.48-4.928,15.2,15.2,0,0,0,1.648-6.056q.592-.632,1.1-1.288a9.621,9.621,0,0,0,.816-1.2q.176-.32.1-.456t-.408-.136H1.248A.74.74,0,0,1,.68-9.368.782.782,0,0,1,.464-9.92a.811.811,0,0,1,.216-.56.728.728,0,0,1,.568-.24H2.624v-2.032a.785.785,0,0,1,.256-.624.893.893,0,0,1,.608-.224.864.864,0,0,1,.6.224.8.8,0,0,1,.248.624v2.032h.336a1.252,1.252,0,0,1,.816.248,1.043,1.043,0,0,1,.376.64,1.326,1.326,0,0,1-.152.84q-.3.56-.64,1.112t-.72,1.1q.272.192.648.464t.736.528l.584.416a.686.686,0,0,1,.3.512.762.762,0,0,1-.176.576.8.8,0,0,1-.536.312A.77.77,0,0,1,5.3-4.128l-.408-.328q-.248-.2-.52-.408V.512a.8.8,0,0,1-.248.616A.867.867,0,0,1,3.5,1.36ZM11.7-3.712h1.52v-1.12H11.7Zm-3.184,0h1.5v-1.12h-1.5ZM11.7-6.224h1.52v-.112a2.089,2.089,0,0,0-.072-.648.416.416,0,0,0-.3-.264,2.9,2.9,0,0,0-.712-.064H11.7Zm-3.184,0h1.5V-7.312H9.568a2.71,2.71,0,0,0-.688.064.413.413,0,0,0-.3.264,2.089,2.089,0,0,0-.072.648ZM24.96,1.264a1.2,1.2,0,0,1-.784.048.769.769,0,0,1-.464-.448.825.825,0,0,1,.016-.656.8.8,0,0,1,.56-.432q.5-.128,1.112-.352t1.112-.448a1.884,1.884,0,0,1-1.288-.632,2.491,2.491,0,0,1-.36-1.48v-1.28a2.879,2.879,0,0,1,.248-1.32,1.407,1.407,0,0,1,.848-.672,5.368,5.368,0,0,1,1.64-.2h2.432a5.368,5.368,0,0,1,1.64.2,1.407,1.407,0,0,1,.848.672,2.879,2.879,0,0,1,.248,1.32v1.28a2.524,2.524,0,0,1-.36,1.5,1.853,1.853,0,0,1-1.3.616q.512.224,1.112.448a11.09,11.09,0,0,0,1.1.352.8.8,0,0,1,.56.432.825.825,0,0,1,.016.656.77.77,0,0,1-.456.448,1.173,1.173,0,0,1-.776-.048q-.736-.256-1.5-.584T29.824.048a.688.688,0,0,1-.344-.456.867.867,0,0,1,.072-.552h-1.5a.867.867,0,0,1,.072.552.688.688,0,0,1-.344.456q-.56.3-1.312.632T24.96,1.264Zm-2.88.256a.791.791,0,0,1-.592-.248.831.831,0,0,1-.24-.6V-7.28q-.272.416-.608.848a.862.862,0,0,1-.584.328.871.871,0,0,1-.7-.2.836.836,0,0,1-.272-.544.921.921,0,0,1,.176-.624,11.228,11.228,0,0,0,.784-1.176q.4-.68.776-1.432t.68-1.472q.3-.72.5-1.28a.851.851,0,0,1,.464-.536.88.88,0,0,1,.688-.024.776.776,0,0,1,.5.44.892.892,0,0,1,0,.664q-.144.448-.328.92t-.392.952V.672a.831.831,0,0,1-.24.6A.81.81,0,0,1,22.08,1.52Zm2.208-9.488a.8.8,0,0,1-.568-.216.759.759,0,0,1-.232-.584V-9.36a2.038,2.038,0,0,1,.472-1.512,2.472,2.472,0,0,1,1.688-.472l-.032-.048q-.112-.16-.264-.344t-.3-.376a.7.7,0,0,1-.128-.616.781.781,0,0,1,.384-.52.922.922,0,0,1,.656-.1.88.88,0,0,1,.544.36l.256.368q.144.208.256.384a.757.757,0,0,1,.112.456.725.725,0,0,1-.16.424h.96v-1.424a.769.769,0,0,1,.264-.632.966.966,0,0,1,.632-.216.966.966,0,0,1,.632.216.769.769,0,0,1,.264.632v1.424h.9a.815.815,0,0,1-.152-.4.729.729,0,0,1,.088-.432l.232-.4q.12-.208.216-.384a.843.843,0,0,1,.528-.424.91.91,0,0,1,.672.088.773.773,0,0,1,.416.5.726.726,0,0,1-.08.616q-.128.224-.256.408t-.256.36a.125.125,0,0,0-.024.032.228.228,0,0,1-.04.048,2.4,2.4,0,0,1,1.64.488,2.058,2.058,0,0,1,.456,1.5v.592a.759.759,0,0,1-.232.584.8.8,0,0,1-.568.216.831.831,0,0,1-.576-.216.746.746,0,0,1-.24-.584v-.56a.927.927,0,0,0-.168-.648,1.052,1.052,0,0,0-.712-.168h-5.6a1.052,1.052,0,0,0-.712.168.958.958,0,0,0-.168.664v.544a.746.746,0,0,1-.24.584A.811.811,0,0,1,24.288-7.968Zm3.344,1.024a2.778,2.778,0,0,1-1.576-.312,1.3,1.3,0,0,1-.408-1.1,1.273,1.273,0,0,1,.408-1.1,2.9,2.9,0,0,1,1.576-.3h2.32a2.852,2.852,0,0,1,1.576.3,1.3,1.3,0,0,1,.392,1.1,1.328,1.328,0,0,1-.392,1.1,2.73,2.73,0,0,1-1.576.312ZM26.64-3.52h4.352v-.528H26.64Zm1.136,1.488h2.08a2.363,2.363,0,0,0,.8-.1.516.516,0,0,0,.3-.416H26.672a.513.513,0,0,0,.312.416A2.372,2.372,0,0,0,27.776-2.032Zm-1.1-2.992H30.96a.516.516,0,0,0-.3-.416,2.363,2.363,0,0,0-.8-.1h-2.08a2.372,2.372,0,0,0-.792.1A.513.513,0,0,0,26.672-5.024Zm1.12-2.992h2a.823.823,0,0,0,.392-.064.3.3,0,0,0,.1-.272.277.277,0,0,0-.1-.256.823.823,0,0,0-.392-.064h-2a.871.871,0,0,0-.408.064.277.277,0,0,0-.1.256.3.3,0,0,0,.1.272A.871.871,0,0,0,27.792-8.016ZM40.16,1.36a1,1,0,0,1-.7-.272.931.931,0,0,1-.3-.72V-7.056a4.979,4.979,0,0,1,.376-2.136A2.2,2.2,0,0,1,40.776-10.3a6.37,6.37,0,0,1,2.28-.336h1.7v-1.9a.925.925,0,0,1,.3-.728,1.012,1.012,0,0,1,.7-.264,1,1,0,0,1,.7.264.938.938,0,0,1,.288.728v1.9h1.712a6.358,6.358,0,0,1,2.288.336A2.206,2.206,0,0,1,51.96-9.192a4.979,4.979,0,0,1,.376,2.136v5.584a2.757,2.757,0,0,1-.672,2.1,3.138,3.138,0,0,1-2.16.616A1.136,1.136,0,0,1,48.76.992,1.006,1.006,0,0,1,48.416.24a.917.917,0,0,1,.28-.712,1.013,1.013,0,0,1,.7-.312,1.551,1.551,0,0,0,.8-.208.925.925,0,0,0,.192-.7v-5.36a2.575,2.575,0,0,0-.176-1.064.974.974,0,0,0-.592-.52,3.719,3.719,0,0,0-1.168-.144h-1.76a8.49,8.49,0,0,1-.112.928,7.3,7.3,0,0,1-.208.864q.528.368,1.192.9T48.856-5q.632.552,1.048.968a.853.853,0,0,1,.288.712,1.074,1.074,0,0,1-.352.712.871.871,0,0,1-.7.264.954.954,0,0,1-.68-.328,11.59,11.59,0,0,0-.816-.864q-.48-.464-1-.928T45.664-5.3A7.732,7.732,0,0,1,44.488-3.68,10.216,10.216,0,0,1,42.9-2.32a1.273,1.273,0,0,1-.792.248.856.856,0,0,1-.712-.392.916.916,0,0,1-.168-.736.964.964,0,0,1,.424-.656A7.252,7.252,0,0,0,43.8-5.936a6.26,6.26,0,0,0,.9-2.848H43.056A3.653,3.653,0,0,0,41.9-8.64a.974.974,0,0,0-.592.52,2.575,2.575,0,0,0-.176,1.064V.368a.958.958,0,0,1-.28.72A.959.959,0,0,1,40.16,1.36Zm23.488-.016a6.054,6.054,0,0,1-1.92-.248A1.77,1.77,0,0,1,60.688.24a3.648,3.648,0,0,1-.32-1.68,3.648,3.648,0,0,1,.32-1.68,1.77,1.77,0,0,1,1.04-.856,6.054,6.054,0,0,1,1.92-.248H65.7a6.054,6.054,0,0,1,1.92.248,1.77,1.77,0,0,1,1.04.856,3.648,3.648,0,0,1,.32,1.68,3.648,3.648,0,0,1-.32,1.68,1.77,1.77,0,0,1-1.04.856,6.054,6.054,0,0,1-1.92.248Zm-5.1-9.536a.928.928,0,0,1-.648-.24.842.842,0,0,1-.264-.656V-9.6a2.238,2.238,0,0,1,.6-1.768,3.157,3.157,0,0,1,2.056-.52H63.6v-.944a.853.853,0,0,1,.3-.7,1.072,1.072,0,0,1,.7-.24,1.1,1.1,0,0,1,.712.24.853.853,0,0,1,.3.7v.944h3.424a3.157,3.157,0,0,1,2.056.52,2.238,2.238,0,0,1,.6,1.768v.512a.83.83,0,0,1-.272.656.957.957,0,0,1-.656.24,1,1,0,0,1-.656-.224.782.782,0,0,1-.272-.64v-.432a.82.82,0,0,0-.216-.64,1.25,1.25,0,0,0-.808-.192H60.512a1.286,1.286,0,0,0-.816.192.8.8,0,0,0-.224.64v.432a.782.782,0,0,1-.272.64A1,1,0,0,1,58.544-8.192Zm-.016,6.016a1.108,1.108,0,0,1-.784.144.913.913,0,0,1-.608-.448.8.8,0,0,1-.08-.7,1.042,1.042,0,0,1,.528-.544q.912-.464,1.872-1.08t1.88-1.3q.92-.68,1.672-1.336a2.327,2.327,0,0,1,1.544-.688,2.509,2.509,0,0,1,1.56.624q.736.576,1.656,1.2T69.7-5.1q1.008.576,1.968,1.04a1.055,1.055,0,0,1,.528.536.805.805,0,0,1-.048.744.992.992,0,0,1-.632.52,1.134,1.134,0,0,1-.856-.1q-.9-.5-1.872-1.1T66.9-4.728Q66-5.376,65.28-5.984a1.026,1.026,0,0,0-.664-.312,1.118,1.118,0,0,0-.664.328q-.72.608-1.624,1.288t-1.88,1.328Q59.472-2.7,58.528-2.176Zm5.12,1.824H65.7a1.9,1.9,0,0,0,1.128-.224,1.106,1.106,0,0,0,.264-.864,1.1,1.1,0,0,0-.264-.872A1.959,1.959,0,0,0,65.7-2.528H63.648a2,2,0,0,0-1.144.216,1.1,1.1,0,0,0-.264.872,1.106,1.106,0,0,0,.264.864A1.94,1.94,0,0,0,63.648-.352Zm-3.408-6.1a1.263,1.263,0,0,1-.744.208.85.85,0,0,1-.664-.384.833.833,0,0,1-.136-.632.8.8,0,0,1,.376-.568q.656-.416,1.352-.96a15.051,15.051,0,0,0,1.192-1.024.861.861,0,0,1,.648-.288.885.885,0,0,1,.648.272.748.748,0,0,1,.256.6.942.942,0,0,1-.272.616A15.166,15.166,0,0,1,61.64-7.456,13.921,13.921,0,0,1,60.24-6.448Zm8.688-.176q-.4-.256-.912-.592t-1-.7q-.488-.36-.84-.648a.819.819,0,0,1-.312-.592.776.776,0,0,1,.216-.608.793.793,0,0,1,.584-.3.868.868,0,0,1,.632.2q.368.288.848.616t.968.624q.488.3.9.5a.7.7,0,0,1,.392.512.956.956,0,0,1-.1.672.843.843,0,0,1-.608.44A1.116,1.116,0,0,1,68.928-6.624ZM83.52-4.32a1.7,1.7,0,0,1-1.248-.512A1.7,1.7,0,0,1,81.76-6.08a1.7,1.7,0,0,1,.512-1.248A1.7,1.7,0,0,1,83.52-7.84a1.7,1.7,0,0,1,1.248.512A1.7,1.7,0,0,1,85.28-6.08a1.7,1.7,0,0,1-.512,1.248A1.7,1.7,0,0,1,83.52-4.32Zm15.408,5.7a.9.9,0,0,1-.616-.232.8.8,0,0,1-.264-.632V-4.016q-.4.592-.824,1.152a10.767,10.767,0,0,1-.792.944.967.967,0,0,1-.616.288.785.785,0,0,1-.632-.224.789.789,0,0,1-.264-.576.758.758,0,0,1,.232-.576A11.3,11.3,0,0,0,96.04-4.04q.5-.648.992-1.344t.808-1.24H95.9a.786.786,0,0,1-.576-.24.8.8,0,0,1-.24-.592.786.786,0,0,1,.24-.576.786.786,0,0,1,.576-.24h2.144v-4.336a.823.823,0,0,1,.264-.64.887.887,0,0,1,.616-.24.851.851,0,0,1,.616.24.85.85,0,0,1,.248.64v4.336h1.728a.786.786,0,0,1,.576.24.786.786,0,0,1,.24.576.8.8,0,0,1-.24.592.786.786,0,0,1-.576.24H99.792v.1l.688.728q.4.424.8.816t.64.6a.885.885,0,0,1,.256.48.758.758,0,0,1,.4-.144q.752-.112,1.768-.3t2.04-.392v-7.856a.842.842,0,0,1,.264-.656.907.907,0,0,1,.632-.24.936.936,0,0,1,.64.24.83.83,0,0,1,.272.656v7.5l.512-.12.448-.1a.844.844,0,0,1,.664.112.79.79,0,0,1,.36.544.97.97,0,0,1-.1.656.75.75,0,0,1-.528.368q-.3.064-.648.144t-.712.16V.48a.836.836,0,0,1-.272.648.919.919,0,0,1-.64.248.891.891,0,0,1-.632-.248.848.848,0,0,1-.264-.648V-2.944q-.928.192-1.856.36t-1.68.3a.96.96,0,0,1-.7-.136.791.791,0,0,1-.352-.6l-.016-.048a.7.7,0,0,1-.5.128.8.8,0,0,1-.488-.24q-.192-.176-.456-.464t-.536-.608V.512a.823.823,0,0,1-.248.632A.867.867,0,0,1,98.928,1.376Zm5.856-10.544q-.144-.144-.416-.368t-.544-.456q-.272-.232-.448-.36a.773.773,0,0,1-.272-.568.821.821,0,0,1,.208-.6.91.91,0,0,1,.584-.3.9.9,0,0,1,.632.192q.176.128.456.352t.568.448a4.95,4.95,0,0,1,.448.384.767.767,0,0,1,.272.6.894.894,0,0,1-.256.632.891.891,0,0,1-.608.272A.854.854,0,0,1,104.784-9.168Zm-.4,3.456q-.16-.144-.432-.36l-.552-.44q-.28-.224-.456-.352a.712.712,0,0,1-.288-.56.868.868,0,0,1,.192-.608.89.89,0,0,1,.576-.312.877.877,0,0,1,.64.184q.176.128.464.344l.576.432q.288.216.448.36a.819.819,0,0,1,.288.6.887.887,0,0,1-.24.648.865.865,0,0,1-.592.28A.825.825,0,0,1,104.384-5.712Zm-3.712-3.056a.759.759,0,0,1-.424-.408.682.682,0,0,1,.008-.568q.112-.224.256-.592t.288-.728q.144-.36.208-.584a.806.806,0,0,1,.432-.472.778.778,0,0,1,.608-.024.853.853,0,0,1,.456.368.685.685,0,0,1,.024.608q-.08.256-.232.64t-.3.752q-.152.368-.264.608a.766.766,0,0,1-.432.392A.868.868,0,0,1,100.672-8.768Zm-3.536-.048a.875.875,0,0,1-.624.024.7.7,0,0,1-.416-.456q-.064-.224-.2-.568t-.28-.7q-.144-.352-.24-.56a.739.739,0,0,1,.016-.584.731.731,0,0,1,.432-.392.817.817,0,0,1,.624-.008.754.754,0,0,1,.416.44q.1.192.248.552t.3.72q.144.36.208.568A.64.64,0,0,1,97.6-9.2.885.885,0,0,1,97.136-8.816ZM115.152.752a.791.791,0,0,1-.608-.24.815.815,0,0,1-.224-.576.835.835,0,0,1,.224-.592.791.791,0,0,1,.608-.24H117.9a.413.413,0,0,1-.088-.08,1.127,1.127,0,0,1-.072-.1q-.128-.208-.344-.52t-.44-.608q-.224-.3-.352-.456a.814.814,0,0,1-.184-.632.794.794,0,0,1,.312-.568,1,1,0,0,1,.7-.208.907.907,0,0,1,.64.336q.128.16.36.472l.456.616q.224.3.336.48a.858.858,0,0,1,.168.664.949.949,0,0,1-.344.6h1.216V-4.1h-4.128a.785.785,0,0,1-.624-.256.893.893,0,0,1-.224-.608.864.864,0,0,1,.224-.6.8.8,0,0,1,.624-.248h4.128V-7.072H118.32a.791.791,0,0,1-.608-.24.835.835,0,0,1-.224-.592.854.854,0,0,1,.176-.544q-.672.48-1.336.92t-1.24.776a1.153,1.153,0,0,1-.792.128.933.933,0,0,1-.632-.432.868.868,0,0,1-.1-.744.909.909,0,0,1,.456-.552q.736-.384,1.552-.912t1.616-1.136q.8-.608,1.5-1.216t1.208-1.152a2.036,2.036,0,0,1,1.392-.7,1.807,1.807,0,0,1,1.36.6,16.373,16.373,0,0,0,1.24,1.1q.728.592,1.544,1.184t1.616,1.088q.8.5,1.456.816a.933.933,0,0,1,.5.624.985.985,0,0,1-.1.816,1.1,1.1,0,0,1-.688.5,1.12,1.12,0,0,1-.848-.136q-.608-.352-1.368-.856t-1.536-1.088q-.776-.584-1.464-1.168a12.324,12.324,0,0,1-1.152-1.1.588.588,0,0,0-.976-.016A16.051,16.051,0,0,1,119.6-9.936q-.752.624-1.6,1.248a.712.712,0,0,1,.32-.064h5.872a.8.8,0,0,1,.616.248.847.847,0,0,1,.232.6.819.819,0,0,1-.232.592.817.817,0,0,1-.616.24h-1.9v1.264h4.08a.8.8,0,0,1,.616.248.847.847,0,0,1,.232.6.875.875,0,0,1-.232.608.791.791,0,0,1-.616.256h-4.08V-.9h1.168a.91.91,0,0,1-.288-.544.789.789,0,0,1,.144-.592q.112-.16.3-.472T124-3.136l.288-.48a.878.878,0,0,1,.56-.432.951.951,0,0,1,.7.08.823.823,0,0,1,.432.544.9.9,0,0,1-.08.688l-.3.52q-.192.328-.384.64t-.32.488a.4.4,0,0,1-.072.1l-.088.088h2.544a.791.791,0,0,1,.608.24.835.835,0,0,1,.224.592.814.814,0,0,1-.224.576.791.791,0,0,1-.608.24Zm19.584.624a1.077,1.077,0,0,1-.752-.136.885.885,0,0,1-.4-.616.8.8,0,0,1,.176-.688A1.042,1.042,0,0,1,134.4-.4q.432-.08.984-.192t1.176-.224V-2.672q-.624.336-1.256.616t-1.24.5a1.161,1.161,0,0,1-.8.032.871.871,0,0,1-.5-.512.845.845,0,0,1,.016-.664.952.952,0,0,1,.608-.488,17.415,17.415,0,0,0,2.664-1.144,12.462,12.462,0,0,0,2.168-1.448H133.44A.741.741,0,0,1,132.9-6a.741.741,0,0,1-.224-.544.741.741,0,0,1,.224-.544.741.741,0,0,1,.544-.224h5.744v-.864h-3.92a.722.722,0,0,1-.528-.224.722.722,0,0,1-.224-.528.7.7,0,0,1,.224-.52.736.736,0,0,1,.528-.216h3.92V-10.5H134a.722.722,0,0,1-.528-.224.722.722,0,0,1-.224-.528.715.715,0,0,1,.224-.536A.736.736,0,0,1,134-12h5.184v-.56a.919.919,0,0,1,.288-.712.983.983,0,0,1,.688-.264.975.975,0,0,1,.7.264.932.932,0,0,1,.28.712V-12h5.136a.728.728,0,0,1,.536.216.728.728,0,0,1,.216.536.736.736,0,0,1-.216.528.715.715,0,0,1-.536.224h-5.136v.832h3.92a.7.7,0,0,1,.528.216.723.723,0,0,1,.208.52.75.75,0,0,1-.208.528.689.689,0,0,1-.528.224h-3.92v.864H146.8a.741.741,0,0,1,.544.224.741.741,0,0,1,.224.544.741.741,0,0,1-.224.544.741.741,0,0,1-.544.224h-5.376q.3.544.648,1.048t.712.952q.384-.24.84-.544t.864-.592q.408-.288.632-.464a1,1,0,0,1,.68-.232.732.732,0,0,1,.616.328.933.933,0,0,1,.192.656.8.8,0,0,1-.32.576q-.384.288-1.048.712t-1.272.776a11.5,11.5,0,0,0,1.4,1.08,16.528,16.528,0,0,0,1.56.9.888.888,0,0,1,.448.52.879.879,0,0,1-.064.728.868.868,0,0,1-.64.48,1.26,1.26,0,0,1-.832-.128,14.284,14.284,0,0,1-3.472-2.6,12.408,12.408,0,0,1-2.448-3.512,16.117,16.117,0,0,1-1.488,1.248V-1.2q.672-.128,1.272-.264t1.032-.248a1.04,1.04,0,0,1,.7.048.692.692,0,0,1,.384.512.764.764,0,0,1-.1.7,1.042,1.042,0,0,1-.576.36q-.592.16-1.392.36t-1.688.408q-.888.208-1.752.384Zm29.824-3.2q-.784-.576-1.736-1.336T160.9-4.752q-.968-.832-1.816-1.632a4.163,4.163,0,0,0-.984-.744.973.973,0,0,0-.8-.024,4.7,4.7,0,0,0-1.064.672q-.768.592-1.488,1.12t-1.376.944a.941.941,0,0,1-.728.12.971.971,0,0,1-.616-.424,1.012,1.012,0,0,1-.136-.736.862.862,0,0,1,.408-.608q.608-.368,1.392-.9t1.52-1.08a5.857,5.857,0,0,1,1.776-.976,2.409,2.409,0,0,1,1.584.056,5.414,5.414,0,0,1,1.7,1.144q.8.752,1.792,1.568t1.96,1.552q.968.736,1.7,1.264a.914.914,0,0,1,.384.64.94.94,0,0,1-.176.736,1.028,1.028,0,0,1-.648.4A.879.879,0,0,1,164.56-1.824Z" transform="translate(17 19)"/><g class="d" transform="translate(0 7)"><circle class="e" cx="5.5" cy="5.5" r="5.5"/><circle class="f" cx="5.5" cy="5.5" r="4"/></g></g></svg>