<svg xmlns="http://www.w3.org/2000/svg" width="664.785" height="86.287" viewBox="0 0 664.785 86.287"><g transform="translate(-1073 -6776)"><path d="M43.143,0h578.5a43.143,43.143,0,0,1,0,86.287H43.143A43.143,43.143,0,0,1,43.143,0Z" transform="translate(1073 6776)" fill="#ffd86e"/><path d="M13.5,23.225a1,1,0,0,1-.707-1.707L18.7,15.612,12.793,9.707a1,1,0,0,1,1.414-1.414l6.612,6.612a1,1,0,0,1,0,1.414l-6.612,6.612A1,1,0,0,1,13.5,23.225Z" transform="translate(1688.625 6804)" fill="#ed8934"/><path d="M8.658,1.548A.939.939,0,0,1,7.992,1.3.868.868,0,0,1,7.722.63V-7.254q0-.234.009-.423t.027-.369q-.162.216-.351.441t-.3.369a.806.806,0,0,1-.54.288.762.762,0,0,1-.576-.162.8.8,0,0,1-.306-.513.691.691,0,0,1,.144-.567q.162-.18.441-.531T6.7-9.27a.856.856,0,0,1,.513-.342.737.737,0,0,1,.6.126.719.719,0,0,1,.288.36,1.545,1.545,0,0,1,.918-.639,6.213,6.213,0,0,1,1.62-.171h.63v-1.116H8.136a.832.832,0,0,1-.639-.261.88.88,0,0,1-.243-.621.912.912,0,0,1,.243-.63.819.819,0,0,1,.639-.27h3.132v-1.548a.876.876,0,0,1,.279-.684.971.971,0,0,1,.675-.252.939.939,0,0,1,.666.252.89.89,0,0,1,.27.684v1.548h1.836q-.2-.18-.5-.432t-.477-.378a.658.658,0,0,1-.243-.5.774.774,0,0,1,.189-.54.772.772,0,0,1,.54-.279.855.855,0,0,1,.594.171q.2.144.54.441t.522.441a.693.693,0,0,1,.261.522.8.8,0,0,1-.207.558h.234a.812.812,0,0,1,.648.27.932.932,0,0,1,.234.63.9.9,0,0,1-.234.621.826.826,0,0,1-.648.261H13.158v1.116h.63a5.537,5.537,0,0,1,1.773.225,1.473,1.473,0,0,1,.9.81,4.156,4.156,0,0,1,.261,1.647v6.39a2.437,2.437,0,0,1-.5,1.728,2.2,2.2,0,0,1-1.566.558A1.03,1.03,0,0,1,13.9,1.2.94.94,0,0,1,13.59.558a.823.823,0,0,1,.7-.99.809.809,0,0,0,.468-.207.747.747,0,0,0,.108-.459V-2.61h-1.71V.306a.92.92,0,0,1-.27.693.921.921,0,0,1-.666.261A.952.952,0,0,1,11.547,1a.9.9,0,0,1-.279-.693V-2.61H9.576V.63a.868.868,0,0,1-.27.666A.916.916,0,0,1,8.658,1.548ZM3.942,1.53a.952.952,0,0,1-.675-.261A.9.9,0,0,1,2.988.576v-5.85q-.252.27-.522.54l-.522.522a1.016,1.016,0,0,1-.72.288A1.016,1.016,0,0,1,.5-4.212.933.933,0,0,1,.243-4.9a.849.849,0,0,1,.3-.648A17.1,17.1,0,0,0,1.854-6.813Q2.52-7.524,3.1-8.262a10.824,10.824,0,0,0,.918-1.35q.2-.36.117-.513t-.459-.153H1.4a.832.832,0,0,1-.639-.261.88.88,0,0,1-.243-.621.912.912,0,0,1,.243-.63.819.819,0,0,1,.639-.27H2.952v-2.286a.884.884,0,0,1,.288-.7,1,1,0,0,1,.684-.252.971.971,0,0,1,.675.252.9.9,0,0,1,.279.7v2.286h.378a1.409,1.409,0,0,1,.918.279,1.174,1.174,0,0,1,.423.72,1.491,1.491,0,0,1-.171.945q-.342.63-.72,1.251T4.9-7.632q.306.216.729.522t.828.594l.657.468a.772.772,0,0,1,.342.576.857.857,0,0,1-.2.648.9.9,0,0,1-.6.351.866.866,0,0,1-.693-.171L5.5-5.013q-.279-.225-.585-.459V.576a.9.9,0,0,1-.279.693A.976.976,0,0,1,3.942,1.53Zm9.216-5.706h1.71v-1.26h-1.71Zm-3.582,0h1.692v-1.26H9.576ZM13.158-7h1.71v-.126a2.351,2.351,0,0,0-.081-.729.468.468,0,0,0-.342-.3,3.262,3.262,0,0,0-.8-.072h-.486ZM9.576-7h1.692V-8.226h-.5a3.048,3.048,0,0,0-.774.072.465.465,0,0,0-.333.3,2.351,2.351,0,0,0-.081.729Zm18.5,8.424a1.345,1.345,0,0,1-.882.054.865.865,0,0,1-.522-.5.928.928,0,0,1,.018-.738.894.894,0,0,1,.63-.486q.558-.144,1.251-.4t1.251-.5a2.12,2.12,0,0,1-1.449-.711,2.8,2.8,0,0,1-.4-1.665v-1.44a3.238,3.238,0,0,1,.279-1.485,1.582,1.582,0,0,1,.954-.756,6.039,6.039,0,0,1,1.845-.225h2.736a6.039,6.039,0,0,1,1.845.225,1.582,1.582,0,0,1,.954.756,3.238,3.238,0,0,1,.279,1.485v1.44a2.839,2.839,0,0,1-.4,1.683,2.084,2.084,0,0,1-1.467.693q.576.252,1.251.5a12.476,12.476,0,0,0,1.233.4.894.894,0,0,1,.63.486.928.928,0,0,1,.018.738.867.867,0,0,1-.513.5,1.32,1.32,0,0,1-.873-.054q-.828-.288-1.692-.657T33.552.054a.774.774,0,0,1-.387-.513.976.976,0,0,1,.081-.621H31.554a.976.976,0,0,1,.081.621.774.774,0,0,1-.387.513q-.63.342-1.476.711T28.08,1.422Zm-3.24.288a.89.89,0,0,1-.666-.279A.935.935,0,0,1,23.9.756V-8.19q-.306.468-.684.954a.97.97,0,0,1-.657.369.979.979,0,0,1-.783-.225.941.941,0,0,1-.306-.612,1.036,1.036,0,0,1,.2-.7,12.632,12.632,0,0,0,.882-1.323q.45-.765.873-1.611T24.192-13q.342-.81.558-1.44a.957.957,0,0,1,.522-.6.99.99,0,0,1,.774-.027.873.873,0,0,1,.558.5,1,1,0,0,1,0,.747q-.162.5-.369,1.035t-.441,1.071V.756a.935.935,0,0,1-.27.675A.911.911,0,0,1,24.84,1.71ZM27.324-8.964a.9.9,0,0,1-.639-.243.854.854,0,0,1-.261-.657v-.666a2.292,2.292,0,0,1,.531-1.7,2.781,2.781,0,0,1,1.9-.531l-.036-.054q-.126-.18-.3-.387t-.333-.423a.792.792,0,0,1-.144-.693.879.879,0,0,1,.432-.585,1.037,1.037,0,0,1,.738-.117.99.99,0,0,1,.612.405l.288.414q.162.234.288.432a.851.851,0,0,1,.126.513.816.816,0,0,1-.18.477h1.08v-1.6a.865.865,0,0,1,.3-.711,1.087,1.087,0,0,1,.711-.243,1.087,1.087,0,0,1,.711.243.865.865,0,0,1,.3.711v1.6h1.008a.917.917,0,0,1-.171-.45.82.82,0,0,1,.1-.486l.261-.45q.135-.234.243-.432a.949.949,0,0,1,.594-.477,1.023,1.023,0,0,1,.756.1.869.869,0,0,1,.468.567.817.817,0,0,1-.09.693q-.144.252-.288.459t-.288.405a.141.141,0,0,0-.027.036.256.256,0,0,1-.045.054,2.7,2.7,0,0,1,1.845.549,2.315,2.315,0,0,1,.513,1.683v.666a.854.854,0,0,1-.261.657.9.9,0,0,1-.639.243.935.935,0,0,1-.648-.243.84.84,0,0,1-.27-.657v-.63a1.043,1.043,0,0,0-.189-.729,1.183,1.183,0,0,0-.8-.189h-6.3a1.183,1.183,0,0,0-.8.189,1.077,1.077,0,0,0-.189.747v.612a.84.84,0,0,1-.27.657A.912.912,0,0,1,27.324-8.964Zm3.762,1.152a3.125,3.125,0,0,1-1.773-.351A1.463,1.463,0,0,1,28.854-9.4a1.432,1.432,0,0,1,.459-1.233,3.264,3.264,0,0,1,1.773-.333H33.7a3.208,3.208,0,0,1,1.773.333A1.463,1.463,0,0,1,35.91-9.4a1.494,1.494,0,0,1-.441,1.233,3.072,3.072,0,0,1-1.773.351ZM29.97-3.96h4.9v-.594h-4.9Zm1.278,1.674h2.34a2.658,2.658,0,0,0,.9-.108.58.58,0,0,0,.342-.468H30.006a.578.578,0,0,0,.351.468A2.669,2.669,0,0,0,31.248-2.286ZM30.006-5.652H34.83a.58.58,0,0,0-.342-.468,2.658,2.658,0,0,0-.9-.108h-2.34a2.669,2.669,0,0,0-.891.108A.578.578,0,0,0,30.006-5.652Zm1.26-3.366h2.25a.926.926,0,0,0,.441-.072.334.334,0,0,0,.117-.306.312.312,0,0,0-.117-.288.926.926,0,0,0-.441-.072h-2.25a.98.98,0,0,0-.459.072.312.312,0,0,0-.117.288.334.334,0,0,0,.117.306A.98.98,0,0,0,31.266-9.018ZM45.18,1.53a1.12,1.12,0,0,1-.783-.306,1.048,1.048,0,0,1-.333-.81V-7.938a5.6,5.6,0,0,1,.423-2.4,2.48,2.48,0,0,1,1.386-1.251,7.166,7.166,0,0,1,2.565-.378h1.908v-2.142a1.041,1.041,0,0,1,.333-.819,1.138,1.138,0,0,1,.783-.3,1.129,1.129,0,0,1,.792.3,1.056,1.056,0,0,1,.324.819v2.142H54.5a7.152,7.152,0,0,1,2.574.378,2.482,2.482,0,0,1,1.377,1.251,5.6,5.6,0,0,1,.423,2.4v6.282A3.1,3.1,0,0,1,58.122.711a3.531,3.531,0,0,1-2.43.693,1.278,1.278,0,0,1-.837-.288A1.131,1.131,0,0,1,54.468.27a1.032,1.032,0,0,1,.315-.8,1.14,1.14,0,0,1,.783-.351,1.744,1.744,0,0,0,.9-.234,1.04,1.04,0,0,0,.216-.792v-6.03a2.9,2.9,0,0,0-.2-1.2,1.1,1.1,0,0,0-.666-.585A4.184,4.184,0,0,0,54.5-9.882h-1.98A9.551,9.551,0,0,1,52.4-8.838a8.21,8.21,0,0,1-.234.972q.594.414,1.341,1.017t1.458,1.224q.711.621,1.179,1.089a.959.959,0,0,1,.324.8,1.209,1.209,0,0,1-.4.8.979.979,0,0,1-.783.3,1.074,1.074,0,0,1-.765-.369,13.039,13.039,0,0,0-.918-.972q-.54-.522-1.125-1.044t-1.107-.936A8.7,8.7,0,0,1,50.049-4.14a11.493,11.493,0,0,1-1.791,1.53,1.432,1.432,0,0,1-.891.279.963.963,0,0,1-.8-.441,1.03,1.03,0,0,1-.189-.828,1.084,1.084,0,0,1,.477-.738,8.158,8.158,0,0,0,2.421-2.34,7.043,7.043,0,0,0,1.017-3.2H48.438a4.11,4.11,0,0,0-1.3.162,1.1,1.1,0,0,0-.666.585,2.9,2.9,0,0,0-.2,1.2V.414a1.078,1.078,0,0,1-.315.81A1.079,1.079,0,0,1,45.18,1.53ZM71.6,1.512a6.811,6.811,0,0,1-2.16-.279A1.991,1.991,0,0,1,68.274.27a4.1,4.1,0,0,1-.36-1.89,4.1,4.1,0,0,1,.36-1.89,1.991,1.991,0,0,1,1.17-.963,6.811,6.811,0,0,1,2.16-.279h2.3a6.811,6.811,0,0,1,2.16.279,1.991,1.991,0,0,1,1.17.963,4.1,4.1,0,0,1,.36,1.89,4.1,4.1,0,0,1-.36,1.89,1.991,1.991,0,0,1-1.17.963,6.811,6.811,0,0,1-2.16.279ZM65.862-9.216a1.044,1.044,0,0,1-.729-.27.947.947,0,0,1-.3-.738V-10.8a2.518,2.518,0,0,1,.675-1.989,3.552,3.552,0,0,1,2.313-.585H71.55v-1.062a.96.96,0,0,1,.333-.792,1.206,1.206,0,0,1,.783-.27,1.232,1.232,0,0,1,.8.27.96.96,0,0,1,.333.792v1.062h3.852a3.552,3.552,0,0,1,2.313.585A2.518,2.518,0,0,1,80.64-10.8v.576a.934.934,0,0,1-.306.738,1.077,1.077,0,0,1-.738.27,1.123,1.123,0,0,1-.738-.252.88.88,0,0,1-.306-.72v-.486a.923.923,0,0,0-.243-.72,1.406,1.406,0,0,0-.909-.216H68.076a1.447,1.447,0,0,0-.918.216.9.9,0,0,0-.252.72v.486a.88.88,0,0,1-.306.72A1.123,1.123,0,0,1,65.862-9.216Zm-.018,6.768a1.246,1.246,0,0,1-.882.162,1.027,1.027,0,0,1-.684-.5.9.9,0,0,1-.09-.792,1.173,1.173,0,0,1,.594-.612q1.026-.522,2.106-1.215T69-6.867q1.035-.765,1.881-1.5a2.618,2.618,0,0,1,1.737-.774,2.823,2.823,0,0,1,1.755.7q.828.648,1.863,1.35t2.169,1.35q1.134.648,2.214,1.17a1.187,1.187,0,0,1,.594.6.906.906,0,0,1-.054.837,1.116,1.116,0,0,1-.711.585,1.275,1.275,0,0,1-.963-.117q-1.008-.558-2.106-1.242T75.267-5.319Q74.25-6.048,73.44-6.732a1.154,1.154,0,0,0-.747-.351,1.258,1.258,0,0,0-.747.369q-.81.684-1.827,1.449T68-3.771Q66.906-3.042,65.844-2.448ZM71.6-.4h2.3a2.139,2.139,0,0,0,1.269-.252,1.245,1.245,0,0,0,.3-.972,1.242,1.242,0,0,0-.3-.981,2.2,2.2,0,0,0-1.269-.243H71.6a2.249,2.249,0,0,0-1.287.243,1.242,1.242,0,0,0-.3.981,1.245,1.245,0,0,0,.3.972A2.182,2.182,0,0,0,71.6-.4ZM67.77-7.254a1.421,1.421,0,0,1-.837.234.957.957,0,0,1-.747-.432.937.937,0,0,1-.153-.711.9.9,0,0,1,.423-.639q.738-.468,1.521-1.08a16.934,16.934,0,0,0,1.341-1.152.969.969,0,0,1,.729-.324,1,1,0,0,1,.729.306.841.841,0,0,1,.288.675,1.06,1.06,0,0,1-.306.693,17.062,17.062,0,0,1-1.413,1.3A15.662,15.662,0,0,1,67.77-7.254Zm9.774-.2q-.45-.288-1.026-.666T75.393-8.9q-.549-.405-.945-.729A.921.921,0,0,1,74.1-10.3a.873.873,0,0,1,.243-.684A.893.893,0,0,1,75-11.313a.977.977,0,0,1,.711.225q.414.324.954.693t1.089.7q.549.333,1.017.567a.79.79,0,0,1,.441.576,1.076,1.076,0,0,1-.117.756.949.949,0,0,1-.684.5A1.256,1.256,0,0,1,77.544-7.452ZM93.96-4.86a1.911,1.911,0,0,1-1.4-.576,1.911,1.911,0,0,1-.576-1.4,1.911,1.911,0,0,1,.576-1.4,1.911,1.911,0,0,1,1.4-.576,1.911,1.911,0,0,1,1.4.576,1.911,1.911,0,0,1,.576,1.4,1.911,1.911,0,0,1-.576,1.4A1.911,1.911,0,0,1,93.96-4.86Zm17.334,6.408a1.017,1.017,0,0,1-.693-.261.9.9,0,0,1-.3-.711V-4.518q-.45.666-.927,1.3a12.116,12.116,0,0,1-.891,1.062,1.088,1.088,0,0,1-.693.324.883.883,0,0,1-.711-.252.888.888,0,0,1-.3-.648.853.853,0,0,1,.261-.648,12.712,12.712,0,0,0,1-1.161q.567-.729,1.116-1.512t.909-1.4h-2.178a.884.884,0,0,1-.648-.27.9.9,0,0,1-.27-.666.884.884,0,0,1,.27-.648.884.884,0,0,1,.648-.27H110.3v-4.878a.926.926,0,0,1,.3-.72,1,1,0,0,1,.693-.27.957.957,0,0,1,.693.27.956.956,0,0,1,.279.72v4.878h1.944a.884.884,0,0,1,.648.27.884.884,0,0,1,.27.648.9.9,0,0,1-.27.666.884.884,0,0,1-.648.27h-1.944v.108l.774.819q.45.477.9.918t.72.675a1,1,0,0,1,.288.54.853.853,0,0,1,.45-.162q.846-.126,1.989-.333t2.3-.441v-8.838a.947.947,0,0,1,.3-.738,1.021,1.021,0,0,1,.711-.27,1.053,1.053,0,0,1,.72.27.934.934,0,0,1,.306.738v8.442l.576-.135.5-.117a.949.949,0,0,1,.747.126.889.889,0,0,1,.4.612,1.092,1.092,0,0,1-.108.738.844.844,0,0,1-.594.414q-.342.072-.729.162t-.8.18V.54a.94.94,0,0,1-.306.729,1.034,1.034,0,0,1-.72.279,1,1,0,0,1-.711-.279.954.954,0,0,1-.3-.729V-3.312q-1.044.216-2.088.4t-1.89.333a1.081,1.081,0,0,1-.792-.153.89.89,0,0,1-.4-.675l-.018-.054a.789.789,0,0,1-.567.144.9.9,0,0,1-.549-.27q-.216-.2-.513-.522t-.6-.684V.576a.926.926,0,0,1-.279.711A.976.976,0,0,1,111.294,1.548Zm6.588-11.862q-.162-.162-.468-.414t-.612-.513q-.306-.261-.5-.405a.869.869,0,0,1-.306-.639.923.923,0,0,1,.234-.675,1.024,1.024,0,0,1,.657-.342,1.008,1.008,0,0,1,.711.216q.2.144.513.4t.639.5a5.569,5.569,0,0,1,.5.432.863.863,0,0,1,.306.675,1,1,0,0,1-.288.711,1,1,0,0,1-.684.306A.96.96,0,0,1,117.882-10.314Zm-.45,3.888q-.18-.162-.486-.405l-.621-.5q-.315-.252-.513-.4a.8.8,0,0,1-.324-.63.977.977,0,0,1,.216-.684,1,1,0,0,1,.648-.351.986.986,0,0,1,.72.207q.2.144.522.387l.648.486q.324.243.5.4a.921.921,0,0,1,.324.675,1,1,0,0,1-.27.729.973.973,0,0,1-.666.315A.929.929,0,0,1,117.432-6.426Zm-4.176-3.438a.854.854,0,0,1-.477-.459.767.767,0,0,1,.009-.639q.126-.252.288-.666t.324-.819q.162-.4.234-.657a.906.906,0,0,1,.486-.531.875.875,0,0,1,.684-.027.959.959,0,0,1,.513.414.771.771,0,0,1,.027.684q-.09.288-.261.72t-.342.846q-.171.414-.3.684a.861.861,0,0,1-.486.441A.976.976,0,0,1,113.256-9.864Zm-3.978-.054a.984.984,0,0,1-.7.027.789.789,0,0,1-.468-.513q-.072-.252-.225-.639t-.315-.783q-.162-.4-.27-.63a.832.832,0,0,1,.018-.657.823.823,0,0,1,.486-.441.919.919,0,0,1,.7-.009.848.848,0,0,1,.468.495q.108.216.279.621t.333.81q.162.4.234.639a.719.719,0,0,1-.018.648A1,1,0,0,1,109.278-9.918ZM129.546.846a.89.89,0,0,1-.684-.27.916.916,0,0,1-.252-.648.939.939,0,0,1,.252-.666.89.89,0,0,1,.684-.27h3.1a.464.464,0,0,1-.1-.09,1.267,1.267,0,0,1-.081-.108q-.144-.234-.387-.585t-.495-.684q-.252-.333-.4-.513a.916.916,0,0,1-.207-.711.893.893,0,0,1,.351-.639,1.126,1.126,0,0,1,.792-.234,1.021,1.021,0,0,1,.72.378q.144.18.4.531t.513.693q.252.342.378.54a.965.965,0,0,1,.189.747,1.068,1.068,0,0,1-.387.675h1.368v-3.6h-4.644a.884.884,0,0,1-.7-.288,1,1,0,0,1-.252-.684.971.971,0,0,1,.252-.675.9.9,0,0,1,.7-.279h4.644V-7.956h-2.2a.89.89,0,0,1-.684-.27.939.939,0,0,1-.252-.666.96.96,0,0,1,.2-.612q-.756.54-1.5,1.035t-1.4.873a1.3,1.3,0,0,1-.891.144,1.05,1.05,0,0,1-.711-.486.976.976,0,0,1-.117-.837,1.022,1.022,0,0,1,.513-.621q.828-.432,1.746-1.026t1.818-1.278q.9-.684,1.683-1.368t1.359-1.3a2.29,2.29,0,0,1,1.566-.783,2.033,2.033,0,0,1,1.53.675,18.418,18.418,0,0,0,1.4,1.242q.819.666,1.737,1.332t1.818,1.224q.9.558,1.638.918a1.05,1.05,0,0,1,.558.7,1.108,1.108,0,0,1-.108.918,1.241,1.241,0,0,1-.774.567,1.26,1.26,0,0,1-.954-.153q-.684-.4-1.539-.963t-1.728-1.224q-.873-.657-1.647-1.314a13.866,13.866,0,0,1-1.3-1.233.662.662,0,0,0-1.1-.018,18.06,18.06,0,0,1-1.422,1.3q-.846.7-1.8,1.4a.8.8,0,0,1,.36-.072h6.606a.9.9,0,0,1,.693.279.952.952,0,0,1,.261.675.921.921,0,0,1-.261.666.92.92,0,0,1-.693.27h-2.142v1.422h4.59a.9.9,0,0,1,.693.279.952.952,0,0,1,.261.675.984.984,0,0,1-.261.684.89.89,0,0,1-.693.288h-4.59v3.6h1.314a1.023,1.023,0,0,1-.324-.612.888.888,0,0,1,.162-.666q.126-.18.342-.531t.432-.711l.324-.54a.988.988,0,0,1,.63-.486,1.07,1.07,0,0,1,.792.09.926.926,0,0,1,.486.612,1.017,1.017,0,0,1-.09.774l-.342.585q-.216.369-.432.72t-.36.549a.446.446,0,0,1-.081.117l-.1.1h2.862a.89.89,0,0,1,.684.27.939.939,0,0,1,.252.666.916.916,0,0,1-.252.648.89.89,0,0,1-.684.27Zm22.032.7a1.212,1.212,0,0,1-.846-.153,1,1,0,0,1-.45-.693.9.9,0,0,1,.2-.774,1.172,1.172,0,0,1,.72-.378q.486-.09,1.107-.216t1.323-.252V-3.006q-.7.378-1.413.693t-1.4.567a1.306,1.306,0,0,1-.9.036.98.98,0,0,1-.558-.576.95.95,0,0,1,.018-.747,1.07,1.07,0,0,1,.684-.549,19.592,19.592,0,0,0,3-1.287A14.02,14.02,0,0,0,155.5-6.5H150.12a.833.833,0,0,1-.612-.252.833.833,0,0,1-.252-.612.833.833,0,0,1,.252-.612.833.833,0,0,1,.612-.252h6.462V-9.2h-4.41a.813.813,0,0,1-.594-.252.813.813,0,0,1-.252-.594.783.783,0,0,1,.252-.585.828.828,0,0,1,.594-.243h4.41v-.936H150.75a.813.813,0,0,1-.594-.252.813.813,0,0,1-.252-.594.8.8,0,0,1,.252-.6.828.828,0,0,1,.594-.243h5.832v-.63a1.033,1.033,0,0,1,.324-.8,1.106,1.106,0,0,1,.774-.3,1.1,1.1,0,0,1,.783.3,1.048,1.048,0,0,1,.315.8v.63h5.778a.819.819,0,0,1,.6.243.819.819,0,0,1,.243.6.828.828,0,0,1-.243.594.8.8,0,0,1-.6.252h-5.778v.936h4.41a.789.789,0,0,1,.594.243.813.813,0,0,1,.234.585.844.844,0,0,1-.234.594.775.775,0,0,1-.594.252h-4.41v.972h6.372a.833.833,0,0,1,.612.252.833.833,0,0,1,.252.612.833.833,0,0,1-.252.612.833.833,0,0,1-.612.252H159.1q.342.612.729,1.179t.8,1.071q.432-.27.945-.612t.972-.666q.459-.324.711-.522a1.12,1.12,0,0,1,.765-.261.823.823,0,0,1,.693.369,1.05,1.05,0,0,1,.216.738.894.894,0,0,1-.36.648q-.432.324-1.179.8t-1.431.873a12.941,12.941,0,0,0,1.575,1.215,18.6,18.6,0,0,0,1.755,1.017,1,1,0,0,1,.5.585.989.989,0,0,1-.072.819.977.977,0,0,1-.72.54,1.417,1.417,0,0,1-.936-.144,16.069,16.069,0,0,1-3.906-2.925,13.96,13.96,0,0,1-2.754-3.951,18.131,18.131,0,0,1-1.674,1.4v2.97q.756-.144,1.431-.3t1.161-.279a1.17,1.17,0,0,1,.792.054.778.778,0,0,1,.432.576.859.859,0,0,1-.108.783,1.173,1.173,0,0,1-.648.405q-.666.18-1.566.4t-1.9.459q-1,.234-1.971.432T151.578,1.548Zm33.552-3.6q-.882-.648-1.953-1.5t-2.16-1.791q-1.089-.936-2.043-1.836a4.684,4.684,0,0,0-1.107-.837,1.1,1.1,0,0,0-.9-.027,5.282,5.282,0,0,0-1.2.756q-.864.666-1.674,1.26t-1.548,1.062a1.059,1.059,0,0,1-.819.135,1.092,1.092,0,0,1-.693-.477,1.138,1.138,0,0,1-.153-.828.97.97,0,0,1,.459-.684q.684-.414,1.566-1.017t1.71-1.215a6.59,6.59,0,0,1,2-1.1,2.711,2.711,0,0,1,1.782.063A6.091,6.091,0,0,1,180.306-8.8q.9.846,2.016,1.764t2.205,1.746q1.089.828,1.917,1.422a1.029,1.029,0,0,1,.432.72,1.057,1.057,0,0,1-.2.828,1.156,1.156,0,0,1-.729.45A.989.989,0,0,1,185.13-2.052Z" transform="translate(1156 6827)" fill="#fff" opacity="0.999"/><path d="M6.5,4A2.5,2.5,0,1,0,9,6.5,2.5,2.5,0,0,0,6.5,4m0-4A6.5,6.5,0,1,1,0,6.5,6.5,6.5,0,0,1,6.5,0Z" transform="translate(1133 6813)" fill="#ed8934"/></g></svg>