<svg xmlns="http://www.w3.org/2000/svg" width="295" height="60.097" viewBox="0 0 295 60.097"><g transform="translate(-40 -10813.937)"><path d="M30,0H265a30,30,0,0,1,30,30v.1a30,30,0,0,1-30,30H30a30,30,0,0,1-30-30V30A30,30,0,0,1,30,0Z" transform="translate(40 10813.937)" fill="#ffd86e"/><path d="M13.5,18.383a1,1,0,0,1-.707-1.707l3.484-3.484L12.793,9.707a1,1,0,0,1,1.414-1.414L18.4,12.484a1,1,0,0,1,0,1.414L14.207,18.09A1,1,0,0,1,13.5,18.383Z" transform="translate(303.045 10830.937)" fill="#ed8934"/><path d="M10.032,1.344a.923.923,0,0,1-.656-.256A.88.88,0,0,1,9.1.416V-2.9q-.688.752-1.528,1.512A16.742,16.742,0,0,1,5.984-.1a1.036,1.036,0,0,1-.72.184.861.861,0,0,1-.64-.376.84.84,0,0,1-.136-.664A.815.815,0,0,1,4.864-1.5a13.424,13.424,0,0,0,1.184-.864q.656-.528,1.3-1.1t1.1-1.056h-2.8a.844.844,0,0,1-.608-.248.8.8,0,0,1-.256-.6.8.8,0,0,1,.256-.6.844.844,0,0,1,.608-.248H9.1V-7.5h-.08a5.287,5.287,0,0,1-1.8-.248,1.622,1.622,0,0,1-.944-.84A3.84,3.84,0,0,1,6-10.208a3.831,3.831,0,0,1,.28-1.624,1.627,1.627,0,0,1,.936-.832,5.275,5.275,0,0,1,1.808-.248h1.984a5.347,5.347,0,0,1,1.816.248,1.6,1.6,0,0,1,.936.832,3.93,3.93,0,0,1,.272,1.624,3.94,3.94,0,0,1-.272,1.616,1.591,1.591,0,0,1-.936.84,5.347,5.347,0,0,1-1.816.248H10.96v1.28h3.456a.836.836,0,0,1,.616.248.817.817,0,0,1,.248.6.817.817,0,0,1-.248.6.836.836,0,0,1-.616.248h-2.8q.448.448,1.1,1.008t1.312,1.072q.664.512,1.176.832a.8.8,0,0,1,.376.568.893.893,0,0,1-.152.664A.862.862,0,0,1,14.8.008a1.028,1.028,0,0,1-.736-.168Q13.6-.48,13.056-.928t-1.088-.96Q11.424-2.4,10.96-2.88v3.3a.88.88,0,0,1-.272.672A.923.923,0,0,1,10.032,1.344Zm-6.5.1a.9.9,0,0,1-.64-.256.842.842,0,0,1-.272-.64v-7.5q-.368.592-.736,1.072a.873.873,0,0,1-.592.36A.959.959,0,0,1,.608-5.68a.925.925,0,0,1-.376-.568A.768.768,0,0,1,.368-6.88q.448-.624.9-1.408T2.144-9.9q.416-.824.744-1.6t.52-1.384a.882.882,0,0,1,.464-.56.932.932,0,0,1,.72-.032.945.945,0,0,1,.536.408.8.8,0,0,1,.056.7q-.144.48-.328.976t-.408,1.008V.528a.855.855,0,0,1-.272.664A.919.919,0,0,1,3.536,1.44ZM9.072-9.216H10.96a1.424,1.424,0,0,0,.88-.192,1.053,1.053,0,0,0,.224-.8,1.08,1.08,0,0,0-.224-.816,1.424,1.424,0,0,0-.88-.192H9.072a1.389,1.389,0,0,0-.864.192,1.08,1.08,0,0,0-.224.816,1.053,1.053,0,0,0,.224.8A1.388,1.388,0,0,0,9.072-9.216ZM20.752,1.328a.875.875,0,0,1-.608-.232.81.81,0,0,1-.256-.632V-10.96a2.924,2.924,0,0,1,.208-1.224,1.238,1.238,0,0,1,.76-.632,5.021,5.021,0,0,1,1.576-.192q1.776,0,2.256.7a1.777,1.777,0,0,1-.1,1.856l-.144.272q.592-.368,1.224-.848t1.192-.984q.56-.5.944-.9a1.7,1.7,0,0,1,1.216-.592,1.832,1.832,0,0,1,1.264.5q.464.384,1.136.9t1.392.984q.72.472,1.3.776a.726.726,0,0,1,.416.528.96.96,0,0,1-.1.688.988.988,0,0,1-.592.464.856.856,0,0,1-.72-.1l-.464-.288q-.256-.16-.528-.352a.821.821,0,0,1,.064.336.8.8,0,0,1-.216.568.759.759,0,0,1-.584.232H30.1v.816h.784a4.469,4.469,0,0,1,1.416.184,1.307,1.307,0,0,1,.776.656,3.052,3.052,0,0,1,.24,1.352,3.052,3.052,0,0,1-.24,1.352,1.307,1.307,0,0,1-.776.656,4.469,4.469,0,0,1-1.416.184h-.352A8.848,8.848,0,0,0,32.056-1.7,8.415,8.415,0,0,0,33.92-.672a.767.767,0,0,1,.48.5.854.854,0,0,1-.032.688.847.847,0,0,1-.552.472,1.161,1.161,0,0,1-.792-.04,8.035,8.035,0,0,1-1.3-.7,9.622,9.622,0,0,1-1.3-1.008,9.182,9.182,0,0,1-1.08-1.176,5.514,5.514,0,0,1-1.92,1.92,10.642,10.642,0,0,1-2.752,1.168,1.031,1.031,0,0,1-.7-.016.774.774,0,0,1-.44-.48.88.88,0,0,1,.04-.672.749.749,0,0,1,.472-.4,8.941,8.941,0,0,0,2.416-1.032,4.131,4.131,0,0,0,1.52-1.624h-.352a4.546,4.546,0,0,1-1.424-.184,1.307,1.307,0,0,1-.784-.656,3.052,3.052,0,0,1-.24-1.352,3.052,3.052,0,0,1,.24-1.352,1.307,1.307,0,0,1,.784-.656,4.546,4.546,0,0,1,1.424-.184h.736v-.816H26.992a.765.765,0,0,1-.576-.232.787.787,0,0,1-.224-.568.5.5,0,0,1,.008-.08.5.5,0,0,0,.008-.08q-.256.192-.5.368t-.472.3a1.012,1.012,0,0,1-.7.152.834.834,0,0,1-.592-.408.378.378,0,0,1-.08-.176q-.064.128-.128.248t-.112.2a1.088,1.088,0,0,0-.152.568,1.082,1.082,0,0,0,.312.536,4,4,0,0,1,1.072,2.8,2.712,2.712,0,0,1-.6,1.928,2.309,2.309,0,0,1-1.64.68.875.875,0,0,1-.992-.608v3.1a.823.823,0,0,1-.248.632A.867.867,0,0,1,20.752,1.328Zm.864-4.592a.971.971,0,0,1,.24-.36.792.792,0,0,1,.4-.2.935.935,0,0,0,.584-.336,1.6,1.6,0,0,0,.168-.864,2.962,2.962,0,0,0-.256-1.184,3.314,3.314,0,0,0-.64-.992,1.2,1.2,0,0,1-.36-.624,1.694,1.694,0,0,1,.2-.832q.1-.176.28-.592T22.6-10.1q.184-.432.264-.64.16-.384.064-.536t-.576-.152a1,1,0,0,0-.592.12.707.707,0,0,0-.144.536Zm5.408-6.608h4.464q-.544-.4-1.056-.808t-.848-.712a.665.665,0,0,0-.456-.248.736.736,0,0,0-.456.28q-.3.3-.736.7T27.024-9.872ZM30.1-4.592h.56a1.512,1.512,0,0,0,.736-.112q.16-.112.16-.56,0-.464-.16-.568a1.615,1.615,0,0,0-.736-.1H30.1Zm-2.256,0h.528V-5.936H27.84a1.615,1.615,0,0,0-.736.1q-.16.1-.16.568,0,.448.16.56A1.512,1.512,0,0,0,27.84-4.592ZM47.472-.048A.978.978,0,0,1,46.72-.16a.927.927,0,0,1-.448-.592.923.923,0,0,1,.112-.728.933.933,0,0,1,.592-.44,4.8,4.8,0,0,0,2.616-1.5,4.067,4.067,0,0,0,.84-2.64,3.636,3.636,0,0,0-.448-1.808,3.485,3.485,0,0,0-1.272-1.3,4.658,4.658,0,0,0-1.976-.608,21.15,21.15,0,0,1-.968,4.648,9.261,9.261,0,0,1-1.6,3.024A2.589,2.589,0,0,1,42.24-1.04a2.635,2.635,0,0,1-1.552-.5A3.326,3.326,0,0,1,39.576-2.96a5.5,5.5,0,0,1-.408-2.224,6.175,6.175,0,0,1,.5-2.488A6.179,6.179,0,0,1,41.1-9.712a6.728,6.728,0,0,1,2.184-1.376,7.451,7.451,0,0,1,2.76-.5,7.252,7.252,0,0,1,3.24.7A5.528,5.528,0,0,1,51.52-8.952a5.133,5.133,0,0,1,.816,2.888A5.974,5.974,0,0,1,51.1-2.2,6.547,6.547,0,0,1,47.472-.048Zm-5.216-2.96q.288,0,.664-.488a6.52,6.52,0,0,0,.76-1.384,15.159,15.159,0,0,0,.7-2.12,18.624,18.624,0,0,0,.48-2.712,4.711,4.711,0,0,0-2.1.92,4.441,4.441,0,0,0-1.28,1.616,4.807,4.807,0,0,0-.448,1.96,3.189,3.189,0,0,0,.344,1.648A1.008,1.008,0,0,0,42.256-3.008Zm26.88,1.936a.975.975,0,0,1-.624-.176.85.85,0,0,1-.336-.592.8.8,0,0,1,.192-.656,1.461,1.461,0,0,1-.68.3,6.141,6.141,0,0,1-1.16.088,5.127,5.127,0,0,1-1.392-.144.966.966,0,0,1-.648-.512,2.474,2.474,0,0,1-.168-1.008,1.931,1.931,0,0,1,.288-1.184,1.638,1.638,0,0,1,1.168-.448v-.624H64.4a.551.551,0,0,1-.448-.192.679.679,0,0,1-.16-.448.71.71,0,0,1,.16-.456.541.541,0,0,1,.448-.2h1.376v-.64H64.752a1.4,1.4,0,0,0-.96.256,1.252,1.252,0,0,0-.272.928v4.832a.772.772,0,0,1-.24.592.814.814,0,0,1-.576.224.787.787,0,0,1-.568-.224.785.785,0,0,1-.232-.592V-6.976a2.334,2.334,0,0,1,.552-1.744,2.545,2.545,0,0,1,1.768-.544q-.112-.288-.24-.584t-.16-.392a.542.542,0,0,1-.048-.384H62.112a.683.683,0,0,1-.528-.208.727.727,0,0,1-.192-.512.756.756,0,0,1,.192-.52.67.67,0,0,1,.528-.216h3.472v-.544a.862.862,0,0,1,.28-.68.99.99,0,0,1,.68-.248.96.96,0,0,1,.672.248.874.874,0,0,1,.272.68v.544h3.6a.67.67,0,0,1,.528.216.756.756,0,0,1,.192.52.727.727,0,0,1-.192.512.683.683,0,0,1-.528.208h-1.7a.773.773,0,0,1,.008.192.821.821,0,0,1-.04.192q-.08.208-.192.48t-.224.5a2.436,2.436,0,0,1,1.728.552,2.36,2.36,0,0,1,.544,1.736v3.824a2.042,2.042,0,0,1-.52,1.584A2.4,2.4,0,0,1,69.136-1.072Zm-2.928,2.1a18.353,18.353,0,0,1-3.672-.3,4.914,4.914,0,0,1-2.3-1.056l-.52.36-.6.416q-.288.2-.432.3a.913.913,0,0,1-.7.136.759.759,0,0,1-.576-.424.914.914,0,0,1-.088-.68.746.746,0,0,1,.424-.52q.24-.128.656-.344t.768-.392V-5.232a.819.819,0,0,0-.12-.512.626.626,0,0,0-.488-.144h-.544a.759.759,0,0,1-.584-.232.8.8,0,0,1-.216-.568.831.831,0,0,1,.216-.576.746.746,0,0,1,.584-.24h1.216a1.442,1.442,0,0,1,1.632,1.632V-1.76a3.162,3.162,0,0,0,1.072.68A6.661,6.661,0,0,0,63.624-.7a23.024,23.024,0,0,0,2.584.12q.864,0,1.752-.016T69.648-.64q.8-.032,1.36-.08a1.042,1.042,0,0,1,.744.2.76.76,0,0,1,.3.632A.876.876,0,0,1,71.8.76a1.035,1.035,0,0,1-.76.248q-.5,0-1.16.008t-1.352.008h-2.32ZM60.848-9.888a.869.869,0,0,1-.616.24.721.721,0,0,1-.584-.272q-.192-.24-.488-.544t-.6-.6q-.3-.3-.544-.5a.668.668,0,0,1-.24-.56.818.818,0,0,1,.24-.56.883.883,0,0,1,.576-.288.777.777,0,0,1,.608.208q.272.224.592.528l.624.592q.3.288.5.5a.787.787,0,0,1,.248.632A.935.935,0,0,1,60.848-9.888ZM68.432-2.56a.841.841,0,0,1,.208-.128.9.9,0,0,1,.256-.064,1.125,1.125,0,0,0,.584-.2.905.905,0,0,0,.1-.536v-3.3a1.252,1.252,0,0,0-.272-.928,1.4,1.4,0,0,0-.96-.256H67.344v.64h1.3a.541.541,0,0,1,.448.2.71.71,0,0,1,.16.456.679.679,0,0,1-.16.448.551.551,0,0,1-.448.192h-1.3v.64a1.519,1.519,0,0,1,1.128.448,2.032,2.032,0,0,1,.264,1.168,3.511,3.511,0,0,1-.064.728A1.027,1.027,0,0,1,68.432-2.56ZM65.9-9.264H67.28q.128-.272.288-.672t.272-.688h-2.5q.08.16.184.432t.216.528Q65.856-9.408,65.9-9.264Zm.624,5.952a1.29,1.29,0,0,0,.608-.088.435.435,0,0,0,.128-.376.435.435,0,0,0-.128-.376,1.29,1.29,0,0,0-.608-.088,1.29,1.29,0,0,0-.608.088.435.435,0,0,0-.128.376.435.435,0,0,0,.128.376A1.29,1.29,0,0,0,66.528-3.312ZM87.072,1.216a1,1,0,0,1-.7-.264,1.041,1.041,0,0,1-.32-.728A1,1,0,0,1,86.3-.5a1,1,0,0,1,.712-.336,1.234,1.234,0,0,0,.68-.176.8.8,0,0,0,.168-.608V-3.984H84.688V-.016a.906.906,0,0,1-.28.7.993.993,0,0,1-.7.256.972.972,0,0,1-.68-.256.906.906,0,0,1-.28-.7V-3.984H79.6a12.753,12.753,0,0,1-.5,2.48A11.738,11.738,0,0,1,78.144.7a1.074,1.074,0,0,1-.6.5,1.049,1.049,0,0,1-.792-.04.885.885,0,0,1-.52-.56.875.875,0,0,1,.088-.736,10.4,10.4,0,0,0,1.072-2.8,15.922,15.922,0,0,0,.368-3.616V-9.632a4.228,4.228,0,0,1,.36-1.9A2.129,2.129,0,0,1,79.3-12.56a6.142,6.142,0,0,1,2.192-.32H86.08a6.142,6.142,0,0,1,2.192.32,2.129,2.129,0,0,1,1.176,1.032,4.228,4.228,0,0,1,.36,1.9v8.24A3.723,3.723,0,0,1,89.544.152,1.55,1.55,0,0,1,88.68.96,4.623,4.623,0,0,1,87.072,1.216ZM84.688-5.7h3.168V-7.568H84.688Zm-4.976,0h3.04V-7.568H79.728v1.456Q79.728-5.9,79.712-5.7Zm4.976-3.6h3.168v-.336a1.488,1.488,0,0,0-.392-1.208,2.288,2.288,0,0,0-1.384-.312H84.688Zm-4.96,0h3.024v-1.856H81.488a2.249,2.249,0,0,0-1.376.312,1.507,1.507,0,0,0-.384,1.208Zm16.56,3.9a1.022,1.022,0,0,1-.728-.128.79.79,0,0,1-.36-.544.777.777,0,0,1,.152-.608.937.937,0,0,1,.632-.32,17.649,17.649,0,0,0,2.52-.536,21.657,21.657,0,0,0,2.312-.808,12.306,12.306,0,0,1-1.84-1.648,13.052,13.052,0,0,1-1.952,1.248,1.012,1.012,0,0,1-.7.12.749.749,0,0,1-.528-.392.854.854,0,0,1-.08-.624.757.757,0,0,1,.432-.5,12.144,12.144,0,0,0,1.48-.944,18.4,18.4,0,0,0,1.44-1.176,11.967,11.967,0,0,0,1.16-1.192.759.759,0,0,1,.584-.3.934.934,0,0,1,.6.184.742.742,0,0,1,.3.536.774.774,0,0,1-.176.584,1.559,1.559,0,0,1-.144.184q-.08.088-.16.184h3.056a2.464,2.464,0,0,1,1.56.416,1.119,1.119,0,0,1,.448,1.056,2.143,2.143,0,0,1-.808,1.3q-.288.256-.608.5a7.42,7.42,0,0,1-.688.472,16.327,16.327,0,0,0,2.264.752,21.927,21.927,0,0,0,2.5.48.941.941,0,0,1,.648.352.771.771,0,0,1,.136.656.7.7,0,0,1-.408.56,1.3,1.3,0,0,1-.76.1,22.157,22.157,0,0,1-3.264-.728,17.185,17.185,0,0,1-2.864-1.16A22.014,22.014,0,0,1,99.52-6.16,23.008,23.008,0,0,1,96.288-5.392ZM102.4,1.472a.923.923,0,0,1-.656-.256.88.88,0,0,1-.272-.672V-2.3q-.592.528-1.36,1.088T98.488-.152q-.856.5-1.7.9a1.446,1.446,0,0,1-.784.1.72.72,0,0,1-.592-.44.9.9,0,0,1-.016-.76.991.991,0,0,1,.56-.5,15.853,15.853,0,0,0,1.48-.7q.776-.416,1.52-.888t1.32-.9H96.256a.754.754,0,0,1-.552-.232.754.754,0,0,1-.232-.552A.754.754,0,0,1,95.7-4.68a.754.754,0,0,1,.552-.232h5.216V-5.68a.9.9,0,0,1,.272-.688.923.923,0,0,1,.656-.256.951.951,0,0,1,.664.256.887.887,0,0,1,.28.688v.768h5.184a.754.754,0,0,1,.552.232.754.754,0,0,1,.232.552.754.754,0,0,1-.232.552.754.754,0,0,1-.552.232h-4q.624.464,1.392.936t1.576.88q.808.408,1.528.7a.843.843,0,0,1,.5.5.837.837,0,0,1-.024.688.906.906,0,0,1-.608.5,1.294,1.294,0,0,1-.8-.064,16.861,16.861,0,0,1-1.64-.856q-.856-.5-1.664-1.08a14.673,14.673,0,0,1-1.448-1.168V.544a.868.868,0,0,1-.28.672A.951.951,0,0,1,102.4,1.472Zm.128-10.64q.352-.208.672-.416t.608-.416q.352-.272.32-.448t-.5-.176H100.64A12.316,12.316,0,0,0,102.528-9.168ZM123.792,1.36a1,1,0,0,1-.7-.272.931.931,0,0,1-.3-.72v-4.4h-3.648A.881.881,0,0,1,118.5-4.3a.881.881,0,0,1-.264-.648.881.881,0,0,1,.264-.648.881.881,0,0,1,.648-.264H122.8V-8.544h-2.048q-.16.416-.352.808t-.368.712a1.168,1.168,0,0,1-.576.52.9.9,0,0,1-.784-.024.9.9,0,0,1-.472-.536.858.858,0,0,1,.056-.7q.3-.56.632-1.312T119.5-10.6q.288-.776.448-1.352a.908.908,0,0,1,.464-.6.921.921,0,0,1,.72-.072.96.96,0,0,1,.592.448.915.915,0,0,1,.048.736q-.08.256-.168.544t-.184.56H122.8v-2.128a.931.931,0,0,1,.3-.72,1,1,0,0,1,.7-.272.959.959,0,0,1,.7.272.958.958,0,0,1,.28.72v2.128h2.64a.862.862,0,0,1,.632.264.862.862,0,0,1,.264.632.862.862,0,0,1-.264.632.862.862,0,0,1-.632.264h-2.64v2.688H128a.889.889,0,0,1,.64.264.868.868,0,0,1,.272.648.868.868,0,0,1-.272.648.889.889,0,0,1-.64.264h-3.232v4.4a.958.958,0,0,1-.28.72A.959.959,0,0,1,123.792,1.36Zm-6.912.048a.9.9,0,0,1-.648-.256A.874.874,0,0,1,115.968.5V-6.48q-.176.272-.352.536t-.352.52a.912.912,0,0,1-.608.368.959.959,0,0,1-.7-.144.8.8,0,0,1-.368-.568.9.9,0,0,1,.144-.68q.448-.624.936-1.448t.952-1.72q.464-.9.848-1.736t.608-1.5a.966.966,0,0,1,.5-.584.957.957,0,0,1,.72-.024.858.858,0,0,1,.52.448.908.908,0,0,1,.008.72q-.192.56-.456,1.184t-.568,1.264V.5a.861.861,0,0,1-.272.656A.9.9,0,0,1,116.88,1.408ZM135.7.256a.948.948,0,0,1-.72-.16.954.954,0,0,1-.4-.608q-.144-.816-.224-1.9t-.08-2.28q0-1.2.064-2.416t.2-2.328q.136-1.112.328-1.992a.909.909,0,0,1,.416-.6.933.933,0,0,1,.72-.136.978.978,0,0,1,.6.424.939.939,0,0,1,.136.728,22.04,22.04,0,0,0-.4,2.464q-.144,1.328-.184,2.7t.04,2.656a20.148,20.148,0,0,0,.272,2.344.854.854,0,0,1-.152.7A.985.985,0,0,1,135.7.256Zm6.56-.864a5.2,5.2,0,0,1-3.1-.752,3.166,3.166,0,0,1-1.224-2.208.9.9,0,0,1,.168-.7.932.932,0,0,1,.632-.384.958.958,0,0,1,.7.184.932.932,0,0,1,.384.632,1.346,1.346,0,0,0,.656,1.024,3.707,3.707,0,0,0,1.824.336,14,14,0,0,0,2.9-.368.867.867,0,0,1,.72.128.937.937,0,0,1,.416.608.892.892,0,0,1-.144.712,1.01,1.01,0,0,1-.608.424,12.188,12.188,0,0,1-1.72.288Q143.008-.608,142.256-.608Zm-2.928-7.92a.91.91,0,0,1-.712-.136.924.924,0,0,1-.408-.616.933.933,0,0,1,.136-.72.863.863,0,0,1,.616-.4,14.143,14.143,0,0,1,2-.232q1.1-.056,2.192-.016a14.5,14.5,0,0,1,1.92.184.9.9,0,0,1,.624.392.921.921,0,0,1,.144.728.869.869,0,0,1-.392.616.964.964,0,0,1-.712.152,15.244,15.244,0,0,0-2.688-.216A14.789,14.789,0,0,0,139.328-8.528ZM158.176-.384a.966.966,0,0,1-.72-.192.9.9,0,0,1-.368-.64.966.966,0,0,1,.192-.72.9.9,0,0,1,.64-.368,10.441,10.441,0,0,0,3.192-.816,4,4,0,0,0,1.728-1.4,2.932,2.932,0,0,0,.456-1.8,2.347,2.347,0,0,0-.88-1.864A3.8,3.8,0,0,0,159.9-8.64q-.688.048-1.536.184t-1.736.312q-.888.176-1.7.368t-1.456.368a.894.894,0,0,1-.728-.088.964.964,0,0,1-.456-.584.948.948,0,0,1,.088-.752.958.958,0,0,1,.584-.464q.688-.192,1.552-.376t1.8-.352q.936-.168,1.832-.3t1.632-.176a5.491,5.491,0,0,1,3.92.88,4.234,4.234,0,0,1,1.5,3.152,4.652,4.652,0,0,1-.632,2.76,5.882,5.882,0,0,1-2.336,2.144A11.337,11.337,0,0,1,158.176-.384Zm17.136-.88A2.644,2.644,0,0,1,173.9-1.6a3.3,3.3,0,0,1-1.184-1.184,7.36,7.36,0,0,1-.736-1.824A14.359,14.359,0,0,1,171.552-7a17.23,17.23,0,0,1-.064-2.568.989.989,0,0,1,.312-.664.849.849,0,0,1,.68-.232.9.9,0,0,1,.664.312.9.9,0,0,1,.232.7,16.533,16.533,0,0,0,.016,2.184,11.162,11.162,0,0,0,.3,1.936,5.7,5.7,0,0,0,.56,1.448,1.072,1.072,0,0,0,.928.656q.688-.016,1.152-1.44a.96.96,0,0,1,.48-.552.908.908,0,0,1,.736-.056.867.867,0,0,1,.544.472.914.914,0,0,1,.048.728,4.664,4.664,0,0,1-1.2,2.088A2.612,2.612,0,0,1,175.312-1.264Zm8.72-2.816a.9.9,0,0,1-.744-.032.988.988,0,0,1-.5-.544,6.643,6.643,0,0,0-.648-1.2,9.4,9.4,0,0,0-.912-1.152,6.428,6.428,0,0,0-1.032-.912.962.962,0,0,1-.4-.624.838.838,0,0,1,.176-.72.882.882,0,0,1,.632-.352,1.044,1.044,0,0,1,.712.208,8.762,8.762,0,0,1,1.32,1.136,11.267,11.267,0,0,1,1.176,1.44,6.368,6.368,0,0,1,.784,1.5,1,1,0,0,1-.032.744A.865.865,0,0,1,184.032-4.08ZM200.96.512a7.468,7.468,0,0,1-3.12-1.1,5.328,5.328,0,0,1-1.832-1.992,5.256,5.256,0,0,1-.6-2.432,5.726,5.726,0,0,1,.5-2.392,5.555,5.555,0,0,1,1.448-1.928q-.96.144-2.048.328t-2.112.368q-1.024.184-1.792.328a.887.887,0,0,1-.7-.176.951.951,0,0,1-.384-.624.89.89,0,0,1,.176-.712.971.971,0,0,1,.64-.376q.512-.08,1.312-.216t1.792-.3q.992-.16,2.032-.336l2.04-.344q1-.168,1.832-.312t1.36-.24a.892.892,0,0,1,.688.16.948.948,0,0,1,.4.592.933.933,0,0,1-.136.72.854.854,0,0,1-.6.4,5.392,5.392,0,0,0-2.024.664,5.009,5.009,0,0,0-1.416,1.216,5.088,5.088,0,0,0-.832,1.512,4.809,4.809,0,0,0-.272,1.552,3.21,3.21,0,0,0,1.056,2.5,5.359,5.359,0,0,0,2.864,1.224.961.961,0,0,1,.64.384.887.887,0,0,1,.176.7.971.971,0,0,1-.376.64A.89.89,0,0,1,200.96.512Z" transform="translate(77.074 10850.936)" fill="#fff" opacity="0.999"/><path d="M5.5,3A2.5,2.5,0,1,0,8,5.5,2.5,2.5,0,0,0,5.5,3m0-3A5.5,5.5,0,1,1,0,5.5,5.5,5.5,0,0,1,5.5,0Z" transform="translate(60.074 10838.936)" fill="#ed8934"/></g></svg>