<svg xmlns="http://www.w3.org/2000/svg" width="295" height="60.097" viewBox="0 0 295 60.097"><g transform="translate(-40 -12411.797)"><path d="M30,0H265a30,30,0,0,1,30,30v.1a30,30,0,0,1-30,30H30a30,30,0,0,1-30-30V30A30,30,0,0,1,30,0Z" transform="translate(40 12411.797)" fill="#ffd86e"/><path d="M13.5,18.383a1,1,0,0,1-.707-1.707l3.484-3.484L12.793,9.707a1,1,0,0,1,1.414-1.414L18.4,12.484a1,1,0,0,1,0,1.414L14.207,18.09A1,1,0,0,1,13.5,18.383Z" transform="translate(303.045 12428.797)" fill="#ed8934"/><path d="M9.52.672a.985.985,0,0,1-.68-.3A.873.873,0,0,1,8.576-.3.931.931,0,0,1,8.864-1a.9.9,0,0,1,.688-.264,3.659,3.659,0,0,0,1.992-.416,1.448,1.448,0,0,0,.68-1.312,1.428,1.428,0,0,0-.744-1.3,4.138,4.138,0,0,0-2.12-.448q-.544,0-1.04.048t-.96.128v2.016A3.376,3.376,0,0,1,6.608-.12,2.893,2.893,0,0,1,4.432.656,3.052,3.052,0,0,1,2.512.064a2.234,2.234,0,0,1-.768-1.888,3.379,3.379,0,0,1,1-2.384A6.639,6.639,0,0,1,5.472-5.856V-8.24q-.688.064-1.336.1T2.928-8.1a.967.967,0,0,1-.688-.272.887.887,0,0,1-.288-.672.9.9,0,0,1,.28-.672.94.94,0,0,1,.68-.272q.56-.016,1.216-.048t1.344-.08V-12.08a.959.959,0,0,1,.272-.7.9.9,0,0,1,.672-.28.9.9,0,0,1,.672.28.959.959,0,0,1,.272.7v1.808q.368-.032.688-.08t.624-.08a.99.99,0,0,1,.72.144.85.85,0,0,1,.384.608.822.822,0,0,1-.176.688,1.009,1.009,0,0,1-.64.352q-.336.064-.744.112t-.856.112V-6.3a13.7,13.7,0,0,1,2.032-.144,7.025,7.025,0,0,1,2.544.416A3.671,3.671,0,0,1,13.592-4.84a2.986,2.986,0,0,1,.584,1.848A3.31,3.31,0,0,1,12.944-.24,5.13,5.13,0,0,1,9.52.672ZM13.008-7.1q-.256-.192-.624-.424t-.736-.448q-.368-.216-.64-.344a1.027,1.027,0,0,1-.5-.544.869.869,0,0,1,.008-.72.913.913,0,0,1,.568-.5.96.96,0,0,1,.728.064q.336.16.768.416t.856.52q.424.264.7.472A.84.84,0,0,1,14.5-8a.977.977,0,0,1-.176.7.936.936,0,0,1-.616.36A.934.934,0,0,1,13.008-7.1ZM4.432-1.168a1.044,1.044,0,0,0,.76-.272,1.572,1.572,0,0,0,.28-1.1v-1.44a3.856,3.856,0,0,0-1.336.952,1.747,1.747,0,0,0-.472,1.144Q3.664-1.168,4.432-1.168Zm22.432,2.64a1,1,0,0,1-.712-.28.957.957,0,0,1-.3-.728V-2.784H24.9a11.773,11.773,0,0,1-2.128-.16,2.889,2.889,0,0,1-1.344-.576,2.263,2.263,0,0,1-.7-1.176,7.617,7.617,0,0,1-.208-1.96v-.832A7.521,7.521,0,0,1,20.72-9.44a2.307,2.307,0,0,1,.7-1.176,2.841,2.841,0,0,1,1.344-.584,11.773,11.773,0,0,1,2.128-.16h.96v-1.248a.957.957,0,0,1,.3-.728,1,1,0,0,1,.712-.28,1,1,0,0,1,.712.28.957.957,0,0,1,.3.728v1.248h.976a11.773,11.773,0,0,1,2.128.16,2.786,2.786,0,0,1,1.336.584,2.334,2.334,0,0,1,.7,1.176,7.521,7.521,0,0,1,.208,1.952v.832a7.616,7.616,0,0,1-.208,1.96,2.289,2.289,0,0,1-.7,1.176,2.833,2.833,0,0,1-1.336.576,11.773,11.773,0,0,1-2.128.16h-.976V.464a.957.957,0,0,1-.3.728A1,1,0,0,1,26.864,1.472Zm1.008-5.984h.976a7.846,7.846,0,0,0,1.488-.1.914.914,0,0,0,.68-.472,2.843,2.843,0,0,0,.2-1.152H27.872Zm-2.976,0h.96V-6.24H22.528a2.963,2.963,0,0,0,.192,1.152.9.9,0,0,0,.68.472A7.981,7.981,0,0,0,24.9-4.512ZM27.872-7.92h3.344a2.78,2.78,0,0,0-.2-1.144.92.92,0,0,0-.68-.464,7.846,7.846,0,0,0-1.488-.1h-.976Zm-5.344,0h3.328V-9.632H24.9a7.981,7.981,0,0,0-1.5.1.9.9,0,0,0-.68.464A2.9,2.9,0,0,0,22.528-7.92ZM51.456-1.984a12.014,12.014,0,0,1-2.072-2.392A11.787,11.787,0,0,1,47.92-7.5a16.35,16.35,0,0,1-1.5,3.048A11.313,11.313,0,0,1,44.368-2a.978.978,0,0,1-.736.248.9.9,0,0,1-.688-.344.786.786,0,0,1-.168-.632.967.967,0,0,1,.328-.584,10.015,10.015,0,0,0,1.8-2.1,16.024,16.024,0,0,0,1.36-2.576,19.791,19.791,0,0,0,.9-2.656,1.23,1.23,0,0,0-.768-.192H44.816a.868.868,0,0,1-.664-.264.911.911,0,0,1-.248-.648.891.891,0,0,1,.248-.632.868.868,0,0,1,.664-.264h1.776a2.633,2.633,0,0,1,1.7.44,2.3,2.3,0,0,1,.632,1.576,10.269,10.269,0,0,0,.664,2.744A11.294,11.294,0,0,0,50.92-5.432a11.685,11.685,0,0,0,1.816,2.008.933.933,0,0,1,.336.624.8.8,0,0,1-.192.656,1.124,1.124,0,0,1-.688.368A.881.881,0,0,1,51.456-1.984ZM47.5.976a15.963,15.963,0,0,1-3.7-.344A4.64,4.64,0,0,1,41.584-.544q-.208.16-.536.4L40.416.32q-.3.224-.464.336a.992.992,0,0,1-.744.16A.841.841,0,0,1,38.576.4a.926.926,0,0,1-.12-.72A.846.846,0,0,1,38.9-.9l.744-.416q.488-.272.856-.48V-5.2a.844.844,0,0,0-.128-.544.682.682,0,0,0-.512-.144h-.672a.785.785,0,0,1-.624-.256.893.893,0,0,1-.224-.608.864.864,0,0,1,.224-.6.8.8,0,0,1,.624-.248h1.392a1.513,1.513,0,0,1,1.712,1.712V-2.16a3.441,3.441,0,0,0,1.008.792,4.987,4.987,0,0,0,1.592.456A19.084,19.084,0,0,0,47.5-.768q1.36,0,2.536-.048T52.1-.928a1.087,1.087,0,0,1,.792.224.827.827,0,0,1,.312.672.986.986,0,0,1-.256.7,1.075,1.075,0,0,1-.816.272q-.7,0-1.568.008L48.88.968Q48.064.976,47.5.976ZM41.232-9.872a7.283,7.283,0,0,0-.568-.536q-.344-.3-.688-.584t-.616-.48a.728.728,0,0,1-.3-.584.93.93,0,0,1,.216-.632.912.912,0,0,1,.584-.328.907.907,0,0,1,.68.168q.3.224.672.512t.712.576q.344.288.568.5a.811.811,0,0,1,.3.648.93.93,0,0,1-.288.68.893.893,0,0,1-.632.312A.807.807,0,0,1,41.232-9.872ZM64.512.384a.942.942,0,0,1-.3-.672.911.911,0,0,1,.256-.688A8.368,8.368,0,0,0,65.68-2.552a13.9,13.9,0,0,0,.976-1.928,19.521,19.521,0,0,0-2.512-.48A8.535,8.535,0,0,1,62.8-2.88a4.168,4.168,0,0,1-1.6,1.152,3.063,3.063,0,0,1-1.568.216,2.13,2.13,0,0,1-1.272-.616,1.965,1.965,0,0,1-.5-1.44,2.642,2.642,0,0,1,.528-1.6,3.615,3.615,0,0,1,1.64-1.16,7.909,7.909,0,0,1,2.872-.44,20.358,20.358,0,0,0,.624-2.176q.224-.928-.08-1.24a1.412,1.412,0,0,0-1.184-.2q-.3.048-.784.112t-.752.1a1,1,0,0,1-.7-.24.921.921,0,0,1-.336-.656.967.967,0,0,1,.24-.7.932.932,0,0,1,.656-.328l.832-.08q.5-.048.816-.064a3.376,3.376,0,0,1,2.776.7,3.126,3.126,0,0,1,.392,2.752q-.112.576-.256,1.112t-.3,1.032q.576.064,1.184.184t1.2.264q.128-.544.208-1.064a8.428,8.428,0,0,0,.1-1,1.017,1.017,0,0,1,.28-.68.928.928,0,0,1,.664-.3.926.926,0,0,1,.68.28.873.873,0,0,1,.264.68A9.572,9.572,0,0,1,69.288-7a12.952,12.952,0,0,1-.28,1.3q.5.16.968.328t.92.344a.953.953,0,0,1,.52.528.907.907,0,0,1-.008.736.928.928,0,0,1-.512.512.886.886,0,0,1-.736,0q-.416-.192-.848-.36t-.864-.328a16.109,16.109,0,0,1-1.16,2.4A9.44,9.44,0,0,1,65.872.336a.962.962,0,0,1-.664.288A.984.984,0,0,1,64.512.384ZM60.528-3.408a2.611,2.611,0,0,0,.784-.544A4.677,4.677,0,0,0,62.1-5.008a3.93,3.93,0,0,0-1.8.48,1.068,1.068,0,0,0-.552.816.372.372,0,0,0,.2.36A.712.712,0,0,0,60.528-3.408ZM83.968.624a3.156,3.156,0,0,1-2.056-.632,2.207,2.207,0,0,1-.776-1.816,2.246,2.246,0,0,1,.776-1.8,3.18,3.18,0,0,1,2.136-.664,7.676,7.676,0,0,1,.848.048q-.016-.752-.04-1.64T84.8-7.7q-.848.048-1.64.064t-1.368,0a.928.928,0,0,1-.664-.3.9.9,0,0,1-.248-.68.973.973,0,0,1,.312-.648.878.878,0,0,1,.664-.248q.56.016,1.32.008t1.592-.056q-.016-.608-.016-1.168v-1.056a.94.94,0,0,1,.272-.68.9.9,0,0,1,.672-.28.919.919,0,0,1,.688.28.94.94,0,0,1,.272.68q0,.5.008,1.024t.008,1.072q.7-.064,1.288-.128t.984-.128a.854.854,0,0,1,.7.152.922.922,0,0,1,.384.616.9.9,0,0,1-.168.7.865.865,0,0,1-.616.368q-.448.064-1.112.136T86.7-7.824q.032,1.12.064,2.16t.048,1.84a11.233,11.233,0,0,1,1.656.688,9.535,9.535,0,0,1,1.352.832.956.956,0,0,1,.384.632.934.934,0,0,1-.16.712.958.958,0,0,1-.616.4.853.853,0,0,1-.712-.16,9.708,9.708,0,0,0-.88-.592,8.718,8.718,0,0,0-.992-.512Q86.688.624,83.968.624ZM78.64.64a.948.948,0,0,1-.72-.16.954.954,0,0,1-.4-.608,11.984,11.984,0,0,1-.144-1.44q-.048-.912-.064-2.048t.008-2.36q.024-1.224.088-2.384t.168-2.112a12.514,12.514,0,0,1,.248-1.544.94.94,0,0,1,.432-.592.9.9,0,0,1,.72-.112.94.94,0,0,1,.592.432.9.9,0,0,1,.112.72,11.758,11.758,0,0,0-.24,1.488q-.1.9-.16,1.96t-.088,2.184q-.024,1.12-.008,2.168t.072,1.9a13.35,13.35,0,0,0,.152,1.4.854.854,0,0,1-.152.7A.985.985,0,0,1,78.64.64Zm5.328-1.824q.992,0,.992-.944,0-.048-.008-.128t-.008-.176a4.964,4.964,0,0,0-.976-.1,1.132,1.132,0,0,0-.728.192.614.614,0,0,0-.232.5.578.578,0,0,0,.224.48A1.2,1.2,0,0,0,83.968-1.184Zm22.672.736a16.529,16.529,0,0,1-4.312.488,7.386,7.386,0,0,1-3.152-.728,3.631,3.631,0,0,1-1.752-1.856.886.886,0,0,1,0-.736.923.923,0,0,1,.528-.512.868.868,0,0,1,.728,0,.926.926,0,0,1,.5.528,2.1,2.1,0,0,0,1.248,1.056,6.658,6.658,0,0,0,2.424.36,14.422,14.422,0,0,0,3.352-.472.883.883,0,0,1,.72.12.97.97,0,0,1,.432.6.952.952,0,0,1-.128.72A.94.94,0,0,1,106.64-.448ZM105.168-9.2a14.23,14.23,0,0,0-1.848-.344,18.614,18.614,0,0,0-1.944-.136,15.989,15.989,0,0,0-1.792.064.941.941,0,0,1-.712-.192.912.912,0,0,1-.36-.64.941.941,0,0,1,.192-.712.912.912,0,0,1,.64-.36,15.81,15.81,0,0,1,2.112-.056q1.152.04,2.248.168a14.756,14.756,0,0,1,1.912.336,1.012,1.012,0,0,1,.592.44.879.879,0,0,1,.112.712.9.9,0,0,1-.424.6A.905.905,0,0,1,105.168-9.2ZM120.576,1.088a.9.9,0,0,1-.688-.264,1.034,1.034,0,0,1-.32-.68.923.923,0,0,1,.264-.7.9.9,0,0,1,.68-.3,6.025,6.025,0,0,0,3.272-.776,2.4,2.4,0,0,0,.984-2.072,1.55,1.55,0,0,0-.488-1.2A2.193,2.193,0,0,0,123-5.432a3.9,3.9,0,0,0-1.736.248,5.778,5.778,0,0,0-1.856,1.136.853.853,0,0,1-.552.216,1.076,1.076,0,0,1-.584-.152.984.984,0,0,1-.368-.464.937.937,0,0,1-.032-.592,16.169,16.169,0,0,0,.4-1.808q.176-1.04.288-2.08-.784.016-1.472.008t-1.2-.04a.881.881,0,0,1-.632-.336.929.929,0,0,1-.216-.688.881.881,0,0,1,.336-.632.93.93,0,0,1,.688-.216q.528.048,1.224.064t1.448,0q.032-.448.048-.824t.016-.664a.955.955,0,0,1,.264-.68.928.928,0,0,1,.664-.3.911.911,0,0,1,.688.256.887.887,0,0,1,.288.672q0,.272-.024.64t-.056.8a16.789,16.789,0,0,0,2.768-.368.91.91,0,0,1,.712.136.86.86,0,0,1,.392.6.905.905,0,0,1-.128.7.9.9,0,0,1-.592.4q-.688.128-1.552.224t-1.792.16q-.08.7-.192,1.384T120.016-6.4a5.872,5.872,0,0,1,1.824-.688,5.353,5.353,0,0,1,1.792-.048,3.979,3.979,0,0,1,1.552.56,3.153,3.153,0,0,1,1.088,1.144,3.392,3.392,0,0,1,.4,1.688,4.146,4.146,0,0,1-1.616,3.5A7.679,7.679,0,0,1,120.576,1.088ZM138.848.576a.94.94,0,0,1-.68-.272.956.956,0,0,1-.3-.672.94.94,0,0,1,.272-.68.956.956,0,0,1,.672-.3q4.48-.08,4.48-2.56a1.572,1.572,0,0,0-.56-1.28,2.258,2.258,0,0,0-1.488-.464,5.062,5.062,0,0,0-2.12.5,6.047,6.047,0,0,0-1.992,1.512.883.883,0,0,1-.536.3.918.918,0,0,1-.6-.088.806.806,0,0,1-.4-.408,1,1,0,0,1-.08-.584q.112-.672.248-1.456t.3-1.592q.16-.808.32-1.5a.857.857,0,0,1,.424-.6.943.943,0,0,1,.728-.1.933.933,0,0,1,.592.44.923.923,0,0,1,.112.728q-.112.448-.264,1.032t-.312,1.24A6.457,6.457,0,0,1,141.3-7.472a4.493,4.493,0,0,1,2.064.448,3.335,3.335,0,0,1,1.368,1.248,3.523,3.523,0,0,1,.488,1.872,3.87,3.87,0,0,1-1.568,3.216A7.994,7.994,0,0,1,138.848.576Zm2.56-10.016q-.512-.256-1.16-.552t-1.3-.576q-.648-.28-1.144-.472a.819.819,0,0,1-.48-.528.974.974,0,0,1,.032-.736.893.893,0,0,1,.544-.488,1.061,1.061,0,0,1,.736.024q.528.208,1.144.472t1.24.544q.624.28,1.136.536a1.03,1.03,0,0,1,.5.536.932.932,0,0,1,.008.728.992.992,0,0,1-.528.512A.886.886,0,0,1,141.408-9.44ZM159.04-2.928a.8.8,0,0,1-.56-.224.85.85,0,0,1-.272-.56q-.048-.608-.088-1.392t-.088-1.608q-.048-.824-.08-1.576T157.9-9.616q-.016-.576-.016-.848v-1.584a1.053,1.053,0,0,1,.328-.784,1.132,1.132,0,0,1,.824-.32,1.153,1.153,0,0,1,.84.32,1.053,1.053,0,0,1,.328.784v1.584q0,.272-.024.848t-.056,1.328q-.032.752-.072,1.576T159.968-5.1q-.048.784-.1,1.392a.789.789,0,0,1-.256.56A.815.815,0,0,1,159.04-2.928Zm0,3.9a1.309,1.309,0,0,1-.96-.4,1.309,1.309,0,0,1-.4-.96,1.309,1.309,0,0,1,.4-.96,1.309,1.309,0,0,1,.96-.4,1.309,1.309,0,0,1,.96.4,1.309,1.309,0,0,1,.4.96,1.309,1.309,0,0,1-.4.96A1.309,1.309,0,0,1,159.04.976Z" transform="translate(77.074 12448.797)" fill="#fff" opacity="0.999"/><path d="M5.5,3A2.5,2.5,0,1,0,8,5.5,2.5,2.5,0,0,0,5.5,3m0-3A5.5,5.5,0,1,1,0,5.5,5.5,5.5,0,0,1,5.5,0Z" transform="translate(60.074 12436.797)" fill="#ed8934"/></g></svg>