<svg xmlns="http://www.w3.org/2000/svg" width="520" height="112.287" viewBox="0 0 520 112.287"><g transform="translate(-980 -9962)"><path d="M56,0H464a56,56,0,0,1,56,56v.287a56,56,0,0,1-56,56H56a56,56,0,0,1-56-56V56A56,56,0,0,1,56,0Z" transform="translate(980 9962)" fill="#81d1dd"/><path d="M13.5,23.225a1,1,0,0,1-.707-1.707L18.7,15.612,12.793,9.707a1,1,0,0,1,1.414-1.414l6.612,6.612a1,1,0,0,1,0,1.414l-6.612,6.612A1,1,0,0,1,13.5,23.225Z" transform="translate(1451.41 10003.167)" fill="#ed8934"/><path d="M13.09.924a1.354,1.354,0,0,1-.935-.407,1.2,1.2,0,0,1-.363-.935,1.281,1.281,0,0,1,.4-.957,1.234,1.234,0,0,1,.946-.363,5.031,5.031,0,0,0,2.739-.572,1.992,1.992,0,0,0,.935-1.8A1.963,1.963,0,0,0,15.785-5.9a5.69,5.69,0,0,0-2.915-.616q-.748,0-1.43.066t-1.32.176V-3.5A4.642,4.642,0,0,1,9.086-.165,3.977,3.977,0,0,1,6.094.9,4.2,4.2,0,0,1,3.454.088,3.072,3.072,0,0,1,2.4-2.508,4.646,4.646,0,0,1,3.773-5.786,9.129,9.129,0,0,1,7.524-8.052V-11.33q-.946.088-1.837.132t-1.661.066a1.33,1.33,0,0,1-.946-.374,1.22,1.22,0,0,1-.4-.924,1.237,1.237,0,0,1,.385-.924A1.292,1.292,0,0,1,4-13.728q.77-.022,1.672-.066t1.848-.11V-16.61a1.319,1.319,0,0,1,.374-.957,1.237,1.237,0,0,1,.924-.385,1.237,1.237,0,0,1,.924.385,1.319,1.319,0,0,1,.374.957v2.486q.506-.044.946-.11t.858-.11a1.361,1.361,0,0,1,.99.2,1.169,1.169,0,0,1,.528.836,1.131,1.131,0,0,1-.242.946,1.388,1.388,0,0,1-.88.484q-.462.088-1.023.154t-1.177.154v2.9a18.839,18.839,0,0,1,2.794-.2,9.659,9.659,0,0,1,3.5.572,5.048,5.048,0,0,1,2.277,1.639,4.105,4.105,0,0,1,.8,2.541A4.551,4.551,0,0,1,17.8-.33,7.053,7.053,0,0,1,13.09.924Zm4.8-10.692q-.352-.264-.858-.583t-1.012-.616q-.506-.3-.88-.473a1.412,1.412,0,0,1-.693-.748,1.2,1.2,0,0,1,.011-.99,1.255,1.255,0,0,1,.781-.682,1.32,1.32,0,0,1,1,.088q.462.22,1.056.572t1.177.715q.583.363.957.649a1.155,1.155,0,0,1,.506.836,1.344,1.344,0,0,1-.242.968,1.286,1.286,0,0,1-.847.495A1.284,1.284,0,0,1,17.886-9.768ZM6.094-1.606A1.436,1.436,0,0,0,7.139-1.98,2.162,2.162,0,0,0,7.524-3.5v-1.98A5.3,5.3,0,0,0,5.687-4.169,2.4,2.4,0,0,0,5.038-2.6Q5.038-1.606,6.094-1.606Zm30.844,3.63a1.374,1.374,0,0,1-.979-.385,1.315,1.315,0,0,1-.407-1V-3.828h-1.32a16.188,16.188,0,0,1-2.926-.22,3.973,3.973,0,0,1-1.848-.792,3.112,3.112,0,0,1-.968-1.617,10.473,10.473,0,0,1-.286-2.7V-10.3a10.342,10.342,0,0,1,.286-2.684,3.172,3.172,0,0,1,.968-1.617,3.906,3.906,0,0,1,1.848-.8,16.188,16.188,0,0,1,2.926-.22h1.32v-1.716a1.315,1.315,0,0,1,.407-1,1.374,1.374,0,0,1,.979-.385,1.374,1.374,0,0,1,.979.385,1.315,1.315,0,0,1,.407,1v1.716h1.342a16.188,16.188,0,0,1,2.926.22,3.83,3.83,0,0,1,1.837.8,3.209,3.209,0,0,1,.957,1.617,10.342,10.342,0,0,1,.286,2.684v1.144a10.473,10.473,0,0,1-.286,2.7,3.147,3.147,0,0,1-.957,1.617,3.9,3.9,0,0,1-1.837.792,16.188,16.188,0,0,1-2.926.22H38.324V.638a1.315,1.315,0,0,1-.407,1A1.374,1.374,0,0,1,36.938,2.024ZM38.324-6.2h1.342a10.788,10.788,0,0,0,2.046-.143A1.257,1.257,0,0,0,42.647-7a3.908,3.908,0,0,0,.275-1.584h-4.6Zm-4.092,0h1.32V-8.58H30.976A4.074,4.074,0,0,0,31.24-7a1.23,1.23,0,0,0,.935.649A10.974,10.974,0,0,0,34.232-6.2Zm4.092-4.686h4.6a3.822,3.822,0,0,0-.275-1.573,1.264,1.264,0,0,0-.935-.638,10.788,10.788,0,0,0-2.046-.143H38.324Zm-7.348,0h4.576v-2.354h-1.32a10.974,10.974,0,0,0-2.057.143,1.237,1.237,0,0,0-.935.638A3.984,3.984,0,0,0,30.976-10.89ZM70.752-2.728A16.519,16.519,0,0,1,67.9-6.017a16.206,16.206,0,0,1-2.013-4.3,22.483,22.483,0,0,1-2.068,4.191A15.556,15.556,0,0,1,61.006-2.75a1.345,1.345,0,0,1-1.012.341,1.243,1.243,0,0,1-.946-.473,1.08,1.08,0,0,1-.231-.869,1.33,1.33,0,0,1,.451-.8,13.77,13.77,0,0,0,2.475-2.882,22.033,22.033,0,0,0,1.87-3.542,27.212,27.212,0,0,0,1.243-3.652,1.692,1.692,0,0,0-1.056-.264H61.622a1.193,1.193,0,0,1-.913-.363,1.253,1.253,0,0,1-.341-.891,1.225,1.225,0,0,1,.341-.869,1.193,1.193,0,0,1,.913-.363h2.442a3.621,3.621,0,0,1,2.343.605,3.157,3.157,0,0,1,.869,2.167,14.121,14.121,0,0,0,.913,3.773,15.528,15.528,0,0,0,1.826,3.366,16.067,16.067,0,0,0,2.5,2.761,1.283,1.283,0,0,1,.462.858,1.1,1.1,0,0,1-.264.9,1.545,1.545,0,0,1-.946.506A1.211,1.211,0,0,1,70.752-2.728Zm-5.434,4.07A21.949,21.949,0,0,1,60.236.869,6.379,6.379,0,0,1,57.178-.748q-.286.22-.737.55L55.572.44q-.418.308-.638.462a1.363,1.363,0,0,1-1.023.22A1.157,1.157,0,0,1,53.042.55a1.273,1.273,0,0,1-.165-.99,1.163,1.163,0,0,1,.6-.792L54.5-1.8q.671-.374,1.177-.66V-7.15a1.16,1.16,0,0,0-.176-.748.938.938,0,0,0-.7-.2h-.924a1.08,1.08,0,0,1-.858-.352,1.228,1.228,0,0,1-.308-.836,1.187,1.187,0,0,1,.308-.825,1.1,1.1,0,0,1,.858-.341h1.914A2.081,2.081,0,0,1,58.146-8.1V-2.97a4.732,4.732,0,0,0,1.386,1.089,6.858,6.858,0,0,0,2.189.627,26.241,26.241,0,0,0,3.6.2q1.87,0,3.487-.066t2.827-.154a1.5,1.5,0,0,1,1.089.308,1.137,1.137,0,0,1,.429.924A1.355,1.355,0,0,1,72.8.924a1.479,1.479,0,0,1-1.122.374q-.968,0-2.156.011l-2.31.022Q66.088,1.342,65.318,1.342ZM56.694-13.574a10.014,10.014,0,0,0-.781-.737q-.473-.407-.946-.8t-.847-.66a1,1,0,0,1-.407-.8,1.279,1.279,0,0,1,.3-.869,1.254,1.254,0,0,1,.8-.451,1.246,1.246,0,0,1,.935.231q.418.308.924.7t.979.792q.473.4.781.682a1.115,1.115,0,0,1,.418.891,1.279,1.279,0,0,1-.4.935,1.228,1.228,0,0,1-.869.429A1.109,1.109,0,0,1,56.694-13.574ZM88.7.528A1.3,1.3,0,0,1,88.286-.4a1.252,1.252,0,0,1,.352-.946A11.506,11.506,0,0,0,90.31-3.509,19.112,19.112,0,0,0,91.652-6.16,26.842,26.842,0,0,0,88.2-6.82,11.736,11.736,0,0,1,86.35-3.96a5.73,5.73,0,0,1-2.2,1.584,4.212,4.212,0,0,1-2.156.3,2.929,2.929,0,0,1-1.749-.847,2.7,2.7,0,0,1-.693-1.98,3.633,3.633,0,0,1,.726-2.2A4.971,4.971,0,0,1,82.533-8.7a10.875,10.875,0,0,1,3.949-.6A27.99,27.99,0,0,0,87.34-12.3q.308-1.276-.11-1.7a1.942,1.942,0,0,0-1.628-.275q-.418.066-1.078.154t-1.034.132a1.368,1.368,0,0,1-.968-.33,1.266,1.266,0,0,1-.462-.9,1.33,1.33,0,0,1,.33-.957,1.282,1.282,0,0,1,.9-.451l1.144-.11q.682-.066,1.122-.088,2.772-.176,3.817.968t.539,3.784q-.154.792-.352,1.529T89.144-9.13q.792.088,1.628.253t1.65.363q.176-.748.286-1.463a11.59,11.59,0,0,0,.132-1.375,1.4,1.4,0,0,1,.385-.935,1.276,1.276,0,0,1,.913-.407,1.273,1.273,0,0,1,.935.385,1.2,1.2,0,0,1,.363.935,13.159,13.159,0,0,1-.165,1.749,17.807,17.807,0,0,1-.385,1.793q.682.22,1.331.451t1.265.473a1.311,1.311,0,0,1,.715.726,1.247,1.247,0,0,1-.011,1.012,1.276,1.276,0,0,1-.7.7,1.219,1.219,0,0,1-1.012,0Q95.9-4.73,95.3-4.961t-1.188-.451a22.15,22.15,0,0,1-1.6,3.3A12.98,12.98,0,0,1,90.574.462a1.323,1.323,0,0,1-.913.4A1.353,1.353,0,0,1,88.7.528ZM83.226-4.686A3.59,3.59,0,0,0,84.3-5.434a6.431,6.431,0,0,0,1.078-1.452,5.4,5.4,0,0,0-2.475.66A1.469,1.469,0,0,0,82.148-5.1a.511.511,0,0,0,.275.495A.979.979,0,0,0,83.226-4.686ZM115.456.858a4.339,4.339,0,0,1-2.827-.869,3.035,3.035,0,0,1-1.067-2.5,3.089,3.089,0,0,1,1.067-2.475,4.373,4.373,0,0,1,2.937-.913,10.555,10.555,0,0,1,1.166.066q-.022-1.034-.055-2.255t-.077-2.5q-1.166.066-2.255.088t-1.881,0a1.276,1.276,0,0,1-.913-.407,1.236,1.236,0,0,1-.341-.935,1.338,1.338,0,0,1,.429-.891,1.208,1.208,0,0,1,.913-.341q.77.022,1.815.011t2.189-.077q-.022-.836-.022-1.606v-1.452a1.292,1.292,0,0,1,.374-.935,1.237,1.237,0,0,1,.924-.385,1.263,1.263,0,0,1,.946.385,1.292,1.292,0,0,1,.374.935q0,.682.011,1.408t.011,1.474q.968-.088,1.771-.176t1.353-.176a1.175,1.175,0,0,1,.968.209,1.268,1.268,0,0,1,.528.847,1.242,1.242,0,0,1-.231.968,1.19,1.19,0,0,1-.847.506q-.616.088-1.529.187t-1.969.187q.044,1.54.088,2.97t.066,2.53a15.446,15.446,0,0,1,2.277.946,13.111,13.111,0,0,1,1.859,1.144,1.314,1.314,0,0,1,.528.869,1.285,1.285,0,0,1-.22.979,1.317,1.317,0,0,1-.847.55,1.173,1.173,0,0,1-.979-.22,13.351,13.351,0,0,0-1.21-.814,11.987,11.987,0,0,0-1.364-.7Q119.2.858,115.456.858ZM108.13.88a1.3,1.3,0,0,1-.99-.22,1.312,1.312,0,0,1-.55-.836,16.478,16.478,0,0,1-.2-1.98q-.066-1.254-.088-2.816t.011-3.245q.033-1.683.121-3.278t.231-2.9a17.207,17.207,0,0,1,.341-2.123,1.292,1.292,0,0,1,.594-.814,1.239,1.239,0,0,1,.99-.154,1.292,1.292,0,0,1,.814.594,1.239,1.239,0,0,1,.154.99,16.169,16.169,0,0,0-.33,2.046q-.132,1.232-.22,2.695t-.121,3q-.033,1.54-.011,2.981t.1,2.618a18.356,18.356,0,0,0,.209,1.925,1.174,1.174,0,0,1-.209.968A1.354,1.354,0,0,1,108.13.88Zm7.326-2.508q1.364,0,1.364-1.3,0-.066-.011-.176t-.011-.242a6.826,6.826,0,0,0-1.342-.132,1.557,1.557,0,0,0-1,.264.844.844,0,0,0-.319.682.794.794,0,0,0,.308.66A1.655,1.655,0,0,0,115.456-1.628ZM146.63-.616A22.727,22.727,0,0,1,140.7.055a10.156,10.156,0,0,1-4.334-1A4.992,4.992,0,0,1,133.958-3.5a1.219,1.219,0,0,1,0-1.012,1.269,1.269,0,0,1,.726-.7,1.194,1.194,0,0,1,1,0,1.273,1.273,0,0,1,.693.726,2.888,2.888,0,0,0,1.716,1.452,9.154,9.154,0,0,0,3.333.495,19.83,19.83,0,0,0,4.609-.649,1.215,1.215,0,0,1,.99.165,1.333,1.333,0,0,1,.594.825,1.309,1.309,0,0,1-.176.99A1.292,1.292,0,0,1,146.63-.616ZM144.606-12.65a19.567,19.567,0,0,0-2.541-.473,25.6,25.6,0,0,0-2.673-.187,21.985,21.985,0,0,0-2.464.088,1.294,1.294,0,0,1-.979-.264,1.254,1.254,0,0,1-.495-.88,1.294,1.294,0,0,1,.264-.979,1.254,1.254,0,0,1,.88-.5,21.739,21.739,0,0,1,2.9-.077q1.584.055,3.091.231a20.289,20.289,0,0,1,2.629.462,1.392,1.392,0,0,1,.814.6,1.209,1.209,0,0,1,.154.979,1.241,1.241,0,0,1-.583.825A1.245,1.245,0,0,1,144.606-12.65ZM165.792,1.5a1.234,1.234,0,0,1-.946-.363,1.422,1.422,0,0,1-.44-.935,1.268,1.268,0,0,1,.363-.957,1.239,1.239,0,0,1,.935-.407,8.285,8.285,0,0,0,4.5-1.067,3.3,3.3,0,0,0,1.353-2.849,2.131,2.131,0,0,0-.671-1.65,3.015,3.015,0,0,0-1.76-.737,5.359,5.359,0,0,0-2.387.341,7.945,7.945,0,0,0-2.552,1.562,1.173,1.173,0,0,1-.759.3,1.48,1.48,0,0,1-.8-.209,1.353,1.353,0,0,1-.506-.638,1.288,1.288,0,0,1-.044-.814,22.229,22.229,0,0,0,.55-2.486q.242-1.43.4-2.86-1.078.022-2.024.011t-1.65-.055a1.211,1.211,0,0,1-.869-.462,1.278,1.278,0,0,1-.3-.946,1.211,1.211,0,0,1,.462-.869,1.278,1.278,0,0,1,.946-.3q.726.066,1.683.088t1.991,0q.044-.616.066-1.133t.022-.913a1.313,1.313,0,0,1,.363-.935,1.276,1.276,0,0,1,.913-.407,1.252,1.252,0,0,1,.946.352,1.22,1.22,0,0,1,.4.924q0,.374-.033.88t-.077,1.1a23.085,23.085,0,0,0,3.806-.506,1.251,1.251,0,0,1,.979.187,1.182,1.182,0,0,1,.539.825,1.245,1.245,0,0,1-.176.968,1.231,1.231,0,0,1-.814.55q-.946.176-2.134.308t-2.464.22q-.11.968-.264,1.9T165.022-8.8a8.074,8.074,0,0,1,2.508-.946,7.36,7.36,0,0,1,2.464-.066,5.472,5.472,0,0,1,2.134.77,4.335,4.335,0,0,1,1.5,1.573,4.664,4.664,0,0,1,.55,2.321A5.7,5.7,0,0,1,171.952-.33,10.558,10.558,0,0,1,165.792,1.5Zm25.124-.7a1.292,1.292,0,0,1-.935-.374,1.315,1.315,0,0,1-.407-.924,1.292,1.292,0,0,1,.374-.935,1.315,1.315,0,0,1,.924-.407q6.16-.11,6.16-3.52a2.162,2.162,0,0,0-.77-1.76,3.1,3.1,0,0,0-2.046-.638,6.961,6.961,0,0,0-2.915.693,8.314,8.314,0,0,0-2.739,2.079,1.214,1.214,0,0,1-.737.407A1.262,1.262,0,0,1,187-4.708a1.109,1.109,0,0,1-.55-.561,1.375,1.375,0,0,1-.11-.8q.154-.924.341-2t.407-2.189q.22-1.111.44-2.057a1.178,1.178,0,0,1,.583-.825,1.3,1.3,0,0,1,1-.143,1.282,1.282,0,0,1,.814.6,1.269,1.269,0,0,1,.154,1q-.154.616-.363,1.419t-.429,1.705a8.878,8.878,0,0,1,4.994-1.716,6.178,6.178,0,0,1,2.838.616A4.586,4.586,0,0,1,199-7.942a4.844,4.844,0,0,1,.671,2.574,5.322,5.322,0,0,1-2.156,4.422Q195.36.726,190.916.792Zm3.52-13.772q-.7-.352-1.6-.759t-1.782-.792q-.891-.385-1.573-.649a1.126,1.126,0,0,1-.66-.726,1.34,1.34,0,0,1,.044-1.012,1.227,1.227,0,0,1,.748-.671,1.458,1.458,0,0,1,1.012.033q.726.286,1.573.649t1.705.748q.858.385,1.562.737a1.416,1.416,0,0,1,.693.737,1.282,1.282,0,0,1,.011,1,1.364,1.364,0,0,1-.726.7A1.219,1.219,0,0,1,194.436-12.98ZM218.68-4.026a1.093,1.093,0,0,1-.77-.308,1.169,1.169,0,0,1-.374-.77q-.066-.836-.121-1.914t-.121-2.211q-.066-1.133-.11-2.167t-.066-1.826q-.022-.792-.022-1.166v-2.178a1.448,1.448,0,0,1,.451-1.078,1.557,1.557,0,0,1,1.133-.44,1.585,1.585,0,0,1,1.155.44,1.448,1.448,0,0,1,.451,1.078v2.178q0,.374-.033,1.166t-.077,1.826q-.044,1.034-.1,2.167t-.121,2.211q-.066,1.078-.132,1.914a1.084,1.084,0,0,1-.352.77A1.12,1.12,0,0,1,218.68-4.026Zm0,5.368a1.8,1.8,0,0,1-1.32-.55,1.8,1.8,0,0,1-.55-1.32,1.8,1.8,0,0,1,.55-1.32,1.8,1.8,0,0,1,1.32-.55,1.8,1.8,0,0,1,1.32.55,1.8,1.8,0,0,1,.55,1.32A1.8,1.8,0,0,1,220,.792,1.8,1.8,0,0,1,218.68,1.342Z" transform="translate(1069.82 10027.039)" fill="#fff" opacity="0.999"/><path d="M8.428,4a4.459,4.459,0,1,0,4.428,4.459A4.448,4.448,0,0,0,8.428,4m0-4A8.459,8.459,0,1,1,0,8.459,8.443,8.443,0,0,1,8.428,0Z" transform="translate(1040 10010.148)" fill="#ed8934"/></g></svg>