<svg xmlns="http://www.w3.org/2000/svg" xmlns:xlink="http://www.w3.org/1999/xlink" width="1067.059" height="22.092" viewBox="0 0 1067.059 22.092">
  <defs>
    <clipPath id="clip-path">
      <rect width="1067.058" height="22.092" fill="none"/>
    </clipPath>
  </defs>
  <g id="リピートグリッド_19" data-name="リピートグリッド 19" clip-path="url(#clip-path)">
    <g transform="translate(-453.942 -1414.971)">
      <path id="パス_31619" data-name="パス 31619" d="M-3507,4352.046c-19.375.553-17.75-12.075-35.5-12.075s-17.75,12.075-35.5,12.075-17.75-12.075-35.5-12.075-17.75,12.075-35.5,12.075-17.75-12.075-35.5-12.075-17.75,12.075-35.5,12.075-17.75-12.075-35.5-12.075-17.75,12.075-35.5,12.075-17.75-12.075-35.5-12.075-16.125,12.628-35.5,12.075" transform="translate(4320 -2921)" fill="none" stroke="#ffd86e" stroke-linecap="round" stroke-width="6"/>
    </g>
    <g transform="translate(-97.942 -1414.971)">
      <path id="パス_31619-2" data-name="パス 31619" d="M-3507,4352.046c-19.375.553-17.75-12.075-35.5-12.075s-17.75,12.075-35.5,12.075-17.75-12.075-35.5-12.075-17.75,12.075-35.5,12.075-17.75-12.075-35.5-12.075-17.75,12.075-35.5,12.075-17.75-12.075-35.5-12.075-17.75,12.075-35.5,12.075-17.75-12.075-35.5-12.075-16.125,12.628-35.5,12.075" transform="translate(4320 -2921)" fill="none" stroke="#ffd86e" stroke-linecap="round" stroke-width="6"/>
    </g>
    <g transform="translate(258.058 -1414.971)">
      <path id="パス_31619-3" data-name="パス 31619" d="M-3507,4352.046c-19.375.553-17.75-12.075-35.5-12.075s-17.75,12.075-35.5,12.075-17.75-12.075-35.5-12.075-17.75,12.075-35.5,12.075-17.75-12.075-35.5-12.075-17.75,12.075-35.5,12.075-17.75-12.075-35.5-12.075-17.75,12.075-35.5,12.075-17.75-12.075-35.5-12.075-16.125,12.628-35.5,12.075" transform="translate(4320 -2921)" fill="none" stroke="#ffd86e" stroke-linecap="round" stroke-width="6"/>
    </g>
  </g>
</svg>
