<svg xmlns="http://www.w3.org/2000/svg" xmlns:xlink="http://www.w3.org/1999/xlink" width="852.058" height="27.092" viewBox="0 0 852.058 27.092">
  <defs>
    <clipPath id="clip-path">
      <rect width="852.058" height="27.092" fill="none"/>
    </clipPath>
  </defs>
  <g id="リピートグリッド_9" data-name="リピートグリッド 9" clip-path="url(#clip-path)">
    <g transform="translate(-453.942 -1414.971)">
      <path id="パス_31619" data-name="パス 31619" d="M-3507,4352.046c-19.375.553-17.75-12.075-35.5-12.075s-17.75,12.075-35.5,12.075-17.75-12.075-35.5-12.075-17.75,12.075-35.5,12.075-17.75-12.075-35.5-12.075-17.75,12.075-35.5,12.075-17.75-12.075-35.5-12.075-17.75,12.075-35.5,12.075-17.75-12.075-35.5-12.075-16.125,12.628-35.5,12.075" transform="translate(4322 -2918)" fill="none" stroke="#ed8934" stroke-linecap="round" stroke-width="10"/>
    </g>
    <g transform="translate(-97.942 -1414.971)">
      <path id="パス_31619-2" data-name="パス 31619" d="M-3507,4352.046c-19.375.553-17.75-12.075-35.5-12.075s-17.75,12.075-35.5,12.075-17.75-12.075-35.5-12.075-17.75,12.075-35.5,12.075-17.75-12.075-35.5-12.075-17.75,12.075-35.5,12.075-17.75-12.075-35.5-12.075-17.75,12.075-35.5,12.075-17.75-12.075-35.5-12.075-16.125,12.628-35.5,12.075" transform="translate(4322 -2918)" fill="none" stroke="#ed8934" stroke-linecap="round" stroke-width="10"/>
    </g>
    <g transform="translate(258.058 -1414.971)">
      <path id="パス_31619-3" data-name="パス 31619" d="M-3507,4352.046c-19.375.553-17.75-12.075-35.5-12.075s-17.75,12.075-35.5,12.075-17.75-12.075-35.5-12.075-17.75,12.075-35.5,12.075-17.75-12.075-35.5-12.075-17.75,12.075-35.5,12.075-17.75-12.075-35.5-12.075-17.75,12.075-35.5,12.075-17.75-12.075-35.5-12.075-16.125,12.628-35.5,12.075" transform="translate(4322 -2918)" fill="none" stroke="#ed8934" stroke-linecap="round" stroke-width="10"/>
    </g>
  </g>
</svg>
