<svg xmlns="http://www.w3.org/2000/svg" width="671.303" height="11.563" viewBox="0 0 671.303 11.563"><g transform="translate(-540.058 -434.939)"><path d="M-3640.736,4349.533c-6.378,0-9.442-2.239-12.158-4.225-2.451-1.791-4.567-3.338-9.29-3.338-4.935,0-7.271,1.589-9.976,3.43-2.84,1.932-6.06,4.122-12.226,4.122s-9.385-2.19-12.226-4.122c-2.705-1.84-5.041-3.43-9.976-3.43s-7.271,1.589-9.976,3.429c-2.84,1.933-6.06,4.123-12.226,4.123s-9.385-2.19-12.226-4.122c-2.705-1.84-5.041-3.43-9.976-3.43s-7.271,1.589-9.976,3.43c-2.84,1.932-6.059,4.122-12.226,4.122s-9.385-2.19-12.226-4.122c-2.705-1.84-5.042-3.43-9.976-3.43s-7.271,1.589-9.976,3.43c-2.84,1.932-6.06,4.122-12.226,4.122s-9.385-2.19-12.226-4.122c-2.705-1.84-5.041-3.43-9.976-3.43-4.723,0-6.84,1.547-9.29,3.338-2.716,1.985-5.781,4.225-12.158,4.225-.265,0-.534,0-.811-.012a2,2,0,0,1-1.942-2.056,2,2,0,0,1,2-1.943h.058c5.564.159,7.849-1.511,10.495-3.444s5.622-4.108,11.65-4.108c6.166,0,9.385,2.19,12.226,4.122,2.705,1.84,5.041,3.43,9.976,3.43s7.271-1.589,9.976-3.429c2.84-1.933,6.06-4.123,12.226-4.123s9.386,2.19,12.226,4.122c2.705,1.84,5.042,3.43,9.976,3.43s7.271-1.589,9.976-3.43c2.84-1.932,6.059-4.122,12.226-4.122s9.386,2.19,12.226,4.122c2.705,1.84,5.041,3.43,9.976,3.43s7.271-1.589,9.976-3.43c2.84-1.932,6.06-4.122,12.226-4.122s9.385,2.19,12.226,4.122c2.705,1.84,5.041,3.43,9.976,3.43s7.271-1.589,9.976-3.43c2.84-1.932,6.06-4.122,12.226-4.122,6.029,0,9.015,2.183,11.65,4.108,2.528,1.848,4.728,3.455,9.775,3.455.234,0,.473,0,.72-.01h.058a2,2,0,0,1,2,1.943,2,2,0,0,1-1.942,2.056Q-3640.34,4349.533-3640.736,4349.533Z" transform="translate(4404.059 -3903.032)" fill="#ed8934"/><path d="M-3640.736,4349.533c-6.378,0-9.442-2.239-12.158-4.225-2.451-1.791-4.567-3.338-9.29-3.338-4.935,0-7.271,1.589-9.976,3.43-2.84,1.932-6.06,4.122-12.226,4.122s-9.385-2.19-12.226-4.122c-2.705-1.84-5.041-3.43-9.976-3.43s-7.271,1.589-9.976,3.429c-2.84,1.933-6.06,4.123-12.226,4.123s-9.385-2.19-12.226-4.122c-2.705-1.84-5.041-3.43-9.976-3.43s-7.271,1.589-9.976,3.43c-2.84,1.932-6.059,4.122-12.226,4.122s-9.385-2.19-12.226-4.122c-2.705-1.84-5.042-3.43-9.976-3.43s-7.271,1.589-9.976,3.43c-2.84,1.932-6.06,4.122-12.226,4.122s-9.385-2.19-12.226-4.122c-2.705-1.84-5.041-3.43-9.976-3.43-4.723,0-6.84,1.547-9.29,3.338-2.716,1.985-5.781,4.225-12.158,4.225-.265,0-.534,0-.811-.012a2,2,0,0,1-1.942-2.056,2,2,0,0,1,2-1.943h.058c5.564.159,7.849-1.511,10.495-3.444s5.622-4.108,11.65-4.108c6.166,0,9.385,2.19,12.226,4.122,2.705,1.84,5.041,3.43,9.976,3.43s7.271-1.589,9.976-3.429c2.84-1.933,6.06-4.123,12.226-4.123s9.386,2.19,12.226,4.122c2.705,1.84,5.042,3.43,9.976,3.43s7.271-1.589,9.976-3.43c2.84-1.932,6.059-4.122,12.226-4.122s9.386,2.19,12.226,4.122c2.705,1.84,5.041,3.43,9.976,3.43s7.271-1.589,9.976-3.43c2.84-1.932,6.06-4.122,12.226-4.122s9.385,2.19,12.226,4.122c2.705,1.84,5.041,3.43,9.976,3.43s7.271-1.589,9.976-3.43c2.84-1.932,6.06-4.122,12.226-4.122,6.029,0,9.015,2.183,11.65,4.108,2.528,1.848,4.728,3.455,9.775,3.455.234,0,.473,0,.72-.01h.058a2,2,0,0,1,2,1.943,2,2,0,0,1-1.942,2.056Q-3640.34,4349.533-3640.736,4349.533Z" transform="translate(4626.701 -3903.032)" fill="#ed8934"/><path d="M-3640.736,4349.533c-6.378,0-9.442-2.239-12.158-4.225-2.451-1.791-4.567-3.338-9.29-3.338-4.935,0-7.271,1.589-9.976,3.43-2.84,1.932-6.06,4.122-12.226,4.122s-9.385-2.19-12.226-4.122c-2.705-1.84-5.041-3.43-9.976-3.43s-7.271,1.589-9.976,3.429c-2.84,1.933-6.06,4.123-12.226,4.123s-9.385-2.19-12.226-4.122c-2.705-1.84-5.041-3.43-9.976-3.43s-7.271,1.589-9.976,3.43c-2.84,1.932-6.059,4.122-12.226,4.122s-9.385-2.19-12.226-4.122c-2.705-1.84-5.042-3.43-9.976-3.43s-7.271,1.589-9.976,3.43c-2.84,1.932-6.06,4.122-12.226,4.122s-9.385-2.19-12.226-4.122c-2.705-1.84-5.041-3.43-9.976-3.43-4.723,0-6.84,1.547-9.29,3.338-2.716,1.985-5.781,4.225-12.158,4.225-.265,0-.534,0-.811-.012a2,2,0,0,1-1.942-2.056,2,2,0,0,1,2-1.943h.058c5.564.159,7.849-1.511,10.495-3.444s5.622-4.108,11.65-4.108c6.166,0,9.385,2.19,12.226,4.122,2.705,1.84,5.041,3.43,9.976,3.43s7.271-1.589,9.976-3.429c2.84-1.933,6.06-4.123,12.226-4.123s9.386,2.19,12.226,4.122c2.705,1.84,5.042,3.43,9.976,3.43s7.271-1.589,9.976-3.43c2.84-1.932,6.059-4.122,12.226-4.122s9.386,2.19,12.226,4.122c2.705,1.84,5.041,3.43,9.976,3.43s7.271-1.589,9.976-3.43c2.84-1.932,6.06-4.122,12.226-4.122s9.385,2.19,12.226,4.122c2.705,1.84,5.041,3.43,9.976,3.43s7.271-1.589,9.976-3.43c2.84-1.932,6.06-4.122,12.226-4.122,6.029,0,9.015,2.183,11.65,4.108,2.528,1.848,4.728,3.455,9.775,3.455.234,0,.473,0,.72-.01h.058a2,2,0,0,1,2,1.943,2,2,0,0,1-1.942,2.056Q-3640.34,4349.533-3640.736,4349.533Z" transform="translate(4849.344 -3903.032)" fill="#ed8934"/></g></svg>