<svg xmlns="http://www.w3.org/2000/svg" width="281.995" height="7.96" viewBox="0 0 281.995 7.96">
  <g id="グループ_408525" data-name="グループ 408525" transform="translate(-12351.142 466.561)">
    <path id="パス_31619" data-name="パス 31619" d="M-3723.177,4346.431a11.288,11.288,0,0,1-7.794-2.826,7.96,7.96,0,0,0-5.659-2.134,9.15,9.15,0,0,0-6.1,2.2,12.041,12.041,0,0,1-7.834,2.754,12.042,12.042,0,0,1-7.835-2.754,9.149,9.149,0,0,0-6.1-2.2,9.149,9.149,0,0,0-6.1,2.2,12.042,12.042,0,0,1-7.835,2.754,12.041,12.041,0,0,1-7.834-2.754,9.15,9.15,0,0,0-6.1-2.2,9.149,9.149,0,0,0-6.1,2.2,12.041,12.041,0,0,1-7.834,2.754,12.041,12.041,0,0,1-7.834-2.754,9.151,9.151,0,0,0-6.1-2.2,9.15,9.15,0,0,0-6.1,2.2,12.04,12.04,0,0,1-7.833,2.754,12.041,12.041,0,0,1-7.834-2.754,9.15,9.15,0,0,0-6.1-2.2,7.96,7.96,0,0,0-5.659,2.134,11.288,11.288,0,0,1-7.794,2.826c-.17,0-.344,0-.522-.008a1.5,1.5,0,0,1-1.455-1.544,1.5,1.5,0,0,1,1.5-1.455h.045q.224.007.436.007a8.433,8.433,0,0,0,5.969-2.21,10.9,10.9,0,0,1,7.48-2.75,12.041,12.041,0,0,1,7.834,2.754,9.15,9.15,0,0,0,6.1,2.2,9.147,9.147,0,0,0,6.095-2.2,12.042,12.042,0,0,1,7.835-2.754,12.042,12.042,0,0,1,7.835,2.754,9.149,9.149,0,0,0,6.1,2.2,9.149,9.149,0,0,0,6.1-2.2,12.04,12.04,0,0,1,7.834-2.754,12.041,12.041,0,0,1,7.834,2.754,9.15,9.15,0,0,0,6.1,2.2,9.15,9.15,0,0,0,6.1-2.2,12.041,12.041,0,0,1,7.834-2.754,12.041,12.041,0,0,1,7.834,2.754,9.15,9.15,0,0,0,6.1,2.2,9.15,9.15,0,0,0,6.1-2.2,12.041,12.041,0,0,1,7.834-2.754,10.9,10.9,0,0,1,7.48,2.75,8.436,8.436,0,0,0,5.969,2.21c.142,0,.287,0,.436-.007h.045a1.5,1.5,0,0,1,1.5,1.455,1.5,1.5,0,0,1-1.455,1.544C-3722.832,4346.428-3723.007,4346.431-3723.177,4346.431Z" transform="translate(16214.644 -4805.033)" fill="#ed8934"/>
    <path id="パス_31619-2" data-name="パス 31619" d="M-3723.177,4346.431a11.288,11.288,0,0,1-7.794-2.826,7.96,7.96,0,0,0-5.659-2.134,9.15,9.15,0,0,0-6.1,2.2,12.041,12.041,0,0,1-7.834,2.754,12.042,12.042,0,0,1-7.835-2.754,9.149,9.149,0,0,0-6.1-2.2,9.149,9.149,0,0,0-6.1,2.2,12.042,12.042,0,0,1-7.835,2.754,12.041,12.041,0,0,1-7.834-2.754,9.15,9.15,0,0,0-6.1-2.2,9.149,9.149,0,0,0-6.1,2.2,12.041,12.041,0,0,1-7.834,2.754,12.041,12.041,0,0,1-7.834-2.754,9.151,9.151,0,0,0-6.1-2.2,9.15,9.15,0,0,0-6.1,2.2,12.04,12.04,0,0,1-7.833,2.754,12.041,12.041,0,0,1-7.834-2.754,9.15,9.15,0,0,0-6.1-2.2,7.96,7.96,0,0,0-5.659,2.134,11.288,11.288,0,0,1-7.794,2.826c-.17,0-.344,0-.522-.008a1.5,1.5,0,0,1-1.455-1.544,1.5,1.5,0,0,1,1.5-1.455h.045q.224.007.436.007a8.433,8.433,0,0,0,5.969-2.21,10.9,10.9,0,0,1,7.48-2.75,12.041,12.041,0,0,1,7.834,2.754,9.15,9.15,0,0,0,6.1,2.2,9.147,9.147,0,0,0,6.095-2.2,12.042,12.042,0,0,1,7.835-2.754,12.042,12.042,0,0,1,7.835,2.754,9.149,9.149,0,0,0,6.1,2.2,9.149,9.149,0,0,0,6.1-2.2,12.04,12.04,0,0,1,7.834-2.754,12.041,12.041,0,0,1,7.834,2.754,9.15,9.15,0,0,0,6.1,2.2,9.15,9.15,0,0,0,6.1-2.2,12.041,12.041,0,0,1,7.834-2.754,12.041,12.041,0,0,1,7.834,2.754,9.15,9.15,0,0,0,6.1,2.2,9.15,9.15,0,0,0,6.1-2.2,12.041,12.041,0,0,1,7.834-2.754,10.9,10.9,0,0,1,7.48,2.75,8.436,8.436,0,0,0,5.969,2.21c.142,0,.287,0,.436-.007h.045a1.5,1.5,0,0,1,1.5,1.455,1.5,1.5,0,0,1-1.455,1.544C-3722.832,4346.428-3723.007,4346.431-3723.177,4346.431Z" transform="translate(16354.337 -4805.033)" fill="#ed8934"/>
  </g>
</svg>
