<svg xmlns="http://www.w3.org/2000/svg" xmlns:xlink="http://www.w3.org/1999/xlink" width="368.059" height="13" viewBox="0 0 368.059 13">
  <defs>
    <clipPath id="clip-path">
      <rect width="368.058" height="13" fill="none"/>
    </clipPath>
  </defs>
  <g id="リピートグリッド_22" data-name="リピートグリッド 22" clip-path="url(#clip-path)">
    <g transform="translate(-453.942 -1414.971)">
      <path id="パス_31619" data-name="パス 31619" d="M-3717.734,4344.878c-7.874.225-7.213-4.907-14.427-4.907s-7.214,4.907-14.427,4.907-7.213-4.907-14.427-4.907-7.213,4.907-14.427,4.907-7.213-4.907-14.427-4.907-7.213,4.907-14.427,4.907-7.213-4.907-14.427-4.907-7.213,4.907-14.427,4.907-7.213-4.907-14.426-4.907-6.553,5.132-14.427,4.907" transform="translate(4320 -2921)" fill="none" stroke="#ed8934" stroke-linecap="round" stroke-width="6"/>
    </g>
    <g transform="translate(-307.942 -1414.971)">
      <path id="パス_31619-2" data-name="パス 31619" d="M-3717.734,4344.878c-7.874.225-7.213-4.907-14.427-4.907s-7.214,4.907-14.427,4.907-7.213-4.907-14.427-4.907-7.213,4.907-14.427,4.907-7.213-4.907-14.427-4.907-7.213,4.907-14.427,4.907-7.213-4.907-14.427-4.907-7.213,4.907-14.427,4.907-7.213-4.907-14.426-4.907-6.553,5.132-14.427,4.907" transform="translate(4320 -2921)" fill="none" stroke="#ed8934" stroke-linecap="round" stroke-width="6"/>
    </g>
    <g transform="translate(-161.942 -1414.971)">
      <path id="パス_31619-3" data-name="パス 31619" d="M-3717.734,4344.878c-7.874.225-7.213-4.907-14.427-4.907s-7.214,4.907-14.427,4.907-7.213-4.907-14.427-4.907-7.213,4.907-14.427,4.907-7.213-4.907-14.427-4.907-7.213,4.907-14.427,4.907-7.213-4.907-14.427-4.907-7.213,4.907-14.427,4.907-7.213-4.907-14.426-4.907-6.553,5.132-14.427,4.907" transform="translate(4320 -2921)" fill="none" stroke="#ed8934" stroke-linecap="round" stroke-width="6"/>
    </g>
  </g>
</svg>
