<svg xmlns="http://www.w3.org/2000/svg" xmlns:xlink="http://www.w3.org/1999/xlink" width="204.287" height="27.782" viewBox="0 0 204.287 27.782">
  <defs>
    <clipPath id="clip-path">
      <rect id="長方形_49886" data-name="長方形 49886" width="27.883" height="27.782" fill="none"/>
    </clipPath>
  </defs>
  <g id="グループ_259281" data-name="グループ 259281" transform="translate(-1639.518 237.74)">
    <g id="グループ_259276" data-name="グループ 259276" transform="translate(1672.05 -235.886)">
      <g id="グループ_259273" data-name="グループ 259273" transform="translate(0 0)">
        <g id="グループ_259272" data-name="グループ 259272">
          <path id="パス_32132" data-name="パス 32132" d="M205.425,16.309a.613.613,0,0,1,.605-.615h1.927V11.813h-1.386a.606.606,0,1,1,0-1.211H210.4a.606.606,0,0,1,0,1.211h-1.23v3.881h1.743a.61.61,0,1,1,0,1.22h-4.881A.611.611,0,0,1,205.425,16.309Z" transform="translate(-205.425 -9.905)" fill="#60432e"/>
          <path id="パス_32133" data-name="パス 32133" d="M274.433,25.181a.6.6,0,0,1,.6-.6h5.9a.6.6,0,0,1,.6.6.6.6,0,0,1-.6.606h-5.9A.6.6,0,0,1,274.433,25.181Z" transform="translate(-263.248 -21.621)" fill="#60432e"/>
          <path id="パス_32134" data-name="パス 32134" d="M349.418,15.481a.63.63,0,0,1,.037-.872,29.316,29.316,0,0,0,3.184-3.477,1.974,1.974,0,0,0,.312-1.4h-2.413a.61.61,0,1,1,0-1.22h2.954a.664.664,0,0,1,.661.725c0,1.367.018,1.8-.477,2.514,0,0-.165.2-.441.532l2.211,2.321a.611.611,0,0,1-.046.862.628.628,0,0,1-.862-.037l-2.083-2.248c-.679.762-1.459,1.67-2.175,2.34A.61.61,0,0,1,349.418,15.481Z" transform="translate(-325.948 -8.15)" fill="#60432e"/>
          <path id="パス_32135" data-name="パス 32135" d="M425.483,9.382a.607.607,0,0,1-.605.615h-1.5a13.4,13.4,0,0,1-1.2,3.753.652.652,0,0,1-.844.3.611.611,0,0,1-.266-.817A10.758,10.758,0,0,0,422.189,10h-2.624a.61.61,0,0,1,0-1.22h2.578A8.423,8.423,0,0,0,421.9,7.9l-1.1.275a.61.61,0,0,1-.294-1.183l2.707-.67a.609.609,0,0,1,.734.44.6.6,0,0,1-.441.734l-.459.128c.11.441.239.8.3,1.156h1.523A.6.6,0,0,1,425.483,9.382Z" transform="translate(-384.35 -6.299)" fill="#60432e"/>
          <path id="パス_32136" data-name="パス 32136" d="M499.824,17.713a.853.853,0,0,1-.064.3,4.849,4.849,0,0,1-1.046,1.477.687.687,0,0,1-.431.156.518.518,0,0,1-.5-.541.553.553,0,0,1,.193-.422c.147-.156.266-.294.367-.422h-1.376c.083.606.395,2.284.606,3.422a.485.485,0,0,1-.459.56.573.573,0,0,1-.642-.459s-.6-3.422-.615-3.523h-.936a.552.552,0,0,1-.55-.551.535.535,0,0,1,.55-.551h.734c-.028-.183-.1-.468-.137-.688a.536.536,0,0,1,.468-.587.588.588,0,0,1,.642.449s.128.734.147.826h2.5A.564.564,0,0,1,499.824,17.713Z" transform="translate(-447.535 -14.328)" fill="#60432e"/>
          <path id="パス_32137" data-name="パス 32137" d="M561.28,11.334a.612.612,0,0,1,.275-.817,16.213,16.213,0,0,0,4.166-2.725.678.678,0,0,1,.881-.11.6.6,0,0,1,.074.862,6.144,6.144,0,0,1-1.1.973v4.826a.611.611,0,0,1-.606.606.6.6,0,0,1-.605-.606V10.325c-.605.358-1.349.817-2.276,1.284A.592.592,0,0,1,561.28,11.334Z" transform="translate(-503.55 -7.361)" fill="#60432e"/>
          <path id="パス_32138" data-name="パス 32138" d="M632.464,15.195a.619.619,0,0,1-.138-.853,15.438,15.438,0,0,0,1.266-2.294,1.826,1.826,0,0,0,.128-.826c0-.661.009-.908-.009-1.679a.605.605,0,1,1,1.211-.018c0,.954.009,1.688-.009,2.129a9.157,9.157,0,0,1-1.569,3.358A.655.655,0,0,1,632.464,15.195Zm7.037-2.523a.629.629,0,0,1,.009.881,5.423,5.423,0,0,1-1.633,1.5,3.554,3.554,0,0,1-1.569.449.576.576,0,0,1-.606-.633v-5.8a.606.606,0,1,1,1.211,0v5.129a1.134,1.134,0,0,0,.4-.147,4.756,4.756,0,0,0,1.34-1.284A.584.584,0,0,1,639.5,12.671Z" transform="translate(-563.045 -8.102)" fill="#60432e"/>
          <path id="パス_32139" data-name="パス 32139" d="M716.136,11.383l-2.431-.752v3.422a.61.61,0,0,1-1.22,0V7.585a.61.61,0,0,1,1.22,0V9.374c.991.284,2.807.853,2.807.853a.6.6,0,0,1,.395.752A.623.623,0,0,1,716.136,11.383Zm.165-3.248v.5a.454.454,0,1,1-.908,0v-.5a.454.454,0,0,1,.908,0Zm1.156,0v.5a.454.454,0,1,1-.908,0v-.5a.454.454,0,0,1,.908,0Z" transform="translate(-630.302 -6.869)" fill="#60432e"/>
        </g>
      </g>
      <g id="グループ_259275" data-name="グループ 259275" transform="translate(0 9.598)">
        <g id="グループ_259274" data-name="グループ 259274">
          <path id="パス_32140" data-name="パス 32140" d="M205.441,107.91a3.3,3.3,0,0,1,.065-1.036.91.91,0,0,1,1.191-.622c.44.194.453.57.388,1.217-.078.841.609,1.023,2.007,1.049a8.718,8.718,0,0,0,1.929-.194.806.806,0,0,1,1.01.583.95.95,0,0,1-.686,1.1,9.715,9.715,0,0,1-2.292.22C206.075,110.189,205.505,108.752,205.441,107.91Zm.052-5.93a.846.846,0,0,1,.855-.854h4.738a.932.932,0,0,1,.919.945,1.586,1.586,0,0,1-.168.466l-1.217,1.761a.886.886,0,0,1-1.217.22.835.835,0,0,1-.194-1.191l.362-.492h-3.224A.854.854,0,0,1,205.493,101.98Z" transform="translate(-205.426 -95.355)" fill="#60432e"/>
          <path id="パス_32141" data-name="パス 32141" d="M282.919,99.969l-1.243-3.522a.852.852,0,0,1,1.618-.531l.932,2.874c.4-.363.764-.673,1.774-1.528a.873.873,0,0,1,1.217.078.846.846,0,0,1-.091,1.2c-2.447,2.084-2.4,1.981-3.47,2.978-.57.531-.855,1.062-.725,1.567.168.6.531.725,1.735.777a10.952,10.952,0,0,0,2.421-.259.82.82,0,0,1,.945.725.96.96,0,0,1-.764,1.023,12.106,12.106,0,0,1-2.667.246c-2.564-.1-3.275-1.334-3.314-2.369C281.236,102.079,281.495,101.329,282.919,99.969Zm6.37-3.975v.712a.641.641,0,1,1-1.282,0v-.712a.641.641,0,1,1,1.282,0Zm1.631,0v.712a.641.641,0,1,1-1.282,0v-.712a.641.641,0,1,1,1.282,0Z" transform="translate(-268.987 -90.496)" fill="#60432e"/>
          <path id="パス_32142" data-name="パス 32142" d="M368.2,95.1c.039-.285.065-.6.1-.906h-.5a.854.854,0,0,1,0-1.709h.7c.052-.5.1-1.01.155-1.541a.878.878,0,0,1,.945-.777.859.859,0,0,1,.764.945c-.052.466-.091.919-.142,1.372h.958a.854.854,0,1,1,0,1.709h-1.152c-.026.311-.065.609-.1.906h1.165a.854.854,0,0,1,0,1.709H369.7l-.207,1.838c-.168,1.4.906,1.528,1.45,1.5.867-.052,1-.958.738-1.813a.794.794,0,0,1,.544-1.113.934.934,0,0,1,1.1.764,3.533,3.533,0,0,1-.414,2.926,2.443,2.443,0,0,1-1.864.945,2.935,2.935,0,0,1-3.263-3.4l.207-1.644h-.349a.854.854,0,1,1,0-1.709Z" transform="translate(-340.632 -86.17)" fill="#60432e"/>
          <path id="パス_32143" data-name="パス 32143" d="M444.859,104.7a2.425,2.425,0,0,0-2.68-2.473,2.925,2.925,0,0,0-3.172,2.835c-.013.841.246,1.463.647,1.5.44.026,1.01-1.023,1.4-2.9a.85.85,0,0,1,1.683.233c-.3,1.5-1.152,4.492-3.12,4.505-1.126,0-2.266-1.32-2.227-3.379a4.6,4.6,0,0,1,4.764-4.376,4.106,4.106,0,0,1,4.389,4.078,6.492,6.492,0,0,1-2.771,5.049.99.99,0,0,1-1.308-.117.888.888,0,0,1,.194-1.2C444.121,107.156,444.846,106.224,444.859,104.7Z" transform="translate(-399.792 -94.951)" fill="#60432e"/>
          <path id="パス_32144" data-name="パス 32144" d="M517.572,102.431l1.411-6.37h-.621a.854.854,0,1,1,0-1.709h1l.259-1.139a.853.853,0,0,1,1.67.349l-.168.79h1.334a.855.855,0,1,1,0,1.709h-1.722l-1.476,6.719a.858.858,0,0,1-1.023.66A.848.848,0,0,1,517.572,102.431Zm6.771.958c-1.657-.155-2.447-.932-2.266-2.667a.822.822,0,0,1,.893-.764c.35.013.816.285.777.738-.078.7.065.945.751,1a4.886,4.886,0,0,0,1.152-.039.8.8,0,0,1,.971.738.911.911,0,0,1-.79.958A6.238,6.238,0,0,1,524.343,103.389Zm2.149-6.227a1.6,1.6,0,0,1-.155.531l-.932,1.424a.854.854,0,0,1-1.165.324.774.774,0,0,1-.246-1.113l.259-.311h-1.165a.854.854,0,1,1,0-1.709h2.537A.856.856,0,0,1,526.492,97.162Z" transform="translate(-466.926 -88.154)" fill="#60432e"/>
          <path id="パス_32145" data-name="パス 32145" d="M606.774,102.483a5.11,5.11,0,0,1-2.745,4.687,1.051,1.051,0,0,1-1.308-.142.838.838,0,0,1,.272-1.217c1.735-1.308,2.071-2.046,2.136-3.081.052-.958-.259-1.9-1.282-2.071-.725,1.605-1.58,3.547-2.084,4.337-.544.855-1.062,1.411-2.1,1.308-1.23-.117-2.046-1.722-2.046-3.3a3.472,3.472,0,0,1,1.631-2.965l-.35-1.58a.809.809,0,0,1,.7-1.01.853.853,0,0,1,1,.686l.246,1.152a7.987,7.987,0,0,1,1.929-.35c.13-.285.324-.829.44-1.075a.858.858,0,1,1,1.566.7c-.078.194-.129.324-.233.6A3.3,3.3,0,0,1,606.774,102.483Zm-5.787.414a.708.708,0,0,1-.233.078.876.876,0,0,1-1.062-.673l-.091-.492a2.043,2.043,0,0,0-.414,1.049c-.091.829.3,1.7.66,1.7S600.638,103.609,600.987,102.9Zm1.022-2.227a3.334,3.334,0,0,0-.854.22l.233,1.152A13.2,13.2,0,0,0,602.01,100.67Z" transform="translate(-534.055 -92.194)" fill="#60432e"/>
          <path id="パス_32146" data-name="パス 32146" d="M684.483,104.7a2.425,2.425,0,0,0-2.68-2.473,2.925,2.925,0,0,0-3.172,2.835c-.013.841.246,1.463.647,1.5.44.026,1.01-1.023,1.4-2.9a.85.85,0,0,1,1.683.233c-.3,1.5-1.152,4.492-3.12,4.505-1.126,0-2.266-1.32-2.227-3.379a4.6,4.6,0,0,1,4.764-4.376,4.106,4.106,0,0,1,4.389,4.078,6.492,6.492,0,0,1-2.771,5.049.99.99,0,0,1-1.308-.117.888.888,0,0,1,.194-1.2C683.745,107.156,684.47,106.224,684.483,104.7Z" transform="translate(-600.579 -94.951)" fill="#60432e"/>
          <path id="パス_32147" data-name="パス 32147" d="M759.118,81.269l4.257-4.887h-3.116a1.124,1.124,0,1,1,0-2.248h10.148a1.108,1.108,0,0,1,1.124,1.107,1.126,1.126,0,0,1-1.124,1.141h-4.138l-5.4,6.351a1.21,1.21,0,0,1-1.635.136A1.133,1.133,0,0,1,759.118,81.269Zm6.334,7.713a1.2,1.2,0,0,1-1.209-1.209V79.941a1.2,1.2,0,1,1,2.4,0v7.832A1.2,1.2,0,0,1,765.452,88.983Zm4.853-7.066h-2.094a1.124,1.124,0,1,1,0-2.248H770.3a1.124,1.124,0,0,1,0,2.248Z" transform="translate(-669.147 -72.739)" fill="#60432e"/>
          <path id="パス_32148" data-name="パス 32148" d="M865.345,68.347a1.1,1.1,0,0,1-.085.409l1.941-1.124v-.272h-.153a.927.927,0,0,1-.9-.936.974.974,0,0,1,.988-.9h1.4a.942.942,0,0,1,.937.919V67.5L874,70.322h.034a1.13,1.13,0,0,1,1.124,1.158,1.106,1.106,0,0,1-1.124,1.141h-.255a1.994,1.994,0,0,1-.919-.289l-.715-.477a.967.967,0,0,1-.971.885h-5.807a.978.978,0,0,1-.97-.868l-1,.63a1.22,1.22,0,0,1-1.618-.409,1.164,1.164,0,0,1,.494-1.549l1.771-1.073h-.545a1.124,1.124,0,1,1,0-2.247h.732A1.123,1.123,0,0,1,865.345,68.347Zm-2.418,11.425H864.1a1.183,1.183,0,0,1-.085-.426l.017-.375a1.124,1.124,0,1,1,2.248,0v.375a1.186,1.186,0,0,1-.085.426h4.189a1.068,1.068,0,0,1-.1-.46v-.374a1.132,1.132,0,0,1,2.264,0v.374a1.068,1.068,0,0,1-.1.46h1.192a1.03,1.03,0,1,1,0,2.06h-10.71a1.03,1.03,0,1,1,0-2.06Zm2.554-1.975a1.121,1.121,0,0,1-1.124-1.175V74.442a1.134,1.134,0,0,1,1.124-1.124h5.687a1.137,1.137,0,0,1,1.141,1.124v2.179a1.055,1.055,0,0,1-1.022,1.141A27.669,27.669,0,0,1,865.482,77.8Zm.494-7h4.546l-2.179-1.43Zm.647,5.176a28.741,28.741,0,0,0,3.422-.017v-.766h-3.422Zm5.023-7.475a1.123,1.123,0,0,1-1.124-1.124v-.306a1.124,1.124,0,0,1,2.248,0v.306A1.134,1.134,0,0,1,871.645,68.5Zm2.4,1.107a1.134,1.134,0,0,1-1.124-1.124v-.306a1.124,1.124,0,1,1,2.248,0v.306A1.123,1.123,0,0,1,874.046,69.607Z" transform="translate(-755.282 -65.52)" fill="#60432e"/>
          <path id="パス_32149" data-name="パス 32149" d="M962.874,80.558v-5.04l-.272.358a1.023,1.023,0,0,1-1.43.136,1.007,1.007,0,0,1-.136-1.43l1.839-2.265v-.153h-.545a1.124,1.124,0,1,1,0-2.248h.545V68.162a1.09,1.09,0,1,1,2.179,0v1.754h.323a1.124,1.124,0,1,1,0,2.248h-.323V72.3l1.175,1.124a1.017,1.017,0,0,1,.017,1.43.987.987,0,0,1-1.192.2v5.5a1.09,1.09,0,1,1-2.179,0Zm13.043.17a1.145,1.145,0,0,1-1.09,1.192l-.323.017a1.709,1.709,0,0,1-1.362-.681l-2.282-2.384-2.128,2.554a1.2,1.2,0,0,1-1.635.188,1.145,1.145,0,0,1-.136-1.584l2.367-2.844-1.209-1.362a1.114,1.114,0,0,1,.119-1.583,1.127,1.127,0,0,1,1.583.119l.9,1.022,1.107-1.362a1.127,1.127,0,1,1,1.771,1.4l-1.328,1.652,2.435,2.52h.119A1.1,1.1,0,0,1,975.917,80.728Zm-.409-12.106a1.112,1.112,0,0,1-1.124,1.124h-6.164a1.124,1.124,0,1,1,0-2.248h1.856v-.664a1.214,1.214,0,0,1,1.209-1.209,1.2,1.2,0,0,1,1.192,1.209V67.5h1.907A1.123,1.123,0,0,1,975.508,68.622Zm-5.619,1.839a1.146,1.146,0,0,1-.034,1.6l-.766.647a1.127,1.127,0,0,1-1.533-1.652l.749-.647A1.126,1.126,0,0,1,969.889,70.461Zm5.261.7a1.111,1.111,0,0,1,.051,1.583,1.131,1.131,0,0,1-1.6.051l-.749-.647a1.147,1.147,0,0,1-.051-1.6,1.131,1.131,0,0,1,1.6-.034Z" transform="translate(-838.371 -65.608)" fill="#60432e"/>
          <path id="パス_32150" data-name="パス 32150" d="M1065.79,75.628a1.131,1.131,0,0,1,.034-1.6L1068.7,71.2a1.13,1.13,0,0,1,1.6,0,1.115,1.115,0,0,1-.017,1.6l-.46.46v9.961a1.124,1.124,0,1,1-2.248,0V75.458l-.187.187A1.146,1.146,0,0,1,1065.79,75.628Zm14.49,6.521a1.112,1.112,0,0,1-1.107,1.141h-.34a1.57,1.57,0,0,1-1-.528l-1.6-1.515v2.469a1.134,1.134,0,0,1-1.124,1.124,1.123,1.123,0,0,1-1.124-1.124V81.264l-1.89,1.652a1.185,1.185,0,0,1-1.669.068,1.151,1.151,0,0,1,0-1.618l2.537-2.163h-1.652a1.124,1.124,0,1,1,0-2.248h2.673V76.5a1.124,1.124,0,0,1,2.248,0v.46h2.588a1.124,1.124,0,1,1,0,2.248H1077.3l2.094,1.8A1.171,1.171,0,0,1,1080.28,82.149ZM1078.9,70.213V74.1a1.139,1.139,0,0,1-1.124,1.09,37.9,37.9,0,0,1-4.87.034,1.145,1.145,0,0,1-1.124-1.124V70.213a1.1,1.1,0,0,1,1.158-1.124h4.836A1.123,1.123,0,0,1,1078.9,70.213Zm-2.248,1.124h-2.622v1.669a16.829,16.829,0,0,0,2.622,0Z" transform="translate(-926.081 -68.511)" fill="#60432e"/>
          <path id="パス_32151" data-name="パス 32151" d="M1191.724,84.777h-.153a1.471,1.471,0,0,1-1.056-.459l-2.6-2.895-2.98,3.065a1.152,1.152,0,0,1-1.618.051,1.126,1.126,0,0,1-.034-1.583l3.1-3.184c-.426-.034-.9-.068-1.192-.1a1.027,1.027,0,0,1-.953-.971V75.616a.967.967,0,0,1,.953-.971h1.686v-.392H1185.7a.893.893,0,0,1-.817-.971c-.034,0-.29.187-.306.187a1.068,1.068,0,0,1-1.362-.238.017.017,0,0,0-.017-.017c-.273,1.073-.562,2.214-.562,2.214l1.141,3.269a1.037,1.037,0,0,1-.528,1.362l-.937.409a1.028,1.028,0,0,1-1.243-.664.971.971,0,0,1,.562-1.243l.051-.017-.732-2.128v7.3a1.032,1.032,0,0,1-1.039,1.039,1.018,1.018,0,0,1-1.022-1.039V71.206a1.008,1.008,0,0,1,.988-.868l2.844.017a1,1,0,0,1,.919,1.141c.613-.477,2.026-1.6,2.026-1.6a2.938,2.938,0,0,1,2.077-.7,3.156,3.156,0,0,1,2.009.647c.375.255,2.4,1.737,2.4,1.737a1.226,1.226,0,0,1,.2,1.669,1.264,1.264,0,0,1-1.4.256c-.034-.017-.46-.324-.494-.341v.119a.966.966,0,0,1-.953.971h-.715v.392h1.617a.97.97,0,0,1,.97.971V78.7a.95.95,0,0,1-.885.971c-.255.051-.834.068-1.141.1l2.622,2.724a1.132,1.132,0,0,1,.885,1.107A1.091,1.091,0,0,1,1191.724,84.777Zm-10.2-12.481-.579-.017v2.605Zm5.347,4.291h-.715v1.226c.17.017.545.017.715.034Zm2.52-4.274c-.408-.324-.885-.647-1.175-.851a.783.783,0,0,0-.46-.153.916.916,0,0,0-.511.17c-.255.2-.681.528-1.056.834Zm-.6,5.5c.153,0,.511-.017.664-.034V76.587h-.664Z" transform="translate(-1021.111 -68.601)" fill="#60432e"/>
        </g>
      </g>
    </g>
    <g id="グループ_259280" data-name="グループ 259280" transform="translate(1639.518 -237.74)">
      <g id="グループ_259279" data-name="グループ 259279" clip-path="url(#clip-path)">
        <path id="パス_32156" data-name="パス 32156" d="M49.846,40.185V34.093a.621.621,0,0,0-.447-.621l-6.477-2.118a1.767,1.767,0,0,0-1.056,0l-6.5,2.124a.621.621,0,0,0-.447.621v6.092a8.664,8.664,0,0,0,6.888,8.471,2.773,2.773,0,0,0,1.168,0,8.657,8.657,0,0,0,6.869-8.477m-2.484,0a6.211,6.211,0,0,1-4.906,6.037h-.062V39.968H37.425V35.422l4.968-1.627v6.173h4.968Z" transform="translate(-28.161 -25.219)" fill="#eb8935"/>
        <path id="パス_32157" data-name="パス 32157" d="M16.279,3.959a9.685,9.685,0,0,1,8.07,4.434l.2-.081,4.976-1.887a.715.715,0,0,0,.007-1.319L16.663.044a.641.641,0,0,0-.467,0L3.029,5.117a.715.715,0,0,0,0,1.32L7.712,8.243a.65.65,0,0,0,.762-.233,9.653,9.653,0,0,1,7.8-4.051" transform="translate(-2.088 0.001)" fill="#ecb435"/>
        <path id="パス_32158" data-name="パス 32158" d="M1.839,33.783V29.629H.5v4.154a1.169,1.169,0,0,0-.5.962v2.633H2.343V34.745a1.169,1.169,0,0,0-.5-.962" transform="translate(0 -23.893)" fill="#ecb435"/>
        <path id="パス_32159" data-name="パス 32159" d="M37.225,104.421a8.751,8.751,0,0,1-15.9,0H18.664a11.222,11.222,0,0,0,21.22,0Z" transform="translate(-15.051 -84.206)" fill="#ecb435"/>
      </g>
    </g>
  </g>
</svg>
