<svg xmlns="http://www.w3.org/2000/svg" width="215" height="75.549" viewBox="0 0 215 75.549">
  <g id="レイヤー_2" data-name="レイヤー 2" transform="translate(0.032)">
    <g id="レイヤー_1" data-name="レイヤー 1" transform="translate(-0.032)">
      <path id="パス_38011" data-name="パス 38011" d="M22.38,16.729C27.951,7.508,36.078,1.311,44.442,0a33.518,33.518,0,0,0-5.214,6.033,69.33,69.33,0,0,0-6.056,11.1,70.76,70.76,0,0,0-10.793-.4Z" transform="translate(-5.687)" fill="#aacf52"/>
      <path id="パス_38012" data-name="パス 38012" d="M37.837,28.66A107.652,107.652,0,0,0,31.2,53.441a95.206,95.206,0,0,0,10.808,3.583,96.086,96.086,0,0,0,11.173,2.3A104.34,104.34,0,0,0,57.24,47.132a105.765,105.765,0,0,0,2.577-12.588A98.818,98.818,0,0,0,37.859,28.66Z" transform="translate(-7.937 -7.313)" fill="#aacf52"/>
      <path id="パス_38013" data-name="パス 38013" d="M84.36,31.316A70.4,70.4,0,0,0,74.8,26.273a68.527,68.527,0,0,0,.276-12.662A33.629,33.629,0,0,0,73.59,5.79C80.2,11.116,84.144,20.545,84.36,31.316Z" transform="translate(-18.753 -1.477)" fill="#aacf52"/>
      <path id="パス_38014" data-name="パス 38014" d="M10.047,74.308A37.585,37.585,0,0,1-.008,47.36a29.719,29.719,0,0,0,5.6,5.549,44.154,44.154,0,0,0,4.454,21.4Z" transform="translate(0.032 -12.084)" fill="#aacf52"/>
      <path id="パス_38015" data-name="パス 38015" d="M63.076,23.351a104.161,104.161,0,0,0-10.264-3.344A103.338,103.338,0,0,0,42.25,17.772C47.65,6.063,54.041-.543,58.033.522S64.275,10.48,63.076,23.351Z" transform="translate(-10.757 -0.105)" fill="#aacf52"/>
      <path id="パス_38016" data-name="パス 38016" d="M30.464,67.29a102.983,102.983,0,0,0,10.271,3.337A97.787,97.787,0,0,0,51.3,72.861C45.9,84.615,39.506,91.184,35.514,90.119S29.294,80.161,30.464,67.29Z" transform="translate(-7.67 -17.17)" fill="#aacf52"/>
      <path id="パス_38017" data-name="パス 38017" d="M72.353,38.68A62.969,62.969,0,0,1,82.3,44.3,51.254,51.254,0,0,1,77.433,62.47,62.722,62.722,0,0,1,66,62.358a107.532,107.532,0,0,0,3.836-11.664A107.347,107.347,0,0,0,72.353,38.68Z" transform="translate(-16.817 -9.87)" fill="#aacf52"/>
      <path id="パス_38018" data-name="パス 38018" d="M12.74,58.44a71.185,71.185,0,0,0,9.549,5.043,68.437,68.437,0,0,0-.268,12.662,33.257,33.257,0,0,0,1.49,7.813C16.889,78.648,12.934,69.21,12.74,58.44Z" transform="translate(-3.227 -14.912)" fill="#aacf52"/>
      <path id="パス_38019" data-name="パス 38019" d="M96.112,59.169c-.67,2.525-3.769,4.469-8.662,5.534a53.809,53.809,0,0,0,2.473-7.2,53.51,53.51,0,0,0,1.49-7.448C95.085,53.419,96.8,56.644,96.112,59.169Z" transform="translate(-22.29 -12.773)" fill="#aacf52"/>
      <path id="パス_38020" data-name="パス 38020" d="M22.844,51.586A62.872,62.872,0,0,1,12.9,45.978,51.558,51.558,0,0,1,17.771,27.8a61.412,61.412,0,0,1,11.426.089,111.443,111.443,0,0,0-6.353,23.671Z" transform="translate(-3.268 -7.037)" fill="#aacf52"/>
      <path id="パス_38021" data-name="パス 38021" d="M28,1.09A44.311,44.311,0,0,0,13.46,17.409a29.488,29.488,0,0,0-7.62,2.019A37.637,37.637,0,0,1,28,1.09Z" transform="translate(-1.466 -0.278)" fill="#aacf52"/>
      <path id="パス_38022" data-name="パス 38022" d="M7.832,35.965a54.582,54.582,0,0,0-1.445,7.448C2.663,40.047.972,36.822,1.65,34.3s3.769-4.469,8.662-5.534A54.791,54.791,0,0,0,7.832,35.965Z" transform="translate(-0.36 -7.341)" fill="#aacf52"/>
      <path id="パス_38023" data-name="パス 38023" d="M87.29,15A37.614,37.614,0,0,1,97.316,41.956a29.481,29.481,0,0,0-5.6-5.542A44.2,44.2,0,0,0,87.29,15Z" transform="translate(-22.249 -3.827)" fill="#aacf52"/>
      <path id="パス_38024" data-name="パス 38024" d="M46,92.684a39.13,39.13,0,0,0,26.494-2.935c8.111-4.186,10.428-12.245,6.912-14.763-7.1-5.087-12.662,4.655-12.662,4.655s1.721-4.275-1.49-5.385-7.448-.648-8.938,8.558C55.035,90.263,46,92.684,46,92.684Z" transform="translate(-11.714 -18.758)" fill="#f8b602"/>
      <path id="パス_38025" data-name="パス 38025" d="M135.715,36.1h3.843a1.356,1.356,0,0,0,1.356-1.356V29.8a1.356,1.356,0,0,0-1.356-1.356H134.74c-8.566,0-14.1,5.959-14.1,15.187V53.683h-5.884a1.363,1.363,0,0,0-1.356,1.356v4.179a1.356,1.356,0,0,0,1.356,1.356h5.884V81.428A1.363,1.363,0,0,0,122,82.784H127.6a1.356,1.356,0,0,0,1.356-1.356V60.572h10.607a1.348,1.348,0,0,0,1.356-1.356V55.038a1.356,1.356,0,0,0-1.356-1.356H128.952V43.523C128.952,38.54,131.164,36.1,135.715,36.1Z" transform="translate(-28.911 -7.257)" fill="#7d7d7d"/>
      <path id="パス_38026" data-name="パス 38026" d="M220.429,75.149h-3.851c-5.05,0-6.756-1.9-6.756-7.53V29.8a1.363,1.363,0,0,0-1.356-1.356h-5.6A1.363,1.363,0,0,0,201.51,29.8V67.738c0,9.437,5.266,15.068,14.092,15.068h4.827a1.363,1.363,0,0,0,1.363-1.356V76.527a1.363,1.363,0,0,0-1.363-1.378Z" transform="translate(-51.393 -7.257)" fill="#7d7d7d"/>
      <rect id="長方形_52070" data-name="長方形 52070" width="8.305" height="29.123" rx="1.82" transform="translate(181.847 46.426)" fill="#7d7d7d"/>
      <path id="パス_38027" data-name="パス 38027" d="M247.838,38a5.415,5.415,0,1,0,3.842,1.562A5.415,5.415,0,0,0,247.838,38Z" transform="translate(-61.842 -9.696)" fill="#aacf52"/>
      <path id="パス_38028" data-name="パス 38028" d="M282.727,62.33h-5.6a1.371,1.371,0,0,0-1.356,1.356V90.1a1.363,1.363,0,0,0,1.356,1.356h5.6a1.356,1.356,0,0,0,1.356-1.356V63.686A1.356,1.356,0,0,0,282.727,62.33Z" transform="translate(-70.342 -15.904)" fill="#7d7d7d"/>
      <path id="パス_38029" data-name="パス 38029" d="M279.495,38a5.415,5.415,0,0,0,0,10.83h0a5.415,5.415,0,0,0,0-10.83Z" transform="translate(-69.91 -9.696)" fill="#aacf52"/>
      <rect id="長方形_52071" data-name="長方形 52071" width="8.312" height="29.123" rx="1.82" transform="translate(127.213 46.426)" fill="#7d7d7d"/>
      <path id="パス_38030" data-name="パス 38030" d="M174.485,38a5.415,5.415,0,1,0,5.415,5.408A5.415,5.415,0,0,0,174.485,38Z" transform="translate(-43.116 -9.696)" fill="#aacf52"/>
    </g>
  </g>
</svg>
