<svg xmlns="http://www.w3.org/2000/svg" xmlns:xlink="http://www.w3.org/1999/xlink" width="433.78" height="77.301" viewBox="0 0 433.78 77.301">
  <defs>
    <clipPath id="clip-path">
      <rect id="長方形_49886" data-name="長方形 49886" width="72.437" height="72.175" fill="none"/>
    </clipPath>
  </defs>
  <g id="グループ_408702" data-name="グループ 408702" transform="translate(12672.41 12400.521)">
    <g id="グループ_259273" data-name="グループ 259273" transform="translate(-12581.214 -12400.521)">
      <g id="グループ_259272" data-name="グループ 259272">
        <path id="パス_32132" data-name="パス 32132" d="M205.425,21.985a1.222,1.222,0,0,1,1.208-1.226h3.843V13.018h-2.764a1.208,1.208,0,1,1,0-2.416h7.632a1.208,1.208,0,0,1,0,2.416h-2.452v7.742h3.477a1.217,1.217,0,1,1,0,2.434h-9.737A1.218,1.218,0,0,1,205.425,21.985Z" transform="translate(-205.425 -9.211)" fill="#60432e"/>
        <path id="パス_32133" data-name="パス 32133" d="M274.433,25.774a1.187,1.187,0,0,1,1.19-1.189H287.39a1.187,1.187,0,0,1,1.19,1.189,1.2,1.2,0,0,1-1.19,1.208H275.623A1.2,1.2,0,0,1,274.433,25.774Z" transform="translate(-252.124 -18.673)" fill="#60432e"/>
        <path id="パス_32134" data-name="パス 32134" d="M349.575,22.416a1.257,1.257,0,0,1,.073-1.739A58.472,58.472,0,0,0,356,13.742a3.938,3.938,0,0,0,.622-2.8h-4.813a1.217,1.217,0,1,1,0-2.434H357.7a1.325,1.325,0,0,1,1.318,1.446c0,2.727.037,3.587-.952,5.014,0,0-.329.4-.879,1.061l4.411,4.63a1.218,1.218,0,0,1-.092,1.72,1.252,1.252,0,0,1-1.72-.073l-4.154-4.484c-1.355,1.519-2.91,3.331-4.337,4.667A1.216,1.216,0,0,1,349.575,22.416Z" transform="translate(-302.761 -7.794)" fill="#60432e"/>
        <path id="パス_32135" data-name="パス 32135" d="M431.971,12.448a1.211,1.211,0,0,1-1.208,1.226H427.78a26.722,26.722,0,0,1-2.4,7.485,1.3,1.3,0,0,1-1.684.6,1.219,1.219,0,0,1-.531-1.629c1.244-2.709,2.123-4.85,2.233-6.46h-5.234a1.217,1.217,0,0,1,0-2.434h5.142a16.838,16.838,0,0,0-.476-1.757l-2.2.549a1.216,1.216,0,0,1-.585-2.361l5.4-1.336a1.215,1.215,0,0,1,1.464.878,1.2,1.2,0,0,1-.879,1.464l-.915.256c.22.879.476,1.592.6,2.306h3.038A1.207,1.207,0,0,1,431.971,12.448Z" transform="translate(-349.928 -6.299)" fill="#60432e"/>
        <path id="パス_32136" data-name="パス 32136" d="M505.254,19.536a1.7,1.7,0,0,1-.128.6,9.671,9.671,0,0,1-2.086,2.946,1.369,1.369,0,0,1-.86.311,1.032,1.032,0,0,1-1.006-1.08,1.1,1.1,0,0,1,.384-.842c.293-.311.531-.586.732-.842h-2.745c.165,1.208.787,4.557,1.208,6.826a.967.967,0,0,1-.915,1.117,1.143,1.143,0,0,1-1.281-.915s-1.189-6.826-1.226-7.027h-1.867a1.1,1.1,0,0,1-1.1-1.1,1.067,1.067,0,0,1,1.1-1.1h1.464c-.055-.366-.2-.933-.274-1.372a1.069,1.069,0,0,1,.933-1.171,1.173,1.173,0,0,1,1.281.9s.256,1.464.293,1.647h4.978A1.126,1.126,0,0,1,505.254,19.536Z" transform="translate(-400.956 -12.783)" fill="#60432e"/>
        <path id="パス_32137" data-name="パス 32137" d="M561.345,15.081a1.221,1.221,0,0,1,.549-1.629C567,10.781,569.251,9.06,570.2,8.017a1.352,1.352,0,0,1,1.757-.22,1.2,1.2,0,0,1,.147,1.72,12.251,12.251,0,0,1-2.2,1.94v9.626a1.208,1.208,0,1,1-2.416,0V13.068c-1.208.714-2.69,1.629-4.539,2.562A1.18,1.18,0,0,1,561.345,15.081Z" transform="translate(-446.196 -7.157)" fill="#60432e"/>
        <path id="パス_32138" data-name="パス 32138" d="M632.71,21.9a1.234,1.234,0,0,1-.275-1.7,30.821,30.821,0,0,0,2.525-4.575,3.646,3.646,0,0,0,.256-1.647c0-1.318.019-1.812-.018-3.349a1.208,1.208,0,1,1,2.415-.037c0,1.9.018,3.367-.018,4.246-.055,1.08-1.08,3.55-3.129,6.7A1.307,1.307,0,0,1,632.71,21.9Zm14.036-5.033a1.255,1.255,0,0,1,.018,1.757,10.812,10.812,0,0,1-3.258,2.983,7.089,7.089,0,0,1-3.129.9,1.149,1.149,0,0,1-1.208-1.263V9.677a1.208,1.208,0,1,1,2.416,0v10.23a2.263,2.263,0,0,0,.805-.293,9.488,9.488,0,0,0,2.672-2.562A1.165,1.165,0,0,1,646.746,16.869Z" transform="translate(-494.244 -7.755)" fill="#60432e"/>
        <path id="パス_32139" data-name="パス 32139" d="M719.767,15.763s-3.019-.933-4.849-1.5v6.826a1.217,1.217,0,0,1-2.434,0V8.187a1.217,1.217,0,0,1,2.434,0v3.568c1.976.567,5.6,1.7,5.6,1.7a1.194,1.194,0,0,1,.787,1.5A1.244,1.244,0,0,1,719.767,15.763Zm.329-6.479v1.006a.906.906,0,1,1-1.812,0V9.285a.906.906,0,0,1,1.812,0Zm2.306,0v1.006a.906.906,0,1,1-1.812,0V9.285a.906.906,0,0,1,1.812,0Z" transform="translate(-548.562 -6.759)" fill="#60432e"/>
      </g>
    </g>
    <g id="グループ_259275" data-name="グループ 259275" transform="translate(-12581.214 -12381.376)">
      <g id="グループ_259274" data-name="グループ 259274">
        <path id="パス_32140" data-name="パス 32140" d="M205.456,114.658a6.59,6.59,0,0,1,.129-2.066,1.815,1.815,0,0,1,2.376-1.24c.878.387.9,1.136.775,2.428-.155,1.678,1.214,2.04,4,2.092a17.389,17.389,0,0,0,3.848-.388,1.607,1.607,0,0,1,2.014,1.162,1.9,1.9,0,0,1-1.368,2.195,19.376,19.376,0,0,1-4.571.439C206.721,119.2,205.585,116.336,205.456,114.658Zm.1-11.827a1.687,1.687,0,0,1,1.7-1.7h9.451a1.859,1.859,0,0,1,1.834,1.885,3.164,3.164,0,0,1-.336.93l-2.427,3.512a1.767,1.767,0,0,1-2.428.439,1.665,1.665,0,0,1-.387-2.375l.723-.981h-6.43A1.7,1.7,0,0,1,205.559,102.83Z" transform="translate(-205.426 -89.615)" fill="#60432e"/>
        <path id="パス_32141" data-name="パス 32141" d="M284.547,104.587l-2.479-7.024A1.7,1.7,0,0,1,285.3,96.5l1.859,5.733c.8-.723,1.524-1.343,3.538-3.047a1.741,1.741,0,0,1,2.427.155,1.688,1.688,0,0,1-.181,2.4c-4.881,4.157-4.777,3.951-6.921,5.939-1.136,1.059-1.7,2.118-1.446,3.125.336,1.188,1.059,1.446,3.46,1.549a21.845,21.845,0,0,0,4.829-.516,1.636,1.636,0,0,1,1.885,1.446,1.915,1.915,0,0,1-1.524,2.04,24.146,24.146,0,0,1-5.32.491c-5.113-.207-6.533-2.66-6.611-4.726C281.19,108.8,281.707,107.3,284.547,104.587Zm12.705-7.928v1.421a1.278,1.278,0,1,1-2.557,0V96.659a1.278,1.278,0,1,1,2.557,0Zm3.253,0v1.421a1.278,1.278,0,1,1-2.557,0V96.659a1.278,1.278,0,1,1,2.557,0Z" transform="translate(-256.759 -85.691)" fill="#60432e"/>
        <path id="パス_32142" data-name="パス 32142" d="M369.6,100.009c.078-.568.129-1.188.207-1.808H368.8a1.7,1.7,0,0,1,0-3.409h1.394c.1-1.007.207-2.014.31-3.073a1.752,1.752,0,0,1,1.885-1.549,1.713,1.713,0,0,1,1.524,1.885c-.1.929-.181,1.833-.284,2.737h1.911a1.7,1.7,0,0,1,0,3.409h-2.3c-.051.62-.129,1.214-.206,1.808h2.324a1.7,1.7,0,0,1,0,3.408h-2.763l-.413,3.667c-.336,2.789,1.807,3.048,2.892,3,1.73-.1,1.988-1.911,1.472-3.616a1.585,1.585,0,0,1,1.085-2.221,1.864,1.864,0,0,1,2.195,1.524A7.046,7.046,0,0,1,379,111.6a4.872,4.872,0,0,1-3.719,1.885c-3.8.206-7.024-2.376-6.508-6.791l.413-3.28h-.7a1.7,1.7,0,1,1,0-3.408Z" transform="translate(-314.62 -82.198)" fill="#60432e"/>
        <path id="パス_32143" data-name="パス 32143" d="M452.29,108.727c.052-2.84-2.066-4.984-5.345-4.932-4.132.078-6.275,2.738-6.327,5.655-.026,1.678.491,2.918,1.291,3,.878.052,2.014-2.04,2.789-5.784a1.695,1.695,0,0,1,3.357.465c-.594,3-2.3,8.96-6.224,8.986-2.247,0-4.519-2.634-4.441-6.74.1-4.932,4.209-8.625,9.5-8.728,5.733-.078,8.754,4.183,8.754,8.134,0,3.383-1.6,6.895-5.526,10.071a1.975,1.975,0,0,1-2.608-.232,1.772,1.772,0,0,1,.388-2.4C450.818,113.634,452.264,111.774,452.29,108.727Z" transform="translate(-362.399 -89.289)" fill="#60432e"/>
        <path id="パス_32144" data-name="パス 32144" d="M517.636,112.276l2.815-12.705h-1.239a1.7,1.7,0,1,1,0-3.409H521.2l.517-2.272a1.7,1.7,0,1,1,3.331.7l-.336,1.575h2.66a1.7,1.7,0,1,1,0,3.409h-3.435l-2.944,13.4a1.712,1.712,0,0,1-2.04,1.317A1.692,1.692,0,0,1,517.636,112.276Zm13.506,1.911c-3.305-.31-4.881-1.859-4.52-5.32a1.639,1.639,0,0,1,1.782-1.524c.7.026,1.627.568,1.55,1.472-.155,1.394.129,1.885,1.5,1.988a9.744,9.744,0,0,0,2.3-.078,1.59,1.59,0,0,1,1.937,1.472,1.816,1.816,0,0,1-1.575,1.911A12.443,12.443,0,0,1,531.142,114.187Zm4.287-12.421a3.2,3.2,0,0,1-.31,1.059l-1.859,2.84a1.7,1.7,0,0,1-2.324.646,1.545,1.545,0,0,1-.491-2.221l.516-.62h-2.324a1.7,1.7,0,1,1,0-3.409H533.7A1.708,1.708,0,0,1,535.429,101.766Z" transform="translate(-416.617 -83.8)" fill="#60432e"/>
        <path id="パス_32145" data-name="パス 32145" d="M615.878,107.585c.155,3.383-1.343,6.791-5.475,9.348a2.1,2.1,0,0,1-2.608-.284,1.671,1.671,0,0,1,.542-2.428c3.461-2.608,4.132-4.08,4.261-6.146.1-1.911-.516-3.8-2.556-4.132-1.446,3.2-3.151,7.076-4.158,8.651-1.085,1.7-2.117,2.815-4.184,2.609-2.453-.232-4.08-3.435-4.08-6.585a6.925,6.925,0,0,1,3.254-5.913l-.7-3.151a1.613,1.613,0,0,1,1.394-2.014,1.7,1.7,0,0,1,1.988,1.369l.491,2.3a15.933,15.933,0,0,1,3.847-.7c.258-.568.646-1.653.878-2.143a1.711,1.711,0,1,1,3.125,1.395c-.155.387-.258.646-.465,1.188C614.252,101.878,615.7,104.151,615.878,107.585Zm-11.543.826a1.41,1.41,0,0,1-.465.155,1.748,1.748,0,0,1-2.117-1.343l-.181-.981a4.074,4.074,0,0,0-.826,2.092c-.181,1.653.594,3.382,1.317,3.382C602.811,111.691,603.638,109.832,604.335,108.411Zm2.04-4.442a6.647,6.647,0,0,0-1.7.439l.465,2.3A26.379,26.379,0,0,0,606.375,103.97Z" transform="translate(-470.832 -87.062)" fill="#60432e"/>
        <path id="パス_32146" data-name="パス 32146" d="M691.914,108.727c.052-2.84-2.066-4.984-5.345-4.932-4.132.078-6.275,2.738-6.327,5.655-.026,1.678.491,2.918,1.291,3,.878.052,2.014-2.04,2.789-5.784a1.695,1.695,0,0,1,3.357.465c-.594,3-2.3,8.96-6.223,8.986-2.247,0-4.519-2.634-4.442-6.74.1-4.932,4.209-8.625,9.5-8.728,5.733-.078,8.754,4.183,8.754,8.134,0,3.383-1.6,6.895-5.526,10.071a1.975,1.975,0,0,1-2.608-.232,1.772,1.772,0,0,1,.388-2.4C690.442,113.634,691.888,111.774,691.914,108.727Z" transform="translate(-524.558 -89.289)" fill="#60432e"/>
        <path id="パス_32147" data-name="パス 32147" d="M759.392,88.365l8.491-9.748h-6.215a2.241,2.241,0,1,1,0-4.483h20.242a2.211,2.211,0,0,1,2.241,2.208,2.247,2.247,0,0,1-2.241,2.275h-8.253L762.89,91.286a2.414,2.414,0,0,1-3.26.272A2.261,2.261,0,0,1,759.392,88.365Zm12.634,15.385a2.4,2.4,0,0,1-2.412-2.411V85.716a2.395,2.395,0,1,1,4.789,0v15.623A2.392,2.392,0,0,1,772.026,103.75Zm9.68-14.094h-4.177a2.242,2.242,0,1,1,0-4.483h4.177a2.242,2.242,0,0,1,0,4.483Z" transform="translate(-579.934 -71.35)" fill="#60432e"/>
        <path id="パス_32148" data-name="パス 32148" d="M869.033,71.158a2.185,2.185,0,0,1-.17.815l3.872-2.242v-.543h-.305a1.849,1.849,0,0,1-1.8-1.868,1.943,1.943,0,0,1,1.97-1.8h2.785a1.878,1.878,0,0,1,1.868,1.834V69.46l9.034,5.638h.068a2.254,2.254,0,0,1,2.242,2.31,2.206,2.206,0,0,1-2.242,2.276h-.509a3.978,3.978,0,0,1-1.834-.577l-1.426-.951a1.929,1.929,0,0,1-1.936,1.766H869.066a1.951,1.951,0,0,1-1.935-1.732l-2,1.257a2.433,2.433,0,0,1-3.227-.815,2.321,2.321,0,0,1,.985-3.091l3.532-2.14h-1.086a2.241,2.241,0,1,1,0-4.483h1.46A2.239,2.239,0,0,1,869.033,71.158ZM864.21,93.947h2.344a2.364,2.364,0,0,1-.17-.849l.034-.747a2.242,2.242,0,1,1,4.483,0V93.1a2.364,2.364,0,0,1-.17.849h8.355a2.128,2.128,0,0,1-.2-.917v-.747a2.258,2.258,0,0,1,4.516,0v.747a2.128,2.128,0,0,1-.2.917h2.377a2.055,2.055,0,1,1,0,4.11H864.21a2.055,2.055,0,1,1,0-4.11Zm5.095-3.939a2.237,2.237,0,0,1-2.242-2.343V83.317a2.262,2.262,0,0,1,2.242-2.242h11.344a2.269,2.269,0,0,1,2.275,2.242v4.347a2.1,2.1,0,0,1-2.037,2.276A55.191,55.191,0,0,1,869.3,90.007Zm.985-13.959h9.068L875.01,73.2Zm1.291,10.325a57.322,57.322,0,0,0,6.826-.034V84.811H871.58ZM881.6,71.464a2.239,2.239,0,0,1-2.242-2.242v-.611a2.242,2.242,0,0,1,4.483,0v.611A2.262,2.262,0,0,1,881.6,71.464Zm4.789,2.208a2.261,2.261,0,0,1-2.242-2.242v-.611a2.241,2.241,0,1,1,4.483,0v.611A2.239,2.239,0,0,1,886.388,73.671Z" transform="translate(-649.498 -65.52)" fill="#60432e"/>
        <path id="パス_32149" data-name="パス 32149" d="M964.938,95.41V85.357l-.543.713a2.04,2.04,0,0,1-2.853.272,2.009,2.009,0,0,1-.272-2.853l3.668-4.517v-.305h-1.087a2.242,2.242,0,1,1,0-4.483h1.087v-3.5a2.174,2.174,0,1,1,4.347,0v3.5h.645a2.242,2.242,0,0,1,0,4.483h-.645v.272l2.343,2.242a2.03,2.03,0,0,1,.034,2.853,1.969,1.969,0,0,1-2.377.407V95.41a2.174,2.174,0,1,1-4.347,0Zm26.015.34a2.283,2.283,0,0,1-2.173,2.377l-.645.034a3.41,3.41,0,0,1-2.717-1.359l-4.551-4.754-4.245,5.094a2.386,2.386,0,0,1-3.26.374,2.283,2.283,0,0,1-.272-3.159l4.721-5.672L975.4,85.969a2.222,2.222,0,0,1,.238-3.158,2.248,2.248,0,0,1,3.158.238l1.8,2.038,2.208-2.717a2.249,2.249,0,1,1,3.532,2.785l-2.649,3.294,4.856,5.027h.238A2.19,2.19,0,0,1,990.953,95.75ZM990.138,71.6a2.218,2.218,0,0,1-2.242,2.242H975.6a2.242,2.242,0,0,1,0-4.483h3.7V68.036a2.421,2.421,0,0,1,2.411-2.411,2.392,2.392,0,0,1,2.377,2.411v1.324h3.8A2.239,2.239,0,0,1,990.138,71.6ZM978.93,75.27a2.287,2.287,0,0,1-.068,3.193l-1.528,1.291a2.247,2.247,0,0,1-3.057-3.295l1.495-1.291A2.246,2.246,0,0,1,978.93,75.27Zm10.495,1.393a2.215,2.215,0,0,1,.1,3.158,2.256,2.256,0,0,1-3.193.1l-1.494-1.291a2.287,2.287,0,0,1-.1-3.192,2.255,2.255,0,0,1,3.192-.068Z" transform="translate(-716.602 -65.591)" fill="#60432e"/>
        <path id="パス_32150" data-name="パス 32150" d="M1066.1,82.132a2.256,2.256,0,0,1,.068-3.193l5.74-5.638a2.254,2.254,0,0,1,3.192,0,2.225,2.225,0,0,1-.034,3.192l-.917.917V97.279a2.242,2.242,0,0,1-4.483,0V81.792l-.374.373A2.287,2.287,0,0,1,1066.1,82.132Zm28.9,13.007a2.219,2.219,0,0,1-2.208,2.276h-.679a3.133,3.133,0,0,1-2-1.053l-3.192-3.022v4.924a2.242,2.242,0,1,1-4.483,0V93.373l-3.77,3.295c-1.223.985-2.411.985-3.328.136a2.3,2.3,0,0,1,0-3.227l5.061-4.314h-3.3a2.242,2.242,0,1,1,0-4.483h5.332v-.917a2.242,2.242,0,0,1,4.483,0v.917h5.162a2.241,2.241,0,1,1,0,4.483h-3.022l4.177,3.6A2.335,2.335,0,0,1,1095.006,95.139Zm-2.751-23.808v7.744a2.272,2.272,0,0,1-2.241,2.173,75.6,75.6,0,0,1-9.713.068,2.283,2.283,0,0,1-2.241-2.241V71.332a2.192,2.192,0,0,1,2.309-2.242h9.645A2.239,2.239,0,0,1,1092.255,71.332Zm-4.483,2.242h-5.23V76.9a33.571,33.571,0,0,0,5.23,0Z" transform="translate(-787.438 -67.935)" fill="#60432e"/>
        <path id="パス_32151" data-name="パス 32151" d="M1204.494,100.273h-.306a2.934,2.934,0,0,1-2.106-.916l-5.2-5.774-5.943,6.114a2.3,2.3,0,0,1-3.227.1,2.245,2.245,0,0,1-.068-3.158l6.181-6.351c-.849-.068-1.8-.136-2.378-.2a2.048,2.048,0,0,1-1.9-1.936V82a1.928,1.928,0,0,1,1.9-1.936h3.363v-.781h-2.344a1.781,1.781,0,0,1-1.63-1.936c-.068,0-.578.373-.611.373a2.13,2.13,0,0,1-2.717-.476.033.033,0,0,0-.034-.034c-.544,2.14-1.121,4.415-1.121,4.415l2.275,6.521a2.069,2.069,0,0,1-1.053,2.717l-1.868.815a2.05,2.05,0,0,1-2.479-1.324,1.936,1.936,0,0,1,1.121-2.48l.1-.034L1183,83.6v14.57a2.058,2.058,0,0,1-2.072,2.072,2.03,2.03,0,0,1-2.038-2.072V73.2a2.011,2.011,0,0,1,1.97-1.732l5.672.034a2,2,0,0,1,1.834,2.276c1.223-.951,4.041-3.192,4.041-3.192a5.86,5.86,0,0,1,4.144-1.393,6.294,6.294,0,0,1,4.008,1.291c.747.509,4.789,3.464,4.789,3.464a2.445,2.445,0,0,1,.408,3.328,2.52,2.52,0,0,1-2.785.51c-.068-.034-.917-.646-.985-.679v.238a1.928,1.928,0,0,1-1.9,1.936h-1.426v.781h3.226A1.935,1.935,0,0,1,1203.815,82v6.147a1.9,1.9,0,0,1-1.766,1.936c-.51.1-1.664.136-2.276.2l5.23,5.434a2.258,2.258,0,0,1,1.766,2.207A2.175,2.175,0,0,1,1204.494,100.273ZM1184.15,75.378,1183,75.344v5.2Zm10.664,8.559h-1.427v2.445c.34.034,1.087.034,1.427.068Zm5.026-8.525c-.815-.646-1.766-1.291-2.343-1.7a1.561,1.561,0,0,0-.917-.306,1.829,1.829,0,0,0-1.019.34c-.509.407-1.358,1.053-2.106,1.664Zm-1.188,10.97c.306,0,1.019-.034,1.324-.068V83.937h-1.324Z" transform="translate(-864.186 -68.008)" fill="#60432e"/>
      </g>
    </g>
    <g id="グループ_408701" data-name="グループ 408701" transform="translate(-12672.41 -12398.6)">
      <g id="グループ_259279" data-name="グループ 259279" clip-path="url(#clip-path)">
        <path id="パス_32156" data-name="パス 32156" d="M73.693,54.426V38.6a1.613,1.613,0,0,0-1.162-1.613L55.7,31.483a4.589,4.589,0,0,0-2.743,0L36.085,37a1.613,1.613,0,0,0-1.162,1.613V54.442A22.507,22.507,0,0,0,52.816,76.449a7.2,7.2,0,0,0,3.033,0A22.491,22.491,0,0,0,73.693,54.426m-6.454,0A16.135,16.135,0,0,1,54.494,70.108h-.161V53.861H41.425V42.051l12.907-4.227V53.861H67.24Z" transform="translate(-17.358 -15.545)" fill="#eb8935"/>
        <path id="パス_32157" data-name="パス 32157" d="M38.153,10.287a25.161,25.161,0,0,1,20.965,11.52l.53-.209,12.927-4.9a1.858,1.858,0,0,0,.019-3.428L39.151.115a1.666,1.666,0,0,0-1.212,0L3.731,13.3a1.859,1.859,0,0,0,0,3.429L15.9,21.417a1.689,1.689,0,0,0,1.981-.606A25.078,25.078,0,0,1,38.153,10.287" transform="translate(-1.287 0)" fill="#ecb435"/>
        <path id="パス_32158" data-name="パス 32158" d="M4.778,40.422V29.629H1.308V40.422A3.038,3.038,0,0,0,0,42.92v6.84H6.087V42.92a3.038,3.038,0,0,0-1.308-2.5" transform="translate(0 -14.727)" fill="#ecb435"/>
        <path id="パス_32159" data-name="パス 32159" d="M66.885,104.421a22.734,22.734,0,0,1-41.315,0H18.664a29.153,29.153,0,0,0,55.126,0Z" transform="translate(-9.277 -51.904)" fill="#ecb435"/>
      </g>
    </g>
    <path id="パス_40677" data-name="パス 40677" d="M-111.762.98a.924.924,0,0,1-.658.035A.693.693,0,0,1-112.854.6a.7.7,0,0,1,.014-.567.8.8,0,0,1,.434-.371,3.365,3.365,0,0,0,1.631-1.218,4.118,4.118,0,0,0,.609-2.044,1.21,1.21,0,0,1-.707-.672,3.488,3.488,0,0,1-.2-1.33V-9.128a3.479,3.479,0,0,1,.2-1.337,1.188,1.188,0,0,1,.707-.658,4.02,4.02,0,0,1,1.372-.189h.952a4.009,4.009,0,0,1,1.379.189,1.189,1.189,0,0,1,.7.658,3.479,3.479,0,0,1,.2,1.337V-5.6a2.989,2.989,0,0,1-.28,1.47,1.428,1.428,0,0,1-.994.63V-.966a.32.32,0,0,0,.091.266.63.63,0,0,0,.357.07.465.465,0,0,0,.392-.133,1.952,1.952,0,0,0,.21-.6.59.59,0,0,1,.315-.378.791.791,0,0,1,.553-.056.676.676,0,0,1,.4.28.669.669,0,0,1,.105.532,2.4,2.4,0,0,1-.623,1.449A1.79,1.79,0,0,1-106.288.9h-.294A2.378,2.378,0,0,1-107.856.63a1.152,1.152,0,0,1-.406-1.036v-3.01h-.532a5.3,5.3,0,0,1-.854,2.807A4.448,4.448,0,0,1-111.762.98Zm-2.66.182a.741.741,0,0,1-.525-.2.721.721,0,0,1-.217-.553v-2.73q-.364.5-.763,1a10.227,10.227,0,0,1-.721.819.908.908,0,0,1-.532.266.657.657,0,0,1-.546-.168.736.736,0,0,1-.217-.483.536.536,0,0,1,.189-.469q.28-.266.658-.693t.742-.889q.364-.462.6-.826h-1.106a.647.647,0,0,1-.5-.2.685.685,0,0,1-.189-.483.685.685,0,0,1,.189-.483.647.647,0,0,1,.5-.2h1.694V-6.1h-1.876a.626.626,0,0,1-.483-.189.646.646,0,0,1-.175-.455.664.664,0,0,1,.175-.469.626.626,0,0,1,.483-.189h.826q-.084-.238-.182-.5l-.154-.42a.463.463,0,0,1,.035-.448.7.7,0,0,1,.385-.294.155.155,0,0,0,.049-.007.115.115,0,0,1,.035-.007h-.812a.608.608,0,0,1-.469-.189.646.646,0,0,1-.175-.455.639.639,0,0,1,.175-.462.62.62,0,0,1,.469-.182h1.666v-.77a.677.677,0,0,1,.231-.546.808.808,0,0,1,.539-.2.827.827,0,0,1,.553.2.677.677,0,0,1,.231.546v.77h1.526a.615.615,0,0,1,.476.182.655.655,0,0,1,.168.462.661.661,0,0,1-.168.455.6.6,0,0,1-.476.189h-.6a.6.6,0,0,1,.392.308.623.623,0,0,1,.028.518q-.056.168-.154.4t-.182.455h.658a.6.6,0,0,1,.476.189.68.68,0,0,1,.168.469.661.661,0,0,1-.168.455.6.6,0,0,1-.476.189h-1.708v.966h1.526a.642.642,0,0,1,.5.2.7.7,0,0,1,.182.483.7.7,0,0,1-.182.483.642.642,0,0,1-.5.2h-1.3a.084.084,0,0,1,.056.056q.182.2.462.462t.581.511q.3.245.539.427a.59.59,0,0,1,.259.462.684.684,0,0,1-.175.518.584.584,0,0,1-.476.224.763.763,0,0,1-.518-.2q-.182-.154-.434-.406l-.518-.518V.406a.733.733,0,0,1-.21.553A.734.734,0,0,1-114.422,1.162Zm-.392-8.568h.742a.156.156,0,0,1,.014-.07q.1-.224.238-.581t.21-.581a.677.677,0,0,1,.2-.3.735.735,0,0,1,.28-.147h-2.534a.518.518,0,0,1,.392.364q.084.182.224.546t.21.56a1.045,1.045,0,0,1,.021.105A.744.744,0,0,1-114.814-7.406Zm5.278.49h2.436V-7.84h-2.436Zm.966,2.128h.5a1.234,1.234,0,0,0,.8-.168,1.056,1.056,0,0,0,.168-.714v-.1h-2.436v.1a1.056,1.056,0,0,0,.168.714A1.234,1.234,0,0,0-108.57-4.788Zm-.966-4.2h2.436v-.07a1.056,1.056,0,0,0-.168-.714,1.234,1.234,0,0,0-.8-.168h-.5a1.234,1.234,0,0,0-.8.168,1.056,1.056,0,0,0-.168.714ZM-98.392,1.106A1,1,0,0,1-99.043.9a.84.84,0,0,1-.287-.63.719.719,0,0,1,.273-.63A1.051,1.051,0,0,1-98.448-.6a2.793,2.793,0,0,0,1.232-.28,1.5,1.5,0,0,0,.679-.812A4.339,4.339,0,0,0-96.32-3.22,3.931,3.931,0,0,0-96.614-4.7h-5.7a.732.732,0,0,1-.546-.231.766.766,0,0,1-.224-.553.743.743,0,0,1,.224-.546.743.743,0,0,1,.546-.224H-97.5a4.124,4.124,0,0,0-.868-.84.813.813,0,0,1-.315-.574.675.675,0,0,1,.189-.574.843.843,0,0,1,.6-.28,1.061,1.061,0,0,1,.63.224q.07.056.133.1t.119.084q.336-.168.742-.378l.742-.385q.336-.175.462-.245.322-.2.273-.406t-.413-.21h-5.656a.716.716,0,0,1-.532-.231.75.75,0,0,1-.224-.539.72.72,0,0,1,.224-.539.739.739,0,0,1,.532-.217h6.286a2.188,2.188,0,0,1,1.309.35,1.462,1.462,0,0,1,.6.875,1.543,1.543,0,0,1-.14,1.05,2.031,2.031,0,0,1-.931.875q-.462.252-1.043.539t-1.155.553a7.773,7.773,0,0,1,.5.77h4.76a.743.743,0,0,1,.546.224.743.743,0,0,1,.224.546.766.766,0,0,1-.224.553.732.732,0,0,1-.546.231h-4.144a7.334,7.334,0,0,1,.133.77,6.889,6.889,0,0,1,.049.826A4.529,4.529,0,0,1-95.585.1,3.709,3.709,0,0,1-98.392,1.106Zm18.27-1.148a.855.855,0,0,1-.658-.1.811.811,0,0,1-.392-.518.808.808,0,0,1,.1-.637.816.816,0,0,1,.518-.385A4.2,4.2,0,0,0-78.267-3a3.559,3.559,0,0,0,.735-2.31,3.182,3.182,0,0,0-.392-1.582,3.05,3.05,0,0,0-1.113-1.134,4.076,4.076,0,0,0-1.729-.532,18.507,18.507,0,0,1-.847,4.067,8.1,8.1,0,0,1-1.4,2.646A2.265,2.265,0,0,1-84.7-.91a2.306,2.306,0,0,1-1.358-.434,2.91,2.91,0,0,1-.973-1.246,4.815,4.815,0,0,1-.357-1.946,5.4,5.4,0,0,1,.441-2.177A5.407,5.407,0,0,1-85.694-8.5a5.887,5.887,0,0,1,1.911-1.2,6.52,6.52,0,0,1,2.415-.434,6.346,6.346,0,0,1,2.835.609A4.837,4.837,0,0,1-76.58-7.833a4.491,4.491,0,0,1,.714,2.527,5.227,5.227,0,0,1-1.085,3.381A5.729,5.729,0,0,1-80.122-.042Zm-4.564-2.59q.252,0,.581-.427A5.705,5.705,0,0,0-83.44-4.27a13.265,13.265,0,0,0,.616-1.855A16.3,16.3,0,0,0-82.4-8.5a4.122,4.122,0,0,0-1.834.805,3.886,3.886,0,0,0-1.12,1.414,4.206,4.206,0,0,0-.392,1.715,2.79,2.79,0,0,0,.3,1.442A.882.882,0,0,0-84.686-2.632ZM-71.834.448a.786.786,0,0,1-.385-.518.81.81,0,0,1,.105-.63,12.2,12.2,0,0,0,.966-1.946,19.461,19.461,0,0,0,.721-2.212q.3-1.148.483-2.254-.406.042-.791.07t-.721.056a.862.862,0,0,1-.609-.2.792.792,0,0,1-.287-.567.847.847,0,0,1,.21-.609.768.768,0,0,1,.574-.273q.406-.028.875-.056t.945-.084q.042-.476.056-.91t0-.826a.809.809,0,0,1,.217-.6.8.8,0,0,1,.581-.266.809.809,0,0,1,.6.217.8.8,0,0,1,.266.581q.014.35,0,.749t-.056.847q.63-.112,1.134-.21a.833.833,0,0,1,.63.112.771.771,0,0,1,.364.518.8.8,0,0,1-.119.63.809.809,0,0,1-.525.35q-.35.07-.777.14t-.9.14q-.2,1.274-.532,2.639a23.453,23.453,0,0,1-.805,2.618A12.424,12.424,0,0,1-70.686.168.822.822,0,0,1-71.2.546.788.788,0,0,1-71.834.448ZM-62.09.14a7.027,7.027,0,0,1-3.577.028A3.4,3.4,0,0,1-67.8-1.484a.864.864,0,0,1-.063-.637.786.786,0,0,1,.4-.5.8.8,0,0,1,.637-.07.812.812,0,0,1,.5.406,1.916,1.916,0,0,0,1.414.924A6.467,6.467,0,0,0-62.44-1.5a.822.822,0,0,1,.637.119.8.8,0,0,1,.357.525.822.822,0,0,1-.119.637A.8.8,0,0,1-62.09.14Zm-.686-5.348a6.814,6.814,0,0,0-1.085-.154,12.013,12.013,0,0,0-1.232-.021,8.183,8.183,0,0,0-1.169.119.8.8,0,0,1-.609-.133.811.811,0,0,1-.343-.511.8.8,0,0,1,.119-.623.752.752,0,0,1,.525-.343,10.742,10.742,0,0,1,1.393-.14,13.894,13.894,0,0,1,1.463.021,8.368,8.368,0,0,1,1.33.189.748.748,0,0,1,.511.364.805.805,0,0,1,.091.63.743.743,0,0,1-.364.5A.852.852,0,0,1-62.776-5.208ZM-51,.056a.862.862,0,0,1-.609-.2A.792.792,0,0,1-51.9-.714a.82.82,0,0,1,.2-.616.759.759,0,0,1,.574-.28,3.836,3.836,0,0,0,2.345-.847,2.6,2.6,0,0,0,.819-2.037,2.292,2.292,0,0,0-.546-1.519,3,3,0,0,0-1.5-.931,12.215,12.215,0,0,1-1.372,2.8l.252.2q.126.1.238.182a.812.812,0,0,1,.343.539.836.836,0,0,1-.133.637.812.812,0,0,1-.539.343.766.766,0,0,1-.623-.147q-.294-.21-.588-.462a7.026,7.026,0,0,1-.84.742,9.021,9.021,0,0,1-.938.616,3.025,3.025,0,0,1-1.673.42A1.852,1.852,0,0,1-57.19-1.7a2.311,2.311,0,0,1-.5-1.589,4.612,4.612,0,0,1,.518-2.177,5.57,5.57,0,0,1,1.372-1.7,13.629,13.629,0,0,1-.9-1.89.745.745,0,0,1,.035-.637.835.835,0,0,1,.483-.427.8.8,0,0,1,.637.042.809.809,0,0,1,.427.476q.126.378.3.77t.385.8a6.88,6.88,0,0,1,1.449-.49,7.173,7.173,0,0,1,1.547-.168h.21q.1-.364.175-.742t.147-.77a.815.815,0,0,1,.336-.553.771.771,0,0,1,.63-.133.807.807,0,0,1,.539.336.814.814,0,0,1,.147.63q-.056.378-.14.742l-.168.728a4.6,4.6,0,0,1,2.38,1.463,3.78,3.78,0,0,1,.868,2.5,4.558,4.558,0,0,1-.56,2.289,4.081,4.081,0,0,1-1.6,1.568A6.086,6.086,0,0,1-51,.056Zm-4-2.954A5.773,5.773,0,0,0-53.564-4a18.848,18.848,0,0,1-1.4-1.82A3.4,3.4,0,0,0-56.056-3.36a.594.594,0,0,0,.28.581A.833.833,0,0,0-55.006-2.9Zm2.45-2.422q.238-.406.462-.861a8.823,8.823,0,0,0,.406-.973,5.887,5.887,0,0,0-1.029.14,5.248,5.248,0,0,0-.9.294A12.579,12.579,0,0,0-52.556-5.32ZM-35.6-.042a.855.855,0,0,1-.658-.1.811.811,0,0,1-.392-.518.808.808,0,0,1,.1-.637.816.816,0,0,1,.518-.385A4.2,4.2,0,0,0-33.747-3a3.559,3.559,0,0,0,.735-2.31A3.182,3.182,0,0,0-33.4-6.888a3.05,3.05,0,0,0-1.113-1.134,4.076,4.076,0,0,0-1.729-.532,18.506,18.506,0,0,1-.847,4.067,8.1,8.1,0,0,1-1.4,2.646A2.265,2.265,0,0,1-40.18-.91a2.306,2.306,0,0,1-1.358-.434,2.91,2.91,0,0,1-.973-1.246,4.815,4.815,0,0,1-.357-1.946,5.4,5.4,0,0,1,.441-2.177A5.407,5.407,0,0,1-41.174-8.5a5.887,5.887,0,0,1,1.911-1.2,6.52,6.52,0,0,1,2.415-.434,6.346,6.346,0,0,1,2.835.609A4.837,4.837,0,0,1-32.06-7.833a4.491,4.491,0,0,1,.714,2.527,5.227,5.227,0,0,1-1.085,3.381A5.729,5.729,0,0,1-35.6-.042Zm-4.564-2.59q.252,0,.581-.427A5.705,5.705,0,0,0-38.92-4.27,13.265,13.265,0,0,0-38.3-6.125a16.3,16.3,0,0,0,.42-2.373,4.122,4.122,0,0,0-1.834.805,3.886,3.886,0,0,0-1.12,1.414,4.206,4.206,0,0,0-.392,1.715,2.79,2.79,0,0,0,.3,1.442A.882.882,0,0,0-40.166-2.632ZM-17.64.994a2.371,2.371,0,0,1-1.5-.385A1.594,1.594,0,0,1-19.614-.7V-3.262a9.4,9.4,0,0,1-1.078,2.233,8.544,8.544,0,0,1-1.722,1.9.928.928,0,0,1-.616.224.758.758,0,0,1-.588-.266.746.746,0,0,1-.168-.56.678.678,0,0,1,.266-.5,6.867,6.867,0,0,0,1.008-.9l-.042.014a.723.723,0,0,1-.553.056.632.632,0,0,1-.4-.35,4.2,4.2,0,0,0-.2-.4q-.14-.259-.28-.525t-.224-.406a.674.674,0,0,1-.035-.56.609.609,0,0,1,.371-.378.746.746,0,0,1,.56-.056.769.769,0,0,1,.434.378l.21.378q.14.252.273.5t.189.371a.7.7,0,0,1,.056.546A6.942,6.942,0,0,0-21-3.892a13.077,13.077,0,0,0,.448-2.856H-21.9a.676.676,0,0,1-.5-.217.711.711,0,0,1-.21-.511.692.692,0,0,1,.217-.518.727.727,0,0,1,.525-.21h1.358V-11a.737.737,0,0,1,.231-.574.794.794,0,0,1,.553-.21.812.812,0,0,1,.567.21.737.737,0,0,1,.231.574v2.8h2.478a.687.687,0,0,1,.5.21.7.7,0,0,1,.21.518.711.711,0,0,1-.21.511.676.676,0,0,1-.5.217h-2.52q-.014.182-.021.364a3.2,3.2,0,0,1-.035.364.823.823,0,0,1,.2-.028.769.769,0,0,1,.546.21.749.749,0,0,1,.224.574v4.27a.447.447,0,0,0,.112.357.636.636,0,0,0,.392.091.449.449,0,0,0,.35-.112,1.171,1.171,0,0,0,.168-.5.633.633,0,0,1,.315-.469.766.766,0,0,1,.567-.077.743.743,0,0,1,.5.287.711.711,0,0,1,.1.581A2.3,2.3,0,0,1-16.205.588,2.184,2.184,0,0,1-17.64.994Zm-8.736.2a.907.907,0,0,1-.609-.175.746.746,0,0,1-.273-.567.775.775,0,0,1,.2-.546.719.719,0,0,1,.546-.266.693.693,0,0,0,.434-.126A.607.607,0,0,0-26-.868V-4.032a2.2,2.2,0,0,1-1.526-.448,2.015,2.015,0,0,1-.448-1.484,2,2,0,0,1,.462-1.505A2.292,2.292,0,0,1-25.942-7.9h1.288a2.289,2.289,0,0,1,1.575.427,2.014,2.014,0,0,1,.455,1.505A2.061,2.061,0,0,1-23.051-4.5a2.069,2.069,0,0,1-1.463.469V-.644A1.858,1.858,0,0,1-24.969.714,1.942,1.942,0,0,1-26.376,1.19ZM-28.112-8.6a.672.672,0,0,1-.49-.21.672.672,0,0,1-.21-.49.665.665,0,0,1,.21-.5.683.683,0,0,1,.49-.2h2.058v-1.036a.712.712,0,0,1,.245-.581.882.882,0,0,1,.581-.2.875.875,0,0,1,.588.2.722.722,0,0,1,.238.581V-10h1.974a.683.683,0,0,1,.49.2.665.665,0,0,1,.21.5.672.672,0,0,1-.21.49.672.672,0,0,1-.49.21Zm-.266,8.442a.739.739,0,0,1-.392-.378.593.593,0,0,1,0-.532q.126-.252.287-.644t.308-.784q.147-.392.217-.63a.782.782,0,0,1,.385-.462.669.669,0,0,1,.567-.028.849.849,0,0,1,.441.343.641.641,0,0,1,.049.581q-.084.266-.231.672t-.308.8q-.161.392-.287.644a.833.833,0,0,1-.427.42A.767.767,0,0,1-28.378-.154Zm11.872-8.638a.781.781,0,0,1-.532.2.623.623,0,0,1-.5-.238q-.084-.112-.273-.315t-.371-.406q-.182-.2-.294-.315a.718.718,0,0,1-.182-.525.676.676,0,0,1,.238-.5.784.784,0,0,1,.532-.21.711.711,0,0,1,.518.224q.112.112.3.315l.371.4q.182.2.266.308a.7.7,0,0,1,.2.546A.717.717,0,0,1-16.506-8.792Zm-9.31,3.458h1.036a.787.787,0,0,0,.532-.133.68.68,0,0,0,.14-.5.68.68,0,0,0-.14-.5.787.787,0,0,0-.532-.133h-1.036a.757.757,0,0,0-.525.133.7.7,0,0,0-.133.5.7.7,0,0,0,.133.5A.757.757,0,0,0-25.816-5.334Zm16.9,6.594a.929.929,0,0,1-.658-.21A.827.827,0,0,1-9.828.49.711.711,0,0,1-9.6-.084a.933.933,0,0,1,.63-.238A2.69,2.69,0,0,0-8.12-.476a.763.763,0,0,0,.434-.441,2.529,2.529,0,0,0,.126-.9A2.663,2.663,0,0,0-7.6-2.31h-5.446a.67.67,0,0,1-.525-.21.727.727,0,0,1-.189-.5.744.744,0,0,1,.182-.5.585.585,0,0,1,.462-.21h4.872q-.042-.042-.077-.084t-.077-.1a.6.6,0,0,1-.147-.518.751.751,0,0,1,.273-.476.77.77,0,0,1,.56-.175A.858.858,0,0,1-7.2-4.9q.028.028.07.063t.07.063L-6.664-5l.294-.168q.238-.154.2-.308T-6.5-5.628h-4.046a.637.637,0,0,1-.5-.21.71.71,0,0,1-.189-.49.71.71,0,0,1,.189-.49.637.637,0,0,1,.5-.21h5a1.728,1.728,0,0,1,.987.252,1.15,1.15,0,0,1,.483.63,1.122,1.122,0,0,1-.077.8,1.847,1.847,0,0,1-.693.756q-.364.238-.7.448t-.686.406h4.368a.747.747,0,0,1,.574.21.713.713,0,0,1,.2.5.727.727,0,0,1-.189.5.67.67,0,0,1-.525.21h-4.13a3.965,3.965,0,0,1,.042.56A3.11,3.11,0,0,1-6.615.581,3.281,3.281,0,0,1-8.918,1.26Zm-3.766-6.888a.8.8,0,0,1-.56-.217.731.731,0,0,1-.238-.567v-.644a2.035,2.035,0,0,1,.5-1.547,2.58,2.58,0,0,1,1.736-.483l-.077-.105a.782.782,0,0,1-.063-.1q-.056-.126-.2-.371l-.28-.49q-.14-.245-.21-.357a.644.644,0,0,1-.07-.539.681.681,0,0,1,.35-.427.81.81,0,0,1,.588-.084.773.773,0,0,1,.49.35q.154.224.392.6t.364.63a.784.784,0,0,1,.105.462.639.639,0,0,1-.217.42h2.058a1.276,1.276,0,0,1-.105-.119.489.489,0,0,1-.077-.147q-.056-.126-.2-.413t-.287-.574q-.14-.287-.21-.4a.678.678,0,0,1-.049-.546.706.706,0,0,1,.357-.42.762.762,0,0,1,.588-.07.83.83,0,0,1,.49.364q.1.154.245.427l.294.546q.147.273.231.441a.853.853,0,0,1,.077.49.619.619,0,0,1-.259.42H-5.81q.168-.294.413-.728t.483-.861q.238-.427.35-.665a.711.711,0,0,1,.518-.42.954.954,0,0,1,.63.07A.8.8,0,0,1-3-11.256a.709.709,0,0,1-.063.63q-.154.28-.413.707l-.5.819h.252a2.786,2.786,0,0,1,1.841.476,2,2,0,0,1,.539,1.568v.644a.731.731,0,0,1-.238.567.8.8,0,0,1-.56.217.874.874,0,0,1-.574-.2.684.684,0,0,1-.238-.56v-.644a.68.68,0,0,0-.2-.553,1.163,1.163,0,0,0-.714-.161h-7.1a1.163,1.163,0,0,0-.714.161.68.68,0,0,0-.2.553v.644a.684.684,0,0,1-.238.56A.874.874,0,0,1-12.684-5.628ZM6.566.6a.822.822,0,0,1-.6-.252.822.822,0,0,1-.252-.6V-9.926a.815.815,0,0,1,.252-.609.833.833,0,0,1,.6-.245.85.85,0,0,1,.616.245.815.815,0,0,1,.252.609v3.374a.862.862,0,0,1,.5-.371.848.848,0,0,1,.63.063q.826.434,1.687.994a14.962,14.962,0,0,1,1.491,1.092.83.83,0,0,1,.315.595.844.844,0,0,1-.2.651.843.843,0,0,1-.588.3.862.862,0,0,1-.644-.189q-.392-.308-.9-.658T8.7-4.753Q8.19-5.082,7.77-5.32a.9.9,0,0,1-.336-.308V-.252a.822.822,0,0,1-.252.6A.838.838,0,0,1,6.566.6ZM20.076.35a.876.876,0,0,1-.651-.056A.81.81,0,0,1,19-.21a.831.831,0,0,1,.049-.658.831.831,0,0,1,.5-.434,9.887,9.887,0,0,0,3.031-1.575A6.452,6.452,0,0,0,24.5-5.18q.49-1.05-.742-1.05H18.676a.833.833,0,0,1-.6-.245.815.815,0,0,1-.252-.609.793.793,0,0,1,.252-.6.846.846,0,0,1,.6-.238h5.152a3.293,3.293,0,0,1,1.855.441,1.618,1.618,0,0,1,.735,1.218,3.39,3.39,0,0,1-.392,1.785,8.309,8.309,0,0,1-2.331,2.891A11.193,11.193,0,0,1,20.076.35Zm-.5-9.31a.846.846,0,0,1-.6-.238.777.777,0,0,1-.252-.588.793.793,0,0,1,.252-.6.846.846,0,0,1,.6-.238H24.92a.822.822,0,0,1,.6.238.8.8,0,0,1,.245.6.787.787,0,0,1-.245.588.822.822,0,0,1-.6.238ZM34.216.238a.843.843,0,0,1-.665.007.884.884,0,0,1-.5-.455.881.881,0,0,1-.014-.672.805.805,0,0,1,.448-.49,13.645,13.645,0,0,0,3.7-2.352,8.843,8.843,0,0,0,2.2-2.982,1.208,1.208,0,0,0,.084-1.057q-.21-.357-1.036-.357H33.194a.833.833,0,0,1-.609-.259.833.833,0,0,1-.259-.609.8.8,0,0,1,.259-.609.857.857,0,0,1,.609-.245h5.32A2.767,2.767,0,0,1,41.062-8.82a2.879,2.879,0,0,1-.07,2.688,10.772,10.772,0,0,1-2.548,3.605A14.782,14.782,0,0,1,34.216.238Zm9.2-9.926q-.182-.182-.462-.441t-.5-.455a.542.542,0,0,1-.168-.35.508.508,0,0,1,.126-.406.5.5,0,0,1,.364-.2.594.594,0,0,1,.406.105,4.867,4.867,0,0,1,.553.392,5.026,5.026,0,0,1,.525.476.611.611,0,0,1,.189.427.6.6,0,0,1-.175.441.534.534,0,0,1-.413.189A.577.577,0,0,1,43.414-9.688Zm-.378,1.274a.6.6,0,0,1-.441.161.559.559,0,0,1-.427-.2q-.168-.2-.427-.476t-.469-.49a.508.508,0,0,1-.147-.357.549.549,0,0,1,.161-.4.559.559,0,0,1,.371-.168.576.576,0,0,1,.4.126,5.189,5.189,0,0,1,.525.427,4.978,4.978,0,0,1,.5.511.568.568,0,0,1,.154.434A.646.646,0,0,1,43.036-8.414ZM55.524-1.82a5.215,5.215,0,0,1-2.128.406,1.918,1.918,0,0,1-1.421-.665,2.739,2.739,0,0,1-.511-1.8V-8.33a.827.827,0,0,1,.259-.616.845.845,0,0,1,.609-.252.815.815,0,0,1,.609.252.85.85,0,0,1,.245.616v4.186q0,1.33,1.61.742.63-.238,1.379-.56t1.337-.6a.872.872,0,0,1,.658-.049.83.83,0,0,1,.5.427.827.827,0,0,1,.063.658.783.783,0,0,1-.427.5q-.644.308-1.386.637T55.524-1.82Zm-9.17.9A.868.868,0,0,1,45.7-.9a.831.831,0,0,1-.49-.441.885.885,0,0,1-.021-.665.782.782,0,0,1,.441-.483,5.286,5.286,0,0,0,1.792-1.3,4.556,4.556,0,0,0,.938-1.736,7.539,7.539,0,0,0,.28-2.093.838.838,0,0,1,.252-.616.822.822,0,0,1,.6-.252.815.815,0,0,1,.609.252.85.85,0,0,1,.245.616A7.882,7.882,0,0,1,49.294-3.5,6.5,6.5,0,0,1,46.354-.924ZM69.552.63a5.275,5.275,0,0,1-1.8-.245,1.583,1.583,0,0,1-.924-.84,3.986,3.986,0,0,1-.273-1.631V-8.47a3.986,3.986,0,0,1,.273-1.631,1.583,1.583,0,0,1,.924-.84,5.275,5.275,0,0,1,1.8-.245,5.275,5.275,0,0,1,1.8.245,1.583,1.583,0,0,1,.924.84,3.986,3.986,0,0,1,.273,1.631v6.384a3.986,3.986,0,0,1-.273,1.631,1.583,1.583,0,0,1-.924.84A5.275,5.275,0,0,1,69.552.63Zm-5.95.518a.8.8,0,0,1-.567-.217A.759.759,0,0,1,62.8.35V-4.172q-.308.532-.616,1.015t-.574.847a.86.86,0,0,1-.546.343.731.731,0,0,1-.616-.161.744.744,0,0,1-.308-.525.727.727,0,0,1,.168-.581q.28-.35.63-.882t.707-1.141q.357-.609.665-1.176t.49-.973v-.07H61.068a.692.692,0,0,1-.532-.21.731.731,0,0,1-.2-.518.738.738,0,0,1,.2-.511.681.681,0,0,1,.532-.217H62.8V-10.99a.759.759,0,0,1,.231-.581.8.8,0,0,1,.567-.217.779.779,0,0,1,.553.217.759.759,0,0,1,.231.581v2.058H65.45a.664.664,0,0,1,.518.217.738.738,0,0,1,.2.511.731.731,0,0,1-.2.518.675.675,0,0,1-.518.21H64.386v.952q.224.252.581.637t.714.742l.553.553a.756.756,0,0,1,.252.532.747.747,0,0,1-.2.546.69.69,0,0,1-.525.224.69.69,0,0,1-.525-.224q-.154-.168-.385-.427l-.469-.525V.35a.759.759,0,0,1-.231.581A.779.779,0,0,1,63.6,1.148Zm4.564-5.474h2.772V-6.342H68.166ZM69.552-.84a2.567,2.567,0,0,0,.868-.112.677.677,0,0,0,.406-.385,2.122,2.122,0,0,0,.112-.777V-2.9H68.166v.784a2.252,2.252,0,0,0,.1.777.653.653,0,0,0,.406.385A2.632,2.632,0,0,0,69.552-.84ZM68.166-7.77h2.772v-.672a2.122,2.122,0,0,0-.112-.777A.654.654,0,0,0,70.42-9.6a2.727,2.727,0,0,0-.868-.105,2.8,2.8,0,0,0-.875.105.632.632,0,0,0-.406.378,2.252,2.252,0,0,0-.1.777Zm12.88,8.876a1.022,1.022,0,0,1-.672.049A.73.73,0,0,1,79.9.728a.7.7,0,0,1-.007-.6.739.739,0,0,1,.441-.42,6.144,6.144,0,0,0,1.393-.693,2.964,2.964,0,0,0,.875-.931,3.88,3.88,0,0,0,.455-1.33,11.5,11.5,0,0,0,.133-1.89.677.677,0,0,1,.231-.546.752.752,0,0,1,.539-.182.784.784,0,0,1,.546.2.688.688,0,0,1,.21.567q-.028.686-.084,1.274a5.149,5.149,0,0,0,1.05,2A5.413,5.413,0,0,0,87.654-.434a.712.712,0,0,1,.42.441.816.816,0,0,1-.056.623.805.805,0,0,1-.511.42.871.871,0,0,1-.665-.07A7.255,7.255,0,0,1,85.225-.147,5.582,5.582,0,0,1,84.1-1.638,4.35,4.35,0,0,1,82.936-.021,7.259,7.259,0,0,1,81.046,1.106Zm.392-6.132a.967.967,0,0,1-.637.063.7.7,0,0,1-.483-.385.724.724,0,0,1-.035-.581.739.739,0,0,1,.427-.427,4.1,4.1,0,0,0,1.505-1.022,3.368,3.368,0,0,0,.728-1.505,10.678,10.678,0,0,0,.217-2.191.668.668,0,0,1,.238-.546.776.776,0,0,1,.546-.182.831.831,0,0,1,.539.21.678.678,0,0,1,.2.56q-.014.378-.035.721t-.063.665a4.337,4.337,0,0,0,1.05,1.834,6.394,6.394,0,0,0,1.96,1.33.631.631,0,0,1,.364.42.738.738,0,0,1-.084.588.713.713,0,0,1-.49.378,1.031,1.031,0,0,1-.644-.07,6.09,6.09,0,0,1-2.688-2.45,4.609,4.609,0,0,1-1.022,1.491A6.373,6.373,0,0,1,81.438-5.026ZM77.756.84A3.546,3.546,0,0,1,76.517.665,1.076,1.076,0,0,1,75.88.042,3.51,3.51,0,0,1,75.7-1.232a3.61,3.61,0,0,1,.182-1.3,1.03,1.03,0,0,1,.637-.609A3.831,3.831,0,0,1,77.756-3.3,3.82,3.82,0,0,1,79-3.143a1.03,1.03,0,0,1,.63.609,3.61,3.61,0,0,1,.182,1.3A3.51,3.51,0,0,1,79.632.042,1.077,1.077,0,0,1,79,.665,3.536,3.536,0,0,1,77.756.84ZM75.726-7.9a.609.609,0,0,1-.455-.2.644.644,0,0,1-.189-.462.62.62,0,0,1,.189-.455.62.62,0,0,1,.455-.189h3.836a.62.62,0,0,1,.455.189.62.62,0,0,1,.189.455.644.644,0,0,1-.189.462.609.609,0,0,1-.455.2Zm.63-1.96a.622.622,0,0,1-.462-.2.655.655,0,0,1-.2-.469.648.648,0,0,1,.2-.476.632.632,0,0,1,.462-.2h2.7a.625.625,0,0,1,.469.2.66.66,0,0,1,.189.476.668.668,0,0,1-.189.469.615.615,0,0,1-.469.2Zm-.014,5.908a.632.632,0,0,1-.462-.2.632.632,0,0,1-.2-.462.625.625,0,0,1,.2-.469.644.644,0,0,1,.462-.189h2.73a.614.614,0,0,1,.462.189.65.65,0,0,1,.182.469.657.657,0,0,1-.182.462.6.6,0,0,1-.462.2Zm0-1.974a.632.632,0,0,1-.462-.2.632.632,0,0,1-.2-.462.625.625,0,0,1,.2-.469.644.644,0,0,1,.462-.189h2.73a.614.614,0,0,1,.462.189.65.65,0,0,1,.182.469.657.657,0,0,1-.182.462.6.6,0,0,1-.462.2ZM81-1.778a.642.642,0,0,1-.434-.343.676.676,0,0,1-.028-.539q.07-.21.154-.511t.175-.6q.091-.3.133-.483a.657.657,0,0,1,.322-.462.736.736,0,0,1,.546-.07.68.68,0,0,1,.455.294.7.7,0,0,1,.091.56q-.042.21-.126.532t-.175.63q-.091.308-.161.5a.729.729,0,0,1-.371.448A.737.737,0,0,1,81-1.778Zm.07-6.146a.6.6,0,0,1-.434-.329.719.719,0,0,1-.042-.539q.07-.21.154-.511t.161-.609q.077-.308.105-.49a.662.662,0,0,1,.315-.462.794.794,0,0,1,.553-.084.724.724,0,0,1,.462.28.642.642,0,0,1,.1.546q-.042.224-.119.546t-.154.63q-.077.308-.147.518a.734.734,0,0,1-.364.448A.792.792,0,0,1,81.074-7.924Zm4.69-.336a.654.654,0,0,1-.343-.413.707.707,0,0,1,.063-.539q.126-.252.329-.672t.329-.686a.677.677,0,0,1,.4-.378.751.751,0,0,1,.567.028.657.657,0,0,1,.385.371.7.7,0,0,1-.021.553q-.07.168-.2.441t-.259.546q-.133.273-.231.455a.733.733,0,0,1-.448.35A.769.769,0,0,1,85.764-8.26Zm.014,6.1a.7.7,0,0,1-.343-.434.723.723,0,0,1,.063-.546q.14-.238.329-.637t.315-.651a.7.7,0,0,1,.4-.4.728.728,0,0,1,.567.021.683.683,0,0,1,.392.371.708.708,0,0,1-.014.567q-.07.168-.2.434t-.259.525q-.133.259-.231.441a.676.676,0,0,1-.441.364A.785.785,0,0,1,85.778-2.156ZM77.756-.462a.625.625,0,0,0,.49-.14,1.141,1.141,0,0,0,.112-.63,1.182,1.182,0,0,0-.112-.637.606.606,0,0,0-.49-.147.608.608,0,0,0-.483.147,1.123,1.123,0,0,0-.119.637,1.084,1.084,0,0,0,.119.63A.627.627,0,0,0,77.756-.462ZM98.238,1.176a.808.808,0,0,1-.574-.224.77.77,0,0,1-.238-.588v-2.9q-.6.658-1.337,1.323A14.649,14.649,0,0,1,94.7-.084a.907.907,0,0,1-.63.161.754.754,0,0,1-.56-.329.735.735,0,0,1-.119-.581.713.713,0,0,1,.329-.483,11.745,11.745,0,0,0,1.036-.756q.574-.462,1.141-.966t.959-.924H94.4a.739.739,0,0,1-.532-.217.7.7,0,0,1-.224-.525.7.7,0,0,1,.224-.525.739.739,0,0,1,.532-.217h3.024v-1.12h-.07a4.626,4.626,0,0,1-1.575-.217,1.419,1.419,0,0,1-.826-.735,3.36,3.36,0,0,1-.245-1.414,3.352,3.352,0,0,1,.245-1.421,1.424,1.424,0,0,1,.819-.728,4.616,4.616,0,0,1,1.582-.217h1.736a4.679,4.679,0,0,1,1.589.217,1.4,1.4,0,0,1,.819.728,3.439,3.439,0,0,1,.238,1.421,3.448,3.448,0,0,1-.238,1.414,1.392,1.392,0,0,1-.819.735,4.679,4.679,0,0,1-1.589.217H99.05v1.12h3.024a.732.732,0,0,1,.539.217.715.715,0,0,1,.217.525.715.715,0,0,1-.217.525.732.732,0,0,1-.539.217h-2.45q.392.392.959.882t1.148.938q.581.448,1.029.728a.7.7,0,0,1,.329.5.782.782,0,0,1-.133.581.755.755,0,0,1-.546.343.9.9,0,0,1-.644-.147q-.406-.28-.882-.672t-.952-.84q-.476-.448-.882-.868V.364a.77.77,0,0,1-.238.588A.808.808,0,0,1,98.238,1.176Zm-5.684.084a.79.79,0,0,1-.56-.224.737.737,0,0,1-.238-.56V-6.09q-.322.518-.644.938a.764.764,0,0,1-.518.315.839.839,0,0,1-.6-.133.81.81,0,0,1-.329-.5.672.672,0,0,1,.119-.553q.392-.546.791-1.232t.763-1.407q.364-.721.651-1.4t.455-1.211a.772.772,0,0,1,.406-.49.815.815,0,0,1,.63-.028.827.827,0,0,1,.469.357.7.7,0,0,1,.049.609q-.126.42-.287.854t-.357.882V.462a.748.748,0,0,1-.238.581A.8.8,0,0,1,92.554,1.26ZM97.4-8.064H99.05a1.246,1.246,0,0,0,.77-.168.921.921,0,0,0,.2-.7.945.945,0,0,0-.2-.714,1.246,1.246,0,0,0-.77-.168H97.4a1.215,1.215,0,0,0-.756.168.945.945,0,0,0-.2.714.921.921,0,0,0,.2.7A1.215,1.215,0,0,0,97.4-8.064Zm8.54,9.226a.766.766,0,0,1-.532-.2.709.709,0,0,1-.224-.553v-10a2.558,2.558,0,0,1,.182-1.071,1.083,1.083,0,0,1,.665-.553,4.393,4.393,0,0,1,1.379-.168q1.554,0,1.974.616a1.555,1.555,0,0,1-.084,1.624l-.126.238q.518-.322,1.071-.742t1.043-.861q.49-.441.826-.791a1.488,1.488,0,0,1,1.064-.518,1.6,1.6,0,0,1,1.106.434q.406.336.994.784t1.218.861q.63.413,1.134.679a.635.635,0,0,1,.364.462.84.84,0,0,1-.084.6.865.865,0,0,1-.518.406.749.749,0,0,1-.63-.084l-.406-.252q-.224-.14-.462-.308a.718.718,0,0,1,.056.294.7.7,0,0,1-.189.5.664.664,0,0,1-.511.2h-1.134v.714h.686a3.91,3.91,0,0,1,1.239.161,1.144,1.144,0,0,1,.679.574,2.67,2.67,0,0,1,.21,1.183,2.67,2.67,0,0,1-.21,1.183,1.144,1.144,0,0,1-.679.574,3.91,3.91,0,0,1-1.239.161h-.308a7.742,7.742,0,0,0,1.337,1.2,7.363,7.363,0,0,0,1.631.9.672.672,0,0,1,.42.434.747.747,0,0,1-.028.6.741.741,0,0,1-.483.413,1.016,1.016,0,0,1-.693-.035,7.031,7.031,0,0,1-1.141-.609A8.419,8.419,0,0,1,114.4-.665a8.034,8.034,0,0,1-.945-1.029,4.825,4.825,0,0,1-1.68,1.68,9.312,9.312,0,0,1-2.408,1.022.9.9,0,0,1-.609-.014.677.677,0,0,1-.385-.42.77.77,0,0,1,.035-.588.656.656,0,0,1,.413-.35,7.823,7.823,0,0,0,2.114-.9,3.615,3.615,0,0,0,1.33-1.421h-.308a3.978,3.978,0,0,1-1.246-.161,1.144,1.144,0,0,1-.686-.574,2.67,2.67,0,0,1-.21-1.183,2.67,2.67,0,0,1,.21-1.183,1.144,1.144,0,0,1,.686-.574,3.978,3.978,0,0,1,1.246-.161h.644v-.714h-1.2a.67.67,0,0,1-.5-.2.688.688,0,0,1-.2-.5.441.441,0,0,1,.007-.07.44.44,0,0,0,.007-.07q-.224.168-.441.322t-.413.266a.886.886,0,0,1-.616.133.73.73,0,0,1-.518-.357.33.33,0,0,1-.07-.154q-.056.112-.112.217t-.1.175a.952.952,0,0,0-.133.5.947.947,0,0,0,.273.469,3.5,3.5,0,0,1,.938,2.45A2.373,2.373,0,0,1,109-2.373a2.02,2.02,0,0,1-1.435.595.765.765,0,0,1-.868-.532V.406a.721.721,0,0,1-.217.553A.759.759,0,0,1,105.938,1.162Zm.756-4.018a.85.85,0,0,1,.21-.315.693.693,0,0,1,.35-.175.818.818,0,0,0,.511-.294,1.4,1.4,0,0,0,.147-.756,2.592,2.592,0,0,0-.224-1.036,2.9,2.9,0,0,0-.56-.868,1.047,1.047,0,0,1-.315-.546,1.482,1.482,0,0,1,.175-.728q.084-.154.245-.518t.322-.742q.161-.378.231-.56.14-.336.056-.469t-.5-.133a.872.872,0,0,0-.518.105.619.619,0,0,0-.126.469Zm4.732-5.782h3.906q-.476-.35-.924-.707t-.742-.623a.582.582,0,0,0-.4-.217.644.644,0,0,0-.4.245q-.266.266-.644.609T111.426-8.638Zm2.688,4.62h.49a1.323,1.323,0,0,0,.644-.1q.14-.1.14-.49t-.14-.5a1.413,1.413,0,0,0-.644-.091h-.49Zm-1.974,0h.462V-5.194h-.462a1.413,1.413,0,0,0-.644.091q-.14.091-.14.5t.14.49A1.323,1.323,0,0,0,112.14-4.018Z" transform="translate(-12463.214 -12324.479)" fill="#eb8935"/>
  </g>
</svg>
