<svg xmlns="http://www.w3.org/2000/svg" xmlns:xlink="http://www.w3.org/1999/xlink" width="579.68" height="109" viewBox="0 0 579.68 109">
  <defs>
    <clipPath id="clip-path">
      <rect id="長方形_49886" data-name="長方形 49886" width="63.898" height="63.667" fill="none"/>
    </clipPath>
  </defs>
  <g id="グループ_408710" data-name="グループ 408710" transform="translate(-639 -76.999)">
    <path id="パス_40680" data-name="パス 40680" d="M54.5,0A54.5,54.5,0,1,1,0,54.5,54.5,54.5,0,0,1,54.5,0Z" transform="translate(639 76.999)" fill="#fff"/>
    <g id="グループ_406306" data-name="グループ 406306" transform="translate(661.551 99.666)">
      <g id="グループ_259279" data-name="グループ 259279" clip-path="url(#clip-path)">
        <path id="パス_32156" data-name="パス 32156" d="M69.123,51.7V37.735A1.423,1.423,0,0,0,68.1,36.311L53.254,31.458a4.048,4.048,0,0,0-2.42,0L35.947,36.326a1.423,1.423,0,0,0-1.025,1.423V51.711A19.854,19.854,0,0,0,50.706,71.124a6.355,6.355,0,0,0,2.676,0A19.84,19.84,0,0,0,69.123,51.7m-5.693,0A14.233,14.233,0,0,1,52.186,65.53h-.142V51.2H40.658V40.78l11.386-3.729V51.2H63.43Z" transform="translate(-19.428 -17.399)" fill="#eb8935"/>
        <path id="パス_32157" data-name="パス 32157" d="M33.961,9.074A22.2,22.2,0,0,1,52.455,19.236l.468-.185,11.4-4.324a1.639,1.639,0,0,0,.017-3.023L34.841.1a1.47,1.47,0,0,0-1.069,0L3.6,11.728a1.64,1.64,0,0,0,0,3.024l10.733,4.139a1.49,1.49,0,0,0,1.747-.535A22.121,22.121,0,0,1,33.961,9.074" transform="translate(-1.441 0)" fill="#ecb435"/>
        <path id="パス_32158" data-name="パス 32158" d="M4.215,39.149v-9.52H1.154v9.52A2.68,2.68,0,0,0,0,41.353v6.034H5.369V41.353a2.68,2.68,0,0,0-1.154-2.2" transform="translate(0 -16.484)" fill="#ecb435"/>
        <path id="パス_32159" data-name="パス 32159" d="M61.2,104.421a20.054,20.054,0,0,1-36.445,0H18.664a25.716,25.716,0,0,0,48.628,0Z" transform="translate(-10.384 -58.094)" fill="#ecb435"/>
      </g>
    </g>
    <g id="グループ_406241" data-name="グループ 406241" transform="translate(777.348 80.189)">
      <g id="グループ_406240" data-name="グループ 406240">
        <path id="パス_34937" data-name="パス 34937" d="M205.425,26.36a1.692,1.692,0,0,1,1.672-1.7h5.321V13.946h-3.826a1.672,1.672,0,1,1,0-3.344h10.565a1.672,1.672,0,0,1,0,3.344h-3.395V24.663h4.814a1.685,1.685,0,1,1,0,3.369H207.1A1.687,1.687,0,0,1,205.425,26.36Z" transform="translate(-205.425 -8.676)" fill="#fff"/>
        <path id="パス_34938" data-name="パス 34938" d="M274.433,26.231a1.643,1.643,0,0,1,1.647-1.646h16.29a1.643,1.643,0,0,1,1.647,1.646A1.666,1.666,0,0,1,292.37,27.9H276.08A1.666,1.666,0,0,1,274.433,26.231Z" transform="translate(-243.55 -16.401)" fill="#fff"/>
        <path id="パス_34939" data-name="パス 34939" d="M349.7,27.762a1.74,1.74,0,0,1,.1-2.407,80.941,80.941,0,0,0,8.791-9.6c.912-1.267.887-2.229.861-3.876h-6.663a1.685,1.685,0,1,1,0-3.369h8.158a1.834,1.834,0,0,1,1.825,2c0,3.775.051,4.965-1.318,6.942,0,0-.456.558-1.216,1.469l6.106,6.41a1.686,1.686,0,0,1-.127,2.381,1.733,1.733,0,0,1-2.381-.1L358.082,21.4c-1.875,2.1-4.028,4.611-6,6.461A1.683,1.683,0,0,1,349.7,27.762Z" transform="translate(-284.889 -7.519)" fill="#fff"/>
        <path id="パス_34940" data-name="パス 34940" d="M436.972,14.812a1.676,1.676,0,0,1-1.672,1.7h-4.13a37,37,0,0,1-3.319,10.362,1.8,1.8,0,0,1-2.331.836,1.687,1.687,0,0,1-.734-2.255c1.722-3.75,2.939-6.714,3.091-8.943h-7.246a1.685,1.685,0,0,1,0-3.369h7.119a23.286,23.286,0,0,0-.659-2.432l-3.041.76a1.684,1.684,0,0,1-.81-3.268l7.474-1.85a1.682,1.682,0,0,1,2.027,1.216,1.658,1.658,0,0,1-1.216,2.027l-1.267.354c.3,1.216.659,2.2.836,3.193H435.3A1.67,1.67,0,0,1,436.972,14.812Z" transform="translate(-323.396 -6.299)" fill="#fff"/>
        <path id="パス_34941" data-name="パス 34941" d="M509.439,20.942a2.357,2.357,0,0,1-.177.836,13.389,13.389,0,0,1-2.888,4.079,1.9,1.9,0,0,1-1.191.431,1.429,1.429,0,0,1-1.393-1.495,1.528,1.528,0,0,1,.532-1.165c.405-.431.734-.811,1.013-1.165h-3.8c.228,1.672,1.089,6.308,1.672,9.45a1.339,1.339,0,0,1-1.267,1.546,1.583,1.583,0,0,1-1.774-1.267s-1.646-9.45-1.7-9.728h-2.584a1.525,1.525,0,0,1-1.52-1.52,1.477,1.477,0,0,1,1.52-1.52h2.026c-.076-.507-.278-1.292-.38-1.9a1.48,1.48,0,0,1,1.292-1.621,1.623,1.623,0,0,1,1.774,1.241s.354,2.027.405,2.28h6.891A1.558,1.558,0,0,1,509.439,20.942Z" transform="translate(-365.055 -11.593)" fill="#fff"/>
        <path id="パス_34942" data-name="パス 34942" d="M561.395,17.97a1.69,1.69,0,0,1,.76-2.255c7.068-3.7,10.185-6.081,11.5-7.525a1.871,1.871,0,0,1,2.432-.3,1.665,1.665,0,0,1,.2,2.381,16.963,16.963,0,0,1-3.041,2.686V26.279a1.672,1.672,0,0,1-3.344,0v-11.1c-1.672.988-3.724,2.255-6.283,3.547A1.633,1.633,0,0,1,561.395,17.97Z" transform="translate(-401.988 -6.999)" fill="#fff"/>
        <path id="パス_34943" data-name="パス 34943" d="M632.9,27.072a1.708,1.708,0,0,1-.38-2.356,42.664,42.664,0,0,0,3.5-6.334,5.046,5.046,0,0,0,.354-2.28c0-1.824.026-2.508-.025-4.636a1.672,1.672,0,1,1,3.344-.051c0,2.635.026,4.661-.025,5.878-.076,1.495-1.495,4.915-4.332,9.272A1.809,1.809,0,0,1,632.9,27.072ZM652.33,20.1a1.737,1.737,0,0,1,.026,2.432,14.971,14.971,0,0,1-4.51,4.13,9.814,9.814,0,0,1-4.332,1.241,1.59,1.59,0,0,1-1.672-1.748V10.148a1.672,1.672,0,1,1,3.344,0V24.311a3.132,3.132,0,0,0,1.114-.405,13.133,13.133,0,0,0,3.7-3.547A1.613,1.613,0,0,1,652.33,20.1Z" transform="translate(-441.214 -7.488)" fill="#fff"/>
        <path id="パス_34944" data-name="パス 34944" d="M722.567,19.14s-4.18-1.292-6.713-2.077v9.45a1.685,1.685,0,0,1-3.37,0V8.651a1.685,1.685,0,0,1,3.37,0v4.94c2.736.785,7.752,2.356,7.752,2.356a1.653,1.653,0,0,1,1.09,2.077A1.722,1.722,0,0,1,722.567,19.14Zm.456-8.969v1.393a1.254,1.254,0,1,1-2.508,0V10.171a1.254,1.254,0,0,1,2.508,0Zm3.192,0v1.393a1.254,1.254,0,1,1-2.508,0V10.171a1.254,1.254,0,0,1,2.508,0Z" transform="translate(-485.559 -6.675)" fill="#fff"/>
      </g>
    </g>
    <g id="グループ_406242" data-name="グループ 406242" transform="translate(777.349 107.52)">
      <path id="パス_34945" data-name="パス 34945" d="M205.464,118.558a8.491,8.491,0,0,1,.166-2.661,2.338,2.338,0,0,1,3.061-1.6c1.131.5,1.164,1.464,1,3.127-.2,2.162,1.564,2.628,5.157,2.695a22.4,22.4,0,0,0,4.957-.5,2.071,2.071,0,0,1,2.595,1.5,2.441,2.441,0,0,1-1.763,2.827,24.963,24.963,0,0,1-5.888.566C207.094,124.413,205.63,120.72,205.464,118.558Zm.133-15.236a2.173,2.173,0,0,1,2.2-2.2h12.175a2.4,2.4,0,0,1,2.362,2.428,4.076,4.076,0,0,1-.433,1.2l-3.127,4.524a2.277,2.277,0,0,1-3.127.565,2.145,2.145,0,0,1-.5-3.06l.931-1.264h-8.283A2.194,2.194,0,0,1,205.6,103.322Z" transform="translate(-205.426 -86.297)" fill="#fff"/>
      <path id="パス_34946" data-name="パス 34946" d="M285.489,107.256l-3.194-9.049a2.188,2.188,0,0,1,4.158-1.364l2.4,7.386c1.032-.932,1.963-1.73,4.558-3.926a2.242,2.242,0,0,1,3.127.2,2.175,2.175,0,0,1-.233,3.094c-6.288,5.356-6.154,5.09-8.916,7.651-1.464,1.364-2.2,2.728-1.863,4.026.433,1.53,1.364,1.863,4.458,2a28.143,28.143,0,0,0,6.221-.665,2.107,2.107,0,0,1,2.428,1.863,2.467,2.467,0,0,1-1.963,2.628,31.107,31.107,0,0,1-6.853.632c-6.587-.266-8.416-3.427-8.516-6.088C281.164,112.678,281.829,110.749,285.489,107.256Zm16.367-10.213v1.83a1.647,1.647,0,1,1-3.293,0v-1.83a1.647,1.647,0,1,1,3.293,0Zm4.191,0v1.83a1.647,1.647,0,1,1-3.293,0v-1.83a1.647,1.647,0,1,1,3.293,0Z" transform="translate(-249.69 -82.913)" fill="#fff"/>
      <path id="パス_34947" data-name="パス 34947" d="M370.41,102.847c.1-.732.167-1.531.266-2.329h-1.3a2.2,2.2,0,0,1,0-4.391h1.8c.133-1.3.267-2.595.4-3.959a2.257,2.257,0,0,1,2.428-2,2.207,2.207,0,0,1,1.963,2.428c-.133,1.2-.233,2.362-.366,3.526h2.462a2.2,2.2,0,1,1,0,4.391H375.1c-.066.8-.166,1.564-.266,2.329h2.994a2.2,2.2,0,0,1,0,4.391h-3.56l-.532,4.724c-.433,3.593,2.328,3.926,3.726,3.859,2.229-.133,2.561-2.462,1.9-4.658a2.041,2.041,0,0,1,1.4-2.861,2.4,2.4,0,0,1,2.827,1.963c.666,2.861.366,5.622-1.064,7.518a6.277,6.277,0,0,1-4.791,2.428c-4.89.266-9.049-3.061-8.383-8.749l.532-4.225h-.9a2.2,2.2,0,1,1,0-4.391Z" transform="translate(-299.584 -79.901)" fill="#fff"/>
      <path id="パス_34948" data-name="パス 34948" d="M456.585,111.058c.067-3.659-2.661-6.42-6.886-6.354-5.323.1-8.084,3.527-8.151,7.286-.033,2.162.632,3.759,1.663,3.859,1.131.067,2.595-2.628,3.593-7.452a2.183,2.183,0,0,1,4.325.6c-.765,3.859-2.961,11.543-8.017,11.576-2.894,0-5.822-3.393-5.722-8.682.133-6.354,5.422-11.111,12.242-11.244,7.386-.1,11.277,5.389,11.277,10.479,0,4.358-2.062,8.882-7.119,12.974a2.545,2.545,0,0,1-3.36-.3,2.282,2.282,0,0,1,.5-3.094C454.689,117.378,456.552,114.983,456.585,111.058Z" transform="translate(-340.784 -86.016)" fill="#fff"/>
      <path id="パス_34949" data-name="パス 34949" d="M517.674,117.967,521.3,101.6h-1.6a2.2,2.2,0,1,1,0-4.391h2.561l.666-2.927a2.192,2.192,0,1,1,4.291.9l-.433,2.029h3.427a2.2,2.2,0,1,1,0,4.391H525.79L522,118.866a2.2,2.2,0,0,1-2.628,1.7A2.18,2.18,0,0,1,517.674,117.967Zm17.4,2.462c-4.258-.4-6.288-2.4-5.822-6.853a2.111,2.111,0,0,1,2.3-1.963c.9.033,2.1.732,2,1.9-.2,1.8.166,2.429,1.93,2.562a12.553,12.553,0,0,0,2.961-.1,2.049,2.049,0,0,1,2.5,1.9,2.34,2.34,0,0,1-2.029,2.462A16.03,16.03,0,0,1,535.072,120.429Zm5.522-16a4.128,4.128,0,0,1-.4,1.364l-2.4,3.659a2.2,2.2,0,0,1-2.994.832,1.99,1.99,0,0,1-.632-2.861l.665-.8h-2.994a2.2,2.2,0,1,1,0-4.391h6.521A2.2,2.2,0,0,1,540.594,104.428Z" transform="translate(-387.537 -81.283)" fill="#fff"/>
      <path id="パス_34950" data-name="パス 34950" d="M621.141,110.534c.2,4.358-1.73,8.749-7.053,12.042a2.7,2.7,0,0,1-3.36-.366,2.153,2.153,0,0,1,.7-3.127c4.458-3.36,5.323-5.256,5.489-7.917.133-2.462-.665-4.89-3.293-5.323-1.863,4.125-4.059,9.115-5.356,11.144-1.4,2.2-2.728,3.626-5.389,3.36-3.16-.3-5.256-4.425-5.256-8.483a8.921,8.921,0,0,1,4.192-7.618l-.9-4.059a2.078,2.078,0,0,1,1.8-2.595,2.192,2.192,0,0,1,2.562,1.763l.632,2.961a20.528,20.528,0,0,1,4.956-.9c.333-.732.832-2.129,1.132-2.761a2.2,2.2,0,1,1,4.025,1.8c-.2.5-.333.832-.6,1.53C619.045,103.183,620.908,106.11,621.141,110.534Zm-14.87,1.064a1.817,1.817,0,0,1-.6.2,2.252,2.252,0,0,1-2.727-1.73l-.233-1.264a5.249,5.249,0,0,0-1.064,2.695c-.233,2.129.765,4.357,1.7,4.357C604.308,115.824,605.373,113.428,606.271,111.6Zm2.628-5.722a8.562,8.562,0,0,0-2.2.566l.6,2.961A33.928,33.928,0,0,0,608.9,105.877Z" transform="translate(-434.286 -84.096)" fill="#fff"/>
      <path id="パス_34951" data-name="パス 34951" d="M696.209,111.058c.067-3.659-2.661-6.42-6.886-6.354-5.323.1-8.084,3.527-8.151,7.286-.033,2.162.632,3.759,1.663,3.859,1.131.067,2.6-2.628,3.593-7.452a2.183,2.183,0,0,1,4.325.6c-.766,3.859-2.961,11.543-8.017,11.576-2.894,0-5.822-3.393-5.722-8.682.133-6.354,5.422-11.111,12.242-11.244,7.385-.1,11.277,5.389,11.277,10.479,0,4.358-2.062,8.882-7.119,12.974a2.545,2.545,0,0,1-3.36-.3,2.282,2.282,0,0,1,.5-3.094C694.313,117.378,696.176,114.983,696.209,111.058Z" transform="translate(-480.614 -86.016)" fill="#fff"/>
      <path id="パス_34952" data-name="パス 34952" d="M759.55,92.467,770.488,79.91h-8.007a2.888,2.888,0,1,1,0-5.775h26.076a2.848,2.848,0,0,1,2.887,2.844,2.894,2.894,0,0,1-2.887,2.931H777.926L764.057,96.23a3.11,3.11,0,0,1-4.2.35A2.912,2.912,0,0,1,759.55,92.467Zm16.276,19.819a3.091,3.091,0,0,1-3.106-3.106V89.054a3.085,3.085,0,1,1,6.169,0V109.18A3.081,3.081,0,0,1,775.826,112.287ZM788.3,94.13h-5.381a2.888,2.888,0,1,1,0-5.776H788.3a2.888,2.888,0,0,1,0,5.776Z" transform="translate(-528.365 -70.547)" fill="#fff"/>
      <path id="パス_34953" data-name="パス 34953" d="M871.164,72.783a2.819,2.819,0,0,1-.219,1.05l4.988-2.888v-.7h-.394a2.382,2.382,0,0,1-2.319-2.406,2.5,2.5,0,0,1,2.538-2.319h3.587a2.42,2.42,0,0,1,2.407,2.363V70.6l11.638,7.263h.087a2.9,2.9,0,0,1,2.888,2.975,2.842,2.842,0,0,1-2.888,2.931h-.656a5.125,5.125,0,0,1-2.363-.744L888.622,81.8a2.485,2.485,0,0,1-2.494,2.275h-14.92a2.513,2.513,0,0,1-2.493-2.231l-2.582,1.619a3.134,3.134,0,0,1-4.157-1.05,2.99,2.99,0,0,1,1.269-3.981l4.55-2.757h-1.4a2.888,2.888,0,1,1,0-5.775h1.881A2.884,2.884,0,0,1,871.164,72.783Zm-6.213,29.357h3.019a3.046,3.046,0,0,1-.219-1.094l.043-.962a2.888,2.888,0,1,1,5.775,0v.962a3.044,3.044,0,0,1-.219,1.094h10.763a2.742,2.742,0,0,1-.262-1.182V100a2.909,2.909,0,0,1,5.818,0v.962a2.741,2.741,0,0,1-.262,1.182h3.062a2.647,2.647,0,1,1,0,5.294h-27.52a2.647,2.647,0,1,1,0-5.294Zm6.563-5.075a2.882,2.882,0,0,1-2.888-3.019v-5.6a2.914,2.914,0,0,1,2.888-2.888h14.613a2.923,2.923,0,0,1,2.931,2.888v5.6a2.712,2.712,0,0,1-2.625,2.931A71.1,71.1,0,0,1,871.514,97.065Zm1.269-17.982h11.682l-5.6-3.675Zm1.663,13.3a73.843,73.843,0,0,0,8.794-.044V90.372h-8.794Zm12.907-19.207a2.885,2.885,0,0,1-2.888-2.888V69.5a2.888,2.888,0,0,1,5.776,0v.788A2.913,2.913,0,0,1,887.353,73.177Zm6.169,2.844a2.913,2.913,0,0,1-2.888-2.888v-.788a2.888,2.888,0,1,1,5.775,0v.788A2.885,2.885,0,0,1,893.522,76.021Z" transform="translate(-588.35 -65.52)" fill="#fff"/>
      <path id="パス_34954" data-name="パス 34954" d="M966.131,104V91.045l-.7.919a2.628,2.628,0,0,1-3.675.35,2.588,2.588,0,0,1-.35-3.675l4.725-5.819v-.394h-1.4a2.888,2.888,0,1,1,0-5.776h1.4V72.144a2.8,2.8,0,1,1,5.6,0V76.65h.831a2.888,2.888,0,0,1,0,5.776h-.831v.35l3.019,2.888a2.615,2.615,0,0,1,.044,3.675,2.537,2.537,0,0,1-3.063.525V104a2.8,2.8,0,1,1-5.6,0Zm33.514.438a2.941,2.941,0,0,1-2.8,3.062l-.831.044a4.392,4.392,0,0,1-3.5-1.75l-5.863-6.125-5.469,6.562a3.073,3.073,0,0,1-4.2.482,2.941,2.941,0,0,1-.35-4.069l6.081-7.307-3.106-3.5a2.863,2.863,0,0,1,.307-4.069,2.9,2.9,0,0,1,4.069.306l2.319,2.625,2.844-3.5a2.9,2.9,0,1,1,4.55,3.588l-3.412,4.244,6.256,6.476h.307A2.821,2.821,0,0,1,999.645,104.434Zm-1.05-31.108a2.858,2.858,0,0,1-2.888,2.888H979.869a2.888,2.888,0,0,1,0-5.776h4.769V68.731a3.118,3.118,0,0,1,3.106-3.106,3.081,3.081,0,0,1,3.063,3.106v1.706h4.9A2.885,2.885,0,0,1,998.595,73.325Zm-14.438,4.725a2.946,2.946,0,0,1-.087,4.113L982.1,83.826a2.895,2.895,0,0,1-3.938-4.244l1.925-1.663A2.894,2.894,0,0,1,984.157,78.051Zm13.52,1.794a2.854,2.854,0,0,1,.131,4.069,2.906,2.906,0,0,1-4.113.131l-1.925-1.663a2.946,2.946,0,0,1-.131-4.113,2.9,2.9,0,0,1,4.113-.087Z" transform="translate(-646.214 -65.581)" fill="#fff"/>
      <path id="パス_34955" data-name="パス 34955" d="M1066.285,85.891a2.906,2.906,0,0,1,.088-4.113l7.394-7.263a2.9,2.9,0,0,1,4.113,0,2.866,2.866,0,0,1-.043,4.113l-1.182,1.182V105.4a2.888,2.888,0,1,1-5.775,0V85.454l-.481.481A2.946,2.946,0,0,1,1066.285,85.891Zm37.234,16.757a2.858,2.858,0,0,1-2.844,2.931h-.875a4.035,4.035,0,0,1-2.581-1.356l-4.113-3.894v6.344a2.888,2.888,0,1,1-5.776,0v-6.3l-4.856,4.244c-1.575,1.269-3.106,1.269-4.288.175a2.957,2.957,0,0,1,0-4.157l6.52-5.557h-4.245a2.888,2.888,0,1,1,0-5.775h6.869V88.123a2.888,2.888,0,0,1,5.776,0V89.3h6.65a2.888,2.888,0,1,1,0,5.775h-3.893l5.381,4.638A3.008,3.008,0,0,1,1103.518,102.648Zm-3.544-30.67v9.976a2.927,2.927,0,0,1-2.888,2.8,97.391,97.391,0,0,1-12.513.087,2.942,2.942,0,0,1-2.887-2.887V71.978a2.823,2.823,0,0,1,2.975-2.888h12.426A2.885,2.885,0,0,1,1099.974,71.978Zm-5.775,2.888h-6.738v4.287a43.249,43.249,0,0,0,6.738,0Z" transform="translate(-707.296 -67.603)" fill="#fff"/>
      <path id="パス_34956" data-name="パス 34956" d="M1211.875,109.23h-.394a3.78,3.78,0,0,1-2.713-1.181l-6.694-7.438-7.657,7.876a2.959,2.959,0,0,1-4.157.131,2.893,2.893,0,0,1-.088-4.069l7.963-8.182c-1.094-.087-2.319-.175-3.063-.262a2.638,2.638,0,0,1-2.45-2.494V85.691a2.484,2.484,0,0,1,2.45-2.494h4.332V82.191h-3.019a2.294,2.294,0,0,1-2.1-2.494c-.087,0-.744.481-.787.481a2.744,2.744,0,0,1-3.5-.613.043.043,0,0,0-.044-.044c-.7,2.757-1.444,5.688-1.444,5.688l2.931,8.4a2.665,2.665,0,0,1-1.356,3.5l-2.406,1.05a2.641,2.641,0,0,1-3.194-1.706,2.494,2.494,0,0,1,1.444-3.194l.131-.044-1.882-5.469v18.77a2.652,2.652,0,0,1-2.669,2.669,2.615,2.615,0,0,1-2.625-2.669V74.36a2.591,2.591,0,0,1,2.538-2.231l7.307.044a2.575,2.575,0,0,1,2.363,2.931c1.575-1.225,5.206-4.113,5.206-4.113a7.548,7.548,0,0,1,5.338-1.794,8.107,8.107,0,0,1,5.162,1.663c.963.656,6.169,4.463,6.169,4.463a3.15,3.15,0,0,1,.525,4.287,3.247,3.247,0,0,1-3.588.657c-.088-.044-1.181-.832-1.269-.875V79.7a2.483,2.483,0,0,1-2.45,2.494h-1.837V83.2h4.156A2.493,2.493,0,0,1,1211,85.691v7.919a2.442,2.442,0,0,1-2.275,2.494c-.656.131-2.144.175-2.932.262l6.738,7a2.909,2.909,0,0,1,2.275,2.844A2.8,2.8,0,0,1,1211.875,109.23Zm-26.208-32.07-1.488-.044V83.81Zm13.738,11.025h-1.838v3.15c.438.044,1.4.044,1.838.087Zm6.475-10.982c-1.05-.832-2.275-1.663-3.019-2.188a2.011,2.011,0,0,0-1.181-.394,2.355,2.355,0,0,0-1.313.438c-.656.525-1.75,1.356-2.713,2.144Zm-1.531,14.132c.394,0,1.312-.044,1.706-.087V88.186h-1.706Z" transform="translate(-773.476 -67.666)" fill="#fff"/>
    </g>
    <path id="パス_40681" data-name="パス 40681" d="M-127.728,1.12a1.056,1.056,0,0,1-.752.04.791.791,0,0,1-.5-.472A.8.8,0,0,1-128.96.04a.92.92,0,0,1,.5-.424A3.845,3.845,0,0,0-126.6-1.776a4.706,4.706,0,0,0,.7-2.336,1.383,1.383,0,0,1-.808-.768,3.986,3.986,0,0,1-.232-1.52v-4.032a3.976,3.976,0,0,1,.232-1.528,1.358,1.358,0,0,1,.808-.752,4.594,4.594,0,0,1,1.568-.216h1.088a4.582,4.582,0,0,1,1.576.216,1.359,1.359,0,0,1,.8.752,3.976,3.976,0,0,1,.232,1.528V-6.4a3.416,3.416,0,0,1-.32,1.68A1.632,1.632,0,0,1-122.1-4v2.9a.366.366,0,0,0,.1.3.72.72,0,0,0,.408.08.531.531,0,0,0,.448-.152,2.231,2.231,0,0,0,.24-.68.674.674,0,0,1,.36-.432.9.9,0,0,1,.632-.064.772.772,0,0,1,.456.32.765.765,0,0,1,.12.608A2.74,2.74,0,0,1-120.04.536a2.045,2.045,0,0,1-1.432.488h-.336a2.717,2.717,0,0,1-1.456-.3,1.316,1.316,0,0,1-.464-1.184V-3.9h-.608A6.061,6.061,0,0,1-125.312-.7,5.083,5.083,0,0,1-127.728,1.12Zm-3.04.208a.847.847,0,0,1-.6-.232.823.823,0,0,1-.248-.632v-3.12q-.416.576-.872,1.144a11.689,11.689,0,0,1-.824.936,1.038,1.038,0,0,1-.608.3.751.751,0,0,1-.624-.192.842.842,0,0,1-.248-.552.612.612,0,0,1,.216-.536q.32-.3.752-.792t.848-1.016q.416-.528.688-.944h-1.264a.74.74,0,0,1-.568-.232.782.782,0,0,1-.216-.552.782.782,0,0,1,.216-.552.74.74,0,0,1,.568-.232h1.936v-1.1h-2.144a.715.715,0,0,1-.552-.216.738.738,0,0,1-.2-.52.759.759,0,0,1,.2-.536.715.715,0,0,1,.552-.216h.944q-.1-.272-.208-.576l-.176-.48a.53.53,0,0,1,.04-.512.8.8,0,0,1,.44-.336.177.177,0,0,0,.056-.008.132.132,0,0,1,.04-.008h-.928a.7.7,0,0,1-.536-.216.738.738,0,0,1-.2-.52.731.731,0,0,1,.2-.528.709.709,0,0,1,.536-.208h1.9v-.88a.774.774,0,0,1,.264-.624.923.923,0,0,1,.616-.224.945.945,0,0,1,.632.224.774.774,0,0,1,.264.624v.88h1.744a.7.7,0,0,1,.544.208.748.748,0,0,1,.192.528.756.756,0,0,1-.192.52.69.69,0,0,1-.544.216h-.688a.681.681,0,0,1,.448.352.712.712,0,0,1,.032.592q-.064.192-.176.456t-.208.52h.752a.69.69,0,0,1,.544.216.777.777,0,0,1,.192.536.756.756,0,0,1-.192.52.69.69,0,0,1-.544.216h-1.952v1.1h1.744a.734.734,0,0,1,.576.232.8.8,0,0,1,.208.552.8.8,0,0,1-.208.552.734.734,0,0,1-.576.232h-1.488a.1.1,0,0,1,.064.064q.208.224.528.528t.664.584q.344.28.616.488a.675.675,0,0,1,.3.528.782.782,0,0,1-.2.592.667.667,0,0,1-.544.256.872.872,0,0,1-.592-.224q-.208-.176-.5-.464l-.592-.592V.464a.838.838,0,0,1-.24.632A.839.839,0,0,1-130.768,1.328Zm-.448-9.792h.848a.178.178,0,0,1,.016-.08q.112-.256.272-.664t.24-.664a.774.774,0,0,1,.224-.344.84.84,0,0,1,.32-.168h-2.9a.592.592,0,0,1,.448.416q.1.208.256.624t.24.64a1.19,1.19,0,0,1,.024.12A.851.851,0,0,1-131.216-8.464Zm6.032.56h2.784V-8.96h-2.784Zm1.1,2.432h.576a1.41,1.41,0,0,0,.912-.192,1.207,1.207,0,0,0,.192-.816v-.112h-2.784v.112a1.207,1.207,0,0,0,.192.816A1.41,1.41,0,0,0-124.08-5.472Zm-1.1-4.8h2.784v-.08a1.207,1.207,0,0,0-.192-.816,1.41,1.41,0,0,0-.912-.192h-.576a1.41,1.41,0,0,0-.912.192,1.207,1.207,0,0,0-.192.816Zm12.736,11.536a1.143,1.143,0,0,1-.744-.24A.96.96,0,0,1-113.52.3a.822.822,0,0,1,.312-.72,1.2,1.2,0,0,1,.7-.272,3.192,3.192,0,0,0,1.408-.32,1.714,1.714,0,0,0,.776-.928,4.959,4.959,0,0,0,.248-1.744,4.492,4.492,0,0,0-.336-1.7h-6.512a.836.836,0,0,1-.624-.264.876.876,0,0,1-.256-.632.849.849,0,0,1,.256-.624.849.849,0,0,1,.624-.256h5.5a4.713,4.713,0,0,0-.992-.96.929.929,0,0,1-.36-.656.771.771,0,0,1,.216-.656.963.963,0,0,1,.688-.32,1.213,1.213,0,0,1,.72.256q.08.064.152.112t.136.1q.384-.192.848-.432l.848-.44q.384-.2.528-.28.368-.224.312-.464t-.472-.24h-6.464a.818.818,0,0,1-.608-.264.857.857,0,0,1-.256-.616.823.823,0,0,1,.256-.616.844.844,0,0,1,.608-.248h7.184a2.5,2.5,0,0,1,1.5.4,1.671,1.671,0,0,1,.688,1,1.764,1.764,0,0,1-.16,1.2,2.321,2.321,0,0,1-1.064,1q-.528.288-1.192.616t-1.32.632a8.882,8.882,0,0,1,.576.88h5.44a.849.849,0,0,1,.624.256.849.849,0,0,1,.256.624.876.876,0,0,1-.256.632.836.836,0,0,1-.624.264h-4.736a8.38,8.38,0,0,1,.152.88,7.873,7.873,0,0,1,.056.944A5.176,5.176,0,0,1-109.24.12,4.239,4.239,0,0,1-112.448,1.264Zm20.88-1.312A.978.978,0,0,1-92.32-.16a.927.927,0,0,1-.448-.592.923.923,0,0,1,.112-.728.933.933,0,0,1,.592-.44,4.8,4.8,0,0,0,2.616-1.5,4.067,4.067,0,0,0,.84-2.64,3.636,3.636,0,0,0-.448-1.808,3.485,3.485,0,0,0-1.272-1.3A4.658,4.658,0,0,0-92.3-9.776a21.15,21.15,0,0,1-.968,4.648,9.261,9.261,0,0,1-1.6,3.024A2.589,2.589,0,0,1-96.8-1.04a2.635,2.635,0,0,1-1.552-.5A3.326,3.326,0,0,1-99.464-2.96a5.5,5.5,0,0,1-.408-2.224,6.175,6.175,0,0,1,.5-2.488,6.179,6.179,0,0,1,1.432-2.04,6.728,6.728,0,0,1,2.184-1.376,7.451,7.451,0,0,1,2.76-.5,7.252,7.252,0,0,1,3.24.7A5.528,5.528,0,0,1-87.52-8.952,5.133,5.133,0,0,1-86.7-6.064,5.974,5.974,0,0,1-87.944-2.2,6.547,6.547,0,0,1-91.568-.048Zm-5.216-2.96q.288,0,.664-.488a6.52,6.52,0,0,0,.76-1.384,15.159,15.159,0,0,0,.7-2.12,18.624,18.624,0,0,0,.48-2.712,4.711,4.711,0,0,0-2.1.92,4.441,4.441,0,0,0-1.28,1.616A4.807,4.807,0,0,0-98-5.216a3.189,3.189,0,0,0,.344,1.648A1.008,1.008,0,0,0-96.784-3.008ZM-82.1.512a.9.9,0,0,1-.44-.592.926.926,0,0,1,.12-.72,13.938,13.938,0,0,0,1.1-2.224,22.242,22.242,0,0,0,.824-2.528q.344-1.312.552-2.576-.464.048-.9.08t-.824.064a.985.985,0,0,1-.7-.232.9.9,0,0,1-.328-.648.967.967,0,0,1,.24-.7.878.878,0,0,1,.656-.312q.464-.032,1-.064t1.08-.1q.048-.544.064-1.04t0-.944A.925.925,0,0,1-79.4-12.7a.915.915,0,0,1,.664-.3.925.925,0,0,1,.688.248.915.915,0,0,1,.3.664q.016.4,0,.856t-.064.968q.72-.128,1.3-.24a.952.952,0,0,1,.72.128.881.881,0,0,1,.416.592.916.916,0,0,1-.136.72.924.924,0,0,1-.6.4q-.4.08-.888.16t-1.032.16q-.224,1.456-.608,3.016a26.806,26.806,0,0,1-.92,2.992A14.2,14.2,0,0,1-80.784.192a.94.94,0,0,1-.592.432A.9.9,0,0,1-82.1.512ZM-70.96.16a8.03,8.03,0,0,1-4.088.032A3.885,3.885,0,0,1-77.488-1.7a.987.987,0,0,1-.072-.728.9.9,0,0,1,.456-.568.918.918,0,0,1,.728-.08.928.928,0,0,1,.568.464,2.19,2.19,0,0,0,1.616,1.056,7.391,7.391,0,0,0,2.832-.16.939.939,0,0,1,.728.136.916.916,0,0,1,.408.6.939.939,0,0,1-.136.728A.916.916,0,0,1-70.96.16Zm-.784-6.112a7.787,7.787,0,0,0-1.24-.176,13.73,13.73,0,0,0-1.408-.024,9.352,9.352,0,0,0-1.336.136.914.914,0,0,1-.7-.152.927.927,0,0,1-.392-.584.91.91,0,0,1,.136-.712.86.86,0,0,1,.6-.392,12.276,12.276,0,0,1,1.592-.16,15.879,15.879,0,0,1,1.672.024,9.563,9.563,0,0,1,1.52.216.855.855,0,0,1,.584.416.92.92,0,0,1,.1.72.849.849,0,0,1-.416.568A.973.973,0,0,1-71.744-5.952ZM-58.288.064a.985.985,0,0,1-.7-.232.9.9,0,0,1-.328-.648.937.937,0,0,1,.224-.7.868.868,0,0,1,.656-.32,4.384,4.384,0,0,0,2.68-.968,2.968,2.968,0,0,0,.936-2.328,2.619,2.619,0,0,0-.624-1.736,3.428,3.428,0,0,0-1.712-1.064,13.96,13.96,0,0,1-1.568,3.2l.288.224q.144.112.272.208a.928.928,0,0,1,.392.616.956.956,0,0,1-.152.728.928.928,0,0,1-.616.392.876.876,0,0,1-.712-.168q-.336-.24-.672-.528a8.029,8.029,0,0,1-.96.848,10.31,10.31,0,0,1-1.072.7,3.458,3.458,0,0,1-1.912.48,2.117,2.117,0,0,1-1.5-.712,2.641,2.641,0,0,1-.576-1.816,5.271,5.271,0,0,1,.592-2.488,6.366,6.366,0,0,1,1.568-1.944,15.576,15.576,0,0,1-1.024-2.16.851.851,0,0,1,.04-.728.955.955,0,0,1,.552-.488.914.914,0,0,1,.728.048.925.925,0,0,1,.488.544q.144.432.344.88t.44.912a7.863,7.863,0,0,1,1.656-.56,8.2,8.2,0,0,1,1.768-.192h.24q.112-.416.2-.848t.168-.88a.932.932,0,0,1,.384-.632.882.882,0,0,1,.72-.152.922.922,0,0,1,.616.384.93.93,0,0,1,.168.72q-.064.432-.16.848l-.192.832a5.254,5.254,0,0,1,2.72,1.672,4.32,4.32,0,0,1,.992,2.856,5.21,5.21,0,0,1-.64,2.616A4.664,4.664,0,0,1-55.4-.728,6.955,6.955,0,0,1-58.288.064Zm-4.576-3.376a6.6,6.6,0,0,0,1.648-1.264,21.541,21.541,0,0,1-1.6-2.08A3.888,3.888,0,0,0-64.064-3.84a.679.679,0,0,0,.32.664A.951.951,0,0,0-62.864-3.312Zm2.8-2.768q.272-.464.528-.984a10.084,10.084,0,0,0,.464-1.112,6.727,6.727,0,0,0-1.176.16,6,6,0,0,0-1.032.336A14.376,14.376,0,0,0-60.064-6.08ZM-40.688-.048A.978.978,0,0,1-41.44-.16a.927.927,0,0,1-.448-.592.923.923,0,0,1,.112-.728.933.933,0,0,1,.592-.44,4.8,4.8,0,0,0,2.616-1.5,4.067,4.067,0,0,0,.84-2.64,3.636,3.636,0,0,0-.448-1.808,3.485,3.485,0,0,0-1.272-1.3,4.658,4.658,0,0,0-1.976-.608,21.15,21.15,0,0,1-.968,4.648,9.261,9.261,0,0,1-1.6,3.024A2.589,2.589,0,0,1-45.92-1.04a2.635,2.635,0,0,1-1.552-.5A3.326,3.326,0,0,1-48.584-2.96a5.5,5.5,0,0,1-.408-2.224,6.175,6.175,0,0,1,.5-2.488,6.179,6.179,0,0,1,1.432-2.04,6.728,6.728,0,0,1,2.184-1.376,7.451,7.451,0,0,1,2.76-.5,7.252,7.252,0,0,1,3.24.7A5.528,5.528,0,0,1-36.64-8.952a5.133,5.133,0,0,1,.816,2.888A5.974,5.974,0,0,1-37.064-2.2,6.547,6.547,0,0,1-40.688-.048ZM-45.9-3.008q.288,0,.664-.488a6.52,6.52,0,0,0,.76-1.384,15.159,15.159,0,0,0,.7-2.12,18.624,18.624,0,0,0,.48-2.712,4.711,4.711,0,0,0-2.1.92,4.441,4.441,0,0,0-1.28,1.616,4.807,4.807,0,0,0-.448,1.96,3.189,3.189,0,0,0,.344,1.648A1.008,1.008,0,0,0-45.9-3.008ZM-20.16,1.136A2.71,2.71,0,0,1-21.872.7a1.822,1.822,0,0,1-.544-1.5V-3.728a10.737,10.737,0,0,1-1.232,2.552A9.764,9.764,0,0,1-25.616.992a1.06,1.06,0,0,1-.7.256.866.866,0,0,1-.672-.3A.852.852,0,0,1-27.184.3a.775.775,0,0,1,.3-.576A7.848,7.848,0,0,0-25.728-1.3l-.048.016a.826.826,0,0,1-.632.064.722.722,0,0,1-.456-.4,4.8,4.8,0,0,0-.224-.456q-.16-.3-.32-.6t-.256-.464a.771.771,0,0,1-.04-.64.7.7,0,0,1,.424-.432.852.852,0,0,1,.64-.064.879.879,0,0,1,.5.432l.24.432q.16.288.312.568t.216.424a.8.8,0,0,1,.064.624A7.934,7.934,0,0,0-24-4.448a14.945,14.945,0,0,0,.512-3.264h-1.536A.773.773,0,0,1-25.6-7.96a.812.812,0,0,1-.24-.584.791.791,0,0,1,.248-.592.831.831,0,0,1,.6-.24h1.552v-3.2a.842.842,0,0,1,.264-.656.907.907,0,0,1,.632-.24.928.928,0,0,1,.648.24.842.842,0,0,1,.264.656v3.2H-18.8a.786.786,0,0,1,.576.24.8.8,0,0,1,.24.592.812.812,0,0,1-.24.584.773.773,0,0,1-.576.248h-2.88Q-21.7-7.5-21.7-7.3a3.658,3.658,0,0,1-.04.416.94.94,0,0,1,.224-.032.879.879,0,0,1,.624.24.856.856,0,0,1,.256.656v4.88a.511.511,0,0,0,.128.408.727.727,0,0,0,.448.1.514.514,0,0,0,.4-.128,1.338,1.338,0,0,0,.192-.576.723.723,0,0,1,.36-.536.876.876,0,0,1,.648-.088.849.849,0,0,1,.576.328.813.813,0,0,1,.112.664A2.628,2.628,0,0,1-18.52.672,2.5,2.5,0,0,1-20.16,1.136Zm-9.984.224a1.037,1.037,0,0,1-.7-.2.852.852,0,0,1-.312-.648.886.886,0,0,1,.224-.624.822.822,0,0,1,.624-.3.792.792,0,0,0,.5-.144.694.694,0,0,0,.1-.432V-4.608a2.519,2.519,0,0,1-1.744-.512,2.3,2.3,0,0,1-.512-1.7,2.28,2.28,0,0,1,.528-1.72,2.62,2.62,0,0,1,1.792-.488h1.472a2.616,2.616,0,0,1,1.8.488,2.3,2.3,0,0,1,.52,1.72,2.355,2.355,0,0,1-.488,1.672,2.364,2.364,0,0,1-1.672.536V-.736a2.124,2.124,0,0,1-.52,1.552A2.219,2.219,0,0,1-30.144,1.36ZM-32.128-9.824a.768.768,0,0,1-.56-.24.768.768,0,0,1-.24-.56.76.76,0,0,1,.24-.568.781.781,0,0,1,.56-.232h2.352v-1.184a.813.813,0,0,1,.28-.664,1.008,1.008,0,0,1,.664-.232,1,1,0,0,1,.672.232.825.825,0,0,1,.272.664v1.184h2.256a.781.781,0,0,1,.56.232.76.76,0,0,1,.24.568.768.768,0,0,1-.24.56.768.768,0,0,1-.56.24Zm-.3,9.648a.844.844,0,0,1-.448-.432.678.678,0,0,1,0-.608q.144-.288.328-.736t.352-.9q.168-.448.248-.72a.894.894,0,0,1,.44-.528.765.765,0,0,1,.648-.032.97.97,0,0,1,.5.392.732.732,0,0,1,.056.664q-.1.3-.264.768t-.352.912q-.184.448-.328.736a.952.952,0,0,1-.488.48A.876.876,0,0,1-32.432-.176Zm13.568-9.872a.893.893,0,0,1-.608.224.712.712,0,0,1-.576-.272q-.1-.128-.312-.36t-.424-.464q-.208-.232-.336-.36a.821.821,0,0,1-.208-.6.773.773,0,0,1,.272-.568.9.9,0,0,1,.608-.24.813.813,0,0,1,.592.256q.128.128.344.36l.424.456q.208.224.3.352a.8.8,0,0,1,.232.624A.819.819,0,0,1-18.864-10.048ZM-29.5-6.1h1.184a.9.9,0,0,0,.608-.152.777.777,0,0,0,.16-.568.777.777,0,0,0-.16-.568.9.9,0,0,0-.608-.152H-29.5a.865.865,0,0,0-.6.152.805.805,0,0,0-.152.568.805.805,0,0,0,.152.568A.865.865,0,0,0-29.5-6.1ZM-10.192,1.44a1.061,1.061,0,0,1-.752-.24.945.945,0,0,1-.288-.64A.813.813,0,0,1-10.976-.1a1.066,1.066,0,0,1,.72-.272A3.075,3.075,0,0,0-9.28-.544a.872.872,0,0,0,.5-.5A2.891,2.891,0,0,0-8.64-2.08a3.044,3.044,0,0,0-.048-.56h-6.224a.766.766,0,0,1-.6-.24.831.831,0,0,1-.216-.576.85.85,0,0,1,.208-.576.668.668,0,0,1,.528-.24h5.568q-.048-.048-.088-.1T-9.6-4.48a.687.687,0,0,1-.168-.592.859.859,0,0,1,.312-.544.88.88,0,0,1,.64-.2.981.981,0,0,1,.592.216q.032.032.08.072t.08.072l.448-.256L-7.28-5.9q.272-.176.224-.352t-.368-.176h-4.624a.728.728,0,0,1-.568-.24.811.811,0,0,1-.216-.56.811.811,0,0,1,.216-.56.728.728,0,0,1,.568-.24h5.712a1.975,1.975,0,0,1,1.128.288,1.315,1.315,0,0,1,.552.72,1.283,1.283,0,0,1-.088.912,2.11,2.11,0,0,1-.792.864q-.416.272-.8.512t-.784.464h4.992a.854.854,0,0,1,.656.24.815.815,0,0,1,.224.576.831.831,0,0,1-.216.576.766.766,0,0,1-.6.24h-4.72A4.531,4.531,0,0,1-6.736-2,3.555,3.555,0,0,1-7.56.664,3.75,3.75,0,0,1-10.192,1.44Zm-4.3-7.872a.919.919,0,0,1-.64-.248.836.836,0,0,1-.272-.648v-.736a2.325,2.325,0,0,1,.576-1.768,2.948,2.948,0,0,1,1.984-.552l-.088-.12a.893.893,0,0,1-.072-.12q-.064-.144-.224-.424l-.32-.56q-.16-.28-.24-.408a.736.736,0,0,1-.08-.616.778.778,0,0,1,.4-.488.925.925,0,0,1,.672-.1.883.883,0,0,1,.56.4q.176.256.448.688t.416.72a.9.9,0,0,1,.12.528.73.73,0,0,1-.248.48h2.352a1.458,1.458,0,0,1-.12-.136A.559.559,0,0,1-9.36-10.7q-.064-.144-.232-.472t-.328-.656q-.16-.328-.24-.456a.775.775,0,0,1-.056-.624.807.807,0,0,1,.408-.48.87.87,0,0,1,.672-.08.949.949,0,0,1,.56.416q.112.176.28.488l.336.624q.168.312.264.5a.975.975,0,0,1,.088.56.708.708,0,0,1-.3.48H-6.64q.192-.336.472-.832t.552-.984q.272-.488.4-.76a.812.812,0,0,1,.592-.48,1.09,1.09,0,0,1,.72.08.909.909,0,0,1,.472.512.81.81,0,0,1-.072.72q-.176.32-.472.808l-.568.936h.288a3.184,3.184,0,0,1,2.1.544,2.284,2.284,0,0,1,.616,1.792v.736a.836.836,0,0,1-.272.648.919.919,0,0,1-.64.248A1,1,0,0,1-3.1-6.656a.782.782,0,0,1-.272-.64v-.736A.777.777,0,0,0-3.6-8.664a1.33,1.33,0,0,0-.816-.184h-8.112a1.33,1.33,0,0,0-.816.184.777.777,0,0,0-.224.632V-7.3a.782.782,0,0,1-.272.64A1,1,0,0,1-14.5-6.432ZM7.5.688A.939.939,0,0,1,6.816.4a.939.939,0,0,1-.288-.688V-11.344a.931.931,0,0,1,.288-.7.952.952,0,0,1,.688-.28.972.972,0,0,1,.7.28.931.931,0,0,1,.288.7v3.856a.985.985,0,0,1,.576-.424.969.969,0,0,1,.72.072q.944.5,1.928,1.136a17.1,17.1,0,0,1,1.7,1.248.948.948,0,0,1,.36.68.965.965,0,0,1-.232.744.964.964,0,0,1-.672.344.985.985,0,0,1-.736-.216q-.448-.352-1.032-.752T9.944-5.432Q9.36-5.808,8.88-6.08A1.029,1.029,0,0,1,8.5-6.432V-.288A.939.939,0,0,1,8.208.4.958.958,0,0,1,7.5.688ZM22.944.4A1,1,0,0,1,22.2.336a.926.926,0,0,1-.488-.576.949.949,0,0,1,.056-.752.949.949,0,0,1,.568-.5,11.3,11.3,0,0,0,3.464-1.8A7.374,7.374,0,0,0,28-5.92q.56-1.2-.848-1.2H21.344a.952.952,0,0,1-.688-.28.931.931,0,0,1-.288-.7.906.906,0,0,1,.288-.688.967.967,0,0,1,.688-.272h5.888a3.763,3.763,0,0,1,2.12.5,1.849,1.849,0,0,1,.84,1.392,3.875,3.875,0,0,1-.448,2.04,9.5,9.5,0,0,1-2.664,3.3A12.792,12.792,0,0,1,22.944.4Zm-.576-10.64a.967.967,0,0,1-.688-.272.887.887,0,0,1-.288-.672.906.906,0,0,1,.288-.688.967.967,0,0,1,.688-.272H28.48a.94.94,0,0,1,.68.272.919.919,0,0,1,.28.688.9.9,0,0,1-.28.672.94.94,0,0,1-.68.272ZM39.1.272a.964.964,0,0,1-.76.008,1.01,1.01,0,0,1-.568-.52,1.006,1.006,0,0,1-.016-.768.92.92,0,0,1,.512-.56A15.6,15.6,0,0,0,42.5-4.256a10.106,10.106,0,0,0,2.512-3.408,1.38,1.38,0,0,0,.1-1.208q-.24-.408-1.184-.408H37.936a.953.953,0,0,1-.7-.3.953.953,0,0,1-.3-.7.919.919,0,0,1,.3-.7.98.98,0,0,1,.7-.28h6.08q2.192,0,2.912,1.168a3.29,3.29,0,0,1-.08,3.072,12.311,12.311,0,0,1-2.912,4.12A16.894,16.894,0,0,1,39.1.272ZM49.616-11.072q-.208-.208-.528-.5t-.576-.52a.62.62,0,0,1-.192-.4.581.581,0,0,1,.144-.464.573.573,0,0,1,.416-.232.679.679,0,0,1,.464.12,5.562,5.562,0,0,1,.632.448,5.745,5.745,0,0,1,.6.544.7.7,0,0,1,.216.488.691.691,0,0,1-.2.5.61.61,0,0,1-.472.216A.659.659,0,0,1,49.616-11.072Zm-.432,1.456a.687.687,0,0,1-.5.184.639.639,0,0,1-.488-.232Q48-9.888,47.7-10.208t-.536-.56A.581.581,0,0,1,47-11.176a.627.627,0,0,1,.184-.456.639.639,0,0,1,.424-.192.658.658,0,0,1,.456.144,5.931,5.931,0,0,1,.6.488,5.688,5.688,0,0,1,.568.584.649.649,0,0,1,.176.5A.738.738,0,0,1,49.184-9.616ZM63.456-2.08a5.96,5.96,0,0,1-2.432.464,2.192,2.192,0,0,1-1.624-.76,3.13,3.13,0,0,1-.584-2.056V-9.52a.945.945,0,0,1,.3-.7.966.966,0,0,1,.7-.288.931.931,0,0,1,.7.288.972.972,0,0,1,.28.7v4.784q0,1.52,1.84.848.72-.272,1.576-.64t1.528-.688a1,1,0,0,1,.752-.056.949.949,0,0,1,.576.488.945.945,0,0,1,.072.752.9.9,0,0,1-.488.576q-.736.352-1.584.728T63.456-2.08ZM52.976-1.056a.992.992,0,0,1-.752.024.95.95,0,0,1-.56-.5,1.012,1.012,0,0,1-.024-.76.893.893,0,0,1,.5-.552,6.042,6.042,0,0,0,2.048-1.48,5.207,5.207,0,0,0,1.072-1.984,8.615,8.615,0,0,0,.32-2.392.958.958,0,0,1,.288-.7A.939.939,0,0,1,56.56-9.7a.931.931,0,0,1,.7.288.972.972,0,0,1,.28.7,9.008,9.008,0,0,1-1.2,4.7A7.424,7.424,0,0,1,52.976-1.056ZM79.488.72A6.028,6.028,0,0,1,77.432.44a1.809,1.809,0,0,1-1.056-.96,4.555,4.555,0,0,1-.312-1.864v-7.3a4.555,4.555,0,0,1,.312-1.864,1.809,1.809,0,0,1,1.056-.96,6.028,6.028,0,0,1,2.056-.28,6.028,6.028,0,0,1,2.056.28,1.809,1.809,0,0,1,1.056.96,4.555,4.555,0,0,1,.312,1.864v7.3A4.555,4.555,0,0,1,82.6-.52a1.809,1.809,0,0,1-1.056.96A6.028,6.028,0,0,1,79.488.72Zm-6.8.592a.911.911,0,0,1-.648-.248A.868.868,0,0,1,71.776.4V-4.768q-.352.608-.7,1.16t-.656.968a.983.983,0,0,1-.624.392.835.835,0,0,1-.7-.184.85.85,0,0,1-.352-.6.831.831,0,0,1,.192-.664q.32-.4.72-1.008t.808-1.3q.408-.7.76-1.344t.56-1.112v-.08H69.792a.791.791,0,0,1-.608-.24.835.835,0,0,1-.224-.592.843.843,0,0,1,.224-.584.778.778,0,0,1,.608-.248h1.984V-12.56a.868.868,0,0,1,.264-.664.911.911,0,0,1,.648-.248.891.891,0,0,1,.632.248.868.868,0,0,1,.264.664v2.352H74.8a.759.759,0,0,1,.592.248.843.843,0,0,1,.224.584.835.835,0,0,1-.224.592.772.772,0,0,1-.592.24H73.584v1.088q.256.288.664.728t.816.848l.632.632a.864.864,0,0,1,.288.608.854.854,0,0,1-.224.624.788.788,0,0,1-.6.256.788.788,0,0,1-.6-.256q-.176-.192-.44-.488l-.536-.6V.4a.868.868,0,0,1-.264.664A.891.891,0,0,1,72.688,1.312ZM77.9-4.944h3.168v-2.3H77.9ZM79.488-.96a2.934,2.934,0,0,0,.992-.128.773.773,0,0,0,.464-.44,2.425,2.425,0,0,0,.128-.888v-.9H77.9v.9a2.573,2.573,0,0,0,.12.888.746.746,0,0,0,.464.44A3.008,3.008,0,0,0,79.488-.96ZM77.9-8.88h3.168v-.768a2.425,2.425,0,0,0-.128-.888.747.747,0,0,0-.464-.432,3.116,3.116,0,0,0-.992-.12,3.2,3.2,0,0,0-1,.12.722.722,0,0,0-.464.432,2.573,2.573,0,0,0-.12.888ZM92.624,1.264a1.167,1.167,0,0,1-.768.056.835.835,0,0,1-.544-.488A.8.8,0,0,1,91.3.144a.844.844,0,0,1,.5-.48A7.022,7.022,0,0,0,93.4-1.128a3.387,3.387,0,0,0,1-1.064,4.435,4.435,0,0,0,.52-1.52,13.144,13.144,0,0,0,.152-2.16.774.774,0,0,1,.264-.624.859.859,0,0,1,.616-.208.9.9,0,0,1,.624.232.786.786,0,0,1,.24.648q-.032.784-.1,1.456a5.884,5.884,0,0,0,1.2,2.28A6.187,6.187,0,0,0,100.176-.5a.814.814,0,0,1,.48.5.932.932,0,0,1-.064.712.92.92,0,0,1-.584.48,1,1,0,0,1-.76-.08A8.291,8.291,0,0,1,97.4-.168a6.379,6.379,0,0,1-1.288-1.7A4.971,4.971,0,0,1,94.784-.024,8.3,8.3,0,0,1,92.624,1.264Zm.448-7.008a1.105,1.105,0,0,1-.728.072.794.794,0,0,1-.552-.44.828.828,0,0,1-.04-.664.845.845,0,0,1,.488-.488,4.688,4.688,0,0,0,1.72-1.168,3.849,3.849,0,0,0,.832-1.72,12.2,12.2,0,0,0,.248-2.5.764.764,0,0,1,.272-.624.887.887,0,0,1,.624-.208.95.95,0,0,1,.616.24.775.775,0,0,1,.232.64q-.016.432-.04.824t-.072.76a4.957,4.957,0,0,0,1.2,2.1,7.308,7.308,0,0,0,2.24,1.52.721.721,0,0,1,.416.48.843.843,0,0,1-.1.672.815.815,0,0,1-.56.432,1.178,1.178,0,0,1-.736-.08,6.96,6.96,0,0,1-3.072-2.8A5.267,5.267,0,0,1,94.9-7,7.284,7.284,0,0,1,93.072-5.744ZM88.864.96a4.053,4.053,0,0,1-1.416-.2A1.23,1.23,0,0,1,86.72.048a4.011,4.011,0,0,1-.208-1.456A4.126,4.126,0,0,1,86.72-2.9a1.177,1.177,0,0,1,.728-.7,4.379,4.379,0,0,1,1.416-.184,4.366,4.366,0,0,1,1.424.184,1.177,1.177,0,0,1,.72.7,4.126,4.126,0,0,1,.208,1.488A4.011,4.011,0,0,1,91.008.048a1.231,1.231,0,0,1-.72.712A4.041,4.041,0,0,1,88.864.96Zm-2.32-9.984a.7.7,0,0,1-.52-.224.736.736,0,0,1-.216-.528.709.709,0,0,1,.216-.52.709.709,0,0,1,.52-.216h4.384a.709.709,0,0,1,.52.216.709.709,0,0,1,.216.52.736.736,0,0,1-.216.528.7.7,0,0,1-.52.224Zm.72-2.24a.71.71,0,0,1-.528-.232.749.749,0,0,1-.224-.536.741.741,0,0,1,.224-.544.722.722,0,0,1,.528-.224h3.088a.715.715,0,0,1,.536.224.755.755,0,0,1,.216.544.763.763,0,0,1-.216.536.7.7,0,0,1-.536.232Zm-.016,6.752a.722.722,0,0,1-.528-.224.722.722,0,0,1-.224-.528A.715.715,0,0,1,86.72-5.8a.736.736,0,0,1,.528-.216h3.12A.7.7,0,0,1,90.9-5.8a.743.743,0,0,1,.208.536.75.75,0,0,1-.208.528.689.689,0,0,1-.528.224Zm0-2.256a.722.722,0,0,1-.528-.224A.722.722,0,0,1,86.5-7.52a.715.715,0,0,1,.224-.536.736.736,0,0,1,.528-.216h3.12a.7.7,0,0,1,.528.216.743.743,0,0,1,.208.536.75.75,0,0,1-.208.528.689.689,0,0,1-.528.224Zm5.328,4.736a.734.734,0,0,1-.5-.392.773.773,0,0,1-.032-.616q.08-.24.176-.584t.2-.688q.1-.344.152-.552a.75.75,0,0,1,.368-.528.841.841,0,0,1,.624-.08.777.777,0,0,1,.52.336.8.8,0,0,1,.1.64q-.048.24-.144.608t-.2.72q-.1.352-.184.576a.834.834,0,0,1-.424.512A.842.842,0,0,1,92.576-2.032Zm.08-7.024a.687.687,0,0,1-.5-.376.822.822,0,0,1-.048-.616q.08-.24.176-.584t.184-.7q.088-.352.12-.56a.757.757,0,0,1,.36-.528.908.908,0,0,1,.632-.1.828.828,0,0,1,.528.32.733.733,0,0,1,.112.624q-.048.256-.136.624t-.176.72q-.088.352-.168.592a.839.839,0,0,1-.416.512A.905.905,0,0,1,92.656-9.056Zm5.36-.384a.748.748,0,0,1-.392-.472.809.809,0,0,1,.072-.616q.144-.288.376-.768t.376-.784a.773.773,0,0,1,.456-.432.858.858,0,0,1,.648.032.751.751,0,0,1,.44.424.794.794,0,0,1-.024.632q-.08.192-.224.5t-.3.624q-.152.312-.264.52a.837.837,0,0,1-.512.4A.879.879,0,0,1,98.016-9.44Zm.016,6.976a.8.8,0,0,1-.392-.5.826.826,0,0,1,.072-.624q.16-.272.376-.728t.36-.744a.8.8,0,0,1,.456-.456.832.832,0,0,1,.648.024.78.78,0,0,1,.448.424.809.809,0,0,1-.016.648q-.08.192-.224.5t-.3.6q-.152.3-.264.5a.773.773,0,0,1-.5.416A.9.9,0,0,1,98.032-2.464ZM88.864-.528a.714.714,0,0,0,.56-.16,1.3,1.3,0,0,0,.128-.72,1.35,1.35,0,0,0-.128-.728.692.692,0,0,0-.56-.168.7.7,0,0,0-.552.168,1.283,1.283,0,0,0-.136.728,1.239,1.239,0,0,0,.136.72A.717.717,0,0,0,88.864-.528Zm23.408,1.872a.923.923,0,0,1-.656-.256.88.88,0,0,1-.272-.672V-2.9q-.688.752-1.528,1.512A16.742,16.742,0,0,1,108.224-.1a1.036,1.036,0,0,1-.72.184.861.861,0,0,1-.64-.376.84.84,0,0,1-.136-.664A.815.815,0,0,1,107.1-1.5a13.424,13.424,0,0,0,1.184-.864q.656-.528,1.3-1.1t1.1-1.056h-2.8a.844.844,0,0,1-.608-.248.8.8,0,0,1-.256-.6.8.8,0,0,1,.256-.6.844.844,0,0,1,.608-.248h3.456V-7.5h-.08a5.287,5.287,0,0,1-1.8-.248,1.622,1.622,0,0,1-.944-.84,3.84,3.84,0,0,1-.28-1.616,3.831,3.831,0,0,1,.28-1.624,1.627,1.627,0,0,1,.936-.832,5.275,5.275,0,0,1,1.808-.248h1.984a5.347,5.347,0,0,1,1.816.248,1.6,1.6,0,0,1,.936.832,3.93,3.93,0,0,1,.272,1.624A3.94,3.94,0,0,1,116-8.592a1.591,1.591,0,0,1-.936.84,5.347,5.347,0,0,1-1.816.248H113.2v1.28h3.456a.836.836,0,0,1,.616.248.817.817,0,0,1,.248.6.817.817,0,0,1-.248.6.836.836,0,0,1-.616.248h-2.8q.448.448,1.1,1.008t1.312,1.072q.664.512,1.176.832a.8.8,0,0,1,.376.568.893.893,0,0,1-.152.664.862.862,0,0,1-.624.392A1.028,1.028,0,0,1,116.3-.16q-.464-.32-1.008-.768t-1.088-.96q-.544-.512-1.008-.992v3.3a.88.88,0,0,1-.272.672A.923.923,0,0,1,112.272,1.344Zm-6.5.1a.9.9,0,0,1-.64-.256.842.842,0,0,1-.272-.64v-7.5q-.368.592-.736,1.072a.873.873,0,0,1-.592.36.959.959,0,0,1-.688-.152.925.925,0,0,1-.376-.568.768.768,0,0,1,.136-.632q.448-.624.9-1.408t.872-1.608q.416-.824.744-1.6t.52-1.384a.882.882,0,0,1,.464-.56.932.932,0,0,1,.72-.032.945.945,0,0,1,.536.408.8.8,0,0,1,.056.7q-.144.48-.328.976t-.408,1.008V.528a.855.855,0,0,1-.272.664A.919.919,0,0,1,105.776,1.44Zm5.536-10.656H113.2a1.424,1.424,0,0,0,.88-.192,1.053,1.053,0,0,0,.224-.8,1.08,1.08,0,0,0-.224-.816,1.424,1.424,0,0,0-.88-.192h-1.888a1.388,1.388,0,0,0-.864.192,1.08,1.08,0,0,0-.224.816,1.053,1.053,0,0,0,.224.8A1.388,1.388,0,0,0,111.312-9.216Zm9.76,10.544a.875.875,0,0,1-.608-.232.81.81,0,0,1-.256-.632V-10.96a2.924,2.924,0,0,1,.208-1.224,1.238,1.238,0,0,1,.76-.632,5.021,5.021,0,0,1,1.576-.192q1.776,0,2.256.7a1.777,1.777,0,0,1-.1,1.856l-.144.272q.592-.368,1.224-.848t1.192-.984q.56-.5.944-.9a1.7,1.7,0,0,1,1.216-.592,1.832,1.832,0,0,1,1.264.5q.464.384,1.136.9t1.392.984q.72.472,1.3.776a.726.726,0,0,1,.416.528.96.96,0,0,1-.1.688.988.988,0,0,1-.592.464.856.856,0,0,1-.72-.1l-.464-.288q-.256-.16-.528-.352a.821.821,0,0,1,.064.336.8.8,0,0,1-.216.568.759.759,0,0,1-.584.232h-1.3v.816h.784a4.469,4.469,0,0,1,1.416.184,1.307,1.307,0,0,1,.776.656,3.052,3.052,0,0,1,.24,1.352,3.052,3.052,0,0,1-.24,1.352,1.307,1.307,0,0,1-.776.656,4.469,4.469,0,0,1-1.416.184h-.352A8.848,8.848,0,0,0,132.376-1.7,8.415,8.415,0,0,0,134.24-.672a.767.767,0,0,1,.48.5.854.854,0,0,1-.032.688.847.847,0,0,1-.552.472,1.161,1.161,0,0,1-.792-.04,8.035,8.035,0,0,1-1.3-.7,9.622,9.622,0,0,1-1.3-1.008,9.181,9.181,0,0,1-1.08-1.176,5.514,5.514,0,0,1-1.92,1.92,10.642,10.642,0,0,1-2.752,1.168,1.031,1.031,0,0,1-.7-.016.774.774,0,0,1-.44-.48.88.88,0,0,1,.04-.672.749.749,0,0,1,.472-.4,8.941,8.941,0,0,0,2.416-1.032,4.131,4.131,0,0,0,1.52-1.624h-.352a4.546,4.546,0,0,1-1.424-.184,1.307,1.307,0,0,1-.784-.656,3.052,3.052,0,0,1-.24-1.352,3.052,3.052,0,0,1,.24-1.352,1.307,1.307,0,0,1,.784-.656,4.546,4.546,0,0,1,1.424-.184h.736v-.816h-1.376a.765.765,0,0,1-.576-.232.787.787,0,0,1-.224-.568.5.5,0,0,1,.008-.08.5.5,0,0,0,.008-.08q-.256.192-.5.368t-.472.3a1.012,1.012,0,0,1-.7.152.834.834,0,0,1-.592-.408.378.378,0,0,1-.08-.176q-.064.128-.128.248t-.112.2a1.088,1.088,0,0,0-.152.568,1.082,1.082,0,0,0,.312.536,4,4,0,0,1,1.072,2.8,2.712,2.712,0,0,1-.6,1.928,2.309,2.309,0,0,1-1.64.68.875.875,0,0,1-.992-.608v3.1a.823.823,0,0,1-.248.632A.867.867,0,0,1,121.072,1.328Zm.864-4.592a.971.971,0,0,1,.24-.36.792.792,0,0,1,.4-.2.935.935,0,0,0,.584-.336,1.6,1.6,0,0,0,.168-.864,2.962,2.962,0,0,0-.256-1.184,3.314,3.314,0,0,0-.64-.992,1.2,1.2,0,0,1-.36-.624,1.694,1.694,0,0,1,.2-.832q.1-.176.28-.592t.368-.848q.184-.432.264-.64.16-.384.064-.536t-.576-.152a1,1,0,0,0-.592.12.707.707,0,0,0-.144.536Zm5.408-6.608h4.464q-.544-.4-1.056-.808t-.848-.712a.665.665,0,0,0-.456-.248.736.736,0,0,0-.456.28q-.3.3-.736.7T127.344-9.872Zm3.072,5.28h.56a1.512,1.512,0,0,0,.736-.112q.16-.112.16-.56,0-.464-.16-.568a1.615,1.615,0,0,0-.736-.1h-.56Zm-2.256,0h.528V-5.936h-.528a1.615,1.615,0,0,0-.736.1q-.16.1-.16.568,0,.448.16.56A1.512,1.512,0,0,0,128.16-4.592Z" transform="translate(912.348 178.809)" fill="#fff"/>
  </g>
</svg>
