<svg xmlns="http://www.w3.org/2000/svg" xmlns:xlink="http://www.w3.org/1999/xlink" width="277.973" height="49.893" viewBox="0 0 277.973 49.893">
  <defs>
    <clipPath id="clip-path">
      <rect id="長方形_49886" data-name="長方形 49886" width="46.851" height="46.681" fill="#fff"/>
    </clipPath>
  </defs>
  <g id="グループ_408718" data-name="グループ 408718" transform="translate(-27.589 -24.959)">
    <g id="グループ_259276" data-name="グループ 259276" transform="translate(83.986 24.959)">
      <g id="グループ_259273" data-name="グループ 259273" transform="translate(0 0)">
        <g id="グループ_259272" data-name="グループ 259272">
          <path id="パス_32132" data-name="パス 32132" d="M205.425,17.964a.791.791,0,0,1,.781-.793h2.486V12.164H206.9a.781.781,0,1,1,0-1.562h4.936a.781.781,0,0,1,0,1.562h-1.586v5.007H212.5a.787.787,0,1,1,0,1.574h-6.3A.788.788,0,0,1,205.425,17.964Z" transform="translate(-205.425 -9.702)" fill="#fff"/>
          <path id="パス_32133" data-name="パス 32133" d="M274.433,25.354a.768.768,0,0,1,.769-.769h7.611a.768.768,0,0,1,.769.769.778.778,0,0,1-.769.781H275.2A.778.778,0,0,1,274.433,25.354Z" transform="translate(-260.004 -20.762)" fill="#fff"/>
          <path id="パス_32134" data-name="パス 32134" d="M349.463,17.5a.813.813,0,0,1,.047-1.124,37.817,37.817,0,0,0,4.107-4.486,2.547,2.547,0,0,0,.4-1.811h-3.113a.787.787,0,1,1,0-1.574h3.811a.857.857,0,0,1,.852.935c0,1.764.024,2.32-.616,3.243,0,0-.213.261-.568.686l2.853,2.995a.788.788,0,0,1-.059,1.113.81.81,0,0,1-1.113-.047l-2.687-2.9c-.876.983-1.882,2.154-2.805,3.018A.786.786,0,0,1,349.463,17.5Z" transform="translate(-319.185 -8.046)" fill="#fff"/>
          <path id="パス_32135" data-name="パス 32135" d="M427.375,10.276a.783.783,0,0,1-.781.793h-1.93a17.283,17.283,0,0,1-1.551,4.841.842.842,0,0,1-1.089.391.788.788,0,0,1-.343-1.053,13.877,13.877,0,0,0,1.444-4.178H419.74a.787.787,0,0,1,0-1.574h3.326a10.9,10.9,0,0,0-.308-1.136l-1.421.355a.787.787,0,0,1-.379-1.527l3.492-.864a.786.786,0,0,1,.947.568.775.775,0,0,1-.568.947L424.238,8c.142.568.308,1.03.391,1.492h1.965A.78.78,0,0,1,427.375,10.276Z" transform="translate(-374.311 -6.299)" fill="#fff"/>
          <path id="パス_32136" data-name="パス 32136" d="M501.408,18.245a1.1,1.1,0,0,1-.083.391,6.255,6.255,0,0,1-1.349,1.906.886.886,0,0,1-.557.2.668.668,0,0,1-.651-.7.714.714,0,0,1,.249-.544c.189-.2.343-.379.473-.544h-1.775c.107.781.509,2.947.781,4.415a.626.626,0,0,1-.592.722.74.74,0,0,1-.829-.592s-.769-4.415-.793-4.545h-1.207a.712.712,0,0,1-.71-.71.69.69,0,0,1,.71-.71h.947c-.036-.237-.13-.6-.177-.888a.692.692,0,0,1,.6-.758.758.758,0,0,1,.829.58s.166.947.189,1.065h3.22A.728.728,0,0,1,501.408,18.245Z" transform="translate(-433.95 -13.877)" fill="#fff"/>
          <path id="パス_32137" data-name="パス 32137" d="M561.3,12.427a.79.79,0,0,1,.355-1.053c3.3-1.728,4.759-2.841,5.374-3.516a.874.874,0,0,1,1.136-.142.778.778,0,0,1,.095,1.113,7.923,7.923,0,0,1-1.421,1.255v6.226a.781.781,0,0,1-1.562,0V11.125c-.781.462-1.74,1.053-2.936,1.657A.763.763,0,0,1,561.3,12.427Z" transform="translate(-486.823 -7.301)" fill="#fff"/>
          <path id="パス_32138" data-name="パス 32138" d="M632.536,17.151a.8.8,0,0,1-.178-1.1,19.936,19.936,0,0,0,1.633-2.959,2.358,2.358,0,0,0,.166-1.065c0-.852.012-1.172-.011-2.166a.781.781,0,1,1,1.562-.024c0,1.231.012,2.178-.012,2.746a11.81,11.81,0,0,1-2.024,4.332A.845.845,0,0,1,632.536,17.151Zm9.078-3.255a.812.812,0,0,1,.012,1.136,6.994,6.994,0,0,1-2.107,1.929,4.585,4.585,0,0,1-2.024.58.743.743,0,0,1-.781-.817V9.244a.781.781,0,1,1,1.562,0v6.617a1.463,1.463,0,0,0,.521-.189,6.138,6.138,0,0,0,1.728-1.657A.754.754,0,0,1,641.614,13.9Z" transform="translate(-542.98 -8.001)" fill="#fff"/>
          <path id="パス_32139" data-name="パス 32139" d="M717.195,12.661l-3.136-.971V16.1a.787.787,0,0,1-1.574,0V7.76a.787.787,0,0,1,1.574,0v2.308c1.278.367,3.622,1.1,3.622,1.1a.772.772,0,0,1,.509.971A.8.8,0,0,1,717.195,12.661Zm.213-4.19v.651a.586.586,0,1,1-1.172,0V8.47a.586.586,0,0,1,1.172,0Zm1.491,0v.651a.586.586,0,1,1-1.172,0V8.47a.586.586,0,0,1,1.172,0Z" transform="translate(-606.463 -6.837)" fill="#fff"/>
        </g>
      </g>
      <g id="グループ_259275" data-name="グループ 259275" transform="translate(0 12.383)">
        <g id="グループ_259274" data-name="グループ 259274">
          <path id="パス_32140" data-name="パス 32140" d="M205.445,109.878a4.264,4.264,0,0,1,.083-1.336,1.174,1.174,0,0,1,1.537-.8c.568.25.585.735.5,1.57-.1,1.086.785,1.319,2.589,1.353a11.247,11.247,0,0,0,2.489-.251,1.04,1.04,0,0,1,1.3.752,1.226,1.226,0,0,1-.885,1.419,12.531,12.531,0,0,1-2.956.284C206.264,112.817,205.529,110.963,205.445,109.878Zm.067-7.65a1.091,1.091,0,0,1,1.1-1.1h6.113a1.2,1.2,0,0,1,1.186,1.219,2.047,2.047,0,0,1-.217.6l-1.57,2.272a1.143,1.143,0,0,1-1.57.284,1.077,1.077,0,0,1-.251-1.536l.468-.635h-4.159A1.1,1.1,0,0,1,205.512,102.228Z" transform="translate(-205.426 -93.681)" fill="#fff"/>
          <path id="パス_32141" data-name="パス 32141" d="M283.394,101.316l-1.6-4.543a1.1,1.1,0,0,1,2.088-.685l1.2,3.708c.518-.468.985-.869,2.288-1.971a1.126,1.126,0,0,1,1.57.1,1.092,1.092,0,0,1-.117,1.553c-3.157,2.689-3.09,2.555-4.476,3.841-.735.685-1.1,1.37-.935,2.021.217.768.685.935,2.238,1a14.129,14.129,0,0,0,3.123-.334,1.058,1.058,0,0,1,1.219.935,1.239,1.239,0,0,1-.985,1.319,15.618,15.618,0,0,1-3.441.317c-3.307-.134-4.226-1.72-4.276-3.056C281.223,104.038,281.557,103.07,283.394,101.316Zm8.217-5.128v.919a.827.827,0,1,1-1.654,0v-.919a.827.827,0,1,1,1.654,0Zm2.1,0v.919a.827.827,0,1,1-1.653,0v-.919a.827.827,0,1,1,1.653,0Z" transform="translate(-265.421 -89.094)" fill="#fff"/>
          <path id="パス_32142" data-name="パス 32142" d="M368.6,96.532c.05-.367.084-.768.134-1.169h-.651a1.1,1.1,0,0,1,0-2.2h.9c.067-.651.134-1.3.2-1.988a1.133,1.133,0,0,1,1.219-1,1.108,1.108,0,0,1,.985,1.219c-.067.6-.117,1.186-.184,1.77h1.236a1.1,1.1,0,0,1,0,2.2H370.96c-.033.4-.083.785-.133,1.169h1.5a1.1,1.1,0,0,1,0,2.2h-1.787l-.267,2.372c-.217,1.8,1.169,1.971,1.87,1.938,1.119-.067,1.286-1.236.952-2.338a1.025,1.025,0,0,1,.7-1.436,1.205,1.205,0,0,1,1.419.985,4.557,4.557,0,0,1-.534,3.775,3.151,3.151,0,0,1-2.405,1.219,3.786,3.786,0,0,1-4.209-4.393l.267-2.121h-.451a1.1,1.1,0,1,1,0-2.2Z" transform="translate(-333.046 -85.012)" fill="#fff"/>
          <path id="パス_32143" data-name="パス 32143" d="M447.026,105.872a3.129,3.129,0,0,0-3.457-3.19c-2.672.05-4.059,1.771-4.092,3.658-.017,1.085.317,1.887.835,1.937.568.033,1.3-1.32,1.8-3.741a1.1,1.1,0,0,1,2.171.3c-.384,1.937-1.486,5.8-4.025,5.812-1.453,0-2.923-1.7-2.873-4.359.067-3.19,2.722-5.578,6.146-5.645a5.3,5.3,0,0,1,5.662,5.261c0,2.188-1.035,4.459-3.574,6.514a1.278,1.278,0,0,1-1.687-.15,1.146,1.146,0,0,1,.251-1.553C446.074,109.045,447.01,107.843,447.026,105.872Z" transform="translate(-388.887 -93.3)" fill="#fff"/>
          <path id="パス_32144" data-name="パス 32144" d="M517.59,105.3l1.821-8.217h-.8a1.1,1.1,0,1,1,0-2.2H519.9l.334-1.47a1.1,1.1,0,1,1,2.154.451l-.217,1.019h1.72a1.1,1.1,0,1,1,0,2.2h-2.221l-1.9,8.668a1.107,1.107,0,0,1-1.319.852A1.1,1.1,0,0,1,517.59,105.3Zm8.735,1.236c-2.138-.2-3.157-1.2-2.923-3.441a1.06,1.06,0,0,1,1.152-.985c.451.017,1.052.368,1,.952-.1.9.083,1.219.969,1.286a6.3,6.3,0,0,0,1.486-.05,1.029,1.029,0,0,1,1.253.952,1.175,1.175,0,0,1-1.019,1.236A8.047,8.047,0,0,1,526.326,106.538ZM529.1,98.5a2.076,2.076,0,0,1-.2.685l-1.2,1.837a1.1,1.1,0,0,1-1.5.418,1,1,0,0,1-.317-1.436l.334-.4h-1.5a1.1,1.1,0,1,1,0-2.2h3.274A1.105,1.105,0,0,1,529.1,98.5Z" transform="translate(-452.254 -86.884)" fill="#fff"/>
          <path id="パス_32145" data-name="パス 32145" d="M609.43,103.971c.1,2.188-.868,4.393-3.541,6.046a1.356,1.356,0,0,1-1.687-.184,1.081,1.081,0,0,1,.351-1.57c2.238-1.687,2.672-2.639,2.756-3.975.067-1.236-.334-2.455-1.654-2.672-.935,2.071-2.038,4.576-2.689,5.6-.7,1.1-1.37,1.821-2.706,1.687-1.586-.15-2.639-2.221-2.639-4.259a4.479,4.479,0,0,1,2.1-3.825l-.451-2.038a1.044,1.044,0,0,1,.9-1.3,1.1,1.1,0,0,1,1.286.885l.317,1.486a10.3,10.3,0,0,1,2.488-.451c.167-.367.418-1.069.568-1.386a1.107,1.107,0,1,1,2.021.9c-.1.25-.167.418-.3.768C608.377,100.28,609.312,101.749,609.43,103.971Zm-7.466.534a.913.913,0,0,1-.3.1,1.13,1.13,0,0,1-1.369-.868l-.117-.635a2.635,2.635,0,0,0-.534,1.353c-.117,1.069.384,2.188.852,2.188C600.978,106.627,601.513,105.424,601.964,104.505Zm1.319-2.873a4.3,4.3,0,0,0-1.1.284l.3,1.486A17.069,17.069,0,0,0,603.283,101.633Z" transform="translate(-515.617 -90.697)" fill="#fff"/>
          <path id="パス_32146" data-name="パス 32146" d="M686.65,105.872a3.129,3.129,0,0,0-3.457-3.19c-2.672.05-4.059,1.771-4.092,3.658-.017,1.085.318,1.887.835,1.937.568.033,1.3-1.32,1.8-3.741a1.1,1.1,0,0,1,2.172.3c-.384,1.937-1.486,5.8-4.025,5.812-1.453,0-2.923-1.7-2.873-4.359.067-3.19,2.722-5.578,6.146-5.645a5.3,5.3,0,0,1,5.662,5.261c0,2.188-1.036,4.459-3.574,6.514a1.277,1.277,0,0,1-1.687-.15,1.146,1.146,0,0,1,.251-1.553C685.7,109.045,686.634,107.843,686.65,105.872Z" transform="translate(-578.408 -93.3)" fill="#fff"/>
          <path id="パス_32147" data-name="パス 32147" d="M759.2,83.339l5.492-6.3h-4.02a1.45,1.45,0,0,1,0-2.9h13.092a1.43,1.43,0,0,1,1.45,1.428,1.453,1.453,0,0,1-1.45,1.472h-5.338l-6.963,8.194a1.561,1.561,0,0,1-2.109.176A1.462,1.462,0,0,1,759.2,83.339Zm8.172,9.951a1.552,1.552,0,0,1-1.56-1.56v-10.1a1.549,1.549,0,1,1,3.1,0v10.1A1.547,1.547,0,0,1,767.369,93.29Zm6.26-9.116h-2.7a1.45,1.45,0,1,1,0-2.9h2.7a1.45,1.45,0,0,1,0,2.9Z" transform="translate(-643.128 -72.334)" fill="#fff"/>
          <path id="パス_32148" data-name="パス 32148" d="M866.421,69.167a1.414,1.414,0,0,1-.11.527l2.5-1.45v-.351h-.2a1.2,1.2,0,0,1-1.164-1.208,1.257,1.257,0,0,1,1.274-1.164h1.8a1.215,1.215,0,0,1,1.208,1.186v1.362l5.843,3.646h.044a1.458,1.458,0,0,1,1.45,1.494,1.427,1.427,0,0,1-1.45,1.472h-.329a2.573,2.573,0,0,1-1.186-.373l-.922-.615a1.248,1.248,0,0,1-1.252,1.142h-7.491a1.262,1.262,0,0,1-1.252-1.12l-1.3.813A1.574,1.574,0,0,1,861.808,74a1.5,1.5,0,0,1,.637-2l2.285-1.384h-.7a1.45,1.45,0,1,1,0-2.9h.944A1.448,1.448,0,0,1,866.421,69.167ZM863.3,83.906h1.516a1.53,1.53,0,0,1-.11-.549l.022-.483a1.45,1.45,0,1,1,2.9,0v.483a1.528,1.528,0,0,1-.11.549h5.4a1.377,1.377,0,0,1-.132-.593V82.83a1.461,1.461,0,0,1,2.921,0v.483a1.377,1.377,0,0,1-.131.593h1.537a1.329,1.329,0,1,1,0,2.658H863.3a1.329,1.329,0,1,1,0-2.658Zm3.3-2.548a1.447,1.447,0,0,1-1.45-1.516V77.03a1.463,1.463,0,0,1,1.45-1.45h7.337a1.467,1.467,0,0,1,1.471,1.45v2.812a1.361,1.361,0,0,1-1.318,1.472A35.694,35.694,0,0,1,866.6,81.358Zm.637-9.028H873.1l-2.812-1.845Zm.835,6.678a37.077,37.077,0,0,0,4.415-.022V78h-4.415Zm6.48-9.643a1.448,1.448,0,0,1-1.45-1.45v-.4a1.45,1.45,0,0,1,2.9,0v.4A1.463,1.463,0,0,1,874.548,69.364Zm3.1,1.428a1.463,1.463,0,0,1-1.45-1.45v-.4a1.45,1.45,0,1,1,2.9,0v.4A1.448,1.448,0,0,1,877.646,70.792Z" transform="translate(-724.431 -65.52)" fill="#fff"/>
          <path id="パス_32149" data-name="パス 32149" d="M963.476,84.89v-6.5l-.351.461a1.319,1.319,0,0,1-1.845.176,1.3,1.3,0,0,1-.176-1.845l2.372-2.922v-.2h-.7a1.45,1.45,0,1,1,0-2.9h.7V68.9a1.406,1.406,0,1,1,2.812,0V71.16h.417a1.45,1.45,0,0,1,0,2.9h-.417v.176l1.516,1.45a1.313,1.313,0,0,1,.022,1.845,1.274,1.274,0,0,1-1.538.263v7.1a1.406,1.406,0,1,1-2.812,0Zm16.826.22a1.477,1.477,0,0,1-1.406,1.537l-.417.022a2.206,2.206,0,0,1-1.757-.879l-2.943-3.075-2.746,3.295a1.543,1.543,0,0,1-2.109.242,1.477,1.477,0,0,1-.176-2.043L971.8,80.54l-1.56-1.757a1.437,1.437,0,0,1,.154-2.043,1.454,1.454,0,0,1,2.043.154l1.164,1.318,1.428-1.757a1.455,1.455,0,1,1,2.284,1.8L975.6,80.386l3.141,3.251h.154A1.416,1.416,0,0,1,980.3,85.109Zm-.527-15.618a1.435,1.435,0,0,1-1.45,1.45h-7.952a1.45,1.45,0,0,1,0-2.9h2.394v-.857a1.566,1.566,0,0,1,1.559-1.56,1.547,1.547,0,0,1,1.538,1.56v.857h2.46A1.448,1.448,0,0,1,979.775,69.491Zm-7.249,2.372a1.479,1.479,0,0,1-.044,2.065l-.988.835a1.453,1.453,0,0,1-1.977-2.131l.967-.835A1.453,1.453,0,0,1,972.526,71.863Zm6.788.9a1.433,1.433,0,0,1,.066,2.043,1.459,1.459,0,0,1-2.065.066l-.966-.835a1.479,1.479,0,0,1-.066-2.065,1.458,1.458,0,0,1,2.065-.044Z" transform="translate(-802.858 -65.603)" fill="#fff"/>
          <path id="パス_32150" data-name="パス 32150" d="M1065.881,77.525a1.459,1.459,0,0,1,.044-2.065l3.713-3.646a1.458,1.458,0,0,1,2.065,0,1.439,1.439,0,0,1-.022,2.065l-.593.593v12.85a1.45,1.45,0,0,1-2.9,0V77.305l-.241.241A1.479,1.479,0,0,1,1065.881,77.525Zm18.693,8.413a1.435,1.435,0,0,1-1.428,1.472h-.439a2.026,2.026,0,0,1-1.3-.681l-2.065-1.955v3.185a1.45,1.45,0,1,1-2.9,0V84.8l-2.438,2.131a1.529,1.529,0,0,1-2.153.088,1.485,1.485,0,0,1,0-2.087l3.273-2.79H1073a1.45,1.45,0,1,1,0-2.9h3.449v-.593a1.45,1.45,0,0,1,2.9,0v.593h3.339a1.45,1.45,0,1,1,0,2.9h-1.955l2.7,2.328A1.51,1.51,0,0,1,1084.575,85.938Zm-1.779-15.4v5.008a1.469,1.469,0,0,1-1.45,1.406,48.9,48.9,0,0,1-6.282.044,1.477,1.477,0,0,1-1.45-1.45V70.54a1.418,1.418,0,0,1,1.494-1.45h6.238A1.448,1.448,0,0,1,1082.8,70.54Zm-2.9,1.45h-3.383v2.153a21.714,21.714,0,0,0,3.383,0Z" transform="translate(-885.647 -68.343)" fill="#fff"/>
          <path id="パス_32151" data-name="パス 32151" d="M1195.448,89.3h-.2a1.9,1.9,0,0,1-1.362-.593l-3.361-3.735-3.844,3.954a1.486,1.486,0,0,1-2.087.066,1.452,1.452,0,0,1-.044-2.043l4-4.108c-.549-.044-1.164-.088-1.538-.132a1.325,1.325,0,0,1-1.23-1.252V77.478a1.247,1.247,0,0,1,1.23-1.252h2.175v-.505h-1.516a1.152,1.152,0,0,1-1.054-1.252c-.044,0-.374.241-.4.241a1.377,1.377,0,0,1-1.757-.308.022.022,0,0,0-.022-.022c-.352,1.384-.725,2.856-.725,2.856l1.471,4.218a1.338,1.338,0,0,1-.681,1.757l-1.208.527a1.326,1.326,0,0,1-1.6-.856,1.252,1.252,0,0,1,.725-1.6l.066-.022-.945-2.746v9.424a1.331,1.331,0,0,1-1.34,1.34,1.313,1.313,0,0,1-1.318-1.34V71.789a1.3,1.3,0,0,1,1.274-1.12l3.668.022a1.293,1.293,0,0,1,1.186,1.472c.791-.615,2.614-2.065,2.614-2.065a3.79,3.79,0,0,1,2.68-.9,4.071,4.071,0,0,1,2.592.835c.483.33,3.1,2.241,3.1,2.241a1.582,1.582,0,0,1,.264,2.153,1.63,1.63,0,0,1-1.8.33c-.044-.022-.593-.418-.637-.439v.154a1.247,1.247,0,0,1-1.23,1.252h-.922v.505h2.087a1.252,1.252,0,0,1,1.252,1.252v3.976a1.226,1.226,0,0,1-1.142,1.252c-.33.066-1.076.088-1.472.132l3.383,3.515a1.46,1.46,0,0,1,1.142,1.428A1.407,1.407,0,0,1,1195.448,89.3Zm-13.158-16.1-.747-.022v3.361Zm6.9,5.535h-.922v1.582c.22.022.7.022.922.044Zm3.251-5.513c-.527-.418-1.142-.835-1.516-1.1a1.01,1.01,0,0,0-.593-.2,1.183,1.183,0,0,0-.659.22c-.329.263-.879.681-1.362,1.076Zm-.769,7.1c.2,0,.659-.022.857-.044V78.73h-.857Z" transform="translate(-975.345 -68.428)" fill="#fff"/>
        </g>
      </g>
    </g>
    <g id="グループ_259280" data-name="グループ 259280" transform="translate(27.589 26.201)">
      <g id="グループ_259279" data-name="グループ 259279" clip-path="url(#clip-path)">
        <path id="パス_32156" data-name="パス 32156" d="M60,46.248V36.011a1.043,1.043,0,0,0-.751-1.044L48.363,31.409a2.968,2.968,0,0,0-1.774,0L35.674,34.978a1.043,1.043,0,0,0-.751,1.044V46.258A14.557,14.557,0,0,0,46.5,60.492a4.659,4.659,0,0,0,1.962,0A14.547,14.547,0,0,0,60,46.248m-4.174,0A10.436,10.436,0,0,1,47.58,56.391h-.1V45.882H39.128V38.244l8.348-2.734V45.882h8.348Z" transform="translate(-23.562 -21.1)" fill="#fff"/>
        <path id="パス_32157" data-name="パス 32157" d="M25.591,6.653A16.274,16.274,0,0,1,39.151,14.1l.343-.135,8.361-3.17a1.2,1.2,0,0,0,.012-2.217L26.237.074a1.078,1.078,0,0,0-.784,0L3.328,8.6a1.2,1.2,0,0,0,0,2.217L11.2,13.852a1.093,1.093,0,0,0,1.281-.392A16.22,16.22,0,0,1,25.591,6.653" transform="translate(-1.747 0.001)" fill="#fff"/>
        <path id="パス_32158" data-name="パス 32158" d="M3.091,36.609v-6.98H.846v6.98A1.965,1.965,0,0,0,0,38.225v4.424H3.937V38.225a1.965,1.965,0,0,0-.846-1.616" transform="translate(0 -19.991)" fill="#fff"/>
        <path id="パス_32159" data-name="パス 32159" d="M49.852,104.421a14.7,14.7,0,0,1-26.722,0H18.664a18.855,18.855,0,0,0,35.654,0Z" transform="translate(-12.593 -70.454)" fill="#fff"/>
      </g>
    </g>
    <text id="親子のための就学トラブル相談保険" transform="translate(159.478 71.852)" fill="#fff" font-size="9" font-family="ZenMaruGothic-Bold, Zen Maru Gothic" font-weight="700" letter-spacing="0.06em"><tspan x="-76.05" y="0">親子のための就学トラブル相談保険</tspan></text>
  </g>
</svg>
