<svg xmlns="http://www.w3.org/2000/svg" xmlns:xlink="http://www.w3.org/1999/xlink" width="113.467" height="164.091" viewBox="0 0 113.467 164.091"><defs><clipPath id="a"><rect width="104.212" height="15.241" fill="none"/></clipPath><clipPath id="b"><rect width="112.49" height="15.241" fill="none"/></clipPath><clipPath id="c"><rect width="75.282" height="96.859" fill="none"/></clipPath><clipPath id="d"><path d="M816.514,1073.833l-1.423,4.015a16.494,16.494,0,0,0,1.423,2.668c.594.742-.051,2.287,0,2.465s-.077,4.631-.077,4.631l6.635,3.535a30.993,30.993,0,0,0-1.556-6.769c-1.062-2.49-1.86-4.269-1.86-4.269l.518-3.3-3-2.973Z" transform="translate(-815.091 -1073.833)" fill="none"/></clipPath></defs><g transform="translate(-251.53 -9461.436)"><g transform="matrix(0.995, 0.105, -0.105, 0.995, 258.026, 9455.904)"><path d="M-36.344,1.386a.85.85,0,0,1-.595-.224.776.776,0,0,1-.245-.6V-3.752h-2.464a5.714,5.714,0,0,1-.973,3.038,5.454,5.454,0,0,1-2.737,1.862,1.488,1.488,0,0,1-.749.077.72.72,0,0,1-.511-.441A.831.831,0,0,1-44.639.14a.792.792,0,0,1,.553-.476,5.13,5.13,0,0,0,1.554-.756,2.831,2.831,0,0,0,.882-1.1,4.448,4.448,0,0,0,.35-1.561h-2.926a.743.743,0,0,1-.546-.224A.727.727,0,0,1-45-4.508a.743.743,0,0,1,.224-.546.743.743,0,0,1,.546-.224h2.94V-6.426a.8.8,0,0,1,.245-.609.836.836,0,0,1,.6-.231.818.818,0,0,1,.581.231.8.8,0,0,1,.245.609v1.148h2.436V-6.454a.781.781,0,0,1,.245-.595.836.836,0,0,1,.595-.231.818.818,0,0,1,.581.231.781.781,0,0,1,.245.595v1.176h2.828a.743.743,0,0,1,.546.224.743.743,0,0,1,.224.546.727.727,0,0,1-.224.532.743.743,0,0,1-.546.224h-2.828V.56a.776.776,0,0,1-.245.6A.832.832,0,0,1-36.344,1.386Zm3.528-8.358a.838.838,0,0,1-.595.238.769.769,0,0,1-.581-.252l-.462-.462Q-34.706-7.7-35-7.966q-.9.1-2.072.21t-2.436.217q-1.26.105-2.422.2l-2.03.161a.89.89,0,0,1-.6-.182.731.731,0,0,1-.28-.546.719.719,0,0,1,.182-.56.753.753,0,0,1,.56-.252q.406-.028.9-.056l1.029-.056q.21-.364.5-.889t.546-1.029q.259-.5.385-.784A.844.844,0,0,1-40.208-12a.915.915,0,0,1,.728.084.731.731,0,0,1,.4.49.859.859,0,0,1-.091.63q-.2.35-.5.868t-.6.98l2.037-.14q1.015-.07,1.883-.126l-.378-.322q-.182-.154-.35-.28a.713.713,0,0,1-.28-.525.756.756,0,0,1,.168-.567.892.892,0,0,1,.532-.294.781.781,0,0,1,.6.14q.518.378,1.148.917t1.211,1.071q.581.532.945.91a.763.763,0,0,1,.224.609A.872.872,0,0,1-32.816-6.972Zm11.074,3.15a4.757,4.757,0,0,1-1.386-.154,1.01,1.01,0,0,1-.644-.5A2.152,2.152,0,0,1-23.94-5.4v-.812q-.056.07-.1.126t-.1.126a.694.694,0,0,1-.49.245.76.76,0,0,1-.532-.161.558.558,0,0,1-.14-.168.711.711,0,0,1-.378.112h-2.87a.6.6,0,0,1-.448-.189.616.616,0,0,1-.182-.441.632.632,0,0,1,.182-.455.6.6,0,0,1,.448-.189h2.87a.614.614,0,0,1,.546.308q.308-.35.637-.8t.616-.91a9.09,9.09,0,0,0,.469-.84.631.631,0,0,1,.56-.378V-9.87h-1.386a.537.537,0,0,1-.392-.168.537.537,0,0,1-.168-.392.53.53,0,0,1,.168-.4.549.549,0,0,1,.392-.161h1.386v-.224a.675.675,0,0,1,.21-.518.713.713,0,0,1,.5-.2.713.713,0,0,1,.5.2.675.675,0,0,1,.21.518v.224h1.428v-.224a.675.675,0,0,1,.21-.518.713.713,0,0,1,.5-.2.688.688,0,0,1,.5.2.687.687,0,0,1,.2.518v.224h1.4a.542.542,0,0,1,.4.161.542.542,0,0,1,.161.4.549.549,0,0,1-.161.392.53.53,0,0,1-.4.168h-1.4v.182a.687.687,0,0,1-.2.518.688.688,0,0,1-.5.2h-.042a.246.246,0,0,1-.028.07.477.477,0,0,1-.056.126q-.042.07-.084.154h2.212a.436.436,0,0,1,.322.126.436.436,0,0,1,.126.322.46.46,0,0,1-.126.329.424.424,0,0,1-.322.133h-2.2v.434h1.848a.391.391,0,0,1,.287.119.408.408,0,0,1,.119.3.391.391,0,0,1-.119.287.391.391,0,0,1-.287.119h-1.848v.42h1.848a.391.391,0,0,1,.287.119.391.391,0,0,1,.119.287.408.408,0,0,1-.119.3.391.391,0,0,1-.287.119h-1.848v.476h2.324a.46.46,0,0,1,.329.126.424.424,0,0,1,.133.322.454.454,0,0,1-.133.322.436.436,0,0,1-.329.14ZM-23.8,1.232a1.025,1.025,0,0,1-.595-.056.646.646,0,0,1-.343-.42A.631.631,0,0,1-24.647.2.759.759,0,0,1-24.136-.1a10.992,10.992,0,0,0,1.274-.266A9.974,9.974,0,0,0-21.7-.756,7.2,7.2,0,0,1-23-2.3h-.952a.515.515,0,0,1-.385-.168.549.549,0,0,1-.161-.392.542.542,0,0,1,.161-.4.525.525,0,0,1,.385-.161h4.662a1.645,1.645,0,0,1,1.085.322,1,1,0,0,1,.385.8,1.284,1.284,0,0,1-.476.924q-.182.182-.385.357a4.937,4.937,0,0,1-.427.329,9.349,9.349,0,0,0,.966.329,8.513,8.513,0,0,0,1.092.231.782.782,0,0,1,.511.28.628.628,0,0,1,.1.546q-.154.63-.98.5A8.473,8.473,0,0,1-20.44.14a11.4,11.4,0,0,1-1.547.644A12.117,12.117,0,0,1-23.8,1.232ZM-27.1.9a3.232,3.232,0,0,1-1.281-.2,1.122,1.122,0,0,1-.623-.665A3.694,3.694,0,0,1-29.176-1.2a3.747,3.747,0,0,1,.168-1.246,1.122,1.122,0,0,1,.623-.665,3.232,3.232,0,0,1,1.281-.2,3.224,3.224,0,0,1,1.288.2,1.125,1.125,0,0,1,.616.665A3.747,3.747,0,0,1-25.032-1.2,3.694,3.694,0,0,1-25.2.028a1.125,1.125,0,0,1-.616.665A3.224,3.224,0,0,1-27.1.9Zm-2.03-8.764a.6.6,0,0,1-.448-.189.632.632,0,0,1-.182-.455.616.616,0,0,1,.182-.441.6.6,0,0,1,.448-.189h3.948a.582.582,0,0,1,.434.189.616.616,0,0,1,.182.441.632.632,0,0,1-.182.455.582.582,0,0,1-.434.189Zm.6-1.932a.632.632,0,0,1-.462-.2.632.632,0,0,1-.2-.462.632.632,0,0,1,.2-.462.632.632,0,0,1,.462-.2H-25.7a.6.6,0,0,1,.462.2.657.657,0,0,1,.182.462.657.657,0,0,1-.182.462.6.6,0,0,1-.462.2Zm-.028,5.81a.6.6,0,0,1-.448-.189.632.632,0,0,1-.182-.455.632.632,0,0,1,.182-.455.6.6,0,0,1,.448-.189h2.87a.6.6,0,0,1,.448.189.632.632,0,0,1,.182.455.632.632,0,0,1-.182.455.6.6,0,0,1-.448.189ZM-27.1-.378a.691.691,0,0,0,.553-.168,1.133,1.133,0,0,0,.133-.658,1.171,1.171,0,0,0-.133-.665.674.674,0,0,0-.553-.175.653.653,0,0,0-.539.175,1.171,1.171,0,0,0-.133.665,1.133,1.133,0,0,0,.133.658A.669.669,0,0,0-27.1-.378Zm4.816-8.246H-21l.322-.77a.6.6,0,0,1,.273-.315.81.81,0,0,1,.4-.1V-9.87h-1.428v.182a.67.67,0,0,1-.2.5.727.727,0,0,1-.483.21,1.086,1.086,0,0,1-.056.14.308.308,0,0,1-.049.1A.782.782,0,0,0-22.288-8.624ZM-20.412-1.4q.182-.112.35-.224t.308-.21q.238-.182.2-.322t-.364-.14h-1.526q.238.238.5.469A5.846,5.846,0,0,0-20.412-1.4Zm-1.33-3.332h.8v-.476h-1.54a.472.472,0,0,0,.189.371A1.066,1.066,0,0,0-21.742-4.732ZM-22.5-7.28h1.554v-.434H-22.5Zm0,1.246h1.554v-.42H-22.5ZM-12.264.63a.782.782,0,0,1-.574-.238A.8.8,0,0,1-13.076-.2a.782.782,0,0,1,.238-.574.782.782,0,0,1,.574-.238h3.626v-4.62h-4.648a.782.782,0,0,1-.574-.238A.782.782,0,0,1-14.1-6.44a.782.782,0,0,1,.238-.574.782.782,0,0,1,.574-.238h4.648v-3.5a.876.876,0,0,1,.273-.665.913.913,0,0,1,.651-.259.906.906,0,0,1,.658.259.888.888,0,0,1,.266.665v3.5h4.7a.782.782,0,0,1,.574.238.782.782,0,0,1,.238.574.782.782,0,0,1-.238.574.782.782,0,0,1-.574.238h-4.7v4.62h3.654a.806.806,0,0,1,.581.238A.771.771,0,0,1-2.31-.2a.787.787,0,0,1-.245.588A.806.806,0,0,1-3.136.63Zm21.742.546A.808.808,0,0,1,8.9.952.77.77,0,0,1,8.666.364v-2.9q-.6.658-1.337,1.323A14.649,14.649,0,0,1,5.936-.084a.907.907,0,0,1-.63.161.754.754,0,0,1-.56-.329.735.735,0,0,1-.119-.581.713.713,0,0,1,.329-.483,11.746,11.746,0,0,0,1.036-.756q.574-.462,1.141-.966t.959-.924H5.642a.739.739,0,0,1-.532-.217A.7.7,0,0,1,4.886-4.7a.7.7,0,0,1,.224-.525.739.739,0,0,1,.532-.217H8.666v-1.12H8.6a4.626,4.626,0,0,1-1.575-.217A1.419,1.419,0,0,1,6.2-7.518,3.36,3.36,0,0,1,5.95-8.932,3.352,3.352,0,0,1,6.2-10.353a1.424,1.424,0,0,1,.819-.728A4.616,4.616,0,0,1,8.6-11.3h1.736a4.679,4.679,0,0,1,1.589.217,1.4,1.4,0,0,1,.819.728,3.439,3.439,0,0,1,.238,1.421,3.448,3.448,0,0,1-.238,1.414,1.392,1.392,0,0,1-.819.735,4.679,4.679,0,0,1-1.589.217H10.29v1.12h3.024a.732.732,0,0,1,.539.217.715.715,0,0,1,.217.525.715.715,0,0,1-.217.525.732.732,0,0,1-.539.217h-2.45q.392.392.959.882t1.148.938q.581.448,1.029.728a.7.7,0,0,1,.329.5.782.782,0,0,1-.133.581.755.755,0,0,1-.546.343.9.9,0,0,1-.644-.147q-.406-.28-.882-.672t-.952-.84Q10.7-2.1,10.29-2.52V.364a.77.77,0,0,1-.238.588A.808.808,0,0,1,9.478,1.176ZM3.794,1.26a.79.79,0,0,1-.56-.224A.737.737,0,0,1,3,.476V-6.09q-.322.518-.644.938a.764.764,0,0,1-.518.315.839.839,0,0,1-.6-.133.81.81,0,0,1-.329-.5.672.672,0,0,1,.119-.553q.392-.546.791-1.232t.763-1.407q.364-.721.651-1.4t.455-1.211a.772.772,0,0,1,.406-.49.815.815,0,0,1,.63-.028.827.827,0,0,1,.469.357.7.7,0,0,1,.049.609q-.126.42-.287.854t-.357.882V.462a.748.748,0,0,1-.238.581A.8.8,0,0,1,3.794,1.26ZM8.638-8.064H10.29a1.246,1.246,0,0,0,.77-.168.921.921,0,0,0,.2-.7.945.945,0,0,0-.2-.714,1.246,1.246,0,0,0-.77-.168H8.638a1.215,1.215,0,0,0-.756.168.945.945,0,0,0-.2.714.921.921,0,0,0,.2.7A1.215,1.215,0,0,0,8.638-8.064Zm9.1,9.226a.766.766,0,0,1-.532-.2.709.709,0,0,1-.224-.553v-10a2.558,2.558,0,0,1,.182-1.071,1.083,1.083,0,0,1,.665-.553,4.393,4.393,0,0,1,1.379-.168q1.554,0,1.974.616A1.555,1.555,0,0,1,21.1-9.142l-.126.238q.518-.322,1.071-.742t1.043-.861q.49-.441.826-.791a1.488,1.488,0,0,1,1.064-.518,1.6,1.6,0,0,1,1.106.434q.406.336.994.784t1.218.861q.63.413,1.134.679a.635.635,0,0,1,.364.462.84.84,0,0,1-.084.6.865.865,0,0,1-.518.406.749.749,0,0,1-.63-.084l-.406-.252q-.224-.14-.462-.308a.718.718,0,0,1,.056.294.7.7,0,0,1-.189.5.664.664,0,0,1-.511.2H25.914v.714H26.6a3.91,3.91,0,0,1,1.239.161,1.144,1.144,0,0,1,.679.574,2.67,2.67,0,0,1,.21,1.183,2.67,2.67,0,0,1-.21,1.183,1.144,1.144,0,0,1-.679.574,3.91,3.91,0,0,1-1.239.161h-.308a7.741,7.741,0,0,0,1.337,1.2,7.363,7.363,0,0,0,1.631.9.671.671,0,0,1,.42.434.747.747,0,0,1-.028.6.741.741,0,0,1-.483.413,1.016,1.016,0,0,1-.693-.035A7.031,7.031,0,0,1,27.335.217,8.419,8.419,0,0,1,26.2-.665a8.035,8.035,0,0,1-.945-1.029,4.825,4.825,0,0,1-1.68,1.68,9.312,9.312,0,0,1-2.408,1.022.9.9,0,0,1-.609-.014.677.677,0,0,1-.385-.42.77.77,0,0,1,.035-.588.656.656,0,0,1,.413-.35,7.823,7.823,0,0,0,2.114-.9,3.615,3.615,0,0,0,1.33-1.421h-.308a3.978,3.978,0,0,1-1.246-.161,1.144,1.144,0,0,1-.686-.574,2.67,2.67,0,0,1-.21-1.183,2.67,2.67,0,0,1,.21-1.183,1.144,1.144,0,0,1,.686-.574,3.978,3.978,0,0,1,1.246-.161H24.4v-.714H23.2a.67.67,0,0,1-.5-.2.688.688,0,0,1-.2-.5.44.44,0,0,1,.007-.07.44.44,0,0,0,.007-.07q-.224.168-.441.322t-.413.266a.886.886,0,0,1-.616.133.73.73,0,0,1-.518-.357.33.33,0,0,1-.07-.154q-.056.112-.112.217t-.1.175a.952.952,0,0,0-.133.5.947.947,0,0,0,.273.469,3.5,3.5,0,0,1,.938,2.45A2.373,2.373,0,0,1,20.8-2.373a2.02,2.02,0,0,1-1.435.595.765.765,0,0,1-.868-.532V.406a.721.721,0,0,1-.217.553A.759.759,0,0,1,17.738,1.162Zm.756-4.018a.85.85,0,0,1,.21-.315.693.693,0,0,1,.35-.175.818.818,0,0,0,.511-.294,1.4,1.4,0,0,0,.147-.756,2.592,2.592,0,0,0-.224-1.036,2.9,2.9,0,0,0-.56-.868,1.047,1.047,0,0,1-.315-.546,1.482,1.482,0,0,1,.175-.728q.084-.154.245-.518t.322-.742q.161-.378.231-.56.14-.336.056-.469t-.5-.133a.872.872,0,0,0-.518.105.619.619,0,0,0-.126.469Zm4.732-5.782h3.906q-.476-.35-.924-.707t-.742-.623a.582.582,0,0,0-.4-.217.644.644,0,0,0-.4.245q-.266.266-.644.609T23.226-8.638Zm2.688,4.62h.49a1.323,1.323,0,0,0,.644-.1q.14-.1.14-.49t-.14-.5a1.413,1.413,0,0,0-.644-.091h-.49Zm-1.974,0H24.4V-5.194H23.94A1.413,1.413,0,0,0,23.3-5.1q-.14.091-.14.5t.14.49A1.323,1.323,0,0,0,23.94-4.018ZM39.2.8A3.719,3.719,0,0,1,36.6-.07a3.183,3.183,0,0,1-.952-2.478,3.783,3.783,0,0,1,.042-.476q.042-.308.1-.714-.392-.07-.749-.154l-.651-.154a.788.788,0,0,1-.5-.406.806.806,0,0,1-.063-.63.873.873,0,0,1,.413-.49.77.77,0,0,1,.623-.07,9.619,9.619,0,0,0,1.218.28q.07-.406.154-.826t.154-.854q-.378-.07-.7-.14t-.532-.126a.816.816,0,0,1-.49-.4.77.77,0,0,1-.07-.623.823.823,0,0,1,.392-.5.78.78,0,0,1,.63-.07q.168.042.448.1t.63.133q.112-.658.2-1.2a7.331,7.331,0,0,0,.1-.875.738.738,0,0,1,.315-.56.845.845,0,0,1,.623-.168.8.8,0,0,1,.56.315.823.823,0,0,1,.168.623q-.042.35-.133.917T38.3-8.372q.224.042.413.063t.343.049a.851.851,0,0,1,.546.322.779.779,0,0,1,.168.6.775.775,0,0,1-.315.553.816.816,0,0,1-.609.161q-.168-.014-.392-.049T38-6.734q-.084.406-.161.812t-.147.8l.539.056q.259.028.483.042a.777.777,0,0,1,.567.273.814.814,0,0,1,.217.6.768.768,0,0,1-.273.574.847.847,0,0,1-.609.21q-.28-.028-.588-.049t-.63-.063a6.739,6.739,0,0,0-.112.938q0,1.68,1.918,1.68a2.27,2.27,0,0,0,1.33-.371,1.484,1.484,0,0,0,.644-.973,2.167,2.167,0,0,0-.854-2.044.722.722,0,0,1-.231-.6.835.835,0,0,1,.287-.595.734.734,0,0,1,.588-.21.95.95,0,0,1,.588.266,4.112,4.112,0,0,1,1.092,1.617A3.432,3.432,0,0,1,42.8-2.016,3.18,3.18,0,0,1,41.622.028,3.763,3.763,0,0,1,39.2.8ZM-44.17,28.12a.923.923,0,0,1-.672-.245.948.948,0,0,1-.28-.637.847.847,0,0,1,.21-.609.873.873,0,0,1,.63-.287,1.452,1.452,0,0,0,.777-.189.835.835,0,0,0,.161-.609v-5.5H-47.7a.742.742,0,0,1-.567-.231.779.779,0,0,1-.217-.553.779.779,0,0,1,.217-.553.742.742,0,0,1,.567-.231h4.354V16.108a.793.793,0,0,1,.245-.616.85.85,0,0,1,.595-.224.85.85,0,0,1,.6.224.793.793,0,0,1,.245.616v2.366h1.246a.737.737,0,0,1,.574.231.794.794,0,0,1,.21.553.794.794,0,0,1-.21.553.737.737,0,0,1-.574.231h-1.246v5.782A3.35,3.35,0,0,1-41.9,27.2a1.349,1.349,0,0,1-.777.714A4.3,4.3,0,0,1-44.17,28.12Zm-5.544.056a.85.85,0,0,1-.6-.224.776.776,0,0,1-.245-.6V20.882q-.462.588-.924,1.092a.8.8,0,0,1-.567.273.789.789,0,0,1-.595-.2.784.784,0,0,1-.259-.532.679.679,0,0,1,.189-.532,16.222,16.222,0,0,0,1.3-1.624,20.718,20.718,0,0,0,1.176-1.862,12.983,12.983,0,0,0,.84-1.778.79.79,0,0,1,.434-.441.849.849,0,0,1,.616-.007.719.719,0,0,1,.448.392.743.743,0,0,1,0,.63q-.182.49-.434,1.015t-.56,1.057V27.35a.776.776,0,0,1-.245.6A.832.832,0,0,1-49.714,28.176Zm4.942-3.906a.875.875,0,0,1-.679.154.811.811,0,0,1-.539-.378q-.14-.238-.385-.574t-.5-.672q-.252-.336-.434-.546a.712.712,0,0,1-.14-.581.794.794,0,0,1,.322-.525,1,1,0,0,1,.609-.189.744.744,0,0,1,.567.287q.182.21.448.553t.525.686q.259.343.4.567a.848.848,0,0,1,.154.672A.842.842,0,0,1-44.772,24.27Zm14.91,3.066a.881.881,0,0,1-.623.21.832.832,0,0,1-.595-.266.818.818,0,0,1-.217-.616.829.829,0,0,1,.287-.588,5.137,5.137,0,0,0,1.155-1.428,5.437,5.437,0,0,0,.546-1.764,16.971,16.971,0,0,0,.147-2.408q-.686.056-1.323.126t-1.155.154a.847.847,0,0,1-.63-.133.809.809,0,0,1-.35-.525.847.847,0,0,1,.133-.63.767.767,0,0,1,.539-.336q.532-.084,1.267-.154t1.519-.126V16.934a.822.822,0,0,1,.238-.595.787.787,0,0,1,.588-.245.787.787,0,0,1,.588.245.822.822,0,0,1,.238.595v1.82q.49-.028.917-.028h.735a.825.825,0,0,1,.588.266.753.753,0,0,1,.21.6.768.768,0,0,1-.273.574.847.847,0,0,1-.609.21q-.672-.028-1.568,0v.084a19.364,19.364,0,0,1-.175,2.688,7.768,7.768,0,0,1-.679,2.3A5.712,5.712,0,0,1-29.862,27.336ZM-34.58,27a.8.8,0,0,1-.63-.119.809.809,0,0,1-.35-.525,14.691,14.691,0,0,1-.231-1.561q-.091-.9-.126-1.932t-.007-2.086q.028-1.057.119-2.058a14.713,14.713,0,0,1,.273-1.827.784.784,0,0,1,.357-.532.813.813,0,0,1,.623-.112.777.777,0,0,1,.518.357.839.839,0,0,1,.112.637,16.792,16.792,0,0,0-.3,2.184q-.091,1.19-.084,2.394t.1,2.3a16.125,16.125,0,0,0,.259,1.9.813.813,0,0,1-.112.623A.777.777,0,0,1-34.58,27Zm18.032.5a.822.822,0,0,1-.6-.238.837.837,0,0,1-.259-.588.822.822,0,0,1,.238-.595.837.837,0,0,1,.588-.259q3.92-.07,3.92-2.24a1.376,1.376,0,0,0-.49-1.12,1.976,1.976,0,0,0-1.3-.406A4.43,4.43,0,0,0-16.3,22.5a5.291,5.291,0,0,0-1.743,1.323.773.773,0,0,1-.469.259A.8.8,0,0,1-19.04,24a.705.705,0,0,1-.35-.357.875.875,0,0,1-.07-.511q.1-.588.217-1.274t.259-1.393q.14-.707.28-1.309a.75.75,0,0,1,.371-.525.825.825,0,0,1,.637-.091.816.816,0,0,1,.518.385.808.808,0,0,1,.1.637q-.1.392-.231.9t-.273,1.085a5.649,5.649,0,0,1,3.178-1.092,3.932,3.932,0,0,1,1.806.392,2.918,2.918,0,0,1,1.2,1.092,3.083,3.083,0,0,1,.427,1.638A3.387,3.387,0,0,1-12.348,26.4,6.994,6.994,0,0,1-16.548,27.5Zm2.24-8.764q-.448-.224-1.015-.483t-1.134-.5q-.567-.245-1-.413a.716.716,0,0,1-.42-.462.853.853,0,0,1,.028-.644.781.781,0,0,1,.476-.427.928.928,0,0,1,.644.021q.462.182,1,.413t1.085.476q.546.245.994.469a.9.9,0,0,1,.441.469.816.816,0,0,1,.007.637.868.868,0,0,1-.462.448A.776.776,0,0,1-14.308,18.74Zm11.592,9.31a.782.782,0,0,1-.574-.238.782.782,0,0,1-.238-.574v-3.08q-.238.364-.469.721t-.427.679a.751.751,0,0,1-.525.357.828.828,0,0,1-.623-.119.812.812,0,0,1-.343-.539.8.8,0,0,1,.133-.623q.406-.546.987-1.379t1.267-1.7V19.762a.513.513,0,0,1-.1.021.346.346,0,0,0-.112.035q-.154.028-.441.112l-.546.161-.357.1a.833.833,0,0,1-.63-.112.827.827,0,0,1-.378-.532.816.816,0,0,1,.119-.63.8.8,0,0,1,.525-.364l.392-.091q.266-.063.567-.126l.511-.1a3.778,3.778,0,0,1,.448-.084V16.136a.782.782,0,0,1,.238-.574.782.782,0,0,1,.574-.238.782.782,0,0,1,.574.238.782.782,0,0,1,.238.574v2.3a1.158,1.158,0,0,1,.392.448,1.217,1.217,0,0,1,.14.392A7.327,7.327,0,0,1-.063,18.39a2.8,2.8,0,0,1,1.3-.336,2.353,2.353,0,0,1,2.184,1.029,4.847,4.847,0,0,1,.224,3.283q-.154.9-.224,1.435a5.783,5.783,0,0,0-.063.819.912.912,0,0,0,.07.392.5.5,0,0,0,.175.182.843.843,0,0,0,.714.021,2.5,2.5,0,0,0,.826-.567.713.713,0,0,1,.6-.2.858.858,0,0,1,.574.308.763.763,0,0,1,.2.609.9.9,0,0,1-.287.581,3.665,3.665,0,0,1-1.848,1,2.619,2.619,0,0,1-1.792-.245,1.708,1.708,0,0,1-.7-.756,2.905,2.905,0,0,1-.21-1.274,13.073,13.073,0,0,1,.238-2.03,9.136,9.136,0,0,0,.2-1.869,1.263,1.263,0,0,0-.273-.868.971.971,0,0,0-.693-.231,1.8,1.8,0,0,0-.924.308,6.19,6.19,0,0,0-1.043.826A15.621,15.621,0,0,0-1.9,21.974v5.264a.782.782,0,0,1-.238.574A.782.782,0,0,1-2.716,28.05Zm16.59-.21a2.948,2.948,0,0,1-1.848-.539,1.9,1.9,0,0,1-.7-1.6,1.867,1.867,0,0,1,.707-1.526,2.921,2.921,0,0,1,1.9-.574q.42,0,.84.042l-.042-1.582q-1.456.042-2.576,0a.792.792,0,0,1-.567-.287.842.842,0,0,1-.2-.6.8.8,0,0,1,.287-.56.778.778,0,0,1,.6-.2q.532.028,1.155.035t1.267-.007q-.014-.336-.014-.672t-.014-.658q-.686.014-1.33.007T12.152,19.1a.746.746,0,0,1-.567-.273.862.862,0,0,1-.2-.609.8.8,0,0,1,.287-.56.778.778,0,0,1,.6-.2q1.036.07,2.366.042V16.3a.822.822,0,0,1,.238-.6.787.787,0,0,1,.588-.245.837.837,0,0,1,.84.84v.539q0,.287.014.609.574-.042,1.106-.091t.966-.1a.816.816,0,0,1,.609.161.764.764,0,0,1,.315.539.839.839,0,0,1-.161.623.764.764,0,0,1-.539.315q-.49.056-1.071.1t-1.2.07q0,.322.007.658t.021.672q.56-.028,1.071-.077t.945-.105a.756.756,0,0,1,.609.154.788.788,0,0,1,.315.546.816.816,0,0,1-.161.609.764.764,0,0,1-.539.315q-.476.056-1.036.1T16.394,22q.028.56.035,1.064T16.45,24a10.11,10.11,0,0,1,1.54.588,9.186,9.186,0,0,1,1.288.742.767.767,0,0,1,.343.532.827.827,0,0,1-.672.973.8.8,0,0,1-.623-.133,8.4,8.4,0,0,0-.868-.539,9.712,9.712,0,0,0-.994-.469,2.062,2.062,0,0,1-.728,1.624A2.984,2.984,0,0,1,13.874,27.84Zm-.014-1.582a1.025,1.025,0,0,0,.756-.2.842.842,0,0,0,.182-.581v-.266a5.39,5.39,0,0,0-.938-.084,1.121,1.121,0,0,0-.658.154.493.493,0,0,0-.21.42Q12.992,26.258,13.86,26.258ZM29.386,27.98a1.068,1.068,0,0,1-.651-.007.787.787,0,0,1-.469-.413.891.891,0,0,1-.028-.658.714.714,0,0,1,.434-.462,5.623,5.623,0,0,0,1.652-.91,2.759,2.759,0,0,0,.826-1.162,2.191,2.191,0,0,1-.938.224,2.778,2.778,0,0,1-1.806-.567,2.026,2.026,0,0,1-.7-1.673,2.175,2.175,0,0,1,.728-1.736,2.7,2.7,0,0,1,1.834-.63q.1,0,.182.007t.182.021q-.042-.238-.063-.49t-.035-.532q-1.4.056-2.751.161t-2.513.217a.844.844,0,0,1-.6-.175.772.772,0,0,1-.308-.539.85.85,0,0,1,.182-.616.7.7,0,0,1,.546-.28q1.19-.1,2.59-.175t2.842-.133v-1.2a.813.813,0,0,1,.826-.826.816.816,0,0,1,.6.238.8.8,0,0,1,.238.588V17.4q1.162-.028,2.226-.049t1.96-.035a.755.755,0,0,1,.581.252.829.829,0,0,1-.042,1.162.8.8,0,0,1-.6.21q-1.792-.07-4.13,0,.014.49.049.98t.063.938a3.263,3.263,0,0,1,.672,2.17,5.228,5.228,0,0,1-.917,3.066A5.044,5.044,0,0,1,29.386,27.98Zm.826-4.83a.986.986,0,0,0,.637-.217.75.75,0,0,0,.231-.6,1.715,1.715,0,0,0-.021-.252q-.021-.14-.049-.28a.957.957,0,0,0-.77-.35,1,1,0,0,0-.665.231.79.79,0,0,0-.273.637.767.767,0,0,0,.259.623A.925.925,0,0,0,30.212,23.15ZM46.2,24.438a.7.7,0,0,1-.49-.2.744.744,0,0,1-.238-.49q-.042-.532-.077-1.218t-.077-1.407q-.042-.721-.07-1.379t-.042-1.162q-.014-.5-.014-.742V16.458a.921.921,0,0,1,.287-.686.991.991,0,0,1,.721-.28,1.009,1.009,0,0,1,.735.28.921.921,0,0,1,.287.686v1.386q0,.238-.021.742t-.049,1.162q-.028.658-.063,1.379t-.077,1.407q-.042.686-.084,1.218a.69.69,0,0,1-.224.49A.713.713,0,0,1,46.2,24.438Zm0,3.416a1.2,1.2,0,1,1,.84-.35A1.146,1.146,0,0,1,46.2,27.854Z" transform="translate(58.607 17)" fill="#60432e" opacity="0.999"/><g transform="translate(2.76 21.387)" clip-path="url(#a)"><g transform="translate(-453.942 -1414.971)"><path d="M-3743.688,4344c-6.457.185-5.916-4.024-11.831-4.024s-5.916,4.024-11.832,4.024-5.916-4.024-11.831-4.024-5.916,4.024-11.831,4.024-5.916-4.024-11.832-4.024-5.915,4.024-11.831,4.024-5.916-4.024-11.831-4.024-5.916,4.024-11.831,4.024-5.916-4.024-11.831-4.024-5.374,4.209-11.831,4.024" transform="translate(4320 -2921)" fill="none" stroke="#ffd86e" stroke-linecap="round" stroke-width="3"/></g></g><g transform="translate(0 46.913)" clip-path="url(#b)"><g transform="translate(-453.942 -1414.971)"><path d="M-3743.688,4344c-6.457.185-5.916-4.024-11.831-4.024s-5.916,4.024-11.832,4.024-5.916-4.024-11.831-4.024-5.916,4.024-11.831,4.024-5.916-4.024-11.832-4.024-5.915,4.024-11.831,4.024-5.916-4.024-11.831-4.024-5.916,4.024-11.831,4.024-5.916-4.024-11.831-4.024-5.374,4.209-11.831,4.024" transform="translate(4320 -2921)" fill="none" stroke="#ffd86e" stroke-linecap="round" stroke-width="3"/></g></g></g><g transform="translate(280.005 9522.471) rotate(5)"><g transform="translate(0 0.004)"><g transform="translate(0 0)" clip-path="url(#c)"><path d="M32.2,11.411A5.581,5.581,0,0,0,27.825,13.5c-1.579,2.182-3.37,5.447-3.229,7.447s.109,2.785.637,3.984,2.11,4.7,2.11,4.7-2.517,4.114,2.829,5.893l.671.484.24,4.579a.719.719,0,0,0-1.049.447,9.174,9.174,0,0,0-.433,2.057s-.6-.406-.974.46-1.444,3.058-1.444,3.058-8.6,4.818-9.761,5.251a3.621,3.621,0,0,0-2.165,2.9c-.244,1.353-4.06,29.014-4.06,29.014s-.3,3.056,1.164,4.275,8.2,6.118,8.2,6.118l-.433,4.412,13.4,1.243s5.231,5.151,8.2,5.009,2.815-1.11,3.383-1.624,1.786-1.191,1.543-2.084,1.137-1.516,1.137-1.516l9.554-.758L55.818,80.609l1.306-2.2s3.3,3.573,5.873,3.167,5.981-1.678,7.984-9.04,2.842-11.5,2.842-11.5l-.677-1.083.568-1.7-1.056-.388s-.027-.812,1.3-1.407,9.392-5.819,10.745-9.5V45.8l.92-1.434a1.715,1.715,0,0,1-.866-1.245c-.135-.893.217-1.705-.541-1.624s-1.326.433-1.462.027-.893-1.218-1.543-.92-6.577,4.439-8.066,4.682l-.46-.379,1.028-3.41s-.379-1.191-.947-1.11-.406.108-.866,1.218a20.069,20.069,0,0,1-2.409,4.439c-1,1.218-2.382,3.194-2.382,5.061s.162,2.328-.162,2.788-.65,1.028-.65,1.028h-.746l-3.693,6.82-3.631-8.9s.166-1.517-2.27-2.356a43.792,43.792,0,0,1-7.055-3.039,11.552,11.552,0,0,1-2.944-3.484,15.724,15.724,0,0,0-1.639-1.813s4.845-1.832,6.09-6.41,1.73-13.835,1.8-15.756a8.367,8.367,0,0,0-4.338-7.605c-3.577-1.786-6.933-4.2-10.289-3.41s-4.227.888-5.388,2.447" transform="translate(-10.757 -8.485)" fill="#fff"/><path d="M64.748,976.783l9.754-19.77,3.075,1.374c-.871-1.3-7.41-16.974-10.373-18.131-.873.261-.873.337-1.378,1.745-.771,3.149-9.467,5.862-11.618,7.348,0,0-1.041.688-1.485,3.444s-3.75,27.583-3.75,27.583a5.62,5.62,0,0,0,2.235,5.664c3.077,2.235,7.225,5.112,7.225,5.112l-.52,4.547,11.555,1.091-.113-.134c-.447-.523-.857-1.078-1.307-1.6-.031,0-.071-.007-.084-.007-3.091.149-1.827-2.549-.968-4.267a33.53,33.53,0,0,1,2.636-4.269c.4-.621,1.09-.023,1.567.181l.579-.712a1.493,1.493,0,0,0-.75-1.659c-1.047-.617-7.621-4.4-7.621-4.4s-.51-.942-.268-1.29,1.61-1.852,1.61-1.852" transform="translate(-47.059 -905.455)" fill="#a9b9ca"/><path d="M1018.941,1030.1l1.441,4.247s2.642,12.533,2.642,15.408l9.345,4.791-3.747,7.891a9.872,9.872,0,0,0,3.747,2.266c1.7.32,6.7,1.355,9.251-5.749a76.9,76.9,0,0,0,3.461-14.724s.126-.383-.346-.479a13.012,13.012,0,0,1-8.36-2.886s-.38-.5-.632-.439a48.482,48.482,0,0,0-2.171,5.017l-3.343-8.911s-.315-1.246-3.335-2.715-6.517-1.967-7.953-3.716" transform="translate(-981.227 -991.977)" fill="#a9b9ca"/><path d="M1040.731,1919.008s-.226-2.061-.226-2.143l-1.1,1.857s.146,1.222.249,2.059c-1.738,3.745-5.548,11.814-5.548,11.814a.958.958,0,0,1,.489,1.241c-.285.927-2.027,1.159-2,1.565a14.947,14.947,0,0,0,.3,1.518l9.235-.722Z" transform="translate(-994.375 -1845.917)" fill="#a9b9ca"/></g></g><g transform="translate(30.169 39.749)"><g clip-path="url(#d)"><path d="M1013.011,1065.053a.3.3,0,1,1-.426,0,.3.3,0,0,1,.426,0" transform="translate(-1005.191 -1065.294)" fill="#f4dd92"/><path d="M1034.414,1086.455a.3.3,0,1,1-.426,0,.3.3,0,0,1,.426,0" transform="translate(-1025.801 -1085.903)" fill="#f4dd92"/><path d="M970.206,1065.053a.3.3,0,1,1-.426,0,.3.3,0,0,1,.426,0" transform="translate(-963.97 -1065.294)" fill="#f4dd92"/><path d="M991.609,1086.455a.3.3,0,1,1-.426,0,.3.3,0,0,1,.426,0" transform="translate(-984.581 -1085.903)" fill="#f4dd92"/><path d="M1013.011,1107.859a.3.3,0,1,1-.426,0,.3.3,0,0,1,.426,0" transform="translate(-1005.191 -1106.514)" fill="#f4dd92"/><path d="M1034.414,1129.261a.3.3,0,1,1-.426,0,.3.3,0,0,1,.426,0" transform="translate(-1025.801 -1127.125)" fill="#f4dd92"/><path d="M927.4,1065.053a.3.3,0,1,1-.426,0,.3.3,0,0,1,.426,0" transform="translate(-922.749 -1065.294)" fill="#f4dd92"/><path d="M948.8,1086.455a.3.3,0,1,1-.426,0,.3.3,0,0,1,.426,0" transform="translate(-943.359 -1085.903)" fill="#f4dd92"/><path d="M970.206,1107.859a.3.3,0,1,1-.426,0,.3.3,0,0,1,.426,0" transform="translate(-963.97 -1106.514)" fill="#f4dd92"/><path d="M991.609,1129.261a.3.3,0,1,1-.426,0,.3.3,0,0,1,.426,0" transform="translate(-984.581 -1127.125)" fill="#f4dd92"/><path d="M1013.011,1150.664a.3.3,0,1,1-.426,0,.3.3,0,0,1,.426,0" transform="translate(-1005.191 -1147.735)" fill="#f4dd92"/><path d="M1034.414,1172.067a.3.3,0,1,1-.426,0,.3.3,0,0,1,.426,0" transform="translate(-1025.801 -1168.346)" fill="#f4dd92"/><path d="M884.6,1065.053a.3.3,0,1,1-.426,0,.3.3,0,0,1,.426,0" transform="translate(-881.528 -1065.294)" fill="#f4dd92"/><path d="M906,1086.455a.3.3,0,1,1-.426,0,.3.3,0,0,1,.426,0" transform="translate(-902.139 -1085.903)" fill="#f4dd92"/><path d="M927.4,1107.859a.3.3,0,1,1-.426,0,.3.3,0,0,1,.426,0" transform="translate(-922.749 -1106.514)" fill="#f4dd92"/><path d="M948.8,1129.261a.3.3,0,1,1-.426,0,.3.3,0,0,1,.426,0" transform="translate(-943.359 -1127.125)" fill="#f4dd92"/><path d="M970.206,1150.664a.3.3,0,1,1-.426,0,.3.3,0,0,1,.426,0" transform="translate(-963.97 -1147.735)" fill="#f4dd92"/><path d="M991.609,1172.067a.3.3,0,1,1-.426,0,.3.3,0,0,1,.426,0" transform="translate(-984.581 -1168.346)" fill="#f4dd92"/><path d="M1013.011,1193.469a.3.3,0,1,1-.426,0,.3.3,0,0,1,.426,0" transform="translate(-1005.191 -1188.957)" fill="#f4dd92"/><path d="M1034.414,1214.872a.3.3,0,1,1-.426,0,.3.3,0,0,1,.426,0" transform="translate(-1025.801 -1209.567)" fill="#f4dd92"/><path d="M841.79,1065.053a.3.3,0,1,1-.426,0,.3.3,0,0,1,.426,0" transform="translate(-840.307 -1065.294)" fill="#f4dd92"/><path d="M863.193,1086.455a.3.3,0,1,1-.426,0,.3.3,0,0,1,.426,0" transform="translate(-860.918 -1085.903)" fill="#f4dd92"/><path d="M884.6,1107.859a.3.3,0,1,1-.426,0,.3.3,0,0,1,.426,0" transform="translate(-881.528 -1106.514)" fill="#f4dd92"/><path d="M906,1129.261a.3.3,0,1,1-.426,0,.3.3,0,0,1,.426,0" transform="translate(-902.139 -1127.125)" fill="#f4dd92"/><path d="M927.4,1150.664a.3.3,0,1,1-.426,0,.3.3,0,0,1,.426,0" transform="translate(-922.749 -1147.735)" fill="#f4dd92"/><path d="M948.8,1172.067a.3.3,0,1,1-.426,0,.3.3,0,0,1,.426,0" transform="translate(-943.359 -1168.346)" fill="#f4dd92"/><path d="M970.206,1193.469a.3.3,0,1,1-.426,0,.3.3,0,0,1,.426,0" transform="translate(-963.97 -1188.957)" fill="#f4dd92"/><path d="M991.609,1214.872a.3.3,0,1,1-.426,0,.3.3,0,0,1,.426,0" transform="translate(-984.581 -1209.567)" fill="#f4dd92"/><path d="M1013.011,1236.274a.3.3,0,1,1-.426,0,.3.3,0,0,1,.426,0" transform="translate(-1005.191 -1230.177)" fill="#f4dd92"/><path d="M1034.414,1257.677a.3.3,0,1,1-.426,0,.3.3,0,0,1,.426,0" transform="translate(-1025.801 -1250.788)" fill="#f4dd92"/><path d="M798.984,1065.053a.3.3,0,1,1-.426,0,.3.3,0,0,1,.426,0" transform="translate(-799.085 -1065.294)" fill="#f4dd92"/><path d="M820.387,1086.455a.3.3,0,1,1-.426,0,.3.3,0,0,1,.426,0" transform="translate(-819.696 -1085.903)" fill="#f4dd92"/><path d="M841.79,1107.859a.3.3,0,1,1-.426,0,.3.3,0,0,1,.426,0" transform="translate(-840.307 -1106.514)" fill="#f4dd92"/><path d="M863.193,1129.261a.3.3,0,1,1-.426,0,.3.3,0,0,1,.426,0" transform="translate(-860.918 -1127.125)" fill="#f4dd92"/><path d="M884.6,1150.664a.3.3,0,1,1-.426,0,.3.3,0,0,1,.426,0" transform="translate(-881.528 -1147.735)" fill="#f4dd92"/><path d="M906,1172.067a.3.3,0,1,1-.426,0,.3.3,0,0,1,.426,0" transform="translate(-902.139 -1168.346)" fill="#f4dd92"/><path d="M927.4,1193.469a.3.3,0,1,1-.426,0,.3.3,0,0,1,.426,0" transform="translate(-922.749 -1188.957)" fill="#f4dd92"/><path d="M948.8,1214.872a.3.3,0,1,1-.426,0,.3.3,0,0,1,.426,0" transform="translate(-943.359 -1209.567)" fill="#f4dd92"/><path d="M970.206,1236.274a.3.3,0,1,1-.426,0,.3.3,0,0,1,.426,0" transform="translate(-963.97 -1230.177)" fill="#f4dd92"/><path d="M991.609,1257.677a.3.3,0,1,1-.426,0,.3.3,0,0,1,.426,0" transform="translate(-984.581 -1250.788)" fill="#f4dd92"/><path d="M1013.011,1279.08a.3.3,0,1,1-.426,0,.3.3,0,0,1,.426,0" transform="translate(-1005.191 -1271.399)" fill="#f4dd92"/><path d="M1034.414,1300.482a.3.3,0,1,1-.426,0,.3.3,0,0,1,.426,0" transform="translate(-1025.801 -1292.009)" fill="#f4dd92"/><path d="M798.984,1107.859a.3.3,0,1,1-.426,0,.3.3,0,0,1,.426,0" transform="translate(-799.085 -1106.514)" fill="#f4dd92"/><path d="M820.387,1129.261a.3.3,0,1,1-.426,0,.3.3,0,0,1,.426,0" transform="translate(-819.696 -1127.125)" fill="#f4dd92"/><path d="M841.79,1150.664a.3.3,0,1,1-.426,0,.3.3,0,0,1,.426,0" transform="translate(-840.307 -1147.735)" fill="#f4dd92"/><path d="M863.193,1172.067a.3.3,0,1,1-.426,0,.3.3,0,0,1,.426,0" transform="translate(-860.918 -1168.346)" fill="#f4dd92"/><path d="M884.6,1193.469a.3.3,0,1,1-.426,0,.3.3,0,0,1,.426,0" transform="translate(-881.528 -1188.957)" fill="#f4dd92"/><path d="M906,1214.872a.3.3,0,1,1-.426,0,.3.3,0,0,1,.426,0" transform="translate(-902.139 -1209.567)" fill="#f4dd92"/><path d="M927.4,1236.274a.3.3,0,1,1-.426,0,.3.3,0,0,1,.426,0" transform="translate(-922.749 -1230.177)" fill="#f4dd92"/><path d="M948.8,1257.677a.3.3,0,1,1-.426,0,.3.3,0,0,1,.426,0" transform="translate(-943.359 -1250.788)" fill="#f4dd92"/><path d="M970.206,1279.08a.3.3,0,1,1-.426,0,.3.3,0,0,1,.426,0" transform="translate(-963.97 -1271.399)" fill="#f4dd92"/><path d="M991.609,1300.482a.3.3,0,1,1-.426,0,.3.3,0,0,1,.426,0" transform="translate(-984.581 -1292.009)" fill="#f4dd92"/><path d="M1013.011,1321.885a.3.3,0,1,1-.426,0,.3.3,0,0,1,.426,0" transform="translate(-1005.191 -1312.619)" fill="#f4dd92"/><path d="M1034.414,1343.288a.3.3,0,1,1-.426,0,.3.3,0,0,1,.426,0" transform="translate(-1025.801 -1333.23)" fill="#f4dd92"/><path d="M798.984,1150.664a.3.3,0,1,1-.426,0,.3.3,0,0,1,.426,0" transform="translate(-799.085 -1147.735)" fill="#f4dd92"/><path d="M820.387,1172.067a.3.3,0,1,1-.426,0,.3.3,0,0,1,.426,0" transform="translate(-819.696 -1168.346)" fill="#f4dd92"/><path d="M841.79,1193.469a.3.3,0,1,1-.426,0,.3.3,0,0,1,.426,0" transform="translate(-840.307 -1188.957)" fill="#f4dd92"/><path d="M863.193,1214.872a.3.3,0,1,1-.426,0,.3.3,0,0,1,.426,0" transform="translate(-860.918 -1209.567)" fill="#f4dd92"/><path d="M884.6,1236.274a.3.3,0,1,1-.426,0,.3.3,0,0,1,.426,0" transform="translate(-881.528 -1230.177)" fill="#f4dd92"/><path d="M906,1257.677a.3.3,0,1,1-.426,0,.3.3,0,0,1,.426,0" transform="translate(-902.139 -1250.788)" fill="#f4dd92"/><path d="M927.4,1279.08a.3.3,0,1,1-.426,0,.3.3,0,0,1,.426,0" transform="translate(-922.749 -1271.399)" fill="#f4dd92"/><path d="M948.8,1300.482a.3.3,0,1,1-.426,0,.3.3,0,0,1,.426,0" transform="translate(-943.359 -1292.009)" fill="#f4dd92"/><path d="M970.206,1321.885a.3.3,0,1,1-.426,0,.3.3,0,0,1,.426,0" transform="translate(-963.97 -1312.619)" fill="#f4dd92"/><path d="M991.609,1343.288a.3.3,0,1,1-.426,0,.3.3,0,0,1,.426,0" transform="translate(-984.581 -1333.23)" fill="#f4dd92"/><path d="M1013.011,1364.69a.3.3,0,1,1-.426,0,.3.3,0,0,1,.426,0" transform="translate(-1005.191 -1353.84)" fill="#f4dd92"/><path d="M1034.414,1386.093a.3.3,0,1,1-.426,0,.3.3,0,0,1,.426,0" transform="translate(-1025.801 -1374.451)" fill="#f4dd92"/><path d="M798.984,1193.469a.3.3,0,1,1-.426,0,.3.3,0,0,1,.426,0" transform="translate(-799.085 -1188.957)" fill="#f4dd92"/><path d="M820.387,1214.872a.3.3,0,1,1-.426,0,.3.3,0,0,1,.426,0" transform="translate(-819.696 -1209.567)" fill="#f4dd92"/><path d="M841.79,1236.274a.3.3,0,1,1-.426,0,.3.3,0,0,1,.426,0" transform="translate(-840.307 -1230.177)" fill="#f4dd92"/><path d="M863.193,1257.677a.3.3,0,1,1-.426,0,.3.3,0,0,1,.426,0" transform="translate(-860.918 -1250.788)" fill="#f4dd92"/><path d="M884.6,1279.08a.3.3,0,1,1-.426,0,.3.3,0,0,1,.426,0" transform="translate(-881.528 -1271.399)" fill="#f4dd92"/><path d="M906,1300.482a.3.3,0,1,1-.426,0,.3.3,0,0,1,.426,0" transform="translate(-902.139 -1292.009)" fill="#f4dd92"/><path d="M927.4,1321.885a.3.3,0,1,1-.426,0,.3.3,0,0,1,.426,0" transform="translate(-922.749 -1312.619)" fill="#f4dd92"/><path d="M948.8,1343.288a.3.3,0,1,1-.426,0,.3.3,0,0,1,.426,0" transform="translate(-943.359 -1333.23)" fill="#f4dd92"/><path d="M970.206,1364.69a.3.3,0,1,1-.426,0,.3.3,0,0,1,.426,0" transform="translate(-963.97 -1353.84)" fill="#f4dd92"/><path d="M991.609,1386.093a.3.3,0,1,1-.426,0,.3.3,0,0,1,.426,0" transform="translate(-984.581 -1374.451)" fill="#f4dd92"/><path d="M1013.011,1407.5a.3.3,0,1,1-.426,0,.3.3,0,0,1,.426,0" transform="translate(-1005.191 -1395.062)" fill="#f4dd92"/><path d="M1034.414,1428.9a.3.3,0,1,1-.426,0,.3.3,0,0,1,.426,0" transform="translate(-1025.801 -1415.672)" fill="#f4dd92"/><path d="M798.984,1236.274a.3.3,0,1,1-.426,0,.3.3,0,0,1,.426,0" transform="translate(-799.085 -1230.177)" fill="#f4dd92"/><path d="M820.387,1257.677a.3.3,0,1,1-.426,0,.3.3,0,0,1,.426,0" transform="translate(-819.696 -1250.788)" fill="#f4dd92"/><path d="M841.79,1279.08a.3.3,0,1,1-.426,0,.3.3,0,0,1,.426,0" transform="translate(-840.307 -1271.399)" fill="#f4dd92"/><path d="M863.193,1300.482a.3.3,0,1,1-.426,0,.3.3,0,0,1,.426,0" transform="translate(-860.918 -1292.009)" fill="#f4dd92"/><path d="M884.6,1321.885a.3.3,0,1,1-.426,0,.3.3,0,0,1,.426,0" transform="translate(-881.528 -1312.619)" fill="#f4dd92"/><path d="M906,1343.288a.3.3,0,1,1-.426,0,.3.3,0,0,1,.426,0" transform="translate(-902.139 -1333.23)" fill="#f4dd92"/><path d="M927.4,1364.69a.3.3,0,1,1-.426,0,.3.3,0,0,1,.426,0" transform="translate(-922.749 -1353.84)" fill="#f4dd92"/><path d="M948.8,1386.093a.3.3,0,1,1-.426,0,.3.3,0,0,1,.426,0" transform="translate(-943.359 -1374.451)" fill="#f4dd92"/><path d="M970.206,1407.5a.3.3,0,1,1-.426,0,.3.3,0,0,1,.426,0" transform="translate(-963.97 -1395.062)" fill="#f4dd92"/><path d="M991.609,1428.9a.3.3,0,1,1-.426,0,.3.3,0,0,1,.426,0" transform="translate(-984.581 -1415.672)" fill="#f4dd92"/><path d="M1013.011,1450.3a.3.3,0,1,1-.426,0,.3.3,0,0,1,.426,0" transform="translate(-1005.191 -1436.282)" fill="#f4dd92"/><path d="M1034.414,1471.7a.3.3,0,1,1-.426,0,.3.3,0,0,1,.426,0" transform="translate(-1025.801 -1456.893)" fill="#f4dd92"/><path d="M798.984,1279.08a.3.3,0,1,1-.426,0,.3.3,0,0,1,.426,0" transform="translate(-799.085 -1271.399)" fill="#f4dd92"/><path d="M820.387,1300.482a.3.3,0,1,1-.426,0,.3.3,0,0,1,.426,0" transform="translate(-819.696 -1292.009)" fill="#f4dd92"/><path d="M841.79,1321.885a.3.3,0,1,1-.426,0,.3.3,0,0,1,.426,0" transform="translate(-840.307 -1312.619)" fill="#f4dd92"/><path d="M863.193,1343.288a.3.3,0,1,1-.426,0,.3.3,0,0,1,.426,0" transform="translate(-860.918 -1333.23)" fill="#f4dd92"/><path d="M884.6,1364.69a.3.3,0,1,1-.426,0,.3.3,0,0,1,.426,0" transform="translate(-881.528 -1353.84)" fill="#f4dd92"/><path d="M906,1386.093a.3.3,0,1,1-.426,0,.3.3,0,0,1,.426,0" transform="translate(-902.139 -1374.451)" fill="#f4dd92"/><path d="M927.4,1407.5a.3.3,0,1,1-.426,0,.3.3,0,0,1,.426,0" transform="translate(-922.749 -1395.062)" fill="#f4dd92"/><path d="M948.8,1428.9a.3.3,0,1,1-.426,0,.3.3,0,0,1,.426,0" transform="translate(-943.359 -1415.672)" fill="#f4dd92"/><path d="M970.206,1450.3a.3.3,0,1,1-.426,0,.3.3,0,0,1,.426,0" transform="translate(-963.97 -1436.282)" fill="#f4dd92"/><path d="M991.609,1471.7a.3.3,0,1,1-.426,0,.3.3,0,0,1,.426,0" transform="translate(-984.581 -1456.893)" fill="#f4dd92"/><path d="M1013.011,1493.107a.3.3,0,1,1-.426,0,.3.3,0,0,1,.426,0" transform="translate(-1005.191 -1477.504)" fill="#f4dd92"/><path d="M1034.414,1514.509a.3.3,0,1,1-.426,0,.3.3,0,0,1,.426,0" transform="translate(-1025.801 -1498.114)" fill="#f4dd92"/><path d="M798.984,1321.885a.3.3,0,1,1-.426,0,.3.3,0,0,1,.426,0" transform="translate(-799.085 -1312.619)" fill="#f4dd92"/><path d="M820.387,1343.288a.3.3,0,1,1-.426,0,.3.3,0,0,1,.426,0" transform="translate(-819.696 -1333.23)" fill="#f4dd92"/><path d="M841.79,1364.69a.3.3,0,1,1-.426,0,.3.3,0,0,1,.426,0" transform="translate(-840.307 -1353.84)" fill="#f4dd92"/><path d="M863.193,1386.093a.3.3,0,1,1-.426,0,.3.3,0,0,1,.426,0" transform="translate(-860.918 -1374.451)" fill="#f4dd92"/><path d="M884.6,1407.5a.3.3,0,1,1-.426,0,.3.3,0,0,1,.426,0" transform="translate(-881.528 -1395.062)" fill="#f4dd92"/><path d="M906,1428.9a.3.3,0,1,1-.426,0,.3.3,0,0,1,.426,0" transform="translate(-902.139 -1415.672)" fill="#f4dd92"/><path d="M927.4,1450.3a.3.3,0,1,1-.426,0,.3.3,0,0,1,.426,0" transform="translate(-922.749 -1436.282)" fill="#f4dd92"/><path d="M948.8,1471.7a.3.3,0,1,1-.426,0,.3.3,0,0,1,.426,0" transform="translate(-943.359 -1456.893)" fill="#f4dd92"/><path d="M970.206,1493.107a.3.3,0,1,1-.426,0,.3.3,0,0,1,.426,0" transform="translate(-963.97 -1477.504)" fill="#f4dd92"/><path d="M991.609,1514.509a.3.3,0,1,1-.426,0,.3.3,0,0,1,.426,0" transform="translate(-984.581 -1498.114)" fill="#f4dd92"/><path d="M1013.011,1535.912a.3.3,0,1,1-.426,0,.3.3,0,0,1,.426,0" transform="translate(-1005.191 -1518.724)" fill="#f4dd92"/><path d="M798.984,1364.69a.3.3,0,1,1-.426,0,.3.3,0,0,1,.426,0" transform="translate(-799.085 -1353.84)" fill="#f4dd92"/><path d="M820.387,1386.093a.3.3,0,1,1-.426,0,.3.3,0,0,1,.426,0" transform="translate(-819.696 -1374.451)" fill="#f4dd92"/><path d="M841.79,1407.5a.3.3,0,1,1-.426,0,.3.3,0,0,1,.426,0" transform="translate(-840.307 -1395.062)" fill="#f4dd92"/><path d="M863.193,1428.9a.3.3,0,1,1-.426,0,.3.3,0,0,1,.426,0" transform="translate(-860.918 -1415.672)" fill="#f4dd92"/><path d="M884.6,1450.3a.3.3,0,1,1-.426,0,.3.3,0,0,1,.426,0" transform="translate(-881.528 -1436.282)" fill="#f4dd92"/><path d="M906,1471.7a.3.3,0,1,1-.426,0,.3.3,0,0,1,.426,0" transform="translate(-902.139 -1456.893)" fill="#f4dd92"/><path d="M927.4,1493.107a.3.3,0,1,1-.426,0,.3.3,0,0,1,.426,0" transform="translate(-922.749 -1477.504)" fill="#f4dd92"/><path d="M948.8,1514.509a.3.3,0,1,1-.426,0,.3.3,0,0,1,.426,0" transform="translate(-943.359 -1498.114)" fill="#f4dd92"/><path d="M970.206,1535.912a.3.3,0,1,1-.426,0,.3.3,0,0,1,.426,0" transform="translate(-963.97 -1518.724)" fill="#f4dd92"/><path d="M798.984,1407.5a.3.3,0,1,1-.426,0,.3.3,0,0,1,.426,0" transform="translate(-799.085 -1395.062)" fill="#f4dd92"/><path d="M820.387,1428.9a.3.3,0,1,1-.426,0,.3.3,0,0,1,.426,0" transform="translate(-819.696 -1415.672)" fill="#f4dd92"/><path d="M841.79,1450.3a.3.3,0,1,1-.426,0,.3.3,0,0,1,.426,0" transform="translate(-840.307 -1436.282)" fill="#f4dd92"/><path d="M863.193,1471.7a.3.3,0,1,1-.426,0,.3.3,0,0,1,.426,0" transform="translate(-860.918 -1456.893)" fill="#f4dd92"/><path d="M884.6,1493.107a.3.3,0,1,1-.426,0,.3.3,0,0,1,.426,0" transform="translate(-881.528 -1477.504)" fill="#f4dd92"/><path d="M906,1514.509a.3.3,0,1,1-.426,0,.3.3,0,0,1,.426,0" transform="translate(-902.139 -1498.114)" fill="#f4dd92"/><path d="M927.4,1535.912a.3.3,0,1,1-.426,0,.3.3,0,0,1,.426,0" transform="translate(-922.749 -1518.724)" fill="#f4dd92"/><path d="M798.984,1450.3a.3.3,0,1,1-.426,0,.3.3,0,0,1,.426,0" transform="translate(-799.085 -1436.282)" fill="#f4dd92"/><path d="M820.387,1471.7a.3.3,0,1,1-.426,0,.3.3,0,0,1,.426,0" transform="translate(-819.696 -1456.893)" fill="#f4dd92"/><path d="M841.79,1493.107a.3.3,0,1,1-.426,0,.3.3,0,0,1,.426,0" transform="translate(-840.307 -1477.504)" fill="#f4dd92"/><path d="M863.193,1514.509a.3.3,0,1,1-.426,0,.3.3,0,0,1,.426,0" transform="translate(-860.918 -1498.114)" fill="#f4dd92"/><path d="M884.6,1535.912a.3.3,0,1,1-.426,0,.3.3,0,0,1,.426,0" transform="translate(-881.528 -1518.724)" fill="#f4dd92"/><path d="M798.984,1493.107a.3.3,0,1,1-.426,0,.3.3,0,0,1,.426,0" transform="translate(-799.085 -1477.504)" fill="#f4dd92"/><path d="M820.387,1514.509a.3.3,0,1,1-.426,0,.3.3,0,0,1,.426,0" transform="translate(-819.696 -1498.114)" fill="#f4dd92"/><path d="M841.79,1535.912a.3.3,0,1,1-.426,0,.3.3,0,0,1,.426,0" transform="translate(-840.307 -1518.724)" fill="#f4dd92"/><path d="M798.984,1535.912a.3.3,0,1,1-.426,0,.3.3,0,0,1,.426,0" transform="translate(-799.085 -1518.724)" fill="#f4dd92"/></g></g><g transform="translate(0 0.004)"><g transform="translate(0 0)" clip-path="url(#c)"><path d="M444.451,26.837c-.023-1.064-.383-4.71-2.795-6.341s-6.288-4.687-10.931-4.574c0,0-4.485-.091-5.7,2.446,0,0-2.019-.641-4.1,1.676S417.9,25.909,417.608,27a11.306,11.306,0,0,0,.947,5.842c.592,1.324,1.062,2.54,1.315,3.219a4.519,4.519,0,0,1,1.612-.1,6.694,6.694,0,0,1,1.2.235l-.159-2.21a2.318,2.318,0,0,0,1.037-1.573,17.648,17.648,0,0,0,0-2.786s1.465-6.386,5.139-6.2c0,0,1.274-1.562,2.2-1.268s1.464,1,2.357,1.4,3.767.011,3.936.408,1.516.566,2,.362,1.667.556,2.511,1.621,1.222,2.688,1.605,2.85,1.165-.893,1.143-1.957" transform="translate(-402.052 -15.33)" fill="#f9e9aa"/><path d="M365.973,1776.129a.661.661,0,0,0-.166-.559,1.48,1.48,0,0,1-.349-1.5c.006-.046.012-.092.018-.137.144-1.124.288-2.264.426-3.367l.145-1.15c0-.027.007-.054.011-.083a2.088,2.088,0,0,0,.024-.239c.008-.348-.132-.55-.415-.6a.683.683,0,0,0-.117-.011c-.263,0-.443.178-.493.49-.068.427-.12.863-.171,1.286l0,.013c-.022.182-.043.364-.066.546q-.2,1.564-.4,3.128l-.152,1.2a.56.56,0,0,0,.251.64.748.748,0,0,1,.374,1,1,1,0,0,0,.569,1.193c1.676,1.017,3.334,2.043,5.026,3.092.206.128.411.265.613.4a10.034,10.034,0,0,0,1.354.806c.059.027.118.062.175.1s.106.062.162.089a1.135,1.135,0,0,0,.464.138.443.443,0,0,0,.409-.272c.221-.417-.132-.633-.389-.79l-4.249-2.6-1.271-.779c-.085-.052-.169-.1-.253-.158-.184-.116-.375-.237-.57-.343-.611-.331-1.188-.643-.963-1.511" transform="translate(-350.775 -1703.023)" fill="#3a3d3f"/><path d="M1008.971,1121.9c-.5-2.172-.907-4.123-1.231-5.964l-.011-.063c-.059-.345-.147-.681-.526-.681a.737.737,0,0,0-.119.01.5.5,0,0,0-.345.191.877.877,0,0,0-.047.65c.087.446.17.9.251,1.34.188,1.029.383,2.094.643,3.125a70.556,70.556,0,0,1,1.457,9.007l.059.5a3.1,3.1,0,0,0,.129.669.5.5,0,0,0,.476.365.654.654,0,0,0,.168-.023.474.474,0,0,0,.371-.465c-.137-.954-.251-1.909-.362-2.833a53.766,53.766,0,0,0-.914-5.833" transform="translate(-969.396 -1073.921)" fill="#3a3d3f"/><path d="M220.209,1217.429a9.722,9.722,0,0,0-1.093-.786.746.746,0,0,0-.389-.132.447.447,0,0,0-.385.226c-.191.291-.112.549.241.788a18.565,18.565,0,0,1,5.213,5.983,15.1,15.1,0,0,1,1.552,4.208v.006q.068.264.137.527c.016.06.029.121.041.183a2.619,2.619,0,0,0,.062.255c.089.282.254.426.491.426a.656.656,0,0,0,.1-.008c.271-.042.406-.284.4-.72v0c-.063-.253-.125-.513-.185-.765a15.834,15.834,0,0,0-1.243-3.774,20.987,20.987,0,0,0-4.95-6.412" transform="translate(-210.164 -1171.485)" fill="#3a3d3f"/><path d="M165.7,1962.051c-.111,0-.231-.006-.378-.006l-.292,0h-.321a12.879,12.879,0,0,0-4.121.7,2.809,2.809,0,0,0-.638.3.478.478,0,0,0,.269.877l.053,0a1.433,1.433,0,0,0,.378-.088,12.065,12.065,0,0,1,4.213-.746c.119,0,.239,0,.358,0l.125,0a2.222,2.222,0,0,0,.39-.03c.344-.061.518-.242.5-.525a.5.5,0,0,0-.54-.486" transform="translate(-153.818 -1889.424)" fill="#3a3d3f"/><path d="M75.279,744.6a1.543,1.543,0,0,0-.575-1.054.633.633,0,0,1-.246-.53c-.02-.907-.477-1.436-1.255-1.45H73.17a2.2,2.2,0,0,0-.382.036,1.247,1.247,0,0,1-.215.022h-.014a.634.634,0,0,1-.5-.283,1.762,1.762,0,0,0-1.337-.584h-.04a2.4,2.4,0,0,0-1,.224,14.572,14.572,0,0,0-2.025,1.219l-.009.006c-.142.1-.3.206-.466.314l-.118.079a31.716,31.716,0,0,1-3.73,2.241c-.039.019-.08.041-.107.055a.906.906,0,0,1-.428.14h-.06l.01-.06a3.228,3.228,0,0,1,.268-.787,4.752,4.752,0,0,0,.2-.49,3.788,3.788,0,0,0,.258-1.736,2.037,2.037,0,0,0-1.8-1.664l-.066,0h-.02a.662.662,0,0,0-.694.581,16.267,16.267,0,0,1-2.929,5.683,9,9,0,0,0-1.907,6.31,2.251,2.251,0,0,1-.077,1l-.5.93a.638.638,0,0,0-.082.126.824.824,0,0,0-.386-.113c-.333,0-.6.29-.845.913l-.023.058c-.108.281-.2.523-.565.573-.228.031-.307.232-.384.426-.015.039-.031.079-.048.117-.611,1.369-1.243,2.785-2,4.146a6.263,6.263,0,0,0-.665-1.849c-.053-.11-.114-.234-.169-.354a16.27,16.27,0,0,1-.972-2.505,19.655,19.655,0,0,0-1.21-2.981c-.106-.225-.216-.458-.323-.691a4.079,4.079,0,0,0-2.342-2.01c-.574-.239-1.161-.474-1.729-.7-1.308-.523-2.661-1.065-3.945-1.691a7.933,7.933,0,0,1-4.007-3.708,4.3,4.3,0,0,0-1.278-1.439.77.77,0,0,0-.473-.2c-.266,0-.473.212-.569.581l-.007.028a1.207,1.207,0,0,0-.059.424,5.274,5.274,0,0,1-1.015,3.254c-.193.334-.392.679-.56,1.029a.255.255,0,0,1-.084.079l-.052.039-.551-.45q-.607-.5-1.211-.99a71.871,71.871,0,0,0-6.38-4.652,18.66,18.66,0,0,0-1.974-1.073c-.239-.117-.482-.238-.724-.362a.932.932,0,0,0,.034-.276L20.792,737a.715.715,0,0,0-.565-.751H20.2a.4.4,0,0,0-.288.134.865.865,0,0,0-.218.609l.079,3.264a1.11,1.11,0,0,0-.007.227,1.043,1.043,0,0,0-.788.848c-.082.35-.175.7-.265,1.041l-.02.077c-.125.473-.275.871-.841.956-.336.051-.47.375-.588.661-.179.434-.321.8-.435,1.089-.593,1.516-.593,1.516-2.146,2.426l0,0c-.253.148-.54.316-.879.52a56.942,56.942,0,0,1-5.4,2.741l-.315.146a18.479,18.479,0,0,0-2.03,1.1,4.223,4.223,0,0,0-1.815,2.57A51.02,51.02,0,0,0,2.885,762.4c-.1.844-.211,1.718-.331,2.575-.373,2.667-.734,5.381-1.082,8.006l0,.023c-.426,3.208-.867,6.526-1.334,9.784a8.762,8.762,0,0,0,.359,4.551,6.279,6.279,0,0,0,1.452,2.094,16.949,16.949,0,0,0,1.99,1.684c.4.307.82.624,1.214.96a20.454,20.454,0,0,0,2.936,1.967c.394.232.8.47,1.193.717l-.424,4.16a.539.539,0,0,0,1.077.056l.363-3.559a35.616,35.616,0,0,0,3.793,1.965c1.04.487,2.116.99,3.129,1.569a1.509,1.509,0,0,0,.753.21,1.619,1.619,0,0,0,.911-.3.688.688,0,0,1,.378-.145.622.622,0,0,1,.379.163,2.117,2.117,0,0,0,.626.336,1.026,1.026,0,0,0,.32.054.755.755,0,0,0,.441-.135.9.9,0,0,0,.259.461,20.724,20.724,0,0,0,5.411,4.533c.246.118.5.233.742.345l-.028.01.092.031-.008-.016c.578.264,1.174.537,1.729.86a3.892,3.892,0,0,0,2.034.5,12.847,12.847,0,0,0,1.512-.121l.079-.01A1.568,1.568,0,0,0,34.078,805a3.118,3.118,0,0,1,1.4-1.291,1.614,1.614,0,0,0,.9-1.865.51.51,0,0,1,.191-.573,2.04,2.04,0,0,0,.877-2.394l-.008-.027.028-.006a2.189,2.189,0,0,0,1.853-1.629,1.764,1.764,0,0,0-.339-1.71.543.543,0,0,0,.067-.105l5.736-11.867a87.022,87.022,0,0,0,.637,10.45c.14,1.058.222,2.142.3,3.19.04.522.08,1.063.128,1.6.026.288.069.77.532.77a.792.792,0,0,0,.109-.008c.519-.073.478-.473.442-.827,0-.041-.008-.083-.012-.124-.112-1.357-.26-2.735-.4-4.067l-.018,0,.018-.006c-.265-2.469-.538-5.022-.6-7.549-.011-.478-.026-.965-.04-1.436v-.013c-.04-1.36-.081-2.753-.052-4.143l4.632-9.582a.544.544,0,0,0-.252-.726l-2.924-1.418V769.6c0-.027,0-.053,0-.08a89.675,89.675,0,0,0,.04-10.647c-.018-.266-.018-.538-.018-.8,0-.158,0-.32,0-.481,0-.029,0-.058,0-.088v-.013c0-.363-.008-.775-.521-.775h-.022a.488.488,0,0,0-.357.135,1,1,0,0,0-.144.711l.006.2c.045,1.555.091,3.164.161,4.745a55.1,55.1,0,0,1-.137,5.63l0,.029q-.028.483-.055.966l-2.707-1.313h0l-5.065-2.456a27.594,27.594,0,0,0-.881-4.289,47.193,47.193,0,0,0-1.777-4.812c-.105-.24-.249-.568-.551-.568a.576.576,0,0,0-.225.052c-.493.212-.31.65-.176.97a32.64,32.64,0,0,1,2.345,7.368c.036.224.068.453.1.678l.006.039-5.288-2.564a1.325,1.325,0,0,0,.052-.425q0-.8,0-1.593v-.627h.093V758.9c0-.517,0-1.052,0-1.578,0-.331-.061-.711-.517-.714h0c-.453,0-.5.37-.511.716-.033,1.216-.061,2.452-.088,3.647l-.018.785L29.463,761a1.133,1.133,0,0,0-.064-.215,1.626,1.626,0,0,0-.158-.285,36.442,36.442,0,0,1-2.516-4.829c-.448-.976-.91-1.985-1.419-2.951-.008-.016-.018-.032-.027-.048a.221.221,0,0,1-.049-.18l.5.474.02.019c.436.414.887.842,1.329,1.27.183.177.361.363.534.542.1.1.211.219.319.329a1.321,1.321,0,0,0,.869.493c.315,0,.594-.231.879-.727.1-.174.2-.353.3-.543l0-.006.134-.252c.119.182.239.358.355.53a13.657,13.657,0,0,1,.78,1.24c.168.315.339.456.555.456a.816.816,0,0,0,.4-.128,3.5,3.5,0,0,1,1.763-.511l.116,0h.057a.953.953,0,0,0,.994-.87,14.448,14.448,0,0,0,.284-1.968,1.694,1.694,0,0,1,.552.722l0,.005c.025.051.052.1.079.156.1.183.256.427.513.427a.537.537,0,0,0,.23-.058.492.492,0,0,0,.273-.289.683.683,0,0,0-.077-.525,10.643,10.643,0,0,0-3.653-4.07.644.644,0,0,0-.342-.112.472.472,0,0,0-.384.206.5.5,0,0,0,.116.719,1.684,1.684,0,0,0,.186.148c.04.029.081.059.119.09a5.117,5.117,0,0,0,.443.31c.389.253.79.514.861.931a6.939,6.939,0,0,1-.178,2.854.323.323,0,0,1-.343.282l-.05,0c-.052,0-.105-.006-.158-.006a2.97,2.97,0,0,0-1.22.314.569.569,0,0,1-.235.062c-.149,0-.255-.1-.367-.257a7.346,7.346,0,0,1-.906-1.756.873.873,0,0,1,.1-.714L31,752.2a8.9,8.9,0,0,0,.635-1.733c.079-.366.126-.766-.325-.889a.653.653,0,0,0-.171-.025c-.331,0-.425.33-.507.622l-.007.023a19.173,19.173,0,0,1-1.574,3.594l0,0q-.156.3-.312.6l-.144-.125c-.1-.084-.183-.157-.259-.236-.52-.534-1.049-1.066-1.561-1.582-1.267-1.275-2.577-2.594-3.782-3.965a15.912,15.912,0,0,1-1.609-2.354c-.232-.387-.472-.788-.723-1.169l-.021-.032c-.307-.468-.623-.951-1.335-.978l.736-2.355c.25.125.5.245.751.362a15.793,15.793,0,0,1,1.614.839,58.438,58.438,0,0,1,8.479,6.318,1.144,1.144,0,0,0,.772.289,1.132,1.132,0,0,0,1.009-.574q.129-.24.256-.482a19.942,19.942,0,0,1,1-1.751,3.667,3.667,0,0,0,.454-2.066,1.571,1.571,0,0,1,.692,1.046,14.793,14.793,0,0,0,1.388,3.371l.089.175c.135.264.3.4.5.4a.548.548,0,0,0,.2-.039c.32-.122.411-.386.27-.784-.052-.146-.106-.289-.169-.453l0-.01-.076-.2a.82.82,0,0,1,.479.282,1.747,1.747,0,0,0,.134.123,23.946,23.946,0,0,1,3.949,4.013c.255.329.255.536,0,.791-.208.207-.421.423-.61.614q-.237.241-.475.48c-.253.254-.362.468-.331.656s.2.352.513.508c.214.105.427.218.634.327.352.186.716.378,1.088.539a.926.926,0,0,1,.608,1.023c-.084,3.3-.268,6.047-.577,8.642l-.01.086c-.012.1-.024.2-.033.3a.771.771,0,0,0,.119.579.5.5,0,0,0,.358.159l.056,0c.414,0,.5-.354.529-.662q.063-.668.128-1.337v-.008c.077-.8.156-1.617.229-2.426.115-1.28.148-2.584.181-3.845.018-.716.038-1.456.071-2.185a.912.912,0,0,0-.582-.934c-.436-.219-.864-.446-1.319-.686l-.568-.3c.126-.137.244-.269.359-.4l0,0c.26-.289.5-.562.763-.814a.853.853,0,0,0,.031-1.364c-.414-.458-.81-.94-1.229-1.45-.175-.213-.355-.433-.546-.662a8.208,8.208,0,0,1,1.705.618c.291.132.566.256.855.361,1.551.565,3.214,1.427,3.783,3.541a7.338,7.338,0,0,0,.386,1.016,7.063,7.063,0,0,1,.4,1.08,14.729,14.729,0,0,0,.982,2.528c.254.549.516,1.117.725,1.7.115.319.261.462.471.462a1.1,1.1,0,0,0,.549-.216l-.409.881c-.384.828-.782,1.685-1.176,2.526-.027.058-.059.117-.093.18a.86.86,0,0,0-.169.619.493.493,0,0,0,.279.28.657.657,0,0,0,.287.077c.319,0,.472-.33.607-.622l.05-.106c.606-1.26,1.214-2.531,1.8-3.759l.017-.035q.658-1.374,1.316-2.748c.018-.037.034-.076.052-.116a1.018,1.018,0,0,1,.306-.447,15.444,15.444,0,0,0,8.349,3.5,2.558,2.558,0,0,1-.057.925c-.019.1-.039.2-.053.3a69.423,69.423,0,0,1-3.639,13.413,7.836,7.836,0,0,1-4.28,4.931,5.557,5.557,0,0,1-2.23.484,5.106,5.106,0,0,1-3.613-1.527l-.089-.088a4.252,4.252,0,0,0-.584-.51.557.557,0,0,0-.31-.1.538.538,0,0,0-.417.215.5.5,0,0,0,.049.726,6.948,6.948,0,0,0,4.91,2.35,6.343,6.343,0,0,0,1.911-.309,7.681,7.681,0,0,0,4.224-3.091,24.009,24.009,0,0,0,2.828-6.934c.157-.551.32-1.109.479-1.648a45.781,45.781,0,0,0,1.906-8.463c.009-.1.024-.195.038-.291a1.28,1.28,0,0,0-.3-1.287c-.131-.123-.045-.328.04-.527a1.844,1.844,0,0,0,.086-.231c.148-.557.2-.927.051-1.171a.871.871,0,0,0-.51-.327c.005-.021.01-.043.014-.065l.063-.307a11.471,11.471,0,0,1,1.852-1.212c.363-.205.739-.418,1.093-.649a38.208,38.208,0,0,0,6.757-5.819l.049-.052a7.21,7.21,0,0,0,1.7-2.365c.017-.046.037-.092.059-.143a.715.715,0,0,0,.087-.561c-.267-.608.052-.962.421-1.371l.051-.057a1.415,1.415,0,0,0,.393-1.047M33.072,763.955l1.738.842,7.755,3.76-.5,1.039-9.492-4.6ZM19.415,745.081a2.514,2.514,0,0,1,.308.365,70.389,70.389,0,0,1,6.335,11.36,19.116,19.116,0,0,0,1.275,2.432c.194.33.391.666.58,1.008l-1.536-.745a.544.544,0,0,0-.726.252l-2.061,4.224a.91.91,0,0,0-.094-.221c-.383-.663-.779-1.33-1.161-1.974l-.174-.294q-.269-.453-.536-.908c-.5-.845-1.011-1.718-1.54-2.563-.239-.382-.2-.59.171-.855.454-.326.9-.674,1.335-1.011.28-.218.569-.443.86-.661a.862.862,0,0,0,.434-.827c-.049-.356-.315-.485-.631-.605l-1.058-.405-.005,0c-.948-.364-1.929-.74-2.9-1.095a.927.927,0,0,1-.662-.74c-.139-.611-.3-1.227-.457-1.823l-.005-.02q-.093-.354-.185-.708l-.013-.05c-.017-.066-.034-.134-.057-.2-.11-.316-.255-.609-.569-.609a.622.622,0,0,0-.175.027c-.449.132-.405.524-.3.89.053.192.117.386.178.573a6.2,6.2,0,0,1,.309,1.216,2.924,2.924,0,0,0,2.518,2.8,10.53,10.53,0,0,1,1.75.624c.272.115.553.234.849.348l-.721.566-.022.017c-.527.414-1.025.8-1.513,1.194-.627.5-.679.772-.277,1.45.875,1.478,1.792,3.019,2.6,4.379l.908,1.526.034.057c.043.073.087.148.137.217a.624.624,0,0,0,.482.313.481.481,0,0,0,.209-.052l-7.889,16.17a.544.544,0,1,0,.978.474l9.993-20.481,5.7,2.765-.741,1.528a.543.543,0,0,0,.252.726l10.471,5.077a.543.543,0,0,0,.726-.252l.741-1.528,5.7,2.765L38.093,794.87c-.517-.263-1.056-.5-1.58-.72-.252-.109-.537-.231-.809-.353a6.191,6.191,0,0,1-.681-.342l.018-.051a8.051,8.051,0,0,0,1.117.086,5.169,5.169,0,0,0,.833-.064,2.25,2.25,0,0,0,1.847-1.673c.2-.576-.173-.839-.524-1a25.973,25.973,0,0,0-5.5-1.92,5.866,5.866,0,0,0-1.259-.142,5.065,5.065,0,0,0-1.32.179,6.343,6.343,0,0,0-.926.36c-.1.046-.22.1-.33.146-.863.367-1.733.751-2.586,1.141a1.172,1.172,0,0,0-.637.553.465.465,0,0,0,.032.374.5.5,0,0,0,.459.327,1.547,1.547,0,0,0,.725-.271c.087-.05.17-.1.251-.136.364-.175.736-.349,1.1-.515.5-.224,1.006-.443,1.512-.649.085-.035.172-.073.256-.109l.011,0a2.979,2.979,0,0,1,1.167-.331,3.971,3.971,0,0,1,.637.059A19.445,19.445,0,0,1,37,791.38c.055.025.112.046.167.066a.756.756,0,0,1,.386.237l.01.013-.007.014a1.355,1.355,0,0,1-1.279.7,2.473,2.473,0,0,1-.48-.05c-.561-.112-1.126-.245-1.671-.373l-.136-.032a2.586,2.586,0,0,0-.593-.084,1.373,1.373,0,0,0-.3.032,1,1,0,0,0-.8.951c-.065.461.221.644.6.835,1.277.643,2.685,1.287,4.432,2.026a3.788,3.788,0,0,1,.48.257.769.769,0,0,1,.448.821.9.9,0,0,1-.691.814c-.144.034-.294.055-.438.076a4.067,4.067,0,0,0-.572.111.75.75,0,0,0-.531.413.771.771,0,0,0,.132.678c.426.678.359,1.045-.268,1.458-.567.373-1.042.781-.641,1.654a.491.491,0,0,1,.023.4,1.077,1.077,0,0,1-.613.5,2.112,2.112,0,0,0-1.327,1.232.7.7,0,0,1-.543.449l-.234.037a8.32,8.32,0,0,1-1.287.137,2.815,2.815,0,0,1-1.285-.281c-.543-.271-1.095-.541-1.628-.8l-.034-.016c-.565-.277-1.149-.563-1.724-.85a16.319,16.319,0,0,1-3.718-3.153l0,0c-.216-.222-.42-.432-.615-.628-.032-.032-.064-.067-.092-.1l-.049-.052a.861.861,0,0,0-.559-.323.444.444,0,0,0-.189.044,17,17,0,0,1,3.062-6.423l.063-.079c.155-.193.316-.393.284-.6a.5.5,0,0,0-.245-.327.55.55,0,0,0-.305-.107c-.258,0-.445.244-.61.459l-.052.067a17.547,17.547,0,0,0-2.837,5.443c-.075.234-.16.471-.242.7q-.053.149-.106.3c-1.016-.406-1-.447-.708-1.451a19.678,19.678,0,0,1,2.782-5.255q.229-.343.456-.686c.118-.179.235-.262.369-.262a.522.522,0,0,1,.286.106,1.7,1.7,0,0,0,.232.123c.038.018.076.036.113.055a1.188,1.188,0,0,0,.508.161.456.456,0,0,0,.421-.282c.234-.445-.142-.651-.444-.816-.25-.137-.454-.264-.62-.368a1.515,1.515,0,0,0-.688-.314c-.307,0-.562.329-1.211,1.271l-.09.13a20.318,20.318,0,0,0-3,5.477c-.03.1-.061.195-.092.294a5.986,5.986,0,0,0-.313,1.326c-.031.382-.157.459-.35.459a1.9,1.9,0,0,1-.337-.044,4.1,4.1,0,0,1-1.357-.625,7.068,7.068,0,0,0-.748-.423c-.389-.18-.791-.352-1.179-.518a19.156,19.156,0,0,1-2.644-1.294c-.593-.37-1.2-.737-1.793-1.091l0,0a37.111,37.111,0,0,1-5.752-3.971c-.212-.19-.432-.376-.646-.556-.381-.322-.776-.654-1.127-1.013a5.4,5.4,0,0,1-1.4-4.666c.234-1.915.505-3.858.768-5.738v-.005c.13-.929.264-1.89.393-2.842q.364-2.687.725-5.373l.02-.152c.485-3.605.987-7.333,1.494-11.018a32.775,32.775,0,0,1,.824-3.764l.047-.18a3.026,3.026,0,0,1,1.746-1.992c.594-.291,1.195-.581,1.778-.863,1.272-.614,2.587-1.249,3.862-1.91.688-.357,1.363-.766,2.016-1.162.445-.27.9-.549,1.366-.809a3.024,3.024,0,0,0,1.417-1.691c.069-.194.15-.388.229-.575.093-.22.189-.448.265-.679.155-.47.359-.783.855-.783.037,0,.075,0,.115.005a1.149,1.149,0,0,0,.439.835M61.573,760.2a3.014,3.014,0,0,1-.582-.088,14.055,14.055,0,0,1-5.5-2.314c-.862-.63-.875-.693-.289-1.653a15,15,0,0,0,6.977,3.088c-.146.731-.226.967-.6.967m12.394-15.094c-.033.037-.068.076-.1.116a4.36,4.36,0,0,1-1.493,1.1l-.149.081a18.5,18.5,0,0,0-2.55,1.786c-.289.227-.587.463-.889.69A8.368,8.368,0,0,1,66,750.35a14.04,14.04,0,0,0-3.5,1.577,4.488,4.488,0,0,0-1.607,1.78c-.2.368-.148.646.166.826a.539.539,0,0,0,.26.076h.008a.5.5,0,0,0,.436-.29c.89-1.722,2.56-2.271,4.175-2.8l.015,0c.185-.061.376-.123.567-.189a8.491,8.491,0,0,0,2.418-1.223c1.086-.814,2.27-1.688,3.621-2.67l.04-.029a.905.905,0,0,1,.556-.234h.013a.763.763,0,0,1,.079.006l.055.007-.011.054a2.733,2.733,0,0,1-.768,1.426c-.4.4-.8.823-1.183,1.229l-.006.006a29.42,29.42,0,0,1-3.792,3.544,40.622,40.622,0,0,1-5.283,3.447,1.628,1.628,0,0,0-.552.471.464.464,0,0,0-.1.132l-.012.018-.016.025.009,0a1.013,1.013,0,0,0-.046.166l-.053.264a11.749,11.749,0,0,1-5.248-2.36.436.436,0,0,0,.063-.088l.425-.79a2.383,2.383,0,0,0,.307-.574.708.708,0,0,0,.056-.176,2.355,2.355,0,0,0,.051-.929,8.252,8.252,0,0,1,1.905-6.176,14.9,14.9,0,0,0,2.567-4.661c.012-.041.022-.084.034-.129a.926.926,0,0,1,.23-.489l.019-.018.026.005c.6.119.53.663.493.956a6.432,6.432,0,0,1-.606,1.815c-.049.109-.1.217-.145.326-.016.037-.028.064-.037.084l-.009.021a3.337,3.337,0,0,0-.295.884v.008c-.043.312-.08.581.184.8a.5.5,0,0,0,.317.123h.01a1.189,1.189,0,0,0,.428-.115l.063-.025a29.448,29.448,0,0,0,5.4-3.022c.379-.25.766-.5,1.141-.735l.033-.021c.3-.189.606-.385.91-.583a1.308,1.308,0,0,1,.747-.208h.036c.063,0,.128.005.2.013l.07.006c.151.011.281.021.338.192s-.051.252-.166.337c-.018.014-.043.032-.066.051a30.1,30.1,0,0,1-3.852,2.669c-.465.277-.923.579-1.365.871l-.02.013-.426.281c-.369.241-.458.5-.272.8a.479.479,0,0,0,.4.256h.008a.866.866,0,0,0,.475-.184c.688-.479,1.412-.929,2.112-1.363a27.75,27.75,0,0,0,3.657-2.557,2.776,2.776,0,0,1,1.137-.6l.015,0a1.023,1.023,0,0,1,.25-.044h.008a.291.291,0,0,1,.242.125c.122.164.042.339-.028.494l-.016.035a.678.678,0,0,1-.314.381A19.941,19.941,0,0,0,69.54,745.8c-.675.487-1.373.99-2.1,1.428a9.594,9.594,0,0,1-.92.483c-.4.186-.613.379-.446.767a.456.456,0,0,0,.428.312h.011a1.1,1.1,0,0,0,.432-.111,11.817,11.817,0,0,0,2.459-1.476,21.154,21.154,0,0,1,4.057-2.583c.043-.02.088-.046.132-.072a.659.659,0,0,1,.3-.12h0a.263.263,0,0,1,.216.15c.133.213-.005.367-.151.53" transform="translate(0 -708.995)" fill="#3a3d3f"/><path d="M795.426,678.03a.688.688,0,0,0-.018-.68.838.838,0,0,0-.724-.349h-.008c-.4,0-.814.023-1.21.044-.307.016-.624.032-.936.04a.075.075,0,0,0-.048-.016h-.033l-.018.018h-.013c-.858.018-1.554.045-2.191.085a.682.682,0,0,0-.569,1.1,7.266,7.266,0,0,0,2.074,2.251,1.792,1.792,0,0,0,1,.346,1.726,1.726,0,0,0,1.189-.543,6.642,6.642,0,0,0,1.506-2.293m-2.14,1.529a.873.873,0,0,1-.535.314.377.377,0,0,1-.137-.027,4.153,4.153,0,0,1-1.789-1.681l3.454-.07a5.428,5.428,0,0,1-.992,1.463" transform="translate(-760.302 -651.943)" fill="#3a3d3f"/><path d="M853.926,800.787c-.067,0-.134,0-.2.008l-.036,0-.093,0c-.286.009-.677.022-.676.495,0,.521.462.522.636.523.059,0,.118,0,.175,0,.286-.011.763-.03.743-.553-.016-.423-.322-.473-.551-.474" transform="translate(-821.354 -771.148)" fill="#3a3d3f"/><path d="M907.765,554.328a3.38,3.38,0,0,0-1.068-1.292.319.319,0,0,0-.2-.069.339.339,0,0,0-.045,0,.48.48,0,0,0-.289.164.443.443,0,0,0-.024.575c.124.177.257.343.4.52l.133.167-.047.04a1.006,1.006,0,0,1-.234.138,1.253,1.253,0,0,0-.21.117.447.447,0,0,0-.173.59.426.426,0,0,0,.394.257.541.541,0,0,0,.069,0,.565.565,0,0,0,.061-.011,1.965,1.965,0,0,0,1.17-.773.481.481,0,0,0,.065-.421" transform="translate(-872.425 -532.501)" fill="#3a3d3f"/><path d="M958.525,462.975a.793.793,0,1,0-.916-.764.849.849,0,0,0,.916.764" transform="translate(-922.165 -444.325)" fill="#3a3d3f"/><path d="M692.387,467.623h-.012a.843.843,0,1,0,.184,1.649h.012a.843.843,0,1,0-.184-1.649" transform="translate(-665.882 -450.309)" fill="#3a3d3f"/><path d="M960.781,381.349a.534.534,0,0,0,.649.389,2.282,2.282,0,0,1,1.32.089.583.583,0,0,0,.325.04.526.526,0,0,0,.367-.271.518.518,0,0,0-.192-.725,2.739,2.739,0,0,0-1.743-.244,1.3,1.3,0,0,0-.406.132.538.538,0,0,0-.322.579v.006Z" transform="translate(-925.211 -366.5)" fill="#3a3d3f"/><path d="M665.944,385.188a.547.547,0,0,0,.7.3,4.028,4.028,0,0,1,2.538-.257.541.541,0,0,0,.152-1.072,5.068,5.068,0,0,0-3.086.322.55.55,0,0,0-.3.7" transform="translate(-641.259 -369.841)" fill="#3a3d3f"/><path d="M389.6,8.011A7.475,7.475,0,0,0,386.1,3.7c-.328-.183-.657-.378-.978-.568a16.227,16.227,0,0,0-2.579-1.328l-.308-.114A20.253,20.253,0,0,0,375.259,0h-.03a6.371,6.371,0,0,0-5.291,2.15.836.836,0,0,1-.727.3,5.085,5.085,0,0,0-3.63,1.551,8.683,8.683,0,0,0-2.052,3.016l-.005.013c-.321.81-.652,1.649-1.043,2.442a8.761,8.761,0,0,0-.13,7.159,26.724,26.724,0,0,0,1.145,2.629c.258.54.526,1.1.764,1.657a.916.916,0,0,0,.1.176,3.734,3.734,0,0,0-.57,2.008,4.384,4.384,0,0,0,1.136,2.941,6.3,6.3,0,0,0,3.027,1.8,2.074,2.074,0,0,0,.441.064.926.926,0,0,0,.376-.078.451.451,0,0,0,.256-.511.573.573,0,0,0-.428-.478c-.149-.046-.3-.087-.45-.126-.225-.059-.457-.121-.676-.2A4.149,4.149,0,0,1,365.4,24.9a3.264,3.264,0,0,1-.493-2.357c.145-.839.534-1.283,1.125-1.283a1.982,1.982,0,0,1,.951.3,1.522,1.522,0,0,0,.228.108.439.439,0,0,0,.4.238.674.674,0,0,0,.131-.014c.412-.082.416-.472.382-.7l-.023-.152a13.606,13.606,0,0,0-.3-1.572,1.166,1.166,0,0,1,.364-1.264,2.4,2.4,0,0,0,.726-2.189,8.749,8.749,0,0,1,1.883-5.957A3.322,3.322,0,0,1,373.3,8.523a.656.656,0,0,0,.5-.232.523.523,0,0,0,.076-.447c-.078-.339-.347-.367-.593-.367l-.132,0h-.036c-1.779.039-2.777,1.271-3.573,2.424a10.777,10.777,0,0,0-1.784,5.4c.006.1.007.194.008.275a1.613,1.613,0,0,0,.038.415,1.537,1.537,0,0,1-.5,1.6,2.111,2.111,0,0,0-.529,2.178c.053.174.1.354.133.534a2.75,2.75,0,0,0-.935-.18,1.824,1.824,0,0,0-.221.013,1.545,1.545,0,0,0-.359.09l-.083.034c-.049.022-.1.046-.143.072-.333-.77-.653-1.462-.975-2.11a18.8,18.8,0,0,1-.866-2.1,7.788,7.788,0,0,1,.18-6.3c.225-.46.423-.942.615-1.407a11.509,11.509,0,0,1,1.531-2.89,4.5,4.5,0,0,1,3.663-2.018c.06,0,.122,0,.183,0h.051a1.469,1.469,0,0,0,1.127-.565,5.4,5.4,0,0,1,4.424-1.888c.217,0,.443.008.673.024a21.01,21.01,0,0,1,5.625,1.459,25.614,25.614,0,0,1,3.884,1.921l.069.039a7.2,7.2,0,0,1,3.708,5.93c.035.329.041.667.047.994,0,.122,0,.244.008.366,0,.01-.016.031-.04.063s-.034.045-.057.078a6.356,6.356,0,0,0-2-2.767,3.147,3.147,0,0,0-2.117-.753,5.082,5.082,0,0,0-.763.062c-.353.054-.531.247-.5.544s.224.448.582.473l.026,0c.022,0,.046,0,.069,0a.316.316,0,0,0,.044,0,3.435,3.435,0,0,1,.458-.032c.785,0,1.816.239,2.836,2.107a10.293,10.293,0,0,1,.968,5.04c0,.116,0,.235,0,.35v.008c0,.175-.006.355,0,.534,0,.026-.006.051-.007.076q-.024.377-.049.753c-.048.727-.1,1.478-.122,2.22a20.925,20.925,0,0,1-.764,5.434,11.789,11.789,0,0,1-5.031,6.762,3.8,3.8,0,0,1-2.08.58,7.317,7.317,0,0,1-2.052-.344,20.08,20.08,0,0,1-4.582-2.223c-.213-.127-.454-.271-.689-.409-.073-.043-.145-.09-.216-.136a3.755,3.755,0,0,0-.34-.2.856.856,0,0,0-.381-.106.492.492,0,0,0-.438.266.5.5,0,0,0,.231.729l.478.3a19.777,19.777,0,0,0,6.624,3.051c.263.05.532.082.784.109.138.015.276.02.41.025h0l.163.007h0a7.06,7.06,0,0,0,5.031-2.628,12.946,12.946,0,0,0,3.047-5.131,20.965,20.965,0,0,0,.906-5.835c.018-.523.055-1.052.092-1.564v-.014c.017-.234.036-.5.052-.758l.006-.1c.009-.147.018-.3.025-.447a.554.554,0,0,0,.008-.06c.053-.691.13-1.393.2-2.072.279-2.551.567-5.189-.326-7.776" transform="translate(-348.271 -0.003)" fill="#3a3d3f"/><path d="M806.653,150.741a6.338,6.338,0,0,0-2.813-2.3,1.641,1.641,0,0,0-.613-.147.959.959,0,0,0-.193.019.52.52,0,0,0-.463.512.472.472,0,0,0,.388.509,4.352,4.352,0,0,1,2.985,2.381.48.48,0,0,0,.425.283.521.521,0,0,0,.159-.026.531.531,0,0,0,.373-.583,1.257,1.257,0,0,0-.248-.65" transform="translate(-772.865 -142.807)" fill="#3a3d3f"/><path d="M717.906,169.335h-.022c-.237,0-.561.043-.635.417a.48.48,0,0,0,.375.582,5.28,5.28,0,0,1,2.635,1.359.427.427,0,0,0,.314.136.527.527,0,0,0,.329-.125.494.494,0,0,0,.1-.681,2.5,2.5,0,0,0-.757-.731,6,6,0,0,0-2.343-.956" transform="translate(-690.692 -163.067)" fill="#3a3d3f"/><path d="M1344.733,346.89h.006l2.5.231a.509.509,0,0,1-.088,1.015h-.006l-2.5-.231a.509.509,0,0,1,.088-1.015" transform="translate(-1294.43 -334.049)" fill="#3a3d3f"/><path d="M1330.379,231.256l2.448-1.077a.509.509,0,0,1,.41.932l-2.448,1.077a.509.509,0,1,1-.41-.932" transform="translate(-1280.845 -221.618)" fill="#3a3d3f"/><path d="M1275.166,137.776l1.521-1.993a.509.509,0,1,1,.81.618l-1.521,1.993a.509.509,0,1,1-.81-.618" transform="translate(-1227.868 -130.564)" fill="#3a3d3f"/></g></g></g></g></svg>