<svg xmlns="http://www.w3.org/2000/svg" xmlns:xlink="http://www.w3.org/1999/xlink" width="287.536" height="235.794" viewBox="0 0 287.536 235.794">
  <defs>
    <clipPath id="clip-path">
      <rect id="長方形_49886" data-name="長方形 49886" width="62.371" height="62.145" fill="none"/>
    </clipPath>
  </defs>
  <g id="アートワーク_1" data-name="アートワーク 1" transform="translate(6)">
    <g id="グループ_259035" data-name="グループ 259035" transform="translate(0 0)">
      <g id="グループ_259032" data-name="グループ 259032" transform="translate(0.869 83.875)">
        <g id="グループ_259031" data-name="グループ 259031">
          <path id="パス_32112" data-name="パス 32112" d="M428.425,56.565a1.929,1.929,0,0,1,1.906-1.935H436.4V42.414h-4.361a1.906,1.906,0,1,1,0-3.812h12.043a1.906,1.906,0,0,1,0,3.812h-3.87V54.63H445.7a1.92,1.92,0,1,1,0,3.841H430.331A1.923,1.923,0,0,1,428.425,56.565Z" transform="translate(-428.425 -36.407)" fill="#ed8934"/>
          <path id="パス_32112_-_アウトライン" data-name="パス 32112 - アウトライン" d="M445.7,58.471a1.92,1.92,0,1,0,0-3.841h-5.487V42.414h3.87a1.906,1.906,0,0,0,0-3.812H432.035a1.906,1.906,0,1,0,0,3.812H436.4V54.63h-6.065a1.92,1.92,0,0,0,0,3.841H445.7m0,6H430.331a7.92,7.92,0,0,1,0-15.841h.065v-.386A7.9,7.9,0,0,1,432.035,32.6h12.043a7.906,7.906,0,0,1,2.13,15.52v.524a7.92,7.92,0,0,1-.513,15.824Z" transform="translate(-428.425 -36.407)" fill="#fff"/>
          <path id="パス_32113" data-name="パス 32113" d="M497.433,54.462a1.873,1.873,0,0,1,1.877-1.877h18.569a1.873,1.873,0,0,1,1.877,1.877,1.9,1.9,0,0,1-1.877,1.906H499.31A1.9,1.9,0,0,1,497.433,54.462Z" transform="translate(-462.23 -43.257)" fill="#ed8934"/>
          <path id="パス_32113_-_アウトライン" data-name="パス 32113 - アウトライン" d="M499.31,52.585a1.873,1.873,0,0,0-1.877,1.877,1.9,1.9,0,0,0,1.877,1.906h18.569a1.9,1.9,0,0,0,1.877-1.906,1.873,1.873,0,0,0-1.877-1.877H499.31m0-6h18.569a7.892,7.892,0,0,1,0,15.783H499.31a7.892,7.892,0,0,1,0-15.783Z" transform="translate(-462.23 -43.257)" fill="#fff"/>
          <path id="パス_32114" data-name="パス 32114" d="M572.757,58.456a1.983,1.983,0,0,1,.115-2.744,92.266,92.266,0,0,0,10.021-10.945c1.04-1.444,1.011-2.541.982-4.418h-7.6a1.92,1.92,0,1,1,0-3.841h9.3a2.091,2.091,0,0,1,2.08,2.281c0,4.3.058,5.66-1.5,7.913,0,0-.52.636-1.387,1.675l6.96,7.307a1.922,1.922,0,0,1-.144,2.714,1.976,1.976,0,0,1-2.714-.115l-6.556-7.076c-2.138,2.4-4.592,5.256-6.844,7.364A1.919,1.919,0,0,1,572.757,58.456Z" transform="translate(-498.885 -35.381)" fill="#ed8934"/>
          <path id="パス_32114_-_アウトライン" data-name="パス 32114 - アウトライン" d="M574.177,59.078a1.9,1.9,0,0,0,1.294-.507c2.253-2.108,4.707-4.967,6.844-7.364l6.556,7.076a1.976,1.976,0,0,0,2.714.115,1.922,1.922,0,0,0,.144-2.714l-6.96-7.307c.867-1.039,1.387-1.675,1.387-1.675,1.559-2.253,1.5-3.61,1.5-7.913a2.091,2.091,0,0,0-2.08-2.281h-9.3a1.92,1.92,0,1,0,0,3.841h7.6c.029,1.877.058,2.974-.982,4.418a92.266,92.266,0,0,1-10.021,10.945,1.983,1.983,0,0,0-.115,2.744,1.932,1.932,0,0,0,1.421.623m0,6a7.937,7.937,0,0,1-5.466-13.689c1.656-1.61,3.54-3.477,5.3-5.37a7.919,7.919,0,0,1,2.269-15.512h9.3a8.09,8.09,0,0,1,8.067,8.672c.012,3.4.015,5.879-1.194,8.562l3.623,3.8a7.736,7.736,0,0,1,2.146,5.624,8.04,8.04,0,0,1-2.558,5.632,7.806,7.806,0,0,1-5.318,2.085,8.157,8.157,0,0,1-5.55-2.2l-2.4-2.585c-.951,1.019-1.9,1.993-2.82,2.852A7.9,7.9,0,0,1,574.177,65.078Z" transform="translate(-498.885 -35.381)" fill="#fff"/>
          <path id="パス_32115" data-name="パス 32115" d="M662.492,44a1.91,1.91,0,0,1-1.906,1.934h-4.708A42.177,42.177,0,0,1,652.1,57.749a2.054,2.054,0,0,1-2.657.953,1.923,1.923,0,0,1-.837-2.57c1.963-4.274,3.35-7.653,3.523-10.195h-8.259a1.92,1.92,0,0,1,0-3.84h8.115a26.575,26.575,0,0,0-.751-2.773l-3.466.866a1.919,1.919,0,0,1-.924-3.725l8.519-2.108a1.917,1.917,0,0,1,2.31,1.386,1.889,1.889,0,0,1-1.386,2.31l-1.444.4c.346,1.387.751,2.513.953,3.639h4.794A1.9,1.9,0,0,1,662.492,44Z" transform="translate(-533.028 -34.299)" fill="#ed8934"/>
          <path id="パス_32115_-_アウトライン" data-name="パス 32115 - アウトライン" d="M655.818,34.3a1.844,1.844,0,0,0-.459.058l-8.519,2.108a1.919,1.919,0,0,0,.924,3.725l3.466-.866a26.575,26.575,0,0,1,.751,2.773h-8.115a1.92,1.92,0,0,0,0,3.84h8.259c-.173,2.541-1.56,5.92-3.523,10.195a1.923,1.923,0,0,0,.837,2.57,2.054,2.054,0,0,0,2.657-.953,42.178,42.178,0,0,0,3.783-11.812h4.708a1.92,1.92,0,0,0,0-3.84h-4.794c-.2-1.126-.607-2.253-.953-3.639l1.444-.4a1.889,1.889,0,0,0,1.386-2.31,1.929,1.929,0,0,0-1.851-1.444m0-6a7.914,7.914,0,0,1,7.662,5.949,8.072,8.072,0,0,1,.223,2.49,7.923,7.923,0,0,1-2.991,15.2,59.973,59.973,0,0,1-3.155,8.3,8.144,8.144,0,0,1-7.315,4.651,10.194,10.194,0,0,1-3.421-.782,7.677,7.677,0,0,1-4.056-4.725,8.083,8.083,0,0,1,.375-5.729c.207-.451.479-1.043.775-1.71h-.05a7.922,7.922,0,0,1-4.443-14.471,8.016,8.016,0,0,1,1.081-3.2,7.855,7.855,0,0,1,4.881-3.625l8.532-2.112A10.42,10.42,0,0,1,655.818,28.3Z" transform="translate(-533.028 -34.299)" fill="#fff"/>
          <path id="パス_32116" data-name="パス 32116" d="M734.547,49.649a2.683,2.683,0,0,1-.2.953,15.263,15.263,0,0,1-3.292,4.649,2.161,2.161,0,0,1-1.358.491,1.629,1.629,0,0,1-1.588-1.7,1.741,1.741,0,0,1,.607-1.328c.462-.491.837-.924,1.155-1.328h-4.331c.26,1.906,1.242,7.19,1.906,10.771A1.526,1.526,0,0,1,726,63.916a1.8,1.8,0,0,1-2.022-1.444S722.1,51.7,722.043,51.382H719.1a1.738,1.738,0,0,1-1.732-1.733,1.683,1.683,0,0,1,1.732-1.733h2.31c-.087-.577-.317-1.473-.433-2.166a1.687,1.687,0,0,1,1.472-1.848,1.85,1.85,0,0,1,2.022,1.415s.4,2.31.462,2.6h7.855A1.776,1.776,0,0,1,734.547,49.649Z" transform="translate(-569.966 -38.993)" fill="#ed8934"/>
          <path id="パス_32116_-_アウトライン" data-name="パス 32116 - アウトライン" d="M722.688,43.881a1.272,1.272,0,0,0-.241.022,1.687,1.687,0,0,0-1.472,1.848c.115.693.346,1.588.433,2.166H719.1a1.683,1.683,0,0,0-1.732,1.733,1.738,1.738,0,0,0,1.732,1.733h2.946c.058.317,1.935,11.089,1.935,11.089A1.8,1.8,0,0,0,726,63.916a1.526,1.526,0,0,0,1.444-1.762c-.664-3.581-1.646-8.866-1.906-10.771h4.331c-.318.4-.693.837-1.155,1.328a1.741,1.741,0,0,0-.607,1.328,1.629,1.629,0,0,0,1.588,1.7,2.161,2.161,0,0,0,1.358-.491,15.263,15.263,0,0,0,3.292-4.649,2.683,2.683,0,0,0,.2-.953,1.776,1.776,0,0,0-1.762-1.733h-7.855c-.058-.289-.462-2.6-.462-2.6a1.867,1.867,0,0,0-1.781-1.437m0-6a7.917,7.917,0,0,1,6.846,4.036h3.252a7.756,7.756,0,0,1,7.762,7.733,11.928,11.928,0,0,1-.665,3.263,21.222,21.222,0,0,1-4.755,6.744,7.952,7.952,0,0,1-1.816,1.236l.005.027a7.513,7.513,0,0,1-1.275,5.873,7.689,7.689,0,0,1-5.214,3.066,10.37,10.37,0,0,1-1.089.077,7.8,7.8,0,0,1-7.658-6.357l-1.134-6.5a7.747,7.747,0,0,1-5.581-7.429,7.65,7.65,0,0,1,4.145-6.88,7.694,7.694,0,0,1,5.928-4.781A9.2,9.2,0,0,1,722.688,37.881Z" transform="translate(-569.966 -38.993)" fill="#fff"/>
          <path id="パス_32117" data-name="パス 32117" d="M784.42,47.425a1.927,1.927,0,0,1,.867-2.57c8.057-4.216,11.61-6.931,13.111-8.577a2.133,2.133,0,0,1,2.772-.346,1.9,1.9,0,0,1,.232,2.714,19.333,19.333,0,0,1-3.466,3.061V56.9a1.906,1.906,0,1,1-3.812,0V44.248c-1.906,1.126-4.245,2.57-7.162,4.043A1.862,1.862,0,0,1,784.42,47.425Z" transform="translate(-602.714 -34.92)" fill="#ed8934"/>
          <path id="パス_32117_-_アウトライン" data-name="パス 32117 - アウトライン" d="M796.029,58.8a1.923,1.923,0,0,0,1.906-1.906V41.707a19.333,19.333,0,0,0,3.466-3.061,1.9,1.9,0,0,0-.232-2.714,2.133,2.133,0,0,0-2.772.346c-1.5,1.646-5.054,4.361-13.111,8.577a1.927,1.927,0,0,0-.867,2.57,1.862,1.862,0,0,0,2.542.866c2.917-1.473,5.256-2.916,7.162-4.043V56.9a1.9,1.9,0,0,0,1.905,1.906m0,6a7.915,7.915,0,0,1-7.905-7.906V54.184a9.024,9.024,0,0,1-2.009.317,7.924,7.924,0,0,1-3.641-14.945c8.548-4.473,10.956-6.734,11.491-7.321a8.259,8.259,0,0,1,6.054-2.668,7.85,7.85,0,0,1,5.868,13.065,22.523,22.523,0,0,1-1.951,1.964V56.9A7.915,7.915,0,0,1,796.029,64.8Z" transform="translate(-602.714 -34.92)" fill="#fff"/>
          <path id="パス_32118" data-name="パス 32118" d="M855.994,57.677a1.947,1.947,0,0,1-.434-2.685,48.623,48.623,0,0,0,3.985-7.22,5.752,5.752,0,0,0,.4-2.6c0-2.079.029-2.859-.028-5.284a1.906,1.906,0,1,1,3.811-.058c0,3,.029,5.314-.028,6.7-.086,1.7-1.7,5.6-4.938,10.569A2.062,2.062,0,0,1,855.994,57.677Zm22.15-7.942a1.98,1.98,0,0,1,.029,2.773,17.066,17.066,0,0,1-5.141,4.708,11.187,11.187,0,0,1-4.938,1.415,1.813,1.813,0,0,1-1.906-1.993V38.386a1.906,1.906,0,1,1,3.812,0V54.529a3.57,3.57,0,0,0,1.27-.462,14.969,14.969,0,0,0,4.216-4.043A1.839,1.839,0,0,1,878.144,49.735Z" transform="translate(-637.496 -35.353)" fill="#ed8934"/>
          <path id="パス_32118_-_アウトライン" data-name="パス 32118 - アウトライン" d="M868.032,58.63h.062a11.187,11.187,0,0,0,4.938-1.415,17.066,17.066,0,0,0,5.141-4.708,1.98,1.98,0,0,0-.029-2.773,1.839,1.839,0,0,0-2.657.289,14.969,14.969,0,0,1-4.216,4.043,3.569,3.569,0,0,1-1.27.462V38.386a1.906,1.906,0,1,0-3.812,0V56.637a1.811,1.811,0,0,0,1.844,1.993m-10.978-.646a2.041,2.041,0,0,0,1.712-.885c3.234-4.967,4.852-8.866,4.938-10.569.057-1.387.028-3.7.028-6.7a1.906,1.906,0,1,0-3.811.058c.057,2.426.028,3.205.028,5.285a5.752,5.752,0,0,1-.4,2.6,48.623,48.623,0,0,1-3.985,7.22,1.947,1.947,0,0,0,.434,2.685,1.906,1.906,0,0,0,1.06.308m10.978,6.646a7.742,7.742,0,0,1-5.767-2.522,8.074,8.074,0,0,1-5.211,1.876A7.841,7.841,0,0,1,850.4,51.929l.843-1.381a34.333,34.333,0,0,0,2.8-5.16l-.085-1.712c.005-1.106.009-1.96-.031-3.647a7.944,7.944,0,0,1,7.875-8.076h0a8.063,8.063,0,0,1,1.487.138,7.848,7.848,0,0,1,4.807-1.639A7.93,7.93,0,0,1,876,38.386v4.968a7.78,7.78,0,0,1,6.22,1.978,8.005,8.005,0,0,1,.719,10.82,23.145,23.145,0,0,1-6.878,6.242,17.22,17.22,0,0,1-7.8,2.233Z" transform="translate(-637.496 -35.353)" fill="#fff"/>
          <path id="パス_32119" data-name="パス 32119" d="M946.977,48.841s-4.765-1.473-7.653-2.368V57.244a1.92,1.92,0,0,1-3.841,0V36.885a1.92,1.92,0,0,1,3.841,0v5.631c3.118.9,8.837,2.686,8.837,2.686A1.884,1.884,0,0,1,949.4,47.57,1.962,1.962,0,0,1,946.977,48.841Zm.52-10.223v1.588a1.429,1.429,0,1,1-2.859,0V38.618a1.429,1.429,0,0,1,2.859,0Zm3.639,0v1.588a1.43,1.43,0,1,1-2.859,0V38.618a1.43,1.43,0,0,1,2.859,0Z" transform="translate(-676.815 -34.632)" fill="#ed8934"/>
          <path id="パス_32119_-_アウトライン" data-name="パス 32119 - アウトライン" d="M937.39,59.151a1.911,1.911,0,0,0,1.935-1.906V46.473c2.888.9,7.653,2.368,7.653,2.368A1.962,1.962,0,0,0,949.4,47.57a1.884,1.884,0,0,0-1.242-2.368s-5.718-1.791-8.837-2.686V36.885a1.92,1.92,0,0,0-3.841,0V57.244a1.9,1.9,0,0,0,1.906,1.906m12.3-17.5a1.43,1.43,0,0,0,1.444-1.444V38.618a1.43,1.43,0,0,0-2.859,0v1.588a1.424,1.424,0,0,0,1.415,1.444m-3.61,0a1.424,1.424,0,0,0,1.415-1.444V38.618a1.429,1.429,0,0,0-2.859,0v1.588a1.43,1.43,0,0,0,1.444,1.444m-8.692,23.5a7.915,7.915,0,0,1-7.906-7.906V36.885a7.918,7.918,0,0,1,13.9-5.178,7.642,7.642,0,0,1,4.505-.283,7.444,7.444,0,0,1,9.249,7.193v1.588a7.414,7.414,0,0,1-1.866,4.924,7.8,7.8,0,0,1-.158,4.286,8.017,8.017,0,0,1-7.569,5.512,10.616,10.616,0,0,1-2.219-.321v2.637A7.93,7.93,0,0,1,937.39,65.151Z" transform="translate(-676.815 -34.632)" fill="#fff"/>
        </g>
      </g>
      <g id="グループ_259034" data-name="グループ 259034" transform="translate(0 126.658)">
        <g id="グループ_259033" data-name="グループ 259033">
          <path id="パス_32120" data-name="パス 32120" d="M437.422,150.479a10.4,10.4,0,0,1,.2-3.26,2.863,2.863,0,0,1,3.749-1.956c1.385.611,1.426,1.793,1.223,3.831-.245,2.649,1.915,3.219,6.316,3.3a27.438,27.438,0,0,0,6.072-.612,2.536,2.536,0,0,1,3.178,1.834A2.99,2.99,0,0,1,456,157.08a30.58,30.58,0,0,1-7.213.693C439.419,157.651,437.625,153.127,437.422,150.479Zm.163-18.663a2.662,2.662,0,0,1,2.689-2.689h14.914a2.934,2.934,0,0,1,2.893,2.975,4.988,4.988,0,0,1-.53,1.467l-3.831,5.542a2.789,2.789,0,0,1-3.831.692,2.628,2.628,0,0,1-.611-3.749l1.141-1.548H440.274A2.687,2.687,0,0,1,437.585,131.815Z" transform="translate(-434.464 -123.534)" fill="#ed8934"/>
          <path id="パス_32120_-_アウトライン" data-name="パス 32120 - アウトライン" d="M448.791,157.773A30.58,30.58,0,0,0,456,157.08a2.99,2.99,0,0,0,2.159-3.463,2.536,2.536,0,0,0-3.178-1.834,27.443,27.443,0,0,1-6.072.612c-4.4-.082-6.561-.652-6.316-3.3.2-2.037.163-3.219-1.223-3.831a2.863,2.863,0,0,0-3.749,1.956,10.4,10.4,0,0,0-.2,3.26c.2,2.649,2,7.172,11.369,7.294m2.643-17.491a2.8,2.8,0,0,0,2.288-1.172l3.831-5.542a4.988,4.988,0,0,0,.53-1.467,2.934,2.934,0,0,0-2.893-2.975H440.274a2.689,2.689,0,0,0,0,5.379h10.147l-1.141,1.548a2.628,2.628,0,0,0,.611,3.749,2.68,2.68,0,0,0,1.543.479m-2.643,23.491h-.078c-12.02-.156-16.8-6.732-17.273-12.834a16.228,16.228,0,0,1,.316-4.964,9.469,9.469,0,0,1,5.1-6.169,8.689,8.689,0,0,1,3.415-16.68h14.914a8.919,8.919,0,0,1,6.572,2.926,8.677,8.677,0,0,1,2.3,6.607,9.05,9.05,0,0,1-.881,3.032,10.872,10.872,0,0,1-.687,1.288l-3.831,5.542a8.806,8.806,0,0,1-4.481,3.324,9.771,9.771,0,0,1,1.452-.118,8.391,8.391,0,0,1,8.426,6.752,8.988,8.988,0,0,1-6.769,10.462A36.351,36.351,0,0,1,448.791,163.773Zm-.2-17.388.432.01a19.214,19.214,0,0,0,2.321-.114,8.706,8.706,0,0,1-2.843-.5Q448.558,146.086,448.593,146.385Z" transform="translate(-434.464 -123.534)" fill="#fff"/>
          <path id="パス_32121" data-name="パス 32121" d="M518.384,137.94l-3.912-11.084a2.681,2.681,0,0,1,5.094-1.671l2.934,9.046c1.263-1.141,2.4-2.119,5.582-4.808a2.747,2.747,0,0,1,3.831.244,2.664,2.664,0,0,1-.285,3.79c-7.7,6.56-7.539,6.234-10.921,9.372-1.793,1.671-2.689,3.342-2.282,4.931.53,1.874,1.671,2.282,5.461,2.445,2.771.122,4.483-.326,7.62-.815a2.581,2.581,0,0,1,2.975,2.282,3.022,3.022,0,0,1-2.4,3.219,38.1,38.1,0,0,1-8.394.774c-8.068-.326-10.309-4.2-10.432-7.457C513.087,144.581,513.9,142.218,518.384,137.94Zm20.049-12.511v2.242a2.017,2.017,0,1,1-4.034,0v-2.242a2.017,2.017,0,1,1,4.034,0Zm5.134,0v2.242a2.017,2.017,0,1,1-4.035,0v-2.242a2.017,2.017,0,1,1,4.035,0Z" transform="translate(-471.623 -120.693)" fill="#ed8934"/>
          <path id="パス_32121_-_アウトライン" data-name="パス 32121 - アウトライン" d="M517.039,123.327a2.567,2.567,0,0,0-.855.147,2.647,2.647,0,0,0-1.712,3.382l3.912,11.084c-4.483,4.278-5.3,6.641-5.135,10.268.122,3.26,2.363,7.131,10.432,7.457a38.106,38.106,0,0,0,8.394-.774,3.022,3.022,0,0,0,2.4-3.219,2.581,2.581,0,0,0-2.975-2.282c-3.137.489-4.85.937-7.62.815-3.789-.163-4.93-.57-5.461-2.445-.407-1.589.489-3.26,2.282-4.931,3.382-3.138,3.219-2.812,10.921-9.372a2.664,2.664,0,0,0,.285-3.79,2.747,2.747,0,0,0-3.831-.244c-3.178,2.689-4.319,3.667-5.582,4.808l-2.934-9.046a2.66,2.66,0,0,0-2.527-1.858m19.356.065a2.035,2.035,0,0,0-2,2.037v2.242a2.017,2.017,0,1,0,4.034,0v-2.242a2.043,2.043,0,0,0-2.037-2.037m5.134,0a2.035,2.035,0,0,0-2,2.037v2.242a2.017,2.017,0,1,0,4.035,0v-2.242a2.043,2.043,0,0,0-2.038-2.037m-24.49-6.065a8.616,8.616,0,0,1,8.25,6.058l.182.56a8.773,8.773,0,0,1,3.359-1.123,8,8,0,0,1,10.139-5.008,7.927,7.927,0,0,1,2.56-.422,8.047,8.047,0,0,1,8.038,8.037v2.242a8.047,8.047,0,0,1-8.038,8.037,5.267,5.267,0,0,0-4.047-.073,8.734,8.734,0,0,1-1.951,2.378l-6.065,5.119-.761.637,1.876-.308a12.039,12.039,0,0,1,1.308-.1,8.582,8.582,0,0,1,8.555,7.665,9.028,9.028,0,0,1-7.384,9.781,48.943,48.943,0,0,1-8.22.88l-1.4-.028c-11.59-.468-15.962-7.14-16.19-13.227-.209-4.659.943-8.094,4.247-11.967l-2.687-7.613a8.647,8.647,0,0,1,5.57-11.1A13.041,13.041,0,0,1,517.039,117.327Z" transform="translate(-471.623 -120.693)" fill="#fff"/>
          <path id="パス_32122" data-name="パス 32122" d="M603.177,133.7c.122-.9.2-1.874.325-2.852h-1.589a2.689,2.689,0,0,1,0-5.379h2.2c.163-1.59.326-3.179.489-4.849a2.764,2.764,0,0,1,2.974-2.445,2.7,2.7,0,0,1,2.4,2.975c-.163,1.467-.286,2.893-.448,4.319h3.015a2.689,2.689,0,1,1,0,5.379h-3.627c-.081.978-.2,1.916-.325,2.852h3.667a2.689,2.689,0,1,1,0,5.379H607.9l-.651,5.786c-.53,4.4,2.852,4.809,4.564,4.727,2.73-.163,3.138-3.015,2.323-5.705-.57-1.915.286-3.137,1.711-3.5a2.942,2.942,0,0,1,3.464,2.4c.815,3.5.448,6.887-1.3,9.209a7.689,7.689,0,0,1-5.868,2.975c-5.99.325-11.084-3.749-10.269-10.717l.652-5.176h-1.1a2.689,2.689,0,1,1,0-5.379Z" transform="translate(-513.509 -118.165)" fill="#ed8934"/>
          <path id="パス_32122_-_アウトライン" data-name="パス 32122 - アウトライン" d="M607.349,118.165a2.764,2.764,0,0,0-2.746,2.454c-.163,1.671-.326,3.26-.489,4.849h-2.2a2.689,2.689,0,0,0,0,5.379H603.5c-.122.978-.2,1.956-.325,2.852h-1.752a2.689,2.689,0,1,0,0,5.379h1.1l-.652,5.176c-.815,6.968,4.279,11.042,10.269,10.717A7.689,7.689,0,0,0,618.009,152c1.752-2.323,2.119-5.705,1.3-9.209a2.942,2.942,0,0,0-3.464-2.4c-1.426.367-2.282,1.589-1.711,3.5.815,2.69.408,5.542-2.323,5.705-1.711.082-5.094-.326-4.564-4.727l.651-5.786h4.361a2.689,2.689,0,1,0,0-5.379H608.6c.122-.937.244-1.874.325-2.852h3.627a2.689,2.689,0,1,0,0-5.379h-3.015c.163-1.426.285-2.853.448-4.319a2.7,2.7,0,0,0-2.4-2.975q-.115-.009-.229-.009m0-6c.2.006.553.016.715.029a8.8,8.8,0,0,1,7.907,7.976,8.686,8.686,0,0,1,4.082,12.367,8.625,8.625,0,0,1,.86,3,9.235,9.235,0,0,1,4.248,5.9c1.265,5.44.427,10.476-2.36,14.172a13.683,13.683,0,0,1-10.265,5.349c-.131.009-.927.031-1.058.031a15.921,15.921,0,0,1-11.958-5.125,15.494,15.494,0,0,1-3.605-12.307l.052-.412a8.678,8.678,0,0,1-1.93-11.323,8.689,8.689,0,0,1,4.589-11.706l.008-.079A8.77,8.77,0,0,1,607.348,112.165Z" transform="translate(-513.509 -118.165)" fill="#fff"/>
          <path id="パス_32123" data-name="パス 32123" d="M692.853,141.4c.082-4.482-3.26-7.864-8.435-7.783-6.52.122-9.9,4.32-9.984,8.924-.041,2.648.774,4.6,2.038,4.727,1.385.082,3.178-3.219,4.4-9.128a2.674,2.674,0,0,1,5.3.734c-.938,4.726-3.627,14.139-9.82,14.18-3.545,0-7.131-4.156-7.009-10.635.163-7.783,6.642-13.61,15-13.773,9.046-.122,13.814,6.6,13.814,12.836,0,5.338-2.527,10.88-8.721,15.892a3.116,3.116,0,0,1-4.115-.367,2.8,2.8,0,0,1,.611-3.79C690.531,149.142,692.813,146.208,692.853,141.4Z" transform="translate(-548.095 -123.298)" fill="#ed8934"/>
          <path id="パス_32123_-_アウトライン" data-name="パス 32123 - アウトライン" d="M684.58,128.644l-.243,0c-8.354.163-14.833,5.99-15,13.773-.122,6.479,3.463,10.635,7.009,10.635,6.194-.041,8.883-9.454,9.82-14.18a2.674,2.674,0,0,0-5.3-.734c-1.222,5.908-3.015,9.209-4.4,9.128-1.264-.122-2.079-2.079-2.038-4.727.082-4.6,3.464-8.8,9.984-8.924,5.173-.082,8.517,3.3,8.435,7.783-.04,4.808-2.323,7.742-6.927,11.817a2.8,2.8,0,0,0-.611,3.79,3.116,3.116,0,0,0,4.115.367c6.194-5.012,8.721-10.554,8.721-15.892,0-6.179-4.682-12.838-13.571-12.838m0-6a19.551,19.551,0,0,1,14.5,6,18.975,18.975,0,0,1,5.072,12.837c0,5.337-1.9,13.236-10.947,20.557a9.1,9.1,0,0,1-12.527-1.225,8.056,8.056,0,0,1-1.274-2.149,12.22,12.22,0,0,1-3.013.389,11.7,11.7,0,0,1-8.359-3.678c-3.122-3.182-4.787-7.824-4.688-13.071.23-10.985,9.205-19.431,20.878-19.659Z" transform="translate(-548.095 -123.298)" fill="#fff"/>
          <path id="パス_32124" data-name="パス 32124" d="M749.662,151.689,754.1,131.64h-1.956a2.689,2.689,0,1,1,0-5.379h3.137l.815-3.586a2.685,2.685,0,1,1,5.256,1.1l-.53,2.486h4.2a2.69,2.69,0,1,1,0,5.379H759.6l-4.645,21.149a2.7,2.7,0,0,1-3.219,2.078A2.67,2.67,0,0,1,749.662,151.689Zm21.312,3.015c-5.216-.489-7.7-2.934-7.131-8.394a2.585,2.585,0,0,1,2.811-2.4c1.1.041,2.567.9,2.445,2.323-.244,2.2.2,2.975,2.363,3.138a15.376,15.376,0,0,0,3.626-.122,2.51,2.51,0,0,1,3.057,2.323,2.867,2.867,0,0,1-2.486,3.016A19.64,19.64,0,0,1,770.974,154.7Zm6.764-19.6a5.055,5.055,0,0,1-.489,1.671l-2.934,4.482a2.689,2.689,0,0,1-3.668,1.019,2.438,2.438,0,0,1-.774-3.5l.815-.978h-3.667a2.69,2.69,0,0,1,0-5.379h7.987A2.7,2.7,0,0,1,777.738,135.1Z" transform="translate(-587.343 -119.324)" fill="#ed8934"/>
          <path id="パス_32124_-_アウトライン" data-name="パス 32124 - アウトライン" d="M752.327,154.932a2.711,2.711,0,0,0,2.632-2.143L759.6,131.64h5.42a2.69,2.69,0,1,0,0-5.379h-4.2l.53-2.486a2.685,2.685,0,1,0-5.256-1.1l-.815,3.586h-3.137a2.689,2.689,0,1,0,0,5.379H754.1l-4.442,20.049a2.72,2.72,0,0,0,2.665,3.243m20.484-.141a20.775,20.775,0,0,0,2.849-.209,2.867,2.867,0,0,0,2.486-3.016,2.51,2.51,0,0,0-3.057-2.323,15.376,15.376,0,0,1-3.626.122c-2.159-.163-2.608-.938-2.363-3.138.122-1.426-1.345-2.282-2.445-2.323a2.585,2.585,0,0,0-2.811,2.4c-.571,5.46,1.915,7.906,7.131,8.394.659.06,1.262.087,1.837.087m-.849-12.163a2.7,2.7,0,0,0,2.354-1.371l2.934-4.482a5.055,5.055,0,0,0,.489-1.671,2.7,2.7,0,0,0-2.73-2.69h-7.987a2.69,2.69,0,0,0,0,5.379h3.667l-.815.978a2.438,2.438,0,0,0,.774,3.5,2.61,2.61,0,0,0,1.314.352m-19.635,18.3a12.592,12.592,0,0,1-1.89-.208A8.438,8.438,0,0,1,745,156.977a8.726,8.726,0,0,1-1.232-6.436L747,135.95a8.687,8.687,0,0,1,3.483-15.53,8.649,8.649,0,0,1,8.206-5.888,12.6,12.6,0,0,1,1.888.208,8.648,8.648,0,0,1,6.4,5.74,8.747,8.747,0,0,1,6.4,5.934h1.633a8.72,8.72,0,0,1,8.73,8.69,11.274,11.274,0,0,1-.992,4.076,6,6,0,0,1-.477.881l-2.7,4.122a8.33,8.33,0,0,1,4.568,7.1,8.882,8.882,0,0,1-7.836,9.269,25.241,25.241,0,0,1-5.871.132c-4.424-.414-7.771-1.981-9.965-4.658q-.1-.126-.2-.254A8.638,8.638,0,0,1,752.327,160.932Z" transform="translate(-587.343 -119.324)" fill="#fff"/>
          <path id="パス_32125" data-name="パス 32125" d="M858.383,141.5c.245,5.338-2.119,10.717-8.639,14.751a3.309,3.309,0,0,1-4.116-.448c-.774-.978-.774-2.608.856-3.831,5.461-4.116,6.52-6.438,6.724-9.7.163-3.015-.815-5.99-4.035-6.521-2.282,5.053-4.972,11.166-6.561,13.651-1.711,2.69-3.341,4.442-6.6,4.116-3.871-.367-6.438-5.42-6.438-10.391a10.928,10.928,0,0,1,5.135-9.332l-1.1-4.971a2.546,2.546,0,0,1,2.2-3.178,2.686,2.686,0,0,1,3.138,2.159l.774,3.627a25.144,25.144,0,0,1,6.072-1.1c.407-.9,1.019-2.608,1.386-3.382a2.7,2.7,0,1,1,4.93,2.2c-.244.611-.407,1.019-.733,1.875C855.816,132.494,858.1,136.08,858.383,141.5Zm-18.215,1.3a2.222,2.222,0,0,1-.734.244,2.758,2.758,0,0,1-3.341-2.119l-.286-1.549a6.425,6.425,0,0,0-1.3,3.3c-.286,2.608.937,5.338,2.078,5.338C837.764,147.978,839.068,145.044,840.168,142.8Zm3.219-7.009a10.486,10.486,0,0,0-2.69.693l.734,3.627A41.849,41.849,0,0,0,843.387,135.794Z" transform="translate(-626.588 -121.686)" fill="#ed8934"/>
          <path id="パス_32125_-_アウトライン" data-name="パス 32125 - アウトライン" d="M847.88,156.758a3.611,3.611,0,0,0,1.864-.508c6.52-4.034,8.883-9.413,8.639-14.751-.285-5.42-2.567-9.005-7.009-10.473.326-.856.489-1.264.733-1.875a2.7,2.7,0,1,0-4.93-2.2c-.367.774-.978,2.486-1.386,3.382a25.144,25.144,0,0,0-6.072,1.1l-.774-3.627a2.686,2.686,0,0,0-3.138-2.159,2.546,2.546,0,0,0-2.2,3.178l1.1,4.971a10.928,10.928,0,0,0-5.135,9.332c0,4.972,2.568,10.025,6.438,10.391,3.26.325,4.89-1.426,6.6-4.116,1.589-2.485,4.279-8.6,6.561-13.651,3.22.531,4.2,3.505,4.035,6.521-.2,3.26-1.264,5.582-6.724,9.7-1.63,1.223-1.63,2.852-.856,3.831a2.876,2.876,0,0,0,2.252.956M835.807,139.38l.286,1.549a2.758,2.758,0,0,0,3.341,2.119,2.222,2.222,0,0,0,.734-.244c-1.1,2.241-2.4,5.175-3.586,5.216-1.141,0-2.363-2.73-2.078-5.338a6.425,6.425,0,0,1,1.3-3.3m7.58-3.586a41.849,41.849,0,0,1-1.956,4.319l-.734-3.627a10.486,10.486,0,0,1,2.69-.693m4.493,26.964a8.837,8.837,0,0,1-6.888-3.147q-.253-.32-.473-.657a11.525,11.525,0,0,1-3.755.6c-.2,0-1.151-.049-1.349-.068-7.681-.728-11.842-8.974-11.842-16.362a17.138,17.138,0,0,1,4.5-11.563l-.319-1.443a8.492,8.492,0,0,1,6.776-10.336,11.7,11.7,0,0,1,1.793-.188,8.659,8.659,0,0,1,6.539,3,8.79,8.79,0,0,1,6.816-3.246,8.634,8.634,0,0,1,8.646,8.7c2.959,2.367,5.7,6.374,6.057,13.134.377,8.209-3.7,15.358-11.473,20.168A9.577,9.577,0,0,1,847.88,162.758Z" transform="translate(-626.588 -121.686)" fill="#fff"/>
          <path id="パス_32126" data-name="パス 32126" d="M932.478,141.4c.082-4.482-3.26-7.864-8.435-7.783-6.52.122-9.9,4.32-9.984,8.924-.041,2.648.774,4.6,2.038,4.727,1.385.082,3.178-3.219,4.4-9.128a2.674,2.674,0,0,1,5.3.734c-.938,4.726-3.627,14.139-9.821,14.18-3.545,0-7.131-4.156-7.009-10.635.163-7.783,6.642-13.61,15-13.773,9.046-.122,13.814,6.6,13.814,12.836,0,5.338-2.527,10.88-8.721,15.892a3.116,3.116,0,0,1-4.115-.367,2.8,2.8,0,0,1,.611-3.79C930.155,149.142,932.438,146.208,932.478,141.4Z" transform="translate(-665.479 -123.298)" fill="#ed8934"/>
          <path id="パス_32126_-_アウトライン" data-name="パス 32126 - アウトライン" d="M924.2,128.644l-.243,0c-8.354.163-14.833,5.99-15,13.773-.122,6.479,3.463,10.635,7.009,10.635,6.194-.041,8.883-9.454,9.821-14.18a2.674,2.674,0,0,0-5.3-.734c-1.222,5.908-3.013,9.209-4.4,9.128-1.264-.122-2.079-2.079-2.038-4.727.082-4.6,3.464-8.8,9.984-8.924,5.179-.082,8.517,3.3,8.435,7.783-.04,4.808-2.323,7.742-6.927,11.817a2.8,2.8,0,0,0-.611,3.79,3.116,3.116,0,0,0,4.115.367c6.194-5.012,8.721-10.554,8.721-15.892,0-6.179-4.682-12.838-13.571-12.838m0-6a19.551,19.551,0,0,1,14.5,6,18.975,18.975,0,0,1,5.072,12.837c0,5.337-1.9,13.236-10.947,20.557a9.1,9.1,0,0,1-12.528-1.225,8.059,8.059,0,0,1-1.274-2.148,12.219,12.219,0,0,1-3.013.389,11.7,11.7,0,0,1-8.359-3.678c-3.122-3.182-4.787-7.824-4.688-13.071.23-10.985,9.205-19.431,20.878-19.659Z" transform="translate(-665.479 -123.298)" fill="#fff"/>
          <path id="パス_32127" data-name="パス 32127" d="M432.536,250.661l13.4-15.382h-9.808a3.537,3.537,0,0,1,0-7.074h31.942a3.488,3.488,0,0,1,3.537,3.483,3.545,3.545,0,0,1-3.537,3.591H455.045L438.056,255.27a3.809,3.809,0,0,1-5.145.429A3.567,3.567,0,0,1,432.536,250.661Zm19.937,24.278a3.786,3.786,0,0,1-3.805-3.805V246.481a3.778,3.778,0,1,1,7.557,0v24.653A3.775,3.775,0,0,1,452.473,274.938ZM467.747,252.7h-6.592a3.537,3.537,0,1,1,0-7.075h6.592a3.537,3.537,0,0,1,0,7.075Z" transform="translate(-431.669 -172.07)" fill="#ed8934"/>
          <path id="パス_32127_-_アウトライン" data-name="パス 32127 - アウトライン" d="M436.127,228.205a3.537,3.537,0,0,0,0,7.074h9.808l-13.4,15.382a3.567,3.567,0,0,0,.375,5.038,3.809,3.809,0,0,0,5.145-.429l16.989-19.991h13.023a3.545,3.545,0,0,0,3.537-3.591,3.488,3.488,0,0,0-3.537-3.483H436.127m16.346,14.47a3.785,3.785,0,0,0-3.805,3.805v24.653a3.778,3.778,0,1,0,7.557,0V246.481a3.774,3.774,0,0,0-3.751-3.805m8.682,2.947a3.537,3.537,0,1,0,0,7.075h6.592a3.537,3.537,0,0,0,0-7.075h-6.592m-25.029-23.418h31.942a9.534,9.534,0,0,1,3.717,18.315,9.537,9.537,0,0,1-4.039,18.177h-5.523v12.436a9.778,9.778,0,1,1-19.557,0V259.109l-.039.046a9.841,9.841,0,0,1-7.4,3.348,9.66,9.66,0,0,1-6.125-2.17,9.566,9.566,0,0,1-1.121-13.578l5.181-5.948a9.538,9.538,0,0,1,2.965-18.6Z" transform="translate(-431.669 -172.07)" fill="#fff"/>
          <path id="パス_32128" data-name="パス 32128" d="M554.59,228.487a3.449,3.449,0,0,1-.268,1.286l6.109-3.537v-.857h-.482a2.918,2.918,0,0,1-2.84-2.948,3.065,3.065,0,0,1,3.108-2.84h4.395a2.964,2.964,0,0,1,2.947,2.894v3.323l14.256,8.9h.107a3.557,3.557,0,0,1,3.537,3.644,3.481,3.481,0,0,1-3.537,3.591h-.8a6.277,6.277,0,0,1-2.894-.911l-2.251-1.5a3.044,3.044,0,0,1-3.055,2.787H554.644a3.078,3.078,0,0,1-3.055-2.733l-3.162,1.982a3.838,3.838,0,0,1-5.091-1.286,3.661,3.661,0,0,1,1.554-4.877l5.573-3.377h-1.714a3.537,3.537,0,1,1,0-7.074h2.3A3.534,3.534,0,0,1,554.59,228.487Zm-7.61,35.961h3.7a3.733,3.733,0,0,1-.268-1.34l.053-1.179a3.538,3.538,0,1,1,7.075,0v1.179a3.722,3.722,0,0,1-.268,1.34h13.184a3.359,3.359,0,0,1-.321-1.447v-1.179a3.564,3.564,0,0,1,7.128,0V263a3.359,3.359,0,0,1-.321,1.447h3.751a3.243,3.243,0,1,1,0,6.485H546.98a3.243,3.243,0,1,1,0-6.485Zm8.039-6.217a3.53,3.53,0,0,1-3.538-3.7v-6.86a3.57,3.57,0,0,1,3.538-3.537h17.9a3.58,3.58,0,0,1,3.59,3.537v6.86a3.322,3.322,0,0,1-3.215,3.591A87.026,87.026,0,0,1,555.019,258.231Zm1.554-22.027h14.31l-6.86-4.5Zm2.036,16.293a90.344,90.344,0,0,0,10.772-.054v-2.411H558.609Zm15.81-23.527a3.534,3.534,0,0,1-3.537-3.537v-.964a3.537,3.537,0,1,1,7.074,0v.964A3.568,3.568,0,0,1,574.42,228.969Zm7.557,3.484a3.569,3.569,0,0,1-3.537-3.537v-.965a3.537,3.537,0,1,1,7.074,0v.965A3.533,3.533,0,0,1,581.976,232.453Z" transform="translate(-486.168 -167.849)" fill="#ed8934"/>
          <path id="パス_32128_-_アウトライン" data-name="パス 32128 - アウトライン" d="M560.217,219.59a3.065,3.065,0,0,0-3.108,2.84,2.918,2.918,0,0,0,2.84,2.948h.482v.857l-6.109,3.537a3.449,3.449,0,0,0,.268-1.286,3.534,3.534,0,0,0-3.537-3.537h-2.3a3.537,3.537,0,1,0,0,7.074h1.714L544.89,235.4a3.661,3.661,0,0,0-1.554,4.877,3.838,3.838,0,0,0,5.091,1.286l3.162-1.982a3.078,3.078,0,0,0,3.055,2.733h18.276a3.044,3.044,0,0,0,3.055-2.787l2.251,1.5a6.277,6.277,0,0,0,2.894.911h.8a3.481,3.481,0,0,0,3.537-3.591,3.557,3.557,0,0,0-3.537-3.644h-.107l-14.256-8.9v-3.323a2.964,2.964,0,0,0-2.947-2.894h-4.395M570.883,236.2h-14.31l7.449-4.5,6.86,4.5m3.537-15.273a3.5,3.5,0,0,0-3.537,3.537v.964a3.537,3.537,0,1,0,7.074,0v-.964a3.533,3.533,0,0,0-3.537-3.537m7.557,3.483a3.534,3.534,0,0,0-3.537,3.537v.965a3.569,3.569,0,0,0,3.537,3.537,3.533,3.533,0,0,0,3.537-3.537v-.965a3.5,3.5,0,0,0-3.537-3.537m-26.957,19.722a3.57,3.57,0,0,0-3.538,3.537v6.86a3.53,3.53,0,0,0,3.538,3.7,87.026,87.026,0,0,0,18.275-.107,3.322,3.322,0,0,0,3.215-3.591v-6.86a3.58,3.58,0,0,0-3.59-3.537h-17.9m8.939,8.495c-1.716,0-3.418-.054-5.349-.134v-2.465h10.772v2.411c-1.982.134-3.709.188-5.423.188m9.764,5.654a3.545,3.545,0,0,0-3.59,3.537V263a3.359,3.359,0,0,0,.321,1.447H557.27a3.722,3.722,0,0,0,.268-1.34v-1.179a3.538,3.538,0,1,0-7.075,0l-.053,1.179a3.733,3.733,0,0,0,.268,1.34h-3.7a3.243,3.243,0,1,0,0,6.485h33.71a3.243,3.243,0,1,0,0-6.485h-3.751A3.359,3.359,0,0,0,577.26,263v-1.179a3.534,3.534,0,0,0-3.537-3.537M560.217,213.59h4.395a8.941,8.941,0,0,1,5.887,2.2,9.216,9.216,0,0,1,3.92-.861,9.522,9.522,0,0,1,7.366,3.485,9.576,9.576,0,0,1,9.728,9.535,11.6,11.6,0,0,1-1.326,5.53,9.673,9.673,0,0,1-7.677,14.441v6.611a10.42,10.42,0,0,1-.374,2.8,9.5,9.5,0,0,1,.59,1.341,9.24,9.24,0,0,1-2.036,18.259H546.98a9.24,9.24,0,0,1-1.992-18.269,9.254,9.254,0,0,1,.787-1.661,10.34,10.34,0,0,1-.293-2.47V247.98a9.731,9.731,0,0,1-7.305-4.64,9.456,9.456,0,0,1-.76-7.681A9.866,9.866,0,0,1,539.8,231.8a9.538,9.538,0,0,1,8.945-12.846h2.3q.406,0,.8.034A9.255,9.255,0,0,1,560.217,213.59Z" transform="translate(-486.168 -167.849)" fill="#fff"/>
          <path id="パス_32129" data-name="パス 32129" d="M657.07,266.7V250.834l-.857,1.125a3.219,3.219,0,0,1-4.5.428,3.17,3.17,0,0,1-.429-4.5l5.788-7.128v-.483h-1.715a3.537,3.537,0,1,1,0-7.075h1.715v-5.52a3.43,3.43,0,1,1,6.86,0v5.52h1.018a3.537,3.537,0,1,1,0,7.075H663.93v.429l3.7,3.538a3.2,3.2,0,0,1,.054,4.5,3.108,3.108,0,0,1-3.752.643V266.7a3.43,3.43,0,1,1-6.86,0Zm41.053.536a3.6,3.6,0,0,1-3.43,3.752l-1.018.054a5.378,5.378,0,0,1-4.287-2.144l-7.182-7.5-6.7,8.039a3.764,3.764,0,0,1-5.145.59,3.6,3.6,0,0,1-.429-4.985l7.449-8.949-3.805-4.288a3.507,3.507,0,0,1,.375-4.984,3.548,3.548,0,0,1,4.984.375l2.841,3.215,3.483-4.288a3.549,3.549,0,0,1,5.574,4.395l-4.181,5.2,7.664,7.932h.375A3.456,3.456,0,0,1,698.123,267.233Zm-1.286-38.105a3.5,3.5,0,0,1-3.537,3.537H673.9a3.537,3.537,0,1,1,0-7.075h5.842V223.5a3.819,3.819,0,0,1,3.805-3.805A3.774,3.774,0,0,1,687.3,223.5v2.09h6A3.534,3.534,0,0,1,696.836,229.128Zm-17.686,5.788a3.608,3.608,0,0,1-.107,5.038l-2.411,2.037a3.546,3.546,0,0,1-4.823-5.2l2.358-2.036A3.545,3.545,0,0,1,679.15,234.916Zm16.561,2.2a3.5,3.5,0,0,1,.161,4.984,3.559,3.559,0,0,1-5.038.161l-2.358-2.036a3.608,3.608,0,0,1-.161-5.038,3.558,3.558,0,0,1,5.038-.107Z" transform="translate(-538.886 -167.901)" fill="#ed8934"/>
          <path id="パス_32129_-_アウトライン" data-name="パス 32129 - アウトライン" d="M693.674,271.038l1.018-.054a3.6,3.6,0,0,0,3.43-3.752,3.456,3.456,0,0,0-3.43-3.591h-.375l-7.664-7.932,4.181-5.2a3.549,3.549,0,0,0-5.574-4.395l-3.483,4.288-2.841-3.215a3.548,3.548,0,0,0-4.984-.375,3.507,3.507,0,0,0-.375,4.984l3.805,4.288-7.449,8.949a3.6,3.6,0,0,0,.429,4.985,3.764,3.764,0,0,0,5.145-.59l6.7-8.039,7.182,7.5a5.378,5.378,0,0,0,4.287,2.144m-33.174-.911a3.454,3.454,0,0,0,3.43-3.43v-17.31a3.108,3.108,0,0,0,3.752-.643,3.2,3.2,0,0,0-.054-4.5l-3.7-3.538v-.429h1.018a3.537,3.537,0,1,0,0-7.075H663.93v-5.52a3.43,3.43,0,1,0-6.86,0v5.52h-1.715a3.537,3.537,0,1,0,0,7.075h1.715v.483l-5.788,7.128a3.17,3.17,0,0,0,.429,4.5,3.219,3.219,0,0,0,4.5-.428l.857-1.125V266.7a3.454,3.454,0,0,0,3.43,3.43m32.788-26.9a3.538,3.538,0,0,0,2.423-6.111l-2.358-2.036a3.558,3.558,0,0,0-5.038.107,3.608,3.608,0,0,0,.161,5.038l2.358,2.036a3.606,3.606,0,0,0,2.454.966m-19.036-.287a3.411,3.411,0,0,0,2.379-.947l2.411-2.037a3.608,3.608,0,0,0,.107-5.038,3.545,3.545,0,0,0-4.984-.161l-2.358,2.036a3.561,3.561,0,0,0-.161,5.038,3.617,3.617,0,0,0,2.605,1.108M693.3,232.665a3.537,3.537,0,0,0,0-7.075h-6V223.5a3.774,3.774,0,0,0-3.751-3.805,3.819,3.819,0,0,0-3.805,3.805v2.09H673.9a3.537,3.537,0,1,0,0,7.075h19.4m.375,44.373-.154,0a11.438,11.438,0,0,1-8.933-4.542l-2.053-2.126-2.419,2.9a9.512,9.512,0,0,1-7.476,3.5,9.82,9.82,0,0,1-5.9-1.972q-.318-.261-.608-.541A9.425,9.425,0,0,1,651.07,266.7v-7.976a9.223,9.223,0,0,1-6.489-7.908,9.234,9.234,0,0,1,2.107-6.787l1.153-1.42a9.53,9.53,0,0,1,3.229-14.387v-.538a9.426,9.426,0,0,1,16.77-5.914,9.494,9.494,0,0,1,6.058-2.177h.656a9.767,9.767,0,0,1,17.933,0h.812a9.533,9.533,0,0,1,7.917,14.849,9.508,9.508,0,0,1-3.67,13.778,9.363,9.363,0,0,1-1.994,6l-.907,1.128,2.608,2.7a9.39,9.39,0,0,1,6.87,9.188,9.606,9.606,0,0,1-9.43,9.752l-.7.045Q693.832,277.038,693.674,277.038Z" transform="translate(-538.886 -167.901)" fill="#fff"/>
          <path id="パス_32130" data-name="パス 32130" d="M764.664,243.74a3.561,3.561,0,0,1,.107-5.038l9.057-8.9a3.557,3.557,0,0,1,5.038,0,3.512,3.512,0,0,1-.053,5.038l-1.447,1.447v31.352a3.537,3.537,0,0,1-7.074,0V243.2l-.59.59A3.608,3.608,0,0,1,764.664,243.74Zm45.608,20.526a3.5,3.5,0,0,1-3.483,3.591h-1.072a4.946,4.946,0,0,1-3.162-1.662l-5.038-4.77V269.2a3.537,3.537,0,0,1-7.075,0V261.48l-5.949,5.2c-1.93,1.554-3.8,1.554-5.252.215a3.623,3.623,0,0,1,0-5.092L787.227,255h-5.2a3.538,3.538,0,1,1,0-7.075h8.414v-1.447a3.537,3.537,0,0,1,7.075,0v1.447h8.146a3.537,3.537,0,0,1,0,7.075h-4.77l6.592,5.681A3.685,3.685,0,0,1,810.272,264.266ZM805.931,226.7v12.219c0,1.929-1.554,3.215-3.537,3.43a119.476,119.476,0,0,1-15.327.107,3.6,3.6,0,0,1-3.537-3.537V226.7a3.459,3.459,0,0,1,3.644-3.537h15.22A3.534,3.534,0,0,1,805.931,226.7Zm-7.074,3.537H790.6v5.252a52.912,52.912,0,0,0,8.253,0Z" transform="translate(-594.306 -169.598)" fill="#ed8934"/>
          <path id="パス_32130_-_アウトライン" data-name="パス 32130 - アウトライン" d="M787.066,223.159a3.454,3.454,0,0,0-3.537,3.539v12.219a3.6,3.6,0,0,0,3.537,3.537,119.476,119.476,0,0,0,15.327-.107c1.983-.215,3.537-1.5,3.537-3.43V226.7a3.534,3.534,0,0,0-3.537-3.537H787.066m7.228,12.491a35.116,35.116,0,0,1-3.691-.164v-5.252h8.253v5.252c-1.2.09-2.886.164-4.562.164m-17.927-6.89a3.655,3.655,0,0,0-2.539,1.045l-9.057,8.9a3.561,3.561,0,0,0-.107,5.038,3.608,3.608,0,0,0,5.038.054l.59-.59v24.439a3.537,3.537,0,0,0,7.074,0V236.291l1.447-1.447a3.538,3.538,0,0,0-2.445-6.083m17.612,14.176a3.5,3.5,0,0,0-3.537,3.537v1.447h-8.414a3.538,3.538,0,1,0,0,7.075h5.2l-7.986,6.806a3.623,3.623,0,0,0,0,5.092c1.447,1.34,3.323,1.34,5.252-.215l5.949-5.2V269.2a3.537,3.537,0,0,0,7.075,0v-7.771l5.038,4.77a4.946,4.946,0,0,0,3.162,1.662h1.072a3.5,3.5,0,0,0,3.483-3.591,3.685,3.685,0,0,0-2.787-3.59L800.893,255h4.77a3.537,3.537,0,0,0,0-7.075h-8.146v-1.447a3.534,3.534,0,0,0-3.538-3.537m-6.913-25.777.274,0,15.053,0a9.548,9.548,0,0,1,9.537,9.537v12.219a9.13,9.13,0,0,1-1.163,4.488,9.527,9.527,0,0,1,2.482,13.826,9.844,9.844,0,0,1,3.022,7.036,9.321,9.321,0,0,1-2.691,6.717,9.534,9.534,0,0,1-6.792,2.874h-1.072a9.056,9.056,0,0,1-3.11-.594,9.537,9.537,0,0,1-17.321-.148,9.564,9.564,0,0,1-4.227.742,9.533,9.533,0,0,1-16.766-6.214v-17.3a9.516,9.516,0,0,1-3.684-15.962l9.016-8.856a9.662,9.662,0,0,1,6.744-2.765,9.562,9.562,0,0,1,1.9.19A9.425,9.425,0,0,1,787.067,217.159Z" transform="translate(-594.306 -169.598)" fill="#fff"/>
          <path id="パス_32131" data-name="パス 32131" d="M925.949,272.305h-.482a4.631,4.631,0,0,1-3.323-1.447l-8.2-9.111-9.379,9.647a3.625,3.625,0,0,1-5.091.161,3.542,3.542,0,0,1-.107-4.984l9.754-10.022c-1.34-.108-2.84-.215-3.752-.322a3.231,3.231,0,0,1-3-3.055v-9.7a3.042,3.042,0,0,1,3-3.055h5.306v-1.233h-3.7a2.81,2.81,0,0,1-2.573-3.055c-.107,0-.911.589-.965.589a3.36,3.36,0,0,1-4.288-.75.052.052,0,0,0-.054-.053c-.858,3.376-1.768,6.967-1.768,6.967l3.59,10.29a3.265,3.265,0,0,1-1.662,4.287l-2.948,1.287a3.234,3.234,0,0,1-3.912-2.09,3.054,3.054,0,0,1,1.769-3.912l.161-.054-2.3-6.7v22.991a3.248,3.248,0,0,1-3.269,3.269,3.2,3.2,0,0,1-3.216-3.269V229.591a3.174,3.174,0,0,1,3.109-2.733l8.95.054a3.154,3.154,0,0,1,2.895,3.59c1.929-1.5,6.378-5.038,6.378-5.038a9.247,9.247,0,0,1,6.538-2.2,9.932,9.932,0,0,1,6.324,2.036c1.179.8,7.557,5.467,7.557,5.467a3.859,3.859,0,0,1,.643,5.252c-.965,1.286-3.216,1.34-4.395.8-.107-.054-1.447-1.018-1.554-1.072v.375a3.042,3.042,0,0,1-3,3.055h-2.251v1.233h5.091a3.053,3.053,0,0,1,3.055,3.055v9.7a2.991,2.991,0,0,1-2.787,3.055c-.8.161-2.627.214-3.591.322l8.253,8.575a3.562,3.562,0,0,1,2.787,3.484A3.433,3.433,0,0,1,925.949,272.305Zm-32.1-39.284-1.822-.054v8.2Zm16.829,13.505h-2.251v3.859c.536.054,1.715.054,2.251.107Zm7.932-13.452c-1.287-1.018-2.787-2.036-3.7-2.68a2.471,2.471,0,0,0-1.447-.482,2.886,2.886,0,0,0-1.608.536c-.8.643-2.144,1.662-3.323,2.626Zm-1.876,17.311c.482,0,1.607-.053,2.09-.107v-3.751h-2.09Z" transform="translate(-654.005 -169.651)" fill="#ed8934"/>
          <path id="パス_32131_-_アウトライン" data-name="パス 32131 - アウトライン" d="M901.954,272.521a3.544,3.544,0,0,0,2.612-1.127l9.379-9.647,8.2,9.111a4.631,4.631,0,0,0,3.323,1.447h.482a3.433,3.433,0,0,0,3.591-3.7,3.562,3.562,0,0,0-2.787-3.484l-8.253-8.575c.964-.108,2.787-.161,3.591-.322a2.991,2.991,0,0,0,2.787-3.055v-9.7a3.053,3.053,0,0,0-3.055-3.055h-5.091v-1.233h2.251a3.042,3.042,0,0,0,3-3.055v-.375c.107.054,1.447,1.018,1.554,1.072,1.179.536,3.43.482,4.395-.8a3.859,3.859,0,0,0-.643-5.252s-6.378-4.663-7.557-5.467a9.932,9.932,0,0,0-6.324-2.036,9.247,9.247,0,0,0-6.538,2.2s-4.448,3.537-6.378,5.038a3.154,3.154,0,0,0-2.895-3.59l-8.95-.054a3.174,3.174,0,0,0-3.109,2.733v39.391a3.2,3.2,0,0,0,3.216,3.269,3.248,3.248,0,0,0,3.269-3.269V245.991l2.3,6.7-.161.054a3.054,3.054,0,0,0-1.769,3.912,3.234,3.234,0,0,0,3.912,2.09l2.948-1.287a3.265,3.265,0,0,0,1.662-4.287l-3.59-10.29s.911-3.591,1.768-6.967a.052.052,0,0,1,.054.053,3.36,3.36,0,0,0,4.288.75c.054,0,.858-.589.965-.589a2.81,2.81,0,0,0,2.573,3.055h3.7v1.233H905.37a3.042,3.042,0,0,0-3,3.055v9.7a3.231,3.231,0,0,0,3,3.055c.912.107,2.412.214,3.752.322l-9.754,10.022a3.542,3.542,0,0,0,.107,4.984,3.643,3.643,0,0,0,2.479.966m6.471-25.994h2.251v3.966c-.536-.054-1.716-.054-2.251-.107v-3.859m8.307,0h2.09v3.751c-.483.054-1.608.107-2.09.107v-3.859m-24.707-13.559,1.822.054-1.822,8.146v-8.2m21.438-3.055a2.471,2.471,0,0,1,1.447.482c.911.643,2.411,1.662,3.7,2.68H908.532c1.179-.964,2.519-1.982,3.323-2.626a2.886,2.886,0,0,1,1.608-.536m-11.508,48.608h0a9.618,9.618,0,0,1-6.556-2.564q-.133-.128-.26-.259a9.227,9.227,0,0,1-15.6-6.716V229.591a9.311,9.311,0,0,1,9.109-8.733l8.986.054a8.514,8.514,0,0,1,4.019,1.028l1.483-1.172a15.321,15.321,0,0,1,10.272-3.5,15.818,15.818,0,0,1,9.678,3.061c1.231.839,7.744,5.6,7.744,5.6a9.911,9.911,0,0,1,1.962,13.615,8.72,8.72,0,0,1-2.119,2.012,9.056,9.056,0,0,1,.2,1.918v9.7a8.961,8.961,0,0,1-1.911,5.6L930.146,260a9.532,9.532,0,0,1,5.394,8.611,9.433,9.433,0,0,1-9.591,9.7,10.9,10.9,0,0,1-7.924-3.084l-4.243-4.7-4.915,5.055A9.5,9.5,0,0,1,901.954,278.521Z" transform="translate(-654.005 -169.651)" fill="#fff"/>
        </g>
      </g>
      <g id="グループ_406298" data-name="グループ 406298" transform="translate(106.874 0)">
        <g id="グループ_259279" data-name="グループ 259279" clip-path="url(#clip-path)">
          <path id="パス_32156" data-name="パス 32156" d="M68.305,51.208V37.58a1.389,1.389,0,0,0-1-1.389L52.816,31.454a3.952,3.952,0,0,0-2.362,0L35.923,36.2a1.389,1.389,0,0,0-1,1.389V51.222A19.38,19.38,0,0,0,50.329,70.171a6.2,6.2,0,0,0,2.612,0A19.366,19.366,0,0,0,68.305,51.208m-5.557,0a13.893,13.893,0,0,1-10.975,13.5h-.139V50.722H40.521V40.553l11.114-3.64V50.722H62.748Z" transform="translate(-19.799 -17.73)" fill="#eb8935"/>
          <path id="パス_32157" data-name="パス 32157" d="M33.211,8.857a21.665,21.665,0,0,1,18.052,9.919l.456-.18,11.13-4.22a1.6,1.6,0,0,0,.016-2.951L34.07.1a1.435,1.435,0,0,0-1.044,0L3.572,11.448a1.6,1.6,0,0,0,0,2.952l10.476,4.04a1.454,1.454,0,0,0,1.705-.522A21.593,21.593,0,0,1,33.211,8.857" transform="translate(-1.468 0.001)" fill="#ecb435"/>
          <path id="パス_32158" data-name="パス 32158" d="M4.114,38.922V29.629H1.126v9.293A2.616,2.616,0,0,0,0,41.073v5.889H5.241V41.073a2.616,2.616,0,0,0-1.126-2.151" transform="translate(0 -16.798)" fill="#ecb435"/>
          <path id="パス_32159" data-name="パス 32159" d="M60.184,104.421a19.575,19.575,0,0,1-35.574,0H18.664a25.1,25.1,0,0,0,47.465,0Z" transform="translate(-10.582 -59.202)" fill="#ecb435"/>
        </g>
      </g>
    </g>
  </g>
</svg>
