<svg xmlns="http://www.w3.org/2000/svg" width="522.377" height="265.767" viewBox="0 0 522.377 265.767"><g transform="translate(-1276.708 -277.507)"><g transform="translate(1282.709 280.507)"><g transform="translate(0)"><path d="M428.425,54.805a1.74,1.74,0,0,1,1.719-1.745h5.471V42.04h-3.934a1.719,1.719,0,1,1,0-3.438h10.864a1.719,1.719,0,0,1,0,3.438h-3.491V53.06H444a1.732,1.732,0,1,1,0,3.465H430.144A1.734,1.734,0,0,1,428.425,54.805Z" transform="translate(-428.425 -36.622)" fill="#ed8934"/><path d="M444,56.524a1.732,1.732,0,1,0,0-3.465h-4.949V42.04h3.491a1.719,1.719,0,0,0,0-3.438H431.681a1.719,1.719,0,1,0,0,3.438h3.934V53.06h-5.471a1.732,1.732,0,0,0,0,3.465H444m0,3H430.144a4.732,4.732,0,0,1,0-9.465h2.471V45.04h-.934a4.737,4.737,0,0,1-4.745-4.719,4.673,4.673,0,0,1,1.412-3.365,4.735,4.735,0,0,1,3.333-1.355h10.864a4.719,4.719,0,0,1,0,9.438h-.491V50.06H444a4.732,4.732,0,1,1,0,9.465Z" transform="translate(-428.425 -36.622)" fill="#fff"/><path d="M497.433,54.278a1.69,1.69,0,0,1,1.693-1.693h16.75a1.69,1.69,0,0,1,1.693,1.693A1.713,1.713,0,0,1,515.876,56h-16.75A1.713,1.713,0,0,1,497.433,54.278Z" transform="translate(-465.678 -44.17)" fill="#ed8934"/><path d="M499.126,52.585a1.69,1.69,0,0,0-1.693,1.693A1.713,1.713,0,0,0,499.126,56h16.75a1.713,1.713,0,0,0,1.693-1.72,1.69,1.69,0,0,0-1.693-1.693h-16.75m0-3h16.75a4.706,4.706,0,0,1,0,9.413h-16.75a4.706,4.706,0,0,1,0-9.413Z" transform="translate(-465.678 -44.17)" fill="#fff"/><path d="M572.708,56.306a1.789,1.789,0,0,1,.1-2.475,83.224,83.224,0,0,0,9.039-9.873c.938-1.3.912-2.292.886-3.985h-6.851a1.732,1.732,0,1,1,0-3.465h8.388a1.886,1.886,0,0,1,1.876,2.058c0,3.881.052,5.105-1.355,7.138,0,0-.469.573-1.251,1.511l6.278,6.591a1.734,1.734,0,0,1-.13,2.449,1.782,1.782,0,0,1-2.448-.1l-5.914-6.382c-1.928,2.162-4.142,4.741-6.174,6.643A1.731,1.731,0,0,1,572.708,56.306Z" transform="translate(-506.072 -35.491)" fill="#ed8934"/><path d="M573.989,56.867a1.711,1.711,0,0,0,1.167-.457c2.032-1.9,4.246-4.481,6.174-6.643l5.914,6.382a1.782,1.782,0,0,0,2.448.1,1.734,1.734,0,0,0,.13-2.449l-6.278-6.591c.782-.937,1.251-1.511,1.251-1.511,1.407-2.032,1.355-3.256,1.355-7.138a1.886,1.886,0,0,0-1.876-2.058h-8.388a1.732,1.732,0,1,0,0,3.465h6.851c.026,1.693.052,2.683-.886,3.985a83.223,83.223,0,0,1-9.039,9.873,1.789,1.789,0,0,0-.1,2.475,1.743,1.743,0,0,0,1.281.562m0,3a4.761,4.761,0,0,1-3.464-1.5,4.689,4.689,0,0,1-1.259-3.456,4.81,4.81,0,0,1,1.461-3.233,85.012,85.012,0,0,0,8.115-8.7h-2.955a4.732,4.732,0,1,1,0-9.465h8.388a4.884,4.884,0,0,1,4.876,5.135v.322c0,3.626,0,5.531-1.635,8.067l4.476,4.7a4.6,4.6,0,0,1,1.276,3.343,4.826,4.826,0,0,1-1.536,3.38,4.636,4.636,0,0,1-3.159,1.238,4.952,4.952,0,0,1-3.367-1.342q-.084-.078-.162-.162l-3.666-3.956c-1.355,1.516-2.8,3.08-4.171,4.368l-.012.011A4.7,4.7,0,0,1,573.989,59.867Z" transform="translate(-506.072 -35.491)" fill="#fff"/><path d="M660.48,43.052a1.723,1.723,0,0,1-1.719,1.745h-4.246A38.046,38.046,0,0,1,651.1,55.452a1.853,1.853,0,0,1-2.4.86,1.735,1.735,0,0,1-.755-2.318c1.771-3.856,3.021-6.9,3.178-9.2h-7.45a1.732,1.732,0,0,1,0-3.464H651a23.943,23.943,0,0,0-.677-2.5l-3.126.781a1.731,1.731,0,0,1-.833-3.36l7.685-1.9a1.729,1.729,0,0,1,2.084,1.25,1.7,1.7,0,0,1-1.251,2.084l-1.3.364c.312,1.251.677,2.267.86,3.283h4.325A1.718,1.718,0,0,1,660.48,43.052Z" transform="translate(-543.699 -34.299)" fill="#ed8934"/><path d="M654.46,34.3a1.663,1.663,0,0,0-.414.053l-7.685,1.9a1.731,1.731,0,0,0,.833,3.36l3.126-.781a23.943,23.943,0,0,1,.677,2.5h-7.32a1.732,1.732,0,0,0,0,3.464h7.45c-.156,2.293-1.407,5.34-3.178,9.2a1.735,1.735,0,0,0,.755,2.318,1.853,1.853,0,0,0,2.4-.86A38.046,38.046,0,0,0,654.515,44.8h4.246a1.732,1.732,0,0,0,0-3.464h-4.325c-.182-1.016-.547-2.032-.86-3.283l1.3-.364A1.7,1.7,0,0,0,656.13,35.6a1.74,1.74,0,0,0-1.67-1.3m0-3a4.727,4.727,0,0,1,4.575,3.555l.005.021a4.7,4.7,0,0,1-.459,3.458h.18a4.736,4.736,0,0,1,3.364,8.052,4.672,4.672,0,0,1-3.364,1.412H657.01a45.857,45.857,0,0,1-3.176,8.9l-.032.068a4.874,4.874,0,0,1-4.371,2.713,4.631,4.631,0,0,1-4.439-3.264,4.882,4.882,0,0,1,.228-3.459l0-.01c.75-1.633,1.532-3.379,2.1-4.944h-3.643a4.734,4.734,0,0,1-1.571-9.2,4.709,4.709,0,0,1,3.526-5.259l.007,0,7.676-1.9A4.667,4.667,0,0,1,654.46,31.3Z" transform="translate(-543.699 -34.299)" fill="#fff"/><path d="M732.864,49.084a2.42,2.42,0,0,1-.182.86,13.768,13.768,0,0,1-2.969,4.194,1.95,1.95,0,0,1-1.225.443,1.47,1.47,0,0,1-1.432-1.537,1.571,1.571,0,0,1,.547-1.2c.417-.443.755-.834,1.042-1.2h-3.907c.235,1.719,1.12,6.486,1.719,9.716a1.377,1.377,0,0,1-1.3,1.589,1.628,1.628,0,0,1-1.824-1.3s-1.692-9.717-1.745-10h-2.657a1.568,1.568,0,0,1-1.563-1.563,1.518,1.518,0,0,1,1.563-1.563h2.084c-.078-.521-.286-1.328-.39-1.953a1.522,1.522,0,0,1,1.328-1.667,1.669,1.669,0,0,1,1.824,1.276s.364,2.084.417,2.345h7.086A1.6,1.6,0,0,1,732.864,49.084Z" transform="translate(-584.406 -39.471)" fill="#ed8934"/><path d="M722.166,43.881a1.147,1.147,0,0,0-.217.02,1.522,1.522,0,0,0-1.328,1.667c.1.625.312,1.432.39,1.953h-2.084a1.519,1.519,0,0,0-1.563,1.563,1.568,1.568,0,0,0,1.563,1.563h2.657c.053.286,1.745,10,1.745,10a1.628,1.628,0,0,0,1.824,1.3,1.377,1.377,0,0,0,1.3-1.589c-.6-3.23-1.484-8-1.719-9.716h3.907c-.287.364-.625.755-1.042,1.2a1.571,1.571,0,0,0-.547,1.2,1.47,1.47,0,0,0,1.432,1.537,1.95,1.95,0,0,0,1.225-.443,13.768,13.768,0,0,0,2.969-4.194,2.42,2.42,0,0,0,.182-.86,1.6,1.6,0,0,0-1.589-1.563H724.19c-.052-.26-.417-2.345-.417-2.345a1.684,1.684,0,0,0-1.607-1.3m0-3a4.713,4.713,0,0,1,2.786.942,4.516,4.516,0,0,1,1.75,2.7h4.574a4.693,4.693,0,0,1,3.019,1.14,4.521,4.521,0,0,1,1.57,3.424,5.439,5.439,0,0,1-.414,2.015l-.016.038a16.751,16.751,0,0,1-3.685,5.2l-.02.018a4.907,4.907,0,0,1-2.743,1.2c.138.749.272,1.472.393,2.124l.026.138.006.036a4.27,4.27,0,0,1-.757,3.273,4.542,4.542,0,0,1-3.072,1.8,4.612,4.612,0,0,1-5.2-3.718l-.007-.039c-.407-2.339-.941-5.4-1.31-7.518h-.136a4.568,4.568,0,0,1-4.563-4.563,4.506,4.506,0,0,1,3.3-4.394,4.513,4.513,0,0,1,3.748-3.742A4.162,4.162,0,0,1,722.166,40.881Z" transform="translate(-584.406 -39.471)" fill="#fff"/><path d="M784.4,46.263a1.738,1.738,0,0,1,.782-2.318c7.268-3.8,10.472-6.252,11.827-7.737a1.924,1.924,0,0,1,2.5-.312,1.712,1.712,0,0,1,.209,2.449,17.449,17.449,0,0,1-3.126,2.761v13.7a1.735,1.735,0,0,1-1.72,1.719,1.718,1.718,0,0,1-1.719-1.719V43.4c-1.719,1.016-3.829,2.318-6.461,3.647A1.68,1.68,0,0,1,784.4,46.263Z" transform="translate(-620.494 -34.983)" fill="#ed8934"/><path d="M794.872,56.527a1.735,1.735,0,0,0,1.72-1.719v-13.7a17.449,17.449,0,0,0,3.126-2.761,1.712,1.712,0,0,0-.209-2.449,1.924,1.924,0,0,0-2.5.312c-1.354,1.485-4.559,3.934-11.827,7.737a1.738,1.738,0,0,0-.782,2.318,1.68,1.68,0,0,0,2.293.781c2.631-1.328,4.741-2.631,6.461-3.647v11.41a1.718,1.718,0,0,0,1.719,1.719m0,3a4.724,4.724,0,0,1-4.719-4.719v-6.2c-.658.361-1.354.731-2.088,1.1a4.718,4.718,0,0,1-6.583-5.759,4.811,4.811,0,0,1,2.293-2.658l.016-.008c7.532-3.941,10.125-6.141,11-7.1l.015-.017a5.009,5.009,0,0,1,3.663-1.6,4.739,4.739,0,0,1,2.8.9l.054.04a4.637,4.637,0,0,1,1.792,3.241,4.724,4.724,0,0,1-1.144,3.58,19.151,19.151,0,0,1-2.378,2.27V54.807A4.725,4.725,0,0,1,794.872,59.527Z" transform="translate(-620.494 -34.983)" fill="#fff"/><path d="M855.918,55.6a1.757,1.757,0,0,1-.391-2.422,43.868,43.868,0,0,0,3.595-6.513,5.19,5.19,0,0,0,.364-2.345c0-1.876.026-2.579-.025-4.767A1.719,1.719,0,1,1,862.9,39.5c0,2.709.026,4.793-.026,6.044-.078,1.537-1.537,5.053-4.455,9.534A1.86,1.86,0,0,1,855.918,55.6Zm19.98-7.164a1.786,1.786,0,0,1,.026,2.5,15.4,15.4,0,0,1-4.637,4.246,10.091,10.091,0,0,1-4.454,1.276,1.635,1.635,0,0,1-1.719-1.8V38.2a1.72,1.72,0,1,1,3.439,0V52.758a3.218,3.218,0,0,0,1.146-.417,13.5,13.5,0,0,0,3.8-3.647A1.659,1.659,0,0,1,875.9,48.434Z" transform="translate(-658.824 -35.461)" fill="#ed8934"/><path d="M866.777,56.458h.056a10.091,10.091,0,0,0,4.454-1.276,15.4,15.4,0,0,0,4.637-4.246,1.786,1.786,0,0,0-.026-2.5,1.659,1.659,0,0,0-2.4.261,13.5,13.5,0,0,1-3.8,3.647,3.218,3.218,0,0,1-1.146.417V38.2a1.72,1.72,0,1,0-3.439,0V54.66a1.634,1.634,0,0,0,1.663,1.8m-9.9-.583a1.841,1.841,0,0,0,1.544-.8c2.917-4.481,4.377-8,4.455-9.534.052-1.251.026-3.334.026-6.044a1.719,1.719,0,1,0-3.438.052c.052,2.188.025,2.891.025,4.767a5.19,5.19,0,0,1-.364,2.345,43.868,43.868,0,0,1-3.595,6.513,1.757,1.757,0,0,0,.391,2.422,1.719,1.719,0,0,0,.956.278m9.9,3.583h0a4.6,4.6,0,0,1-3.329-1.372,4.827,4.827,0,0,1-1.332-3.264c-.373.622-.768,1.254-1.181,1.889a4.864,4.864,0,0,1-4.06,2.165,4.7,4.7,0,0,1-2.621-.782l-.018-.012a4.739,4.739,0,0,1-1.288-6.437l.017-.028c.266-.437.506-.829.726-1.189a32.635,32.635,0,0,0,2.679-4.957l.007-.017c.059-.134.11-.25.11-1.136,0-.516,0-.943,0-1.338,0-1.05.008-1.808-.028-3.358q0-.035,0-.071a4.725,4.725,0,0,1,4.651-4.745,4.668,4.668,0,0,1,2.04.423,4.715,4.715,0,0,1,8.4,2.967v8.192a4.742,4.742,0,0,1,3.315-1.355,4.5,4.5,0,0,1,3.068,1.2l.041.039a4.761,4.761,0,0,1,.33,6.486l-.012.015a18.32,18.32,0,0,1-5.486,4.994,13,13,0,0,1-5.892,1.689l-.14,0Z" transform="translate(-658.824 -35.461)" fill="#fff"/><path d="M945.851,47.483s-4.3-1.328-6.9-2.136v9.716a1.732,1.732,0,0,1-3.465,0V36.7a1.732,1.732,0,0,1,3.465,0v5.079c2.813.808,7.971,2.423,7.971,2.423a1.7,1.7,0,0,1,1.12,2.136A1.77,1.77,0,0,1,945.851,47.483Zm.469-9.222v1.432a1.289,1.289,0,1,1-2.579,0V38.261a1.289,1.289,0,0,1,2.579,0Zm3.282,0v1.432a1.289,1.289,0,1,1-2.579,0V38.261a1.289,1.289,0,0,1,2.579,0Z" transform="translate(-702.155 -34.666)" fill="#ed8934"/><path d="M937.2,56.783a1.723,1.723,0,0,0,1.745-1.72V45.347c2.6.808,6.9,2.136,6.9,2.136a1.77,1.77,0,0,0,2.188-1.146,1.7,1.7,0,0,0-1.12-2.136s-5.158-1.615-7.971-2.423V36.7a1.732,1.732,0,0,0-3.465,0V55.063a1.718,1.718,0,0,0,1.719,1.72M948.3,41a1.29,1.29,0,0,0,1.3-1.3V38.261a1.289,1.289,0,0,0-2.579,0v1.432A1.284,1.284,0,0,0,948.3,41m-3.256,0a1.285,1.285,0,0,0,1.277-1.3V38.261a1.289,1.289,0,0,0-2.579,0v1.432a1.29,1.29,0,0,0,1.3,1.3M937.2,59.783a4.725,4.725,0,0,1-4.719-4.72V36.7a4.736,4.736,0,0,1,8.053-3.364,4.67,4.67,0,0,1,1.251,2.134,4.3,4.3,0,0,1,3.256-1.484,4.277,4.277,0,0,0,3.256,0,4.3,4.3,0,0,1,4.3,4.276v1.432a4.3,4.3,0,0,1-2.144,3.729q.073.123.139.25a4.646,4.646,0,0,1,.3,3.587l-.017.05a4.788,4.788,0,0,1-4.515,3.252,4.7,4.7,0,0,1-1.4-.214l-3.012-.931v5.647a4.673,4.673,0,0,1-1.412,3.364A4.735,4.735,0,0,1,937.2,59.783Z" transform="translate(-702.155 -34.666)" fill="#fff"/></g></g><g transform="translate(1282.709 342.574)"><path d="M437.445,160.977a15.515,15.515,0,0,1,.3-4.863c.425-1.7,2.8-4.134,5.592-2.918,2.067.912,2.128,2.675,1.824,5.714-.365,3.951,2.857,4.8,9.421,4.924a40.93,40.93,0,0,0,9.057-.912c2.553-.425,4.377.851,4.741,2.736a4.46,4.46,0,0,1-3.221,5.166,45.612,45.612,0,0,1-10.759,1.033C440.423,171.676,437.749,164.928,437.445,160.977Zm.243-27.84a3.97,3.97,0,0,1,4.012-4.012h22.247a4.377,4.377,0,0,1,4.316,4.437,7.439,7.439,0,0,1-.79,2.189l-5.714,8.267a4.16,4.16,0,0,1-5.714,1.033,3.92,3.92,0,0,1-.912-5.592l1.7-2.31H441.7A4.008,4.008,0,0,1,437.688,133.138Z" transform="translate(-437.375 -120.785)" fill="#ed8934"/><path d="M454.4,171.858a45.612,45.612,0,0,0,10.759-1.033,4.46,4.46,0,0,0,3.221-5.166c-.364-1.885-2.188-3.161-4.741-2.736a40.93,40.93,0,0,1-9.057.912c-6.565-.123-9.787-.973-9.421-4.924.3-3.039.243-4.8-1.824-5.714-2.8-1.216-5.167,1.216-5.592,2.918a15.515,15.515,0,0,0-.3,4.863c.3,3.951,2.978,10.7,16.959,10.88m3.943-26.091a4.171,4.171,0,0,0,3.412-1.748l5.714-8.267a7.439,7.439,0,0,0,.79-2.189,4.377,4.377,0,0,0-4.316-4.437H441.7a4.012,4.012,0,1,0,0,8.024h15.136l-1.7,2.31a3.92,3.92,0,0,0,.912,5.592,4,4,0,0,0,2.3.715M454.4,177.858h-.078c-20.064-.261-22.572-12.634-22.863-16.42a21.428,21.428,0,0,1,.416-6.567,10.548,10.548,0,0,1,9.941-8,9.764,9.764,0,0,1,3.913.826c5.119,2.258,5.664,6.856,5.544,9.952.747.085,1.838.16,3.421.19a34.253,34.253,0,0,0,6.913-.656l1.045-.176c.326-.054,1.616-.164,1.947-.164a9.6,9.6,0,0,1,9.672,7.681,10.436,10.436,0,0,1-7.831,12.164A51.582,51.582,0,0,1,454.4,177.858Zm3.943-26.091a9.96,9.96,0,0,1-5.742-1.8,9.449,9.449,0,0,1-4.044-6.064q-.076-.374-.123-.753H441.7a10.012,10.012,0,1,1,0-20.024h22.247a10.349,10.349,0,0,1,7.622,3.4,9.99,9.99,0,0,1,2.668,7.595,10.619,10.619,0,0,1-1.066,3.584,13.789,13.789,0,0,1-.762,1.457l-5.714,8.267A10.177,10.177,0,0,1,458.347,151.767Z" transform="translate(-437.375 -120.785)" fill="#fff"/><path d="M520.918,145.125l-5.836-16.534a4,4,0,0,1,7.6-2.492l4.376,13.494c1.884-1.7,3.586-3.16,8.327-7.172a4.1,4.1,0,0,1,5.714.365,3.974,3.974,0,0,1-.425,5.653c-11.488,9.786-11.245,9.3-16.291,13.98-2.675,2.492-4.012,4.985-3.4,7.355.791,2.8,2.493,3.4,8.145,3.646,4.134.183,6.687-.486,11.367-1.215a3.85,3.85,0,0,1,4.437,3.4,4.508,4.508,0,0,1-3.586,4.8c-5.045.79-7.9,1.338-12.522,1.155-12.035-.486-15.378-6.261-15.561-11.124C513.016,155.032,514.232,151.507,520.918,145.125Zm29.906-18.662v3.344a3.009,3.009,0,1,1-6.018,0v-3.344a3.009,3.009,0,1,1,6.018,0Zm7.659,0v3.344a3.009,3.009,0,1,1-6.018,0v-3.344a3.009,3.009,0,1,1,6.018,0Z" transform="translate(-455.508 -119.399)" fill="#ed8934"/><path d="M518.912,123.327a3.83,3.83,0,0,0-1.276.219,3.948,3.948,0,0,0-2.554,5.045l5.836,16.534c-6.687,6.382-7.9,9.907-7.659,15.317.183,4.863,3.526,10.637,15.561,11.124,4.62.183,7.477-.365,12.522-1.155a4.508,4.508,0,0,0,3.586-4.8,3.85,3.85,0,0,0-4.437-3.4c-4.68.729-7.234,1.4-11.367,1.215-5.653-.243-7.355-.851-8.145-3.646-.607-2.37.73-4.863,3.4-7.355,5.045-4.681,4.8-4.194,16.291-13.98a3.974,3.974,0,0,0,.425-5.653,4.1,4.1,0,0,0-5.714-.365c-4.741,4.012-6.443,5.471-8.327,7.172L522.681,126.1a3.967,3.967,0,0,0-3.769-2.772m28.873.1a3.035,3.035,0,0,0-2.978,3.039v3.344a3.009,3.009,0,1,0,6.018,0v-3.344a3.048,3.048,0,0,0-3.039-3.039m7.658,0a3.036,3.036,0,0,0-2.978,3.039v3.344a3.009,3.009,0,1,0,6.018,0v-3.344a3.048,3.048,0,0,0-3.04-3.039m-36.532-6.1A9.914,9.914,0,0,1,528.4,124.3l1.57,4.841,1.534-1.3a10.171,10.171,0,0,1,7.353-2.377,8.985,8.985,0,0,1,12.766-7.181,8.876,8.876,0,0,1,3.816-.858,9.049,9.049,0,0,1,9.04,9.039v3.344a9.05,9.05,0,0,1-9.04,9.039,8.876,8.876,0,0,1-3.816-.858,9.052,9.052,0,0,1-4.152.852,9.99,9.99,0,0,1-2.9,4.154c-4.413,3.759-7.1,6.007-9.021,7.614-3.007,2.515-4.07,3.4-7.093,6.208-.2.189-.382.366-.539.529.412.029.894.056,1.456.08l1.091.025a35.417,35.417,0,0,0,6.3-.715l2.8-.459c.305-.048,1.188-.111,1.5-.111a9.857,9.857,0,0,1,9.829,8.8,10.483,10.483,0,0,1-8.566,11.364l-1.415.224A61.585,61.585,0,0,1,530.55,177.6l-1.967-.04c-19.223-.777-21.178-13.127-21.32-16.894-.3-6.685,1.452-11.348,6.747-17.086l-4.586-12.994a9.948,9.948,0,0,1,6.412-12.766A9.454,9.454,0,0,1,518.912,117.327Z" transform="translate(-455.508 -119.399)" fill="#fff"/><path d="M605.361,141.337c.182-1.336.3-2.8.485-4.255h-2.37a4.012,4.012,0,0,1,0-8.024h3.283c.243-2.371.486-4.742.73-7.234a4.123,4.123,0,0,1,4.437-3.647,4.033,4.033,0,0,1,3.587,4.437c-.244,2.188-.426,4.315-.669,6.443h4.5a4.012,4.012,0,0,1,0,8.024h-5.411c-.121,1.459-.3,2.857-.485,4.255h5.471a4.012,4.012,0,0,1,0,8.024h-6.5l-.972,8.632c-.791,6.566,4.254,7.174,6.807,7.052,4.073-.244,4.681-4.5,3.465-8.511-.851-2.857.426-4.68,2.553-5.227a4.388,4.388,0,0,1,5.167,3.586c1.215,5.227.668,10.273-1.945,13.738a11.469,11.469,0,0,1-8.753,4.437c-8.935.485-16.534-5.592-15.318-15.986l.973-7.721h-1.641a4.012,4.012,0,0,1,0-8.024Z" transform="translate(-475.947 -118.165)" fill="#ed8934"/><path d="M611.584,118.165a4.123,4.123,0,0,0-4.1,3.66c-.243,2.492-.487,4.863-.73,7.234h-3.283a4.012,4.012,0,0,0,0,8.024h2.37c-.182,1.459-.3,2.918-.485,4.255h-2.614a4.012,4.012,0,0,0,0,8.024h1.641l-.973,7.721c-1.216,10.394,6.383,16.472,15.318,15.986a11.469,11.469,0,0,0,8.753-4.437c2.613-3.465,3.16-8.511,1.945-13.738a4.389,4.389,0,0,0-5.167-3.586c-2.127.547-3.4,2.37-2.553,5.227,1.216,4.013.608,8.267-3.465,8.511-2.552.122-7.6-.486-6.807-7.052l.972-8.632h6.5a4.012,4.012,0,0,0,0-8.024h-5.471c.182-1.4.365-2.8.485-4.255h5.411a4.012,4.012,0,0,0,0-8.024h-4.5c.243-2.128.425-4.255.669-6.443a4.033,4.033,0,0,0-3.587-4.437q-.172-.014-.341-.014m0-6h0c.162,0,.666.02.828.034a10.094,10.094,0,0,1,9.066,11.061l0,.028a10.007,10.007,0,0,1,5.55,16.2,9.961,9.961,0,0,1,1.9,5.867q0,.29-.016.575a10.721,10.721,0,0,1,6.366,7.618c1.686,7.253.621,13.9-3,18.7a17.51,17.51,0,0,1-13.15,6.811c-.131.009-1.254.04-1.385.04a20.8,20.8,0,0,1-15.634-6.656,20.2,20.2,0,0,1-4.651-16.054l.3-2.36a10,10,0,0,1-2.523-15.281,10.008,10.008,0,0,1,6.079-15.448l.207-2.053a10.126,10.126,0,0,1,10.067-9.077Z" transform="translate(-475.947 -118.165)" fill="#fff"/><path d="M704.415,147.672c.122-6.686-4.863-11.731-12.583-11.61-9.726.183-14.77,6.444-14.893,13.312-.061,3.95,1.155,6.868,3.04,7.051,2.066.122,4.741-4.8,6.564-13.616a3.989,3.989,0,0,1,7.9,1.094c-1.4,7.05-5.41,21.092-14.649,21.152-5.289,0-10.638-6.2-10.455-15.865.243-11.61,9.908-20.3,22.369-20.545,13.494-.183,20.606,9.847,20.606,19.147,0,7.963-3.769,16.23-13.009,23.706a4.649,4.649,0,0,1-6.139-.547c-1.155-1.4-1.034-3.89.911-5.653C700.95,159.221,704.355,154.844,704.415,147.672Z" transform="translate(-492.824 -120.67)" fill="#ed8934"/><path d="M692.074,128.644l-.362,0c-12.461.243-22.126,8.935-22.369,20.545-.183,9.665,5.166,15.865,10.455,15.865,9.239-.061,13.25-14.1,14.649-21.152a3.989,3.989,0,0,0-7.9-1.094c-1.823,8.813-4.493,13.737-6.564,13.616-1.885-.183-3.1-3.1-3.04-7.051.123-6.868,5.167-13.13,14.893-13.312,7.725-.121,12.7,4.924,12.583,11.61-.06,7.172-3.465,11.549-10.333,17.628-1.946,1.763-2.067,4.255-.911,5.653a4.649,4.649,0,0,0,6.139.547c9.24-7.476,13.009-15.743,13.009-23.706,0-9.217-6.984-19.15-20.244-19.15m0-6a26.247,26.247,0,0,1,19.474,8.018,25.324,25.324,0,0,1,6.77,17.132c0,7.319-2.643,18.182-15.234,28.37a10.634,10.634,0,0,1-14.551-1.4,9.222,9.222,0,0,1-2.084-5.285,14.726,14.726,0,0,1-6.612,1.581,14.521,14.521,0,0,1-10.344-4.6c-4.039-4.116-6.28-10.449-6.15-17.375.309-14.765,12.454-26.123,28.251-26.431Z" transform="translate(-492.824 -120.67)" fill="#fff"/><path d="M749.763,167.008l6.625-29.906h-2.917a4.012,4.012,0,1,1,0-8.024h4.68l1.216-5.349a4.005,4.005,0,1,1,7.841,1.641l-.79,3.708h6.261a4.012,4.012,0,1,1,0,8.024h-8.084l-6.929,31.548a4.029,4.029,0,0,1-4.8,3.1A3.982,3.982,0,0,1,749.763,167.008Zm31.791,4.5c-7.781-.729-11.489-4.376-10.637-12.522a3.857,3.857,0,0,1,4.194-3.586c1.641.061,3.829,1.338,3.647,3.465-.364,3.282.3,4.438,3.526,4.681a22.937,22.937,0,0,0,5.41-.183c2.31-.243,4.437.912,4.56,3.465a4.277,4.277,0,0,1-3.708,4.5A29.3,29.3,0,0,1,781.553,171.506Zm10.09-29.238a7.537,7.537,0,0,1-.73,2.492l-4.376,6.686a4.011,4.011,0,0,1-5.471,1.52,3.637,3.637,0,0,1-1.154-5.228l1.215-1.459h-5.471a4.012,4.012,0,0,1,0-8.024h11.914A4.022,4.022,0,0,1,791.643,142.268Z" transform="translate(-511.976 -118.731)" fill="#ed8934"/><path d="M753.737,171.845a4.044,4.044,0,0,0,3.927-3.2l6.929-31.548h8.084a4.012,4.012,0,1,0,0-8.024h-6.261l.79-3.708a4.005,4.005,0,1,0-7.841-1.641l-1.216,5.349h-4.68a4.012,4.012,0,1,0,0,8.024h2.917l-6.625,29.906a4.057,4.057,0,0,0,3.975,4.838m30.556-.21a30.992,30.992,0,0,0,4.25-.311,4.277,4.277,0,0,0,3.708-4.5c-.122-2.553-2.249-3.708-4.56-3.465a22.937,22.937,0,0,1-5.41.183c-3.221-.243-3.89-1.4-3.526-4.681.182-2.127-2.006-3.4-3.647-3.465a3.858,3.858,0,0,0-4.194,3.586c-.852,8.145,2.857,11.793,10.637,12.522.982.089,1.883.129,2.74.129m-1.267-18.144a4.028,4.028,0,0,0,3.511-2.045l4.376-6.686a7.537,7.537,0,0,0,.73-2.492,4.022,4.022,0,0,0-4.073-4.012H775.656a4.012,4.012,0,0,0,0,8.024h5.471l-1.215,1.459a3.637,3.637,0,0,0,1.154,5.228,3.894,3.894,0,0,0,1.961.525m-29.289,24.354a16.726,16.726,0,0,1-2.179-.24,9.71,9.71,0,0,1-6.266-4.309,10.08,10.08,0,0,1-1.419-7.435l5.26-23.748a10.011,10.011,0,0,1,4.228-19.034l.154-.679a9.9,9.9,0,0,1,9.717-7.867,16.741,16.741,0,0,1,2.176.239,9.965,9.965,0,0,1,7.787,8.319,10.06,10.06,0,0,1,9.52,9.165h4.855a10.054,10.054,0,0,1,10.073,10.012,13.76,13.76,0,0,1-1.233,4.9,6,6,0,0,1-.476.88l-4.376,6.686a8.759,8.759,0,0,1-2.3,2.637,9.525,9.525,0,0,1,8.985,9.168,10.289,10.289,0,0,1-9.058,10.752,34.885,34.885,0,0,1-8.175.192c-5.858-.549-10.055-2.472-12.849-5.88a15.083,15.083,0,0,1-3.232-8.063l-1.405,6.4A9.99,9.99,0,0,1,753.737,177.845Zm14.415-28.978-.855,3.891a9.693,9.693,0,0,1,2.786-2.187A10.113,10.113,0,0,1,768.152,148.867Z" transform="translate(-511.976 -118.731)" fill="#fff"/><path d="M872.548,149.438c.365,7.963-3.161,15.986-12.886,22-1.885,1.155-4.742,1.034-6.14-.668-1.154-1.46-1.154-3.89,1.277-5.714,8.145-6.139,9.726-9.6,10.03-14.467.243-4.5-1.216-8.935-6.018-9.727-3.4,7.538-7.416,16.656-9.787,20.363-2.552,4.013-4.984,6.626-9.847,6.14-5.774-.547-9.6-8.084-9.6-15.5a16.3,16.3,0,0,1,7.659-13.92l-1.641-7.416c-.608-2.918,1.338-4.315,3.282-4.741a4.006,4.006,0,0,1,4.682,3.221l1.154,5.41a37.506,37.506,0,0,1,9.057-1.642c.607-1.336,1.52-3.89,2.067-5.044a4.027,4.027,0,1,1,7.355,3.282c-.365.912-.607,1.52-1.093,2.8C868.719,136,872.123,141.354,872.548,149.438Zm-27.171,1.945a3.314,3.314,0,0,1-1.094.365,4.115,4.115,0,0,1-4.984-3.16l-.426-2.31a9.584,9.584,0,0,0-1.944,4.924c-.426,3.89,1.4,7.962,3.1,7.962C841.791,159.1,843.736,154.726,845.377,151.383Zm4.8-10.455a15.644,15.644,0,0,0-4.012,1.033l1.094,5.41A62.433,62.433,0,0,0,850.179,140.928Z" transform="translate(-531.127 -119.883)" fill="#ed8934"/><path d="M856.882,172.2a5.386,5.386,0,0,0,2.78-.758c9.725-6.018,13.251-14.041,12.886-22-.425-8.084-3.829-13.433-10.455-15.622.486-1.277.729-1.885,1.093-2.8a4.027,4.027,0,1,0-7.355-3.282c-.547,1.154-1.459,3.708-2.067,5.044a37.506,37.506,0,0,0-9.057,1.642l-1.154-5.41a4.006,4.006,0,0,0-4.682-3.221c-1.944.425-3.89,1.823-3.282,4.741l1.641,7.416a16.3,16.3,0,0,0-7.659,13.92c0,7.416,3.83,14.954,9.6,15.5,4.861.486,7.294-2.128,9.847-6.14,2.37-3.707,6.383-12.825,9.787-20.363,4.8.791,6.261,5.229,6.018,9.727-.3,4.863-1.885,8.327-10.03,14.467-2.431,1.824-2.431,4.255-1.277,5.714a4.289,4.289,0,0,0,3.36,1.426m-18.009-25.923.426,2.31a4.115,4.115,0,0,0,4.984,3.16,3.314,3.314,0,0,0,1.094-.365c-1.641,3.343-3.586,7.72-5.349,7.78-1.7,0-3.526-4.072-3.1-7.962a9.584,9.584,0,0,1,1.944-4.924m11.306-5.349a62.433,62.433,0,0,1-2.918,6.443l-1.094-5.41a15.644,15.644,0,0,1,4.012-1.033m6.7,37.272a10.244,10.244,0,0,1-8-3.617,9.829,9.829,0,0,1-1.611-2.96,14.135,14.135,0,0,1-8.694,1.717c-9.737-.923-15.008-11.752-15.008-21.471a22.551,22.551,0,0,1,6.982-16.324l-.822-3.716a9.8,9.8,0,0,1,7.858-11.9,15.2,15.2,0,0,1,2.044-.212,10.039,10.039,0,0,1,9.664,7.512l.256-.037c.318-.8.618-1.525.856-2.025a10.072,10.072,0,0,1,9.144-5.816,9.94,9.94,0,0,1,9.844,11.428c5.515,3.793,8.709,10.119,9.142,18.341.51,11.109-5.074,20.834-15.721,27.421A11.325,11.325,0,0,1,856.882,178.2Z" transform="translate(-531.127 -119.883)" fill="#fff"/><path d="M944.04,147.672c.122-6.686-4.863-11.731-12.583-11.61-9.726.183-14.77,6.444-14.893,13.312-.061,3.95,1.155,6.868,3.04,7.051,2.066.122,4.741-4.8,6.564-13.616a3.989,3.989,0,0,1,7.9,1.094c-1.4,7.05-5.41,21.092-14.649,21.152-5.289,0-10.637-6.2-10.455-15.865.243-11.61,9.908-20.3,22.369-20.545,13.494-.183,20.606,9.847,20.606,19.147,0,7.963-3.769,16.23-13.009,23.706a4.649,4.649,0,0,1-6.139-.547c-1.155-1.4-1.034-3.89.912-5.653C940.576,159.221,943.98,154.844,944.04,147.672Z" transform="translate(-550.104 -120.67)" fill="#ed8934"/><path d="M931.7,128.644l-.362,0c-12.461.243-22.126,8.935-22.369,20.545-.183,9.665,5.166,15.865,10.455,15.865,9.24-.061,13.251-14.1,14.649-21.152a3.989,3.989,0,0,0-7.9-1.094c-1.823,8.813-4.5,13.738-6.564,13.616-1.885-.183-3.1-3.1-3.04-7.051.123-6.868,5.167-13.13,14.893-13.312,7.721-.121,12.7,4.924,12.583,11.61-.06,7.172-3.465,11.549-10.333,17.628-1.946,1.763-2.067,4.255-.912,5.653a4.649,4.649,0,0,0,6.139.547c9.24-7.476,13.009-15.743,13.009-23.706,0-9.217-6.984-19.15-20.244-19.15m0-6a26.247,26.247,0,0,1,19.474,8.018,25.324,25.324,0,0,1,6.77,17.132c0,7.319-2.643,18.182-15.234,28.37a10.634,10.634,0,0,1-14.551-1.405,9.222,9.222,0,0,1-2.083-5.284,14.727,14.727,0,0,1-6.612,1.581,14.521,14.521,0,0,1-10.344-4.6c-4.039-4.116-6.28-10.449-6.149-17.375.309-14.765,12.454-26.123,28.251-26.431Z" transform="translate(-550.104 -120.67)" fill="#fff"/></g><g transform="translate(1282.709 442.072)"><path d="M433.275,269.8l24.818-28.491H439.926a6.552,6.552,0,0,1,0-13.1h59.166a6.461,6.461,0,0,1,6.551,6.452,6.567,6.567,0,0,1-6.551,6.651H474.969L443.5,278.337a7.055,7.055,0,0,1-9.529.794A6.607,6.607,0,0,1,433.275,269.8ZM470.2,314.77a7.013,7.013,0,0,1-7.048-7.048V262.057a7,7,0,1,1,14,0v45.664A6.992,6.992,0,0,1,470.2,314.77Zm28.293-41.2h-12.21a6.552,6.552,0,1,1,0-13.1H498.5a6.552,6.552,0,0,1,0,13.1Z" transform="translate(-431.669 -220.064)" fill="#ed8934"/><path d="M439.926,228.205a6.552,6.552,0,0,0,0,13.1h18.167L433.275,269.8a6.607,6.607,0,0,0,.7,9.331,7.055,7.055,0,0,0,9.529-.794l31.469-37.029h24.123a6.567,6.567,0,0,0,6.551-6.651,6.461,6.461,0,0,0-6.551-6.452H439.926m30.278,26.8a7.011,7.011,0,0,0-7.048,7.048v45.664a7,7,0,1,0,14,0V262.057a6.991,6.991,0,0,0-6.949-7.048m16.083,5.459a6.552,6.552,0,1,0,0,13.1H498.5a6.552,6.552,0,0,0,0-13.1h-12.21m-46.361-38.263h59.166a12.552,12.552,0,0,1,0,25.1H477.744l-2.368,2.787a13.068,13.068,0,0,1,6,5.372,12.487,12.487,0,0,1,4.909-1H498.5a12.552,12.552,0,0,1,0,25.1h-12.21a13,13,0,0,1-3.134-.379v28.528a13,13,0,1,1-26,0V271.534l-9.083,10.688a13.054,13.054,0,0,1-9.812,4.4,12.766,12.766,0,0,1-8.1-2.856,12.606,12.606,0,0,1-1.441-17.871l16.19-18.586h-4.984a12.552,12.552,0,0,1,0-25.1Z" transform="translate(-431.669 -220.064)" fill="#fff"/><path d="M564.535,236.07a6.393,6.393,0,0,1-.5,2.382l11.316-6.552v-1.588h-.893a5.405,5.405,0,0,1-5.261-5.461c0-2.878,2.779-5.261,5.757-5.261H583.1a5.49,5.49,0,0,1,5.46,5.361v6.155l26.406,16.479h.2a6.588,6.588,0,0,1,6.552,6.75,6.448,6.448,0,0,1-6.552,6.651h-1.489a11.627,11.627,0,0,1-5.361-1.688l-4.169-2.78a5.639,5.639,0,0,1-5.658,5.162H564.634a5.7,5.7,0,0,1-5.658-5.062l-5.857,3.672a7.11,7.11,0,0,1-9.43-2.382c-1.787-3.177-.3-7.247,2.879-9.033l10.323-6.254h-3.176a6.552,6.552,0,1,1,0-13.1h4.269A6.545,6.545,0,0,1,564.535,236.07Zm-14.1,66.611h6.85a6.913,6.913,0,0,1-.5-2.481l.1-2.185a6.553,6.553,0,1,1,13.105,0V300.2a6.893,6.893,0,0,1-.5,2.481H593.92a6.221,6.221,0,0,1-.6-2.68v-2.185a6.6,6.6,0,0,1,13.2,0V300a6.221,6.221,0,0,1-.6,2.68h6.948a6.006,6.006,0,1,1,0,12.012H550.439a6.006,6.006,0,1,1,0-12.012Zm14.891-11.516c-4.269-.4-6.553-3.078-6.553-6.85V271.608a6.612,6.612,0,0,1,6.553-6.552h33.157a6.631,6.631,0,0,1,6.65,6.552v12.706c0,3.276-1.687,6.254-5.956,6.651A161.188,161.188,0,0,1,565.33,291.164Zm2.878-40.8h26.506l-12.707-8.338Zm3.772,30.179a167.334,167.334,0,0,0,19.953-.1v-4.467H571.98Zm29.285-43.58a6.545,6.545,0,0,1-6.551-6.552v-1.786a6.552,6.552,0,1,1,13.1,0v1.786A6.61,6.61,0,0,1,601.266,236.962Zm14,6.453a6.61,6.61,0,0,1-6.552-6.552v-1.787a6.552,6.552,0,1,1,13.1,0v1.787A6.545,6.545,0,0,1,615.263,243.415Z" transform="translate(-437.797 -219.59)" fill="#ed8934"/><path d="M574.959,219.59c-2.978,0-5.757,2.383-5.757,5.261a5.405,5.405,0,0,0,5.261,5.461h.893V231.9l-11.316,6.552a6.393,6.393,0,0,0,.5-2.382,6.545,6.545,0,0,0-6.551-6.552h-4.269a6.552,6.552,0,1,0,0,13.1h3.176l-10.323,6.254c-3.177,1.787-4.666,5.857-2.879,9.034a7.11,7.11,0,0,0,9.43,2.382l5.857-3.672a5.7,5.7,0,0,0,5.658,5.062h33.852a5.639,5.639,0,0,0,5.658-5.162l4.169,2.78a11.627,11.627,0,0,0,5.361,1.688h1.489a6.448,6.448,0,0,0,6.552-6.651,6.588,6.588,0,0,0-6.552-6.75h-.2l-26.406-16.479v-6.155a5.49,5.49,0,0,0-5.46-5.361h-8.141m19.755,30.773H568.208l13.8-8.338,12.707,8.338m6.551-28.291a6.483,6.483,0,0,0-6.551,6.552v1.786a6.552,6.552,0,1,0,13.1,0v-1.786a6.545,6.545,0,0,0-6.552-6.552m14,6.452a6.547,6.547,0,0,0-6.552,6.552v1.787a6.61,6.61,0,0,0,6.552,6.552,6.545,6.545,0,0,0,6.551-6.552v-1.787a6.483,6.483,0,0,0-6.551-6.552M565.33,265.056a6.612,6.612,0,0,0-6.553,6.552v12.706c0,3.772,2.284,6.453,6.553,6.85a161.19,161.19,0,0,0,33.851-.2c4.269-.4,5.956-3.375,5.956-6.651V271.608a6.631,6.631,0,0,0-6.65-6.552H565.33m16.558,15.735c-3.178,0-6.332-.1-9.908-.248v-4.566h19.953v4.467c-3.671.248-6.87.348-10.045.348m18.086,10.474a6.566,6.566,0,0,0-6.65,6.551V300a6.221,6.221,0,0,0,.6,2.68H569.5a6.893,6.893,0,0,0,.5-2.481v-2.185a6.553,6.553,0,1,0-13.105,0l-.1,2.185a6.913,6.913,0,0,0,.5,2.481h-6.85a6.006,6.006,0,1,0,0,12.012h62.441a6.006,6.006,0,1,0,0-12.012h-6.948a6.221,6.221,0,0,0,.6-2.68v-2.185a6.545,6.545,0,0,0-6.552-6.551M574.959,213.59H583.1a11.486,11.486,0,0,1,9.85,5.559,12.636,12.636,0,0,1,19.46,3.7,12.549,12.549,0,0,1,2.853-.327,12.418,12.418,0,0,1,12.551,12.552v1.787a12.51,12.51,0,0,1-3.506,8.693h0a12.755,12.755,0,0,1-9.145,21.429h-1.489a14.6,14.6,0,0,1-3.646-.516,12.4,12.4,0,0,1,1.109,5.138v12.706a13.547,13.547,0,0,1-1.246,5.814,12.489,12.489,0,0,1,2.585,6.552h.4a12.006,12.006,0,1,1,0,24.012H550.439a12.006,12.006,0,1,1,0-24.012h.5a12.27,12.27,0,0,1,2.944-6.9,13.436,13.436,0,0,1-1.11-5.461V271.608a12.477,12.477,0,0,1,1.1-5.133,12.533,12.533,0,0,1-10.249-22.829l.06-.036a12.546,12.546,0,0,1,10.029-20.092h4.269a12.477,12.477,0,0,1,5.219,1.137C563.317,218.637,568.654,213.59,574.959,213.59Z" transform="translate(-437.797 -219.59)" fill="#fff"/><path d="M662.637,306.756V277.372l-1.588,2.084a5.962,5.962,0,0,1-8.339.794,5.873,5.873,0,0,1-.794-8.339l10.721-13.2v-.894h-3.176a6.552,6.552,0,1,1,0-13.1h3.176V234.487a6.353,6.353,0,1,1,12.706,0v10.224h1.886a6.552,6.552,0,0,1,0,13.1h-1.886v.794l6.85,6.553a5.932,5.932,0,0,1,.1,8.338,5.756,5.756,0,0,1-6.949,1.192v32.064a6.353,6.353,0,1,1-12.706,0Zm76.042.993a6.675,6.675,0,0,1-6.354,6.949l-1.886.1a9.962,9.962,0,0,1-7.941-3.971l-13.3-13.9-12.409,14.89a6.973,6.973,0,0,1-9.53,1.092,6.673,6.673,0,0,1-.794-9.233l13.8-16.577-7.048-7.943a6.5,6.5,0,0,1,.7-9.232,6.571,6.571,0,0,1,9.232.7l5.262,5.956,6.452-7.942a6.574,6.574,0,0,1,10.324,8.141l-7.744,9.629,14.2,14.693h.695A6.4,6.4,0,0,1,738.679,307.749ZM736.3,237.167a6.484,6.484,0,0,1-6.551,6.552H693.808a6.552,6.552,0,1,1,0-13.1h10.821v-3.87a7.074,7.074,0,0,1,7.048-7.048,6.99,6.99,0,0,1,6.948,7.048v3.87h11.119A6.546,6.546,0,0,1,736.3,237.167Zm-32.76,10.721a6.683,6.683,0,0,1-.2,9.331l-4.466,3.773a6.568,6.568,0,0,1-8.934-9.63l4.367-3.772A6.567,6.567,0,0,1,703.536,247.888Zm30.675,4.071a6.475,6.475,0,0,1,.3,9.232,6.593,6.593,0,0,1-9.332.3l-4.367-3.772a6.684,6.684,0,0,1-.3-9.331,6.591,6.591,0,0,1,9.331-.2Z" transform="translate(-443.724 -219.596)" fill="#ed8934"/><path d="M730.439,314.8l1.886-.1a6.675,6.675,0,0,0,6.354-6.949,6.4,6.4,0,0,0-6.354-6.651h-.695l-14.2-14.693,7.744-9.629a6.574,6.574,0,0,0-10.324-8.141l-6.452,7.942-5.262-5.956a6.571,6.571,0,0,0-9.232-.7,6.5,6.5,0,0,0-.7,9.232l7.048,7.943-13.8,16.577a6.673,6.673,0,0,0,.794,9.233,6.973,6.973,0,0,0,9.53-1.092l12.409-14.89,13.3,13.9a9.962,9.962,0,0,0,7.941,3.971m-61.448-1.688a6.4,6.4,0,0,0,6.353-6.354V274.692a5.756,5.756,0,0,0,6.949-1.192,5.932,5.932,0,0,0-.1-8.338l-6.85-6.553v-.794h1.886a6.552,6.552,0,0,0,0-13.1h-1.886V234.487a6.353,6.353,0,1,0-12.706,0v10.224h-3.176a6.552,6.552,0,1,0,0,13.1h3.176v.894l-10.721,13.2a5.873,5.873,0,0,0,.794,8.339,5.962,5.962,0,0,0,8.339-.794l1.588-2.084v29.383a6.4,6.4,0,0,0,6.354,6.354m60.733-49.831a6.553,6.553,0,0,0,4.488-11.32l-4.368-3.772a6.591,6.591,0,0,0-9.331.2,6.684,6.684,0,0,0,.3,9.331l4.367,3.772a6.68,6.68,0,0,0,4.546,1.79m-35.26-.532a6.319,6.319,0,0,0,4.407-1.755l4.466-3.773a6.683,6.683,0,0,0,.2-9.331,6.567,6.567,0,0,0-9.232-.3l-4.367,3.772a6.6,6.6,0,0,0-.3,9.331,6.7,6.7,0,0,0,4.826,2.053m35.281-19.028a6.552,6.552,0,0,0,0-13.1H718.626v-3.87a6.99,6.99,0,0,0-6.948-7.048,7.074,7.074,0,0,0-7.048,7.048v3.87H693.808a6.552,6.552,0,1,0,0,13.1h35.936m.695,77.078-.154,0a15.894,15.894,0,0,1-12.587-6.368l-8.183-8.51L701.4,315.66a12.6,12.6,0,0,1-9.92,4.645,13.046,13.046,0,0,1-7.846-2.613,12.571,12.571,0,0,1-3.741-5.125,12.352,12.352,0,0,1-23.252-5.811V287.594a11.837,11.837,0,0,1-7.787-2.749,11.684,11.684,0,0,1-4.256-8,11.96,11.96,0,0,1,2.728-8.791l5.128-6.316a12.441,12.441,0,0,1-5.542-10.472,12.575,12.575,0,0,1,9.729-12.233v-4.544a12.353,12.353,0,1,1,24.706,0v1.2a12.57,12.57,0,0,1,12.465-11.068H698.8a12.992,12.992,0,0,1,25.65,0h5.291a12.6,12.6,0,0,1,7.9,22.379l.492.424a12.551,12.551,0,0,1-6.173,21.658,12.5,12.5,0,0,1-2.064,11.406l-4.47,5.559,9,9.319a12.38,12.38,0,0,1,10.249,12.389c0,7.14-5.542,12.949-12.354,12.949l-1.57.091Q730.6,320.8,730.439,320.8Zm-49.1-39.893V300.51q.193-.273.4-.539l10.605-12.744-3.626-4.086a12.286,12.286,0,0,1-2.672-4.9A11.211,11.211,0,0,1,681.343,280.9Zm23.177-16.84a12.393,12.393,0,0,1,3.187,2.668l.5.568,1.988-2.447a12.754,12.754,0,0,1,5.492-3.905,12.932,12.932,0,0,1-2.509-11.228h-2.158a12.666,12.666,0,0,1-3.442,11.744Z" transform="translate(-443.724 -219.596)" fill="#fff"/><path d="M765.509,261.282a6.6,6.6,0,0,1,.2-9.332l16.777-16.479a6.589,6.589,0,0,1,9.331,0,6.5,6.5,0,0,1-.1,9.332l-2.681,2.68v58.074a6.552,6.552,0,0,1-13.1,0V260.289l-1.092,1.092A6.683,6.683,0,0,1,765.509,261.282Zm84.48,38.02a6.486,6.486,0,0,1-6.452,6.652h-1.986a9.161,9.161,0,0,1-5.857-3.078l-9.331-8.835v14.394a6.552,6.552,0,0,1-13.1,0V294.141L802.24,303.77c-3.575,2.879-7.048,2.879-9.729.4-2.68-2.383-2.481-6.751,0-9.431L807.3,282.129h-9.63a6.63,6.63,0,0,1-6.651-6.552,6.7,6.7,0,0,1,6.651-6.552h15.585v-2.68a6.552,6.552,0,0,1,13.1,0v2.68h15.089a6.552,6.552,0,0,1,0,13.1h-8.835l12.21,10.523A6.825,6.825,0,0,1,849.989,299.3Zm-8.041-69.588v22.634c0,3.574-2.878,5.956-6.552,6.354-4.566.5-21.145.893-28.39.2-3.674-.3-6.552-2.879-6.552-6.552V229.714a6.407,6.407,0,0,1,6.751-6.552H835.4A6.545,6.545,0,0,1,841.948,229.714Zm-13.1,6.552H813.557v9.728a98.006,98.006,0,0,0,15.288,0Z" transform="translate(-449.955 -219.787)" fill="#ed8934"/><path d="M807,223.159a6.4,6.4,0,0,0-6.552,6.555v22.634c0,3.673,2.878,6.254,6.552,6.552,7.246.695,23.825.3,28.39-.2,3.674-.4,6.552-2.78,6.552-6.354V229.714a6.545,6.545,0,0,0-6.552-6.552H807.2l-.2,0m13.39,23.138a65.039,65.039,0,0,1-6.838-.3v-9.728h15.288v9.728c-2.222.167-5.346.3-8.45.3m-33.207-12.762a6.771,6.771,0,0,0-4.7,1.936L765.707,251.95a6.6,6.6,0,0,0-.2,9.332,6.683,6.683,0,0,0,9.332.1l1.092-1.092v45.268a6.552,6.552,0,0,0,13.1,0V247.483l2.681-2.68a6.554,6.554,0,0,0-4.53-11.268m32.622,26.258a6.484,6.484,0,0,0-6.551,6.552v2.68H797.673a6.7,6.7,0,0,0-6.651,6.552,6.63,6.63,0,0,0,6.651,6.552h9.63l-14.792,12.607c-2.481,2.68-2.68,7.048,0,9.431,2.681,2.481,6.154,2.481,9.729-.4l11.019-9.629v14.295a6.552,6.552,0,0,0,13.1,0V294.042l9.331,8.835a9.161,9.161,0,0,0,5.857,3.078h1.986a6.486,6.486,0,0,0,6.452-6.652,6.825,6.825,0,0,0-5.162-6.65l-12.21-10.523h8.835a6.552,6.552,0,0,0,0-13.1H826.363v-2.68a6.546,6.546,0,0,0-6.553-6.552M807,217.159l.366.005,28.025,0a12.566,12.566,0,0,1,12.552,12.552v22.634a11.94,11.94,0,0,1-6.473,10.677A12.566,12.566,0,0,1,854,275.577a12.417,12.417,0,0,1-6.8,11.2l.574.495a12.962,12.962,0,0,1,8.21,12.027,12.276,12.276,0,0,1-3.536,8.875,12.519,12.519,0,0,1-8.916,3.777h-1.986a14.671,14.671,0,0,1-9.188-3.937v.418a12.552,12.552,0,0,1-25.1,0v-1.083l-1.07.935a14.878,14.878,0,0,1-9.331,3.694,11.865,11.865,0,0,1-3.324-.471,12.563,12.563,0,0,1-11.049,6.6,12.418,12.418,0,0,1-12.551-12.551v-36.33a12.517,12.517,0,0,1-8.389-21.6l16.736-16.439a12.777,12.777,0,0,1,8.908-3.656,12.423,12.423,0,0,1,7.266,2.331v-.152A12.42,12.42,0,0,1,807,217.159Zm-6.483,45.866a12.282,12.282,0,0,1-5.485-6.856v7.143a12.265,12.265,0,0,1,2.637-.287Z" transform="translate(-449.955 -219.787)" fill="#fff"/><path d="M960.39,314.1H959.5a8.578,8.578,0,0,1-6.155-2.681l-15.188-16.876-17.372,17.869a6.714,6.714,0,0,1-9.43.3,6.561,6.561,0,0,1-.2-9.232l18.067-18.564c-2.482-.2-5.261-.4-6.95-.6-3.077-.5-5.558-2.581-5.558-5.658V260.692a5.635,5.635,0,0,1,5.558-5.658H932.1v-2.283h-6.85c-2.681,0-4.765-2.481-4.765-5.658-.2,0-1.688,1.091-1.787,1.091a6.224,6.224,0,0,1-7.942-1.39.1.1,0,0,0-.1-.1c-1.588,6.254-3.275,12.9-3.275,12.9l6.65,19.06c1.291,3.872-.3,6.453-3.078,7.941l-5.46,2.383c-2.878,1.092-6.154-.992-7.247-3.871a5.657,5.657,0,0,1,3.276-7.247l.3-.1-4.269-12.409v42.587A6.016,6.016,0,0,1,891.5,314a5.934,5.934,0,0,1-5.957-6.055V234.981a5.879,5.879,0,0,1,5.758-5.063l16.578.1a5.842,5.842,0,0,1,5.362,6.65c3.574-2.779,11.813-9.331,11.813-9.331,4.169-3.176,7.048-4.07,12.11-4.07,4.169,0,7.148.695,11.714,3.772,2.184,1.489,14,10.126,14,10.126a7.149,7.149,0,0,1,1.192,9.729c-1.788,2.382-5.957,2.481-8.141,1.489-.2-.1-2.68-1.886-2.878-1.986v.7a5.636,5.636,0,0,1-5.56,5.658h-4.169v2.283h9.43a5.656,5.656,0,0,1,5.659,5.658V278.66c0,2.978-1.886,5.162-5.162,5.658-1.489.3-4.865.4-6.651.6L961.879,300.8a6.6,6.6,0,0,1,5.162,6.453C967.042,311.618,964.162,314.1,960.39,314.1Zm-59.463-72.766-3.375-.1v15.189ZM932.1,266.351h-4.17V273.5c.992.1,3.177.1,4.17.2Zm14.692-24.918c-2.383-1.886-5.162-3.772-6.85-4.964a4.577,4.577,0,0,0-2.68-.893,5.348,5.348,0,0,0-2.979.993c-1.488,1.192-3.97,3.078-6.154,4.864ZM943.317,273.5c.893,0,2.977-.1,3.871-.2v-6.949h-3.871Z" transform="translate(-456.666 -219.793)" fill="#ed8934"/><path d="M915.943,314.5a6.565,6.565,0,0,0,4.839-2.087l17.372-17.869,15.188,16.876A8.578,8.578,0,0,0,959.5,314.1h.893c3.772,0,6.651-2.482,6.651-6.85a6.6,6.6,0,0,0-5.162-6.453l-15.287-15.883c1.786-.2,5.162-.3,6.651-.6,3.276-.5,5.162-2.68,5.162-5.658V260.692a5.656,5.656,0,0,0-5.659-5.658h-9.43v-2.283h4.169a5.636,5.636,0,0,0,5.56-5.658v-.7c.2.1,2.68,1.886,2.878,1.986,2.184.992,6.353.893,8.141-1.489a7.149,7.149,0,0,0-1.192-9.729s-11.813-8.637-14-10.126c-4.566-3.078-7.545-3.772-11.714-3.772-5.062,0-7.941.894-12.11,4.07,0,0-8.24,6.552-11.813,9.331a5.842,5.842,0,0,0-5.362-6.65l-16.578-.1a5.879,5.879,0,0,0-5.758,5.063v72.964A5.934,5.934,0,0,0,891.5,314a6.016,6.016,0,0,0,6.055-6.055V265.359l4.269,12.409-.3.1a5.657,5.657,0,0,0-3.276,7.247c1.092,2.879,4.369,4.964,7.247,3.871l5.46-2.383c2.78-1.488,4.368-4.069,3.078-7.941l-6.65-19.06s1.687-6.651,3.275-12.9a.1.1,0,0,1,.1.1,6.224,6.224,0,0,0,7.942,1.39c.1,0,1.589-1.091,1.787-1.091,0,3.177,2.084,5.658,4.765,5.658h6.85v2.283H922.27a5.635,5.635,0,0,0-5.558,5.658V278.66c0,3.078,2.481,5.162,5.558,5.658,1.688.2,4.468.4,6.95.6l-18.067,18.564a6.561,6.561,0,0,0,.2,9.232,6.748,6.748,0,0,0,4.592,1.789m11.986-48.149h4.17V273.7c-.993-.1-3.178-.1-4.17-.2v-7.147m15.387,0h3.871V273.3c-.894.1-2.978.2-3.871.2v-7.147m-45.765-25.116,3.375.1-3.375,15.089V241.235m39.71-5.658a4.578,4.578,0,0,1,2.68.893c1.688,1.192,4.467,3.078,6.85,4.964H928.128c2.184-1.786,4.666-3.672,6.154-4.864a5.348,5.348,0,0,1,2.979-.993M915.944,320.5h0a12.716,12.716,0,0,1-8.669-3.387,12.55,12.55,0,0,1-3.828-7.573A12.074,12.074,0,0,1,891.5,320a11.878,11.878,0,0,1-11.957-12.055V234.981A11.971,11.971,0,0,1,891.3,223.918l16.614.1a11.148,11.148,0,0,1,7.652,3.185c3-2.377,5.753-4.563,5.753-4.563,5.232-3.987,9.352-5.374,15.844-5.374,5.8,0,9.88,1.3,15.068,4.8,2.235,1.524,14.185,10.258,14.185,10.258a13.178,13.178,0,0,1,2.511,18.091,11.314,11.314,0,0,1-6.288,4.11,11.59,11.59,0,0,1,1.77,6.169V278.66a11.3,11.3,0,0,1-5.8,10.084l6.566,6.822a12.572,12.572,0,0,1,7.87,11.684c0,7.446-5.321,12.85-12.651,12.85a15.063,15.063,0,0,1-11.167-4.318l-11.234-12.462L925.084,316.6A12.539,12.539,0,0,1,915.944,320.5Zm-12.392-25.225v10.449a12.369,12.369,0,0,1,3.277-6.4l7.561-7.769q-.3.176-.6.341l-5.891,2.592A10.752,10.752,0,0,1,903.552,295.275Z" transform="translate(-456.666 -219.793)" fill="#fff"/></g></g></svg>