<svg xmlns="http://www.w3.org/2000/svg" width="329" height="168" viewBox="0 0 329 168"><defs><style>.a{fill:#60432e;}.b{fill:#ed8934;}.c{fill:#fff;opacity:0.999;}</style></defs><g transform="translate(0 -22.351)"><rect class="a" width="329" height="36" rx="10" transform="translate(0 154.351)"/><rect class="b" width="202" height="53" rx="10" transform="translate(64 22.351)"/><rect class="b" width="260" height="54" rx="10" transform="translate(35 85.351)"/><path class="c" d="M8.554.812a8.166,8.166,0,0,1-3-.427A3.535,3.535,0,0,1,3.794-.91,3.114,3.114,0,0,1,3.3-2.884a2.477,2.477,0,0,1,.707-1.673A3.286,3.286,0,0,1,5.67-5.4a6.355,6.355,0,0,1,2.254-.035A9.572,9.572,0,0,1,7.119-6.4a12.744,12.744,0,0,1-.777-1.19q-.826.126-1.659.217t-1.631.133a.838.838,0,0,1-.6-.2.755.755,0,0,1-.266-.567A.775.775,0,0,1,2.408-8.6.837.837,0,0,1,3-8.862q.616-.028,1.281-.084t1.337-.14a6.711,6.711,0,0,1-.238-.665q-.1-.329-.168-.637a.884.884,0,0,1,.126-.63.771.771,0,0,1,.518-.364.806.806,0,0,1,.637.126.827.827,0,0,1,.357.532,9.624,9.624,0,0,0,.42,1.372q.686-.14,1.323-.294t1.183-.336a.8.8,0,0,1,.637.042.759.759,0,0,1,.413.476.759.759,0,0,1-.049.63.85.85,0,0,1-.5.406q-.518.14-1.085.28t-1.183.266a10.724,10.724,0,0,0,1.19,1.6A7.76,7.76,0,0,0,10.64-5.012a.814.814,0,0,1,.343.476.8.8,0,0,1-.063.574.88.88,0,0,1-.42.413.743.743,0,0,1-.574.035,7.636,7.636,0,0,0-3.619-.518q-1.295.252-1.365,1.3Q4.816-.812,8.526-.868a.764.764,0,0,1,.6.231.862.862,0,0,1,.259.595.822.822,0,0,1-.238.6A.837.837,0,0,1,8.554.812ZM19.852.5a.822.822,0,0,1-.6-.238A.837.837,0,0,1,19-.322a.822.822,0,0,1,.238-.595.837.837,0,0,1,.588-.259q3.92-.07,3.92-2.24a1.376,1.376,0,0,0-.49-1.12,1.976,1.976,0,0,0-1.3-.406A4.43,4.43,0,0,0,20.1-4.5a5.291,5.291,0,0,0-1.743,1.323.773.773,0,0,1-.469.259A.8.8,0,0,1,17.36-3a.705.705,0,0,1-.35-.357.875.875,0,0,1-.07-.511q.1-.588.217-1.274t.259-1.393q.14-.707.28-1.309a.75.75,0,0,1,.371-.525.825.825,0,0,1,.637-.091.816.816,0,0,1,.518.385.808.808,0,0,1,.1.637q-.1.392-.231.9t-.273,1.085a5.649,5.649,0,0,1,3.178-1.092,3.932,3.932,0,0,1,1.806.392A2.918,2.918,0,0,1,25-5.054a3.083,3.083,0,0,1,.427,1.638A3.387,3.387,0,0,1,24.052-.6,6.994,6.994,0,0,1,19.852.5Zm2.24-8.764q-.448-.224-1.015-.483t-1.134-.5q-.567-.245-1-.413a.716.716,0,0,1-.42-.462.853.853,0,0,1,.028-.644.781.781,0,0,1,.476-.427.928.928,0,0,1,.644.021q.462.182,1,.413t1.085.476q.546.245.994.469a.9.9,0,0,1,.441.469.816.816,0,0,1,.007.637.868.868,0,0,1-.462.448A.776.776,0,0,1,22.092-8.26Zm9,8.484a.83.83,0,0,1-.63-.14.835.835,0,0,1-.35-.532q-.126-.714-.2-1.659t-.07-2q0-1.05.056-2.114t.175-2.037q.119-.973.287-1.743a.8.8,0,0,1,.364-.525.816.816,0,0,1,.63-.119.856.856,0,0,1,.525.371A.822.822,0,0,1,32-9.632a19.284,19.284,0,0,0-.35,2.156q-.126,1.162-.161,2.359t.035,2.324a17.632,17.632,0,0,0,.238,2.051.747.747,0,0,1-.133.616A.862.862,0,0,1,31.094.224Zm5.74-.756a4.552,4.552,0,0,1-2.709-.658,2.77,2.77,0,0,1-1.071-1.932.79.79,0,0,1,.147-.616.815.815,0,0,1,.553-.336.838.838,0,0,1,.616.161.815.815,0,0,1,.336.553,1.178,1.178,0,0,0,.574.9,3.244,3.244,0,0,0,1.6.294,12.253,12.253,0,0,0,2.534-.322.759.759,0,0,1,.63.112.82.82,0,0,1,.364.532.781.781,0,0,1-.126.623.884.884,0,0,1-.532.371A10.664,10.664,0,0,1,38.241-.6Q37.492-.532,36.834-.532Zm-2.562-6.93a.8.8,0,0,1-.623-.119.808.808,0,0,1-.357-.539.816.816,0,0,1,.119-.63.755.755,0,0,1,.539-.35,12.375,12.375,0,0,1,1.75-.2q.966-.049,1.918-.014a12.684,12.684,0,0,1,1.68.161.784.784,0,0,1,.546.343.806.806,0,0,1,.126.637.761.761,0,0,1-.343.539A.843.843,0,0,1,39-7.5a13.338,13.338,0,0,0-2.352-.189A12.94,12.94,0,0,0,34.272-7.462ZM53.956-.154a23.841,23.841,0,0,1-2.8.147A7.47,7.47,0,0,1,49.21-.259a3.319,3.319,0,0,1-1.288-.679A2.647,2.647,0,0,1,47.1-2.282a7.3,7.3,0,0,1-.189-1.736V-5.81q-.966.14-1.869.266t-1.533.224a.852.852,0,0,1-.637-.175.806.806,0,0,1-.329-.567.808.808,0,0,1,.161-.644.866.866,0,0,1,.567-.336q.616-.07,1.6-.2T46.914-7.5V-9.828a.8.8,0,0,1,.259-.609.857.857,0,0,1,.609-.245.815.815,0,0,1,.609.252.85.85,0,0,1,.245.616v2.072q.826-.112,1.442-.189t.854-.119a3.833,3.833,0,0,1,2.261.147A1.746,1.746,0,0,1,54.11-6.5a2.149,2.149,0,0,1-.553,1.834,5.011,5.011,0,0,1-2.471,1.246.938.938,0,0,1-.658-.07.814.814,0,0,1-.42-.5.856.856,0,0,1,.063-.651.786.786,0,0,1,.511-.413,5.647,5.647,0,0,0,1.379-.518.6.6,0,0,0,.343-.546.321.321,0,0,0-.21-.329,2.2,2.2,0,0,0-.8.021l-1.015.14q-.721.1-1.645.238v2.03a4.36,4.36,0,0,0,.112,1.141,1.357,1.357,0,0,0,.364.623,2.633,2.633,0,0,0,1.512.49,17.975,17.975,0,0,0,3.164-.112.863.863,0,0,1,.637.2.858.858,0,0,1,.315.588.865.865,0,0,1-.2.63A.8.8,0,0,1,53.956-.154Zm9.87.784a.852.852,0,0,1-.637-.175.806.806,0,0,1-.329-.567q-.042-.378-.168-1.281t-.28-2.023q-.9.1-1.708.2T59.3-3.038q-.6.07-.861.112a.816.816,0,0,1-.63-.182.789.789,0,0,1-.308-.574.817.817,0,0,1,.182-.637.848.848,0,0,1,.574-.315q.224-.028.812-.091t1.4-.161q.812-.1,1.708-.2l-.224-1.6q-.924.1-1.673.2t-1.029.126a.783.783,0,0,1-.623-.189.873.873,0,0,1-.315-.581.842.842,0,0,1,.2-.623.848.848,0,0,1,.574-.315q.224-.028.959-.105t1.673-.189q-.168-1.092-.238-1.624a.8.8,0,0,1,.168-.644.838.838,0,0,1,.574-.322.808.808,0,0,1,.644.161.824.824,0,0,1,.322.581q.028.266.091.693t.133.973q.826-.1,1.512-.175l1.05-.119a.8.8,0,0,1,.623.182.809.809,0,0,1,.3.588.857.857,0,0,1-.189.623.786.786,0,0,1-.581.3q-.35.028-1.022.1t-1.47.168l.224,1.582q.854-.112,1.61-.2t1.3-.154q.546-.07.742-.084l.224.091a2.328,2.328,0,0,1,.462.259.575.575,0,0,1,.266.406.816.816,0,0,1-.182.63.789.789,0,0,1-.574.308q-.21.014-.742.077t-1.281.147q-.749.084-1.589.2.154,1.134.287,2.023T64.568-.35a.752.752,0,0,1-.154.637A.892.892,0,0,1,63.826.63Zm9.016-1.6a.727.727,0,0,1-.532-.224.727.727,0,0,1-.224-.532.72.72,0,0,1,.224-.539.739.739,0,0,1,.532-.217H77.9a6.8,6.8,0,0,0,.4-1.442q.049-.476-.189-.637a1.446,1.446,0,0,0-.784-.161H74.466a.75.75,0,0,1-.539-.224.716.716,0,0,1-.231-.532.709.709,0,0,1,.231-.539.762.762,0,0,1,.539-.217h2.856a3.725,3.725,0,0,1,1.834.364,1.428,1.428,0,0,1,.707,1.183,5.714,5.714,0,0,1-.385,2.205h1.708a.755.755,0,0,1,.546.217.72.72,0,0,1,.224.539.727.727,0,0,1-.224.532.743.743,0,0,1-.546.224ZM90.02.6a.788.788,0,0,1-.665.07.867.867,0,0,1-.525-.42.88.88,0,0,1-.077-.658.837.837,0,0,1,.4-.518,6.506,6.506,0,0,0,1.456-1.057,4.6,4.6,0,0,0,.945-1.351,6.763,6.763,0,0,0,.518-1.82,16.583,16.583,0,0,0,.161-2.478q0-.588-.035-1.26a10.65,10.65,0,0,0-.1-1.106.824.824,0,0,1,.189-.644.863.863,0,0,1,.581-.322.817.817,0,0,1,.637.182.858.858,0,0,1,.315.588,6.844,6.844,0,0,1,.077.8q.021.469.028.931t.007.826a16.7,16.7,0,0,1-.336,3.549,6.9,6.9,0,0,1-1.183,2.674A7.488,7.488,0,0,1,90.02.6Zm-1.4-4.634a.782.782,0,0,1-.567-.294.929.929,0,0,1-.2-.644q.028-.364.014-.973t-.042-1.288q-.028-.679-.077-1.3T87.64-9.548a.817.817,0,0,1,.168-.658.838.838,0,0,1,.574-.322.886.886,0,0,1,.644.161.778.778,0,0,1,.322.567q.042.392.091,1.057t.084,1.407q.035.742.056,1.421t-.007,1.1a.722.722,0,0,1-.3.588A1.006,1.006,0,0,1,88.62-4.032ZM101.808.35a.9.9,0,0,1-.651.063.838.838,0,0,1-.525-.4.8.8,0,0,1-.084-.651.865.865,0,0,1,.406-.525A7.384,7.384,0,0,0,103.3-3.108a5.53,5.53,0,0,0,1.127-2.52H100.38a.81.81,0,0,1-.595-.245.81.81,0,0,1-.245-.6.81.81,0,0,1,.245-.595.81.81,0,0,1,.595-.245h9.268a.81.81,0,0,1,.595.245.81.81,0,0,1,.245.595.81.81,0,0,1-.245.6.81.81,0,0,1-.595.245H106.12a7.333,7.333,0,0,1-.721,2.345A8.237,8.237,0,0,1,103.922-1.2,7.992,7.992,0,0,1,101.808.35Zm.2-8.988a.787.787,0,0,1-.588-.245.822.822,0,0,1-.238-.595.822.822,0,0,1,.238-.6.787.787,0,0,1,.588-.245h6.146a.81.81,0,0,1,.6.245.81.81,0,0,1,.245.6.81.81,0,0,1-.245.595.81.81,0,0,1-.6.245ZM119.574.98a.715.715,0,0,1-.525-.217.715.715,0,0,1-.217-.525V-3.724a21.723,21.723,0,0,1-2.66,1.974.744.744,0,0,1-.574.077.761.761,0,0,1-.476-.343.744.744,0,0,1-.077-.574.71.71,0,0,1,.343-.462A15.545,15.545,0,0,0,117.3-4.368a18.5,18.5,0,0,0,1.75-1.589,12.276,12.276,0,0,0,1.337-1.617.73.73,0,0,1,.483-.322.733.733,0,0,1,.567.126.733.733,0,0,1,.322.49.7.7,0,0,1-.126.56q-.252.364-.581.77a10.508,10.508,0,0,1-.735.812V.238a.715.715,0,0,1-.217.525A.715.715,0,0,1,119.574.98ZM130.48.588a.816.816,0,0,1-.63.182.838.838,0,0,1-.574-.322.827.827,0,0,1-.182-.637.843.843,0,0,1,.322-.581A6.768,6.768,0,0,0,131-2.513a6.561,6.561,0,0,0,.875-2.191,6.52,6.52,0,0,0,.021-2.464.877.877,0,0,1,.14-.651.784.784,0,0,1,.546-.343.831.831,0,0,1,.651.126.793.793,0,0,1,.343.56.986.986,0,0,1,.035.21q.007.112.021.224a12.078,12.078,0,0,0,1.9-.217,2.118,2.118,0,0,0,.854-.336.525.525,0,0,0,.217-.385.576.576,0,0,0-.182-.455,1.282,1.282,0,0,0-.784-.161h-7.406a.845.845,0,0,1-.609-.252.811.811,0,0,1-.259-.6.8.8,0,0,1,.259-.609.857.857,0,0,1,.609-.245h7.406q2.772,0,2.772,2.254a2.041,2.041,0,0,1-.483,1.393,3.087,3.087,0,0,1-1.526.847,13.221,13.221,0,0,1-2.737.392,8.331,8.331,0,0,1-.952,3.374A8.061,8.061,0,0,1,130.48.588Zm13.65-.35a.827.827,0,0,1-.658.007.885.885,0,0,1-.49-.455.9.9,0,0,1-.014-.679.805.805,0,0,1,.448-.483A13.822,13.822,0,0,0,147.1-3.724,8.635,8.635,0,0,0,149.3-6.706a1.189,1.189,0,0,0,.1-1.057q-.21-.357-1.036-.357h-5.25a.811.811,0,0,1-.6-.259.845.845,0,0,1-.252-.609.838.838,0,0,1,.252-.616.822.822,0,0,1,.6-.252h5.32a3.593,3.593,0,0,1,2,.469,1.828,1.828,0,0,1,.833,1.3,3.732,3.732,0,0,1-.336,1.953,10.73,10.73,0,0,1-2.555,3.605A14.886,14.886,0,0,1,144.13.238Zm8.694-8.456a1.363,1.363,0,0,1-1-.413,1.363,1.363,0,0,1-.413-1,1.363,1.363,0,0,1,.413-1,1.363,1.363,0,0,1,1-.413,1.347,1.347,0,0,1,.987.413,1.363,1.363,0,0,1,.413,1,1.363,1.363,0,0,1-.413,1A1.347,1.347,0,0,1,152.824-8.218Zm0-.812a.581.581,0,0,0,.427-.175.581.581,0,0,0,.175-.427.581.581,0,0,0-.175-.427.581.581,0,0,0-.427-.175.6.6,0,0,0-.434.175.57.57,0,0,0-.182.427.57.57,0,0,0,.182.427A.6.6,0,0,0,152.824-9.03ZM160.02.6a.789.789,0,0,1-.665.07.867.867,0,0,1-.525-.42.88.88,0,0,1-.077-.658.837.837,0,0,1,.4-.518,6.506,6.506,0,0,0,1.456-1.057,4.6,4.6,0,0,0,.945-1.351,6.763,6.763,0,0,0,.518-1.82,16.584,16.584,0,0,0,.161-2.478q0-.588-.035-1.26A10.648,10.648,0,0,0,162.092-10a.824.824,0,0,1,.189-.644.863.863,0,0,1,.581-.322.817.817,0,0,1,.637.182.858.858,0,0,1,.315.588,6.846,6.846,0,0,1,.077.8q.021.469.028.931t.007.826a16.7,16.7,0,0,1-.336,3.549,6.9,6.9,0,0,1-1.183,2.674A7.488,7.488,0,0,1,160.02.6Zm-1.4-4.634a.783.783,0,0,1-.567-.294.929.929,0,0,1-.2-.644q.028-.364.014-.973t-.042-1.288q-.028-.679-.077-1.3t-.1-1.015a.817.817,0,0,1,.168-.658.838.838,0,0,1,.574-.322.886.886,0,0,1,.644.161.778.778,0,0,1,.322.567q.042.392.091,1.057t.084,1.407q.035.742.056,1.421t-.007,1.1a.722.722,0,0,1-.3.588A1.006,1.006,0,0,1,158.62-4.032Zm19.054.266a1.205,1.205,0,0,1-.882-.28,1.205,1.205,0,0,1-.28-.882V-9.436a3.935,3.935,0,0,1,.217-1.47,1.268,1.268,0,0,1,.77-.721,4.6,4.6,0,0,1,1.533-.2h1.2q1.176,0,1.176,1.12t-1.176,1.12h-.882a.713.713,0,0,0-.42.077q-.084.077-.084.4v4.186a1.205,1.205,0,0,1-.28.882A1.227,1.227,0,0,1,177.674-3.766Zm0-.714a.442.442,0,0,0,.308-.091.487.487,0,0,0,.1-.357V-9.114a2.215,2.215,0,0,1,.1-.749.589.589,0,0,1,.378-.357,2.526,2.526,0,0,1,.8-.1h.882q.42,0,.42-.392t-.42-.392h-1.2a3.759,3.759,0,0,0-1.12.126.777.777,0,0,0-.511.483,3.2,3.2,0,0,0-.133,1.057v4.508a.487.487,0,0,0,.1.357A.442.442,0,0,0,177.674-4.48ZM183.792,0a.718.718,0,0,1-.8-.826V-8.974a.73.73,0,0,1,.826-.826h5q.84,0,.84.756t-.84.742H184.6v2.548H188.4a.877.877,0,0,1,.609.2.716.716,0,0,1,.217.56q0,.756-.826.756H184.6V-.826A.724.724,0,0,1,183.792,0Zm7.994,0Q191,0,191-.826V-5.908q0-.826.784-.826t.784.826V-.826Q192.57,0,191.786,0Zm-.014-7.84a.956.956,0,0,1-.7-.294.956.956,0,0,1-.294-.7.956.956,0,0,1,.294-.7.956.956,0,0,1,.7-.294.956.956,0,0,1,.7.294.956.956,0,0,1,.294.7.956.956,0,0,1-.294.7A.956.956,0,0,1,191.772-7.84Zm3.5,7.84a.718.718,0,0,1-.8-.826v-8.33a.718.718,0,0,1,.8-.826q.784,0,.784.826v8.33Q196.056,0,195.272,0Zm3.5,0q-.784,0-.784-.826V-5.908q0-.826.784-.826t.784.826V-.826Q199.556,0,198.772,0Zm-.014-7.84a.956.956,0,0,1-.7-.294.956.956,0,0,1-.294-.7.956.956,0,0,1,.294-.7.956.956,0,0,1,.7-.294.956.956,0,0,1,.7.294.956.956,0,0,1,.294.7.956.956,0,0,1-.294.7A.956.956,0,0,1,198.758-7.84ZM202.468,0q-.784,0-.784-.826V-5.908q0-.826.784-.826t.784.826V-.826Q203.252,0,202.468,0Zm-.014-7.84a.956.956,0,0,1-.7-.294.956.956,0,0,1-.294-.7.956.956,0,0,1,.294-.7.956.956,0,0,1,.7-.294.956.956,0,0,1,.7.294.956.956,0,0,1,.294.7.956.956,0,0,1-.294.7A.956.956,0,0,1,202.454-7.84Zm3.612,9.016q-1.176,0-1.176-1.106t1.176-1.12h.882a.665.665,0,0,0,.42-.084.6.6,0,0,0,.084-.392V-5.712a1.183,1.183,0,0,1,.287-.889,1.252,1.252,0,0,1,.889-.273,1.225,1.225,0,0,1,.882.273,1.2,1.2,0,0,1,.28.889V-1.2a3.935,3.935,0,0,1-.217,1.47,1.245,1.245,0,0,1-.763.714,4.746,4.746,0,0,1-1.54.2Zm0-.714h1.2a3.759,3.759,0,0,0,1.12-.126.777.777,0,0,0,.511-.483,3.2,3.2,0,0,0,.133-1.057V-5.712a.487.487,0,0,0-.1-.357.442.442,0,0,0-.308-.091.442.442,0,0,0-.308.091.487.487,0,0,0-.1.357v4.186a2.225,2.225,0,0,1-.1.742.587.587,0,0,1-.371.364,2.516,2.516,0,0,1-.805.1h-.882q-.42,0-.42.392T206.066.462ZM228.382.63a17.169,17.169,0,0,1-3.164.2,6.305,6.305,0,0,1-2.065-.385,2.372,2.372,0,0,1-1.127-.861,2.2,2.2,0,0,1-.35-1.225,2.835,2.835,0,0,1,.847-1.96,7.133,7.133,0,0,1,2.457-1.6,1.1,1.1,0,0,0-.546-.378,1.752,1.752,0,0,0-1.379.154,5.1,5.1,0,0,0-1.323,1.064.888.888,0,0,1-.623.273.757.757,0,0,1-.623-.231.845.845,0,0,1-.2-.616.782.782,0,0,1,.287-.574,8.409,8.409,0,0,0,1.211-1.274,8.81,8.81,0,0,0,.889-1.414q-.6.014-1.127.021t-.9-.007a.787.787,0,0,1-.588-.245.822.822,0,0,1-.238-.6.778.778,0,0,1,.266-.574.823.823,0,0,1,.6-.21q.49.014,1.183.007t1.449-.021q.07-.266.126-.518t.1-.5a.912.912,0,0,1,.308-.567.746.746,0,0,1,.6-.175.807.807,0,0,1,.56.308.8.8,0,0,1,.168.616,2.847,2.847,0,0,1-.056.378q-.042.2-.1.392.532-.028.994-.063t.826-.091a.839.839,0,0,1,.623.161.775.775,0,0,1,.315.553.788.788,0,0,1-.175.616.77.77,0,0,1-.553.294q-.518.056-1.19.1t-1.4.07a11.933,11.933,0,0,1-.672,1.288,2.363,2.363,0,0,1,.644-.049,2.673,2.673,0,0,1,.588.105,2.666,2.666,0,0,1,.819.385,2.547,2.547,0,0,1,.707.763q.686-.2,1.463-.364t1.645-.294a.79.79,0,0,1,.616.147.767.767,0,0,1,.322.553.759.759,0,0,1-.154.616.86.86,0,0,1-.56.322q-.812.1-1.5.231t-1.274.287q.07.378.112.826t.042.966a.81.81,0,0,1-.245.6.81.81,0,0,1-.6.245.787.787,0,0,1-.588-.245.822.822,0,0,1-.238-.6,8.658,8.658,0,0,0-.084-1.274,4.863,4.863,0,0,0-1.659,1.015,1.559,1.559,0,0,0-.511,1.043.7.7,0,0,0,.448.616,3.627,3.627,0,0,0,1.5.266,19.458,19.458,0,0,0,2.87-.21.838.838,0,0,1,.616.161.767.767,0,0,1,.322.553.779.779,0,0,1-.168.6A.851.851,0,0,1,228.382.63Zm9.562-.042a.868.868,0,0,1-.658.021.831.831,0,0,1-.49-.441.885.885,0,0,1-.021-.665.782.782,0,0,1,.441-.483,5.2,5.2,0,0,0,2.338-2,6.519,6.519,0,0,0,.8-3.248h-2.128q.014.56.014,1.064t-.028.91a.8.8,0,0,1-.28.6.875.875,0,0,1-.63.217.8.8,0,0,1-.574-.3.9.9,0,0,1-.21-.623q.028-.378.028-.861t-.014-1h-2.87a.822.822,0,0,1-.6-.238.787.787,0,0,1-.245-.588.81.81,0,0,1,.245-.6.81.81,0,0,1,.6-.245h2.814q-.028-.49-.063-.931T236.32-9.6a.835.835,0,0,1,.147-.637.808.808,0,0,1,.553-.343.8.8,0,0,1,.651.14.783.783,0,0,1,.329.56q.056.392.1.9t.07,1.085h2.17q-.014-.6-.035-1.169t-.063-.987a.849.849,0,0,1,.2-.637.82.82,0,0,1,.581-.3.849.849,0,0,1,.637.2.786.786,0,0,1,.287.6q.042.434.063,1.043t.035,1.253h2.66a.81.81,0,0,1,.6.245.81.81,0,0,1,.245.6.787.787,0,0,1-.245.588.822.822,0,0,1-.6.238h-2.66a8.277,8.277,0,0,1-1.078,4.207A6.577,6.577,0,0,1,237.944.588Zm11-4.984a.833.833,0,0,1-.609-.259.833.833,0,0,1-.259-.609.827.827,0,0,1,.259-.616.845.845,0,0,1,.609-.252h8.722a.838.838,0,0,1,.616.252.838.838,0,0,1,.252.616.845.845,0,0,1-.252.609.827.827,0,0,1-.616.259ZM271.11-.434a20.807,20.807,0,0,1-4.221.357,3.99,3.99,0,0,1-2.415-.749,2.435,2.435,0,0,1-.819-1.246,6.843,6.843,0,0,1-.217-1.862V-9.618a.838.838,0,0,1,.252-.616.822.822,0,0,1,.6-.252.838.838,0,0,1,.616.252.838.838,0,0,1,.252.616v3.094q1.148-.28,2.373-.651t2.205-.749a.822.822,0,0,1,.672.007.83.83,0,0,1,.448.5.864.864,0,0,1-.014.665.757.757,0,0,1-.476.441q-1.19.434-2.576.812t-2.632.658v.91a3.921,3.921,0,0,0,.126,1.183,1.219,1.219,0,0,0,.392.567,2.18,2.18,0,0,0,.917.343,7.056,7.056,0,0,0,1.624.035q1.029-.07,2.625-.336a.768.768,0,0,1,.644.147.875.875,0,0,1,.336.581.745.745,0,0,1-.147.63A.924.924,0,0,1,271.11-.434Zm1.54-6.972a.535.535,0,0,1-.427.175.626.626,0,0,1-.441-.189q-.168-.2-.434-.476t-.476-.49a.49.49,0,0,1-.154-.35.532.532,0,0,1,.154-.406.567.567,0,0,1,.378-.168.586.586,0,0,1,.406.126,3.882,3.882,0,0,1,.525.413,6.21,6.21,0,0,1,.5.5.592.592,0,0,1,.161.434A.618.618,0,0,1,272.65-7.406Zm.364-1.274q-.182-.2-.469-.448t-.525-.448a.542.542,0,0,1-.168-.35.508.508,0,0,1,.126-.406.539.539,0,0,1,.357-.2.646.646,0,0,1,.413.084,4.867,4.867,0,0,1,.553.392q.315.252.539.462a.611.611,0,0,1,.189.427.631.631,0,0,1-.161.441.579.579,0,0,1-.413.2A.535.535,0,0,1,273.014-8.68Zm3.878,8.4a.808.808,0,0,1-.651.035.831.831,0,0,1-.5-.441.828.828,0,0,1-.035-.658.839.839,0,0,1,.427-.49A15.822,15.822,0,0,0,279.7-4.165a12.937,12.937,0,0,0,2.541-2.961q.616-1.008-.672-1.008h-3.822a.811.811,0,0,1-.6-.259A.845.845,0,0,1,276.892-9a.838.838,0,0,1,.252-.616.822.822,0,0,1,.6-.252h3.878a3.437,3.437,0,0,1,1.932.455,1.587,1.587,0,0,1,.735,1.239,3.2,3.2,0,0,1-.525,1.806,8.6,8.6,0,0,1-.742,1.12q.644.532,1.323,1.169t1.274,1.232q.6.6,1,1.015a.864.864,0,0,1,.238.616.816.816,0,0,1-.266.616.814.814,0,0,1-.616.245.863.863,0,0,1-.616-.259L284.41-1.6q-.574-.595-1.218-1.232T281.946-3.99a19.063,19.063,0,0,1-2.373,2.079A16.344,16.344,0,0,1,276.892-.28ZM295.3-2.562a.7.7,0,0,1-.49-.2.744.744,0,0,1-.238-.49q-.042-.532-.077-1.218t-.077-1.407q-.042-.721-.07-1.379t-.042-1.162q-.014-.5-.014-.742v-1.386a.921.921,0,0,1,.287-.686.991.991,0,0,1,.721-.28,1.009,1.009,0,0,1,.735.28.921.921,0,0,1,.287.686v1.386q0,.238-.021.742t-.049,1.162q-.028.658-.063,1.379t-.077,1.407q-.042.686-.084,1.218a.69.69,0,0,1-.224.49A.713.713,0,0,1,295.3-2.562Zm0,3.416a1.146,1.146,0,0,1-.84-.35,1.146,1.146,0,0,1-.35-.84,1.146,1.146,0,0,1,.35-.84,1.146,1.146,0,0,1,.84-.35,1.146,1.146,0,0,1,.84.35,1.146,1.146,0,0,1,.35.84,1.146,1.146,0,0,1-.35.84A1.146,1.146,0,0,1,295.3.854Z" transform="translate(14 178.351)"/><path class="c" d="M-78.36,1.386a1.12,1.12,0,0,1-.837-.342A1.306,1.306,0,0,1-79.566.2a1.077,1.077,0,0,1,.315-.837,1.251,1.251,0,0,1,.819-.369,1.82,1.82,0,0,0,.981-.225,1.076,1.076,0,0,0,.225-.819V-4.734h-6.048a10.48,10.48,0,0,1-.945,3.2A8.1,8.1,0,0,1-86.19.99a1.283,1.283,0,0,1-.864.333,1.121,1.121,0,0,1-.864-.369,1.065,1.065,0,0,1-.3-.8,1.071,1.071,0,0,1,.4-.765,6.831,6.831,0,0,0,1.494-1.782,7.093,7.093,0,0,0,.774-2.178A15.18,15.18,0,0,0-85.308-7.4v-3.834a3.3,3.3,0,0,1,.864-2.6,4.4,4.4,0,0,1,2.88-.747h2.826a4.4,4.4,0,0,1,2.88.747,3.3,3.3,0,0,1,.864,2.6v9.558a3.049,3.049,0,0,1-.783,2.34A3.765,3.765,0,0,1-78.36,1.386Zm-4.752-8.1h5.886V-8.658h-5.868v1.593Q-83.094-6.894-83.112-6.714Zm.018-3.924h5.868v-.468a1.525,1.525,0,0,0-.342-1.134,1.919,1.919,0,0,0-1.3-.324h-2.592a1.923,1.923,0,0,0-1.287.324,1.5,1.5,0,0,0-.351,1.134Zm23.94,11.88a1.259,1.259,0,0,1-.756.225.836.836,0,0,1-.684-.387.908.908,0,0,1-.144-.666.785.785,0,0,1,.36-.576q.4-.27.846-.63t.873-.72q.423-.36.711-.648a1,1,0,0,1,.576-.27,2.309,2.309,0,0,1-1.386-.549,1.946,1.946,0,0,1-.522-1.269.052.052,0,0,0-.018.036.138.138,0,0,1-.018.054.783.783,0,0,1-.495.513,1.125,1.125,0,0,1-.729-.009,11.235,11.235,0,0,1-1.7-.774,12.369,12.369,0,0,1-1.521-1.008,14.6,14.6,0,0,1-3.312,2.16.985.985,0,0,1-.738.1.784.784,0,0,1-.522-.441.814.814,0,0,1-.072-.666.812.812,0,0,1,.45-.5A14.294,14.294,0,0,0-66.4-5.652a16.073,16.073,0,0,0,1.359-.972q-.216-.234-.423-.477l-.4-.477-.351.315-.333.3a1.083,1.083,0,0,1-.684.27.771.771,0,0,1-.648-.27.933.933,0,0,1-.2-.594.6.6,0,0,1,.252-.522,8.17,8.17,0,0,0,.99-.927,12.969,12.969,0,0,0,.936-1.143,10.736,10.736,0,0,0,.7-1.08.81.81,0,0,1,.531-.432.941.941,0,0,1,.693.09.731.731,0,0,1,.387.486.859.859,0,0,1-.081.63l-.045.09a.343.343,0,0,1-.063.09h1.26a1.59,1.59,0,0,1,1.035.315,1.186,1.186,0,0,1,.45.783,1.429,1.429,0,0,1-.261.972q-.27.4-.567.783t-.621.747a11.484,11.484,0,0,0,2.718,1.422.627.627,0,0,1,.279.189,1.188,1.188,0,0,1,.189.3V-9.36a2.284,2.284,0,0,1,.486-1.6,2.41,2.41,0,0,1,1.62-.612q.09-.306.216-.666t.2-.63h-2.556a.777.777,0,0,1-.621-.261.9.9,0,0,1-.225-.6.854.854,0,0,1,.225-.6.8.8,0,0,1,.621-.243h7.218a.8.8,0,0,1,.621.243.854.854,0,0,1,.225.6.9.9,0,0,1-.225.6.777.777,0,0,1-.621.261h-2.556q-.09.288-.207.621l-.225.639h.126a3.325,3.325,0,0,1,2.1.513A2.139,2.139,0,0,1-52.26-9.36v4.734a2.313,2.313,0,0,1-.459,1.566,2.319,2.319,0,0,1-1.521.648,1.059,1.059,0,0,1,.414.216,11.685,11.685,0,0,0,1.116.954q.7.54,1.3.954a.791.791,0,0,1,.36.585A.924.924,0,0,1-51.2.972a.854.854,0,0,1-.675.4,1.213,1.213,0,0,1-.765-.234q-.576-.414-1.305-1a10.846,10.846,0,0,1-1.251-1.161.85.85,0,0,1-.216-.621.891.891,0,0,1,.27-.6l.108-.072a.454.454,0,0,1,.108-.054H-56.6a1.55,1.55,0,0,1-.171-.009,1.55,1.55,0,0,0-.171-.009.553.553,0,0,1,.288.162.943.943,0,0,1,.3.594.747.747,0,0,1-.207.63A15.079,15.079,0,0,1-57.8.2,12.544,12.544,0,0,1-59.154,1.242Zm-4.572-.2a4.97,4.97,0,0,1-1.7-.234,1.48,1.48,0,0,1-.873-.8,3.916,3.916,0,0,1-.252-1.557A3.962,3.962,0,0,1-66.3-3.132a1.452,1.452,0,0,1,.873-.783,5.154,5.154,0,0,1,1.7-.225,5.223,5.223,0,0,1,1.719.225,1.452,1.452,0,0,1,.873.783,3.962,3.962,0,0,1,.252,1.584A3.916,3.916,0,0,1-61.134.009a1.48,1.48,0,0,1-.873.8A5.037,5.037,0,0,1-63.726,1.044ZM-67.02-10.17a.884.884,0,0,1-.594-.216A.762.762,0,0,1-67.866-11v-.756a1.687,1.687,0,0,1,.45-1.287,2.055,2.055,0,0,1,1.44-.423h1.134v-.774a.919.919,0,0,1,.3-.729,1.041,1.041,0,0,1,.711-.261,1.041,1.041,0,0,1,.711.261.919.919,0,0,1,.3.729v.774h1.1a2.015,2.015,0,0,1,1.44.423,1.728,1.728,0,0,1,.432,1.287v.738a.8.8,0,0,1-.243.621.854.854,0,0,1-.6.225.863.863,0,0,1-.594-.225.79.79,0,0,1-.252-.621v-.27q0-.612-.72-.612h-3.186a.842.842,0,0,0-.558.144.6.6,0,0,0-.162.468v.27a.8.8,0,0,1-.243.621A.854.854,0,0,1-67.02-10.17ZM-63.726-.5A1.307,1.307,0,0,0-62.9-.693a1.173,1.173,0,0,0,.216-.855A1.173,1.173,0,0,0-62.9-2.4a1.307,1.307,0,0,0-.828-.189,1.311,1.311,0,0,0-.819.189,1.14,1.14,0,0,0-.225.855,1.14,1.14,0,0,0,.225.855A1.311,1.311,0,0,0-63.726-.5Zm7.524-3.51h.846a1.639,1.639,0,0,0,.909-.171q.225-.171.225-.783v-.126h-3.114v.126q0,.612.225.783A1.639,1.639,0,0,0-56.2-4.014Zm-1.134-2.538h3.114v-.972h-3.114Zm0-2.43h3.114v-.036q0-.612-.225-.783a1.639,1.639,0,0,0-.909-.171H-56.2a1.639,1.639,0,0,0-.909.171q-.225.171-.225.783Zm-6.48,1.206a3.414,3.414,0,0,0,.252-.279,3.167,3.167,0,0,1,.234-.261q.2-.252.108-.4t-.4-.144h-1.134l-.018.018a6.736,6.736,0,0,0,.459.549Q-64.068-8.028-63.816-7.776Zm23.436,9.45a1.025,1.025,0,0,1-.729-.279.976.976,0,0,1-.3-.747V-.5q-.7.144-1.629.315t-1.827.324L-46.41.4a.853.853,0,0,1-.7-.153.967.967,0,0,1-.36-.6A.726.726,0,0,1-47.31-1a.958.958,0,0,1,.63-.333l.936-.126V-7.2h-1.08a.768.768,0,0,1-.576-.243.813.813,0,0,1-.234-.585A.823.823,0,0,1-47.4-8.6a.755.755,0,0,1,.576-.252h15.39a.736.736,0,0,1,.558.252.823.823,0,0,1,.234.576.813.813,0,0,1-.234.585.748.748,0,0,1-.558.243h-7.92V.648a.976.976,0,0,1-.3.747A1.025,1.025,0,0,1-40.38,1.674Zm-.9-11.106a6.98,6.98,0,0,1-2.142-.252,1.632,1.632,0,0,1-1.017-.855,4.1,4.1,0,0,1-.279-1.683,4.1,4.1,0,0,1,.279-1.683,1.6,1.6,0,0,1,1.017-.846,7.223,7.223,0,0,1,2.142-.243h4.338a7.319,7.319,0,0,1,2.151.243,1.6,1.6,0,0,1,1.026.846,4.1,4.1,0,0,1,.279,1.683,4.1,4.1,0,0,1-.279,1.683,1.634,1.634,0,0,1-1.026.855,7.071,7.071,0,0,1-2.151.252ZM-37.59.99a1.467,1.467,0,0,1-.864.189A.884.884,0,0,1-39.138.72a.987.987,0,0,1-.108-.738.858.858,0,0,1,.486-.594,11.823,11.823,0,0,0,2.2-1.35,9.146,9.146,0,0,1-1.53-2.916H-38.4a.755.755,0,0,1-.576-.252.844.844,0,0,1-.234-.594.823.823,0,0,1,.234-.576.755.755,0,0,1,.576-.252h3.888a2.762,2.762,0,0,1,1.656.414,1.4,1.4,0,0,1,.594,1.1,2.73,2.73,0,0,1-.432,1.494,9.492,9.492,0,0,1-1.17,1.62,10.32,10.32,0,0,0,1.026.621,10.555,10.555,0,0,0,1.224.549.916.916,0,0,1,.54.567.953.953,0,0,1-.072.765.87.87,0,0,1-.63.486,1.372,1.372,0,0,1-.846-.09A9.408,9.408,0,0,1-34.008.261a14.275,14.275,0,0,1-1.224-.855A16.858,16.858,0,0,1-37.59.99Zm-3.69-11.844h4.338a2.865,2.865,0,0,0,1.026-.126.7.7,0,0,0,.36-.594h-7.092a.661.661,0,0,0,.351.594A2.874,2.874,0,0,0-41.28-10.854Zm-1.368-2.016h7.092a.677.677,0,0,0-.36-.585,3.07,3.07,0,0,0-1.026-.117H-41.28a2.994,2.994,0,0,0-1.008.117A.677.677,0,0,0-42.648-12.87ZM-43.674-1.764q.63-.09,1.215-.18l1.053-.162v-.738h-2.268Zm0-2.43h2.268v-.828h-2.268Zm0-2.178h2.268V-7.2h-2.268Zm8.424,3.186a5.684,5.684,0,0,0,.648-.882q.252-.414.153-.612t-.639-.2H-36.24A6.214,6.214,0,0,0-35.25-3.186Zm23.2,4.392A15.3,15.3,0,0,1-14.676-.486,13.433,13.433,0,0,1-16.89-2.718a11.144,11.144,0,0,1-1.548-2.646A11.619,11.619,0,0,1-20.9-1.629a13.649,13.649,0,0,1-3.924,2.817,1.574,1.574,0,0,1-.954.162,1.009,1.009,0,0,1-.756-.576A1.037,1.037,0,0,1-26.6-.153a1.236,1.236,0,0,1,.693-.675,10.9,10.9,0,0,0,3-1.863A10.452,10.452,0,0,0-20.742-5.31a8.494,8.494,0,0,0,1.08-3.042h-5.886a1.006,1.006,0,0,1-.738-.306,1.006,1.006,0,0,1-.306-.738,1.006,1.006,0,0,1,.306-.738,1.006,1.006,0,0,1,.738-.306h5.976v-3.546a1.055,1.055,0,0,1,.342-.828,1.152,1.152,0,0,1,.792-.306,1.142,1.142,0,0,1,.8.306,1.069,1.069,0,0,1,.333.828v3.546h6.012a1.006,1.006,0,0,1,.738.306,1.006,1.006,0,0,1,.306.738,1.006,1.006,0,0,1-.306.738,1.006,1.006,0,0,1-.738.306h-5.9a8.854,8.854,0,0,0,1.134,3.006,10.908,10.908,0,0,0,2.2,2.637A11.656,11.656,0,0,0-10.842-.792a1.047,1.047,0,0,1,.621.657,1.144,1.144,0,0,1-.1.891,1.05,1.05,0,0,1-.756.585A1.48,1.48,0,0,1-12.048,1.206ZM-.06.18A6.773,6.773,0,0,1-4.95-1.8a1.484,1.484,0,0,1-.57-1.275A1.41,1.41,0,0,1-4.77-4.11a1.619,1.619,0,0,1,1.23-.285,3.391,3.391,0,0,1,1.2.645,4.308,4.308,0,0,0,1.05.63,3.137,3.137,0,0,0,1.23.24,3.143,3.143,0,0,0,2.535-1A4.2,4.2,0,0,0,3.33-6.69,4.418,4.418,0,0,0,2.6-9.525,2.524,2.524,0,0,0,.54-10.41a2.686,2.686,0,0,0-.855.135,3.315,3.315,0,0,0-.735.345,11.524,11.524,0,0,0-1.05.645,1.942,1.942,0,0,1-1.14.315q-1.65,0-1.65-1.77v-8.49A1.578,1.578,0,0,1-3.09-21H4.02q1.77,0,1.77,1.47T4.02-18.06h-5.7v5.52a4.9,4.9,0,0,1,1.11-.585,3.4,3.4,0,0,1,1.2-.225,6.048,6.048,0,0,1,3.015.75,5.437,5.437,0,0,1,2.13,2.22,7.694,7.694,0,0,1,.8,3.69A6.79,6.79,0,0,1,4.74-1.62,6.55,6.55,0,0,1-.06.18ZM19.71.3a7.125,7.125,0,0,1-2.475-.435,5.059,5.059,0,0,1-2.115-1.53,7.667,7.667,0,0,1-1.44-3.09A19.81,19.81,0,0,1,13.23-9.9q.09-5.94,1.92-8.685a5.878,5.878,0,0,1,5.19-2.745,5.667,5.667,0,0,1,2.19.435,6.622,6.622,0,0,1,1.89,1.185,1.443,1.443,0,0,1,.645,1.2,1.482,1.482,0,0,1-.615,1.08,1.391,1.391,0,0,1-1.11.345,2.725,2.725,0,0,1-1.11-.585,2.981,2.981,0,0,0-1.89-.66,3.174,3.174,0,0,0-2.985,1.86,12.711,12.711,0,0,0-1.035,5.52,3.453,3.453,0,0,1,1.455-1.185,4.518,4.518,0,0,1,1.9-.435,5.873,5.873,0,0,1,3,.765,5.489,5.489,0,0,1,2.085,2.16A6.794,6.794,0,0,1,25.53-6.33a7.809,7.809,0,0,1-.72,3.42A5.688,5.688,0,0,1,22.785-.555,5.483,5.483,0,0,1,19.71.3ZM19.5-2.76a2.413,2.413,0,0,0,2.055-.99,4.22,4.22,0,0,0,.735-2.58,3.741,3.741,0,0,0-.735-2.415A2.361,2.361,0,0,0,19.62-9.66a2.666,2.666,0,0,0-2.16.93,3.43,3.43,0,0,0-.72,2.43,4.426,4.426,0,0,0,.78,2.625A2.381,2.381,0,0,0,19.5-2.76ZM38.82.3A5.449,5.449,0,0,1,35.07-.9a6.676,6.676,0,0,1-1.905-3.6,27.213,27.213,0,0,1-.555-6,27.422,27.422,0,0,1,.555-6.015A6.687,6.687,0,0,1,35.07-20.13a5.449,5.449,0,0,1,3.75-1.2,5.391,5.391,0,0,1,3.735,1.2,6.742,6.742,0,0,1,1.89,3.615A27.422,27.422,0,0,1,45-10.5a27.213,27.213,0,0,1-.555,6,6.731,6.731,0,0,1-1.89,3.6A5.391,5.391,0,0,1,38.82.3Zm0-3.06a2.261,2.261,0,0,0,1.755-.705A4.817,4.817,0,0,0,41.52-5.85a27.912,27.912,0,0,0,.3-4.65,28.15,28.15,0,0,0-.3-4.68,4.817,4.817,0,0,0-.945-2.385,2.261,2.261,0,0,0-1.755-.7,2.309,2.309,0,0,0-1.77.7,4.637,4.637,0,0,0-.945,2.385,29.607,29.607,0,0,0-.285,4.68,29.356,29.356,0,0,0,.285,4.65,4.637,4.637,0,0,0,.945,2.385A2.309,2.309,0,0,0,38.82-2.76Zm14.9,4.236a1.033,1.033,0,0,1-.774-.315,1.126,1.126,0,0,1-.306-.819V-9.9a9.478,9.478,0,0,1,.234-2.322,2.691,2.691,0,0,1,.8-1.4,3.241,3.241,0,0,1,1.548-.684,13.556,13.556,0,0,1,2.493-.189h4.194A13.556,13.556,0,0,1,64.4-14.3a3.241,3.241,0,0,1,1.548.684,2.691,2.691,0,0,1,.8,1.4A9.479,9.479,0,0,1,66.984-9.9v7.758a5.488,5.488,0,0,1-.333,2.133A2,2,0,0,1,65.6,1.071a5.4,5.4,0,0,1-1.89.369,1.48,1.48,0,0,1-.927-.243,1.035,1.035,0,0,1-.423-.783,1.173,1.173,0,0,1,.261-.873,1.047,1.047,0,0,1,.8-.369,2.949,2.949,0,0,0,.9-.162.706.706,0,0,0,.414-.468,3.306,3.306,0,0,0,.108-.954V-5.85H54.78V.342a1.145,1.145,0,0,1-.3.819A1,1,0,0,1,53.718,1.476ZM60.864-7.83h3.978V-9.9a4.71,4.71,0,0,0-.225-1.683,1.2,1.2,0,0,0-.855-.72,7.654,7.654,0,0,0-1.872-.171H60.864Zm-6.084,0h3.96v-4.644H57.732a7.671,7.671,0,0,0-1.863.171,1.207,1.207,0,0,0-.864.72A4.71,4.71,0,0,0,54.78-9.9ZM80.52-3.294a.894.894,0,0,1-.63-.252.957.957,0,0,1-.306-.63q-.054-.684-.1-1.566t-.1-1.809q-.054-.927-.09-1.773t-.054-1.494q-.018-.648-.018-.954v-1.782a1.185,1.185,0,0,1,.369-.882,1.274,1.274,0,0,1,.927-.36,1.3,1.3,0,0,1,.945.36,1.185,1.185,0,0,1,.369.882v1.782q0,.306-.027.954t-.063,1.494q-.036.846-.081,1.773t-.1,1.809q-.054.882-.108,1.566a.887.887,0,0,1-.288.63A.916.916,0,0,1,80.52-3.294Zm0,4.392a1.473,1.473,0,0,1-1.08-.45,1.473,1.473,0,0,1-.45-1.08,1.473,1.473,0,0,1,.45-1.08,1.473,1.473,0,0,1,1.08-.45,1.473,1.473,0,0,1,1.08.45,1.473,1.473,0,0,1,.45,1.08A1.473,1.473,0,0,1,81.6.648,1.473,1.473,0,0,1,80.52,1.1ZM-96.33,68.97a1.822,1.822,0,0,1-1.275-.48,1.662,1.662,0,0,1-.525-1.29V57.96h-5.28a12.245,12.245,0,0,1-2.085,6.51,11.687,11.687,0,0,1-5.865,3.99,3.188,3.188,0,0,1-1.6.165,1.543,1.543,0,0,1-1.1-.945,1.782,1.782,0,0,1-.045-1.38,1.7,1.7,0,0,1,1.185-1.02,10.994,10.994,0,0,0,3.33-1.62,6.065,6.065,0,0,0,1.89-2.355,9.532,9.532,0,0,0,.75-3.345h-6.27a1.592,1.592,0,0,1-1.17-.48,1.557,1.557,0,0,1-.48-1.14,1.592,1.592,0,0,1,.48-1.17,1.592,1.592,0,0,1,1.17-.48h6.3V52.23a1.71,1.71,0,0,1,.525-1.305,1.791,1.791,0,0,1,1.275-.495,1.753,1.753,0,0,1,1.245.495,1.71,1.71,0,0,1,.525,1.305v2.46h5.22V52.17A1.674,1.674,0,0,1-97.6,50.9,1.791,1.791,0,0,1-96.33,50.4a1.754,1.754,0,0,1,1.245.495,1.674,1.674,0,0,1,.525,1.275v2.52h6.06a1.592,1.592,0,0,1,1.17.48,1.592,1.592,0,0,1,.48,1.17,1.557,1.557,0,0,1-.48,1.14,1.592,1.592,0,0,1-1.17.48h-6.06V67.2a1.662,1.662,0,0,1-.525,1.29A1.783,1.783,0,0,1-96.33,68.97Zm7.56-17.91a1.8,1.8,0,0,1-1.275.51,1.647,1.647,0,0,1-1.245-.54l-.99-.99q-.54-.54-1.17-1.11-1.92.21-4.44.45t-5.22.465q-2.7.225-5.19.42t-4.35.345a1.908,1.908,0,0,1-1.29-.39,1.567,1.567,0,0,1-.6-1.17,1.54,1.54,0,0,1,.39-1.2,1.613,1.613,0,0,1,1.2-.54q.87-.06,1.935-.12t2.205-.12q.45-.78,1.065-1.9t1.17-2.205q.555-1.08.825-1.68a1.808,1.808,0,0,1,1.14-.99,1.962,1.962,0,0,1,1.56.18,1.565,1.565,0,0,1,.855,1.05,1.841,1.841,0,0,1-.195,1.35q-.42.75-1.08,1.86t-1.29,2.1l4.365-.3q2.175-.15,4.035-.27-.42-.36-.81-.69t-.75-.6a1.527,1.527,0,0,1-.6-1.125,1.621,1.621,0,0,1,.36-1.215A1.911,1.911,0,0,1-97.02,42a1.673,1.673,0,0,1,1.29.3q1.11.81,2.46,1.965t2.6,2.295q1.245,1.14,2.025,1.95a1.636,1.636,0,0,1,.48,1.305A1.868,1.868,0,0,1-88.77,51.06Zm25.23,6.75a10.2,10.2,0,0,1-2.97-.33,2.163,2.163,0,0,1-1.38-1.08,4.611,4.611,0,0,1-.36-1.98V52.68q-.12.15-.225.27t-.225.27a1.487,1.487,0,0,1-1.05.525,1.629,1.629,0,0,1-1.14-.345,1.2,1.2,0,0,1-.3-.36,1.524,1.524,0,0,1-.81.24h-6.15a1.28,1.28,0,0,1-.96-.4,1.32,1.32,0,0,1-.39-.945,1.355,1.355,0,0,1,.39-.975,1.28,1.28,0,0,1,.96-.405H-72a1.316,1.316,0,0,1,1.17.66q.66-.75,1.365-1.71t1.32-1.95a19.482,19.482,0,0,0,1-1.8,1.352,1.352,0,0,1,1.2-.81v-.09h-2.97a1.151,1.151,0,0,1-.84-.36,1.151,1.151,0,0,1-.36-.84,1.137,1.137,0,0,1,.36-.855,1.176,1.176,0,0,1,.84-.345h2.97v-.48a1.447,1.447,0,0,1,.45-1.11,1.527,1.527,0,0,1,1.08-.42,1.527,1.527,0,0,1,1.08.42,1.447,1.447,0,0,1,.45,1.11v.48h3.06v-.48a1.447,1.447,0,0,1,.45-1.11,1.527,1.527,0,0,1,1.08-.42,1.475,1.475,0,0,1,1.065.42,1.472,1.472,0,0,1,.435,1.11v.48h3a1.161,1.161,0,0,1,.855.345,1.161,1.161,0,0,1,.345.855,1.176,1.176,0,0,1-.345.84,1.137,1.137,0,0,1-.855.36h-3v.39a1.472,1.472,0,0,1-.435,1.11,1.475,1.475,0,0,1-1.065.42h-.09a.526.526,0,0,1-.06.15,1.021,1.021,0,0,1-.12.27q-.09.15-.18.33H-54a.934.934,0,0,1,.69.27.934.934,0,0,1,.27.69.986.986,0,0,1-.27.7.909.909,0,0,1-.69.285h-4.71v.93h3.96a.838.838,0,0,1,.615.255.874.874,0,0,1,.255.645.838.838,0,0,1-.255.615.838.838,0,0,1-.615.255h-3.96v.9h3.96a.838.838,0,0,1,.615.255.838.838,0,0,1,.255.615.874.874,0,0,1-.255.645.838.838,0,0,1-.615.255h-3.96v1.02h4.98a.986.986,0,0,1,.7.27.909.909,0,0,1,.285.69.973.973,0,0,1-.285.69.933.933,0,0,1-.7.3Zm-4.41,10.83a2.2,2.2,0,0,1-1.275-.12,1.385,1.385,0,0,1-.735-.9,1.352,1.352,0,0,1,.195-1.2,1.626,1.626,0,0,1,1.1-.63,23.555,23.555,0,0,0,2.73-.57,21.371,21.371,0,0,0,2.49-.84,15.437,15.437,0,0,1-2.79-3.3h-2.04a1.1,1.1,0,0,1-.825-.36,1.176,1.176,0,0,1-.345-.84,1.161,1.161,0,0,1,.345-.855,1.126,1.126,0,0,1,.825-.345h9.99a3.524,3.524,0,0,1,2.325.69,2.144,2.144,0,0,1,.825,1.71,2.751,2.751,0,0,1-1.02,1.98q-.39.39-.825.765a10.58,10.58,0,0,1-.915.7,20.032,20.032,0,0,0,2.07.705,18.243,18.243,0,0,0,2.34.5,1.675,1.675,0,0,1,1.1.6,1.345,1.345,0,0,1,.225,1.17q-.33,1.35-2.1,1.08a18.157,18.157,0,0,1-6.48-2.28,24.424,24.424,0,0,1-3.315,1.38A25.964,25.964,0,0,1-67.95,68.64Zm-7.08-.72a6.926,6.926,0,0,1-2.745-.435A2.4,2.4,0,0,1-79.11,66.06a7.916,7.916,0,0,1-.36-2.64,8.029,8.029,0,0,1,.36-2.67,2.4,2.4,0,0,1,1.335-1.425,6.926,6.926,0,0,1,2.745-.435,6.908,6.908,0,0,1,2.76.435,2.41,2.41,0,0,1,1.32,1.425,8.029,8.029,0,0,1,.36,2.67,7.916,7.916,0,0,1-.36,2.64,2.41,2.41,0,0,1-1.32,1.425A6.908,6.908,0,0,1-75.03,67.92Zm-4.35-18.78a1.28,1.28,0,0,1-.96-.4,1.355,1.355,0,0,1-.39-.975,1.32,1.32,0,0,1,.39-.945,1.28,1.28,0,0,1,.96-.4h8.46a1.247,1.247,0,0,1,.93.4,1.32,1.32,0,0,1,.39.945,1.355,1.355,0,0,1-.39.975,1.247,1.247,0,0,1-.93.4ZM-78.09,45a1.354,1.354,0,0,1-.99-.42,1.354,1.354,0,0,1-.42-.99,1.354,1.354,0,0,1,.42-.99,1.354,1.354,0,0,1,.99-.42h6.06a1.292,1.292,0,0,1,.99.42,1.407,1.407,0,0,1,.39.99,1.407,1.407,0,0,1-.39.99,1.292,1.292,0,0,1-.99.42Zm-.06,12.45a1.28,1.28,0,0,1-.96-.405,1.355,1.355,0,0,1-.39-.975,1.355,1.355,0,0,1,.39-.975,1.28,1.28,0,0,1,.96-.405H-72a1.28,1.28,0,0,1,.96.405,1.355,1.355,0,0,1,.39.975,1.355,1.355,0,0,1-.39.975,1.28,1.28,0,0,1-.96.405Zm3.12,7.74a1.48,1.48,0,0,0,1.185-.36,2.428,2.428,0,0,0,.285-1.41,2.509,2.509,0,0,0-.285-1.425,1.444,1.444,0,0,0-1.185-.375,1.4,1.4,0,0,0-1.155.375,2.509,2.509,0,0,0-.285,1.425,2.428,2.428,0,0,0,.285,1.41A1.433,1.433,0,0,0-75.03,65.19Zm10.32-17.67h2.76l.69-1.65a1.3,1.3,0,0,1,.585-.675,1.735,1.735,0,0,1,.855-.225v-.12h-3.06v.39a1.435,1.435,0,0,1-.435,1.08,1.557,1.557,0,0,1-1.035.45,2.328,2.328,0,0,1-.12.3.66.66,0,0,1-.1.225A1.676,1.676,0,0,0-64.71,47.52ZM-60.69,63q.39-.24.75-.48t.66-.45q.51-.39.42-.69t-.78-.3h-3.27q.51.51,1.065,1A12.527,12.527,0,0,0-60.69,63Zm-2.85-7.14h1.71V54.84h-3.3a1.012,1.012,0,0,0,.4.8A2.284,2.284,0,0,0-63.54,55.86Zm-1.62-5.46h3.33v-.93h-3.33Zm0,2.67h3.33v-.9h-3.33Zm23.43,14.28a1.676,1.676,0,0,1-1.23-.51,1.712,1.712,0,0,1-.51-1.26,1.676,1.676,0,0,1,.51-1.23,1.676,1.676,0,0,1,1.23-.51h7.77v-9.9h-9.96a1.676,1.676,0,0,1-1.23-.51,1.676,1.676,0,0,1-.51-1.23,1.676,1.676,0,0,1,.51-1.23,1.676,1.676,0,0,1,1.23-.51h9.96v-7.5a1.877,1.877,0,0,1,.585-1.425,1.957,1.957,0,0,1,1.4-.555,1.942,1.942,0,0,1,1.41.555A1.9,1.9,0,0,1-30,42.96v7.5h10.08a1.676,1.676,0,0,1,1.23.51,1.676,1.676,0,0,1,.51,1.23,1.676,1.676,0,0,1-.51,1.23,1.676,1.676,0,0,1-1.23.51H-30v9.9h7.83a1.726,1.726,0,0,1,1.245.51,1.653,1.653,0,0,1,.525,1.23,1.687,1.687,0,0,1-.525,1.26,1.726,1.726,0,0,1-1.245.51ZM6.36,68.52a1.73,1.73,0,0,1-1.23-.48,1.65,1.65,0,0,1-.51-1.26V60.57Q3.33,61.98,1.755,63.4A31.389,31.389,0,0,1-1.23,65.82a1.943,1.943,0,0,1-1.35.345,1.615,1.615,0,0,1-1.2-.705,1.575,1.575,0,0,1-.255-1.245,1.528,1.528,0,0,1,.7-1.035,25.17,25.17,0,0,0,2.22-1.62q1.23-.99,2.445-2.07T3.39,57.51H-1.86A1.583,1.583,0,0,1-3,57.045a1.509,1.509,0,0,1-.48-1.125A1.509,1.509,0,0,1-3,54.795a1.583,1.583,0,0,1,1.14-.465H4.62v-2.4H4.47A9.914,9.914,0,0,1,1.1,51.465,3.041,3.041,0,0,1-.675,49.89,7.2,7.2,0,0,1-1.2,46.86a7.183,7.183,0,0,1,.525-3.045,3.051,3.051,0,0,1,1.755-1.56,9.891,9.891,0,0,1,3.39-.465H8.19a10.025,10.025,0,0,1,3.4.465,2.992,2.992,0,0,1,1.755,1.56,7.369,7.369,0,0,1,.51,3.045,7.388,7.388,0,0,1-.51,3.03A2.983,2.983,0,0,1,11.6,51.465a10.025,10.025,0,0,1-3.4.465H8.1v2.4h6.48a1.568,1.568,0,0,1,1.155.465,1.593,1.593,0,0,1,0,2.25,1.568,1.568,0,0,1-1.155.465H9.33q.84.84,2.055,1.89t2.46,2.01q1.245.96,2.2,1.56a1.5,1.5,0,0,1,.7,1.065,1.675,1.675,0,0,1-.285,1.245,1.617,1.617,0,0,1-1.17.735,1.928,1.928,0,0,1-1.38-.315q-.87-.6-1.89-1.44t-2.04-1.8Q8.97,61.5,8.1,60.6v6.18a1.65,1.65,0,0,1-.51,1.26A1.73,1.73,0,0,1,6.36,68.52Zm-12.18.18a1.694,1.694,0,0,1-1.2-.48,1.58,1.58,0,0,1-.51-1.2V52.95q-.69,1.11-1.38,2.01a1.637,1.637,0,0,1-1.11.675,1.8,1.8,0,0,1-1.29-.285,1.735,1.735,0,0,1-.7-1.065A1.439,1.439,0,0,1-11.76,53.1q.84-1.17,1.7-2.64t1.635-3.015q.78-1.545,1.395-3t.975-2.6a1.654,1.654,0,0,1,.87-1.05,1.747,1.747,0,0,1,1.35-.06,1.772,1.772,0,0,1,1.005.765A1.5,1.5,0,0,1-2.73,42.81q-.27.9-.615,1.83t-.765,1.89V66.99a1.6,1.6,0,0,1-.51,1.245A1.723,1.723,0,0,1-5.82,68.7ZM4.56,48.72H8.1a2.669,2.669,0,0,0,1.65-.36,1.974,1.974,0,0,0,.42-1.5,2.026,2.026,0,0,0-.42-1.53,2.669,2.669,0,0,0-1.65-.36H4.56a2.6,2.6,0,0,0-1.62.36,2.026,2.026,0,0,0-.42,1.53,1.974,1.974,0,0,0,.42,1.5A2.6,2.6,0,0,0,4.56,48.72Zm21,19.77a1.641,1.641,0,0,1-1.14-.435,1.519,1.519,0,0,1-.48-1.185V45.45a5.482,5.482,0,0,1,.39-2.3,2.321,2.321,0,0,1,1.425-1.185,9.414,9.414,0,0,1,2.955-.36q3.33,0,4.23,1.32t-.18,3.48l-.27.51q1.11-.69,2.3-1.59t2.235-1.845q1.05-.945,1.77-1.695a3.189,3.189,0,0,1,2.28-1.11,3.435,3.435,0,0,1,2.37.93q.87.72,2.13,1.68t2.61,1.845q1.35.885,2.43,1.455a1.362,1.362,0,0,1,.78.99,1.8,1.8,0,0,1-.18,1.29,1.853,1.853,0,0,1-1.11.87,1.6,1.6,0,0,1-1.35-.18q-.39-.24-.87-.54t-.99-.66a1.539,1.539,0,0,1,.12.63,1.5,1.5,0,0,1-.4,1.065,1.424,1.424,0,0,1-1.1.435H43.08v1.53h1.47a8.379,8.379,0,0,1,2.655.345A2.45,2.45,0,0,1,48.66,53.6a5.722,5.722,0,0,1,.45,2.535,5.722,5.722,0,0,1-.45,2.535,2.45,2.45,0,0,1-1.455,1.23,8.379,8.379,0,0,1-2.655.345h-.66a16.589,16.589,0,0,0,2.865,2.565A15.779,15.779,0,0,0,50.25,64.74a1.439,1.439,0,0,1,.9.93,1.67,1.67,0,0,1-1.1,2.175,2.176,2.176,0,0,1-1.485-.075,15.065,15.065,0,0,1-2.445-1.305,18.04,18.04,0,0,1-2.43-1.89,17.217,17.217,0,0,1-2.025-2.2,10.339,10.339,0,0,1-3.6,3.6,19.954,19.954,0,0,1-5.16,2.19,1.933,1.933,0,0,1-1.305-.03,1.451,1.451,0,0,1-.825-.9,1.65,1.65,0,0,1,.075-1.26,1.405,1.405,0,0,1,.885-.75,16.764,16.764,0,0,0,4.53-1.935,7.746,7.746,0,0,0,2.85-3.045h-.66a8.524,8.524,0,0,1-2.67-.345,2.451,2.451,0,0,1-1.47-1.23,5.722,5.722,0,0,1-.45-2.535,5.722,5.722,0,0,1,.45-2.535,2.451,2.451,0,0,1,1.47-1.23,8.524,8.524,0,0,1,2.67-.345h1.38V50.49H37.26a1.435,1.435,0,0,1-1.08-.435,1.475,1.475,0,0,1-.42-1.065.943.943,0,0,1,.015-.15.943.943,0,0,0,.015-.15q-.48.36-.945.69t-.885.57a1.9,1.9,0,0,1-1.32.285,1.564,1.564,0,0,1-1.11-.765.708.708,0,0,1-.15-.33q-.12.24-.24.465t-.21.375a1.474,1.474,0,0,0,.3,2.07,7.494,7.494,0,0,1,2.01,5.25,5.085,5.085,0,0,1-1.125,3.615A4.33,4.33,0,0,1,29.04,62.19a1.64,1.64,0,0,1-1.86-1.14v5.82a1.544,1.544,0,0,1-.465,1.185A1.626,1.626,0,0,1,25.56,68.49Zm1.62-8.61a1.82,1.82,0,0,1,.45-.675,1.485,1.485,0,0,1,.75-.375,1.753,1.753,0,0,0,1.095-.63,2.992,2.992,0,0,0,.315-1.62,5.554,5.554,0,0,0-.48-2.22,6.214,6.214,0,0,0-1.2-1.86,2.244,2.244,0,0,1-.675-1.17,3.176,3.176,0,0,1,.375-1.56q.18-.33.525-1.11t.69-1.59q.345-.81.495-1.2.3-.72.12-1.005t-1.08-.285a1.869,1.869,0,0,0-1.11.225,1.326,1.326,0,0,0-.27,1.005ZM37.32,47.49h8.37q-1.02-.75-1.98-1.515T42.12,44.64a1.247,1.247,0,0,0-.855-.465,1.379,1.379,0,0,0-.855.525q-.57.57-1.38,1.305T37.32,47.49Zm5.76,9.9h1.05a2.834,2.834,0,0,0,1.38-.21q.3-.21.3-1.05,0-.87-.3-1.065a3.028,3.028,0,0,0-1.38-.2H43.08Zm-4.23,0h.99V54.87h-.99a3.028,3.028,0,0,0-1.38.2q-.3.195-.3,1.065,0,.84.3,1.05A2.834,2.834,0,0,0,38.85,57.39ZM68.16,67.44a1.187,1.187,0,0,1-.864-.315,1.219,1.219,0,0,1-.36-.819,1.088,1.088,0,0,1,.27-.783,1.122,1.122,0,0,1,.81-.369,1.867,1.867,0,0,0,1-.243,1.074,1.074,0,0,0,.207-.783V57.054h-5.6a.954.954,0,0,1-.729-.3,1.045,1.045,0,0,1,0-1.422.954.954,0,0,1,.729-.3h5.6V52a1.019,1.019,0,0,1,.315-.792,1.16,1.16,0,0,1,1.53,0,1.019,1.019,0,0,1,.315.792v3.042h1.6a.947.947,0,0,1,.738.3,1.071,1.071,0,0,1,0,1.422.947.947,0,0,1-.738.3h-1.6v7.434a4.308,4.308,0,0,1-.3,1.764,1.735,1.735,0,0,1-1,.918A5.524,5.524,0,0,1,68.16,67.44Zm-7.128.072a1.093,1.093,0,0,1-.765-.288,1,1,0,0,1-.315-.774V58.134q-.594.756-1.188,1.4a1.067,1.067,0,0,1-1.494.09,1.008,1.008,0,0,1-.333-.684.873.873,0,0,1,.243-.684,20.856,20.856,0,0,0,1.674-2.088,26.64,26.64,0,0,0,1.512-2.394,16.693,16.693,0,0,0,1.08-2.286A1.016,1.016,0,0,1,62,50.925a1.092,1.092,0,0,1,.792-.009.924.924,0,0,1,.576.5.955.955,0,0,1,0,.81q-.234.63-.558,1.305t-.72,1.359V66.45a1,1,0,0,1-.315.774A1.07,1.07,0,0,1,61.032,67.512Zm6.354-5.022a1.126,1.126,0,0,1-.873.2,1.042,1.042,0,0,1-.693-.486q-.18-.306-.495-.738t-.639-.864q-.324-.432-.558-.7a.915.915,0,0,1-.18-.747,1.021,1.021,0,0,1,.414-.675,1.288,1.288,0,0,1,.783-.243.957.957,0,0,1,.729.369q.234.27.576.711t.675.882q.333.441.513.729a1.111,1.111,0,0,1-.252,1.566ZM87.78,67.512a10.249,10.249,0,0,1-3.708-.45,4.234,4.234,0,0,1-2.16-1.512,3.466,3.466,0,0,1-.576-2.322,3.115,3.115,0,0,1,.6-1.629,3.361,3.361,0,0,1,1.35-1.044,5.565,5.565,0,0,1,1.872-.441,7.251,7.251,0,0,1,2.133.18q-.27-.4-.531-.837t-.513-.891q-1.026.18-2.061.324t-1.989.252a1,1,0,0,1-.765-.252,1.033,1.033,0,0,1-.369-.72,1.043,1.043,0,0,1,.243-.783.959.959,0,0,1,.729-.351q.738-.072,1.584-.18t1.71-.252l-.252-.612q-.126-.306-.234-.612-.72.126-1.413.225t-1.287.171a1.065,1.065,0,0,1-.774-.234,1.024,1.024,0,0,1-.4-.7,1.1,1.1,0,0,1,.234-.783.952.952,0,0,1,.7-.387q.468-.036,1.044-.117t1.188-.171q-.072-.306-.162-.585t-.162-.549a1.06,1.06,0,0,1,.117-.819,1.017,1.017,0,0,1,.657-.5,1.06,1.06,0,0,1,.819.117,1.017,1.017,0,0,1,.495.657q.09.324.171.648t.189.666q.576-.108,1.107-.225t.981-.225a.961.961,0,0,1,.792.135,1.016,1.016,0,0,1,.468.657,1.068,1.068,0,0,1-.135.8.968.968,0,0,1-.657.459l-.9.2q-.486.108-1.008.2.108.306.225.612t.243.612q.738-.144,1.431-.306t1.269-.306a1.037,1.037,0,0,1,.792.144A1.06,1.06,0,0,1,90.57,57.7q-.468.126-1.053.243l-1.215.243a17.06,17.06,0,0,0,.954,1.557,8.426,8.426,0,0,0,1.062,1.269,1.071,1.071,0,0,1,.315.648,1.013,1.013,0,0,1-.171.7,1.035,1.035,0,0,1-.567.45,1.018,1.018,0,0,1-.729-.018,8.738,8.738,0,0,0-2.952-.783,3.767,3.767,0,0,0-2.007.342,1.325,1.325,0,0,0-.765,1.125q-.108,2.016,4.266,1.89a1.041,1.041,0,0,1,.774.279,1.076,1.076,0,0,1,.054,1.521A1.06,1.06,0,0,1,87.78,67.512Zm19.17-4.806a.894.894,0,0,1-.63-.252.957.957,0,0,1-.306-.63q-.054-.684-.1-1.566t-.1-1.809q-.054-.927-.09-1.773t-.054-1.494q-.018-.648-.018-.954V52.446a1.185,1.185,0,0,1,.369-.882,1.274,1.274,0,0,1,.927-.36,1.3,1.3,0,0,1,.945.36,1.185,1.185,0,0,1,.369.882v1.782q0,.306-.027.954t-.063,1.494q-.036.846-.081,1.773t-.1,1.809q-.054.882-.108,1.566a.887.887,0,0,1-.288.63A.916.916,0,0,1,106.95,62.706Zm0,4.392a1.536,1.536,0,1,1,1.08-.45A1.473,1.473,0,0,1,106.95,67.1Z" transform="translate(165 58.618)"/></g></svg>