<svg xmlns="http://www.w3.org/2000/svg" width="233.151" height="108.453" viewBox="0 0 233.151 108.453"><g transform="translate(-62.001 -12083)"><path d="M34.5,0h89a34.5,34.5,0,0,1,0,69h-89a34.5,34.5,0,0,1,0-69Z" transform="translate(137.151 12083)" fill="#ffd86e"/><path d="M-15.624,1.106a.93.93,0,0,1-1.05-.882.816.816,0,0,1,.231-.686,1.235,1.235,0,0,1,.819-.322,1.425,1.425,0,0,0,.7-.2.693.693,0,0,0,.168-.546V-3.29h-5.012a.771.771,0,0,1-.567-.231.771.771,0,0,1-.231-.567.778.778,0,0,1,.231-.56.759.759,0,0,1,.567-.238h5.012v-1.33h-3.906a.778.778,0,0,1-.56-.231A.744.744,0,0,1-19.46-7a.744.744,0,0,1,.238-.553.778.778,0,0,1,.56-.231h3.906V-9.212q-1.008.1-2.03.154t-2,.07a.836.836,0,0,1-.63-.21.832.832,0,0,1-.252-.6.671.671,0,0,1,.238-.574.972.972,0,0,1,.644-.21q1.008-.014,2.163-.084t2.31-.2q1.155-.133,2.2-.308t1.862-.385a.908.908,0,0,1,.707.056.762.762,0,0,1,.385.476.957.957,0,0,1-.049.679.726.726,0,0,1-.539.385q-.714.154-1.519.294t-1.673.252v1.638H-9.31a.778.778,0,0,1,.56.231A.744.744,0,0,1-8.512-7a.744.744,0,0,1-.238.553.778.778,0,0,1-.56.231h-3.626v1.33H-8.2a.759.759,0,0,1,.567.238.778.778,0,0,1,.231.56.771.771,0,0,1-.231.567A.771.771,0,0,1-8.2-3.29h-4.732v1.974a2.388,2.388,0,0,1-.63,1.855A3.039,3.039,0,0,1-15.624,1.106Zm12.306.224a.7.7,0,0,1-.5-.2.665.665,0,0,1-.21-.5V-1.232H-5.95a.637.637,0,0,1-.476-.2.671.671,0,0,1-.2-.483.648.648,0,0,1,.2-.476.648.648,0,0,1,.476-.2h1.918v-.784a2.355,2.355,0,0,1-1.617-.49,2.127,2.127,0,0,1-.469-1.554v-.91a2.1,2.1,0,0,1,.469-1.554,2.407,2.407,0,0,1,1.617-.476v-.7H-5.894a.632.632,0,0,1-.462-.2.632.632,0,0,1-.2-.462.609.609,0,0,1,.2-.455.644.644,0,0,1,.462-.189h1.862v-.8a.675.675,0,0,1,.21-.518.713.713,0,0,1,.5-.2.713.713,0,0,1,.5.2.675.675,0,0,1,.21.518v.8H-.952a.62.62,0,0,1,.455.189.62.62,0,0,1,.189.455A.644.644,0,0,1-.5-9.254a.609.609,0,0,1-.455.2H-2.6v.7A2.4,2.4,0,0,1-.98-7.882,2.118,2.118,0,0,1-.518-6.328v.112a.684.684,0,0,1,.189-.2.862.862,0,0,1,.273-.126A7.473,7.473,0,0,0,.9-6.944a10.07,10.07,0,0,0,.9-.518A7.32,7.32,0,0,1,.518-9.856H.084a.632.632,0,0,1-.462-.2.632.632,0,0,1-.2-.462.625.625,0,0,1,.2-.469.644.644,0,0,1,.462-.189H3.6a2.443,2.443,0,0,1,1.428.35,1.153,1.153,0,0,1,.518.917A2.105,2.105,0,0,1,5.11-8.652q-.224.322-.476.623T4.1-7.434a8.137,8.137,0,0,0,1.834.868.739.739,0,0,1,.483.427.745.745,0,0,1-.007.623.753.753,0,0,1-.476.434,1.077,1.077,0,0,1-.7-.042A9.116,9.116,0,0,1,2.9-6.412a9.489,9.489,0,0,1-1.12.7A10.141,10.141,0,0,1,.49-5.138.969.969,0,0,1-.091-5.1a.686.686,0,0,1-.427-.322A2.144,2.144,0,0,1-.98-3.857,2.376,2.376,0,0,1-2.6-3.374v.784h1.75a.671.671,0,0,1,.483.2.637.637,0,0,1,.2.476.66.66,0,0,1-.2.483.66.66,0,0,1-.483.2H-2.6V.616a.675.675,0,0,1-.21.518A.713.713,0,0,1-3.318,1.33ZM-.35.686a.665.665,0,0,1-.5-.21.683.683,0,0,1-.2-.49.7.7,0,0,1,.2-.5.665.665,0,0,1,.5-.21H2.086V-2.394H.462a.687.687,0,0,1-.5-.21.7.7,0,0,1-.21-.518.687.687,0,0,1,.21-.5.687.687,0,0,1,.5-.21H2.086V-4.928a.731.731,0,0,1,.224-.56.751.751,0,0,1,.532-.21.745.745,0,0,1,.539.21.743.743,0,0,1,.217.56v1.092H5.32a.687.687,0,0,1,.5.21.687.687,0,0,1,.21.5.7.7,0,0,1-.21.518.687.687,0,0,1-.5.21H3.6V-.728h2.31a.665.665,0,0,1,.5.21.7.7,0,0,1,.2.5.683.683,0,0,1-.2.49.665.665,0,0,1-.5.21ZM2.982-8.4q.2-.2.371-.406a4.114,4.114,0,0,0,.3-.406q.238-.35.14-.5t-.5-.147H2.044a7.1,7.1,0,0,0,.413.763A4.746,4.746,0,0,0,2.982-8.4ZM-2.6-4.592a.965.965,0,0,0,.637-.189.9.9,0,0,0,.147-.595H-2.6Zm-1.428,0v-.784h-.784a.945.945,0,0,0,.161.595A.939.939,0,0,0-4.032-4.592ZM-2.6-6.4h.784a.871.871,0,0,0-.154-.588.942.942,0,0,0-.63-.2Zm-2.212,0h.784v-.784a.917.917,0,0,0-.616.2A.919.919,0,0,0-4.816-6.4ZM10.094.224a.83.83,0,0,1-.63-.14.835.835,0,0,1-.35-.532q-.126-.714-.2-1.659t-.07-2q0-1.05.056-2.114t.175-2.037Q9.2-9.226,9.366-10a.8.8,0,0,1,.364-.525.816.816,0,0,1,.63-.119.856.856,0,0,1,.525.371A.822.822,0,0,1,11-9.632a19.284,19.284,0,0,0-.35,2.156q-.126,1.162-.161,2.359t.035,2.324a17.631,17.631,0,0,0,.238,2.051.747.747,0,0,1-.133.616A.862.862,0,0,1,10.094.224Zm5.74-.756a4.552,4.552,0,0,1-2.709-.658,2.77,2.77,0,0,1-1.071-1.932.79.79,0,0,1,.147-.616.815.815,0,0,1,.553-.336.838.838,0,0,1,.616.161.815.815,0,0,1,.336.553,1.178,1.178,0,0,0,.574.9,3.244,3.244,0,0,0,1.6.294,12.253,12.253,0,0,0,2.534-.322.759.759,0,0,1,.63.112.82.82,0,0,1,.364.532.781.781,0,0,1-.126.623.884.884,0,0,1-.532.371,10.664,10.664,0,0,1-1.5.252Q16.492-.532,15.834-.532Zm-2.562-6.93a.8.8,0,0,1-.623-.119.808.808,0,0,1-.357-.539.816.816,0,0,1,.119-.63.755.755,0,0,1,.539-.35,12.375,12.375,0,0,1,1.75-.2q.966-.049,1.918-.014a12.684,12.684,0,0,1,1.68.161.784.784,0,0,1,.546.343.806.806,0,0,1,.126.637.761.761,0,0,1-.343.539A.843.843,0,0,1,18-7.5a13.338,13.338,0,0,0-2.352-.189A12.94,12.94,0,0,0,13.272-7.462ZM-40.082,22.7a.855.855,0,0,1-.6.189.736.736,0,0,1-.532-.245.746.746,0,0,1-.175-.525.585.585,0,0,1,.231-.483,8.765,8.765,0,0,0,1.141-1.029,7.8,7.8,0,0,0,.875-1.141,7.634,7.634,0,0,0-.728-.49,2.915,2.915,0,0,1-.77-.616,1.163,1.163,0,0,1-.273-.686,3.256,3.256,0,0,1,.1-.91q.112-.462.238-.987t.224-1.071h-.63a.675.675,0,0,1-.518-.21.713.713,0,0,1-.2-.5.713.713,0,0,1,.2-.5.675.675,0,0,1,.518-.21h.9q.112-.658.2-1.246t.133-1.022a.709.709,0,0,1,.273-.5.821.821,0,0,1,.581-.147.7.7,0,0,1,.539.287.734.734,0,0,1,.133.581q-.07.434-.161.959t-.2,1.085h.546A1.438,1.438,0,0,1-36.414,15a12.215,12.215,0,0,1-.826,4A11.01,11.01,0,0,1-36.022,20.1a.79.79,0,0,1,.238.581.769.769,0,0,1-.252.581.818.818,0,0,1-.56.231.723.723,0,0,1-.56-.245q-.182-.21-.385-.42t-.441-.42a8.687,8.687,0,0,1-.931,1.2A12.038,12.038,0,0,1-40.082,22.7Zm7.63.014a5.408,5.408,0,0,1-1.806-.238,1.485,1.485,0,0,1-.9-.826A4.32,4.32,0,0,1-35.406,20a4.32,4.32,0,0,1,.252-1.652,1.485,1.485,0,0,1,.9-.826,5.408,5.408,0,0,1,1.806-.238,5.408,5.408,0,0,1,1.806.238,1.484,1.484,0,0,1,.9.826A4.32,4.32,0,0,1-29.5,20a4.32,4.32,0,0,1-.252,1.652,1.484,1.484,0,0,1-.9.826A5.408,5.408,0,0,1-32.452,22.714Zm3.486-5.922a.759.759,0,0,1-.581.077.7.7,0,0,1-.469-.357,3.592,3.592,0,0,0-.168-.322q-.1-.168-.21-.35-.476.056-1.141.14t-1.379.161q-.714.077-1.365.14t-1.1.091a.848.848,0,0,1-.637-.2.811.811,0,0,1-.259-.539.839.839,0,0,1,.175-.567.723.723,0,0,1,.581-.259q.112,0,.231-.007t.259-.007q.126-.364.294-.875t.343-1.057q.175-.546.322-1.043t.217-.833a.857.857,0,0,1,.392-.539.88.88,0,0,1,.644-.1.792.792,0,0,1,.5.357.736.736,0,0,1,.077.651q-.112.392-.315.98l-.42,1.218q-.217.63-.413,1.134.574-.042,1.148-.091t1.05-.077q-.182-.308-.357-.581t-.329-.483a.605.605,0,0,1-.1-.518.639.639,0,0,1,.322-.42.8.8,0,0,1,.581-.084.8.8,0,0,1,.483.322q.21.266.469.651t.532.812l.518.812q.245.385.4.665a.83.83,0,0,1,.091.616A.78.78,0,0,1-28.966,16.792Zm-3.486,4.438a2.837,2.837,0,0,0,.861-.1.588.588,0,0,0,.385-.371,2.4,2.4,0,0,0,.1-.777,2.215,2.215,0,0,0-.1-.749.61.61,0,0,0-.385-.364,2.658,2.658,0,0,0-.861-.105,2.847,2.847,0,0,0-.854.1.591.591,0,0,0-.392.357,2.215,2.215,0,0,0-.1.749,2.345,2.345,0,0,0,.1.763.63.63,0,0,0,.392.385A2.513,2.513,0,0,0-32.452,21.23Zm-6.034-3.122a7.564,7.564,0,0,0,.364-1.323,11.705,11.705,0,0,0,.168-1.421.686.686,0,0,0-.1-.525.7.7,0,0,0-.5-.133h-.322q-.126.644-.252,1.211t-.238,1a.92.92,0,0,0-.014.525.876.876,0,0,0,.42.385,2.415,2.415,0,0,1,.231.133Q-38.612,18.038-38.486,18.108Zm18.424,3.948a.862.862,0,0,1-.609-.2.792.792,0,0,1-.287-.567.82.82,0,0,1,.2-.616.759.759,0,0,1,.574-.28,3.836,3.836,0,0,0,2.345-.847,2.6,2.6,0,0,0,.819-2.037,2.292,2.292,0,0,0-.546-1.519,3,3,0,0,0-1.5-.931,12.215,12.215,0,0,1-1.372,2.8l.252.2q.126.1.238.182a.812.812,0,0,1,.343.539.836.836,0,0,1-.133.637.812.812,0,0,1-.539.343.766.766,0,0,1-.623-.147q-.294-.21-.588-.462a7.026,7.026,0,0,1-.84.742,9.021,9.021,0,0,1-.938.616,3.025,3.025,0,0,1-1.673.42A1.852,1.852,0,0,1-26.25,20.3a2.311,2.311,0,0,1-.5-1.589,4.612,4.612,0,0,1,.518-2.177,5.57,5.57,0,0,1,1.372-1.7,13.629,13.629,0,0,1-.9-1.89.745.745,0,0,1,.035-.637.835.835,0,0,1,.483-.427.8.8,0,0,1,.637.042.809.809,0,0,1,.427.476q.126.378.3.77t.385.8a6.88,6.88,0,0,1,1.449-.49,7.173,7.173,0,0,1,1.547-.168h.21q.1-.364.175-.742t.147-.77a.815.815,0,0,1,.336-.553.771.771,0,0,1,.63-.133.807.807,0,0,1,.539.336.814.814,0,0,1,.147.63q-.056.378-.14.742l-.168.728a4.6,4.6,0,0,1,2.38,1.463,3.78,3.78,0,0,1,.868,2.5,4.558,4.558,0,0,1-.56,2.289,4.081,4.081,0,0,1-1.6,1.568A6.086,6.086,0,0,1-20.062,22.056Zm-4-2.954A5.773,5.773,0,0,0-22.624,18a18.849,18.849,0,0,1-1.4-1.82,3.4,3.4,0,0,0-1.092,2.464.594.594,0,0,0,.28.581A.833.833,0,0,0-24.066,19.1Zm2.45-2.422q.238-.406.462-.861a8.823,8.823,0,0,0,.406-.973,5.887,5.887,0,0,0-1.029.14,5.248,5.248,0,0,0-.9.294A12.579,12.579,0,0,0-21.616,16.68ZM-8.148,22.5a.822.822,0,0,1-.6-.238A.837.837,0,0,1-9,21.678a.822.822,0,0,1,.238-.595.837.837,0,0,1,.588-.259q3.92-.07,3.92-2.24a1.376,1.376,0,0,0-.49-1.12,1.976,1.976,0,0,0-1.3-.406A4.43,4.43,0,0,0-7.9,17.5a5.291,5.291,0,0,0-1.743,1.323.773.773,0,0,1-.469.259A.8.8,0,0,1-10.64,19a.705.705,0,0,1-.35-.357.875.875,0,0,1-.07-.511q.1-.588.217-1.274t.259-1.393q.14-.707.28-1.309a.75.75,0,0,1,.371-.525.825.825,0,0,1,.637-.091.816.816,0,0,1,.518.385.808.808,0,0,1,.1.637q-.1.392-.231.9t-.273,1.085a5.649,5.649,0,0,1,3.178-1.092,3.932,3.932,0,0,1,1.806.392A2.918,2.918,0,0,1-3,16.946a3.083,3.083,0,0,1,.427,1.638A3.387,3.387,0,0,1-3.948,21.4,6.994,6.994,0,0,1-8.148,22.5Zm2.24-8.764q-.448-.224-1.015-.483t-1.134-.5q-.567-.245-1-.413a.716.716,0,0,1-.42-.462.853.853,0,0,1,.028-.644.781.781,0,0,1,.476-.427.928.928,0,0,1,.644.021q.462.182,1,.413t1.085.476q.546.245.994.469a.9.9,0,0,1,.441.469.816.816,0,0,1,.007.637.868.868,0,0,1-.462.448A.776.776,0,0,1-5.908,13.74ZM4.284,23.05a.813.813,0,0,1-.812-.812v-3.08q-.238.364-.469.721t-.427.679a.751.751,0,0,1-.525.357.828.828,0,0,1-.623-.119.812.812,0,0,1-.343-.539.8.8,0,0,1,.133-.623q.406-.546.987-1.379t1.267-1.7V14.762a.513.513,0,0,1-.1.021.346.346,0,0,0-.112.035q-.154.028-.441.112l-.546.161-.357.105a.833.833,0,0,1-.63-.112.827.827,0,0,1-.378-.532.816.816,0,0,1,.119-.63.8.8,0,0,1,.525-.364l.392-.091q.266-.063.567-.126l.511-.1a3.778,3.778,0,0,1,.448-.084V11.136a.812.812,0,0,1,1.386-.574.782.782,0,0,1,.238.574v2.3a1.158,1.158,0,0,1,.392.448,1.217,1.217,0,0,1,.14.392,7.327,7.327,0,0,1,1.309-.882,2.8,2.8,0,0,1,1.3-.336,2.353,2.353,0,0,1,2.184,1.029,4.847,4.847,0,0,1,.224,3.283q-.154.9-.224,1.435a5.783,5.783,0,0,0-.063.819.912.912,0,0,0,.07.392.5.5,0,0,0,.175.182.843.843,0,0,0,.714.021,2.5,2.5,0,0,0,.826-.567.713.713,0,0,1,.6-.2.858.858,0,0,1,.574.308.763.763,0,0,1,.2.609.9.9,0,0,1-.287.581,3.665,3.665,0,0,1-1.848,1,2.619,2.619,0,0,1-1.792-.245,1.708,1.708,0,0,1-.7-.756,2.905,2.905,0,0,1-.21-1.274,13.073,13.073,0,0,1,.238-2.03,9.136,9.136,0,0,0,.2-1.869,1.263,1.263,0,0,0-.273-.868.971.971,0,0,0-.693-.231,1.8,1.8,0,0,0-.924.308,6.19,6.19,0,0,0-1.043.826A15.621,15.621,0,0,0,5.1,16.974v5.264a.813.813,0,0,1-.812.812ZM20.958,22.6a3.25,3.25,0,0,1-2.009-.616,1.879,1.879,0,0,1-.707-1.61,1.9,1.9,0,0,1,1.2-1.729,2.515,2.515,0,0,1,1.246-.161,1.974,1.974,0,0,1,1.568.763,1.9,1.9,0,0,1,.266,1.519,2.059,2.059,0,0,0,.8-.693,2.036,2.036,0,0,0,.315-1.183,1.658,1.658,0,0,0-.315-.987,2.054,2.054,0,0,0-.882-.686,2.859,2.859,0,0,0-1.309-.2,4.385,4.385,0,0,0-1.6.441,6.581,6.581,0,0,0-1.75,1.267.857.857,0,0,1-.63.231.791.791,0,0,1-.616-.287.835.835,0,0,1-.2-.609.689.689,0,0,1,.287-.539q.868-.658,1.736-1.393t1.659-1.449q.791-.714,1.393-1.3.378-.364.259-.6t-.609-.168q-.476.056-1.085.14t-1.141.154a.776.776,0,0,1-.616-.154.79.79,0,0,1-.322-.56.756.756,0,0,1,.154-.609.85.85,0,0,1,.56-.329q.308-.042.777-.084l.966-.084.847-.07a2.681,2.681,0,0,1,1.484.238,1.631,1.631,0,0,1,.784.833,1.673,1.673,0,0,1,.021,1.141,2.594,2.594,0,0,1-.805,1.162q-.28.238-.707.616t-.875.77a4.252,4.252,0,0,1,1.554-.021,3.416,3.416,0,0,1,1.351.539,2.917,2.917,0,0,1,.945,1.071,3.306,3.306,0,0,1,.35,1.561,3.7,3.7,0,0,1-.56,2.107,3.226,3.226,0,0,1-1.54,1.218A5.78,5.78,0,0,1,20.958,22.6Zm-.252-1.554h.084a.981.981,0,0,1,.1.007.542.542,0,0,0,.147-.007,1,1,0,0,0,.07-.77.592.592,0,0,0-.5-.364.837.837,0,0,0-.553.091.526.526,0,0,0-.245.427Q19.8,20.992,20.706,21.048ZM35,19.438a.7.7,0,0,1-.49-.2.744.744,0,0,1-.238-.49q-.042-.532-.077-1.218t-.077-1.407q-.042-.721-.07-1.379t-.042-1.162q-.014-.5-.014-.742V11.458a.921.921,0,0,1,.287-.686.991.991,0,0,1,.721-.28,1.009,1.009,0,0,1,.735.28.921.921,0,0,1,.287.686v1.386q0,.238-.021.742t-.049,1.162q-.028.658-.063,1.379t-.077,1.407q-.042.686-.084,1.218a.69.69,0,0,1-.224.49A.713.713,0,0,1,35,19.438Zm0,3.416a1.2,1.2,0,1,1,.84-.35A1.146,1.146,0,0,1,35,22.854Z" transform="translate(216.151 12113)" fill="#60432e" opacity="0.999"/><path d="M8.206,0C3.674,0,4.239,8.562,4.239,8.562L0,22.77,16.411,8.562S12.737,0,8.206,0Z" transform="matrix(0.914, 0.407, -0.407, 0.914, 139.491, 12115.646)" fill="#ffd86e"/><path d="M92.061,236.837s-.855-1.507-4.086-3.144-4.463-2.869-4.767-4.028c0,0,4.159-1.768,4.608-5.477,0,0,3.086-.724,3.043-2.565s-.753-2.4-.753-2.4,1.225-.948,1.257-1.977a24.111,24.111,0,0,0-1.4-6.564c-.739-1.666-2.666-4.811-4.709-5.955a15.221,15.221,0,0,0-7.071-2.072h-.319l-.348-1.608s-1.087-3.159-2.55-4.043-5.26-2.043-6.9-3.217-5.955-2.173-6.825-4.68a12.646,12.646,0,0,1-.826-2.768s3.564-3.362,3.985-5.97c0,0,3.6-.543,3.622-3.42s-.826-3.35-2.1-3.624c0,0,.174-5.969-.71-8.1s-5.579-7.028-7.506-7.346-5.065-.558-5.065-.558-10.49-.485-12.033,6.744.062,8.888.062,8.888-3.318,1.615-2.21,4.116.628,2.666,3.636,3.145c0,0,.579,4.4,3.521,5.984a4.94,4.94,0,0,1-.727,2.975,14.432,14.432,0,0,1-5.686,4.265c-3.058,1.438-9.042,4.468-9.091,4.49s.7-2.532-.271-4.442-2.819-4.729-2.819-4.729a2.24,2.24,0,0,0-2.3.394c-1.213.94-1.546.849-1.546.849l-3.638-10.034s-1.364-1.395-1.94-.606-.455,1.455-1.031,1.7-1.091.362-.849,1.515.364,1.789.364,1.789-1.182-.606-1.273.576-.3,8.609,1.425,12.793,1.94,5.709,4.457,6.73v1.273H19.411s-.844.03-.695.7.543,13.339.756,15.218.758,9.61,7.306,9.974c0,0,5.31,1.3,6.914-6.7l.938.03.485,17.535H93.24c0-.635.015-1.27.013-1.905m-65.4-44.641a1.7,1.7,0,0,1-1.48.927,2.348,2.348,0,0,1-2.206-1.659,3.418,3.418,0,0,1,.281-2.16,1.508,1.508,0,0,1,.6-.784,1.328,1.328,0,0,1,1.011-.132,1.084,1.084,0,0,1,.337.146,1.164,1.164,0,0,1,.65.354A4.036,4.036,0,0,1,28,194.376a2.3,2.3,0,0,1-.153,1.569" transform="translate(47.817 11948.686)" fill="#fff"/><path d="M249.6,1102.666c-.282-.689-.49-1.418-.841-2.084a7.942,7.942,0,0,0-1.059-1.533q-.175-.2-.363-.387a15.263,15.263,0,0,0-3.926-2.63c-.72-.371-1.466-.668-2.215-.974-.387-.158-.773-.319-1.154-.494a8.226,8.226,0,0,0-1.12-.572c-.194.122-.408.266-.648.436-1.61,1.294-10.375,7.636-10.375,7.636s-.543.737-1.4,0-10.278-7.486-10.278-7.486h0c-.48-.292-.942-.612-1.4-.94-.123-.074-.246-.148-.367-.223-.8.415-2.265,1.144-3.938,1.858-2.539,1.083-6.011,2.2-6.646,3.323a28.919,28.919,0,0,0-2.24,4.741,10.245,10.245,0,0,0,.261,2.207s0,.332-2.389.743c-2.538.579-6.422-.694-6.459.9-.112.822.224,13.291.373,14.934s-.187,4.48,2.389,7.168,2.165,2.613,4.406,2.912c5.854,1.164,7.017-2.9,7.392-7.243.149-1.419,1.157-.56,1.157-.261s.459,18.309.459,18.309h25.707c0-.657-.005-1.314-.024-1.969a15.4,15.4,0,0,1,.026-1.811c.434-5.092,3.886-4.422,7.214-6.413a5.319,5.319,0,0,0,1.748-2.577,14.282,14.282,0,0,1-2.349-1.993,6.327,6.327,0,0,1-1.933-3.633c-2.873-.2-4.242-3.2-1.809-5.1-1.819-1.337-1.54-4.584-1.067-6.544,1.137-3.484,3.5-9,7.977-8.137a6.531,6.531,0,0,1,4.242-1.468,4.316,4.316,0,0,0,.87-.091,2.406,2.406,0,0,0-.226-.594" transform="translate(-123.689 11048.178)" fill="#dce4eb"/><path d="M737.672,1103.854a1.228,1.228,0,0,0-.611.237c-.11.072-.218.152-.323.228l0,0-.132.1-2.343,1.686-.033.024c-2.325,1.671-4.728,3.4-7.085,5.127a1.157,1.157,0,0,1-.679.279,1.2,1.2,0,0,1-.7-.292c-2.594-1.9-5.244-3.8-7.807-5.645l-.214-.153-1.507-1.083c-.052-.037-.106-.079-.159-.12a1.411,1.411,0,0,0-.76-.37h-.036a.544.544,0,0,0-.563.353c-.169.461.126.722.443.951l.678.489c3.265,2.354,6.642,4.789,9.96,7.192a1.147,1.147,0,0,0,.669.256,1.016,1.016,0,0,0,.6-.22c3.136-2.269,6.286-4.542,9.333-6.739l1.37-.989c.351-.253.67-.573.373-1.024a.557.557,0,0,0-.472-.287" transform="translate(-625.499 11038.133)" fill="#3a3d3f"/><path d="M1221.615,929.287l-.035-.068a7.839,7.839,0,0,0-1.229-1.738,9.345,9.345,0,0,0-3.166-2.135c-.415-.179-.857-.368-1.212-.519l-.03-.013a49.748,49.748,0,0,1-6.2-2.989l-.044-.026a9.36,9.36,0,0,1-3.954-3.568,10.474,10.474,0,0,1-.664-1.743c-.12-.4-.313-.595-.592-.595a.72.72,0,0,0-.2.031c-.372.109-.5.405-.385.9.023.1.055.209.086.311l.037.124a7.692,7.692,0,0,0,1.531,2.87,10.542,10.542,0,0,0,2.483,2.11,54.772,54.772,0,0,0,8.479,4.155,8.053,8.053,0,0,1,3.1,2.138,6.161,6.161,0,0,1,.966,1.557c.041.1.079.2.115.3a3.594,3.594,0,0,0,.2.479,1.354,1.354,0,0,0,.163.242.87.87,0,0,0,.613.305.469.469,0,0,0,.447-.31c.2-.471-.258-1.35-.5-1.823" transform="translate(-1096.091 11218.949)" fill="#3a3d3f"/><path d="M21.3,771.484l0-.061c-.1-3.337-.2-6.788-.3-10.182q-.075-2.533-.152-5.065c-.015-.51-.017-1.026-.019-1.525a20.315,20.315,0,0,0-.316-4.246c-.122-.561-.278-1.124-.43-1.667-.111-.4-.226-.811-.327-1.22-.117-.475-.228-.959-.337-1.428-.115-.5-.234-1.016-.36-1.522l0-.008c-.081-.323-.271-.518-.523-.537l-.042,0a.691.691,0,0,0-.19.028c-.376.107-.521.427-.409.9.137.577.284,1.161.426,1.726.247.982.5,2,.712,3a26.636,26.636,0,0,1,.536,4.786c.056,2.131.124,4.294.19,6.4-.209-1.511-.525-3-.836-4.466v0c-.124-.585-.253-1.19-.372-1.785-.413-2.062-1-4.123-1.571-6.12-.269-.94-.546-1.913-.8-2.873-.2-.758-.484-1.1-.914-1.1a1.879,1.879,0,0,0-.89.314l-.035.02a2.122,2.122,0,0,1-.018-.45,2.2,2.2,0,0,1,.382-.9l.013-.021a14.676,14.676,0,0,0,1.819-4.121c.131-.094.263-.186.4-.275.2-.135.4-.28.592-.421a8.744,8.744,0,0,1,1.028-.684,18.582,18.582,0,0,1,1.8-.81l.1-.039c.325-.132.661-.269.989-.413a41.472,41.472,0,0,0,7.475-3.993,8.038,8.038,0,0,0,3.171-4.634,1.048,1.048,0,0,0,0-.769.593.593,0,0,0-.381-.265.735.735,0,0,0-.192-.028c-.384,0-.526.369-.607.69a6.77,6.77,0,0,1-1.342,2.683,9.175,9.175,0,0,1-2.289,1.961,55.547,55.547,0,0,1-7.75,3.807l-.4.17a12.857,12.857,0,0,0-2.337,1.308c0-.027,0-.054,0-.08a7.246,7.246,0,0,0-.633-3.4,12.532,12.532,0,0,0-.831-1.421c-.23-.357-.469-.726-.673-1.106-.087-.162-.172-.333-.255-.5a3.7,3.7,0,0,0-1.651-2,1.915,1.915,0,0,0-.728-.141A4.842,4.842,0,0,0,9.39,730.2l-.022.016-.008-.026c-.837-2.745-1.7-5.583-2.787-8.293a5.029,5.029,0,0,0-1.016-1.762,2,2,0,0,0-1.407-.556,1.636,1.636,0,0,0-1.252.512,1.407,1.407,0,0,0-.29,1.16l0,.019-.019,0a2.191,2.191,0,0,0-1.386.567,2.28,2.28,0,0,0-.149,2c.029.141.059.286.084.425a.5.5,0,0,1-.025.337.527.527,0,0,1-.312.2c-.033.011-.066.023-.1.036-.487.2-.718.773-.705,1.752A47.56,47.56,0,0,0,1.78,739.578c.528,1.781,1.357,4,3.093,5.321l.154.115a2.4,2.4,0,0,1,.695.674,1.378,1.378,0,0,1,.169.5,3.217,3.217,0,0,0-.356-.022,1.165,1.165,0,0,0-.875.291,1.526,1.526,0,0,0-.314,1.133q.037,1.808.073,3.616v.023c.071,3.531.145,7.182.233,10.78a15.135,15.135,0,0,0,1.1,5.919c1.638,3.627,4.065,5.39,7.418,5.39h0c.2,0,.4-.006.6-.018a5.86,5.86,0,0,0,5.637-3.983,8.908,8.908,0,0,0,.52-2.8l.017.562v.044c0,.893.04,1.8.077,2.679.032.755.065,1.535.075,2.3.015,1.244.06,2.56.109,3.953.08,2.308.163,4.695.1,6.8a.6.6,0,0,0,.514.692.821.821,0,0,0,.131.011.608.608,0,0,0,.61-.56,4.2,4.2,0,0,0,.04-.9c-.1-3.5-.208-7.119-.309-10.618M3.107,739.367A45.168,45.168,0,0,1,1.191,726.89a1.5,1.5,0,0,1,.2-.946l.008-.011.013,0c.415.142.562.627.651,1.083l1.075,5.518a1.748,1.748,0,0,0,.269.747.656.656,0,0,0,.494.26.421.421,0,0,0,.2-.046c.246-.128.327-.454.242-.97a45.417,45.417,0,0,0-1.42-6.565c-.073-.227-.152-.457-.227-.68a15.723,15.723,0,0,1-.581-1.995.8.8,0,0,1,.059-.625.452.452,0,0,1,.379-.177.679.679,0,0,1,.457.18,1.659,1.659,0,0,1,.384.828l2.023,8.11c.114.457.386.919.736.919a.443.443,0,0,0,.133-.021c.381-.12.4-.661.294-1.128a98.532,98.532,0,0,0-2.629-9.823.7.7,0,0,1-.006-.646.405.405,0,0,1,.334-.152.564.564,0,0,1,.283.077,1.273,1.273,0,0,1,.42.5,24.957,24.957,0,0,1,2.013,5.414,33.619,33.619,0,0,0,1.376,4.128,1.426,1.426,0,0,0,.4.6.765.765,0,0,0,.472.156,2.277,2.277,0,0,0,1.325-.682,2.261,2.261,0,0,1,1.39-.74.831.831,0,0,1,.449.129,1.587,1.587,0,0,1,.464.546l1.052,1.715a.8.8,0,0,1,.167.492.521.521,0,0,1-.548.406.6.6,0,0,1-.2-.034,1.424,1.424,0,0,1-.662-.644l-.036-.057a1.813,1.813,0,0,0-.55-.64.879.879,0,0,0-.459-.127,1.883,1.883,0,0,0-1.43.963,3.854,3.854,0,0,0-.542,3.023,2.786,2.786,0,0,0,2.184,2.029,2.032,2.032,0,0,0,.28.019,2.186,2.186,0,0,0,2.118-1.587,3.843,3.843,0,0,0,.066-.711c.005-.17.01-.345.032-.516a1.3,1.3,0,0,1,.615-1.029l.018-.008.008.018a7.756,7.756,0,0,1-.044,6.021,15.322,15.322,0,0,1-.767,1.453,15.01,15.01,0,0,0-.776,1.476A4.417,4.417,0,0,0,13,745.517a11.921,11.921,0,0,1-4.606.862c-.352,0-.716-.013-1.087-.039a10.509,10.509,0,0,0-.061-1.08.688.688,0,0,0-.317-.508l0,0,0,0a2.644,2.644,0,0,0-.7-.528c-.07-.042-.143-.085-.213-.129-1.614-1.015-2.375-2.957-2.907-4.723m9.72-2.819a.447.447,0,0,1-.422.3l-.042,0a1.8,1.8,0,0,1-.562-.186,1.8,1.8,0,0,1-1.04-1.044,1.834,1.834,0,0,1,.247-1.481c.094-.162.2-.319.316-.5l.007-.011.144-.22.012-.018.017.014c.563.49,1.065.931,1.5,1.372.413.417.125,1.133-.177,1.772m5.511,32.059a4.479,4.479,0,0,1-3.889,3.368,10.168,10.168,0,0,1-1.294.088A5.9,5.9,0,0,1,9.428,770.9a8.881,8.881,0,0,1-2.517-3.426,15.629,15.629,0,0,1-1.061-6.145c-.071-1.93-.087-3.894-.1-5.8-.019-2.345-.039-4.77-.162-7.153-.009-.184,0-.368.01-.582,0-.1.01-.2.013-.31v-.02l.02,0c.94.093,1.777.139,2.559.139a12.86,12.86,0,0,0,6.722-1.65l.021-.012.007.023c.125.438.246.865.365,1.286.265.935.515,1.818.777,2.708a67.147,67.147,0,0,1,2.647,13.59,12.53,12.53,0,0,1-.39,5.057" transform="translate(62 11407.805)" fill="#3a3d3f"/><path d="M122.479,1129.759l.049,0a.747.747,0,0,0,.1-.007c.432-.06.519-.433.547-.791a11.9,11.9,0,0,0-2.894-5.906.492.492,0,0,0-.348-.18H119.9a.682.682,0,0,0-.465.207.605.605,0,0,0-.033.853,13.22,13.22,0,0,1,2.538,5.319.582.582,0,0,0,.541.506" transform="translate(-52.707 11019.836)" fill="#3a3d3f"/><path d="M641.1,22.158q.2-.686.426-1.365a16.472,16.472,0,0,0-.336-11.788,19.172,19.172,0,0,0-1.959-3.448,7.072,7.072,0,0,0-6.145-3.327.889.889,0,0,1-.747-.214,6.984,6.984,0,0,0-4.92-1.993,14.086,14.086,0,0,0-11.528,4.734,24.444,24.444,0,0,0-2.645,3.277c-2.121,3.224-3.049,6.636-1.437,10.426a7.882,7.882,0,0,1,.832,3.514,2.736,2.736,0,0,0-.7.672,2.681,2.681,0,0,0-.535,1.707,6.3,6.3,0,0,0,.992,3.463,4.646,4.646,0,0,0,2.835,1.795l.006,0,0,.006c.039.14.079.279.12.421l.015.052a1.653,1.653,0,0,1,.128.31,9.727,9.727,0,0,0,2.842,4.49c.389.338.8.662,1.218.962.316.227.652.45,1,.665A21.929,21.929,0,0,0,626,38.872a2.47,2.47,0,0,0,.706.1,3.317,3.317,0,0,0,.841-.117,20.586,20.586,0,0,0,4.188-1.672c.456-.233.894-.479,1.3-.733.357-.221.7-.454,1.021-.692a10.249,10.249,0,0,0,3.926-5.426.943.943,0,0,1,.143-.3l0,0,.025-.059c.055-.128.1-.256.13-.353l0-.006.006,0a4.691,4.691,0,0,0,3.1-2.239,5.86,5.86,0,0,0,.605-3.619,2.346,2.346,0,0,0-.891-1.593m-26.212,6.2a4.55,4.55,0,0,1-1.126-.7,3.663,3.663,0,0,1-1.04-1.862,3.645,3.645,0,0,1-.02-2.115,1.314,1.314,0,0,1,1.076-.939h.011l.081.5v0a1.915,1.915,0,0,1,.19.619c.159.989.355,1.991.544,2.96l0,.011c.085.432.172.879.255,1.321,0,.025.011.05.018.076a.824.824,0,0,1,.024.117l0,.019Zm23.155-3.6,0,.012c-.239,1.246-.486,2.535-.762,3.8a9.862,9.862,0,0,1-3.005,5.553,18.56,18.56,0,0,1-6.778,3.591,2.448,2.448,0,0,1-.758.121,2.67,2.67,0,0,1-.77-.118,21.828,21.828,0,0,1-3.557-1.45c-3.142-1.571-5.069-3.687-5.891-6.469a46.661,46.661,0,0,1-1.058-4.8c-.143-.78-.291-1.586-.458-2.377-.021-.1-.04-.193-.059-.276-.077-.787-.082-1.588-.1-2.359a10.01,10.01,0,0,1,.1-1.918,2.323,2.323,0,0,1,.376-.963.914.914,0,0,1,.706-.607,13.152,13.152,0,0,0,8.072-5.707c.082-.128.139-.3.416-.3a5.084,5.084,0,0,1-.1,1.967c-.086.386-.142.758.225,1.033a.91.91,0,0,0,1-.012,8.768,8.768,0,0,0,4.324-4c.734-1.412.872-1.443,2.193-.473.457.336.875.723,1.319,1.077a22.123,22.123,0,0,1,2.615,2.76,9.176,9.176,0,0,1,2.507,5.485c.014.183.027.366.047.548q.043,1.567-.041,3.133c-.037.121-.07.276-.109.471-.153.759-.3,1.532-.445,2.28M640.6,26.34a4.076,4.076,0,0,1-1.971,1.913l-.02.009.059-.353c.1-.614.2-1.194.306-1.776.059-.321.125-.647.19-.964.1-.5.206-1.015.285-1.526a1.154,1.154,0,0,1,.154-.444v0c.019-.134.041-.271.062-.4l.009-.053h.011a1.239,1.239,0,0,1,.656.307,1.547,1.547,0,0,1,.431.642,3.361,3.361,0,0,1-.173,2.651" transform="translate(-525.766 12100.026)" fill="#3a3d3f"/><path d="M1005.008,892.677a.921.921,0,0,0-.659.212.58.58,0,0,0-.137.455c.022.385.274.557.815.56h0c.353-.016.758-.1.753-.618,0-.4-.265-.607-.775-.608" transform="translate(-904.032 11241.282)" fill="#3a3d3f"/><path d="M931.772,769.257c-1.218.049-2.434.141-3.654.093-.74-.036-1.48-.095-2.22-.1-.619,0-.888.451-.54.944a8.82,8.82,0,0,0,2.4,2.592,1.96,1.96,0,0,0,2.509-.022,8.474,8.474,0,0,0,2.147-2.251c.209-.283.5-.557.307-.949s-.594-.32-.949-.306m-.962,1.526a4.853,4.853,0,0,1-1.46,1.237.617.617,0,0,1-.68.016,4.328,4.328,0,0,1-1.659-1.526c-.032-.058,0-.105.063-.1.635.005,1.274-.016,1.907,0,.549,0,1.1,0,1.648,0,.091,0,.371-.021.413.035.08.108-.163.247-.232.343" transform="translate(-828.03 11360.025)" fill="#3a3d3f"/><path d="M979.09,603.422a.623.623,0,0,0,.07,0,.476.476,0,0,0,.477-.346.5.5,0,0,0-.278-.63,1.442,1.442,0,0,0-.255-.1,1.17,1.17,0,0,1-.292-.125l-.073-.048.136-.225c.134-.222.261-.432.377-.653a.5.5,0,0,0-.109-.635.537.537,0,0,0-.344-.141.357.357,0,0,0-.258.107,3.889,3.889,0,0,0-1.028,1.631.546.546,0,0,0,.133.457,2.254,2.254,0,0,0,1.444.707" transform="translate(-878.339 11522.331)" fill="#3a3d3f"/><path d="M845.031,532.565a.887.887,0,1,0,1.05.872.975.975,0,0,0-1.05-.872" transform="translate(-749.895 11587.704)" fill="#3a3d3f"/><path d="M1150.809,532.565a.887.887,0,1,0,1.05.872.975.975,0,0,0-1.05-.872" transform="translate(-1044.048 11587.704)" fill="#3a3d3f"/><path d="M817.414,442.283c.406.022.782-.055.82-.534.036-.463-.31-.649-.711-.693a3.932,3.932,0,0,0-2.02.293.589.589,0,0,0,.343,1.128c.39-.069.777-.151,1.06-.207.244.006.376.006.508.013" transform="translate(-722.101 11675.759)" fill="#3a3d3f"/><path d="M1153.081,441.437a4.117,4.117,0,0,0-1.436-.327,5.378,5.378,0,0,0-.734.048.6.6,0,0,0-.569.647.566.566,0,0,0,.657.541,6.607,6.607,0,0,1,1.724.21.559.559,0,0,0,.737-.42.577.577,0,0,0-.381-.7" transform="translate(-1044.609 11675.682)" fill="#3a3d3f"/><path d="M1360.732,2139.345a4.372,4.372,0,0,0-1.873-2.831c-.951-.651-4.487-2.453-4.487-2.453s-3.677,2.438-6.626,2.3-6.265-.174-7.692-1.741c0,0-1.548.472-3.249,1.142s-2.5,1.2-2.938,2.321a30.087,30.087,0,0,0-.619,5.311l.02.691.775.012a8.862,8.862,0,0,1,.432-1.552,6.327,6.327,0,0,1,.813-1.79,5.55,5.55,0,0,1,1.263-1.253,1.441,1.441,0,0,1,1.532-.177,1.345,1.345,0,0,1,.534.573,2.71,2.71,0,0,1,.157.405l0,0,.067.037c.051.027.1.054.158.077,0,0,.1.035.115.04.063.022.127.042.191.061.273.084.541.17.807.276.514.206,1.027.369,1.556.53a1.7,1.7,0,0,1,1.315,1.06,3,3,0,0,1,.056.787c0,.249,0,.5-.005.747q0,.088-.008.175h6.38a3.408,3.408,0,0,1,.127-1.465,1.613,1.613,0,0,1,.568-.818,2.182,2.182,0,0,1,.731-.314c.5-.135.985-.3,1.466-.475a7.639,7.639,0,0,0,.724-.3c.107-.051.217-.1.32-.163-.03.014.08-.066.087-.072s.031-.027.038-.032a.392.392,0,0,1,.026-.044,1.307,1.307,0,0,0,.1-.182l.006-.012c0-.009,0-.02,0-.035a1.787,1.787,0,0,1,.078-.317,1.07,1.07,0,0,1,.747-.706,1.525,1.525,0,0,1,.9.153,3.586,3.586,0,0,1,.645.3,3.5,3.5,0,0,1,1.11,1.1,9.573,9.573,0,0,1,.678,1.474,6.228,6.228,0,0,1,.457,1.894h2.705a33.812,33.812,0,0,0-.195-4.741" transform="translate(-1220.561 10047.092)" fill="#f9e9aa"/><path d="M1274.341,2059.145a7.328,7.328,0,0,0,3.265-3.047c.152-.277.253-.654-.131-.88a.576.576,0,0,0-.289-.089c-.194,0-.365.134-.522.409a7.026,7.026,0,0,1-3.746,3.044,26.282,26.282,0,0,0-2.606,1.185,4.871,4.871,0,0,0-2.582,3.273,13.867,13.867,0,0,0-.482,3.174c0,.141,0,.281,0,.424,0,.316-.005.643.006.964.023.64.342.775.606.775h.039a.574.574,0,0,0,.446-.2.774.774,0,0,0,.109-.624,9.435,9.435,0,0,1,0-2.494l.005-.063a6.263,6.263,0,0,1,.868-2.867,4.565,4.565,0,0,1,2.389-1.851,26.864,26.864,0,0,0,2.629-1.134" transform="translate(-1157.066 10123.022)" fill="#3a3d3f"/><path d="M1815.933,2066.575l-.007-.182c-.024-.629-.062-1.266-.114-1.893a8.447,8.447,0,0,0-.43-1.984,6.092,6.092,0,0,0-.5-1.062,5.311,5.311,0,0,0-2.766-2.262c-.324-.126-.649-.271-.963-.411s-.659-.294-1-.423a7.4,7.4,0,0,1-3.4-2.6,2.413,2.413,0,0,1-.17-.291c-.134-.254-.272-.517-.52-.517a.616.616,0,0,0-.319.113c-.508.323-.273.7-.023,1.1.056.089.114.182.158.27a1.432,1.432,0,0,0,.177.249l.036.044a8.776,8.776,0,0,0,3.763,2.7,25.042,25.042,0,0,1,2.543,1.154,3.835,3.835,0,0,1,2.013,2.585,11.444,11.444,0,0,1,.393,3.6c-.008.107-.018.214-.03.318,0,.024-.01.08-.01.08a2.468,2.468,0,0,0-.028.429.572.572,0,0,0,.562.608h.048a.548.548,0,0,0,.428-.181,1.047,1.047,0,0,0,.17-.682c0-.255-.008-.514-.018-.766" transform="translate(-1674.812 10123.196)" fill="#3a3d3f"/><path d="M1512.506,2140.366a.453.453,0,0,0-.429-.294,1.125,1.125,0,0,0-.435.112c-.039.017-.08.037-.115.054l-.084.04a13.072,13.072,0,0,1-5.455,1.2,14.622,14.622,0,0,1-3.118-.348,10.274,10.274,0,0,1-2.643-.908,1.1,1.1,0,0,0-.5-.154.462.462,0,0,0-.432.3c-.165.337-.027.594.447.833a8.317,8.317,0,0,0,1,.451,13.837,13.837,0,0,0,4.569.9c.167,0,.334,0,.5-.013.122,0,.24,0,.358,0h.011c.113,0,.22,0,.328,0,.146,0,.267,0,.38-.01a13.283,13.283,0,0,0,5.225-1.366c.412-.208.542-.476.388-.8" transform="translate(-1380.236 10041.316)" fill="#3a3d3f"/><path d="M1358.617,2254.781a2.1,2.1,0,0,1-.758-.283l-.149-.095a1.9,1.9,0,0,0-1.019-.405c-.368,0-.471-.156-.552-.484a1.276,1.276,0,0,0-1.282-1.072,1.82,1.82,0,0,0-.343.034,2.049,2.049,0,0,0-.524.171,4.754,4.754,0,0,0-2.328,2.28,9.443,9.443,0,0,0-.616,2.175c-.027.139-.055.278-.084.416a.881.881,0,0,0-.01.248.479.479,0,0,0,.385.46.549.549,0,0,0,.126.015.431.431,0,0,0,.4-.293,2.342,2.342,0,0,0,.117-.4c.032-.142.062-.284.093-.426a12.839,12.839,0,0,1,.362-1.421,3.716,3.716,0,0,1,1.746-2.019,1.858,1.858,0,0,1,.432-.188.729.729,0,0,1,.2-.032.309.309,0,0,1,.288.167.365.365,0,0,1-.079.491c-.132.133-.252.281-.368.423-.047.057-.093.114-.14.171l-.062.072a1.547,1.547,0,0,0-.166.213.538.538,0,0,0,.1.744.387.387,0,0,0,.242.09.625.625,0,0,0,.4-.195,3.185,3.185,0,0,0,.317-.345l.087-.1a.7.7,0,0,1,.546-.288.919.919,0,0,1,.259.041.1.1,0,0,1,.061.039.113.113,0,0,1-.018.083c-.046.085-.095.171-.142.254a5.134,5.134,0,0,0-.255.483.65.65,0,0,0-.02.506.459.459,0,0,0,.255.257.483.483,0,0,0,.177.035.617.617,0,0,0,.5-.364c.045-.076.088-.154.13-.23.071-.13.145-.264.229-.387s.155-.185.219-.185.132.049.23.16a.425.425,0,0,1,.1.407c-.024.1-.058.2-.091.3-.017.052-.035.1-.051.156a.546.546,0,0,0,.236.707.477.477,0,0,0,.186.039.569.569,0,0,0,.494-.37,3.485,3.485,0,0,0,.175-.479c.026-.084.053-.17.083-.254.048-.134.084-.162.124-.162a.378.378,0,0,1,.172.076,1.05,1.05,0,0,1,.487.986c0,.108-.019.218-.033.325s-.029.216-.033.326a.529.529,0,0,0,.4.58.493.493,0,0,0,.1.011h0a.516.516,0,0,0,.477-.406,2.349,2.349,0,0,0,.112-.712,2.171,2.171,0,0,0-1.939-2.336" transform="translate(-1237.588 9933.211)" fill="#3a3d3f"/><path d="M1754.641,2257.525a13.763,13.763,0,0,0-.453-1.979,4.718,4.718,0,0,0-2.269-2.716,2.93,2.93,0,0,0-.675-.279,1.683,1.683,0,0,0-.462-.066,1.283,1.283,0,0,0-1.307,1.048c-.018.076-.034.156-.047.236a.265.265,0,0,1-.283.247h-.047a2.442,2.442,0,0,0-1.292.494l-.077.048a1.935,1.935,0,0,1-.7.261,2.157,2.157,0,0,0-1.959,2.375,2.2,2.2,0,0,0,.146.771.465.465,0,0,0,.431.311.55.55,0,0,0,.09-.008.444.444,0,0,0,.4-.445c.006-.11,0-.222,0-.331,0-.049,0-.1,0-.146v-.038h-.036c0-.043,0-.087,0-.13,0-.12,0-.244,0-.365a.991.991,0,0,1,.515-.79.268.268,0,0,1,.134-.051c.035,0,.087.014.124.14.018.061.035.122.052.184.03.11.062.223.1.333a1.106,1.106,0,0,0,.237.43.515.515,0,0,0,.368.176.47.47,0,0,0,.223-.06.448.448,0,0,0,.241-.49,1.407,1.407,0,0,0-.06-.217c-.014-.043-.029-.087-.041-.13s-.017-.062-.026-.094a1.643,1.643,0,0,1-.067-.3.541.541,0,0,1,.316-.466l.031,0c.12,0,.172.1.229.2.014.025.028.052.044.076.058.093.113.191.165.286a4.217,4.217,0,0,0,.23.383.511.511,0,0,0,.415.222.468.468,0,0,0,.221-.055.536.536,0,0,0,.235-.611,2.513,2.513,0,0,0-.191-.407l-.016-.03c-.048-.088-.1-.174-.153-.257-.032-.051-.064-.1-.094-.154a.114.114,0,0,1-.02-.09.083.083,0,0,1,.054-.045.685.685,0,0,1,.249-.046.75.75,0,0,1,.563.267l.034.039c.144.166.293.338.454.493a.447.447,0,0,0,.31.143.408.408,0,0,0,.231-.078.461.461,0,0,0,.208-.562,1.46,1.46,0,0,0-.248-.419c-.161-.2-.334-.4-.5-.59l-.122-.139a.339.339,0,0,1-.036-.4.318.318,0,0,1,.323-.187h.038a1.066,1.066,0,0,1,.44.145,3.694,3.694,0,0,1,1.868,2.06,11.241,11.241,0,0,1,.382,1.495c.01.05.02.1.029.151a4.258,4.258,0,0,0,.13.55.48.48,0,0,0,.458.376.517.517,0,0,0,.079-.006.531.531,0,0,0,.416-.509.82.82,0,0,0-.018-.2c0-.016-.005-.031-.008-.047" transform="translate(-1616.719 9933.168)" fill="#3a3d3f"/><path d="M1602.57,1925.157a.622.622,0,0,0-.611-1.011c-.3-.009-.615-.013-1.02-.013l-.579,0h-.024l-.553,0-.66,0h-.018l-.644,0c-.328,0-.6,0-.855.009-.394.01-.64.107-.751.3s-.075.462.115.822a4.531,4.531,0,0,0,2.253,2.026,1.25,1.25,0,0,0,.52.114,1.212,1.212,0,0,0,.494-.1,4.45,4.45,0,0,0,2.332-2.139m-1.553.462-.006.005-.082.074a1.42,1.42,0,0,1-2.363.008,2.527,2.527,0,0,1-.509-.588l.291,0c.54.008,1.05.015,1.564.015.566,0,1.047-.009,1.506-.028a1.266,1.266,0,0,1-.4.509" transform="translate(-1474.087 10249.039)" fill="#3a3d3f"/><path d="M1658.9,2025.206c-.376,0-.6.2-.6.521s.209.5.594.528h.011c.387-.014.608-.191.623-.5a.5.5,0,0,0-.126-.383.663.663,0,0,0-.5-.169" transform="translate(-1533.255 10151.808)" fill="#3a3d3f"/><path d="M1639.8,1821.279a.49.49,0,0,0-.077-.375.525.525,0,0,0-.364-.207l-.048,0a.435.435,0,0,0-.266.089l-.013.01c-.305.232-.724.55-.666,1.039.046.392.372.684.942.845a.365.365,0,0,0,.063.012l.041,0h0a.515.515,0,0,0,.277-.084.486.486,0,0,0-.163-.876l-.021-.007-.054-.022c.056-.047.106-.087.153-.123a.5.5,0,0,0,.2-.3" transform="translate(-1514.071 10348.545)" fill="#3a3d3f"/><path d="M1767.987,1772a.489.489,0,0,0,.427.256.535.535,0,0,0,.24-.059.865.865,0,0,1,.388-.1.916.916,0,0,1,.555.219.582.582,0,0,0,.351.127.513.513,0,0,0,.281-.933,1.781,1.781,0,0,0-1.166-.463,1.589,1.589,0,0,0-.884.266.491.491,0,0,0-.193.689" transform="translate(-1638.703 10396.305)" fill="#3a3d3f"/><path d="M1515.481,1771.047a1.781,1.781,0,0,0-1.166.463.513.513,0,0,0,.281.933.582.582,0,0,0,.351-.127.916.916,0,0,1,.555-.219.865.865,0,0,1,.388.1.535.535,0,0,0,.24.059.5.5,0,0,0,.235-.945,1.589,1.589,0,0,0-.884-.266" transform="translate(-1394.523 10396.305)" fill="#3a3d3f"/><path d="M1502.717,1698.932a.468.468,0,0,0,.439.284.725.725,0,0,0,.263-.053,2.45,2.45,0,0,1,.833-.176.846.846,0,0,0,.62-.189.464.464,0,0,0,.108-.359c-.034-.475-.505-.481-.788-.485a2.435,2.435,0,0,0-1.231.3.5.5,0,0,0-.243.676" transform="translate(-1383.535 10466.619)" fill="#3a3d3f"/><path d="M1786.235,1698.961a2.577,2.577,0,0,1,.778.183.7.7,0,0,0,.236.044.466.466,0,0,0,.426-.251.492.492,0,0,0-.2-.688,2.314,2.314,0,0,0-1.2-.325h-.01l-.109,0c-.283.006-.709.015-.723.509s.451.514.759.523Z" transform="translate(-1655.554 10466.648)" fill="#3a3d3f"/><path d="M1333.4,1355.923a3.807,3.807,0,0,0,.847-2.721,19.17,19.17,0,0,0-1.457-6.062,12.356,12.356,0,0,0-3.4-5.028,13.96,13.96,0,0,0-4.085-2.318,13.388,13.388,0,0,0-4.49-.755,16.269,16.269,0,0,0-2.523.2,4.59,4.59,0,0,0-2,.779c-.3.214-.574.455-.353.837a.521.521,0,0,0,.458.3.907.907,0,0,0,.542-.23,3.2,3.2,0,0,1,.572-.3,4.993,4.993,0,0,1,1.238-.3,20.267,20.267,0,0,1,2.831-.161,8.011,8.011,0,0,1,2.708.453c2.253.847,4.548,1.953,6.071,4.29a20.828,20.828,0,0,1,2.757,7.7,3.146,3.146,0,0,1-.664,2.687,1.308,1.308,0,0,0-.086.117,1.813,1.813,0,0,0-.243-.094c-.055-.017-.11-.032-.163-.046a1.047,1.047,0,0,1-.742-.468.367.367,0,0,0-.319-.2,1.906,1.906,0,0,0-.865-.97c-1-.561-1.966-1.192-2.98-1.732a12.637,12.637,0,0,1-5.783-7.081c-.146-.379-.3-.739-.782-.591s-.444.544-.349.932a2.311,2.311,0,0,0,.125.352c1.308,3.076,3.1,5.744,6.164,7.364.86.455,1.675,1,2.527,1.466a1.608,1.608,0,0,1,1.015,1.192.547.547,0,0,0,.261.413c-.094.7-.168,1.412-.24,2.1-.1,1-.211,2.039-.383,3.052a5.592,5.592,0,0,1-2.032,3.453,17.373,17.373,0,0,1-6.4,3.071l-.166.051a2.473,2.473,0,0,1-.738.151,1.23,1.23,0,0,1-.336-.046,23.89,23.89,0,0,1-4.973-1.889c-2.675-1.453-3.987-3.228-4.128-5.588-.023-.391-.075-.786-.125-1.168-.022-.17-.045-.345-.065-.518q-.2-1.684-.392-3.368a.6.6,0,0,0-.427-.6l-.011,0A4.426,4.426,0,0,0,1311,1354c2.669-2.031,3.729-4.9,4.187-8.13a.531.531,0,0,0-.453-.608.56.56,0,0,0-.658.473c-.075.263-.127.533-.18.8-.611,3.093-1.73,5.839-4.9,7.207a.518.518,0,0,0-.328.672.537.537,0,0,0,.656.376.748.748,0,0,0-.132.228c-.063.164-.2.183-.363.208l-.016,0a2.27,2.27,0,0,0-.427.106.417.417,0,0,0,.066-.159.818.818,0,0,0-.218-.608,4.427,4.427,0,0,1-.646-3.858,21.841,21.841,0,0,1,2.487-5.91,7.522,7.522,0,0,1,1.756-2.185,4.486,4.486,0,0,1,2.667-1.01.654.654,0,0,0,.469-.2.521.521,0,0,0,.115-.4.547.547,0,0,0-.618-.5l-.065,0a5.48,5.48,0,0,0-3.557,1.517,15.145,15.145,0,0,0-3.318,5.449q-.116.271-.233.542a10.545,10.545,0,0,0-1,3.954,5.3,5.3,0,0,0,.984,3.223.832.832,0,0,0,.585.422,2.528,2.528,0,0,0-.695.823,3.039,3.039,0,0,0-.159,2.682,3.4,3.4,0,0,0,2.309,1.916c.46.121.628.283.695.665a6.008,6.008,0,0,0,2.167,3.522,18.105,18.105,0,0,0,6.914,3.382,4.4,4.4,0,0,0,1.243.241h0a2.067,2.067,0,0,0,.557-.074,23.1,23.1,0,0,0,5.287-2.013c1.951-1.108,4-2.6,4.442-5.26.05-.3.245-.351.515-.42l.033-.008a3.278,3.278,0,0,0,2.64-3.064,3.186,3.186,0,0,0-.579-1.862,1.485,1.485,0,0,0,.174-.221m-25.439,2.67a2.011,2.011,0,0,1,.448-2.06.709.709,0,0,1,.522-.279.591.591,0,0,1,.179.029c.213.068.22.236.229.415,0,.041,0,.083.008.122.094.792.177,1.582.265,2.417q.044.414.089.843a2.312,2.312,0,0,1-1.741-1.487m24.053.9a1.891,1.891,0,0,1-1.146.535c.037-.326.072-.654.106-.971.094-.875.183-1.7.3-2.543a.288.288,0,0,1,.311-.262.868.868,0,0,1,.541.242,1.878,1.878,0,0,1,.582,1.465,2.03,2.03,0,0,1-.7,1.534" transform="translate(-1194.63 10811.89)" fill="#3a3d3f"/><path d="M1551.43,1487.97a17.3,17.3,0,0,0,1.91.735c.434.034.687-.057.787-.364a.528.528,0,0,0-.321-.676,5.655,5.655,0,0,0-.836-.332,6.628,6.628,0,0,1-4.183-3.907c-.176-.385-.355-.791-.866-.563s-.358.662-.194,1.036a8.008,8.008,0,0,0,3.7,4.071" transform="translate(-1426.74 10673.596)" fill="#3a3d3f"/><path d="M0,0H79.139V91.431H0Z" transform="translate(62.001 12100.022)" fill="none"/></g></svg>