<svg xmlns="http://www.w3.org/2000/svg" width="45" height="48.66" viewBox="0 0 45 48.66">
  <g id="グループ_408705" data-name="グループ 408705" transform="translate(-360 -4868.339)">
    <g id="グループ_408704" data-name="グループ 408704">
      <path id="パス_40679" data-name="パス 40679" d="M14.122.46A10.825,10.825,0,0,1,7.475-1.61,12.619,12.619,0,0,1,3.266-7.429,24.3,24.3,0,0,1,1.84-16.1a24.3,24.3,0,0,1,1.426-8.671A12.619,12.619,0,0,1,7.475-30.59a10.825,10.825,0,0,1,6.647-2.07,10.825,10.825,0,0,1,6.647,2.07,12.619,12.619,0,0,1,4.209,5.819A24.3,24.3,0,0,1,26.4-16.1a24.3,24.3,0,0,1-1.426,8.671A12.619,12.619,0,0,1,20.769-1.61,10.825,10.825,0,0,1,14.122.46Zm0-5.52a5.163,5.163,0,0,0,4.623-2.806q1.679-2.806,1.679-8.234t-1.679-8.234a5.163,5.163,0,0,0-4.623-2.806A5.163,5.163,0,0,0,9.5-24.334Q7.82-21.528,7.82-16.1T9.5-7.866A5.163,5.163,0,0,0,14.122-5.06Zm24.7-27.14a2.586,2.586,0,0,1,1.932.805,2.759,2.759,0,0,1,.782,2V-2.806a2.61,2.61,0,0,1-.874,2A3.071,3.071,0,0,1,38.5,0a2.91,2.91,0,0,1-2.116-.805,2.678,2.678,0,0,1-.828-2v-21.8l-2.852,1.748a2.814,2.814,0,0,1-1.472.414,2.56,2.56,0,0,1-1.955-.874,2.79,2.79,0,0,1-.805-1.932,2.613,2.613,0,0,1,.391-1.38A2.846,2.846,0,0,1,29.9-27.646l6.946-4.14A4.2,4.2,0,0,1,38.824-32.2Z" transform="translate(360 4901)" fill="#60432e"/>
    </g>
    <g id="グループ_408711" data-name="グループ 408711">
      <rect id="長方形_49062" data-name="長方形 49062" width="45" height="4" rx="2" transform="translate(360 4913)" fill="#60432e"/>
    </g>
  </g>
</svg>
