<svg xmlns="http://www.w3.org/2000/svg" width="435" height="251" viewBox="0 0 435 251"><defs><style>.a{fill:#60432e;}.b{fill:#ed8934;}.c{fill:#fff;opacity:0.999;}</style></defs><g transform="translate(0 -0.454)"><rect class="a" width="435" height="48" rx="10" transform="translate(0 203.454)"/><rect class="b" width="319" height="85" rx="10" transform="translate(0 0.454)"/><rect class="b" width="410" height="85" rx="10" transform="translate(0 94.454)"/><path class="c" d="M11.609,1.1A11.082,11.082,0,0,1,7.533.522,4.8,4.8,0,0,1,5.149-1.235a4.226,4.226,0,0,1-.665-2.679,3.361,3.361,0,0,1,.959-2.271A4.46,4.46,0,0,1,7.7-7.325a8.624,8.624,0,0,1,3.059-.048A12.991,12.991,0,0,1,9.661-8.683,17.3,17.3,0,0,1,8.607-10.3q-1.121.171-2.252.295t-2.214.181a1.137,1.137,0,0,1-.817-.275,1.025,1.025,0,0,1-.361-.77,1.052,1.052,0,0,1,.3-.807,1.135,1.135,0,0,1,.8-.352q.836-.038,1.739-.114t1.814-.19a9.108,9.108,0,0,1-.323-.9q-.133-.446-.228-.864a1.2,1.2,0,0,1,.171-.855,1.047,1.047,0,0,1,.7-.494,1.094,1.094,0,0,1,.864.171,1.123,1.123,0,0,1,.484.722,13.061,13.061,0,0,0,.57,1.862q.931-.19,1.8-.4t1.606-.456a1.085,1.085,0,0,1,.865.057,1.03,1.03,0,0,1,.561.646,1.03,1.03,0,0,1-.066.855,1.153,1.153,0,0,1-.675.551q-.7.19-1.473.38t-1.605.361a14.554,14.554,0,0,0,1.615,2.175A10.532,10.532,0,0,0,14.44-6.8a1.1,1.1,0,0,1,.466.646,1.078,1.078,0,0,1-.086.779,1.194,1.194,0,0,1-.57.56,1.009,1.009,0,0,1-.779.048,10.363,10.363,0,0,0-4.911-.7Q6.8-5.13,6.707-3.7q-.171,2.6,4.864,2.527a1.037,1.037,0,0,1,.807.313,1.169,1.169,0,0,1,.352.807,1.116,1.116,0,0,1-.323.808A1.135,1.135,0,0,1,11.609,1.1ZM26.942.684a1.116,1.116,0,0,1-.808-.323,1.135,1.135,0,0,1-.351-.8,1.116,1.116,0,0,1,.323-.807,1.135,1.135,0,0,1,.8-.352q5.32-.1,5.32-3.04a1.867,1.867,0,0,0-.665-1.52,2.681,2.681,0,0,0-1.767-.551,6.012,6.012,0,0,0-2.517.6,7.18,7.18,0,0,0-2.365,1.8,1.048,1.048,0,0,1-.637.351,1.09,1.09,0,0,1-.712-.1.957.957,0,0,1-.475-.484,1.188,1.188,0,0,1-.095-.694q.133-.8.295-1.729t.351-1.891q.19-.959.38-1.776a1.017,1.017,0,0,1,.5-.713,1.119,1.119,0,0,1,.864-.123,1.108,1.108,0,0,1,.7.523,1.1,1.1,0,0,1,.133.864q-.133.532-.313,1.226t-.371,1.473a7.667,7.667,0,0,1,4.313-1.482,5.336,5.336,0,0,1,2.451.532,3.961,3.961,0,0,1,1.625,1.482A4.184,4.184,0,0,1,34.5-4.636,4.6,4.6,0,0,1,32.642-.817Q30.78.627,26.942.684Zm3.04-11.894q-.608-.3-1.378-.656t-1.539-.684q-.77-.333-1.358-.561a.972.972,0,0,1-.57-.627,1.157,1.157,0,0,1,.038-.874,1.06,1.06,0,0,1,.646-.58,1.259,1.259,0,0,1,.874.029q.627.247,1.359.561t1.472.646q.741.332,1.349.637a1.223,1.223,0,0,1,.6.636,1.107,1.107,0,0,1,.01.865,1.178,1.178,0,0,1-.627.608A1.053,1.053,0,0,1,29.982-11.21ZM42.2.3a1.126,1.126,0,0,1-.855-.19,1.133,1.133,0,0,1-.475-.722Q40.7-1.577,40.6-2.859t-.1-2.708q0-1.425.076-2.869t.237-2.765q.162-1.32.389-2.365a1.079,1.079,0,0,1,.494-.713,1.108,1.108,0,0,1,.855-.161,1.161,1.161,0,0,1,.712.5,1.116,1.116,0,0,1,.161.865,26.172,26.172,0,0,0-.475,2.926q-.171,1.577-.218,3.2t.048,3.154a23.928,23.928,0,0,0,.323,2.783,1.014,1.014,0,0,1-.181.836A1.17,1.17,0,0,1,42.2.3Zm7.79-1.026a6.178,6.178,0,0,1-3.676-.893,3.76,3.76,0,0,1-1.453-2.622,1.072,1.072,0,0,1,.2-.836,1.106,1.106,0,0,1,.75-.456,1.138,1.138,0,0,1,.836.219,1.106,1.106,0,0,1,.456.751,1.6,1.6,0,0,0,.779,1.216,4.4,4.4,0,0,0,2.166.4,16.629,16.629,0,0,0,3.439-.437,1.03,1.03,0,0,1,.855.152,1.113,1.113,0,0,1,.494.722,1.06,1.06,0,0,1-.171.845,1.2,1.2,0,0,1-.722.5A14.473,14.473,0,0,1,51.9-.817Q50.882-.722,49.989-.722Zm-3.477-9.4a1.08,1.08,0,0,1-.846-.161,1.1,1.1,0,0,1-.485-.731,1.108,1.108,0,0,1,.161-.855,1.024,1.024,0,0,1,.732-.475,16.8,16.8,0,0,1,2.375-.276q1.311-.067,2.6-.019a17.214,17.214,0,0,1,2.28.219,1.064,1.064,0,0,1,.741.465,1.094,1.094,0,0,1,.171.865,1.032,1.032,0,0,1-.466.731,1.145,1.145,0,0,1-.846.181,18.1,18.1,0,0,0-3.192-.257A17.561,17.561,0,0,0,46.512-10.127ZM73.226-.209a32.356,32.356,0,0,1-3.8.2,10.138,10.138,0,0,1-2.641-.342,4.5,4.5,0,0,1-1.748-.921A3.592,3.592,0,0,1,63.925-3.1a9.907,9.907,0,0,1-.257-2.356V-7.885q-1.311.19-2.536.361t-2.08.3a1.157,1.157,0,0,1-.865-.238,1.094,1.094,0,0,1-.446-.769,1.1,1.1,0,0,1,.218-.874,1.176,1.176,0,0,1,.77-.456q.836-.1,2.175-.266t2.764-.361v-3.154a1.091,1.091,0,0,1,.352-.826,1.163,1.163,0,0,1,.826-.332,1.106,1.106,0,0,1,.826.342,1.154,1.154,0,0,1,.332.836v2.812q1.121-.152,1.957-.257t1.159-.161a5.2,5.2,0,0,1,3.068.2,2.369,2.369,0,0,1,1.244,1.909,2.916,2.916,0,0,1-.75,2.489,6.8,6.8,0,0,1-3.354,1.691,1.273,1.273,0,0,1-.893-.095,1.1,1.1,0,0,1-.57-.684,1.161,1.161,0,0,1,.086-.884,1.067,1.067,0,0,1,.694-.561,7.664,7.664,0,0,0,1.871-.7.807.807,0,0,0,.465-.741A.435.435,0,0,0,70.7-8.75a2.991,2.991,0,0,0-1.083.029q-.4.057-1.377.19t-2.233.323v2.755A5.917,5.917,0,0,0,66.158-3.9a1.842,1.842,0,0,0,.494.845,3.573,3.573,0,0,0,2.052.665A24.4,24.4,0,0,0,73-2.546a1.172,1.172,0,0,1,.865.266,1.165,1.165,0,0,1,.427.8,1.174,1.174,0,0,1-.266.855A1.086,1.086,0,0,1,73.226-.209ZM86.621.855a1.157,1.157,0,0,1-.865-.238,1.094,1.094,0,0,1-.447-.769q-.057-.513-.228-1.739T84.7-4.636q-1.216.133-2.318.276t-1.91.238q-.808.095-1.169.152a1.108,1.108,0,0,1-.855-.247A1.07,1.07,0,0,1,78.033-5a1.108,1.108,0,0,1,.247-.864,1.15,1.15,0,0,1,.779-.428q.3-.038,1.1-.123t1.9-.219q1.1-.133,2.318-.266l-.3-2.166Q82.821-8.93,81.8-8.8t-1.4.171a1.062,1.062,0,0,1-.845-.257,1.185,1.185,0,0,1-.427-.789,1.143,1.143,0,0,1,.266-.845,1.15,1.15,0,0,1,.779-.427q.3-.038,1.3-.143t2.271-.257q-.228-1.482-.323-2.2a1.078,1.078,0,0,1,.228-.874,1.137,1.137,0,0,1,.779-.437,1.1,1.1,0,0,1,.874.219,1.119,1.119,0,0,1,.437.788q.038.361.123.941t.181,1.32q1.121-.133,2.052-.238l1.425-.161a1.079,1.079,0,0,1,.845.247,1.1,1.1,0,0,1,.409.8,1.164,1.164,0,0,1-.257.845,1.067,1.067,0,0,1-.788.408q-.475.038-1.387.133t-1.995.228l.3,2.147q1.159-.152,2.185-.266t1.767-.209q.741-.095,1.007-.114l.3.124a3.159,3.159,0,0,1,.627.352.781.781,0,0,1,.361.551,1.108,1.108,0,0,1-.247.855,1.07,1.07,0,0,1-.779.418q-.285.019-1.007.1t-1.738.2q-1.016.114-2.157.266.209,1.539.389,2.746t.257,1.681a1.021,1.021,0,0,1-.209.865A1.21,1.21,0,0,1,86.621.855ZM98.857-1.311a.986.986,0,0,1-.722-.3.986.986,0,0,1-.3-.722.977.977,0,0,1,.3-.731,1,1,0,0,1,.722-.294h6.859a9.232,9.232,0,0,0,.541-1.957q.067-.646-.257-.865a1.962,1.962,0,0,0-1.064-.219h-3.876a1.018,1.018,0,0,1-.731-.3.972.972,0,0,1-.313-.722.963.963,0,0,1,.313-.732,1.035,1.035,0,0,1,.731-.294h3.876a5.055,5.055,0,0,1,2.489.494,1.938,1.938,0,0,1,.959,1.605,7.754,7.754,0,0,1-.522,2.993h2.318a1.025,1.025,0,0,1,.741.294.977.977,0,0,1,.3.731.986.986,0,0,1-.3.722,1.008,1.008,0,0,1-.741.3ZM122.17.817a1.07,1.07,0,0,1-.9.095,1.177,1.177,0,0,1-.713-.57,1.194,1.194,0,0,1-.1-.893,1.136,1.136,0,0,1,.541-.7,8.83,8.83,0,0,0,1.976-1.434,6.248,6.248,0,0,0,1.283-1.834,9.179,9.179,0,0,0,.7-2.47,22.506,22.506,0,0,0,.218-3.363q0-.8-.048-1.71a14.457,14.457,0,0,0-.142-1.5,1.119,1.119,0,0,1,.257-.874,1.171,1.171,0,0,1,.788-.437,1.108,1.108,0,0,1,.865.247,1.165,1.165,0,0,1,.427.8,9.291,9.291,0,0,1,.1,1.092q.028.636.038,1.264t.009,1.121a22.667,22.667,0,0,1-.456,4.817A9.369,9.369,0,0,1,125.41-1.91,10.162,10.162,0,0,1,122.17.817Zm-1.9-6.289a1.062,1.062,0,0,1-.77-.4,1.26,1.26,0,0,1-.276-.874q.038-.494.019-1.321t-.057-1.748q-.038-.921-.1-1.767t-.143-1.377a1.109,1.109,0,0,1,.228-.893,1.137,1.137,0,0,1,.779-.437,1.2,1.2,0,0,1,.874.218,1.055,1.055,0,0,1,.437.769q.057.532.123,1.435t.114,1.91q.048,1.007.076,1.928t-.01,1.491a.98.98,0,0,1-.408.8A1.365,1.365,0,0,1,120.27-5.472Zm17.9,5.947a1.216,1.216,0,0,1-.883.086,1.138,1.138,0,0,1-.712-.542,1.084,1.084,0,0,1-.114-.883,1.174,1.174,0,0,1,.551-.712,10.021,10.021,0,0,0,3.182-2.641,7.505,7.505,0,0,0,1.529-3.42H136.23a1.1,1.1,0,0,1-.807-.332,1.1,1.1,0,0,1-.333-.807,1.1,1.1,0,0,1,.333-.807,1.1,1.1,0,0,1,.807-.333h12.578a1.1,1.1,0,0,1,.807.333,1.1,1.1,0,0,1,.333.807,1.1,1.1,0,0,1-.333.807,1.1,1.1,0,0,1-.807.332H144.02a9.951,9.951,0,0,1-.979,3.182,11.178,11.178,0,0,1-2,2.822A10.846,10.846,0,0,1,138.168.475Zm.266-12.2a1.068,1.068,0,0,1-.8-.333,1.116,1.116,0,0,1-.323-.807,1.116,1.116,0,0,1,.323-.807,1.068,1.068,0,0,1,.8-.333h8.341a1.1,1.1,0,0,1,.808.333,1.1,1.1,0,0,1,.333.807,1.1,1.1,0,0,1-.333.807,1.1,1.1,0,0,1-.808.333ZM162.279,1.33a.971.971,0,0,1-.713-.295.971.971,0,0,1-.294-.712V-5.054a29.483,29.483,0,0,1-3.61,2.679,1.01,1.01,0,0,1-.779.1,1.033,1.033,0,0,1-.646-.465,1.01,1.01,0,0,1-.1-.779.964.964,0,0,1,.465-.627,21.1,21.1,0,0,0,2.593-1.786,25.112,25.112,0,0,0,2.375-2.157,16.661,16.661,0,0,0,1.814-2.194.991.991,0,0,1,.656-.437,1,1,0,0,1,.77.171,1,1,0,0,1,.437.665.956.956,0,0,1-.171.76q-.342.494-.789,1.045a14.257,14.257,0,0,1-1,1.1v7.3a.971.971,0,0,1-.294.712A.971.971,0,0,1,162.279,1.33ZM177.08.8a1.108,1.108,0,0,1-.855.247,1.137,1.137,0,0,1-.779-.437,1.122,1.122,0,0,1-.247-.865,1.144,1.144,0,0,1,.437-.788,9.185,9.185,0,0,0,2.147-2.366,8.9,8.9,0,0,0,1.188-2.973A8.849,8.849,0,0,0,179-9.728a1.19,1.19,0,0,1,.19-.883,1.064,1.064,0,0,1,.741-.465,1.128,1.128,0,0,1,.884.171,1.076,1.076,0,0,1,.465.76,1.34,1.34,0,0,1,.048.285q.009.152.028.3a16.392,16.392,0,0,0,2.575-.294,2.875,2.875,0,0,0,1.159-.456.713.713,0,0,0,.294-.522.781.781,0,0,0-.247-.618,1.74,1.74,0,0,0-1.064-.219H174.021a1.147,1.147,0,0,1-.826-.342,1.1,1.1,0,0,1-.352-.817,1.091,1.091,0,0,1,.352-.827,1.163,1.163,0,0,1,.826-.332h10.051q3.762,0,3.762,3.059a2.77,2.77,0,0,1-.656,1.891,4.19,4.19,0,0,1-2.071,1.15,17.943,17.943,0,0,1-3.714.532A11.306,11.306,0,0,1,180.1-2.774,10.94,10.94,0,0,1,177.08.8ZM195.6.323a1.122,1.122,0,0,1-.893.009,1.2,1.2,0,0,1-.665-.618,1.221,1.221,0,0,1-.019-.922,1.093,1.093,0,0,1,.608-.655,18.759,18.759,0,0,0,5.007-3.192A11.719,11.719,0,0,0,202.616-9.1a1.614,1.614,0,0,0,.133-1.434q-.285-.484-1.406-.484h-7.125a1.1,1.1,0,0,1-.817-.352,1.147,1.147,0,0,1-.342-.826,1.137,1.137,0,0,1,.342-.836,1.115,1.115,0,0,1,.817-.342h7.22a4.876,4.876,0,0,1,2.707.636,2.481,2.481,0,0,1,1.131,1.767,5.065,5.065,0,0,1-.456,2.651,14.561,14.561,0,0,1-3.467,4.892A20.2,20.2,0,0,1,195.6.323Zm11.8-11.476a1.85,1.85,0,0,1-1.358-.561,1.85,1.85,0,0,1-.561-1.359,1.85,1.85,0,0,1,.561-1.358,1.85,1.85,0,0,1,1.358-.56,1.828,1.828,0,0,1,1.34.56,1.85,1.85,0,0,1,.561,1.358,1.85,1.85,0,0,1-.561,1.359A1.828,1.828,0,0,1,207.4-11.153Zm0-1.1a.788.788,0,0,0,.58-.238.788.788,0,0,0,.238-.58.788.788,0,0,0-.238-.58.788.788,0,0,0-.58-.237.82.82,0,0,0-.589.237.773.773,0,0,0-.247.58.773.773,0,0,0,.247.58A.82.82,0,0,0,207.4-12.255ZM217.17.817a1.07,1.07,0,0,1-.9.095,1.177,1.177,0,0,1-.713-.57,1.194,1.194,0,0,1-.1-.893,1.136,1.136,0,0,1,.542-.7,8.83,8.83,0,0,0,1.976-1.434,6.248,6.248,0,0,0,1.283-1.834,9.179,9.179,0,0,0,.7-2.47,22.507,22.507,0,0,0,.218-3.363q0-.8-.048-1.71a14.453,14.453,0,0,0-.143-1.5,1.119,1.119,0,0,1,.257-.874,1.171,1.171,0,0,1,.789-.437,1.108,1.108,0,0,1,.864.247,1.165,1.165,0,0,1,.428.8,9.288,9.288,0,0,1,.1,1.092q.028.636.038,1.264t.009,1.121a22.667,22.667,0,0,1-.456,4.817A9.369,9.369,0,0,1,220.41-1.91,10.162,10.162,0,0,1,217.17.817Zm-1.9-6.289a1.062,1.062,0,0,1-.77-.4,1.26,1.26,0,0,1-.275-.874q.038-.494.019-1.321t-.057-1.748q-.038-.921-.1-1.767t-.143-1.377a1.109,1.109,0,0,1,.228-.893,1.137,1.137,0,0,1,.779-.437,1.2,1.2,0,0,1,.874.218,1.055,1.055,0,0,1,.437.769q.057.532.124,1.435t.114,1.91q.047,1.007.076,1.928t-.01,1.491a.98.98,0,0,1-.408.8A1.365,1.365,0,0,1,215.27-5.472Zm25.859.361a1.636,1.636,0,0,1-1.2-.38,1.636,1.636,0,0,1-.38-1.2v-6.118a5.341,5.341,0,0,1,.294-1.995,1.721,1.721,0,0,1,1.045-.979,6.248,6.248,0,0,1,2.081-.276h1.634q1.6,0,1.6,1.52t-1.6,1.52h-1.2a.968.968,0,0,0-.57.1q-.114.1-.114.541v5.681a1.636,1.636,0,0,1-.38,1.2A1.666,1.666,0,0,1,241.129-5.111Zm0-.969a.6.6,0,0,0,.418-.123.661.661,0,0,0,.133-.484v-5.681a3.005,3.005,0,0,1,.133-1.016.8.8,0,0,1,.513-.485A3.428,3.428,0,0,1,243.409-14h1.2q.57,0,.57-.532t-.57-.532h-1.634a5.1,5.1,0,0,0-1.52.171,1.055,1.055,0,0,0-.693.656,4.336,4.336,0,0,0-.18,1.434v6.118a.661.661,0,0,0,.133.484A.6.6,0,0,0,241.129-6.08Zm8.3,6.08a.974.974,0,0,1-1.083-1.121V-12.179A.991.991,0,0,1,249.47-13.3h6.783q1.14,0,1.14,1.026,0,1.007-1.14,1.007h-5.719v3.458h5.149a1.19,1.19,0,0,1,.826.266.972.972,0,0,1,.294.76q0,1.026-1.121,1.026h-5.149v4.636A.983.983,0,0,1,249.432,0Zm10.849,0q-1.064,0-1.064-1.121v-6.9q0-1.121,1.064-1.121t1.064,1.121v6.9Q261.345,0,260.281,0Zm-.019-10.64a1.3,1.3,0,0,1-.95-.4,1.3,1.3,0,0,1-.4-.95,1.3,1.3,0,0,1,.4-.95,1.3,1.3,0,0,1,.95-.4,1.3,1.3,0,0,1,.95.4,1.3,1.3,0,0,1,.4.95,1.3,1.3,0,0,1-.4.95A1.3,1.3,0,0,1,260.262-10.64ZM265.012,0a.974.974,0,0,1-1.083-1.121v-11.3a.974.974,0,0,1,1.083-1.121q1.064,0,1.064,1.121v11.3Q266.076,0,265.012,0Zm4.75,0Q268.7,0,268.7-1.121v-6.9q0-1.121,1.064-1.121t1.064,1.121v6.9Q270.826,0,269.762,0Zm-.019-10.64a1.3,1.3,0,0,1-.95-.4,1.3,1.3,0,0,1-.4-.95,1.3,1.3,0,0,1,.4-.95,1.3,1.3,0,0,1,.95-.4,1.3,1.3,0,0,1,.95.4,1.3,1.3,0,0,1,.4.95,1.3,1.3,0,0,1-.4.95A1.3,1.3,0,0,1,269.743-10.64ZM274.778,0q-1.064,0-1.064-1.121v-6.9q0-1.121,1.064-1.121t1.064,1.121v6.9Q275.842,0,274.778,0Zm-.019-10.64a1.3,1.3,0,0,1-.95-.4,1.3,1.3,0,0,1-.4-.95,1.3,1.3,0,0,1,.4-.95,1.3,1.3,0,0,1,.95-.4,1.3,1.3,0,0,1,.95.4,1.3,1.3,0,0,1,.4.95,1.3,1.3,0,0,1-.4.95A1.3,1.3,0,0,1,274.759-10.64Zm4.9,12.236q-1.6,0-1.6-1.5,0-1.52,1.6-1.52h1.2a.9.9,0,0,0,.57-.114.816.816,0,0,0,.114-.532V-7.752a1.605,1.605,0,0,1,.389-1.207,1.7,1.7,0,0,1,1.207-.37,1.662,1.662,0,0,1,1.2.37,1.631,1.631,0,0,1,.38,1.207v6.118a5.341,5.341,0,0,1-.294,2,1.689,1.689,0,0,1-1.035.969,6.441,6.441,0,0,1-2.09.266Zm0-.969h1.634a5.1,5.1,0,0,0,1.52-.171,1.055,1.055,0,0,0,.693-.655,4.336,4.336,0,0,0,.181-1.435V-7.752a.662.662,0,0,0-.133-.484.6.6,0,0,0-.418-.123.6.6,0,0,0-.418.123.662.662,0,0,0-.133.484v5.681a3.02,3.02,0,0,1-.133,1.007.8.8,0,0,1-.5.494,3.414,3.414,0,0,1-1.092.133h-1.2q-.57,0-.57.532T279.661.627Zm30.286.228a23.3,23.3,0,0,1-4.294.276,8.557,8.557,0,0,1-2.8-.523,3.219,3.219,0,0,1-1.53-1.169,2.985,2.985,0,0,1-.475-1.663A3.847,3.847,0,0,1,302-4.883a9.681,9.681,0,0,1,3.335-2.166,1.491,1.491,0,0,0-.741-.513,2.378,2.378,0,0,0-1.871.209,6.921,6.921,0,0,0-1.8,1.444,1.205,1.205,0,0,1-.845.371,1.027,1.027,0,0,1-.846-.313,1.146,1.146,0,0,1-.275-.836,1.061,1.061,0,0,1,.389-.779A11.411,11.411,0,0,0,300.988-9.2a11.956,11.956,0,0,0,1.207-1.919q-.817.019-1.53.028T299.44-11.1a1.068,1.068,0,0,1-.8-.332,1.116,1.116,0,0,1-.323-.808,1.055,1.055,0,0,1,.361-.779,1.117,1.117,0,0,1,.817-.285q.665.019,1.605.009t1.966-.028q.095-.361.171-.7t.133-.684a1.238,1.238,0,0,1,.418-.769,1.013,1.013,0,0,1,.817-.238,1.1,1.1,0,0,1,.76.418,1.088,1.088,0,0,1,.228.836,3.867,3.867,0,0,1-.076.513q-.057.266-.133.532.722-.038,1.349-.086t1.121-.123a1.139,1.139,0,0,1,.845.219,1.051,1.051,0,0,1,.428.75,1.069,1.069,0,0,1-.238.836,1.046,1.046,0,0,1-.75.4q-.7.076-1.615.133t-1.9.095a16.193,16.193,0,0,1-.912,1.748,3.207,3.207,0,0,1,.874-.067,3.627,3.627,0,0,1,.8.143,3.617,3.617,0,0,1,1.112.523,3.456,3.456,0,0,1,.96,1.035q.931-.266,1.986-.494t2.232-.4a1.072,1.072,0,0,1,.836.2,1.041,1.041,0,0,1,.437.75,1.03,1.03,0,0,1-.209.836,1.167,1.167,0,0,1-.76.437q-1.1.133-2.033.313t-1.729.389q.095.513.152,1.121t.057,1.311a1.1,1.1,0,0,1-.332.807,1.1,1.1,0,0,1-.808.332,1.068,1.068,0,0,1-.8-.332,1.116,1.116,0,0,1-.323-.807,11.752,11.752,0,0,0-.114-1.729A6.6,6.6,0,0,0,303.8-3.7a2.116,2.116,0,0,0-.694,1.415.954.954,0,0,0,.608.836,4.923,4.923,0,0,0,2.033.361,26.408,26.408,0,0,0,3.9-.285,1.138,1.138,0,0,1,.836.218,1.041,1.041,0,0,1,.437.751,1.058,1.058,0,0,1-.228.817A1.155,1.155,0,0,1,309.947.855ZM322.924.8a1.178,1.178,0,0,1-.893.029,1.128,1.128,0,0,1-.665-.6,1.2,1.2,0,0,1-.029-.9,1.061,1.061,0,0,1,.6-.655,7.051,7.051,0,0,0,3.173-2.717,8.847,8.847,0,0,0,1.083-4.408H323.3q.019.76.019,1.444t-.038,1.235a1.079,1.079,0,0,1-.38.807,1.188,1.188,0,0,1-.855.294,1.081,1.081,0,0,1-.779-.409,1.215,1.215,0,0,1-.285-.845q.038-.513.038-1.168t-.019-1.359h-3.9a1.116,1.116,0,0,1-.807-.323,1.068,1.068,0,0,1-.332-.8,1.1,1.1,0,0,1,.332-.807,1.1,1.1,0,0,1,.807-.333h3.819q-.038-.665-.085-1.264t-.124-1.054a1.133,1.133,0,0,1,.2-.865,1.1,1.1,0,0,1,.751-.465,1.087,1.087,0,0,1,.883.19,1.062,1.062,0,0,1,.447.76q.076.532.133,1.226t.1,1.472h2.945q-.019-.817-.048-1.586t-.085-1.34a1.152,1.152,0,0,1,.275-.864,1.113,1.113,0,0,1,.789-.409,1.152,1.152,0,0,1,.865.276,1.067,1.067,0,0,1,.389.807q.057.589.086,1.415t.047,1.7h3.61a1.1,1.1,0,0,1,.807.333,1.1,1.1,0,0,1,.332.807,1.068,1.068,0,0,1-.332.8,1.116,1.116,0,0,1-.807.323h-3.61a11.233,11.233,0,0,1-1.463,5.709A8.926,8.926,0,0,1,322.924.8Zm14.934-6.764a1.131,1.131,0,0,1-.827-.352,1.131,1.131,0,0,1-.352-.826,1.122,1.122,0,0,1,.352-.836,1.147,1.147,0,0,1,.827-.342H349.7a1.137,1.137,0,0,1,.836.342,1.137,1.137,0,0,1,.342.836,1.147,1.147,0,0,1-.342.826,1.122,1.122,0,0,1-.836.352ZM367.935-.589a28.238,28.238,0,0,1-5.728.484,5.415,5.415,0,0,1-3.278-1.017,3.3,3.3,0,0,1-1.111-1.691,9.288,9.288,0,0,1-.294-2.527v-7.714a1.137,1.137,0,0,1,.342-.836,1.115,1.115,0,0,1,.817-.342,1.137,1.137,0,0,1,.836.342,1.137,1.137,0,0,1,.342.836v4.2q1.558-.38,3.221-.884t2.992-1.016a1.115,1.115,0,0,1,.912.009,1.127,1.127,0,0,1,.608.675,1.173,1.173,0,0,1-.019.9,1.027,1.027,0,0,1-.646.6q-1.615.589-3.5,1.1t-3.572.893v1.235a5.322,5.322,0,0,0,.171,1.605,1.654,1.654,0,0,0,.532.77,2.958,2.958,0,0,0,1.245.465,9.577,9.577,0,0,0,2.2.048q1.4-.095,3.563-.456a1.042,1.042,0,0,1,.874.2,1.188,1.188,0,0,1,.456.788,1.012,1.012,0,0,1-.2.855A1.254,1.254,0,0,1,367.935-.589Zm2.09-9.462a.726.726,0,0,1-.579.238.85.85,0,0,1-.6-.257q-.228-.266-.589-.646t-.646-.665a.666.666,0,0,1-.209-.475.722.722,0,0,1,.209-.551.769.769,0,0,1,.513-.228.8.8,0,0,1,.551.171,5.267,5.267,0,0,1,.712.561,8.422,8.422,0,0,1,.674.675.8.8,0,0,1,.219.589A.839.839,0,0,1,370.025-10.051Zm.494-1.729q-.247-.266-.636-.608T369.17-13a.736.736,0,0,1-.228-.475.69.69,0,0,1,.171-.551.732.732,0,0,1,.484-.266.876.876,0,0,1,.56.114,6.606,6.606,0,0,1,.751.532q.428.342.732.627a.829.829,0,0,1,.256.58.856.856,0,0,1-.218.6.785.785,0,0,1-.561.276A.726.726,0,0,1,370.519-11.78Zm5.263,11.4a1.1,1.1,0,0,1-.884.047,1.127,1.127,0,0,1-.674-.6,1.124,1.124,0,0,1-.048-.893,1.138,1.138,0,0,1,.58-.665,21.473,21.473,0,0,0,4.835-3.164,17.559,17.559,0,0,0,3.449-4.019q.836-1.368-.912-1.368h-5.187a1.1,1.1,0,0,1-.817-.352,1.147,1.147,0,0,1-.342-.826,1.137,1.137,0,0,1,.342-.836,1.115,1.115,0,0,1,.817-.342H382.2a4.664,4.664,0,0,1,2.622.617,2.153,2.153,0,0,1,1,1.682,4.342,4.342,0,0,1-.712,2.451,11.669,11.669,0,0,1-1.007,1.52q.874.722,1.8,1.587t1.729,1.672q.807.808,1.358,1.378a1.172,1.172,0,0,1,.323.836,1.108,1.108,0,0,1-.361.836,1.105,1.105,0,0,1-.836.333,1.171,1.171,0,0,1-.836-.351l-1.292-1.339q-.779-.808-1.653-1.672t-1.691-1.567a25.869,25.869,0,0,1-3.22,2.821A22.182,22.182,0,0,1,375.782-.38Zm24.985-3.1a.944.944,0,0,1-.665-.266,1.01,1.01,0,0,1-.323-.665q-.057-.722-.1-1.653t-.1-1.91q-.057-.978-.1-1.872t-.057-1.577q-.019-.684-.019-1.007v-1.881a1.25,1.25,0,0,1,.39-.931,1.345,1.345,0,0,1,.978-.38,1.369,1.369,0,0,1,1,.38,1.25,1.25,0,0,1,.389.931v1.881q0,.323-.029,1.007t-.066,1.577q-.038.893-.085,1.872t-.1,1.91q-.057.931-.114,1.653a.937.937,0,0,1-.3.665A.967.967,0,0,1,400.767-3.477Zm0,4.636a1.555,1.555,0,0,1-1.14-.475,1.555,1.555,0,0,1-.475-1.14,1.555,1.555,0,0,1,.475-1.14,1.555,1.555,0,0,1,1.14-.475,1.555,1.555,0,0,1,1.14.475,1.555,1.555,0,0,1,.475,1.14,1.555,1.555,0,0,1-.475,1.14A1.555,1.555,0,0,1,400.767,1.159Z" transform="translate(13 236.454)"/><path class="c" d="M17.36,2.156a1.741,1.741,0,0,1-1.3-.532A2.031,2.031,0,0,1,15.484.308a1.675,1.675,0,0,1,.49-1.3,1.946,1.946,0,0,1,1.274-.574,2.83,2.83,0,0,0,1.526-.35,1.674,1.674,0,0,0,.35-1.274V-7.364H9.716A16.3,16.3,0,0,1,8.246-2.38,12.592,12.592,0,0,1,5.18,1.54a2,2,0,0,1-1.344.518,1.744,1.744,0,0,1-1.344-.574A1.657,1.657,0,0,1,2.03.238a1.666,1.666,0,0,1,.63-1.19A10.626,10.626,0,0,0,4.984-3.724a11.034,11.034,0,0,0,1.2-3.388,23.612,23.612,0,0,0,.364-4.4v-5.964q0-2.884,1.344-4.046t4.48-1.162h4.4q3.136,0,4.48,1.162T22.6-17.472V-2.6a4.743,4.743,0,0,1-1.218,3.64A5.857,5.857,0,0,1,17.36,2.156Zm-7.392-12.6h9.156v-3.024H10v2.478Q10-10.724,9.968-10.444Zm.028-6.1h9.128v-.728a2.372,2.372,0,0,0-.532-1.764,2.985,2.985,0,0,0-2.016-.5H12.544a2.991,2.991,0,0,0-2,.5A2.333,2.333,0,0,0,10-17.276Zm37.24,18.48a1.959,1.959,0,0,1-1.176.35A1.3,1.3,0,0,1,45,1.68,1.412,1.412,0,0,1,44.772.644a1.221,1.221,0,0,1,.56-.9q.616-.42,1.316-.98t1.358-1.12q.658-.56,1.106-1.008a1.552,1.552,0,0,1,.9-.42,3.592,3.592,0,0,1-2.156-.854,3.028,3.028,0,0,1-.812-1.974.081.081,0,0,0-.028.056.215.215,0,0,1-.028.084,1.218,1.218,0,0,1-.77.8,1.75,1.75,0,0,1-1.134-.014,17.476,17.476,0,0,1-2.646-1.2,19.241,19.241,0,0,1-2.366-1.568A22.718,22.718,0,0,1,34.916-5.1a1.532,1.532,0,0,1-1.148.154,1.22,1.22,0,0,1-.812-.686,1.267,1.267,0,0,1-.112-1.036,1.263,1.263,0,0,1,.7-.784,22.236,22.236,0,0,0,2.422-1.344A25,25,0,0,0,38.08-10.3q-.336-.364-.658-.742l-.63-.742-.546.49-.518.462a1.684,1.684,0,0,1-1.064.42,1.2,1.2,0,0,1-1.008-.42,1.451,1.451,0,0,1-.308-.924.936.936,0,0,1,.392-.812,12.707,12.707,0,0,0,1.54-1.442,20.173,20.173,0,0,0,1.456-1.778,16.7,16.7,0,0,0,1.092-1.68,1.26,1.26,0,0,1,.826-.672,1.464,1.464,0,0,1,1.078.14,1.138,1.138,0,0,1,.6.756,1.337,1.337,0,0,1-.126.98l-.07.14a.533.533,0,0,1-.1.14H42a2.474,2.474,0,0,1,1.61.49,1.845,1.845,0,0,1,.7,1.218,2.224,2.224,0,0,1-.406,1.512q-.42.616-.882,1.218t-.966,1.162a17.864,17.864,0,0,0,4.228,2.212.975.975,0,0,1,.434.294,1.848,1.848,0,0,1,.294.462v-7.14a3.554,3.554,0,0,1,.756-2.492A3.748,3.748,0,0,1,50.288-18q.14-.476.336-1.036t.308-.98H46.956a1.208,1.208,0,0,1-.966-.406,1.394,1.394,0,0,1-.35-.938,1.328,1.328,0,0,1,.35-.938,1.251,1.251,0,0,1,.966-.378H58.184a1.251,1.251,0,0,1,.966.378,1.328,1.328,0,0,1,.35.938,1.394,1.394,0,0,1-.35.938,1.208,1.208,0,0,1-.966.406H54.208q-.14.448-.322.966l-.35.994h.2a5.172,5.172,0,0,1,3.262.8,3.327,3.327,0,0,1,.966,2.7V-7.2a3.6,3.6,0,0,1-.714,2.436A3.608,3.608,0,0,1,54.88-3.752a1.648,1.648,0,0,1,.644.336A18.176,18.176,0,0,0,57.26-1.932q1.092.84,2.016,1.484a1.23,1.23,0,0,1,.56.91,1.438,1.438,0,0,1-.224,1.05,1.329,1.329,0,0,1-1.05.616,1.886,1.886,0,0,1-1.19-.364q-.9-.644-2.03-1.554A16.87,16.87,0,0,1,53.4-1.6a1.322,1.322,0,0,1-.336-.966,1.386,1.386,0,0,1,.42-.938l.168-.112a.707.707,0,0,1,.168-.084h-2.6a2.411,2.411,0,0,1-.266-.014,2.411,2.411,0,0,0-.266-.014.86.86,0,0,1,.448.252,1.467,1.467,0,0,1,.462.924,1.163,1.163,0,0,1-.322.98A23.455,23.455,0,0,1,49.336.308,19.512,19.512,0,0,1,47.236,1.932Zm-7.112-.308a7.73,7.73,0,0,1-2.646-.364A2.3,2.3,0,0,1,36.12.014a6.092,6.092,0,0,1-.392-2.422,6.163,6.163,0,0,1,.392-2.464A2.259,2.259,0,0,1,37.478-6.09a8.017,8.017,0,0,1,2.646-.35,8.125,8.125,0,0,1,2.674.35,2.259,2.259,0,0,1,1.358,1.218,6.163,6.163,0,0,1,.392,2.464A6.092,6.092,0,0,1,44.156.014,2.3,2.3,0,0,1,42.8,1.26,7.835,7.835,0,0,1,40.124,1.624ZM35-15.82a1.375,1.375,0,0,1-.924-.336,1.186,1.186,0,0,1-.392-.952v-1.176a2.623,2.623,0,0,1,.7-2,3.2,3.2,0,0,1,2.24-.658h1.764v-1.2a1.43,1.43,0,0,1,.462-1.134,1.619,1.619,0,0,1,1.106-.406,1.619,1.619,0,0,1,1.106.406,1.43,1.43,0,0,1,.462,1.134v1.2h1.708a3.134,3.134,0,0,1,2.24.658,2.688,2.688,0,0,1,.672,2v1.148a1.251,1.251,0,0,1-.378.966,1.328,1.328,0,0,1-.938.35,1.342,1.342,0,0,1-.924-.35,1.229,1.229,0,0,1-.392-.966v-.42q0-.952-1.12-.952H37.436a1.31,1.31,0,0,0-.868.224.93.93,0,0,0-.252.728v.42a1.251,1.251,0,0,1-.378.966A1.328,1.328,0,0,1,35-15.82ZM40.124-.784a2.033,2.033,0,0,0,1.288-.294,1.824,1.824,0,0,0,.336-1.33,1.824,1.824,0,0,0-.336-1.33,2.033,2.033,0,0,0-1.288-.294,2.039,2.039,0,0,0-1.274.294,1.773,1.773,0,0,0-.35,1.33,1.773,1.773,0,0,0,.35,1.33A2.039,2.039,0,0,0,40.124-.784Zm11.7-5.46h1.316a2.55,2.55,0,0,0,1.414-.266q.35-.266.35-1.218v-.2H50.064v.2q0,.952.35,1.218A2.55,2.55,0,0,0,51.828-6.244Zm-1.764-3.948h4.844V-11.7H50.064Zm0-3.78h4.844v-.056q0-.952-.35-1.218a2.55,2.55,0,0,0-1.414-.266H51.828a2.55,2.55,0,0,0-1.414.266q-.35.266-.35,1.218ZM39.984-12.1a5.31,5.31,0,0,0,.392-.434,4.927,4.927,0,0,1,.364-.406q.308-.392.168-.616t-.616-.224H38.528l-.028.028a10.48,10.48,0,0,0,.714.854Q39.592-12.488,39.984-12.1ZM76.44,2.6a1.594,1.594,0,0,1-1.134-.434,1.518,1.518,0,0,1-.462-1.162V-.784q-1.092.224-2.534.49t-2.842.5q-1.4.238-2.408.406A1.326,1.326,0,0,1,65.968.378a1.5,1.5,0,0,1-.56-.938,1.129,1.129,0,0,1,.252-.994,1.491,1.491,0,0,1,.98-.518l1.456-.2V-11.2h-1.68a1.2,1.2,0,0,1-.9-.378,1.265,1.265,0,0,1-.364-.91,1.28,1.28,0,0,1,.364-.9,1.175,1.175,0,0,1,.9-.392h23.94a1.145,1.145,0,0,1,.868.392,1.28,1.28,0,0,1,.364.9,1.265,1.265,0,0,1-.364.91,1.164,1.164,0,0,1-.868.378H78.036V1.008a1.518,1.518,0,0,1-.462,1.162A1.594,1.594,0,0,1,76.44,2.6Zm-1.4-17.276a10.857,10.857,0,0,1-3.332-.392,2.539,2.539,0,0,1-1.582-1.33,6.379,6.379,0,0,1-.434-2.618,6.379,6.379,0,0,1,.434-2.618,2.493,2.493,0,0,1,1.582-1.316,11.236,11.236,0,0,1,3.332-.378h6.748a11.385,11.385,0,0,1,3.346.378,2.5,2.5,0,0,1,1.6,1.316,6.379,6.379,0,0,1,.434,2.618,6.379,6.379,0,0,1-.434,2.618,2.542,2.542,0,0,1-1.6,1.33,11,11,0,0,1-3.346.392ZM80.78,1.54a2.283,2.283,0,0,1-1.344.294,1.375,1.375,0,0,1-1.064-.714A1.535,1.535,0,0,1,78.2-.028a1.334,1.334,0,0,1,.756-.924,18.391,18.391,0,0,0,3.416-2.1A14.226,14.226,0,0,1,80-7.588H79.52a1.175,1.175,0,0,1-.9-.392A1.313,1.313,0,0,1,78.26-8.9a1.28,1.28,0,0,1,.364-.9,1.175,1.175,0,0,1,.9-.392h6.048a4.3,4.3,0,0,1,2.576.644,2.177,2.177,0,0,1,.924,1.708A4.247,4.247,0,0,1,88.4-5.516,14.766,14.766,0,0,1,86.576-3a16.052,16.052,0,0,0,1.6.966,16.419,16.419,0,0,0,1.9.854,1.424,1.424,0,0,1,.84.882A1.482,1.482,0,0,1,90.8.9a1.353,1.353,0,0,1-.98.756,2.135,2.135,0,0,1-1.316-.14A14.635,14.635,0,0,1,86.352.406a22.206,22.206,0,0,1-1.9-1.33A26.223,26.223,0,0,1,80.78,1.54ZM75.04-16.884h6.748a4.457,4.457,0,0,0,1.6-.2,1.092,1.092,0,0,0,.56-.924H72.912a1.028,1.028,0,0,0,.546.924A4.471,4.471,0,0,0,75.04-16.884ZM72.912-20.02H83.944a1.053,1.053,0,0,0-.56-.91,4.776,4.776,0,0,0-1.6-.182H75.04a4.657,4.657,0,0,0-1.568.182A1.053,1.053,0,0,0,72.912-20.02Zm-1.6,17.276q.98-.14,1.89-.28l1.638-.252V-4.424H71.316Zm0-3.78h3.528V-7.812H71.316Zm0-3.388h3.528V-11.2H71.316Zm13.1,4.956a8.842,8.842,0,0,0,1.008-1.372q.392-.644.238-.952t-.994-.308H82.88A9.667,9.667,0,0,0,84.42-4.956Zm36.092,6.832a23.8,23.8,0,0,1-4.088-2.632,20.9,20.9,0,0,1-3.444-3.472,17.336,17.336,0,0,1-2.408-4.116,18.074,18.074,0,0,1-3.836,5.81,21.232,21.232,0,0,1-6.1,4.382,2.449,2.449,0,0,1-1.484.252,1.57,1.57,0,0,1-1.176-.9,1.613,1.613,0,0,1-.1-1.442,1.923,1.923,0,0,1,1.078-1.05,16.951,16.951,0,0,0,4.662-2.9,16.259,16.259,0,0,0,3.374-4.074,13.213,13.213,0,0,0,1.68-4.732H99.512a1.564,1.564,0,0,1-1.148-.476,1.565,1.565,0,0,1-.476-1.148,1.565,1.565,0,0,1,.476-1.148,1.564,1.564,0,0,1,1.148-.476h9.3v-5.516a1.642,1.642,0,0,1,.532-1.288,1.792,1.792,0,0,1,1.232-.476,1.777,1.777,0,0,1,1.246.476,1.663,1.663,0,0,1,.518,1.288v5.516h9.352a1.564,1.564,0,0,1,1.148.476,1.565,1.565,0,0,1,.476,1.148,1.565,1.565,0,0,1-.476,1.148,1.564,1.564,0,0,1-1.148.476H112.5a13.773,13.773,0,0,0,1.764,4.676,16.969,16.969,0,0,0,3.43,4.1,18.131,18.131,0,0,0,4.69,2.982,1.629,1.629,0,0,1,.966,1.022,1.779,1.779,0,0,1-.154,1.386,1.633,1.633,0,0,1-1.176.91A2.3,2.3,0,0,1,120.512,1.876Zm18.5-1.6a10.385,10.385,0,0,1-7.5-3.036,2.276,2.276,0,0,1-.874-1.955A2.162,2.162,0,0,1,131.79-6.3a2.483,2.483,0,0,1,1.886-.437,5.2,5.2,0,0,1,1.84.989,6.6,6.6,0,0,0,1.61.966,4.81,4.81,0,0,0,1.886.368A4.819,4.819,0,0,0,142.9-5.957a6.437,6.437,0,0,0,1.311-4.3,6.774,6.774,0,0,0-1.127-4.347,3.87,3.87,0,0,0-3.151-1.357,4.119,4.119,0,0,0-1.311.207,5.083,5.083,0,0,0-1.127.529,17.672,17.672,0,0,0-1.61.989,2.977,2.977,0,0,1-1.748.483q-2.53,0-2.53-2.714V-29.486q0-2.714,2.76-2.714h10.9q2.714,0,2.714,2.254t-2.714,2.254h-8.74v8.464a7.509,7.509,0,0,1,1.7-.9,5.209,5.209,0,0,1,1.84-.345,9.274,9.274,0,0,1,4.623,1.15,8.337,8.337,0,0,1,3.266,3.4,11.8,11.8,0,0,1,1.219,5.658q0,5.014-2.806,7.774A10.044,10.044,0,0,1,139.012.276ZM169.326.46a10.926,10.926,0,0,1-3.795-.667,7.758,7.758,0,0,1-3.243-2.346,11.756,11.756,0,0,1-2.208-4.738,30.375,30.375,0,0,1-.69-7.889q.138-9.108,2.944-13.317a9.014,9.014,0,0,1,7.958-4.209,8.69,8.69,0,0,1,3.358.667,10.154,10.154,0,0,1,2.9,1.817,2.213,2.213,0,0,1,.989,1.84,2.273,2.273,0,0,1-.943,1.656,2.133,2.133,0,0,1-1.7.529,4.179,4.179,0,0,1-1.7-.9,4.571,4.571,0,0,0-2.9-1.012,4.867,4.867,0,0,0-4.577,2.852q-1.5,2.852-1.587,8.464a5.3,5.3,0,0,1,2.231-1.817,6.928,6.928,0,0,1,2.921-.667,9,9,0,0,1,4.6,1.173,8.416,8.416,0,0,1,3.2,3.312,10.418,10.418,0,0,1,1.173,5.083,11.973,11.973,0,0,1-1.1,5.244,8.722,8.722,0,0,1-3.105,3.611A8.408,8.408,0,0,1,169.326.46ZM169-4.232a3.7,3.7,0,0,0,3.151-1.518,6.47,6.47,0,0,0,1.127-3.956,5.736,5.736,0,0,0-1.127-3.7,3.62,3.62,0,0,0-2.967-1.4,4.089,4.089,0,0,0-3.312,1.426,5.259,5.259,0,0,0-1.1,3.726,6.787,6.787,0,0,0,1.2,4.025A3.651,3.651,0,0,0,169-4.232ZM198.628.46a8.356,8.356,0,0,1-5.75-1.84,10.236,10.236,0,0,1-2.921-5.52,41.726,41.726,0,0,1-.851-9.2,42.047,42.047,0,0,1,.851-9.223,10.254,10.254,0,0,1,2.921-5.543,8.356,8.356,0,0,1,5.75-1.84,8.267,8.267,0,0,1,5.727,1.84,10.338,10.338,0,0,1,2.9,5.543A42.047,42.047,0,0,1,208.1-16.1a41.725,41.725,0,0,1-.851,9.2,10.32,10.32,0,0,1-2.9,5.52A8.267,8.267,0,0,1,198.628.46Zm0-4.692a3.467,3.467,0,0,0,2.691-1.081,7.386,7.386,0,0,0,1.449-3.657,42.8,42.8,0,0,0,.46-7.13,43.163,43.163,0,0,0-.46-7.176,7.386,7.386,0,0,0-1.449-3.657,3.467,3.467,0,0,0-2.691-1.081,3.54,3.54,0,0,0-2.714,1.081,7.111,7.111,0,0,0-1.449,3.657,45.4,45.4,0,0,0-.437,7.176,45.012,45.012,0,0,0,.437,7.13,7.111,7.111,0,0,0,1.449,3.657A3.54,3.54,0,0,0,198.628-4.232ZM221.536,2.3a1.607,1.607,0,0,1-1.2-.49,1.751,1.751,0,0,1-.476-1.274V-15.4a14.745,14.745,0,0,1,.364-3.612,4.186,4.186,0,0,1,1.246-2.17,5.041,5.041,0,0,1,2.408-1.064,21.087,21.087,0,0,1,3.878-.294h6.524a21.087,21.087,0,0,1,3.878.294,5.041,5.041,0,0,1,2.408,1.064,4.186,4.186,0,0,1,1.246,2.17,14.745,14.745,0,0,1,.364,3.612V-3.332a8.537,8.537,0,0,1-.518,3.318,3.107,3.107,0,0,1-1.638,1.68,8.4,8.4,0,0,1-2.94.574,2.3,2.3,0,0,1-1.442-.378,1.611,1.611,0,0,1-.658-1.218,1.824,1.824,0,0,1,.406-1.358,1.629,1.629,0,0,1,1.246-.574,4.588,4.588,0,0,0,1.4-.252,1.1,1.1,0,0,0,.644-.728,5.142,5.142,0,0,0,.168-1.484V-9.1H223.188V.532a1.782,1.782,0,0,1-.462,1.274A1.562,1.562,0,0,1,221.536,2.3ZM232.652-12.18h6.188V-15.4a7.328,7.328,0,0,0-.35-2.618,1.872,1.872,0,0,0-1.33-1.12,11.906,11.906,0,0,0-2.912-.266h-1.6Zm-9.464,0h6.16V-19.4H227.78a11.932,11.932,0,0,0-2.9.266,1.877,1.877,0,0,0-1.344,1.12,7.328,7.328,0,0,0-.35,2.618Zm40.04,7.056a1.391,1.391,0,0,1-.98-.392,1.488,1.488,0,0,1-.476-.98q-.084-1.064-.154-2.436t-.154-2.814q-.084-1.442-.14-2.758t-.084-2.324q-.028-1.008-.028-1.484v-2.772a1.843,1.843,0,0,1,.574-1.372,1.981,1.981,0,0,1,1.442-.56,2.017,2.017,0,0,1,1.47.56,1.843,1.843,0,0,1,.574,1.372v2.772q0,.476-.042,1.484t-.1,2.324q-.056,1.316-.126,2.758t-.154,2.814q-.084,1.372-.168,2.436a1.38,1.38,0,0,1-.448.98A1.425,1.425,0,0,1,263.228-5.124Zm0,6.832a2.291,2.291,0,0,1-1.68-.7,2.291,2.291,0,0,1-.7-1.68,2.291,2.291,0,0,1,.7-1.68,2.291,2.291,0,0,1,1.68-.7,2.291,2.291,0,0,1,1.68.7,2.291,2.291,0,0,1,.7,1.68,2.291,2.291,0,0,1-.7,1.68A2.291,2.291,0,0,1,263.228,1.708ZM30.084,98.554a2.793,2.793,0,0,1-1.955-.736,2.549,2.549,0,0,1-.805-1.978V81.672h-8.1a18.775,18.775,0,0,1-3.2,9.982Q13.2,95.61,7.038,97.772a4.889,4.889,0,0,1-2.461.253A2.365,2.365,0,0,1,2.9,96.576a2.732,2.732,0,0,1-.069-2.116A2.6,2.6,0,0,1,4.646,92.9a16.857,16.857,0,0,0,5.106-2.484,9.3,9.3,0,0,0,2.9-3.611,14.616,14.616,0,0,0,1.15-5.129H4.186a2.441,2.441,0,0,1-1.794-.736,2.388,2.388,0,0,1-.736-1.748,2.441,2.441,0,0,1,.736-1.794,2.441,2.441,0,0,1,1.794-.736h9.66V72.886a2.622,2.622,0,0,1,.805-2,2.746,2.746,0,0,1,1.955-.759,2.689,2.689,0,0,1,1.909.759,2.622,2.622,0,0,1,.805,2v3.772h8V72.794a2.567,2.567,0,0,1,.805-1.955,2.746,2.746,0,0,1,1.955-.759,2.689,2.689,0,0,1,1.909.759,2.567,2.567,0,0,1,.805,1.955v3.864H42.09a2.513,2.513,0,0,1,2.53,2.53,2.388,2.388,0,0,1-.736,1.748,2.441,2.441,0,0,1-1.794.736H32.8V95.84a2.549,2.549,0,0,1-.805,1.978A2.734,2.734,0,0,1,30.084,98.554ZM41.676,71.092a2.753,2.753,0,0,1-1.955.782,2.526,2.526,0,0,1-1.909-.828l-1.518-1.518q-.828-.828-1.794-1.7-2.944.322-6.808.69t-8,.713q-4.14.345-7.958.644T5.06,70.4a2.925,2.925,0,0,1-1.978-.6,2.4,2.4,0,0,1-.92-1.794,2.361,2.361,0,0,1,.6-1.84,2.473,2.473,0,0,1,1.84-.828q1.334-.092,2.967-.184t3.381-.184q.69-1.2,1.633-2.921t1.794-3.381q.851-1.656,1.265-2.576a2.773,2.773,0,0,1,1.748-1.518,3.008,3.008,0,0,1,2.392.276,2.4,2.4,0,0,1,1.311,1.61,2.822,2.822,0,0,1-.3,2.07q-.644,1.15-1.656,2.852t-1.978,3.22l6.693-.46q3.335-.23,6.187-.414-.644-.552-1.242-1.058t-1.15-.92a2.342,2.342,0,0,1-.92-1.725,2.486,2.486,0,0,1,.552-1.863,2.931,2.931,0,0,1,1.748-.966A2.566,2.566,0,0,1,31,57.66q1.7,1.242,3.772,3.013t3.979,3.519q1.909,1.748,3.105,2.99a2.509,2.509,0,0,1,.736,2A2.864,2.864,0,0,1,41.676,71.092Zm38.686,10.35a15.632,15.632,0,0,1-4.554-.506,3.317,3.317,0,0,1-2.116-1.656,7.069,7.069,0,0,1-.552-3.036V73.576q-.184.23-.345.414t-.345.414a2.28,2.28,0,0,1-1.61.805,2.5,2.5,0,0,1-1.748-.529,1.832,1.832,0,0,1-.46-.552,2.337,2.337,0,0,1-1.242.368H57.96a1.963,1.963,0,0,1-1.472-.621,2.024,2.024,0,0,1-.6-1.449,2.078,2.078,0,0,1,.6-1.495,1.963,1.963,0,0,1,1.472-.621h9.43a2.018,2.018,0,0,1,1.794,1.012q1.012-1.15,2.093-2.622T73.3,65.71a29.869,29.869,0,0,0,1.541-2.76,2.073,2.073,0,0,1,1.84-1.242V61.57H72.128a1.887,1.887,0,0,1-1.84-1.84,1.743,1.743,0,0,1,.552-1.311,1.8,1.8,0,0,1,1.288-.529h4.554v-.736a2.218,2.218,0,0,1,.69-1.7,2.451,2.451,0,0,1,3.312,0,2.219,2.219,0,0,1,.69,1.7v.736h4.692v-.736a2.218,2.218,0,0,1,.69-1.7,2.342,2.342,0,0,1,1.656-.644,2.243,2.243,0,0,1,2.3,2.346v.736h4.6a1.807,1.807,0,0,1,1.84,1.84,1.8,1.8,0,0,1-.529,1.288,1.743,1.743,0,0,1-1.311.552h-4.6v.6a2.243,2.243,0,0,1-2.3,2.346h-.138a.807.807,0,0,1-.092.23,1.566,1.566,0,0,1-.184.414q-.138.23-.276.506H94.99a1.417,1.417,0,0,1,1.472,1.472,1.511,1.511,0,0,1-.414,1.081,1.393,1.393,0,0,1-1.058.437H87.768V70.08H93.84a1.285,1.285,0,0,1,.943.391,1.34,1.34,0,0,1,.391.989,1.335,1.335,0,0,1-1.334,1.334H87.768v1.38H93.84a1.335,1.335,0,0,1,1.334,1.334,1.34,1.34,0,0,1-.391.989,1.285,1.285,0,0,1-.943.391H87.768v1.564H95.4a1.511,1.511,0,0,1,1.081.414,1.393,1.393,0,0,1,.437,1.058,1.492,1.492,0,0,1-.437,1.058,1.431,1.431,0,0,1-1.081.46ZM73.6,98.048a3.368,3.368,0,0,1-1.955-.184,2.123,2.123,0,0,1-1.127-1.38,2.073,2.073,0,0,1,.3-1.84,2.493,2.493,0,0,1,1.679-.966,36.117,36.117,0,0,0,4.186-.874A32.77,32.77,0,0,0,80.5,91.516a23.67,23.67,0,0,1-4.278-5.06H73.094a1.691,1.691,0,0,1-1.265-.552,1.8,1.8,0,0,1-.529-1.288,1.78,1.78,0,0,1,.529-1.311,1.726,1.726,0,0,1,1.265-.529H88.412a5.4,5.4,0,0,1,3.565,1.058,3.287,3.287,0,0,1,1.265,2.622,4.218,4.218,0,0,1-1.564,3.036q-.6.6-1.265,1.173a16.22,16.22,0,0,1-1.4,1.081,30.716,30.716,0,0,0,3.174,1.081,27.971,27.971,0,0,0,3.588.759,2.568,2.568,0,0,1,1.679.92A2.063,2.063,0,0,1,97.8,96.3q-.506,2.07-3.22,1.656a27.841,27.841,0,0,1-9.936-3.5,37.45,37.45,0,0,1-5.083,2.116A39.812,39.812,0,0,1,73.6,98.048Zm-10.856-1.1a10.62,10.62,0,0,1-4.209-.667,3.688,3.688,0,0,1-2.047-2.185,12.137,12.137,0,0,1-.552-4.048,12.311,12.311,0,0,1,.552-4.094,3.688,3.688,0,0,1,2.047-2.185,10.62,10.62,0,0,1,4.209-.667,10.592,10.592,0,0,1,4.232.667A3.7,3.7,0,0,1,69,85.95a12.311,12.311,0,0,1,.552,4.094A12.137,12.137,0,0,1,69,94.092a3.7,3.7,0,0,1-2.024,2.185A10.592,10.592,0,0,1,62.744,96.944Zm-6.67-28.8a1.963,1.963,0,0,1-1.472-.621,2.078,2.078,0,0,1-.6-1.5,2.024,2.024,0,0,1,.6-1.449,1.963,1.963,0,0,1,1.472-.621H69.046a1.912,1.912,0,0,1,1.426.621,2.024,2.024,0,0,1,.6,1.449,2.078,2.078,0,0,1-.6,1.5,1.912,1.912,0,0,1-1.426.621ZM58.052,61.8a2.162,2.162,0,0,1,0-4.324h9.292a1.981,1.981,0,0,1,1.518.644,2.226,2.226,0,0,1,0,3.036,1.981,1.981,0,0,1-1.518.644ZM57.96,80.89a1.963,1.963,0,0,1-1.472-.621,2.168,2.168,0,0,1,0-2.99,1.963,1.963,0,0,1,1.472-.621h9.43a1.963,1.963,0,0,1,1.472.621,2.168,2.168,0,0,1,0,2.99,1.963,1.963,0,0,1-1.472.621Zm4.784,11.868a2.27,2.27,0,0,0,1.817-.552A3.724,3.724,0,0,0,65,90.044a3.846,3.846,0,0,0-.437-2.185,2.213,2.213,0,0,0-1.817-.575,2.144,2.144,0,0,0-1.771.575,3.846,3.846,0,0,0-.437,2.185,3.724,3.724,0,0,0,.437,2.162A2.2,2.2,0,0,0,62.744,92.758ZM78.568,65.664H82.8l1.058-2.53a1.988,1.988,0,0,1,.9-1.035,2.66,2.66,0,0,1,1.311-.345V61.57H81.374v.6a2.2,2.2,0,0,1-.667,1.656,2.387,2.387,0,0,1-1.587.69,3.57,3.57,0,0,1-.184.46,1.012,1.012,0,0,1-.161.345A2.568,2.568,0,0,0,78.568,65.664ZM84.732,89.4q.6-.368,1.15-.736t1.012-.69q.782-.6.644-1.058t-1.2-.46H81.328q.782.782,1.633,1.541A19.21,19.21,0,0,0,84.732,89.4Zm-4.37-10.948h2.622V76.888h-5.06a1.552,1.552,0,0,0,.621,1.219A3.5,3.5,0,0,0,80.362,78.452ZM77.878,70.08h5.106V68.654H77.878Zm0,4.094h5.106v-1.38H77.878ZM113.8,96.07a2.57,2.57,0,0,1-1.886-.782,2.625,2.625,0,0,1-.782-1.932,2.67,2.67,0,0,1,2.668-2.668h11.914V75.508H110.446a2.668,2.668,0,0,1,0-5.336h15.272v-11.5a2.878,2.878,0,0,1,.9-2.185,3.143,3.143,0,0,1,4.3,0,2.917,2.917,0,0,1,.874,2.185v11.5h15.456a2.668,2.668,0,0,1,0,5.336H131.79v15.18H143.8a2.647,2.647,0,0,1,1.909.782,2.534,2.534,0,0,1,.805,1.886,2.586,2.586,0,0,1-.805,1.932,2.647,2.647,0,0,1-1.909.782Zm73.738,1.794a2.653,2.653,0,0,1-1.886-.736,2.53,2.53,0,0,1-.782-1.932V85.674q-1.978,2.162-4.393,4.347a48.133,48.133,0,0,1-4.577,3.7,2.979,2.979,0,0,1-2.07.529,2.476,2.476,0,0,1-1.84-1.081,2.415,2.415,0,0,1-.391-1.909,2.342,2.342,0,0,1,1.081-1.587,38.594,38.594,0,0,0,3.4-2.484q1.886-1.518,3.749-3.174t3.151-3.036h-8.05a2.427,2.427,0,0,1-1.748-.713,2.389,2.389,0,0,1,0-3.45,2.427,2.427,0,0,1,1.748-.713h9.936v-3.68h-.23a15.2,15.2,0,0,1-5.175-.713,4.663,4.663,0,0,1-2.714-2.415,11.041,11.041,0,0,1-.805-4.646,11.013,11.013,0,0,1,.805-4.669,4.678,4.678,0,0,1,2.691-2.392,15.166,15.166,0,0,1,5.2-.713h5.7a15.372,15.372,0,0,1,5.221.713,4.588,4.588,0,0,1,2.691,2.392,11.3,11.3,0,0,1,.782,4.669,11.328,11.328,0,0,1-.782,4.646,4.574,4.574,0,0,1-2.691,2.415,15.372,15.372,0,0,1-5.221.713h-.138v3.68h9.936a2.4,2.4,0,0,1,1.771.713,2.443,2.443,0,0,1,0,3.45,2.4,2.4,0,0,1-1.771.713H192.1q1.288,1.288,3.151,2.9t3.772,3.082q1.909,1.472,3.381,2.392a2.3,2.3,0,0,1,1.081,1.633,2.569,2.569,0,0,1-.437,1.909,2.479,2.479,0,0,1-1.794,1.127,2.956,2.956,0,0,1-2.116-.483q-1.334-.92-2.9-2.208t-3.128-2.76q-1.564-1.472-2.9-2.852V95.2a2.53,2.53,0,0,1-.782,1.932A2.653,2.653,0,0,1,187.542,97.864Zm-18.676.276a2.6,2.6,0,0,1-1.84-.736,2.422,2.422,0,0,1-.782-1.84V73.99q-1.058,1.7-2.116,3.082a2.51,2.51,0,0,1-1.7,1.035,2.758,2.758,0,0,1-1.978-.437,2.661,2.661,0,0,1-1.081-1.633,2.207,2.207,0,0,1,.391-1.817q1.288-1.794,2.6-4.048t2.507-4.623q1.2-2.369,2.139-4.6t1.5-3.979a2.537,2.537,0,0,1,1.334-1.61,2.679,2.679,0,0,1,2.07-.092,2.717,2.717,0,0,1,1.541,1.173,2.3,2.3,0,0,1,.161,2q-.414,1.38-.943,2.806t-1.173,2.9V95.518a2.457,2.457,0,0,1-.782,1.909A2.642,2.642,0,0,1,168.866,98.14ZM184.782,67.5h5.428a4.093,4.093,0,0,0,2.53-.552,3.027,3.027,0,0,0,.644-2.3,3.106,3.106,0,0,0-.644-2.346,4.093,4.093,0,0,0-2.53-.552h-5.428a3.992,3.992,0,0,0-2.484.552,3.106,3.106,0,0,0-.644,2.346,3.027,3.027,0,0,0,.644,2.3A3.992,3.992,0,0,0,184.782,67.5Zm32.2,30.314a2.516,2.516,0,0,1-1.748-.667,2.329,2.329,0,0,1-.736-1.817V62.49a8.406,8.406,0,0,1,.6-3.519,3.559,3.559,0,0,1,2.185-1.817,14.435,14.435,0,0,1,4.531-.552q5.106,0,6.486,2.024t-.276,5.336l-.414.782q1.7-1.058,3.519-2.438t3.427-2.829q1.61-1.449,2.714-2.6a4.89,4.89,0,0,1,3.5-1.7A5.268,5.268,0,0,1,244.4,56.6q1.334,1.1,3.266,2.576t4,2.829q2.07,1.357,3.726,2.231a2.088,2.088,0,0,1,1.2,1.518,2.76,2.76,0,0,1-.276,1.978,2.841,2.841,0,0,1-1.7,1.334,2.46,2.46,0,0,1-2.07-.276q-.6-.368-1.334-.828t-1.518-1.012a2.36,2.36,0,0,1,.184.966,2.308,2.308,0,0,1-.621,1.633,2.183,2.183,0,0,1-1.679.667h-3.726v2.346H246.1a12.847,12.847,0,0,1,4.071.529,3.757,3.757,0,0,1,2.231,1.886,8.774,8.774,0,0,1,.69,3.887,8.774,8.774,0,0,1-.69,3.887,3.757,3.757,0,0,1-2.231,1.886,12.847,12.847,0,0,1-4.071.529h-1.012a25.436,25.436,0,0,0,4.393,3.933,24.194,24.194,0,0,0,5.359,2.967,2.206,2.206,0,0,1,1.38,1.426,2.561,2.561,0,0,1-1.679,3.335,3.337,3.337,0,0,1-2.277-.115,23.1,23.1,0,0,1-3.749-2,27.662,27.662,0,0,1-3.726-2.9,26.4,26.4,0,0,1-3.1-3.381,15.853,15.853,0,0,1-5.52,5.52,30.6,30.6,0,0,1-7.912,3.358,2.964,2.964,0,0,1-2-.046,2.225,2.225,0,0,1-1.265-1.38,2.53,2.53,0,0,1,.115-1.932,2.155,2.155,0,0,1,1.357-1.15,25.7,25.7,0,0,0,6.946-2.967,11.878,11.878,0,0,0,4.37-4.669h-1.012a13.07,13.07,0,0,1-4.094-.529,3.759,3.759,0,0,1-2.254-1.886,8.774,8.774,0,0,1-.69-3.887,8.774,8.774,0,0,1,.69-3.887,3.759,3.759,0,0,1,2.254-1.886,13.07,13.07,0,0,1,4.094-.529h2.116V70.218h-3.956a2.2,2.2,0,0,1-1.656-.667,2.262,2.262,0,0,1-.644-1.633,1.445,1.445,0,0,1,.023-.23,1.445,1.445,0,0,0,.023-.23q-.736.552-1.449,1.058t-1.357.874a2.91,2.91,0,0,1-2.024.437,2.4,2.4,0,0,1-1.7-1.173,1.086,1.086,0,0,1-.23-.506q-.184.368-.368.713t-.322.575a2.261,2.261,0,0,0,.46,3.174,11.491,11.491,0,0,1,3.082,8.05q0,3.726-1.725,5.543a6.639,6.639,0,0,1-4.715,1.955,2.515,2.515,0,0,1-2.852-1.748v8.924a2.368,2.368,0,0,1-.713,1.817A2.493,2.493,0,0,1,216.982,97.818Zm2.484-13.2a2.791,2.791,0,0,1,.69-1.035,2.277,2.277,0,0,1,1.15-.575,2.688,2.688,0,0,0,1.679-.966,4.588,4.588,0,0,0,.483-2.484,8.516,8.516,0,0,0-.736-3.4,9.528,9.528,0,0,0-1.84-2.852,3.44,3.44,0,0,1-1.035-1.794,4.87,4.87,0,0,1,.575-2.392q.276-.506.8-1.7t1.058-2.438q.529-1.242.759-1.84.46-1.1.184-1.541t-1.656-.437a2.866,2.866,0,0,0-1.7.345,2.034,2.034,0,0,0-.414,1.541Zm15.548-19h12.834q-1.564-1.15-3.036-2.323t-2.438-2.047a1.912,1.912,0,0,0-1.311-.713,2.115,2.115,0,0,0-1.311.805q-.874.874-2.116,2T235.014,65.618Zm8.832,15.18h1.61a4.346,4.346,0,0,0,2.116-.322q.46-.322.46-1.61,0-1.334-.46-1.633a4.642,4.642,0,0,0-2.116-.3h-1.61Zm-6.486,0h1.518V76.934H237.36a4.642,4.642,0,0,0-2.116.3q-.46.3-.46,1.633,0,1.288.46,1.61A4.346,4.346,0,0,0,237.36,80.8Zm45.2,15.442a1.846,1.846,0,0,1-1.344-.49,1.9,1.9,0,0,1-.56-1.274,1.693,1.693,0,0,1,.42-1.218,1.745,1.745,0,0,1,1.26-.574,2.9,2.9,0,0,0,1.554-.378,1.671,1.671,0,0,0,.322-1.218v-11H275.5a1.484,1.484,0,0,1-1.134-.462,1.626,1.626,0,0,1,0-2.212,1.484,1.484,0,0,1,1.134-.462h8.708V72.216a1.586,1.586,0,0,1,.49-1.232,1.8,1.8,0,0,1,2.38,0,1.586,1.586,0,0,1,.49,1.232v4.732h2.492a1.474,1.474,0,0,1,1.148.462,1.666,1.666,0,0,1,0,2.212,1.474,1.474,0,0,1-1.148.462h-2.492V91.648a6.7,6.7,0,0,1-.462,2.744,2.7,2.7,0,0,1-1.554,1.428A8.593,8.593,0,0,1,282.56,96.24Zm-11.088.112a1.7,1.7,0,0,1-1.19-.448,1.551,1.551,0,0,1-.49-1.2V81.764q-.924,1.176-1.848,2.184a1.659,1.659,0,0,1-2.324.14,1.568,1.568,0,0,1-.518-1.064,1.358,1.358,0,0,1,.378-1.064,32.446,32.446,0,0,0,2.6-3.248,41.433,41.433,0,0,0,2.352-3.724,25.969,25.969,0,0,0,1.68-3.556,1.58,1.58,0,0,1,.868-.882,1.7,1.7,0,0,1,1.232-.014,1.437,1.437,0,0,1,.9.784,1.486,1.486,0,0,1,0,1.26q-.364.98-.868,2.03t-1.12,2.114V94.7a1.552,1.552,0,0,1-.49,1.2A1.664,1.664,0,0,1,271.472,96.352Zm9.884-7.812a1.751,1.751,0,0,1-1.358.308,1.622,1.622,0,0,1-1.078-.756q-.28-.476-.77-1.148t-.994-1.344q-.5-.672-.868-1.092a1.423,1.423,0,0,1-.28-1.162,1.588,1.588,0,0,1,.644-1.05,2,2,0,0,1,1.218-.378,1.488,1.488,0,0,1,1.134.574q.364.42.9,1.106t1.05,1.372q.518.686.8,1.134a1.728,1.728,0,0,1-.392,2.436Zm31.724,7.812a15.943,15.943,0,0,1-5.768-.7,6.586,6.586,0,0,1-3.36-2.352,5.392,5.392,0,0,1-.9-3.612,4.846,4.846,0,0,1,.938-2.534,5.229,5.229,0,0,1,2.1-1.624,8.657,8.657,0,0,1,2.912-.686,11.28,11.28,0,0,1,3.318.28q-.42-.616-.826-1.3t-.8-1.386q-1.6.28-3.206.5t-3.094.392a1.556,1.556,0,0,1-1.19-.392,1.607,1.607,0,0,1-.574-1.12,1.623,1.623,0,0,1,.378-1.218,1.492,1.492,0,0,1,1.134-.546q1.148-.112,2.464-.28t2.66-.392l-.392-.952q-.2-.476-.364-.952-1.12.2-2.2.35t-2,.266a1.656,1.656,0,0,1-1.2-.364,1.593,1.593,0,0,1-.616-1.092,1.7,1.7,0,0,1,.364-1.218,1.48,1.48,0,0,1,1.092-.6q.728-.056,1.624-.182t1.848-.266q-.112-.476-.252-.91t-.252-.854a1.65,1.65,0,0,1,.182-1.274,1.583,1.583,0,0,1,1.022-.77,1.65,1.65,0,0,1,1.274.182,1.583,1.583,0,0,1,.77,1.022q.14.5.266,1.008t.294,1.036q.9-.168,1.722-.35t1.526-.35a1.494,1.494,0,0,1,1.232.21,1.581,1.581,0,0,1,.728,1.022,1.661,1.661,0,0,1-.21,1.246,1.506,1.506,0,0,1-1.022.714q-.644.14-1.4.308t-1.568.308q.168.476.35.952t.378.952q1.148-.224,2.226-.476t1.974-.476a1.613,1.613,0,0,1,1.232.224,1.649,1.649,0,0,1-.476,3q-.728.2-1.638.378l-1.89.378a26.533,26.533,0,0,0,1.484,2.422,13.107,13.107,0,0,0,1.652,1.974,1.666,1.666,0,0,1,.49,1.008,1.576,1.576,0,0,1-.266,1.092,1.61,1.61,0,0,1-.882.7,1.584,1.584,0,0,1-1.134-.028,13.592,13.592,0,0,0-4.592-1.218,5.859,5.859,0,0,0-3.122.532,2.061,2.061,0,0,0-1.19,1.75q-.168,3.136,6.636,2.94a1.619,1.619,0,0,1,1.2.434,1.674,1.674,0,0,1,.084,2.366A1.649,1.649,0,0,1,313.08,96.352Zm29.82-7.476a1.391,1.391,0,0,1-.98-.392,1.488,1.488,0,0,1-.476-.98q-.084-1.064-.154-2.436t-.154-2.814q-.084-1.442-.14-2.758t-.084-2.324q-.028-1.008-.028-1.484V72.916a1.843,1.843,0,0,1,.574-1.372,1.981,1.981,0,0,1,1.442-.56,2.017,2.017,0,0,1,1.47.56,1.843,1.843,0,0,1,.574,1.372v2.772q0,.476-.042,1.484t-.1,2.324q-.056,1.316-.126,2.758t-.154,2.814q-.084,1.372-.168,2.436a1.38,1.38,0,0,1-.448.98A1.425,1.425,0,0,1,342.9,88.876Zm0,6.832a2.39,2.39,0,1,1,1.68-.7A2.291,2.291,0,0,1,342.9,95.708Z" transform="translate(21.708 57.212)"/></g></svg>