<svg xmlns="http://www.w3.org/2000/svg" width="470.336" height="295.716" viewBox="0 0 470.336 295.716"><g transform="translate(-1089 -4988.12)"><g transform="translate(201 -7)"><path d="M6.1,1.168A1.2,1.2,0,0,1,5.272.9a1.147,1.147,0,0,1-.36-.728.932.932,0,0,1,.264-.784A1.39,1.39,0,0,1,6.1-.976a1.36,1.36,0,0,0,.76-.208.837.837,0,0,0,.168-.608V-12.24a.963.963,0,0,1,.3-.744,1.027,1.027,0,0,1,.72-.28,1.047,1.047,0,0,1,.736.28.963.963,0,0,1,.3.744V-1.552a2.688,2.688,0,0,1-.7,2.088A3.381,3.381,0,0,1,6.1,1.168ZM15.008-2.8a1.1,1.1,0,0,1-.824.152.993.993,0,0,1-.68-.488q-.48-.768-1.016-1.776T11.472-7q-.48-1.08-.816-2.056a.869.869,0,0,1,.064-.728.932.932,0,0,1,.56-.456.916.916,0,0,1,.712.032.933.933,0,0,1,.488.528q.32.8.8,1.792T14.3-5.936q.536.96,1.016,1.68a1,1,0,0,1,.152.792A.963.963,0,0,1,15.008-2.8ZM1.152-2.56A.9.9,0,0,1,.7-3.144a.944.944,0,0,1,.12-.76q.464-.736.96-1.72t.92-2q.424-1.016.68-1.832a.968.968,0,0,1,.52-.608.865.865,0,0,1,.776-.016,1.065,1.065,0,0,1,.536.472.953.953,0,0,1,.04.744q-.272.88-.712,1.944t-.944,2.1q-.5,1.032-.968,1.8a1.175,1.175,0,0,1-.656.536A1.018,1.018,0,0,1,1.152-2.56Zm22.416,4a1.061,1.061,0,0,1-.752-.24.945.945,0,0,1-.288-.64A.813.813,0,0,1,22.784-.1a1.066,1.066,0,0,1,.72-.272,3.075,3.075,0,0,0,.976-.176.872.872,0,0,0,.5-.5A2.891,2.891,0,0,0,25.12-2.08a3.044,3.044,0,0,0-.048-.56H18.848a.766.766,0,0,1-.6-.24.831.831,0,0,1-.216-.576.85.85,0,0,1,.208-.576.668.668,0,0,1,.528-.24h5.568q-.048-.048-.088-.1T24.16-4.48a.687.687,0,0,1-.168-.592.859.859,0,0,1,.312-.544.88.88,0,0,1,.64-.2.981.981,0,0,1,.592.216q.032.032.08.072t.08.072l.448-.256L26.48-5.9q.272-.176.224-.352t-.368-.176H21.712a.728.728,0,0,1-.568-.24.811.811,0,0,1-.216-.56.811.811,0,0,1,.216-.56.728.728,0,0,1,.568-.24h5.712a1.975,1.975,0,0,1,1.128.288,1.315,1.315,0,0,1,.552.72,1.283,1.283,0,0,1-.088.912,2.11,2.11,0,0,1-.792.864q-.416.272-.8.512t-.784.464h4.992a.854.854,0,0,1,.656.24.814.814,0,0,1,.224.576.831.831,0,0,1-.216.576.766.766,0,0,1-.6.24h-4.72a4.531,4.531,0,0,1,.048.64A3.555,3.555,0,0,1,26.2.664,3.75,3.75,0,0,1,23.568,1.44Zm-4.3-7.872a.919.919,0,0,1-.64-.248.836.836,0,0,1-.272-.648v-.736a2.325,2.325,0,0,1,.576-1.768,2.948,2.948,0,0,1,1.984-.552l-.088-.12a.893.893,0,0,1-.072-.12q-.064-.144-.224-.424l-.32-.56q-.16-.28-.24-.408a.736.736,0,0,1-.08-.616.778.778,0,0,1,.4-.488.925.925,0,0,1,.672-.1.883.883,0,0,1,.56.4q.176.256.448.688t.416.72a.9.9,0,0,1,.12.528.73.73,0,0,1-.248.48h2.352a1.458,1.458,0,0,1-.12-.136A.559.559,0,0,1,24.4-10.7q-.064-.144-.232-.472t-.328-.656q-.16-.328-.24-.456a.775.775,0,0,1-.056-.624.807.807,0,0,1,.408-.48.87.87,0,0,1,.672-.08.949.949,0,0,1,.56.416q.112.176.28.488l.336.624q.168.312.264.5a.975.975,0,0,1,.088.56.708.708,0,0,1-.3.48H27.12q.192-.336.472-.832t.552-.984q.272-.488.4-.76a.812.812,0,0,1,.592-.48,1.09,1.09,0,0,1,.72.08.909.909,0,0,1,.472.512.81.81,0,0,1-.072.72q-.176.32-.472.808l-.568.936H29.5a3.184,3.184,0,0,1,2.1.544,2.284,2.284,0,0,1,.616,1.792v.736a.836.836,0,0,1-.272.648.919.919,0,0,1-.64.248,1,1,0,0,1-.656-.224.782.782,0,0,1-.272-.64v-.736a.777.777,0,0,0-.224-.632,1.33,1.33,0,0,0-.816-.184H21.232a1.33,1.33,0,0,0-.816.184.777.777,0,0,0-.224.632V-7.3a.782.782,0,0,1-.272.64A1,1,0,0,1,19.264-6.432Zm19.12,7.888a.879.879,0,0,1-.624-.24A.836.836,0,0,1,37.5.576V-4.608q-.24.464-.48.9T36.56-2.9a.86.86,0,0,1-.552.432.922.922,0,0,1-.7-.128.779.779,0,0,1-.384-.512.788.788,0,0,1,.144-.656q.416-.608.888-1.456t.888-1.728q.416-.88.656-1.552v-.08H35.872a.772.772,0,0,1-.592-.24.835.835,0,0,1-.224-.592.843.843,0,0,1,.224-.584.759.759,0,0,1,.592-.248H37.5v-2.3a.83.83,0,0,1,.256-.648.9.9,0,0,1,.624-.232.867.867,0,0,1,.616.232.844.844,0,0,1,.248.648v2.3h1.1a.733.733,0,0,1,.384.1.848.848,0,0,1,.24-.568.785.785,0,0,1,.592-.232h2.768V-12.48a.88.88,0,0,1,.272-.672.923.923,0,0,1,.656-.256.943.943,0,0,1,.672.256.88.88,0,0,1,.272.672v1.536H49.04a.791.791,0,0,1,.608.24.835.835,0,0,1,.224.592.835.835,0,0,1-.224.592.791.791,0,0,1-.608.24H47.088a.747.747,0,0,1,.464.256q.208.224.56.56t.736.664q.384.328.672.552a.782.782,0,0,1,.328.576.876.876,0,0,1-.184.656.988.988,0,0,1-.616.36.847.847,0,0,1-.68-.2q-.112-.08-.24-.192l-.256-.224a.881.881,0,0,1,.064.7,11.1,11.1,0,0,1-1.456,2.96,9.284,9.284,0,0,0,1.448,1.152,12.456,12.456,0,0,0,1.688.912.918.918,0,0,1,.544.528.981.981,0,0,1-.048.752.836.836,0,0,1-.616.472,1.3,1.3,0,0,1-.808-.12A14.921,14.921,0,0,1,46.92.048a11.118,11.118,0,0,1-1.576-1.312A9.882,9.882,0,0,1,43.664.08,13.441,13.441,0,0,1,41.68,1.12a1.382,1.382,0,0,1-.816.072.8.8,0,0,1-.592-.5.921.921,0,0,1,0-.752,1,1,0,0,1,.576-.5,9.284,9.284,0,0,0,3.328-2.1,13.916,13.916,0,0,1-.784-1.3,10.211,10.211,0,0,1-.64-1.472.845.845,0,0,1,.016-.7.842.842,0,0,1,.464-.416,1.031,1.031,0,0,1,.7-.008.8.8,0,0,1,.48.536,8.465,8.465,0,0,0,.408,1.008q.232.48.488.912a10.19,10.19,0,0,0,.5-.96,8.024,8.024,0,0,0,.384-1.04.813.813,0,0,1,.464-.568.97.97,0,0,1,.7-.008.878.878,0,0,1,.112.048q-.32-.3-.648-.624t-.584-.624a.761.761,0,0,1-.216-.632.908.908,0,0,1,.312-.6.8.8,0,0,1,.4-.176h-2.8a.678.678,0,0,1,.336.176.824.824,0,0,1,.32.608.887.887,0,0,1-.208.624,13.513,13.513,0,0,1-.976,1.064,11.731,11.731,0,0,1-1.04.92,1.021,1.021,0,0,1-.7.224.829.829,0,0,1-.648-.352.911.911,0,0,1-.2-.64.721.721,0,0,1,.312-.56q.272-.208.616-.52t.7-.656q.352-.344.608-.632a.721.721,0,0,1,.4-.256H41.568a.822.822,0,0,1-.4-.1.866.866,0,0,1-.232.568.759.759,0,0,1-.584.232h-1.1v.864q.272.352.648.808t.744.872q.368.416.592.64a.794.794,0,0,1,.248.6.827.827,0,0,1-.28.6A.828.828,0,0,1,40.576-4,.814.814,0,0,1,40-4.3q-.16-.176-.352-.432t-.4-.528V.576a.85.85,0,0,1-.248.64A.851.851,0,0,1,38.384,1.456Z" transform="translate(904 5010)" fill="#ed8934"/><path d="M4,1.44a.983.983,0,0,1-.688-.264A.919.919,0,0,1,3.024.464V-4.272q-.24.224-.488.448t-.52.432a1,1,0,0,1-.7.216A.947.947,0,0,1,.64-3.5a.794.794,0,0,1-.2-.672A.965.965,0,0,1,.784-4.8,17.715,17.715,0,0,0,3.04-7.008,17.416,17.416,0,0,0,4.8-9.488H1.6A.817.817,0,0,1,1-9.736a.817.817,0,0,1-.248-.6A.791.791,0,0,1,1-10.928a.831.831,0,0,1,.6-.24H5.648q.208-.464.376-.928t.328-.96a.866.866,0,0,1,.5-.56,1.04,1.04,0,0,1,.76-.032.912.912,0,0,1,.552.472.9.9,0,0,1,.024.7q-.112.336-.24.664t-.256.648h6.736a.8.8,0,0,1,.592.24.8.8,0,0,1,.24.592.831.831,0,0,1-.24.6.791.791,0,0,1-.592.248H6.9Q6.48-8.7,6-7.936T4.976-6.464V.464a.932.932,0,0,1-.28.712A.975.975,0,0,1,4,1.44ZM6.192.56a.817.817,0,0,1-.6-.248.817.817,0,0,1-.248-.6A.791.791,0,0,1,5.592-.88a.831.831,0,0,1,.6-.24H9.2v-3.5H6.688a.8.8,0,0,1-.592-.24.786.786,0,0,1-.24-.576.8.8,0,0,1,.24-.592.8.8,0,0,1,.592-.24H9.2V-8.1a.919.919,0,0,1,.288-.712.983.983,0,0,1,.688-.264.975.975,0,0,1,.7.264.932.932,0,0,1,.28.712v1.824h2.7a.786.786,0,0,1,.576.24.8.8,0,0,1,.24.592.786.786,0,0,1-.24.576.786.786,0,0,1-.576.24h-2.7v3.5h3.2a.8.8,0,0,1,.592.24.8.8,0,0,1,.24.592.831.831,0,0,1-.24.6.791.791,0,0,1-.592.248Zm15.616.848a.847.847,0,0,1-.6-.232A.8.8,0,0,1,20.96.56V-1.568q-.384.48-.8.936t-.736.776a1.012,1.012,0,0,1-.648.28.807.807,0,0,1-.648-.248A.677.677,0,0,1,17.9-.408a.807.807,0,0,1,.3-.568q.352-.288.784-.712t.848-.888q.416-.464.7-.832H18.592a.664.664,0,0,1-.488-.2.646.646,0,0,1-.2-.472.664.664,0,0,1,.2-.488.664.664,0,0,1,.488-.2H20.96v-.64H19.248a.569.569,0,0,1-.416-.176A.569.569,0,0,1,18.656-6a.569.569,0,0,1,.176-.416.569.569,0,0,1,.416-.176H20.96v-.64H18.816a.664.664,0,0,1-.488-.2.646.646,0,0,1-.2-.472.664.664,0,0,1,.2-.488.664.664,0,0,1,.488-.2H20.96v-.384a.8.8,0,0,1,.248-.616.847.847,0,0,1,.6-.232.111.111,0,0,1,.048.008.071.071,0,0,0,.032.008q-.08-.24-.176-.52t-.176-.472H20.448q-.208.352-.424.664t-.408.568a1.123,1.123,0,0,1-.576.416.787.787,0,0,1-.672-.08A.776.776,0,0,1,18-9.76a.734.734,0,0,1,.144-.608,10.169,10.169,0,0,0,.6-.84q.328-.5.624-1.024t.472-.9a.821.821,0,0,1,.5-.448.873.873,0,0,1,.656.032.817.817,0,0,1,.44.424.682.682,0,0,1-.024.584q-.032.08-.08.176l-.1.192h3.344a.664.664,0,0,1,.488.2.664.664,0,0,1,.2.488.664.664,0,0,1-.2.488.664.664,0,0,1-.488.2H23.328q.064.16.12.3l.088.224a.727.727,0,0,1-.032.632.844.844,0,0,1-.48.408,1.116,1.116,0,0,1-.384.064.632.632,0,0,1,.024.1.583.583,0,0,1,.008.1v.384h1.856a.646.646,0,0,1,.472.2.664.664,0,0,1,.2.488.646.646,0,0,1-.2.472.646.646,0,0,1-.472.2H22.672v.64h1.264a.569.569,0,0,1,.416.176A.569.569,0,0,1,24.528-6a.569.569,0,0,1-.176.416.569.569,0,0,1-.416.176H22.672v.64h1.92a.664.664,0,0,1,.488.2.664.664,0,0,1,.2.488.646.646,0,0,1-.2.472.664.664,0,0,1-.488.2H22.8q.224.208.648.568t.864.7q.44.344.712.552a.7.7,0,0,1,.3.528.756.756,0,0,1-.192.592.821.821,0,0,1-.584.3.84.84,0,0,1-.632-.192q-.24-.208-.576-.528l-.672-.64V.56a.8.8,0,0,1-.248.616A.867.867,0,0,1,21.808,1.408ZM25.7-4.608a.651.651,0,0,1-.488-.208.672.672,0,0,1-.2-.48.664.664,0,0,1,.2-.488.664.664,0,0,1,.488-.2H26.7v-.928h-.72a.646.646,0,0,1-.472-.2.646.646,0,0,1-.2-.472.62.62,0,0,1,.2-.464.659.659,0,0,1,.472-.192h.72v-.7a.759.759,0,0,1,.232-.584.8.8,0,0,1,.568-.216.811.811,0,0,1,.56.216.746.746,0,0,1,.24.584v.7H29.44v-.7a.69.69,0,0,1,.048-.272.936.936,0,0,1-.616-.016.673.673,0,0,1-.408-.432q-.064-.24-.184-.576l-.2-.56h-1.1q-.208.32-.4.624t-.368.56a1.122,1.122,0,0,1-.584.416.772.772,0,0,1-.68-.1.7.7,0,0,1-.36-.512.757.757,0,0,1,.152-.608,8.106,8.106,0,0,0,.56-.816q.3-.5.584-1.008a9.651,9.651,0,0,0,.44-.9.768.768,0,0,1,.48-.448.917.917,0,0,1,.672.032.822.822,0,0,1,.424.424.758.758,0,0,1-.008.6,1.572,1.572,0,0,1-.08.168,1.129,1.129,0,0,0-.08.184h4.064a.664.664,0,0,1,.488.2.664.664,0,0,1,.2.488.664.664,0,0,1-.2.488.664.664,0,0,1-.488.2H29.856q.064.16.12.3t.088.232a.689.689,0,0,1,0,.544.3.3,0,0,1,.1-.016h.08a.831.831,0,0,1,.576.216.746.746,0,0,1,.24.584v.7h.864a.651.651,0,0,1,.48.192.632.632,0,0,1,.192.464.659.659,0,0,1-.192.472.638.638,0,0,1-.48.2h-.864v.928h1.088a.664.664,0,0,1,.488.2.664.664,0,0,1,.2.488.672.672,0,0,1-.2.48.651.651,0,0,1-.488.208ZM28.816,1.2a5.654,5.654,0,0,1-1.7-.2,1.376,1.376,0,0,1-.856-.712,3.471,3.471,0,0,1-.248-1.472v-.528A3.52,3.52,0,0,1,26.264-3.2a1.376,1.376,0,0,1,.856-.712,5.654,5.654,0,0,1,1.7-.2h.208a5.654,5.654,0,0,1,1.7.2,1.376,1.376,0,0,1,.856.712,3.52,3.52,0,0,1,.248,1.488v.528A3.471,3.471,0,0,1,31.576.288,1.376,1.376,0,0,1,30.72,1a5.654,5.654,0,0,1-1.7.2ZM27.68-2.048h2.48a.7.7,0,0,0-.288-.592,1.969,1.969,0,0,0-.848-.128h-.208a1.969,1.969,0,0,0-.848.128A.7.7,0,0,0,27.68-2.048Zm1.136,1.9h.208a1.865,1.865,0,0,0,.848-.136.709.709,0,0,0,.288-.584H27.68a.709.709,0,0,0,.288.584A1.865,1.865,0,0,0,28.816-.144ZM28.3-5.984H29.44v-.928H28.3ZM8.144,33.088a1,1,0,0,1-.712-.28.957.957,0,0,1-.3-.728V24.688a24.878,24.878,0,0,1-2.424,2.04,22.77,22.77,0,0,1-2.744,1.736,1.053,1.053,0,0,1-.768.12.937.937,0,0,1-.624-.472.913.913,0,0,1-.1-.744,1.008,1.008,0,0,1,.528-.616,21.562,21.562,0,0,0,2.5-1.568,26.41,26.41,0,0,0,2.336-1.9A23.159,23.159,0,0,0,7.76,21.344H1.68a.844.844,0,0,1-.616-.264A.862.862,0,0,1,.8,20.448a.836.836,0,0,1,.264-.624.857.857,0,0,1,.616-.256H14.256a.876.876,0,0,1,.632.256.836.836,0,0,1,.264.624.9.9,0,0,1-.9.9H10.08q-.224.3-.456.6t-.472.584V32.08a.957.957,0,0,1-.3.728A1,1,0,0,1,8.144,33.088Zm5.5-4.656q-.48-.48-1.176-1.112t-1.416-1.248q-.72-.616-1.28-1.064a.8.8,0,0,1-.3-.592.92.92,0,0,1,.184-.64,1,1,0,0,1,.608-.344.894.894,0,0,1,.7.152q.448.32,1,.752t1.128.9q.576.472,1.1.92t.888.8a.937.937,0,0,1,.328.7.983.983,0,0,1-.312.736,1.022,1.022,0,0,1-.728.312A.992.992,0,0,1,13.648,28.432Zm5.392,4.544a.781.781,0,0,1-.56-.232.742.742,0,0,1-.24-.552.76.76,0,0,1,.24-.568.78.78,0,0,1,.56-.232h3.392a2.966,2.966,0,0,1-.128-.52,2.34,2.34,0,0,1-.024-.576.8.8,0,0,1,.12-.408.615.615,0,0,1,.1-.1,1.125,1.125,0,0,1,.1-.072,2.358,2.358,0,0,1-1.584-.608,2.325,2.325,0,0,1-.432-1.552,2.76,2.76,0,0,1,.256-1.3,1.475,1.475,0,0,1,.88-.68,5.61,5.61,0,0,1,1.712-.208h3.664a5.529,5.529,0,0,1,1.7.208,1.473,1.473,0,0,1,.872.68,2.76,2.76,0,0,1,.256,1.3,2.566,2.566,0,0,1-.336,1.44,1.771,1.771,0,0,1-1.216.656.853.853,0,0,1,.232.424.74.74,0,0,1-.056.488q-.048.128-.152.352t-.216.48h3.376a.78.78,0,0,1,.56.232.76.76,0,0,1,.24.568.742.742,0,0,1-.24.552.78.78,0,0,1-.56.232Zm.016-6.864a1.038,1.038,0,0,1-.712.144.821.821,0,0,1-.552-.384.8.8,0,0,1-.1-.648.837.837,0,0,1,.44-.536q.56-.3,1.128-.672t1.08-.768q-.176-.176-.44-.4t-.5-.424q-.232-.2-.376-.312a.676.676,0,0,1-.256-.52.7.7,0,0,1,.208-.552.8.8,0,0,1,.544-.264.844.844,0,0,1,.592.184q.128.1.4.32t.56.472q.288.248.48.424a9.574,9.574,0,0,0,.992-1.12q.432-.592-.272-.592h-2.56a.749.749,0,0,1-.536-.224.71.71,0,0,1-.232-.528.7.7,0,0,1,.232-.536.763.763,0,0,1,.536-.216h3.136a2.214,2.214,0,0,1,1.376.352,1.122,1.122,0,0,1,.456.9,2.11,2.11,0,0,1-.424,1.192q-.24.352-.5.7t-.568.688h4.208a14.537,14.537,0,0,1-2.016-3.008.714.714,0,0,1-.024-.632.867.867,0,0,1,1.064-.5.818.818,0,0,1,.5.432q.176.32.376.64t.408.64l.5-.424q.272-.232.52-.448t.36-.328a.836.836,0,0,1,.568-.232.727.727,0,0,1,.568.248.87.87,0,0,1,.24.568.659.659,0,0,1-.24.552q-.128.112-.408.352t-.592.5q-.312.256-.552.448.176.176.344.352t.344.352q.192-.16.512-.432t.624-.536q.3-.264.448-.392a.836.836,0,0,1,.568-.232.681.681,0,0,1,.552.248.837.837,0,0,1,.256.568.659.659,0,0,1-.24.552q-.128.112-.392.336l-.56.472q-.3.248-.536.44.416.3.856.576a10.362,10.362,0,0,0,.936.512.868.868,0,0,1,.368,1.184.856.856,0,0,1-.632.464,1.226,1.226,0,0,1-.776-.128,17.5,17.5,0,0,1-1.552-.992,15.97,15.97,0,0,1-1.392-1.12.859.859,0,0,1-.288.464.785.785,0,0,1-.528.192H23.12a.8.8,0,0,1-.56-.224.824.824,0,0,1-.272-.528,15.983,15.983,0,0,1-1.56,1.312A14.714,14.714,0,0,1,19.056,26.112Zm4.192,2.08h4.016a1.073,1.073,0,0,0,.608-.128.626.626,0,0,0,.176-.528q0-.4-.176-.52a1.131,1.131,0,0,0-.608-.12H23.248a1.172,1.172,0,0,0-.624.12q-.176.12-.176.52a.626.626,0,0,0,.176.528A1.111,1.111,0,0,0,23.248,28.192Zm1.04,3.2h1.888q.128-.32.32-.768t.3-.72a.49.49,0,0,0,.048-.088q.016-.04.032-.072H23.36a1.761,1.761,0,0,1,.448.448,2.57,2.57,0,0,1,.336.56,2.494,2.494,0,0,1,.088.3A2.435,2.435,0,0,1,24.288,31.392Zm14.1,2.064a.879.879,0,0,1-.624-.24.836.836,0,0,1-.256-.64V27.392q-.24.464-.48.9t-.464.808a.86.86,0,0,1-.552.432.922.922,0,0,1-.7-.128.779.779,0,0,1-.384-.512.788.788,0,0,1,.144-.656q.416-.608.888-1.456t.888-1.728q.416-.88.656-1.552v-.08H35.872a.772.772,0,0,1-.592-.24.884.884,0,0,1,0-1.176.759.759,0,0,1,.592-.248H37.5v-2.3a.83.83,0,0,1,.256-.648.9.9,0,0,1,.624-.232.867.867,0,0,1,.616.232.844.844,0,0,1,.248.648v2.3h1.1a.733.733,0,0,1,.384.1.848.848,0,0,1,.24-.568.785.785,0,0,1,.592-.232h2.768V19.52a.88.88,0,0,1,.272-.672.923.923,0,0,1,.656-.256.943.943,0,0,1,.672.256.88.88,0,0,1,.272.672v1.536H49.04a.791.791,0,0,1,.608.24.894.894,0,0,1,0,1.184.791.791,0,0,1-.608.24H47.088a.747.747,0,0,1,.464.256q.208.224.56.56t.736.664q.384.328.672.552a.782.782,0,0,1,.328.576.876.876,0,0,1-.184.656.988.988,0,0,1-.616.36.847.847,0,0,1-.68-.2q-.112-.08-.24-.192l-.256-.224a.881.881,0,0,1,.064.7,11.1,11.1,0,0,1-1.456,2.96,9.284,9.284,0,0,0,1.448,1.152,12.456,12.456,0,0,0,1.688.912.918.918,0,0,1,.544.528.981.981,0,0,1-.048.752.836.836,0,0,1-.616.472,1.3,1.3,0,0,1-.808-.12,14.921,14.921,0,0,1-1.768-1.04,11.118,11.118,0,0,1-1.576-1.312,9.882,9.882,0,0,1-1.68,1.344,13.441,13.441,0,0,1-1.984,1.04,1.382,1.382,0,0,1-.816.072.8.8,0,0,1-.592-.5.921.921,0,0,1,0-.752,1,1,0,0,1,.576-.5,9.284,9.284,0,0,0,3.328-2.1,13.916,13.916,0,0,1-.784-1.3,10.211,10.211,0,0,1-.64-1.472.836.836,0,0,1,.48-1.12,1.031,1.031,0,0,1,.7-.008.8.8,0,0,1,.48.536,8.465,8.465,0,0,0,.408,1.008q.232.48.488.912a10.19,10.19,0,0,0,.5-.96,8.025,8.025,0,0,0,.384-1.04.813.813,0,0,1,.464-.568.97.97,0,0,1,.7-.008.878.878,0,0,1,.112.048q-.32-.3-.648-.624t-.584-.624a.761.761,0,0,1-.216-.632.908.908,0,0,1,.312-.6.8.8,0,0,1,.4-.176h-2.8a.678.678,0,0,1,.336.176.824.824,0,0,1,.32.608.887.887,0,0,1-.208.624,13.513,13.513,0,0,1-.976,1.064,11.731,11.731,0,0,1-1.04.92,1.021,1.021,0,0,1-.7.224.829.829,0,0,1-.648-.352.911.911,0,0,1-.2-.64.721.721,0,0,1,.312-.56q.272-.208.616-.52t.7-.656q.352-.344.608-.632a.721.721,0,0,1,.4-.256H41.568a.822.822,0,0,1-.4-.1.866.866,0,0,1-.232.568.759.759,0,0,1-.584.232h-1.1v.864q.272.352.648.808t.744.872q.368.416.592.64a.794.794,0,0,1,.248.6.81.81,0,0,1-.9.792A.814.814,0,0,1,40,27.7q-.16-.176-.352-.432t-.4-.528v5.84a.836.836,0,0,1-.864.88Z" transform="translate(1130 5018)" fill="#60432e"/><path d="M-132.44-12.712a5.369,5.369,0,0,1,2.87.882,6.968,6.968,0,0,1,2.31,2.38,6.19,6.19,0,0,1,.9,3.234,6.315,6.315,0,0,1-.882,3.262,6.535,6.535,0,0,1-2.366,2.366,6.37,6.37,0,0,1-3.276.868A5.785,5.785,0,0,1-136.332-.8a7.045,7.045,0,0,1-2.324-2.828,8.773,8.773,0,0,1-.812-3.738,16.169,16.169,0,0,1,.714-4.494,12.358,12.358,0,0,1,2.6-4.634,10.328,10.328,0,0,1,5.138-3.108,2.655,2.655,0,0,1,.644-.084,1.876,1.876,0,0,1,1.2.378,1.428,1.428,0,0,1,.476,1.19,1.582,1.582,0,0,1-.406,1.078,2.224,2.224,0,0,1-1.078.658,8.594,8.594,0,0,0-3.262,1.792,7.714,7.714,0,0,0-2.2,3.08A4.758,4.758,0,0,1-132.44-12.712Zm-.448,9.912a2.965,2.965,0,0,0,2.24-.98,3.414,3.414,0,0,0,.924-2.436,3.414,3.414,0,0,0-.924-2.436,2.965,2.965,0,0,0-2.24-.98,2.952,2.952,0,0,0-2.254.98,3.443,3.443,0,0,0-.91,2.436,3.443,3.443,0,0,0,.91,2.436A2.952,2.952,0,0,0-132.888-2.8Zm15.96,2.576A3.928,3.928,0,0,1-117.4,1.4a5.967,5.967,0,0,1-1.232,1.708,2.259,2.259,0,0,1-1.568.728,1.627,1.627,0,0,1-.98-.266.986.986,0,0,1-.364-.854.771.771,0,0,1,.224-.63,1.477,1.477,0,0,1,.49-.266,2.878,2.878,0,0,0,.378-.14,1.258,1.258,0,0,0,.784-1.12.693.693,0,0,0-.294-.546,1.186,1.186,0,0,0-.77-.238,1.436,1.436,0,0,0-.784.2,1.289,1.289,0,0,1-.518-.364,1.05,1.05,0,0,1-.182-.672,1.587,1.587,0,0,1,.42-1.05,3.107,3.107,0,0,1,1.036-.784,2.784,2.784,0,0,1,1.2-.294,2.479,2.479,0,0,1,1.932.77A3.155,3.155,0,0,1-116.928-.224Zm16.464-2.856a1.52,1.52,0,0,1,1.12.448,1.52,1.52,0,0,1,.448,1.12,1.44,1.44,0,0,1-.448,1.078,1.546,1.546,0,0,1-1.12.434h-9.52a1.5,1.5,0,0,1-1.148-.448,1.611,1.611,0,0,1-.42-1.148,1.737,1.737,0,0,1,.5-1.232l6.1-6.524a10.828,10.828,0,0,0,1.638-2.254,4.5,4.5,0,0,0,.6-2.086,3.033,3.033,0,0,0-.9-2.184,2.8,2.8,0,0,0-2.072-.924,2.959,2.959,0,0,0-1.638.546,6.061,6.061,0,0,0-1.5,1.442,1.545,1.545,0,0,1-1.288.672,1.643,1.643,0,0,1-1.134-.476,1.421,1.421,0,0,1-.518-1.064,1.571,1.571,0,0,1,.28-.854,6.334,6.334,0,0,1,.84-.994,8.442,8.442,0,0,1,2.464-1.708,6.426,6.426,0,0,1,2.688-.644,6.536,6.536,0,0,1,3.248.784,5.444,5.444,0,0,1,2.156,2.156,6.332,6.332,0,0,1,.756,3.108,7.785,7.785,0,0,1-.91,3.514,14.954,14.954,0,0,1-2.45,3.458l-3.556,3.78Zm12.8-9.632a5.369,5.369,0,0,1,2.87.882,6.968,6.968,0,0,1,2.31,2.38,6.19,6.19,0,0,1,.9,3.234,6.315,6.315,0,0,1-.882,3.262A6.535,6.535,0,0,1-84.84-.588,6.37,6.37,0,0,1-88.116.28,5.785,5.785,0,0,1-91.56-.8a7.045,7.045,0,0,1-2.324-2.828A8.773,8.773,0,0,1-94.7-7.364a16.169,16.169,0,0,1,.714-4.494,12.358,12.358,0,0,1,2.6-4.634A10.328,10.328,0,0,1-86.24-19.6a2.655,2.655,0,0,1,.644-.084,1.876,1.876,0,0,1,1.2.378,1.428,1.428,0,0,1,.476,1.19,1.582,1.582,0,0,1-.406,1.078,2.224,2.224,0,0,1-1.078.658,8.6,8.6,0,0,0-3.262,1.792,7.714,7.714,0,0,0-2.2,3.08A4.758,4.758,0,0,1-87.668-12.712ZM-88.116-2.8a2.965,2.965,0,0,0,2.24-.98,3.414,3.414,0,0,0,.924-2.436,3.414,3.414,0,0,0-.924-2.436,2.965,2.965,0,0,0-2.24-.98,2.952,2.952,0,0,0-2.254.98,3.443,3.443,0,0,0-.91,2.436,3.443,3.443,0,0,0,.91,2.436A2.952,2.952,0,0,0-88.116-2.8Zm22.484-.28a1.52,1.52,0,0,1,1.12.448,1.52,1.52,0,0,1,.448,1.12,1.44,1.44,0,0,1-.448,1.078A1.546,1.546,0,0,1-65.632,0h-9.52A1.5,1.5,0,0,1-76.3-.448,1.611,1.611,0,0,1-76.72-1.6a1.737,1.737,0,0,1,.5-1.232l6.1-6.524a10.828,10.828,0,0,0,1.638-2.254,4.5,4.5,0,0,0,.6-2.086,3.033,3.033,0,0,0-.9-2.184A2.8,2.8,0,0,0-70.84-16.8a2.959,2.959,0,0,0-1.638.546,6.061,6.061,0,0,0-1.5,1.442,1.545,1.545,0,0,1-1.288.672,1.643,1.643,0,0,1-1.134-.476,1.421,1.421,0,0,1-.518-1.064,1.571,1.571,0,0,1,.28-.854,6.334,6.334,0,0,1,.84-.994,8.442,8.442,0,0,1,2.464-1.708,6.426,6.426,0,0,1,2.688-.644A6.536,6.536,0,0,1-67.4-19.1,5.444,5.444,0,0,1-65.24-16.94a6.332,6.332,0,0,1,.756,3.108,7.785,7.785,0,0,1-.91,3.514,14.954,14.954,0,0,1-2.45,3.458L-71.4-3.08ZM-54.908-.224A3.928,3.928,0,0,1-55.384,1.4a5.967,5.967,0,0,1-1.232,1.708,2.259,2.259,0,0,1-1.568.728,1.627,1.627,0,0,1-.98-.266.987.987,0,0,1-.364-.854.771.771,0,0,1,.224-.63,1.477,1.477,0,0,1,.49-.266,2.878,2.878,0,0,0,.378-.14A1.258,1.258,0,0,0-57.652.56a.693.693,0,0,0-.294-.546,1.186,1.186,0,0,0-.77-.238,1.436,1.436,0,0,0-.784.2,1.289,1.289,0,0,1-.518-.364,1.05,1.05,0,0,1-.182-.672,1.587,1.587,0,0,1,.42-1.05A3.108,3.108,0,0,1-58.744-2.9a2.784,2.784,0,0,1,1.2-.294,2.479,2.479,0,0,1,1.932.77A3.155,3.155,0,0,1-54.908-.224ZM-38.444-3.08a1.52,1.52,0,0,1,1.12.448,1.52,1.52,0,0,1,.448,1.12,1.44,1.44,0,0,1-.448,1.078A1.546,1.546,0,0,1-38.444,0h-9.52a1.5,1.5,0,0,1-1.148-.448,1.611,1.611,0,0,1-.42-1.148,1.737,1.737,0,0,1,.5-1.232l6.1-6.524a10.828,10.828,0,0,0,1.638-2.254,4.5,4.5,0,0,0,.6-2.086,3.033,3.033,0,0,0-.9-2.184,2.8,2.8,0,0,0-2.072-.924,2.959,2.959,0,0,0-1.638.546,6.061,6.061,0,0,0-1.5,1.442,1.545,1.545,0,0,1-1.288.672,1.643,1.643,0,0,1-1.134-.476,1.421,1.421,0,0,1-.518-1.064,1.571,1.571,0,0,1,.28-.854,6.334,6.334,0,0,1,.84-.994,8.442,8.442,0,0,1,2.464-1.708,6.426,6.426,0,0,1,2.688-.644,6.536,6.536,0,0,1,3.248.784,5.444,5.444,0,0,1,2.156,2.156,6.332,6.332,0,0,1,.756,3.108,7.785,7.785,0,0,1-.91,3.514,14.954,14.954,0,0,1-2.45,3.458l-3.556,3.78ZM-26.1-13.16a6.635,6.635,0,0,1,3.346.854A6.217,6.217,0,0,1-20.4-9.968a6.5,6.5,0,0,1,.854,3.3,6.135,6.135,0,0,1-1.064,3.472A7.651,7.651,0,0,1-23.436-.658,7.987,7.987,0,0,1-27.244.28,8.1,8.1,0,0,1-29.5-.056a5.336,5.336,0,0,1-1.89-.924,2.117,2.117,0,0,1-.56-.784,2.349,2.349,0,0,1-.224-.952,1.223,1.223,0,0,1,.434-.91A1.593,1.593,0,0,1-30.6-4.032a2.376,2.376,0,0,1,1.26.532,4.082,4.082,0,0,0,2.072.728A4.551,4.551,0,0,0-25.116-3.3a4.341,4.341,0,0,0,1.61-1.428,3.4,3.4,0,0,0,.6-1.932A3.193,3.193,0,0,0-23.94-9.128,3.518,3.518,0,0,0-26.4-10.08a3.624,3.624,0,0,0-1.148.168,10.658,10.658,0,0,0-1.2.5q-.5.252-.8.364a1.678,1.678,0,0,1-.6.112A1.861,1.861,0,0,1-31.71-9.52a2.2,2.2,0,0,1-.462-1.4,1.855,1.855,0,0,1,.028-.392l.868-6.944a1.6,1.6,0,0,1,.574-.966A1.691,1.691,0,0,1-29.6-19.6H-21.5a1.52,1.52,0,0,1,1.12.448,1.52,1.52,0,0,1,.448,1.12,1.44,1.44,0,0,1-.448,1.078,1.546,1.546,0,0,1-1.12.434h-6.944l-.532,4.06a5.065,5.065,0,0,1,1.344-.5A6.57,6.57,0,0,1-26.1-13.16Zm18.9.448a5.369,5.369,0,0,1,2.87.882,6.968,6.968,0,0,1,2.31,2.38,6.19,6.19,0,0,1,.9,3.234A6.315,6.315,0,0,1-2-2.954,6.535,6.535,0,0,1-4.368-.588,6.37,6.37,0,0,1-7.644.28,5.785,5.785,0,0,1-11.088-.8a7.045,7.045,0,0,1-2.324-2.828,8.773,8.773,0,0,1-.812-3.738,16.169,16.169,0,0,1,.714-4.494,12.358,12.358,0,0,1,2.6-4.634A10.328,10.328,0,0,1-5.768-19.6a2.655,2.655,0,0,1,.644-.084,1.876,1.876,0,0,1,1.2.378,1.428,1.428,0,0,1,.476,1.19,1.582,1.582,0,0,1-.406,1.078,2.224,2.224,0,0,1-1.078.658A8.6,8.6,0,0,0-8.19-14.588a7.714,7.714,0,0,0-2.2,3.08A4.758,4.758,0,0,1-7.2-12.712ZM-7.644-2.8A2.965,2.965,0,0,0-5.4-3.78,3.414,3.414,0,0,0-4.48-6.216,3.414,3.414,0,0,0-5.4-8.652a2.965,2.965,0,0,0-2.24-.98,2.952,2.952,0,0,0-2.254.98,3.443,3.443,0,0,0-.91,2.436A3.443,3.443,0,0,0-9.9-3.78,2.952,2.952,0,0,0-7.644-2.8ZM-85.2,25.78a6.075,6.075,0,0,1,2.058,1.946,4.436,4.436,0,0,1,.742,2.422,5.251,5.251,0,0,1-.882,2.94,6.257,6.257,0,0,1-2.38,2.128,6.986,6.986,0,0,1-3.29.784,6.986,6.986,0,0,1-3.29-.784,6.257,6.257,0,0,1-2.38-2.128,5.251,5.251,0,0,1-.882-2.94,5,5,0,0,1,2.716-4.368,4.708,4.708,0,0,1-1.61-1.512,3.965,3.965,0,0,1-.63-2.24A5.2,5.2,0,0,1-94.22,19.2a5.869,5.869,0,0,1,2.2-2.044,6.3,6.3,0,0,1,3.066-.756,6.3,6.3,0,0,1,3.066.756A5.76,5.76,0,0,1-83.706,19.2a5.266,5.266,0,0,1,.8,2.828,3.843,3.843,0,0,1-.658,2.31A4.858,4.858,0,0,1-85.2,25.78Zm-3.752-6.3a2.691,2.691,0,0,0-1.946.742,2.478,2.478,0,0,0-.77,1.862,2.511,2.511,0,0,0,.77,1.89,2.691,2.691,0,0,0,1.946.742,2.629,2.629,0,0,0,1.918-.756,2.523,2.523,0,0,0,.77-1.876,2.478,2.478,0,0,0-.77-1.862A2.655,2.655,0,0,0-88.956,19.48Zm0,13.44a3.28,3.28,0,0,0,2.268-.826,2.589,2.589,0,0,0,.924-2,2.618,2.618,0,0,0-.924-2.03,3.28,3.28,0,0,0-2.268-.826,3.28,3.28,0,0,0-2.268.826,2.618,2.618,0,0,0-.924,2.03,2.589,2.589,0,0,0,.924,2A3.28,3.28,0,0,0-88.956,32.92ZM-72.044,16.4a1.574,1.574,0,0,1,1.176.49,1.679,1.679,0,0,1,.476,1.218V34.292a1.588,1.588,0,0,1-.532,1.218A1.87,1.87,0,0,1-72.24,36a1.771,1.771,0,0,1-1.288-.49,1.63,1.63,0,0,1-.5-1.218V21.02l-1.736,1.064a1.713,1.713,0,0,1-.9.252,1.558,1.558,0,0,1-1.19-.532,1.7,1.7,0,0,1-.49-1.176,1.591,1.591,0,0,1,.238-.84,1.733,1.733,0,0,1,.63-.616l4.228-2.52A2.558,2.558,0,0,1-72.044,16.4Zm12.068,19.376a3.928,3.928,0,0,1-.476,1.624,5.967,5.967,0,0,1-1.232,1.708,2.259,2.259,0,0,1-1.568.728,1.627,1.627,0,0,1-.98-.266.986.986,0,0,1-.364-.854.771.771,0,0,1,.224-.63,1.477,1.477,0,0,1,.49-.266,2.878,2.878,0,0,0,.378-.14,1.258,1.258,0,0,0,.784-1.12.693.693,0,0,0-.294-.546,1.186,1.186,0,0,0-.77-.238,1.436,1.436,0,0,0-.784.2,1.289,1.289,0,0,1-.518-.364,1.05,1.05,0,0,1-.182-.672,1.587,1.587,0,0,1,.42-1.05,3.108,3.108,0,0,1,1.036-.784,2.784,2.784,0,0,1,1.2-.294,2.479,2.479,0,0,1,1.932.77A3.155,3.155,0,0,1-59.976,35.776ZM-40.1,27.6a1.52,1.52,0,0,1,1.12.448,1.52,1.52,0,0,1,.448,1.12,1.44,1.44,0,0,1-.448,1.078,1.546,1.546,0,0,1-1.12.434h-1.176v3.612a1.654,1.654,0,0,1-.49,1.218A1.654,1.654,0,0,1-42.98,36a1.574,1.574,0,0,1-1.176-.49,1.679,1.679,0,0,1-.476-1.218V30.68h-7.28a1.668,1.668,0,0,1-1.148-.49,1.529,1.529,0,0,1-.532-1.162,1.707,1.707,0,0,1,.42-1.12l8.848-10.836a1.7,1.7,0,0,1,1.4-.672,1.574,1.574,0,0,1,1.176.49,1.679,1.679,0,0,1,.476,1.218V27.6Zm-9.072,0h4.536V22ZM-26.4,16.036a5.785,5.785,0,0,1,3.444,1.078,7.045,7.045,0,0,1,2.324,2.828,8.773,8.773,0,0,1,.812,3.738,16.169,16.169,0,0,1-.714,4.494,12.358,12.358,0,0,1-2.6,4.634,10.328,10.328,0,0,1-5.138,3.108,2.655,2.655,0,0,1-.644.084,1.876,1.876,0,0,1-1.2-.378,1.428,1.428,0,0,1-.476-1.19,1.582,1.582,0,0,1,.406-1.078A2.224,2.224,0,0,1-29.12,32.7,8.6,8.6,0,0,0-25.858,30.9a7.714,7.714,0,0,0,2.2-3.08,4.758,4.758,0,0,1-3.192,1.2,5.369,5.369,0,0,1-2.87-.882,6.968,6.968,0,0,1-2.31-2.38,6.19,6.19,0,0,1-.9-3.234,6.315,6.315,0,0,1,.882-3.262A6.535,6.535,0,0,1-29.68,16.9,6.37,6.37,0,0,1-26.4,16.036Zm0,9.912a2.952,2.952,0,0,0,2.254-.98,3.443,3.443,0,0,0,.91-2.436,3.443,3.443,0,0,0-.91-2.436,2.952,2.952,0,0,0-2.254-.98,2.965,2.965,0,0,0-2.24.98,3.414,3.414,0,0,0-.924,2.436,3.414,3.414,0,0,0,.924,2.436A2.965,2.965,0,0,0-26.4,25.948ZM-4.48,25.78a6.075,6.075,0,0,1,2.058,1.946,4.436,4.436,0,0,1,.742,2.422,5.251,5.251,0,0,1-.882,2.94,6.257,6.257,0,0,1-2.38,2.128A6.986,6.986,0,0,1-8.232,36a6.986,6.986,0,0,1-3.29-.784,6.257,6.257,0,0,1-2.38-2.128,5.251,5.251,0,0,1-.882-2.94,5,5,0,0,1,2.716-4.368,4.708,4.708,0,0,1-1.61-1.512,3.965,3.965,0,0,1-.63-2.24A5.2,5.2,0,0,1-13.5,19.2a5.869,5.869,0,0,1,2.2-2.044A6.3,6.3,0,0,1-8.232,16.4a6.3,6.3,0,0,1,3.066.756A5.76,5.76,0,0,1-2.982,19.2a5.266,5.266,0,0,1,.8,2.828,3.843,3.843,0,0,1-.658,2.31A4.858,4.858,0,0,1-4.48,25.78Zm-3.752-6.3a2.691,2.691,0,0,0-1.946.742,2.478,2.478,0,0,0-.77,1.862,2.511,2.511,0,0,0,.77,1.89,2.691,2.691,0,0,0,1.946.742,2.629,2.629,0,0,0,1.918-.756,2.523,2.523,0,0,0,.77-1.876,2.478,2.478,0,0,0-.77-1.862A2.655,2.655,0,0,0-8.232,19.48Zm0,13.44a3.28,3.28,0,0,0,2.268-.826,2.589,2.589,0,0,0,.924-2,2.618,2.618,0,0,0-.924-2.03,3.28,3.28,0,0,0-2.268-.826,3.28,3.28,0,0,0-2.268.826,2.618,2.618,0,0,0-.924,2.03,2.589,2.589,0,0,0,.924,2A3.28,3.28,0,0,0-8.232,32.92Z" transform="translate(1342 5015)" fill="#ed8934"/><path d="M2.24.728a1.258,1.258,0,0,1-.707.154A.789.789,0,0,1,.924.5.786.786,0,0,1,.805-.161.824.824,0,0,1,1.232-.7,11.678,11.678,0,0,0,3.773-2.576,8.076,8.076,0,0,0,5.488-5,7.019,7.019,0,0,0,6.1-7.952V-10.71a.81.81,0,0,1,.259-.637.885.885,0,0,1,.609-.231.878.878,0,0,1,.616.231.821.821,0,0,1,.252.637v2.282A7.424,7.424,0,0,0,8.232-6,8,8,0,0,0,9.324-3.892a10,10,0,0,0,1.61,1.743,10.4,10.4,0,0,0,1.96,1.323.836.836,0,0,1,.413.553.88.88,0,0,1-.1.693.9.9,0,0,1-.609.4,1.03,1.03,0,0,1-.749-.133A11.609,11.609,0,0,1,9-1.666,10.6,10.6,0,0,1,7.07-4.83a9.223,9.223,0,0,1-1.1,2.156A10.843,10.843,0,0,1,4.312-.77,11.257,11.257,0,0,1,2.24.728Zm0,36a1.258,1.258,0,0,1-.707.154A.789.789,0,0,1,.924,36.5a.786.786,0,0,1-.119-.665.824.824,0,0,1,.427-.539,11.678,11.678,0,0,0,2.541-1.876A8.076,8.076,0,0,0,5.488,31,7.019,7.019,0,0,0,6.1,28.048V25.29a.81.81,0,0,1,.259-.637.928.928,0,0,1,1.225,0,.821.821,0,0,1,.252.637v2.282A7.424,7.424,0,0,0,8.232,30a8,8,0,0,0,1.092,2.107,10,10,0,0,0,1.61,1.743,10.4,10.4,0,0,0,1.96,1.323.836.836,0,0,1,.413.553.88.88,0,0,1-.1.693.9.9,0,0,1-.609.4,1.03,1.03,0,0,1-.749-.133A11.609,11.609,0,0,1,9,34.334,10.6,10.6,0,0,1,7.07,31.17a9.223,9.223,0,0,1-1.1,2.156,10.843,10.843,0,0,1-1.659,1.9A11.257,11.257,0,0,1,2.24,36.728Z" transform="translate(1345 5015)" fill="#60432e"/><path d="M-70.59-54.6a4.386,4.386,0,0,1,3.276,1.365,4.678,4.678,0,0,1,1.326,3.393V-4.758A4.425,4.425,0,0,1-67.47-1.365,5.208,5.208,0,0,1-71.136,0a4.934,4.934,0,0,1-3.588-1.365,4.541,4.541,0,0,1-1.4-3.393V-41.73l-4.836,2.964a4.771,4.771,0,0,1-2.5.7,4.341,4.341,0,0,1-3.315-1.482,4.731,4.731,0,0,1-1.365-3.276,4.432,4.432,0,0,1,.663-2.34,4.827,4.827,0,0,1,1.755-1.716l11.778-7.02A7.126,7.126,0,0,1-70.59-54.6ZM-50.934-.078A4.7,4.7,0,0,1-54.4-1.287a4.7,4.7,0,0,1-1.209-3.471V-6.084A4.7,4.7,0,0,1-54.4-9.555a4.7,4.7,0,0,1,3.471-1.209h1.014a4.7,4.7,0,0,1,3.471,1.209A4.7,4.7,0,0,1-45.24-6.084v1.326a4.7,4.7,0,0,1-1.209,3.471A4.7,4.7,0,0,1-49.92-.078Zm33.306-34.554a13.758,13.758,0,0,1,7.6,2.5,15.457,15.457,0,0,1,5.109,6.123A18.6,18.6,0,0,1-3.12-17.94,18.824,18.824,0,0,1-5.694-7.995a16.819,16.819,0,0,1-7.254,6.513A24.825,24.825,0,0,1-23.868.78a23.078,23.078,0,0,1-5.616-.7A20.16,20.16,0,0,1-34.4-1.794q-2.886-1.56-2.886-4.212a5.182,5.182,0,0,1,1.326-3.432A4.059,4.059,0,0,1-32.76-11a6.225,6.225,0,0,1,3.354,1.17A11.89,11.89,0,0,0-22-7.254a9.365,9.365,0,0,0,4.6-1.209,9.378,9.378,0,0,0,3.549-3.51,10.121,10.121,0,0,0,1.365-5.265,8.472,8.472,0,0,0-2.535-6.552,8.706,8.706,0,0,0-6.123-2.34,10.657,10.657,0,0,0-2.73.312q-1.17.312-1.4.39a11.892,11.892,0,0,1-3.354.624,3.379,3.379,0,0,1-2.73-1.209,4.514,4.514,0,0,1-1.014-3,4.663,4.663,0,0,1,.39-1.95,7.381,7.381,0,0,1,1.326-1.872l12.09-13.182H-34.008a4.233,4.233,0,0,1-3.12-1.248,4.233,4.233,0,0,1-1.248-3.12,4.012,4.012,0,0,1,1.248-3,4.305,4.305,0,0,1,3.12-1.209H-10.14a4.77,4.77,0,0,1,3.588,1.287A4.667,4.667,0,0,1-5.3-49.92a5.393,5.393,0,0,1-1.872,3.744Z" transform="translate(1072 5051)" fill="#ed8934"/><path d="M2.56.048l.816.64,10.08-12.9-.832-.64Zm9.216.48a2.945,2.945,0,0,0,2.16-.816,3.777,3.777,0,0,0,.928-2.768,3.761,3.761,0,0,0-.928-2.752,2.984,2.984,0,0,0-2.16-.816A3.05,3.05,0,0,0,9.6-5.808a3.787,3.787,0,0,0-.928,2.752A3.777,3.777,0,0,0,9.6-.288,2.958,2.958,0,0,0,11.776.528Zm0-5.792a1.152,1.152,0,0,1,1.024.5,2.825,2.825,0,0,1,.432,1.6c0,1.552-.5,2.352-1.456,2.352-.944,0-1.456-.8-1.456-2.272a2.782,2.782,0,0,1,.432-1.664A1.114,1.114,0,0,1,11.776-5.264ZM4.24-5.536A2.945,2.945,0,0,0,6.4-6.352,3.777,3.777,0,0,0,7.328-9.12,3.761,3.761,0,0,0,6.4-11.872a2.984,2.984,0,0,0-2.16-.816c-1.952,0-3.1,1.328-3.1,3.568a3.8,3.8,0,0,0,.928,2.768A2.958,2.958,0,0,0,4.24-5.536Zm0-5.792a1.231,1.231,0,0,1,1.168.72A3.513,3.513,0,0,1,5.7-9.12c0,1.44-.528,2.24-1.456,2.24-.944,0-1.456-.8-1.456-2.272C2.784-10.544,3.312-11.328,4.24-11.328Z" transform="translate(1074 5049)" fill="#60432e"/><path d="M5.5,3A2.5,2.5,0,1,0,8,5.5,2.5,2.5,0,0,0,5.5,3m0-3A5.5,5.5,0,1,1,0,5.5,5.5,5.5,0,0,1,5.5,0Z" transform="translate(888 4999)" fill="#ffd86e"/></g><g transform="translate(201 111)"><path d="M8,1.232A1.072,1.072,0,0,1,7.28,1,.825.825,0,0,1,7.008.336V-3.92H4.8a6.506,6.506,0,0,1-2.08-.272,1.917,1.917,0,0,1-1.136-.976,4.48,4.48,0,0,1-.352-1.968,4.429,4.429,0,0,1,.36-1.992,1.923,1.923,0,0,1,1.144-.96A6.626,6.626,0,0,1,4.8-10.352H7.008v-2.176a.8.8,0,0,1,.272-.656A1.1,1.1,0,0,1,8-13.408a1.058,1.058,0,0,1,.72.224.825.825,0,0,1,.256.656v2.176h2.24a6.626,6.626,0,0,1,2.064.264,1.923,1.923,0,0,1,1.144.96,4.429,4.429,0,0,1,.36,1.992,4.31,4.31,0,0,1-.368,1.968,1.979,1.979,0,0,1-1.152.976,6.382,6.382,0,0,1-2.048.272H8.976V.336A.85.85,0,0,1,8.72,1,1.034,1.034,0,0,1,8,1.232ZM8.976-5.68h2.24a3.43,3.43,0,0,0,.952-.1.776.776,0,0,0,.5-.416,2.223,2.223,0,0,0,.152-.936,2.5,2.5,0,0,0-.136-.96.705.705,0,0,0-.488-.4,3.882,3.882,0,0,0-.976-.1H8.976ZM4.8-5.68H7.008V-8.592H4.8a3.8,3.8,0,0,0-.96.1.73.73,0,0,0-.5.4,2.378,2.378,0,0,0-.144.96,2.458,2.458,0,0,0,.136.936.724.724,0,0,0,.48.416A3.582,3.582,0,0,0,4.8-5.68ZM23.568,1.44a1.061,1.061,0,0,1-.752-.24.945.945,0,0,1-.288-.64A.813.813,0,0,1,22.784-.1a1.066,1.066,0,0,1,.72-.272,3.075,3.075,0,0,0,.976-.176.872.872,0,0,0,.5-.5A2.891,2.891,0,0,0,25.12-2.08a3.044,3.044,0,0,0-.048-.56H18.848a.766.766,0,0,1-.6-.24.831.831,0,0,1-.216-.576.85.85,0,0,1,.208-.576.668.668,0,0,1,.528-.24h5.568q-.048-.048-.088-.1T24.16-4.48a.687.687,0,0,1-.168-.592.859.859,0,0,1,.312-.544.88.88,0,0,1,.64-.2.981.981,0,0,1,.592.216q.032.032.08.072t.08.072l.448-.256L26.48-5.9q.272-.176.224-.352t-.368-.176H21.712a.728.728,0,0,1-.568-.24.811.811,0,0,1-.216-.56.811.811,0,0,1,.216-.56.728.728,0,0,1,.568-.24h5.712a1.975,1.975,0,0,1,1.128.288,1.315,1.315,0,0,1,.552.72,1.283,1.283,0,0,1-.088.912,2.11,2.11,0,0,1-.792.864q-.416.272-.8.512t-.784.464h4.992a.854.854,0,0,1,.656.24.814.814,0,0,1,.224.576.831.831,0,0,1-.216.576.766.766,0,0,1-.6.24h-4.72a4.531,4.531,0,0,1,.048.64A3.555,3.555,0,0,1,26.2.664,3.75,3.75,0,0,1,23.568,1.44Zm-4.3-7.872a.919.919,0,0,1-.64-.248.836.836,0,0,1-.272-.648v-.736a2.325,2.325,0,0,1,.576-1.768,2.948,2.948,0,0,1,1.984-.552l-.088-.12a.893.893,0,0,1-.072-.12q-.064-.144-.224-.424l-.32-.56q-.16-.28-.24-.408a.736.736,0,0,1-.08-.616.778.778,0,0,1,.4-.488.925.925,0,0,1,.672-.1.883.883,0,0,1,.56.4q.176.256.448.688t.416.72a.9.9,0,0,1,.12.528.73.73,0,0,1-.248.48h2.352a1.458,1.458,0,0,1-.12-.136A.559.559,0,0,1,24.4-10.7q-.064-.144-.232-.472t-.328-.656q-.16-.328-.24-.456a.775.775,0,0,1-.056-.624.807.807,0,0,1,.408-.48.87.87,0,0,1,.672-.08.949.949,0,0,1,.56.416q.112.176.28.488l.336.624q.168.312.264.5a.975.975,0,0,1,.088.56.708.708,0,0,1-.3.48H27.12q.192-.336.472-.832t.552-.984q.272-.488.4-.76a.812.812,0,0,1,.592-.48,1.09,1.09,0,0,1,.72.08.909.909,0,0,1,.472.512.81.81,0,0,1-.072.72q-.176.32-.472.808l-.568.936H29.5a3.184,3.184,0,0,1,2.1.544,2.284,2.284,0,0,1,.616,1.792v.736a.836.836,0,0,1-.272.648.919.919,0,0,1-.64.248,1,1,0,0,1-.656-.224.782.782,0,0,1-.272-.64v-.736a.777.777,0,0,0-.224-.632,1.33,1.33,0,0,0-.816-.184H21.232a1.33,1.33,0,0,0-.816.184.777.777,0,0,0-.224.632V-7.3a.782.782,0,0,1-.272.64A1,1,0,0,1,19.264-6.432Zm19.12,7.888a.879.879,0,0,1-.624-.24A.836.836,0,0,1,37.5.576V-4.608q-.24.464-.48.9T36.56-2.9a.86.86,0,0,1-.552.432.922.922,0,0,1-.7-.128.779.779,0,0,1-.384-.512.788.788,0,0,1,.144-.656q.416-.608.888-1.456t.888-1.728q.416-.88.656-1.552v-.08H35.872a.772.772,0,0,1-.592-.24.835.835,0,0,1-.224-.592.843.843,0,0,1,.224-.584.759.759,0,0,1,.592-.248H37.5v-2.3a.83.83,0,0,1,.256-.648.9.9,0,0,1,.624-.232.867.867,0,0,1,.616.232.844.844,0,0,1,.248.648v2.3h1.1a.733.733,0,0,1,.384.1.848.848,0,0,1,.24-.568.785.785,0,0,1,.592-.232h2.768V-12.48a.88.88,0,0,1,.272-.672.923.923,0,0,1,.656-.256.943.943,0,0,1,.672.256.88.88,0,0,1,.272.672v1.536H49.04a.791.791,0,0,1,.608.24.835.835,0,0,1,.224.592.835.835,0,0,1-.224.592.791.791,0,0,1-.608.24H47.088a.747.747,0,0,1,.464.256q.208.224.56.56t.736.664q.384.328.672.552a.782.782,0,0,1,.328.576.876.876,0,0,1-.184.656.988.988,0,0,1-.616.36.847.847,0,0,1-.68-.2q-.112-.08-.24-.192l-.256-.224a.881.881,0,0,1,.064.7,11.1,11.1,0,0,1-1.456,2.96,9.284,9.284,0,0,0,1.448,1.152,12.456,12.456,0,0,0,1.688.912.918.918,0,0,1,.544.528.981.981,0,0,1-.048.752.836.836,0,0,1-.616.472,1.3,1.3,0,0,1-.808-.12A14.921,14.921,0,0,1,46.92.048a11.118,11.118,0,0,1-1.576-1.312A9.882,9.882,0,0,1,43.664.08,13.441,13.441,0,0,1,41.68,1.12a1.382,1.382,0,0,1-.816.072.8.8,0,0,1-.592-.5.921.921,0,0,1,0-.752,1,1,0,0,1,.576-.5,9.284,9.284,0,0,0,3.328-2.1,13.916,13.916,0,0,1-.784-1.3,10.211,10.211,0,0,1-.64-1.472.845.845,0,0,1,.016-.7.842.842,0,0,1,.464-.416,1.031,1.031,0,0,1,.7-.008.8.8,0,0,1,.48.536,8.465,8.465,0,0,0,.408,1.008q.232.48.488.912a10.19,10.19,0,0,0,.5-.96,8.024,8.024,0,0,0,.384-1.04.813.813,0,0,1,.464-.568.97.97,0,0,1,.7-.008.878.878,0,0,1,.112.048q-.32-.3-.648-.624t-.584-.624a.761.761,0,0,1-.216-.632.908.908,0,0,1,.312-.6.8.8,0,0,1,.4-.176h-2.8a.678.678,0,0,1,.336.176.824.824,0,0,1,.32.608.887.887,0,0,1-.208.624,13.513,13.513,0,0,1-.976,1.064,11.731,11.731,0,0,1-1.04.92,1.021,1.021,0,0,1-.7.224.829.829,0,0,1-.648-.352.911.911,0,0,1-.2-.64.721.721,0,0,1,.312-.56q.272-.208.616-.52t.7-.656q.352-.344.608-.632a.721.721,0,0,1,.4-.256H41.568a.822.822,0,0,1-.4-.1.866.866,0,0,1-.232.568.759.759,0,0,1-.584.232h-1.1v.864q.272.352.648.808t.744.872q.368.416.592.64a.794.794,0,0,1,.248.6.827.827,0,0,1-.28.6A.828.828,0,0,1,40.576-4,.814.814,0,0,1,40-4.3q-.16-.176-.352-.432t-.4-.528V.576a.85.85,0,0,1-.248.64A.851.851,0,0,1,38.384,1.456Z" transform="translate(904 5010)" fill="#ed8934"/><path d="M4,1.44a.983.983,0,0,1-.688-.264A.919.919,0,0,1,3.024.464V-4.272q-.24.224-.488.448t-.52.432a1,1,0,0,1-.7.216A.947.947,0,0,1,.64-3.5a.794.794,0,0,1-.2-.672A.965.965,0,0,1,.784-4.8,17.715,17.715,0,0,0,3.04-7.008,17.416,17.416,0,0,0,4.8-9.488H1.6A.817.817,0,0,1,1-9.736a.817.817,0,0,1-.248-.6A.791.791,0,0,1,1-10.928a.831.831,0,0,1,.6-.24H5.648q.208-.464.376-.928t.328-.96a.866.866,0,0,1,.5-.56,1.04,1.04,0,0,1,.76-.032.912.912,0,0,1,.552.472.9.9,0,0,1,.024.7q-.112.336-.24.664t-.256.648h6.736a.8.8,0,0,1,.592.24.8.8,0,0,1,.24.592.831.831,0,0,1-.24.6.791.791,0,0,1-.592.248H6.9Q6.48-8.7,6-7.936T4.976-6.464V.464a.932.932,0,0,1-.28.712A.975.975,0,0,1,4,1.44ZM6.192.56a.817.817,0,0,1-.6-.248.817.817,0,0,1-.248-.6A.791.791,0,0,1,5.592-.88a.831.831,0,0,1,.6-.24H9.2v-3.5H6.688a.8.8,0,0,1-.592-.24.786.786,0,0,1-.24-.576.8.8,0,0,1,.24-.592.8.8,0,0,1,.592-.24H9.2V-8.1a.919.919,0,0,1,.288-.712.983.983,0,0,1,.688-.264.975.975,0,0,1,.7.264.932.932,0,0,1,.28.712v1.824h2.7a.786.786,0,0,1,.576.24.8.8,0,0,1,.24.592.786.786,0,0,1-.24.576.786.786,0,0,1-.576.24h-2.7v3.5h3.2a.8.8,0,0,1,.592.24.8.8,0,0,1,.24.592.831.831,0,0,1-.24.6.791.791,0,0,1-.592.248Zm15.616.848a.847.847,0,0,1-.6-.232A.8.8,0,0,1,20.96.56V-1.568q-.384.48-.8.936t-.736.776a1.012,1.012,0,0,1-.648.28.807.807,0,0,1-.648-.248A.677.677,0,0,1,17.9-.408a.807.807,0,0,1,.3-.568q.352-.288.784-.712t.848-.888q.416-.464.7-.832H18.592a.664.664,0,0,1-.488-.2.646.646,0,0,1-.2-.472.664.664,0,0,1,.2-.488.664.664,0,0,1,.488-.2H20.96v-.64H19.248a.569.569,0,0,1-.416-.176A.569.569,0,0,1,18.656-6a.569.569,0,0,1,.176-.416.569.569,0,0,1,.416-.176H20.96v-.64H18.816a.664.664,0,0,1-.488-.2.646.646,0,0,1-.2-.472.664.664,0,0,1,.2-.488.664.664,0,0,1,.488-.2H20.96v-.384a.8.8,0,0,1,.248-.616.847.847,0,0,1,.6-.232.111.111,0,0,1,.048.008.071.071,0,0,0,.032.008q-.08-.24-.176-.52t-.176-.472H20.448q-.208.352-.424.664t-.408.568a1.123,1.123,0,0,1-.576.416.787.787,0,0,1-.672-.08A.776.776,0,0,1,18-9.76a.734.734,0,0,1,.144-.608,10.169,10.169,0,0,0,.6-.84q.328-.5.624-1.024t.472-.9a.821.821,0,0,1,.5-.448.873.873,0,0,1,.656.032.817.817,0,0,1,.44.424.682.682,0,0,1-.024.584q-.032.08-.08.176l-.1.192h3.344a.664.664,0,0,1,.488.2.664.664,0,0,1,.2.488.664.664,0,0,1-.2.488.664.664,0,0,1-.488.2H23.328q.064.16.12.3l.088.224a.727.727,0,0,1-.032.632.844.844,0,0,1-.48.408,1.116,1.116,0,0,1-.384.064.632.632,0,0,1,.024.1.583.583,0,0,1,.008.1v.384h1.856a.646.646,0,0,1,.472.2.664.664,0,0,1,.2.488.646.646,0,0,1-.2.472.646.646,0,0,1-.472.2H22.672v.64h1.264a.569.569,0,0,1,.416.176A.569.569,0,0,1,24.528-6a.569.569,0,0,1-.176.416.569.569,0,0,1-.416.176H22.672v.64h1.92a.664.664,0,0,1,.488.2.664.664,0,0,1,.2.488.646.646,0,0,1-.2.472.664.664,0,0,1-.488.2H22.8q.224.208.648.568t.864.7q.44.344.712.552a.7.7,0,0,1,.3.528.756.756,0,0,1-.192.592.821.821,0,0,1-.584.3.84.84,0,0,1-.632-.192q-.24-.208-.576-.528l-.672-.64V.56a.8.8,0,0,1-.248.616A.867.867,0,0,1,21.808,1.408ZM25.7-4.608a.651.651,0,0,1-.488-.208.672.672,0,0,1-.2-.48.664.664,0,0,1,.2-.488.664.664,0,0,1,.488-.2H26.7v-.928h-.72a.646.646,0,0,1-.472-.2.646.646,0,0,1-.2-.472.62.62,0,0,1,.2-.464.659.659,0,0,1,.472-.192h.72v-.7a.759.759,0,0,1,.232-.584.8.8,0,0,1,.568-.216.811.811,0,0,1,.56.216.746.746,0,0,1,.24.584v.7H29.44v-.7a.69.69,0,0,1,.048-.272.936.936,0,0,1-.616-.016.673.673,0,0,1-.408-.432q-.064-.24-.184-.576l-.2-.56h-1.1q-.208.32-.4.624t-.368.56a1.122,1.122,0,0,1-.584.416.772.772,0,0,1-.68-.1.7.7,0,0,1-.36-.512.757.757,0,0,1,.152-.608,8.106,8.106,0,0,0,.56-.816q.3-.5.584-1.008a9.651,9.651,0,0,0,.44-.9.768.768,0,0,1,.48-.448.917.917,0,0,1,.672.032.822.822,0,0,1,.424.424.758.758,0,0,1-.008.6,1.572,1.572,0,0,1-.08.168,1.129,1.129,0,0,0-.08.184h4.064a.664.664,0,0,1,.488.2.664.664,0,0,1,.2.488.664.664,0,0,1-.2.488.664.664,0,0,1-.488.2H29.856q.064.16.12.3t.088.232a.689.689,0,0,1,0,.544.3.3,0,0,1,.1-.016h.08a.831.831,0,0,1,.576.216.746.746,0,0,1,.24.584v.7h.864a.651.651,0,0,1,.48.192.632.632,0,0,1,.192.464.659.659,0,0,1-.192.472.638.638,0,0,1-.48.2h-.864v.928h1.088a.664.664,0,0,1,.488.2.664.664,0,0,1,.2.488.672.672,0,0,1-.2.48.651.651,0,0,1-.488.208ZM28.816,1.2a5.654,5.654,0,0,1-1.7-.2,1.376,1.376,0,0,1-.856-.712,3.471,3.471,0,0,1-.248-1.472v-.528A3.52,3.52,0,0,1,26.264-3.2a1.376,1.376,0,0,1,.856-.712,5.654,5.654,0,0,1,1.7-.2h.208a5.654,5.654,0,0,1,1.7.2,1.376,1.376,0,0,1,.856.712,3.52,3.52,0,0,1,.248,1.488v.528A3.471,3.471,0,0,1,31.576.288,1.376,1.376,0,0,1,30.72,1a5.654,5.654,0,0,1-1.7.2ZM27.68-2.048h2.48a.7.7,0,0,0-.288-.592,1.969,1.969,0,0,0-.848-.128h-.208a1.969,1.969,0,0,0-.848.128A.7.7,0,0,0,27.68-2.048Zm1.136,1.9h.208a1.865,1.865,0,0,0,.848-.136.709.709,0,0,0,.288-.584H27.68a.709.709,0,0,0,.288.584A1.865,1.865,0,0,0,28.816-.144ZM28.3-5.984H29.44v-.928H28.3ZM8.144,33.088a1,1,0,0,1-.712-.28.957.957,0,0,1-.3-.728V24.688a24.878,24.878,0,0,1-2.424,2.04,22.77,22.77,0,0,1-2.744,1.736,1.053,1.053,0,0,1-.768.12.937.937,0,0,1-.624-.472.913.913,0,0,1-.1-.744,1.008,1.008,0,0,1,.528-.616,21.562,21.562,0,0,0,2.5-1.568,26.41,26.41,0,0,0,2.336-1.9A23.159,23.159,0,0,0,7.76,21.344H1.68a.844.844,0,0,1-.616-.264A.862.862,0,0,1,.8,20.448a.836.836,0,0,1,.264-.624.857.857,0,0,1,.616-.256H14.256a.876.876,0,0,1,.632.256.836.836,0,0,1,.264.624.9.9,0,0,1-.9.9H10.08q-.224.3-.456.6t-.472.584V32.08a.957.957,0,0,1-.3.728A1,1,0,0,1,8.144,33.088Zm5.5-4.656q-.48-.48-1.176-1.112t-1.416-1.248q-.72-.616-1.28-1.064a.8.8,0,0,1-.3-.592.92.92,0,0,1,.184-.64,1,1,0,0,1,.608-.344.894.894,0,0,1,.7.152q.448.32,1,.752t1.128.9q.576.472,1.1.92t.888.8a.937.937,0,0,1,.328.7.983.983,0,0,1-.312.736,1.022,1.022,0,0,1-.728.312A.992.992,0,0,1,13.648,28.432Zm5.392,4.544a.781.781,0,0,1-.56-.232.742.742,0,0,1-.24-.552.76.76,0,0,1,.24-.568.78.78,0,0,1,.56-.232h3.392a2.966,2.966,0,0,1-.128-.52,2.34,2.34,0,0,1-.024-.576.8.8,0,0,1,.12-.408.615.615,0,0,1,.1-.1,1.125,1.125,0,0,1,.1-.072,2.358,2.358,0,0,1-1.584-.608,2.325,2.325,0,0,1-.432-1.552,2.76,2.76,0,0,1,.256-1.3,1.475,1.475,0,0,1,.88-.68,5.61,5.61,0,0,1,1.712-.208h3.664a5.529,5.529,0,0,1,1.7.208,1.473,1.473,0,0,1,.872.68,2.76,2.76,0,0,1,.256,1.3,2.566,2.566,0,0,1-.336,1.44,1.771,1.771,0,0,1-1.216.656.853.853,0,0,1,.232.424.74.74,0,0,1-.056.488q-.048.128-.152.352t-.216.48h3.376a.78.78,0,0,1,.56.232.76.76,0,0,1,.24.568.742.742,0,0,1-.24.552.78.78,0,0,1-.56.232Zm.016-6.864a1.038,1.038,0,0,1-.712.144.821.821,0,0,1-.552-.384.8.8,0,0,1-.1-.648.837.837,0,0,1,.44-.536q.56-.3,1.128-.672t1.08-.768q-.176-.176-.44-.4t-.5-.424q-.232-.2-.376-.312a.676.676,0,0,1-.256-.52.7.7,0,0,1,.208-.552.8.8,0,0,1,.544-.264.844.844,0,0,1,.592.184q.128.1.4.32t.56.472q.288.248.48.424a9.574,9.574,0,0,0,.992-1.12q.432-.592-.272-.592h-2.56a.749.749,0,0,1-.536-.224.71.71,0,0,1-.232-.528.7.7,0,0,1,.232-.536.763.763,0,0,1,.536-.216h3.136a2.214,2.214,0,0,1,1.376.352,1.122,1.122,0,0,1,.456.9,2.11,2.11,0,0,1-.424,1.192q-.24.352-.5.7t-.568.688h4.208a14.537,14.537,0,0,1-2.016-3.008.714.714,0,0,1-.024-.632.867.867,0,0,1,1.064-.5.818.818,0,0,1,.5.432q.176.32.376.64t.408.64l.5-.424q.272-.232.52-.448t.36-.328a.836.836,0,0,1,.568-.232.727.727,0,0,1,.568.248.87.87,0,0,1,.24.568.659.659,0,0,1-.24.552q-.128.112-.408.352t-.592.5q-.312.256-.552.448.176.176.344.352t.344.352q.192-.16.512-.432t.624-.536q.3-.264.448-.392a.836.836,0,0,1,.568-.232.681.681,0,0,1,.552.248.837.837,0,0,1,.256.568.659.659,0,0,1-.24.552q-.128.112-.392.336l-.56.472q-.3.248-.536.44.416.3.856.576a10.362,10.362,0,0,0,.936.512.868.868,0,0,1,.368,1.184.856.856,0,0,1-.632.464,1.226,1.226,0,0,1-.776-.128,17.5,17.5,0,0,1-1.552-.992,15.97,15.97,0,0,1-1.392-1.12.859.859,0,0,1-.288.464.785.785,0,0,1-.528.192H23.12a.8.8,0,0,1-.56-.224.824.824,0,0,1-.272-.528,15.983,15.983,0,0,1-1.56,1.312A14.714,14.714,0,0,1,19.056,26.112Zm4.192,2.08h4.016a1.073,1.073,0,0,0,.608-.128.626.626,0,0,0,.176-.528q0-.4-.176-.52a1.131,1.131,0,0,0-.608-.12H23.248a1.172,1.172,0,0,0-.624.12q-.176.12-.176.52a.626.626,0,0,0,.176.528A1.111,1.111,0,0,0,23.248,28.192Zm1.04,3.2h1.888q.128-.32.32-.768t.3-.72a.49.49,0,0,0,.048-.088q.016-.04.032-.072H23.36a1.761,1.761,0,0,1,.448.448,2.57,2.57,0,0,1,.336.56,2.494,2.494,0,0,1,.088.3A2.435,2.435,0,0,1,24.288,31.392Zm14.1,2.064a.879.879,0,0,1-.624-.24.836.836,0,0,1-.256-.64V27.392q-.24.464-.48.9t-.464.808a.86.86,0,0,1-.552.432.922.922,0,0,1-.7-.128.779.779,0,0,1-.384-.512.788.788,0,0,1,.144-.656q.416-.608.888-1.456t.888-1.728q.416-.88.656-1.552v-.08H35.872a.772.772,0,0,1-.592-.24.884.884,0,0,1,0-1.176.759.759,0,0,1,.592-.248H37.5v-2.3a.83.83,0,0,1,.256-.648.9.9,0,0,1,.624-.232.867.867,0,0,1,.616.232.844.844,0,0,1,.248.648v2.3h1.1a.733.733,0,0,1,.384.1.848.848,0,0,1,.24-.568.785.785,0,0,1,.592-.232h2.768V19.52a.88.88,0,0,1,.272-.672.923.923,0,0,1,.656-.256.943.943,0,0,1,.672.256.88.88,0,0,1,.272.672v1.536H49.04a.791.791,0,0,1,.608.24.894.894,0,0,1,0,1.184.791.791,0,0,1-.608.24H47.088a.747.747,0,0,1,.464.256q.208.224.56.56t.736.664q.384.328.672.552a.782.782,0,0,1,.328.576.876.876,0,0,1-.184.656.988.988,0,0,1-.616.36.847.847,0,0,1-.68-.2q-.112-.08-.24-.192l-.256-.224a.881.881,0,0,1,.064.7,11.1,11.1,0,0,1-1.456,2.96,9.284,9.284,0,0,0,1.448,1.152,12.456,12.456,0,0,0,1.688.912.918.918,0,0,1,.544.528.981.981,0,0,1-.048.752.836.836,0,0,1-.616.472,1.3,1.3,0,0,1-.808-.12,14.921,14.921,0,0,1-1.768-1.04,11.118,11.118,0,0,1-1.576-1.312,9.882,9.882,0,0,1-1.68,1.344,13.441,13.441,0,0,1-1.984,1.04,1.382,1.382,0,0,1-.816.072.8.8,0,0,1-.592-.5.921.921,0,0,1,0-.752,1,1,0,0,1,.576-.5,9.284,9.284,0,0,0,3.328-2.1,13.916,13.916,0,0,1-.784-1.3,10.211,10.211,0,0,1-.64-1.472.836.836,0,0,1,.48-1.12,1.031,1.031,0,0,1,.7-.008.8.8,0,0,1,.48.536,8.465,8.465,0,0,0,.408,1.008q.232.48.488.912a10.19,10.19,0,0,0,.5-.96,8.025,8.025,0,0,0,.384-1.04.813.813,0,0,1,.464-.568.97.97,0,0,1,.7-.008.878.878,0,0,1,.112.048q-.32-.3-.648-.624t-.584-.624a.761.761,0,0,1-.216-.632.908.908,0,0,1,.312-.6.8.8,0,0,1,.4-.176h-2.8a.678.678,0,0,1,.336.176.824.824,0,0,1,.32.608.887.887,0,0,1-.208.624,13.513,13.513,0,0,1-.976,1.064,11.731,11.731,0,0,1-1.04.92,1.021,1.021,0,0,1-.7.224.829.829,0,0,1-.648-.352.911.911,0,0,1-.2-.64.721.721,0,0,1,.312-.56q.272-.208.616-.52t.7-.656q.352-.344.608-.632a.721.721,0,0,1,.4-.256H41.568a.822.822,0,0,1-.4-.1.866.866,0,0,1-.232.568.759.759,0,0,1-.584.232h-1.1v.864q.272.352.648.808t.744.872q.368.416.592.64a.794.794,0,0,1,.248.6.81.81,0,0,1-.9.792A.814.814,0,0,1,40,27.7q-.16-.176-.352-.432t-.4-.528v5.84a.836.836,0,0,1-.864.88Z" transform="translate(1130 5018)" fill="#60432e"/><path d="M-132.5-12.432a4.939,4.939,0,0,1,2.73.9,5.549,5.549,0,0,1,1.834,2.2,6.678,6.678,0,0,1,.644,2.9,6.757,6.757,0,0,1-.924,3.57,6.038,6.038,0,0,1-2.6,2.338,8.912,8.912,0,0,1-3.92.812,8.284,8.284,0,0,1-2.016-.252,7.237,7.237,0,0,1-1.764-.672,1.689,1.689,0,0,1-1.036-1.512,1.86,1.86,0,0,1,.476-1.232,1.457,1.457,0,0,1,1.148-.56,2.235,2.235,0,0,1,1.2.42,4.268,4.268,0,0,0,2.66.924,3.362,3.362,0,0,0,1.652-.434,3.366,3.366,0,0,0,1.274-1.26,3.633,3.633,0,0,0,.49-1.89,3.041,3.041,0,0,0-.91-2.352,3.125,3.125,0,0,0-2.2-.84,3.826,3.826,0,0,0-.98.112q-.42.112-.5.14a4.269,4.269,0,0,1-1.2.224,1.213,1.213,0,0,1-.98-.434,1.62,1.62,0,0,1-.364-1.078,1.674,1.674,0,0,1,.14-.7,2.65,2.65,0,0,1,.476-.672l4.34-4.732h-5.544a1.52,1.52,0,0,1-1.12-.448,1.52,1.52,0,0,1-.448-1.12,1.44,1.44,0,0,1,.448-1.078,1.546,1.546,0,0,1,1.12-.434h8.568a1.712,1.712,0,0,1,1.288.462,1.675,1.675,0,0,1,.448,1.218,1.936,1.936,0,0,1-.672,1.344ZM-117.852-.224a3.928,3.928,0,0,1-.476,1.624,5.967,5.967,0,0,1-1.232,1.708,2.259,2.259,0,0,1-1.568.728,1.627,1.627,0,0,1-.98-.266.986.986,0,0,1-.364-.854.771.771,0,0,1,.224-.63,1.477,1.477,0,0,1,.49-.266,2.878,2.878,0,0,0,.378-.14A1.258,1.258,0,0,0-120.6.56a.693.693,0,0,0-.294-.546,1.186,1.186,0,0,0-.77-.238,1.436,1.436,0,0,0-.784.2,1.289,1.289,0,0,1-.518-.364,1.05,1.05,0,0,1-.182-.672,1.587,1.587,0,0,1,.42-1.05,3.107,3.107,0,0,1,1.036-.784,2.784,2.784,0,0,1,1.2-.294,2.479,2.479,0,0,1,1.932.77A3.155,3.155,0,0,1-117.852-.224Zm16.464-2.856a1.52,1.52,0,0,1,1.12.448,1.52,1.52,0,0,1,.448,1.12,1.44,1.44,0,0,1-.448,1.078,1.546,1.546,0,0,1-1.12.434h-9.52a1.5,1.5,0,0,1-1.148-.448,1.611,1.611,0,0,1-.42-1.148,1.737,1.737,0,0,1,.5-1.232l6.1-6.524a10.828,10.828,0,0,0,1.638-2.254,4.5,4.5,0,0,0,.6-2.086,3.033,3.033,0,0,0-.9-2.184A2.8,2.8,0,0,0-106.6-16.8a2.959,2.959,0,0,0-1.638.546,6.061,6.061,0,0,0-1.5,1.442,1.545,1.545,0,0,1-1.288.672,1.643,1.643,0,0,1-1.134-.476,1.421,1.421,0,0,1-.518-1.064,1.571,1.571,0,0,1,.28-.854,6.334,6.334,0,0,1,.84-.994,8.442,8.442,0,0,1,2.464-1.708,6.426,6.426,0,0,1,2.688-.644,6.536,6.536,0,0,1,3.248.784A5.444,5.444,0,0,1-101-16.94a6.332,6.332,0,0,1,.756,3.108,7.785,7.785,0,0,1-.91,3.514A14.954,14.954,0,0,1-103.6-6.86l-3.556,3.78Zm12.8-9.632a5.369,5.369,0,0,1,2.87.882,6.968,6.968,0,0,1,2.31,2.38,6.19,6.19,0,0,1,.9,3.234A6.315,6.315,0,0,1-83.4-2.954,6.535,6.535,0,0,1-85.764-.588,6.37,6.37,0,0,1-89.04.28,5.785,5.785,0,0,1-92.484-.8a7.045,7.045,0,0,1-2.324-2.828,8.773,8.773,0,0,1-.812-3.738,16.169,16.169,0,0,1,.714-4.494,12.358,12.358,0,0,1,2.6-4.634A10.328,10.328,0,0,1-87.164-19.6a2.655,2.655,0,0,1,.644-.084,1.876,1.876,0,0,1,1.2.378,1.428,1.428,0,0,1,.476,1.19,1.582,1.582,0,0,1-.406,1.078,2.224,2.224,0,0,1-1.078.658,8.6,8.6,0,0,0-3.262,1.792,7.714,7.714,0,0,0-2.2,3.08A4.758,4.758,0,0,1-88.592-12.712ZM-89.04-2.8a2.965,2.965,0,0,0,2.24-.98,3.414,3.414,0,0,0,.924-2.436A3.414,3.414,0,0,0-86.8-8.652a2.965,2.965,0,0,0-2.24-.98,2.952,2.952,0,0,0-2.254.98,3.443,3.443,0,0,0-.91,2.436,3.443,3.443,0,0,0,.91,2.436A2.952,2.952,0,0,0-89.04-2.8Zm18.032-9.912a5.369,5.369,0,0,1,2.87.882,6.968,6.968,0,0,1,2.31,2.38,6.19,6.19,0,0,1,.9,3.234,6.315,6.315,0,0,1-.882,3.262A6.535,6.535,0,0,1-68.18-.588,6.37,6.37,0,0,1-71.456.28,5.785,5.785,0,0,1-74.9-.8a7.045,7.045,0,0,1-2.324-2.828,8.773,8.773,0,0,1-.812-3.738,16.169,16.169,0,0,1,.714-4.494,12.358,12.358,0,0,1,2.6-4.634A10.328,10.328,0,0,1-69.58-19.6a2.655,2.655,0,0,1,.644-.084,1.876,1.876,0,0,1,1.2.378,1.428,1.428,0,0,1,.476,1.19,1.582,1.582,0,0,1-.406,1.078,2.224,2.224,0,0,1-1.078.658A8.6,8.6,0,0,0-72-14.588a7.714,7.714,0,0,0-2.2,3.08A4.758,4.758,0,0,1-71.008-12.712ZM-71.456-2.8a2.965,2.965,0,0,0,2.24-.98,3.414,3.414,0,0,0,.924-2.436,3.414,3.414,0,0,0-.924-2.436,2.965,2.965,0,0,0-2.24-.98,2.952,2.952,0,0,0-2.254.98,3.443,3.443,0,0,0-.91,2.436,3.443,3.443,0,0,0,.91,2.436A2.952,2.952,0,0,0-71.456-2.8ZM-55.5-.224A3.928,3.928,0,0,1-55.972,1.4,5.967,5.967,0,0,1-57.2,3.108a2.259,2.259,0,0,1-1.568.728,1.627,1.627,0,0,1-.98-.266.987.987,0,0,1-.364-.854.771.771,0,0,1,.224-.63,1.477,1.477,0,0,1,.49-.266,2.878,2.878,0,0,0,.378-.14A1.258,1.258,0,0,0-58.24.56a.693.693,0,0,0-.294-.546,1.186,1.186,0,0,0-.77-.238,1.436,1.436,0,0,0-.784.2,1.289,1.289,0,0,1-.518-.364,1.05,1.05,0,0,1-.182-.672,1.587,1.587,0,0,1,.42-1.05A3.108,3.108,0,0,1-59.332-2.9a2.784,2.784,0,0,1,1.2-.294,2.479,2.479,0,0,1,1.932.77A3.155,3.155,0,0,1-55.5-.224Zm15.848-10A6.075,6.075,0,0,1-37.59-8.274a4.436,4.436,0,0,1,.742,2.422,5.251,5.251,0,0,1-.882,2.94A6.257,6.257,0,0,1-40.11-.784,6.986,6.986,0,0,1-43.4,0a6.986,6.986,0,0,1-3.29-.784,6.257,6.257,0,0,1-2.38-2.128,5.251,5.251,0,0,1-.882-2.94,5,5,0,0,1,2.716-4.368,4.709,4.709,0,0,1-1.61-1.512,3.965,3.965,0,0,1-.63-2.24,5.2,5.2,0,0,1,.812-2.828,5.869,5.869,0,0,1,2.2-2.044A6.3,6.3,0,0,1-43.4-19.6a6.3,6.3,0,0,1,3.066.756A5.76,5.76,0,0,1-38.15-16.8a5.266,5.266,0,0,1,.8,2.828,3.843,3.843,0,0,1-.658,2.31A4.858,4.858,0,0,1-39.648-10.22Zm-3.752-6.3a2.691,2.691,0,0,0-1.946.742,2.478,2.478,0,0,0-.77,1.862,2.511,2.511,0,0,0,.77,1.89,2.691,2.691,0,0,0,1.946.742,2.629,2.629,0,0,0,1.918-.756,2.523,2.523,0,0,0,.77-1.876,2.478,2.478,0,0,0-.77-1.862A2.655,2.655,0,0,0-43.4-16.52Zm0,13.44a3.28,3.28,0,0,0,2.268-.826,2.589,2.589,0,0,0,.924-2,2.618,2.618,0,0,0-.924-2.03A3.28,3.28,0,0,0-43.4-8.764a3.28,3.28,0,0,0-2.268.826,2.618,2.618,0,0,0-.924,2.03,2.589,2.589,0,0,0,.924,2A3.28,3.28,0,0,0-43.4-3.08Zm18.116-16.884a5.785,5.785,0,0,1,3.444,1.078,7.045,7.045,0,0,1,2.324,2.828A8.773,8.773,0,0,1-18.7-12.32a16.169,16.169,0,0,1-.714,4.494,12.358,12.358,0,0,1-2.6,4.634A10.328,10.328,0,0,1-27.16-.084,2.655,2.655,0,0,1-27.8,0a1.876,1.876,0,0,1-1.2-.378,1.428,1.428,0,0,1-.476-1.19,1.582,1.582,0,0,1,.406-1.078A2.224,2.224,0,0,1-28-3.3,8.6,8.6,0,0,0-24.738-5.1a7.714,7.714,0,0,0,2.2-3.08,4.758,4.758,0,0,1-3.192,1.2,5.369,5.369,0,0,1-2.87-.882,6.968,6.968,0,0,1-2.31-2.38,6.19,6.19,0,0,1-.9-3.234,6.315,6.315,0,0,1,.882-3.262A6.535,6.535,0,0,1-28.56-19.1,6.37,6.37,0,0,1-25.284-19.964Zm0,9.912a2.952,2.952,0,0,0,2.254-.98,3.443,3.443,0,0,0,.91-2.436,3.443,3.443,0,0,0-.91-2.436,2.952,2.952,0,0,0-2.254-.98,2.965,2.965,0,0,0-2.24.98,3.414,3.414,0,0,0-.924,2.436,3.414,3.414,0,0,0,.924,2.436A2.965,2.965,0,0,0-25.284-10.052ZM-7.2-12.712a5.369,5.369,0,0,1,2.87.882,6.968,6.968,0,0,1,2.31,2.38,6.19,6.19,0,0,1,.9,3.234A6.315,6.315,0,0,1-2-2.954,6.535,6.535,0,0,1-4.368-.588,6.37,6.37,0,0,1-7.644.28,5.785,5.785,0,0,1-11.088-.8a7.045,7.045,0,0,1-2.324-2.828,8.773,8.773,0,0,1-.812-3.738,16.169,16.169,0,0,1,.714-4.494,12.358,12.358,0,0,1,2.6-4.634A10.328,10.328,0,0,1-5.768-19.6a2.655,2.655,0,0,1,.644-.084,1.876,1.876,0,0,1,1.2.378,1.428,1.428,0,0,1,.476,1.19,1.582,1.582,0,0,1-.406,1.078,2.224,2.224,0,0,1-1.078.658A8.6,8.6,0,0,0-8.19-14.588a7.714,7.714,0,0,0-2.2,3.08A4.758,4.758,0,0,1-7.2-12.712ZM-7.644-2.8A2.965,2.965,0,0,0-5.4-3.78,3.414,3.414,0,0,0-4.48-6.216,3.414,3.414,0,0,0-5.4-8.652a2.965,2.965,0,0,0-2.24-.98,2.952,2.952,0,0,0-2.254.98,3.443,3.443,0,0,0-.91,2.436A3.443,3.443,0,0,0-9.9-3.78,2.952,2.952,0,0,0-7.644-2.8ZM-109.508,16.4a1.574,1.574,0,0,1,1.176.49,1.679,1.679,0,0,1,.476,1.218V34.292a1.588,1.588,0,0,1-.532,1.218A1.87,1.87,0,0,1-109.7,36a1.771,1.771,0,0,1-1.288-.49,1.63,1.63,0,0,1-.5-1.218V21.02l-1.736,1.064a1.713,1.713,0,0,1-.9.252,1.558,1.558,0,0,1-1.19-.532,1.7,1.7,0,0,1-.49-1.176,1.591,1.591,0,0,1,.238-.84,1.733,1.733,0,0,1,.63-.616l4.228-2.52A2.558,2.558,0,0,1-109.508,16.4Zm14.14,6.888a5.369,5.369,0,0,1,2.87.882,6.968,6.968,0,0,1,2.31,2.38,6.19,6.19,0,0,1,.9,3.234,6.315,6.315,0,0,1-.882,3.262,6.535,6.535,0,0,1-2.366,2.366,6.37,6.37,0,0,1-3.276.868A5.785,5.785,0,0,1-99.26,35.2a7.045,7.045,0,0,1-2.324-2.828,8.773,8.773,0,0,1-.812-3.738,16.169,16.169,0,0,1,.714-4.494,12.358,12.358,0,0,1,2.6-4.634A10.328,10.328,0,0,1-93.94,16.4a2.655,2.655,0,0,1,.644-.084,1.876,1.876,0,0,1,1.2.378,1.428,1.428,0,0,1,.476,1.19,1.582,1.582,0,0,1-.406,1.078,2.224,2.224,0,0,1-1.078.658,8.6,8.6,0,0,0-3.262,1.792,7.714,7.714,0,0,0-2.2,3.08A4.758,4.758,0,0,1-95.368,23.288Zm-.448,9.912a2.965,2.965,0,0,0,2.24-.98,3.414,3.414,0,0,0,.924-2.436,3.414,3.414,0,0,0-.924-2.436,2.965,2.965,0,0,0-2.24-.98,2.952,2.952,0,0,0-2.254.98,3.443,3.443,0,0,0-.91,2.436,3.443,3.443,0,0,0,.91,2.436A2.952,2.952,0,0,0-95.816,33.2Zm18.172-9.632a4.939,4.939,0,0,1,2.73.9,5.549,5.549,0,0,1,1.834,2.2,6.678,6.678,0,0,1,.644,2.9,6.757,6.757,0,0,1-.924,3.57,6.037,6.037,0,0,1-2.6,2.338,8.912,8.912,0,0,1-3.92.812,8.285,8.285,0,0,1-2.016-.252,7.237,7.237,0,0,1-1.764-.672A1.689,1.689,0,0,1-84.7,33.844a1.86,1.86,0,0,1,.476-1.232,1.457,1.457,0,0,1,1.148-.56,2.235,2.235,0,0,1,1.2.42,4.268,4.268,0,0,0,2.66.924,3.362,3.362,0,0,0,1.652-.434,3.366,3.366,0,0,0,1.274-1.26,3.633,3.633,0,0,0,.49-1.89,3.041,3.041,0,0,0-.91-2.352,3.125,3.125,0,0,0-2.2-.84,3.826,3.826,0,0,0-.98.112q-.42.112-.5.14a4.269,4.269,0,0,1-1.2.224,1.213,1.213,0,0,1-.98-.434,1.62,1.62,0,0,1-.364-1.078,1.674,1.674,0,0,1,.14-.7,2.649,2.649,0,0,1,.476-.672l4.34-4.732h-5.544a1.52,1.52,0,0,1-1.12-.448,1.52,1.52,0,0,1-.448-1.12,1.44,1.44,0,0,1,.448-1.078,1.546,1.546,0,0,1,1.12-.434h8.568a1.712,1.712,0,0,1,1.288.462,1.675,1.675,0,0,1,.448,1.218,1.936,1.936,0,0,1-.672,1.344ZM-63,35.776a3.928,3.928,0,0,1-.476,1.624,5.967,5.967,0,0,1-1.232,1.708,2.259,2.259,0,0,1-1.568.728,1.627,1.627,0,0,1-.98-.266.986.986,0,0,1-.364-.854.771.771,0,0,1,.224-.63,1.477,1.477,0,0,1,.49-.266,2.878,2.878,0,0,0,.378-.14,1.258,1.258,0,0,0,.784-1.12.693.693,0,0,0-.294-.546,1.186,1.186,0,0,0-.77-.238,1.436,1.436,0,0,0-.784.2,1.289,1.289,0,0,1-.518-.364,1.05,1.05,0,0,1-.182-.672,1.587,1.587,0,0,1,.42-1.05,3.107,3.107,0,0,1,1.036-.784,2.784,2.784,0,0,1,1.2-.294,2.479,2.479,0,0,1,1.932.77A3.155,3.155,0,0,1-63,35.776ZM-43.12,27.6a1.52,1.52,0,0,1,1.12.448,1.52,1.52,0,0,1,.448,1.12A1.44,1.44,0,0,1-42,30.246a1.546,1.546,0,0,1-1.12.434H-44.3v3.612a1.654,1.654,0,0,1-.49,1.218A1.654,1.654,0,0,1-46,36a1.574,1.574,0,0,1-1.176-.49,1.679,1.679,0,0,1-.476-1.218V30.68h-7.28a1.668,1.668,0,0,1-1.148-.49,1.529,1.529,0,0,1-.532-1.162,1.707,1.707,0,0,1,.42-1.12l8.848-10.836a1.7,1.7,0,0,1,1.4-.672,1.574,1.574,0,0,1,1.176.49,1.679,1.679,0,0,1,.476,1.218V27.6Zm-9.072,0h4.536V22Zm31.136,0a1.52,1.52,0,0,1,1.12.448,1.52,1.52,0,0,1,.448,1.12,1.44,1.44,0,0,1-.448,1.078,1.546,1.546,0,0,1-1.12.434h-1.176v3.612a1.654,1.654,0,0,1-.49,1.218A1.654,1.654,0,0,1-23.94,36a1.574,1.574,0,0,1-1.176-.49,1.679,1.679,0,0,1-.476-1.218V30.68h-7.28a1.668,1.668,0,0,1-1.148-.49,1.529,1.529,0,0,1-.532-1.162,1.707,1.707,0,0,1,.42-1.12l8.848-10.836a1.7,1.7,0,0,1,1.4-.672,1.574,1.574,0,0,1,1.176.49,1.679,1.679,0,0,1,.476,1.218V27.6Zm-9.072,0h4.536V22Zm27.72,5.32a1.52,1.52,0,0,1,1.12.448,1.52,1.52,0,0,1,.448,1.12,1.44,1.44,0,0,1-.448,1.078A1.546,1.546,0,0,1-2.408,36h-9.52a1.5,1.5,0,0,1-1.148-.448A1.611,1.611,0,0,1-13.5,34.4a1.737,1.737,0,0,1,.5-1.232l6.1-6.524A10.828,10.828,0,0,0-5.25,24.394a4.5,4.5,0,0,0,.6-2.086,3.033,3.033,0,0,0-.9-2.184A2.8,2.8,0,0,0-7.616,19.2a2.959,2.959,0,0,0-1.638.546,6.061,6.061,0,0,0-1.5,1.442,1.545,1.545,0,0,1-1.288.672,1.643,1.643,0,0,1-1.134-.476,1.421,1.421,0,0,1-.518-1.064,1.571,1.571,0,0,1,.28-.854,6.334,6.334,0,0,1,.84-.994,8.442,8.442,0,0,1,2.464-1.708A6.426,6.426,0,0,1-7.42,16.12a6.536,6.536,0,0,1,3.248.784A5.444,5.444,0,0,1-2.016,19.06a6.332,6.332,0,0,1,.756,3.108,7.785,7.785,0,0,1-.91,3.514A14.954,14.954,0,0,1-4.62,29.14l-3.556,3.78Z" transform="translate(1342 5015)" fill="#ed8934"/><path d="M2.24.728a1.258,1.258,0,0,1-.707.154A.789.789,0,0,1,.924.5.786.786,0,0,1,.805-.161.824.824,0,0,1,1.232-.7,11.678,11.678,0,0,0,3.773-2.576,8.076,8.076,0,0,0,5.488-5,7.019,7.019,0,0,0,6.1-7.952V-10.71a.81.81,0,0,1,.259-.637.885.885,0,0,1,.609-.231.878.878,0,0,1,.616.231.821.821,0,0,1,.252.637v2.282A7.424,7.424,0,0,0,8.232-6,8,8,0,0,0,9.324-3.892a10,10,0,0,0,1.61,1.743,10.4,10.4,0,0,0,1.96,1.323.836.836,0,0,1,.413.553.88.88,0,0,1-.1.693.9.9,0,0,1-.609.4,1.03,1.03,0,0,1-.749-.133A11.609,11.609,0,0,1,9-1.666,10.6,10.6,0,0,1,7.07-4.83a9.223,9.223,0,0,1-1.1,2.156A10.843,10.843,0,0,1,4.312-.77,11.257,11.257,0,0,1,2.24.728Zm0,36a1.258,1.258,0,0,1-.707.154A.789.789,0,0,1,.924,36.5a.786.786,0,0,1-.119-.665.824.824,0,0,1,.427-.539,11.678,11.678,0,0,0,2.541-1.876A8.076,8.076,0,0,0,5.488,31,7.019,7.019,0,0,0,6.1,28.048V25.29a.81.81,0,0,1,.259-.637.928.928,0,0,1,1.225,0,.821.821,0,0,1,.252.637v2.282A7.424,7.424,0,0,0,8.232,30a8,8,0,0,0,1.092,2.107,10,10,0,0,0,1.61,1.743,10.4,10.4,0,0,0,1.96,1.323.836.836,0,0,1,.413.553.88.88,0,0,1-.1.693.9.9,0,0,1-.609.4,1.03,1.03,0,0,1-.749-.133A11.609,11.609,0,0,1,9,34.334,10.6,10.6,0,0,1,7.07,31.17a9.223,9.223,0,0,1-1.1,2.156,10.843,10.843,0,0,1-1.659,1.9A11.257,11.257,0,0,1,2.24,36.728Z" transform="translate(1345 5015)" fill="#60432e"/><path d="M-23.712-36.66a18.484,18.484,0,0,1,9.321,2.379,17.319,17.319,0,0,1,6.552,6.513,18.12,18.12,0,0,1,2.379,9.2A17.09,17.09,0,0,1-8.424-8.892,21.313,21.313,0,0,1-16.3-1.833,22.25,22.25,0,0,1-26.91.78a22.561,22.561,0,0,1-6.279-.936A14.864,14.864,0,0,1-38.454-2.73a5.9,5.9,0,0,1-1.56-2.184,6.545,6.545,0,0,1-.624-2.652A3.407,3.407,0,0,1-39.429-10.1a4.438,4.438,0,0,1,3.159-1.131A6.618,6.618,0,0,1-32.76-9.75a11.372,11.372,0,0,0,5.772,2.028A12.679,12.679,0,0,0-20.982-9.2,12.094,12.094,0,0,0-16.5-13.182a9.467,9.467,0,0,0,1.677-5.382,8.9,8.9,0,0,0-2.886-6.864A9.8,9.8,0,0,0-24.57-28.08a10.094,10.094,0,0,0-3.2.468,29.691,29.691,0,0,0-3.354,1.4q-1.4.7-2.223,1.014a4.674,4.674,0,0,1-1.677.312q-3.042,0-4.329-1.638a6.123,6.123,0,0,1-1.287-3.9,5.168,5.168,0,0,1,.078-1.092l2.418-19.344a4.451,4.451,0,0,1,1.6-2.691A4.711,4.711,0,0,1-33.462-54.6H-10.92A4.233,4.233,0,0,1-7.8-53.352a4.233,4.233,0,0,1,1.248,3.12,4.012,4.012,0,0,1-1.248,3,4.305,4.305,0,0,1-3.12,1.209H-30.264l-1.482,11.31A14.11,14.11,0,0,1-28-36.114,18.3,18.3,0,0,1-23.712-36.66Z" transform="translate(1072 5051)" fill="#ed8934"/><path d="M2.56.048l.816.64,10.08-12.9-.832-.64Zm9.216.48a2.945,2.945,0,0,0,2.16-.816,3.777,3.777,0,0,0,.928-2.768,3.761,3.761,0,0,0-.928-2.752,2.984,2.984,0,0,0-2.16-.816A3.05,3.05,0,0,0,9.6-5.808a3.787,3.787,0,0,0-.928,2.752A3.777,3.777,0,0,0,9.6-.288,2.958,2.958,0,0,0,11.776.528Zm0-5.792a1.152,1.152,0,0,1,1.024.5,2.825,2.825,0,0,1,.432,1.6c0,1.552-.5,2.352-1.456,2.352-.944,0-1.456-.8-1.456-2.272a2.782,2.782,0,0,1,.432-1.664A1.114,1.114,0,0,1,11.776-5.264ZM4.24-5.536A2.945,2.945,0,0,0,6.4-6.352,3.777,3.777,0,0,0,7.328-9.12,3.761,3.761,0,0,0,6.4-11.872a2.984,2.984,0,0,0-2.16-.816c-1.952,0-3.1,1.328-3.1,3.568a3.8,3.8,0,0,0,.928,2.768A2.958,2.958,0,0,0,4.24-5.536Zm0-5.792a1.231,1.231,0,0,1,1.168.72A3.513,3.513,0,0,1,5.7-9.12c0,1.44-.528,2.24-1.456,2.24-.944,0-1.456-.8-1.456-2.272C2.784-10.544,3.312-11.328,4.24-11.328Z" transform="translate(1074 5049)" fill="#60432e"/><path d="M5.5,3A2.5,2.5,0,1,0,8,5.5,2.5,2.5,0,0,0,5.5,3m0-3A5.5,5.5,0,1,1,0,5.5,5.5,5.5,0,0,1,5.5,0Z" transform="translate(888 4999)" fill="#ffd86e"/></g><g transform="translate(201 229)"><path d="M2.256,1.456A.939.939,0,0,1,1.6,1.208.855.855,0,0,1,1.328.544V-3.2a3.6,3.6,0,0,1,.288-1.576A1.66,1.66,0,0,1,2.6-5.608a5.888,5.888,0,0,1,1.912-.248H11.5a5.876,5.876,0,0,1,1.92.248,1.659,1.659,0,0,1,.976.832A3.6,3.6,0,0,1,14.688-3.2V-.88A2.314,2.314,0,0,1,14.112.848a2.642,2.642,0,0,1-1.856.576,1.054,1.054,0,0,1-.68-.224.817.817,0,0,1-.312-.592.992.992,0,0,1,.208-.672.884.884,0,0,1,.672-.32,1.022,1.022,0,0,0,.576-.168.927.927,0,0,0,.112-.568V-3.2a1.33,1.33,0,0,0-.256-.952A1.615,1.615,0,0,0,11.5-4.4H4.512a1.651,1.651,0,0,0-1.08.248,1.3,1.3,0,0,0-.264.952V.544a.855.855,0,0,1-.272.664A.919.919,0,0,1,2.256,1.456ZM6.032-6.432a2.744,2.744,0,0,1-1.7-.4A1.69,1.69,0,0,1,3.84-8.208a1.687,1.687,0,0,1,.488-1.384,2.788,2.788,0,0,1,1.7-.392h3.9a2.822,2.822,0,0,1,1.72.392,1.687,1.687,0,0,1,.488,1.384,1.69,1.69,0,0,1-.488,1.376,2.778,2.778,0,0,1-1.72.4ZM1.408-10.576a.727.727,0,0,1-.56-.224.75.75,0,0,1-.208-.528.743.743,0,0,1,.208-.536.741.741,0,0,1,.56-.216H6.992v-.656a.931.931,0,0,1,.3-.72A1.015,1.015,0,0,1,8-13.728a.987.987,0,0,1,.7.272.944.944,0,0,1,.288.72v.656h5.584a.715.715,0,0,1,.552.216.759.759,0,0,1,.2.536.767.767,0,0,1-.2.528.7.7,0,0,1-.552.224ZM6.656-.272a2.611,2.611,0,0,1-1.64-.392,1.7,1.7,0,0,1-.472-1.368,1.693,1.693,0,0,1,.472-1.376,2.653,2.653,0,0,1,1.64-.384H9.312a2.648,2.648,0,0,1,1.648.384,1.71,1.71,0,0,1,.464,1.376A1.713,1.713,0,0,1,10.96-.664a2.606,2.606,0,0,1-1.648.392ZM6.144-7.808h3.7A.779.779,0,0,0,10.3-7.9a.441.441,0,0,0,.1-.344q0-.272-.1-.352a.844.844,0,0,0-.456-.08h-3.7a.891.891,0,0,0-.464.08q-.112.08-.112.352A.421.421,0,0,0,5.68-7.9.822.822,0,0,0,6.144-7.808Zm.688,6.176h2.3a.783.783,0,0,0,.448-.088A.421.421,0,0,0,9.7-2.064a.421.421,0,0,0-.112-.344A.783.783,0,0,0,9.136-2.5h-2.3a.744.744,0,0,0-.432.088.421.421,0,0,0-.112.344A.421.421,0,0,0,6.4-1.72.744.744,0,0,0,6.832-1.632ZM26.368,1.456a.983.983,0,0,1-.688-.264A1.023,1.023,0,0,1,25.36.48a.96.96,0,0,1,.256-.656.873.873,0,0,1,.64-.3,1.574,1.574,0,0,0,.9-.208,1.017,1.017,0,0,0,.184-.72V-2.464H22.752a.294.294,0,0,1,.072.056.576.576,0,0,0,.088.072q.24.256.616.624t.584.608a.917.917,0,0,1,.264.728.978.978,0,0,1-.36.664,1,1,0,0,1-.728.24,1,1,0,0,1-.68-.352q-.224-.256-.576-.64t-.608-.656a.785.785,0,0,1-.224-.632.91.91,0,0,1,.32-.616.6.6,0,0,1,.064-.056.468.468,0,0,0,.048-.04h-2.48a.717.717,0,0,1-.544-.24.8.8,0,0,1-.224-.56.767.767,0,0,1,.224-.552.728.728,0,0,1,.544-.232h8.192v-.88H18.576a.7.7,0,0,1-.52-.224.736.736,0,0,1-.216-.528.755.755,0,0,1,.216-.544.7.7,0,0,1,.52-.224H24.32v-.8H20.368a.683.683,0,0,1-.512-.216.723.723,0,0,1-.208-.52.75.75,0,0,1,.208-.528.671.671,0,0,1,.512-.224H24.32v-.24a.872.872,0,0,1,.416-.8.77.77,0,0,1,.112-.72,13.711,13.711,0,0,0,.776-1.232,9.591,9.591,0,0,0,.632-1.312.792.792,0,0,1,.488-.5.963.963,0,0,1,.68.008.876.876,0,0,1,.52.424.78.78,0,0,1,.024.648q-.032.08-.08.176l-.1.192h3.92a.69.69,0,0,1,.544.216.756.756,0,0,1,.192.52.756.756,0,0,1-.192.52.69.69,0,0,1-.544.216H29.664a2.739,2.739,0,0,1,.136.32q.056.16.1.288A.752.752,0,0,1,29.9-9.4a.807.807,0,0,1-.52.44,1.024,1.024,0,0,1-.68-.008.7.7,0,0,1-.44-.44q-.08-.24-.216-.6l-.232-.616H27.04q-.144.256-.3.5t-.28.416a1.382,1.382,0,0,1-.32.336,1.166,1.166,0,0,1,.064.4v.24H30.32a.689.689,0,0,1,.528.224.75.75,0,0,1,.208.528.723.723,0,0,1-.208.52.7.7,0,0,1-.528.216H26.208v.8h5.76a.715.715,0,0,1,.536.224.755.755,0,0,1,.216.544.736.736,0,0,1-.216.528.715.715,0,0,1-.536.224h-2.7v.88h2.16a.728.728,0,0,1,.544.232.767.767,0,0,1,.224.552.8.8,0,0,1-.224.56.717.717,0,0,1-.544.24h-2.16V-.976A2.335,2.335,0,0,1,28.6.88,3.408,3.408,0,0,1,26.368,1.456ZM22.816-8.96a1.046,1.046,0,0,1-.688-.008.7.7,0,0,1-.432-.44q-.1-.24-.224-.6t-.224-.616h-.736q-.224.352-.448.656t-.432.576a1.115,1.115,0,0,1-.6.4A.943.943,0,0,1,18.3-9.1a.742.742,0,0,1-.368-.544.742.742,0,0,1,.144-.624q.512-.656,1-1.376a9.025,9.025,0,0,0,.792-1.408.864.864,0,0,1,.512-.512.962.962,0,0,1,.688.032.773.773,0,0,1,.5.448.829.829,0,0,1-.048.688l-.072.144q-.04.08-.088.16h2.992a.7.7,0,0,1,.536.216.738.738,0,0,1,.2.52.738.738,0,0,1-.2.52.7.7,0,0,1-.536.216H23.1l.128.32q.064.16.112.288a.751.751,0,0,1-.016.624A.777.777,0,0,1,22.816-8.96ZM40.848,1.44A1.061,1.061,0,0,1,40.1,1.2a.945.945,0,0,1-.288-.64A.813.813,0,0,1,40.064-.1a1.066,1.066,0,0,1,.72-.272,3.075,3.075,0,0,0,.976-.176.872.872,0,0,0,.5-.5A2.891,2.891,0,0,0,42.4-2.08a3.044,3.044,0,0,0-.048-.56H36.128a.766.766,0,0,1-.6-.24.831.831,0,0,1-.216-.576.85.85,0,0,1,.208-.576.668.668,0,0,1,.528-.24h5.568q-.048-.048-.088-.1T41.44-4.48a.687.687,0,0,1-.168-.592.859.859,0,0,1,.312-.544.88.88,0,0,1,.64-.2.981.981,0,0,1,.592.216q.032.032.08.072t.08.072l.448-.256L43.76-5.9q.272-.176.224-.352t-.368-.176H38.992a.728.728,0,0,1-.568-.24.811.811,0,0,1-.216-.56.811.811,0,0,1,.216-.56.728.728,0,0,1,.568-.24H44.7a1.975,1.975,0,0,1,1.128.288,1.315,1.315,0,0,1,.552.72,1.283,1.283,0,0,1-.088.912,2.11,2.11,0,0,1-.792.864q-.416.272-.8.512t-.784.464h4.992a.854.854,0,0,1,.656.24.814.814,0,0,1,.224.576.831.831,0,0,1-.216.576.766.766,0,0,1-.6.24h-4.72A4.531,4.531,0,0,1,44.3-2,3.555,3.555,0,0,1,43.48.664,3.75,3.75,0,0,1,40.848,1.44Zm-4.3-7.872a.919.919,0,0,1-.64-.248.836.836,0,0,1-.272-.648v-.736a2.325,2.325,0,0,1,.576-1.768,2.948,2.948,0,0,1,1.984-.552L38.1-10.5a.894.894,0,0,1-.072-.12q-.064-.144-.224-.424l-.32-.56q-.16-.28-.24-.408a.736.736,0,0,1-.08-.616.778.778,0,0,1,.4-.488.925.925,0,0,1,.672-.1.883.883,0,0,1,.56.4q.176.256.448.688t.416.72a.9.9,0,0,1,.12.528.73.73,0,0,1-.248.48h2.352a1.458,1.458,0,0,1-.12-.136.559.559,0,0,1-.088-.168q-.064-.144-.232-.472t-.328-.656q-.16-.328-.24-.456a.775.775,0,0,1-.056-.624.807.807,0,0,1,.408-.48.87.87,0,0,1,.672-.08.949.949,0,0,1,.56.416q.112.176.28.488l.336.624q.168.312.264.5a.975.975,0,0,1,.088.56.708.708,0,0,1-.3.48H44.4q.192-.336.472-.832t.552-.984q.272-.488.4-.76a.812.812,0,0,1,.592-.48,1.09,1.09,0,0,1,.72.08.909.909,0,0,1,.472.512.81.81,0,0,1-.072.72q-.176.32-.472.808L46.5-10.4h.288a3.184,3.184,0,0,1,2.1.544A2.284,2.284,0,0,1,49.5-8.064v.736a.836.836,0,0,1-.272.648.919.919,0,0,1-.64.248,1,1,0,0,1-.656-.224.782.782,0,0,1-.272-.64v-.736a.777.777,0,0,0-.224-.632,1.33,1.33,0,0,0-.816-.184H38.512a1.33,1.33,0,0,0-.816.184.777.777,0,0,0-.224.632V-7.3a.782.782,0,0,1-.272.64A1,1,0,0,1,36.544-6.432Zm19.12,7.888a.879.879,0,0,1-.624-.24.836.836,0,0,1-.256-.64V-4.608q-.24.464-.48.9T53.84-2.9a.86.86,0,0,1-.552.432.922.922,0,0,1-.7-.128.779.779,0,0,1-.384-.512.788.788,0,0,1,.144-.656q.416-.608.888-1.456t.888-1.728q.416-.88.656-1.552v-.08H53.152a.772.772,0,0,1-.592-.24.835.835,0,0,1-.224-.592.843.843,0,0,1,.224-.584.759.759,0,0,1,.592-.248h1.632v-2.3a.83.83,0,0,1,.256-.648.9.9,0,0,1,.624-.232.867.867,0,0,1,.616.232.844.844,0,0,1,.248.648v2.3h1.1a.733.733,0,0,1,.384.1.848.848,0,0,1,.24-.568.785.785,0,0,1,.592-.232h2.768V-12.48a.88.88,0,0,1,.272-.672.923.923,0,0,1,.656-.256.943.943,0,0,1,.672.256.88.88,0,0,1,.272.672v1.536H66.32a.791.791,0,0,1,.608.24.835.835,0,0,1,.224.592.835.835,0,0,1-.224.592.791.791,0,0,1-.608.24H64.368a.747.747,0,0,1,.464.256q.208.224.56.56t.736.664q.384.328.672.552a.782.782,0,0,1,.328.576.876.876,0,0,1-.184.656.988.988,0,0,1-.616.36.847.847,0,0,1-.68-.2q-.112-.08-.24-.192l-.256-.224a.881.881,0,0,1,.064.7,11.1,11.1,0,0,1-1.456,2.96,9.284,9.284,0,0,0,1.448,1.152A12.456,12.456,0,0,0,66.9-.544a.918.918,0,0,1,.544.528.981.981,0,0,1-.048.752.836.836,0,0,1-.616.472,1.3,1.3,0,0,1-.808-.12A14.921,14.921,0,0,1,64.2.048a11.118,11.118,0,0,1-1.576-1.312A9.882,9.882,0,0,1,60.944.08,13.441,13.441,0,0,1,58.96,1.12a1.382,1.382,0,0,1-.816.072.8.8,0,0,1-.592-.5.921.921,0,0,1,0-.752,1,1,0,0,1,.576-.5,9.284,9.284,0,0,0,3.328-2.1,13.916,13.916,0,0,1-.784-1.3,10.211,10.211,0,0,1-.64-1.472.845.845,0,0,1,.016-.7.842.842,0,0,1,.464-.416,1.031,1.031,0,0,1,.7-.008.8.8,0,0,1,.48.536A8.465,8.465,0,0,0,62.1-5.008q.232.48.488.912a10.19,10.19,0,0,0,.5-.96,8.024,8.024,0,0,0,.384-1.04.813.813,0,0,1,.464-.568.97.97,0,0,1,.7-.008.877.877,0,0,1,.112.048q-.32-.3-.648-.624t-.584-.624A.761.761,0,0,1,63.3-8.5a.908.908,0,0,1,.312-.6.8.8,0,0,1,.4-.176h-2.8a.678.678,0,0,1,.336.176.824.824,0,0,1,.32.608.887.887,0,0,1-.208.624,13.513,13.513,0,0,1-.976,1.064,11.731,11.731,0,0,1-1.04.92,1.021,1.021,0,0,1-.7.224.829.829,0,0,1-.648-.352.911.911,0,0,1-.2-.64.721.721,0,0,1,.312-.56q.272-.208.616-.52t.7-.656q.352-.344.608-.632a.721.721,0,0,1,.4-.256H58.848a.822.822,0,0,1-.4-.1.866.866,0,0,1-.232.568.759.759,0,0,1-.584.232h-1.1v.864q.272.352.648.808t.744.872q.368.416.592.64a.794.794,0,0,1,.248.6.827.827,0,0,1-.28.6A.828.828,0,0,1,57.856-4a.814.814,0,0,1-.576-.3q-.16-.176-.352-.432t-.4-.528V.576a.85.85,0,0,1-.248.64A.851.851,0,0,1,55.664,1.456Z" transform="translate(904 5010)" fill="#ed8934"/><path d="M4,1.44a.983.983,0,0,1-.688-.264A.919.919,0,0,1,3.024.464V-4.272q-.24.224-.488.448t-.52.432a1,1,0,0,1-.7.216A.947.947,0,0,1,.64-3.5a.794.794,0,0,1-.2-.672A.965.965,0,0,1,.784-4.8,17.715,17.715,0,0,0,3.04-7.008,17.416,17.416,0,0,0,4.8-9.488H1.6A.817.817,0,0,1,1-9.736a.817.817,0,0,1-.248-.6A.791.791,0,0,1,1-10.928a.831.831,0,0,1,.6-.24H5.648q.208-.464.376-.928t.328-.96a.866.866,0,0,1,.5-.56,1.04,1.04,0,0,1,.76-.032.912.912,0,0,1,.552.472.9.9,0,0,1,.024.7q-.112.336-.24.664t-.256.648h6.736a.8.8,0,0,1,.592.24.8.8,0,0,1,.24.592.831.831,0,0,1-.24.6.791.791,0,0,1-.592.248H6.9Q6.48-8.7,6-7.936T4.976-6.464V.464a.932.932,0,0,1-.28.712A.975.975,0,0,1,4,1.44ZM6.192.56a.817.817,0,0,1-.6-.248.817.817,0,0,1-.248-.6A.791.791,0,0,1,5.592-.88a.831.831,0,0,1,.6-.24H9.2v-3.5H6.688a.8.8,0,0,1-.592-.24.786.786,0,0,1-.24-.576.8.8,0,0,1,.24-.592.8.8,0,0,1,.592-.24H9.2V-8.1a.919.919,0,0,1,.288-.712.983.983,0,0,1,.688-.264.975.975,0,0,1,.7.264.932.932,0,0,1,.28.712v1.824h2.7a.786.786,0,0,1,.576.24.8.8,0,0,1,.24.592.786.786,0,0,1-.24.576.786.786,0,0,1-.576.24h-2.7v3.5h3.2a.8.8,0,0,1,.592.24.8.8,0,0,1,.24.592.831.831,0,0,1-.24.6.791.791,0,0,1-.592.248Zm15.616.848a.847.847,0,0,1-.6-.232A.8.8,0,0,1,20.96.56V-1.568q-.384.48-.8.936t-.736.776a1.012,1.012,0,0,1-.648.28.807.807,0,0,1-.648-.248A.677.677,0,0,1,17.9-.408a.807.807,0,0,1,.3-.568q.352-.288.784-.712t.848-.888q.416-.464.7-.832H18.592a.664.664,0,0,1-.488-.2.646.646,0,0,1-.2-.472.664.664,0,0,1,.2-.488.664.664,0,0,1,.488-.2H20.96v-.64H19.248a.569.569,0,0,1-.416-.176A.569.569,0,0,1,18.656-6a.569.569,0,0,1,.176-.416.569.569,0,0,1,.416-.176H20.96v-.64H18.816a.664.664,0,0,1-.488-.2.646.646,0,0,1-.2-.472.664.664,0,0,1,.2-.488.664.664,0,0,1,.488-.2H20.96v-.384a.8.8,0,0,1,.248-.616.847.847,0,0,1,.6-.232.111.111,0,0,1,.048.008.071.071,0,0,0,.032.008q-.08-.24-.176-.52t-.176-.472H20.448q-.208.352-.424.664t-.408.568a1.123,1.123,0,0,1-.576.416.787.787,0,0,1-.672-.08A.776.776,0,0,1,18-9.76a.734.734,0,0,1,.144-.608,10.169,10.169,0,0,0,.6-.84q.328-.5.624-1.024t.472-.9a.821.821,0,0,1,.5-.448.873.873,0,0,1,.656.032.817.817,0,0,1,.44.424.682.682,0,0,1-.024.584q-.032.08-.08.176l-.1.192h3.344a.664.664,0,0,1,.488.2.664.664,0,0,1,.2.488.664.664,0,0,1-.2.488.664.664,0,0,1-.488.2H23.328q.064.16.12.3l.088.224a.727.727,0,0,1-.032.632.844.844,0,0,1-.48.408,1.116,1.116,0,0,1-.384.064.632.632,0,0,1,.024.1.583.583,0,0,1,.008.1v.384h1.856a.646.646,0,0,1,.472.2.664.664,0,0,1,.2.488.646.646,0,0,1-.2.472.646.646,0,0,1-.472.2H22.672v.64h1.264a.569.569,0,0,1,.416.176A.569.569,0,0,1,24.528-6a.569.569,0,0,1-.176.416.569.569,0,0,1-.416.176H22.672v.64h1.92a.664.664,0,0,1,.488.2.664.664,0,0,1,.2.488.646.646,0,0,1-.2.472.664.664,0,0,1-.488.2H22.8q.224.208.648.568t.864.7q.44.344.712.552a.7.7,0,0,1,.3.528.756.756,0,0,1-.192.592.821.821,0,0,1-.584.3.84.84,0,0,1-.632-.192q-.24-.208-.576-.528l-.672-.64V.56a.8.8,0,0,1-.248.616A.867.867,0,0,1,21.808,1.408ZM25.7-4.608a.651.651,0,0,1-.488-.208.672.672,0,0,1-.2-.48.664.664,0,0,1,.2-.488.664.664,0,0,1,.488-.2H26.7v-.928h-.72a.646.646,0,0,1-.472-.2.646.646,0,0,1-.2-.472.62.62,0,0,1,.2-.464.659.659,0,0,1,.472-.192h.72v-.7a.759.759,0,0,1,.232-.584.8.8,0,0,1,.568-.216.811.811,0,0,1,.56.216.746.746,0,0,1,.24.584v.7H29.44v-.7a.69.69,0,0,1,.048-.272.936.936,0,0,1-.616-.016.673.673,0,0,1-.408-.432q-.064-.24-.184-.576l-.2-.56h-1.1q-.208.32-.4.624t-.368.56a1.122,1.122,0,0,1-.584.416.772.772,0,0,1-.68-.1.7.7,0,0,1-.36-.512.757.757,0,0,1,.152-.608,8.106,8.106,0,0,0,.56-.816q.3-.5.584-1.008a9.651,9.651,0,0,0,.44-.9.768.768,0,0,1,.48-.448.917.917,0,0,1,.672.032.822.822,0,0,1,.424.424.758.758,0,0,1-.008.6,1.572,1.572,0,0,1-.08.168,1.129,1.129,0,0,0-.08.184h4.064a.664.664,0,0,1,.488.2.664.664,0,0,1,.2.488.664.664,0,0,1-.2.488.664.664,0,0,1-.488.2H29.856q.064.16.12.3t.088.232a.689.689,0,0,1,0,.544.3.3,0,0,1,.1-.016h.08a.831.831,0,0,1,.576.216.746.746,0,0,1,.24.584v.7h.864a.651.651,0,0,1,.48.192.632.632,0,0,1,.192.464.659.659,0,0,1-.192.472.638.638,0,0,1-.48.2h-.864v.928h1.088a.664.664,0,0,1,.488.2.664.664,0,0,1,.2.488.672.672,0,0,1-.2.48.651.651,0,0,1-.488.208ZM28.816,1.2a5.654,5.654,0,0,1-1.7-.2,1.376,1.376,0,0,1-.856-.712,3.471,3.471,0,0,1-.248-1.472v-.528A3.52,3.52,0,0,1,26.264-3.2a1.376,1.376,0,0,1,.856-.712,5.654,5.654,0,0,1,1.7-.2h.208a5.654,5.654,0,0,1,1.7.2,1.376,1.376,0,0,1,.856.712,3.52,3.52,0,0,1,.248,1.488v.528A3.471,3.471,0,0,1,31.576.288,1.376,1.376,0,0,1,30.72,1a5.654,5.654,0,0,1-1.7.2ZM27.68-2.048h2.48a.7.7,0,0,0-.288-.592,1.969,1.969,0,0,0-.848-.128h-.208a1.969,1.969,0,0,0-.848.128A.7.7,0,0,0,27.68-2.048Zm1.136,1.9h.208a1.865,1.865,0,0,0,.848-.136.709.709,0,0,0,.288-.584H27.68a.709.709,0,0,0,.288.584A1.865,1.865,0,0,0,28.816-.144ZM28.3-5.984H29.44v-.928H28.3ZM8.144,33.088a1,1,0,0,1-.712-.28.957.957,0,0,1-.3-.728V24.688a24.878,24.878,0,0,1-2.424,2.04,22.77,22.77,0,0,1-2.744,1.736,1.053,1.053,0,0,1-.768.12.937.937,0,0,1-.624-.472.913.913,0,0,1-.1-.744,1.008,1.008,0,0,1,.528-.616,21.562,21.562,0,0,0,2.5-1.568,26.41,26.41,0,0,0,2.336-1.9A23.159,23.159,0,0,0,7.76,21.344H1.68a.844.844,0,0,1-.616-.264A.862.862,0,0,1,.8,20.448a.836.836,0,0,1,.264-.624.857.857,0,0,1,.616-.256H14.256a.876.876,0,0,1,.632.256.836.836,0,0,1,.264.624.9.9,0,0,1-.9.9H10.08q-.224.3-.456.6t-.472.584V32.08a.957.957,0,0,1-.3.728A1,1,0,0,1,8.144,33.088Zm5.5-4.656q-.48-.48-1.176-1.112t-1.416-1.248q-.72-.616-1.28-1.064a.8.8,0,0,1-.3-.592.92.92,0,0,1,.184-.64,1,1,0,0,1,.608-.344.894.894,0,0,1,.7.152q.448.32,1,.752t1.128.9q.576.472,1.1.92t.888.8a.937.937,0,0,1,.328.7.983.983,0,0,1-.312.736,1.022,1.022,0,0,1-.728.312A.992.992,0,0,1,13.648,28.432Zm5.392,4.544a.781.781,0,0,1-.56-.232.742.742,0,0,1-.24-.552.76.76,0,0,1,.24-.568.78.78,0,0,1,.56-.232h3.392a2.966,2.966,0,0,1-.128-.52,2.34,2.34,0,0,1-.024-.576.8.8,0,0,1,.12-.408.615.615,0,0,1,.1-.1,1.125,1.125,0,0,1,.1-.072,2.358,2.358,0,0,1-1.584-.608,2.325,2.325,0,0,1-.432-1.552,2.76,2.76,0,0,1,.256-1.3,1.475,1.475,0,0,1,.88-.68,5.61,5.61,0,0,1,1.712-.208h3.664a5.529,5.529,0,0,1,1.7.208,1.473,1.473,0,0,1,.872.68,2.76,2.76,0,0,1,.256,1.3,2.566,2.566,0,0,1-.336,1.44,1.771,1.771,0,0,1-1.216.656.853.853,0,0,1,.232.424.74.74,0,0,1-.056.488q-.048.128-.152.352t-.216.48h3.376a.78.78,0,0,1,.56.232.76.76,0,0,1,.24.568.742.742,0,0,1-.24.552.78.78,0,0,1-.56.232Zm.016-6.864a1.038,1.038,0,0,1-.712.144.821.821,0,0,1-.552-.384.8.8,0,0,1-.1-.648.837.837,0,0,1,.44-.536q.56-.3,1.128-.672t1.08-.768q-.176-.176-.44-.4t-.5-.424q-.232-.2-.376-.312a.676.676,0,0,1-.256-.52.7.7,0,0,1,.208-.552.8.8,0,0,1,.544-.264.844.844,0,0,1,.592.184q.128.1.4.32t.56.472q.288.248.48.424a9.574,9.574,0,0,0,.992-1.12q.432-.592-.272-.592h-2.56a.749.749,0,0,1-.536-.224.71.71,0,0,1-.232-.528.7.7,0,0,1,.232-.536.763.763,0,0,1,.536-.216h3.136a2.214,2.214,0,0,1,1.376.352,1.122,1.122,0,0,1,.456.9,2.11,2.11,0,0,1-.424,1.192q-.24.352-.5.7t-.568.688h4.208a14.537,14.537,0,0,1-2.016-3.008.714.714,0,0,1-.024-.632.867.867,0,0,1,1.064-.5.818.818,0,0,1,.5.432q.176.32.376.64t.408.64l.5-.424q.272-.232.52-.448t.36-.328a.836.836,0,0,1,.568-.232.727.727,0,0,1,.568.248.87.87,0,0,1,.24.568.659.659,0,0,1-.24.552q-.128.112-.408.352t-.592.5q-.312.256-.552.448.176.176.344.352t.344.352q.192-.16.512-.432t.624-.536q.3-.264.448-.392a.836.836,0,0,1,.568-.232.681.681,0,0,1,.552.248.837.837,0,0,1,.256.568.659.659,0,0,1-.24.552q-.128.112-.392.336l-.56.472q-.3.248-.536.44.416.3.856.576a10.362,10.362,0,0,0,.936.512.868.868,0,0,1,.368,1.184.856.856,0,0,1-.632.464,1.226,1.226,0,0,1-.776-.128,17.5,17.5,0,0,1-1.552-.992,15.97,15.97,0,0,1-1.392-1.12.859.859,0,0,1-.288.464.785.785,0,0,1-.528.192H23.12a.8.8,0,0,1-.56-.224.824.824,0,0,1-.272-.528,15.983,15.983,0,0,1-1.56,1.312A14.714,14.714,0,0,1,19.056,26.112Zm4.192,2.08h4.016a1.073,1.073,0,0,0,.608-.128.626.626,0,0,0,.176-.528q0-.4-.176-.52a1.131,1.131,0,0,0-.608-.12H23.248a1.172,1.172,0,0,0-.624.12q-.176.12-.176.52a.626.626,0,0,0,.176.528A1.111,1.111,0,0,0,23.248,28.192Zm1.04,3.2h1.888q.128-.32.32-.768t.3-.72a.49.49,0,0,0,.048-.088q.016-.04.032-.072H23.36a1.761,1.761,0,0,1,.448.448,2.57,2.57,0,0,1,.336.56,2.494,2.494,0,0,1,.088.3A2.435,2.435,0,0,1,24.288,31.392Zm14.1,2.064a.879.879,0,0,1-.624-.24.836.836,0,0,1-.256-.64V27.392q-.24.464-.48.9t-.464.808a.86.86,0,0,1-.552.432.922.922,0,0,1-.7-.128.779.779,0,0,1-.384-.512.788.788,0,0,1,.144-.656q.416-.608.888-1.456t.888-1.728q.416-.88.656-1.552v-.08H35.872a.772.772,0,0,1-.592-.24.884.884,0,0,1,0-1.176.759.759,0,0,1,.592-.248H37.5v-2.3a.83.83,0,0,1,.256-.648.9.9,0,0,1,.624-.232.867.867,0,0,1,.616.232.844.844,0,0,1,.248.648v2.3h1.1a.733.733,0,0,1,.384.1.848.848,0,0,1,.24-.568.785.785,0,0,1,.592-.232h2.768V19.52a.88.88,0,0,1,.272-.672.923.923,0,0,1,.656-.256.943.943,0,0,1,.672.256.88.88,0,0,1,.272.672v1.536H49.04a.791.791,0,0,1,.608.24.894.894,0,0,1,0,1.184.791.791,0,0,1-.608.24H47.088a.747.747,0,0,1,.464.256q.208.224.56.56t.736.664q.384.328.672.552a.782.782,0,0,1,.328.576.876.876,0,0,1-.184.656.988.988,0,0,1-.616.36.847.847,0,0,1-.68-.2q-.112-.08-.24-.192l-.256-.224a.881.881,0,0,1,.064.7,11.1,11.1,0,0,1-1.456,2.96,9.284,9.284,0,0,0,1.448,1.152,12.456,12.456,0,0,0,1.688.912.918.918,0,0,1,.544.528.981.981,0,0,1-.048.752.836.836,0,0,1-.616.472,1.3,1.3,0,0,1-.808-.12,14.921,14.921,0,0,1-1.768-1.04,11.118,11.118,0,0,1-1.576-1.312,9.882,9.882,0,0,1-1.68,1.344,13.441,13.441,0,0,1-1.984,1.04,1.382,1.382,0,0,1-.816.072.8.8,0,0,1-.592-.5.921.921,0,0,1,0-.752,1,1,0,0,1,.576-.5,9.284,9.284,0,0,0,3.328-2.1,13.916,13.916,0,0,1-.784-1.3,10.211,10.211,0,0,1-.64-1.472.836.836,0,0,1,.48-1.12,1.031,1.031,0,0,1,.7-.008.8.8,0,0,1,.48.536,8.465,8.465,0,0,0,.408,1.008q.232.48.488.912a10.19,10.19,0,0,0,.5-.96,8.025,8.025,0,0,0,.384-1.04.813.813,0,0,1,.464-.568.97.97,0,0,1,.7-.008.878.878,0,0,1,.112.048q-.32-.3-.648-.624t-.584-.624a.761.761,0,0,1-.216-.632.908.908,0,0,1,.312-.6.8.8,0,0,1,.4-.176h-2.8a.678.678,0,0,1,.336.176.824.824,0,0,1,.32.608.887.887,0,0,1-.208.624,13.513,13.513,0,0,1-.976,1.064,11.731,11.731,0,0,1-1.04.92,1.021,1.021,0,0,1-.7.224.829.829,0,0,1-.648-.352.911.911,0,0,1-.2-.64.721.721,0,0,1,.312-.56q.272-.208.616-.52t.7-.656q.352-.344.608-.632a.721.721,0,0,1,.4-.256H41.568a.822.822,0,0,1-.4-.1.866.866,0,0,1-.232.568.759.759,0,0,1-.584.232h-1.1v.864q.272.352.648.808t.744.872q.368.416.592.64a.794.794,0,0,1,.248.6.81.81,0,0,1-.9.792A.814.814,0,0,1,40,27.7q-.16-.176-.352-.432t-.4-.528v5.84a.836.836,0,0,1-.864.88Z" transform="translate(1130 5018)" fill="#60432e"/><path d="M-132.216-12.432a4.939,4.939,0,0,1,2.73.9,5.549,5.549,0,0,1,1.834,2.2,6.678,6.678,0,0,1,.644,2.9,6.757,6.757,0,0,1-.924,3.57,6.038,6.038,0,0,1-2.6,2.338,8.912,8.912,0,0,1-3.92.812,8.284,8.284,0,0,1-2.016-.252,7.237,7.237,0,0,1-1.764-.672,1.689,1.689,0,0,1-1.036-1.512,1.86,1.86,0,0,1,.476-1.232,1.457,1.457,0,0,1,1.148-.56,2.235,2.235,0,0,1,1.2.42,4.268,4.268,0,0,0,2.66.924,3.362,3.362,0,0,0,1.652-.434,3.366,3.366,0,0,0,1.274-1.26,3.633,3.633,0,0,0,.49-1.89,3.041,3.041,0,0,0-.91-2.352,3.125,3.125,0,0,0-2.2-.84,3.826,3.826,0,0,0-.98.112q-.42.112-.5.14a4.269,4.269,0,0,1-1.2.224,1.213,1.213,0,0,1-.98-.434,1.62,1.62,0,0,1-.364-1.078,1.674,1.674,0,0,1,.14-.7,2.65,2.65,0,0,1,.476-.672l4.34-4.732H-138.1a1.52,1.52,0,0,1-1.12-.448,1.52,1.52,0,0,1-.448-1.12,1.44,1.44,0,0,1,.448-1.078,1.546,1.546,0,0,1,1.12-.434h8.568a1.712,1.712,0,0,1,1.288.462,1.675,1.675,0,0,1,.448,1.218,1.936,1.936,0,0,1-.672,1.344ZM-117.572-.224a3.928,3.928,0,0,1-.476,1.624,5.967,5.967,0,0,1-1.232,1.708,2.259,2.259,0,0,1-1.568.728,1.627,1.627,0,0,1-.98-.266.986.986,0,0,1-.364-.854.771.771,0,0,1,.224-.63,1.477,1.477,0,0,1,.49-.266,2.878,2.878,0,0,0,.378-.14,1.258,1.258,0,0,0,.784-1.12.693.693,0,0,0-.294-.546,1.186,1.186,0,0,0-.77-.238,1.436,1.436,0,0,0-.784.2,1.289,1.289,0,0,1-.518-.364,1.05,1.05,0,0,1-.182-.672,1.587,1.587,0,0,1,.42-1.05,3.107,3.107,0,0,1,1.036-.784,2.784,2.784,0,0,1,1.2-.294,2.479,2.479,0,0,1,1.932.77A3.155,3.155,0,0,1-117.572-.224Zm12.46.5a6.589,6.589,0,0,1-4.046-1.26,7.681,7.681,0,0,1-2.562-3.542,14.793,14.793,0,0,1-.868-5.278,14.793,14.793,0,0,1,.868-5.278,7.681,7.681,0,0,1,2.562-3.542,6.589,6.589,0,0,1,4.046-1.26,6.589,6.589,0,0,1,4.046,1.26A7.681,7.681,0,0,1-98.5-15.078,14.793,14.793,0,0,1-97.636-9.8,14.793,14.793,0,0,1-98.5-4.522,7.681,7.681,0,0,1-101.066-.98,6.589,6.589,0,0,1-105.112.28Zm0-3.36A3.143,3.143,0,0,0-102.3-4.788,9.9,9.9,0,0,0-101.276-9.8a9.9,9.9,0,0,0-1.022-5.012,3.143,3.143,0,0,0-2.814-1.708,3.143,3.143,0,0,0-2.814,1.708A9.9,9.9,0,0,0-108.948-9.8a9.9,9.9,0,0,0,1.022,5.012A3.143,3.143,0,0,0-105.112-3.08ZM-87.836-19.6a1.574,1.574,0,0,1,1.176.49,1.679,1.679,0,0,1,.476,1.218V-1.708A1.588,1.588,0,0,1-86.716-.49,1.87,1.87,0,0,1-88.032,0,1.771,1.771,0,0,1-89.32-.49a1.63,1.63,0,0,1-.5-1.218V-14.98l-1.736,1.064a1.713,1.713,0,0,1-.9.252,1.558,1.558,0,0,1-1.19-.532,1.7,1.7,0,0,1-.49-1.176,1.591,1.591,0,0,1,.238-.84,1.733,1.733,0,0,1,.63-.616l4.228-2.52A2.558,2.558,0,0,1-87.836-19.6ZM-65.828-8.4a1.52,1.52,0,0,1,1.12.448,1.52,1.52,0,0,1,.448,1.12,1.44,1.44,0,0,1-.448,1.078,1.546,1.546,0,0,1-1.12.434H-67v3.612a1.654,1.654,0,0,1-.49,1.218A1.654,1.654,0,0,1-68.712,0a1.574,1.574,0,0,1-1.176-.49,1.679,1.679,0,0,1-.476-1.218V-5.32h-7.28a1.668,1.668,0,0,1-1.148-.49,1.529,1.529,0,0,1-.532-1.162,1.707,1.707,0,0,1,.42-1.12l8.848-10.836a1.7,1.7,0,0,1,1.4-.672,1.574,1.574,0,0,1,1.176.49A1.679,1.679,0,0,1-67-17.892V-8.4Zm-9.072,0h4.536V-14ZM-53.7-.224A3.928,3.928,0,0,1-54.18,1.4a5.967,5.967,0,0,1-1.232,1.708,2.259,2.259,0,0,1-1.568.728,1.627,1.627,0,0,1-.98-.266.987.987,0,0,1-.364-.854.771.771,0,0,1,.224-.63,1.477,1.477,0,0,1,.49-.266,2.878,2.878,0,0,0,.378-.14A1.258,1.258,0,0,0-56.448.56a.693.693,0,0,0-.294-.546,1.186,1.186,0,0,0-.77-.238,1.436,1.436,0,0,0-.784.2,1.289,1.289,0,0,1-.518-.364A1.05,1.05,0,0,1-59-1.064a1.587,1.587,0,0,1,.42-1.05A3.108,3.108,0,0,1-57.54-2.9a2.784,2.784,0,0,1,1.2-.294,2.479,2.479,0,0,1,1.932.77A3.155,3.155,0,0,1-53.7-.224ZM-43.4-19.6a1.574,1.574,0,0,1,1.176.49,1.679,1.679,0,0,1,.476,1.218V-1.708A1.588,1.588,0,0,1-42.28-.49,1.87,1.87,0,0,1-43.6,0a1.771,1.771,0,0,1-1.288-.49,1.63,1.63,0,0,1-.5-1.218V-14.98l-1.736,1.064a1.713,1.713,0,0,1-.9.252,1.558,1.558,0,0,1-1.19-.532,1.7,1.7,0,0,1-.49-1.176,1.591,1.591,0,0,1,.238-.84,1.733,1.733,0,0,1,.63-.616l4.228-2.52A2.558,2.558,0,0,1-43.4-19.6Zm13.636-.364a5.785,5.785,0,0,1,3.444,1.078A7.045,7.045,0,0,1-24-16.058a8.773,8.773,0,0,1,.812,3.738A16.169,16.169,0,0,1-23.9-7.826a12.358,12.358,0,0,1-2.6,4.634A10.328,10.328,0,0,1-31.64-.084,2.655,2.655,0,0,1-32.284,0a1.876,1.876,0,0,1-1.2-.378,1.428,1.428,0,0,1-.476-1.19,1.582,1.582,0,0,1,.406-1.078A2.224,2.224,0,0,1-32.48-3.3,8.6,8.6,0,0,0-29.218-5.1a7.714,7.714,0,0,0,2.2-3.08,4.758,4.758,0,0,1-3.192,1.2,5.369,5.369,0,0,1-2.87-.882,6.968,6.968,0,0,1-2.31-2.38,6.19,6.19,0,0,1-.9-3.234,6.315,6.315,0,0,1,.882-3.262A6.535,6.535,0,0,1-33.04-19.1,6.37,6.37,0,0,1-29.764-19.964Zm0,9.912a2.952,2.952,0,0,0,2.254-.98,3.443,3.443,0,0,0,.91-2.436,3.443,3.443,0,0,0-.91-2.436,2.952,2.952,0,0,0-2.254-.98A2.965,2.965,0,0,0-32-15.9a3.414,3.414,0,0,0-.924,2.436A3.414,3.414,0,0,0-32-11.032,2.965,2.965,0,0,0-29.764-10.052ZM-3.808-8.4a1.52,1.52,0,0,1,1.12.448,1.52,1.52,0,0,1,.448,1.12,1.44,1.44,0,0,1-.448,1.078,1.546,1.546,0,0,1-1.12.434H-4.984v3.612A1.654,1.654,0,0,1-5.474-.49,1.654,1.654,0,0,1-6.692,0,1.574,1.574,0,0,1-7.868-.49a1.679,1.679,0,0,1-.476-1.218V-5.32h-7.28a1.668,1.668,0,0,1-1.148-.49A1.529,1.529,0,0,1-17.3-6.972a1.707,1.707,0,0,1,.42-1.12l8.848-10.836a1.7,1.7,0,0,1,1.4-.672,1.574,1.574,0,0,1,1.176.49,1.679,1.679,0,0,1,.476,1.218V-8.4Zm-9.072,0h4.536V-14ZM-92.624,22.84a6.635,6.635,0,0,1,3.346.854,6.217,6.217,0,0,1,2.352,2.338,6.5,6.5,0,0,1,.854,3.3,6.135,6.135,0,0,1-1.064,3.472,7.651,7.651,0,0,1-2.828,2.534,7.987,7.987,0,0,1-3.808.938,8.1,8.1,0,0,1-2.254-.336,5.336,5.336,0,0,1-1.89-.924,2.117,2.117,0,0,1-.56-.784,2.349,2.349,0,0,1-.224-.952,1.223,1.223,0,0,1,.434-.91,1.593,1.593,0,0,1,1.134-.406,2.376,2.376,0,0,1,1.26.532,4.082,4.082,0,0,0,2.072.728,4.551,4.551,0,0,0,2.156-.532,4.341,4.341,0,0,0,1.61-1.428,3.4,3.4,0,0,0,.6-1.932,3.193,3.193,0,0,0-1.036-2.464,3.518,3.518,0,0,0-2.464-.952,3.624,3.624,0,0,0-1.148.168,10.658,10.658,0,0,0-1.2.5q-.5.252-.8.364a1.678,1.678,0,0,1-.6.112,1.861,1.861,0,0,1-1.554-.588,2.2,2.2,0,0,1-.462-1.4,1.855,1.855,0,0,1,.028-.392l.868-6.944a1.6,1.6,0,0,1,.574-.966,1.691,1.691,0,0,1,1.106-.378h8.092a1.52,1.52,0,0,1,1.12.448,1.52,1.52,0,0,1,.448,1.12,1.44,1.44,0,0,1-.448,1.078,1.546,1.546,0,0,1-1.12.434h-6.944l-.532,4.06a5.065,5.065,0,0,1,1.344-.5A6.57,6.57,0,0,1-92.624,22.84Zm19.348,13.44a6.589,6.589,0,0,1-4.046-1.26,7.681,7.681,0,0,1-2.562-3.542,14.793,14.793,0,0,1-.868-5.278,14.793,14.793,0,0,1,.868-5.278,7.681,7.681,0,0,1,2.562-3.542,6.589,6.589,0,0,1,4.046-1.26,6.589,6.589,0,0,1,4.046,1.26,7.681,7.681,0,0,1,2.562,3.542A14.793,14.793,0,0,1-65.8,26.2a14.793,14.793,0,0,1-.868,5.278A7.681,7.681,0,0,1-69.23,35.02,6.589,6.589,0,0,1-73.276,36.28Zm0-3.36a3.143,3.143,0,0,0,2.814-1.708A9.9,9.9,0,0,0-69.44,26.2a9.9,9.9,0,0,0-1.022-5.012,3.143,3.143,0,0,0-2.814-1.708,3.143,3.143,0,0,0-2.814,1.708A9.9,9.9,0,0,0-77.112,26.2a9.9,9.9,0,0,0,1.022,5.012A3.143,3.143,0,0,0-73.276,32.92Zm16.912,2.856A3.928,3.928,0,0,1-56.84,37.4a5.967,5.967,0,0,1-1.232,1.708,2.259,2.259,0,0,1-1.568.728,1.627,1.627,0,0,1-.98-.266.987.987,0,0,1-.364-.854.771.771,0,0,1,.224-.63,1.477,1.477,0,0,1,.49-.266,2.878,2.878,0,0,0,.378-.14,1.258,1.258,0,0,0,.784-1.12.693.693,0,0,0-.294-.546,1.186,1.186,0,0,0-.77-.238,1.436,1.436,0,0,0-.784.2,1.289,1.289,0,0,1-.518-.364,1.05,1.05,0,0,1-.182-.672,1.587,1.587,0,0,1,.42-1.05A3.108,3.108,0,0,1-60.2,33.1a2.784,2.784,0,0,1,1.2-.294,2.479,2.479,0,0,1,1.932.77A3.155,3.155,0,0,1-56.364,35.776Zm11.508-19.74a5.785,5.785,0,0,1,3.444,1.078,7.045,7.045,0,0,1,2.324,2.828,8.773,8.773,0,0,1,.812,3.738,16.169,16.169,0,0,1-.714,4.494,12.358,12.358,0,0,1-2.6,4.634,10.329,10.329,0,0,1-5.138,3.108,2.655,2.655,0,0,1-.644.084,1.876,1.876,0,0,1-1.2-.378,1.428,1.428,0,0,1-.476-1.19,1.582,1.582,0,0,1,.406-1.078,2.224,2.224,0,0,1,1.078-.658A8.6,8.6,0,0,0-44.31,30.9a7.714,7.714,0,0,0,2.2-3.08,4.758,4.758,0,0,1-3.192,1.2,5.369,5.369,0,0,1-2.87-.882,6.968,6.968,0,0,1-2.31-2.38,6.19,6.19,0,0,1-.9-3.234A6.315,6.315,0,0,1-50.5,19.27,6.535,6.535,0,0,1-48.132,16.9,6.37,6.37,0,0,1-44.856,16.036Zm0,9.912a2.952,2.952,0,0,0,2.254-.98,3.443,3.443,0,0,0,.91-2.436A3.443,3.443,0,0,0-42.6,20.1a2.952,2.952,0,0,0-2.254-.98,2.965,2.965,0,0,0-2.24.98,3.414,3.414,0,0,0-.924,2.436,3.414,3.414,0,0,0,.924,2.436A2.965,2.965,0,0,0-44.856,25.948Zm21.924-.168a6.075,6.075,0,0,1,2.058,1.946,4.436,4.436,0,0,1,.742,2.422,5.251,5.251,0,0,1-.882,2.94,6.257,6.257,0,0,1-2.38,2.128,6.986,6.986,0,0,1-3.29.784,6.986,6.986,0,0,1-3.29-.784,6.257,6.257,0,0,1-2.38-2.128,5.251,5.251,0,0,1-.882-2.94A5,5,0,0,1-30.52,25.78a4.708,4.708,0,0,1-1.61-1.512,3.965,3.965,0,0,1-.63-2.24,5.2,5.2,0,0,1,.812-2.828,5.869,5.869,0,0,1,2.2-2.044,6.3,6.3,0,0,1,3.066-.756,6.3,6.3,0,0,1,3.066.756A5.76,5.76,0,0,1-21.434,19.2a5.266,5.266,0,0,1,.8,2.828,3.843,3.843,0,0,1-.658,2.31A4.858,4.858,0,0,1-22.932,25.78Zm-3.752-6.3a2.691,2.691,0,0,0-1.946.742,2.478,2.478,0,0,0-.77,1.862,2.511,2.511,0,0,0,.77,1.89,2.691,2.691,0,0,0,1.946.742,2.629,2.629,0,0,0,1.918-.756A2.523,2.523,0,0,0-24,22.084a2.478,2.478,0,0,0-.77-1.862A2.655,2.655,0,0,0-26.684,19.48Zm0,13.44a3.28,3.28,0,0,0,2.268-.826,2.589,2.589,0,0,0,.924-2,2.618,2.618,0,0,0-.924-2.03,3.28,3.28,0,0,0-2.268-.826,3.28,3.28,0,0,0-2.268.826,2.618,2.618,0,0,0-.924,2.03,2.589,2.589,0,0,0,.924,2A3.28,3.28,0,0,0-26.684,32.92ZM-8.512,22.84a6.635,6.635,0,0,1,3.346.854,6.217,6.217,0,0,1,2.352,2.338,6.5,6.5,0,0,1,.854,3.3,6.135,6.135,0,0,1-1.064,3.472,7.651,7.651,0,0,1-2.828,2.534,7.987,7.987,0,0,1-3.808.938,8.1,8.1,0,0,1-2.254-.336,5.336,5.336,0,0,1-1.89-.924,2.117,2.117,0,0,1-.56-.784,2.349,2.349,0,0,1-.224-.952,1.223,1.223,0,0,1,.434-.91,1.593,1.593,0,0,1,1.134-.406,2.376,2.376,0,0,1,1.26.532,4.082,4.082,0,0,0,2.072.728A4.551,4.551,0,0,0-7.532,32.7a4.341,4.341,0,0,0,1.61-1.428,3.4,3.4,0,0,0,.6-1.932,3.193,3.193,0,0,0-1.036-2.464A3.518,3.518,0,0,0-8.82,25.92a3.624,3.624,0,0,0-1.148.168,10.658,10.658,0,0,0-1.2.5q-.5.252-.8.364a1.678,1.678,0,0,1-.6.112,1.861,1.861,0,0,1-1.554-.588,2.2,2.2,0,0,1-.462-1.4,1.855,1.855,0,0,1,.028-.392l.868-6.944a1.6,1.6,0,0,1,.574-.966,1.691,1.691,0,0,1,1.106-.378H-3.92a1.52,1.52,0,0,1,1.12.448,1.52,1.52,0,0,1,.448,1.12A1.44,1.44,0,0,1-2.8,19.046a1.546,1.546,0,0,1-1.12.434h-6.944l-.532,4.06a5.065,5.065,0,0,1,1.344-.5A6.57,6.57,0,0,1-8.512,22.84Z" transform="translate(1342 5015)" fill="#ed8934"/><path d="M2.24.728a1.258,1.258,0,0,1-.707.154A.789.789,0,0,1,.924.5.786.786,0,0,1,.805-.161.824.824,0,0,1,1.232-.7,11.678,11.678,0,0,0,3.773-2.576,8.076,8.076,0,0,0,5.488-5,7.019,7.019,0,0,0,6.1-7.952V-10.71a.81.81,0,0,1,.259-.637.885.885,0,0,1,.609-.231.878.878,0,0,1,.616.231.821.821,0,0,1,.252.637v2.282A7.424,7.424,0,0,0,8.232-6,8,8,0,0,0,9.324-3.892a10,10,0,0,0,1.61,1.743,10.4,10.4,0,0,0,1.96,1.323.836.836,0,0,1,.413.553.88.88,0,0,1-.1.693.9.9,0,0,1-.609.4,1.03,1.03,0,0,1-.749-.133A11.609,11.609,0,0,1,9-1.666,10.6,10.6,0,0,1,7.07-4.83a9.223,9.223,0,0,1-1.1,2.156A10.843,10.843,0,0,1,4.312-.77,11.257,11.257,0,0,1,2.24.728Zm0,36a1.258,1.258,0,0,1-.707.154A.789.789,0,0,1,.924,36.5a.786.786,0,0,1-.119-.665.824.824,0,0,1,.427-.539,11.678,11.678,0,0,0,2.541-1.876A8.076,8.076,0,0,0,5.488,31,7.019,7.019,0,0,0,6.1,28.048V25.29a.81.81,0,0,1,.259-.637.928.928,0,0,1,1.225,0,.821.821,0,0,1,.252.637v2.282A7.424,7.424,0,0,0,8.232,30a8,8,0,0,0,1.092,2.107,10,10,0,0,0,1.61,1.743,10.4,10.4,0,0,0,1.96,1.323.836.836,0,0,1,.413.553.88.88,0,0,1-.1.693.9.9,0,0,1-.609.4,1.03,1.03,0,0,1-.749-.133A11.609,11.609,0,0,1,9,34.334,10.6,10.6,0,0,1,7.07,31.17a9.223,9.223,0,0,1-1.1,2.156,10.843,10.843,0,0,1-1.659,1.9A11.257,11.257,0,0,1,2.24,36.728Z" transform="translate(1345 5015)" fill="#60432e"/><path d="M-74.256-54.6a4.386,4.386,0,0,1,3.276,1.365,4.678,4.678,0,0,1,1.326,3.393V-4.758a4.425,4.425,0,0,1-1.482,3.393A5.208,5.208,0,0,1-74.8,0,4.934,4.934,0,0,1-78.39-1.365a4.541,4.541,0,0,1-1.4-3.393V-41.73l-4.836,2.964a4.771,4.771,0,0,1-2.5.7,4.341,4.341,0,0,1-3.315-1.482,4.731,4.731,0,0,1-1.365-3.276,4.432,4.432,0,0,1,.663-2.34,4.827,4.827,0,0,1,1.755-1.716L-77.61-53.9A7.126,7.126,0,0,1-74.256-54.6ZM-54.6-.078a4.7,4.7,0,0,1-3.471-1.209A4.7,4.7,0,0,1-59.28-4.758V-6.084a4.7,4.7,0,0,1,1.209-3.471A4.7,4.7,0,0,1-54.6-10.764h1.014a4.7,4.7,0,0,1,3.471,1.209,4.7,4.7,0,0,1,1.209,3.471v1.326a4.7,4.7,0,0,1-1.209,3.471A4.7,4.7,0,0,1-53.586-.078ZM-8.19-54.6a5.326,5.326,0,0,1,3.549,1.287A4.144,4.144,0,0,1-3.12-50a5.336,5.336,0,0,1-.468,2.106L-24.1-2.574A4.51,4.51,0,0,1-25.818-.39a4.543,4.543,0,0,1-2.574.78A4.852,4.852,0,0,1-31.785-.936a4.189,4.189,0,0,1-1.443-3.2A4.971,4.971,0,0,1-32.76-6.24l18.174-39.78H-35.334a4.233,4.233,0,0,1-3.12-1.248,4.233,4.233,0,0,1-1.248-3.12,4.012,4.012,0,0,1,1.248-3,4.305,4.305,0,0,1,3.12-1.209Z" transform="translate(1082 5051)" fill="#ed8934"/><path d="M2.56.048l.816.64,10.08-12.9-.832-.64Zm9.216.48a2.945,2.945,0,0,0,2.16-.816,3.777,3.777,0,0,0,.928-2.768,3.761,3.761,0,0,0-.928-2.752,2.984,2.984,0,0,0-2.16-.816A3.05,3.05,0,0,0,9.6-5.808a3.787,3.787,0,0,0-.928,2.752A3.777,3.777,0,0,0,9.6-.288,2.958,2.958,0,0,0,11.776.528Zm0-5.792a1.152,1.152,0,0,1,1.024.5,2.825,2.825,0,0,1,.432,1.6c0,1.552-.5,2.352-1.456,2.352-.944,0-1.456-.8-1.456-2.272a2.782,2.782,0,0,1,.432-1.664A1.114,1.114,0,0,1,11.776-5.264ZM4.24-5.536A2.945,2.945,0,0,0,6.4-6.352,3.777,3.777,0,0,0,7.328-9.12,3.761,3.761,0,0,0,6.4-11.872a2.984,2.984,0,0,0-2.16-.816c-1.952,0-3.1,1.328-3.1,3.568a3.8,3.8,0,0,0,.928,2.768A2.958,2.958,0,0,0,4.24-5.536Zm0-5.792a1.231,1.231,0,0,1,1.168.72A3.513,3.513,0,0,1,5.7-9.12c0,1.44-.528,2.24-1.456,2.24-.944,0-1.456-.8-1.456-2.272C2.784-10.544,3.312-11.328,4.24-11.328Z" transform="translate(1074 5049)" fill="#60432e"/><path d="M5.5,3A2.5,2.5,0,1,0,8,5.5,2.5,2.5,0,0,0,5.5,3m0-3A5.5,5.5,0,1,1,0,5.5,5.5,5.5,0,0,1,5.5,0Z" transform="translate(888 4999)" fill="#ffd86e"/></g></g></svg>