<svg xmlns="http://www.w3.org/2000/svg" width="51.52" height="48.66" viewBox="0 0 51.52 48.66">
  <g id="グループ_408707" data-name="グループ 408707" transform="translate(-183 -5858.34)">
    <g id="グループ_408710" data-name="グループ 408710">
      <path id="パス_40678" data-name="パス 40678" d="M14.122.46A10.825,10.825,0,0,1,7.475-1.61,12.619,12.619,0,0,1,3.266-7.429,24.3,24.3,0,0,1,1.84-16.1a24.3,24.3,0,0,1,1.426-8.671A12.619,12.619,0,0,1,7.475-30.59a10.825,10.825,0,0,1,6.647-2.07,10.825,10.825,0,0,1,6.647,2.07,12.619,12.619,0,0,1,4.209,5.819A24.3,24.3,0,0,1,26.4-16.1a24.3,24.3,0,0,1-1.426,8.671A12.619,12.619,0,0,1,20.769-1.61,10.825,10.825,0,0,1,14.122.46Zm0-5.52a5.163,5.163,0,0,0,4.623-2.806q1.679-2.806,1.679-8.234t-1.679-8.234a5.163,5.163,0,0,0-4.623-2.806A5.163,5.163,0,0,0,9.5-24.334Q7.82-21.528,7.82-16.1T9.5-7.866A5.163,5.163,0,0,0,14.122-5.06Zm34.822,0a2.5,2.5,0,0,1,1.84.736,2.5,2.5,0,0,1,.736,1.84,2.366,2.366,0,0,1-.736,1.771A2.539,2.539,0,0,1,48.944,0H33.3a2.46,2.46,0,0,1-1.886-.736,2.647,2.647,0,0,1-.69-1.886,2.854,2.854,0,0,1,.828-2.024L41.584-15.364a17.788,17.788,0,0,0,2.691-3.7,7.4,7.4,0,0,0,.989-3.427,4.982,4.982,0,0,0-1.472-3.588,4.607,4.607,0,0,0-3.4-1.518,4.861,4.861,0,0,0-2.691.9,9.957,9.957,0,0,0-2.461,2.369,2.538,2.538,0,0,1-2.116,1.1,2.7,2.7,0,0,1-1.863-.782,2.335,2.335,0,0,1-.851-1.748,2.581,2.581,0,0,1,.46-1.4,10.406,10.406,0,0,1,1.38-1.633A13.869,13.869,0,0,1,36.294-31.6,10.557,10.557,0,0,1,40.71-32.66a10.738,10.738,0,0,1,5.336,1.288,8.945,8.945,0,0,1,3.542,3.542,10.4,10.4,0,0,1,1.242,5.106,12.79,12.79,0,0,1-1.5,5.773A24.567,24.567,0,0,1,45.31-11.27L39.468-5.06Z" transform="translate(183 5891)" fill="#60432e"/>
      <rect id="長方形_52079" data-name="長方形 52079" width="45" height="4" rx="2" transform="translate(183 5903)" fill="#60432e"/>
    </g>
  </g>
</svg>
