<svg xmlns="http://www.w3.org/2000/svg" width="331.913" height="203.91" viewBox="0 0 331.913 203.91"><g transform="translate(-360 -11467.92)"><path d="M42.5,0h246a42.5,42.5,0,0,1,0,85H42.5a42.5,42.5,0,0,1,0-85Z" transform="translate(360 11467.92)" fill="#ffd86e"/><path d="M11.5,0c6.351,0,5.56,12,5.56,12L23,31.912,0,12S5.149,0,11.5,0Z" transform="translate(566 11538.92)" fill="#ffd86e"/><path d="M-107.016,2.054a1.727,1.727,0,0,1-1.95-1.638,1.515,1.515,0,0,1,.429-1.274,2.293,2.293,0,0,1,1.521-.6,2.647,2.647,0,0,0,1.3-.364,1.287,1.287,0,0,0,.312-1.014V-6.11h-9.308a1.432,1.432,0,0,1-1.053-.429,1.432,1.432,0,0,1-.429-1.053,1.444,1.444,0,0,1,.429-1.04,1.41,1.41,0,0,1,1.053-.442h9.308v-2.47h-7.254a1.444,1.444,0,0,1-1.04-.429A1.381,1.381,0,0,1-114.14-13a1.381,1.381,0,0,1,.442-1.027,1.444,1.444,0,0,1,1.04-.429h7.254v-2.652q-1.872.182-3.77.286t-3.718.13a1.552,1.552,0,0,1-1.17-.39,1.546,1.546,0,0,1-.468-1.118,1.246,1.246,0,0,1,.442-1.066,1.805,1.805,0,0,1,1.2-.39q1.872-.026,4.017-.156t4.29-.377q2.145-.247,4.1-.572t3.458-.715a1.687,1.687,0,0,1,1.313.1,1.414,1.414,0,0,1,.715.884,1.777,1.777,0,0,1-.091,1.261,1.348,1.348,0,0,1-1,.715q-1.326.286-2.821.546t-3.107.468v3.042h6.734a1.444,1.444,0,0,1,1.04.429A1.381,1.381,0,0,1-93.808-13a1.381,1.381,0,0,1-.442,1.027,1.444,1.444,0,0,1-1.04.429h-6.734v2.47h8.788a1.41,1.41,0,0,1,1.053.442,1.444,1.444,0,0,1,.429,1.04,1.432,1.432,0,0,1-.429,1.053,1.432,1.432,0,0,1-1.053.429h-8.788v3.666A4.435,4.435,0,0,1-103.194,1,5.644,5.644,0,0,1-107.016,2.054Zm22.854.416a1.3,1.3,0,0,1-.936-.377,1.234,1.234,0,0,1-.39-.923V-2.288H-89.05a1.183,1.183,0,0,1-.884-.377,1.247,1.247,0,0,1-.364-.9,1.2,1.2,0,0,1,.364-.884,1.2,1.2,0,0,1,.884-.364h3.562V-6.266a4.374,4.374,0,0,1-3-.91,3.949,3.949,0,0,1-.871-2.886v-1.69a3.9,3.9,0,0,1,.871-2.886,4.471,4.471,0,0,1,3-.884v-1.3h-3.458a1.174,1.174,0,0,1-.858-.364,1.174,1.174,0,0,1-.364-.858,1.132,1.132,0,0,1,.364-.845,1.2,1.2,0,0,1,.858-.351h3.458v-1.482a1.254,1.254,0,0,1,.39-.962,1.324,1.324,0,0,1,.936-.364,1.324,1.324,0,0,1,.936.364,1.254,1.254,0,0,1,.39.962v1.482h3.068a1.152,1.152,0,0,1,.845.351,1.152,1.152,0,0,1,.351.845,1.2,1.2,0,0,1-.351.858,1.132,1.132,0,0,1-.845.364h-3.068v1.3a4.461,4.461,0,0,1,3.016.884,3.933,3.933,0,0,1,.858,2.886v.208a1.27,1.27,0,0,1,.351-.364,1.6,1.6,0,0,1,.507-.234,13.879,13.879,0,0,0,1.781-.754,18.7,18.7,0,0,0,1.677-.962A13.594,13.594,0,0,1-77.038-18.3h-.806a1.174,1.174,0,0,1-.858-.364,1.174,1.174,0,0,1-.364-.858A1.161,1.161,0,0,1-78.7-20.4a1.2,1.2,0,0,1,.858-.351h6.526a4.537,4.537,0,0,1,2.652.65,2.141,2.141,0,0,1,.962,1.7,3.91,3.91,0,0,1-.806,2.327q-.416.6-.884,1.157t-.988,1.1a15.111,15.111,0,0,0,3.406,1.612,1.373,1.373,0,0,1,.9.793,1.383,1.383,0,0,1-.013,1.157,1.4,1.4,0,0,1-.884.806,2,2,0,0,1-1.3-.078,16.929,16.929,0,0,1-4.342-2.392,17.622,17.622,0,0,1-2.08,1.3A18.833,18.833,0,0,1-77.09-9.542a1.8,1.8,0,0,1-1.079.078,1.274,1.274,0,0,1-.793-.6,3.983,3.983,0,0,1-.858,2.9,4.412,4.412,0,0,1-3.016.9V-4.81h3.25a1.247,1.247,0,0,1,.9.364,1.183,1.183,0,0,1,.377.884,1.225,1.225,0,0,1-.377.9,1.225,1.225,0,0,1-.9.377h-3.25V1.144a1.254,1.254,0,0,1-.39.962A1.324,1.324,0,0,1-84.162,2.47Zm5.512-1.2a1.234,1.234,0,0,1-.923-.39,1.268,1.268,0,0,1-.377-.91,1.3,1.3,0,0,1,.377-.936,1.234,1.234,0,0,1,.923-.39h4.524V-4.446h-3.016a1.277,1.277,0,0,1-.936-.39,1.307,1.307,0,0,1-.39-.962,1.277,1.277,0,0,1,.39-.936,1.277,1.277,0,0,1,.936-.39h3.016V-9.152a1.358,1.358,0,0,1,.416-1.04,1.4,1.4,0,0,1,.988-.39,1.383,1.383,0,0,1,1,.39,1.381,1.381,0,0,1,.4,1.04v2.028h3.2a1.277,1.277,0,0,1,.936.39,1.277,1.277,0,0,1,.39.936,1.307,1.307,0,0,1-.39.962,1.277,1.277,0,0,1-.936.39h-3.2v3.094h4.29a1.234,1.234,0,0,1,.923.39,1.3,1.3,0,0,1,.377.936,1.268,1.268,0,0,1-.377.91,1.234,1.234,0,0,1-.923.39ZM-72.462-15.6q.364-.364.689-.754a7.64,7.64,0,0,0,.559-.754q.442-.65.26-.923t-.936-.273H-74.2a13.178,13.178,0,0,0,.767,1.417A8.813,8.813,0,0,0-72.462-15.6ZM-82.836-8.528a1.791,1.791,0,0,0,1.183-.351,1.668,1.668,0,0,0,.273-1.1h-1.456Zm-2.652,0V-9.984h-1.456a1.756,1.756,0,0,0,.3,1.1A1.744,1.744,0,0,0-85.488-8.528Zm2.652-3.354h1.456a1.618,1.618,0,0,0-.286-1.092,1.749,1.749,0,0,0-1.17-.364Zm-4.108,0h1.456v-1.456a1.7,1.7,0,0,0-1.144.364A1.706,1.706,0,0,0-86.944-11.882Zm27.69,12.3a1.541,1.541,0,0,1-1.17-.26,1.551,1.551,0,0,1-.65-.988q-.234-1.326-.364-3.081t-.13-3.705q0-1.95.1-3.926t.325-3.783q.221-1.807.533-3.237a1.477,1.477,0,0,1,.676-.975,1.516,1.516,0,0,1,1.17-.221,1.589,1.589,0,0,1,.975.689,1.527,1.527,0,0,1,.221,1.183,35.813,35.813,0,0,0-.65,4q-.234,2.158-.3,4.381t.065,4.316a32.744,32.744,0,0,0,.442,3.809,1.388,1.388,0,0,1-.247,1.144A1.6,1.6,0,0,1-59.254.416Zm10.66-1.4A8.454,8.454,0,0,1-53.625-2.21,5.145,5.145,0,0,1-55.614-5.8a1.467,1.467,0,0,1,.273-1.144,1.514,1.514,0,0,1,1.027-.624,1.557,1.557,0,0,1,1.144.3,1.514,1.514,0,0,1,.624,1.027A2.187,2.187,0,0,0-51.48-4.576a6.024,6.024,0,0,0,2.964.546,22.755,22.755,0,0,0,4.706-.6,1.409,1.409,0,0,1,1.17.208,1.523,1.523,0,0,1,.676.988A1.45,1.45,0,0,1-42.2-2.275a1.641,1.641,0,0,1-.988.689,19.805,19.805,0,0,1-2.795.468Q-47.372-.988-48.594-.988Zm-4.758-12.87a1.478,1.478,0,0,1-1.157-.221,1.5,1.5,0,0,1-.663-1,1.516,1.516,0,0,1,.221-1.17,1.4,1.4,0,0,1,1-.65,22.982,22.982,0,0,1,3.25-.377q1.794-.091,3.562-.026a23.556,23.556,0,0,1,3.12.3A1.456,1.456,0,0,1-43-16.367a1.5,1.5,0,0,1,.234,1.183,1.412,1.412,0,0,1-.637,1,1.566,1.566,0,0,1-1.157.247,24.771,24.771,0,0,0-4.368-.351A24.031,24.031,0,0,0-53.352-13.858ZM-35.438,1.3a1.588,1.588,0,0,1-1.118.351,1.366,1.366,0,0,1-.988-.455,1.386,1.386,0,0,1-.325-.975,1.086,1.086,0,0,1,.429-.9,16.279,16.279,0,0,0,2.119-1.911A14.49,14.49,0,0,0-33.7-4.706a14.178,14.178,0,0,0-1.352-.91,5.413,5.413,0,0,1-1.43-1.144,2.16,2.16,0,0,1-.507-1.274,6.048,6.048,0,0,1,.195-1.69q.208-.858.442-1.833t.416-1.989H-37.1a1.254,1.254,0,0,1-.962-.39,1.324,1.324,0,0,1-.364-.936,1.324,1.324,0,0,1,.364-.936,1.254,1.254,0,0,1,.962-.39h1.664q.208-1.222.377-2.314t.247-1.9a1.316,1.316,0,0,1,.507-.923,1.524,1.524,0,0,1,1.079-.273,1.3,1.3,0,0,1,1,.533,1.363,1.363,0,0,1,.247,1.079q-.13.806-.3,1.781t-.377,2.015h1.014q3.172,0,3.016,3.2A22.684,22.684,0,0,1-30.16-5.564,20.446,20.446,0,0,1-27.9-3.536a1.468,1.468,0,0,1,.442,1.079,1.428,1.428,0,0,1-.468,1.079,1.519,1.519,0,0,1-1.04.429A1.343,1.343,0,0,1-30-1.4q-.338-.39-.715-.78t-.819-.78A16.132,16.132,0,0,1-33.267-.741,22.355,22.355,0,0,1-35.438,1.3Zm14.17.026A10.043,10.043,0,0,1-24.622.884,2.757,2.757,0,0,1-26.286-.65a8.022,8.022,0,0,1-.468-3.068,8.022,8.022,0,0,1,.468-3.068A2.757,2.757,0,0,1-24.622-8.32a10.043,10.043,0,0,1,3.354-.442,10.043,10.043,0,0,1,3.354.442A2.757,2.757,0,0,1-16.25-6.786a8.023,8.023,0,0,1,.468,3.068A8.023,8.023,0,0,1-16.25-.65,2.757,2.757,0,0,1-17.914.884,10.043,10.043,0,0,1-21.268,1.326Zm6.474-11a1.409,1.409,0,0,1-1.079.143,1.305,1.305,0,0,1-.871-.663,6.672,6.672,0,0,0-.312-.6q-.182-.312-.39-.65-.884.1-2.119.26t-2.561.3q-1.326.143-2.535.26t-2.041.169a1.575,1.575,0,0,1-1.183-.377,1.507,1.507,0,0,1-.481-1,1.559,1.559,0,0,1,.325-1.053,1.342,1.342,0,0,1,1.079-.481q.208,0,.429-.013t.481-.013q.234-.676.546-1.625t.637-1.963q.325-1.014.6-1.937t.4-1.547a1.591,1.591,0,0,1,.728-1,1.634,1.634,0,0,1,1.2-.195,1.472,1.472,0,0,1,.923.663,1.366,1.366,0,0,1,.143,1.209q-.208.728-.585,1.82l-.78,2.262q-.4,1.17-.767,2.106,1.066-.078,2.132-.169t1.95-.143q-.338-.572-.663-1.079t-.611-.9a1.124,1.124,0,0,1-.182-.962,1.186,1.186,0,0,1,.6-.78,1.476,1.476,0,0,1,1.079-.156,1.489,1.489,0,0,1,.9.6q.39.494.871,1.209t.988,1.508q.507.793.962,1.508t.741,1.235a1.541,1.541,0,0,1,.169,1.144A1.448,1.448,0,0,1-14.794-9.672ZM-21.268-1.43a5.268,5.268,0,0,0,1.6-.182,1.092,1.092,0,0,0,.715-.689,4.459,4.459,0,0,0,.182-1.443,4.113,4.113,0,0,0-.182-1.391,1.134,1.134,0,0,0-.715-.676,4.937,4.937,0,0,0-1.6-.2,5.288,5.288,0,0,0-1.586.182,1.1,1.1,0,0,0-.728.663,4.113,4.113,0,0,0-.182,1.391,4.355,4.355,0,0,0,.182,1.417,1.169,1.169,0,0,0,.728.715A4.666,4.666,0,0,0-21.268-1.43Zm-11.206-5.8A14.047,14.047,0,0,0-31.8-9.685a21.74,21.74,0,0,0,.312-2.639,1.273,1.273,0,0,0-.195-.975,1.309,1.309,0,0,0-.923-.247h-.6q-.234,1.2-.468,2.249t-.442,1.859a1.708,1.708,0,0,0-.026.975,1.627,1.627,0,0,0,.78.715,4.485,4.485,0,0,1,.429.247Q-32.708-7.358-32.474-7.228ZM1.742.1A1.6,1.6,0,0,1,.611-.273,1.471,1.471,0,0,1,.078-1.326,1.523,1.523,0,0,1,.442-2.47a1.41,1.41,0,0,1,1.066-.52A7.124,7.124,0,0,0,5.863-4.563,4.823,4.823,0,0,0,7.384-8.346,4.256,4.256,0,0,0,6.37-11.167,5.57,5.57,0,0,0,3.588-12.9,22.685,22.685,0,0,1,1.04-7.7l.468.364q.234.182.442.338a1.507,1.507,0,0,1,.637,1A1.553,1.553,0,0,1,2.34-4.81a1.507,1.507,0,0,1-1,.637A1.423,1.423,0,0,1,.182-4.446Q-.364-4.836-.91-5.3A13.048,13.048,0,0,1-2.47-3.926,16.754,16.754,0,0,1-4.212-2.782,5.619,5.619,0,0,1-7.319-2,3.44,3.44,0,0,1-9.75-3.159a4.291,4.291,0,0,1-.936-2.951,8.566,8.566,0,0,1,.962-4.043,10.344,10.344,0,0,1,2.548-3.159,25.311,25.311,0,0,1-1.664-3.51A1.384,1.384,0,0,1-8.775-18a1.552,1.552,0,0,1,.9-.793,1.485,1.485,0,0,1,1.183.078,1.5,1.5,0,0,1,.793.884q.234.7.559,1.43t.715,1.482a12.777,12.777,0,0,1,2.691-.91,13.321,13.321,0,0,1,2.873-.312h.39q.182-.676.325-1.378t.273-1.43a1.514,1.514,0,0,1,.624-1.027,1.432,1.432,0,0,1,1.17-.247,1.5,1.5,0,0,1,1,.624,1.512,1.512,0,0,1,.273,1.17q-.1.7-.26,1.378L4.42-15.7a8.538,8.538,0,0,1,4.42,2.717,7.021,7.021,0,0,1,1.612,4.641,8.466,8.466,0,0,1-1.04,4.251A7.579,7.579,0,0,1,6.435-1.183,11.3,11.3,0,0,1,1.742.1ZM-5.694-5.382A10.721,10.721,0,0,0-3.016-7.436a35,35,0,0,1-2.6-3.38A6.318,6.318,0,0,0-7.644-6.24a1.1,1.1,0,0,0,.52,1.079A1.546,1.546,0,0,0-5.694-5.382Zm4.55-4.5q.442-.754.858-1.6a16.386,16.386,0,0,0,.754-1.807,10.932,10.932,0,0,0-1.911.26,9.746,9.746,0,0,0-1.677.546A23.361,23.361,0,0,0-1.144-9.88ZM23.868.936a1.527,1.527,0,0,1-1.1-.442A1.554,1.554,0,0,1,22.282-.6a1.527,1.527,0,0,1,.442-1.1,1.554,1.554,0,0,1,1.092-.481q7.28-.13,7.28-4.16a2.555,2.555,0,0,0-.91-2.08,3.669,3.669,0,0,0-2.418-.754,8.227,8.227,0,0,0-3.445.819A9.826,9.826,0,0,0,21.086-5.9a1.435,1.435,0,0,1-.871.481,1.492,1.492,0,0,1-.975-.143,1.31,1.31,0,0,1-.65-.663,1.625,1.625,0,0,1-.13-.949q.182-1.092.4-2.366t.481-2.587q.26-1.313.52-2.431a1.392,1.392,0,0,1,.689-.975,1.532,1.532,0,0,1,1.183-.169,1.516,1.516,0,0,1,.962.715,1.5,1.5,0,0,1,.182,1.183q-.182.728-.429,1.677t-.507,2.015a10.492,10.492,0,0,1,5.9-2.028,7.3,7.3,0,0,1,3.354.728,5.42,5.42,0,0,1,2.223,2.028,5.725,5.725,0,0,1,.793,3.042,6.289,6.289,0,0,1-2.548,5.226Q29.12.858,23.868.936Zm4.16-16.276q-.832-.416-1.885-.9t-2.106-.936q-1.053-.455-1.859-.767a1.33,1.33,0,0,1-.78-.858,1.584,1.584,0,0,1,.052-1.2,1.45,1.45,0,0,1,.884-.793,1.723,1.723,0,0,1,1.2.039q.858.338,1.859.767T27.4-19.1q1.014.455,1.846.871a1.674,1.674,0,0,1,.819.871,1.515,1.515,0,0,1,.013,1.183,1.612,1.612,0,0,1-.858.832A1.44,1.44,0,0,1,28.028-15.34ZM46.956,1.95a1.453,1.453,0,0,1-1.066-.442A1.453,1.453,0,0,1,45.448.442v-5.72q-.442.676-.871,1.339t-.793,1.261a1.4,1.4,0,0,1-.975.663,1.538,1.538,0,0,1-1.157-.221,1.507,1.507,0,0,1-.637-1,1.476,1.476,0,0,1,.247-1.157q.754-1.014,1.833-2.561t2.353-3.159v-3.328a.953.953,0,0,1-.182.039.642.642,0,0,0-.208.065q-.286.052-.819.208l-1.014.3q-.481.143-.663.195a1.548,1.548,0,0,1-1.17-.208,1.535,1.535,0,0,1-.7-.988A1.516,1.516,0,0,1,40.911-15a1.477,1.477,0,0,1,.975-.676q.234-.052.728-.169t1.053-.234q.559-.117.949-.195a7.016,7.016,0,0,1,.832-.156v-3.744a1.453,1.453,0,0,1,.442-1.066,1.453,1.453,0,0,1,1.066-.442,1.453,1.453,0,0,1,1.066.442,1.453,1.453,0,0,1,.442,1.066v4.264a2.15,2.15,0,0,1,.728.832,2.261,2.261,0,0,1,.26.728,13.608,13.608,0,0,1,2.431-1.638,5.207,5.207,0,0,1,2.405-.624A4.37,4.37,0,0,1,58.344-14.7q1.17,1.911.416,6.1-.286,1.664-.416,2.665a10.74,10.74,0,0,0-.117,1.521,1.694,1.694,0,0,0,.13.728.934.934,0,0,0,.325.338,1.566,1.566,0,0,0,1.326.039,4.636,4.636,0,0,0,1.534-1.053,1.324,1.324,0,0,1,1.118-.364,1.593,1.593,0,0,1,1.066.572A1.416,1.416,0,0,1,64.1-3.029,1.674,1.674,0,0,1,63.57-1.95,6.807,6.807,0,0,1,60.138-.091,4.864,4.864,0,0,1,56.81-.546a3.172,3.172,0,0,1-1.3-1.4,5.4,5.4,0,0,1-.39-2.366,24.279,24.279,0,0,1,.442-3.77,16.967,16.967,0,0,0,.364-3.471,2.346,2.346,0,0,0-.507-1.612,1.8,1.8,0,0,0-1.287-.429,3.351,3.351,0,0,0-1.716.572,11.5,11.5,0,0,0-1.937,1.534,29.011,29.011,0,0,0-2.015,2.158V.442a1.453,1.453,0,0,1-.442,1.066A1.453,1.453,0,0,1,46.956,1.95Zm30.966-.832A6.035,6.035,0,0,1,74.191-.026a3.489,3.489,0,0,1-1.313-2.99,3.606,3.606,0,0,1,.637-1.95,3.633,3.633,0,0,1,1.6-1.261,4.67,4.67,0,0,1,2.314-.3A3.666,3.666,0,0,1,80.34-5.109a3.531,3.531,0,0,1,.494,2.821,3.825,3.825,0,0,0,1.495-1.287,3.782,3.782,0,0,0,.585-2.2A3.079,3.079,0,0,0,82.329-7.6a3.814,3.814,0,0,0-1.638-1.274,5.309,5.309,0,0,0-2.431-.377,8.144,8.144,0,0,0-2.964.819,12.222,12.222,0,0,0-3.25,2.353,1.592,1.592,0,0,1-1.17.429,1.47,1.47,0,0,1-1.144-.533,1.55,1.55,0,0,1-.377-1.131,1.28,1.28,0,0,1,.533-1q1.612-1.222,3.224-2.587T76.193-13.6q1.469-1.326,2.587-2.418.7-.676.481-1.118t-1.131-.312q-.884.1-2.015.26T74-16.9a1.441,1.441,0,0,1-1.144-.286,1.467,1.467,0,0,1-.6-1.04,1.4,1.4,0,0,1,.286-1.131,1.578,1.578,0,0,1,1.04-.611q.572-.078,1.443-.156t1.794-.156q.923-.078,1.573-.13a4.979,4.979,0,0,1,2.756.442A3.028,3.028,0,0,1,82.6-18.421a3.108,3.108,0,0,1,.039,2.119,4.818,4.818,0,0,1-1.5,2.158q-.52.442-1.313,1.144t-1.625,1.43a7.9,7.9,0,0,1,2.886-.039,6.343,6.343,0,0,1,2.509,1,5.417,5.417,0,0,1,1.755,1.989,6.14,6.14,0,0,1,.65,2.9,6.868,6.868,0,0,1-1.04,3.913A5.991,5.991,0,0,1,82.108.455,10.734,10.734,0,0,1,77.922,1.118Zm-.468-2.886h.156a1.822,1.822,0,0,1,.195.013,1.006,1.006,0,0,0,.273-.013,1.858,1.858,0,0,0,.13-1.43,1.1,1.1,0,0,0-.936-.676,1.555,1.555,0,0,0-1.027.169.977.977,0,0,0-.455.793Q75.764-1.872,77.454-1.768ZM104-4.758a1.292,1.292,0,0,1-.91-.364,1.382,1.382,0,0,1-.442-.91q-.078-.988-.143-2.262t-.143-2.613q-.078-1.339-.13-2.561t-.078-2.158q-.026-.936-.026-1.378v-2.574a1.711,1.711,0,0,1,.533-1.274,1.84,1.84,0,0,1,1.339-.52,1.873,1.873,0,0,1,1.365.52,1.711,1.711,0,0,1,.533,1.274V-17q0,.442-.039,1.378t-.091,2.158q-.052,1.222-.117,2.561t-.143,2.613q-.078,1.274-.156,2.262a1.282,1.282,0,0,1-.416.91A1.324,1.324,0,0,1,104-4.758Zm0,6.344a2.128,2.128,0,0,1-1.56-.65,2.128,2.128,0,0,1-.65-1.56,2.128,2.128,0,0,1,.65-1.56,2.128,2.128,0,0,1,1.56-.65,2.128,2.128,0,0,1,1.56.65,2.128,2.128,0,0,1,.65,1.56,2.128,2.128,0,0,1-.65,1.56A2.128,2.128,0,0,1,104,1.586Z" transform="translate(526 11521.92)" fill="#60432e" opacity="0.999"/><path d="M122.4,268.036s-1.19-2.1-5.689-4.378-6.214-3.995-6.637-5.609c0,0,5.79-2.461,6.416-7.626,0,0,4.3-1.009,4.237-3.571s-1.049-3.34-1.049-3.34,1.706-1.321,1.751-2.753a33.57,33.57,0,0,0-1.952-9.139c-1.029-2.32-3.712-6.7-6.557-8.292a21.193,21.193,0,0,0-9.845-2.885h-.444l-.484-2.239s-1.513-4.4-3.551-5.629-7.323-2.845-9.6-4.479-8.292-3.026-9.5-6.516-1.15-3.853-1.15-3.853,4.963-4.681,5.548-8.312c0,0,5.007-.755,5.044-4.761s-1.15-4.664-2.925-5.045c0,0,.242-8.31-.989-11.276s-7.767-9.785-10.451-10.229-7.052-.777-7.052-.777-14.606-.675-16.754,9.39.086,12.375.086,12.375-4.619,2.249-3.077,5.731.875,3.712,5.063,4.379c0,0,.806,6.122,4.9,8.331a6.878,6.878,0,0,1-1.013,4.143c-1.243,1.726-3.659,3.936-7.917,5.938s-12.589,6.221-12.658,6.252.973-3.526-.378-6.185-3.925-6.585-3.925-6.585a3.119,3.119,0,0,0-3.208.549c-1.688,1.308-2.153,1.182-2.153,1.182l-5.065-13.971s-1.9-1.942-2.7-.844-.633,2.026-1.435,2.364-1.52.5-1.182,2.109.507,2.491.507,2.491-1.646-.844-1.773.8-.422,11.987,1.984,17.812,2.7,7.948,6.205,9.37v1.773H21.243s-1.175.042-.968.971.757,18.572,1.052,21.189,1.055,13.38,10.172,13.887c0,0,7.393,1.815,9.627-9.328l1.305.042.675,24.415h80.93c0-.884.021-1.768.018-2.653M32.994,211.1a2.368,2.368,0,0,1-2.061,1.291,3.269,3.269,0,0,1-3.072-2.31,4.759,4.759,0,0,1,.391-3.007,2.1,2.1,0,0,1,.839-1.091A1.849,1.849,0,0,1,30.5,205.8a1.509,1.509,0,0,1,.469.2,1.621,1.621,0,0,1,.9.493,5.619,5.619,0,0,1,1.335,2.42,3.208,3.208,0,0,1-.213,2.185" transform="translate(567.762 11395.537)" fill="#fff"/><path d="M271.8,1106.3c-.393-.96-.682-1.974-1.171-2.9a11.058,11.058,0,0,0-1.474-2.135q-.244-.278-.5-.539a21.253,21.253,0,0,0-5.466-3.662c-1-.516-2.041-.93-3.084-1.356-.539-.221-1.077-.445-1.606-.688a11.46,11.46,0,0,0-1.56-.8c-.27.169-.568.371-.9.607-2.241,1.8-14.446,10.632-14.446,10.632s-.756,1.026-1.944,0-14.311-10.422-14.311-10.422h0c-.668-.406-1.311-.852-1.947-1.309-.171-.1-.342-.206-.512-.311-1.118.577-3.154,1.594-5.484,2.587-3.535,1.508-8.369,3.067-9.253,4.626s-3.015,5.666-3.119,6.6a14.265,14.265,0,0,0,.364,3.073s0,.462-3.327,1.034c-3.534.806-8.941-.966-8.993,1.247-.156,1.144.312,18.506.52,20.793s-.26,6.238,3.327,9.981,3.015,3.639,6.134,4.055c8.151,1.621,9.77-4.035,10.293-10.085.208-1.975,1.611-.78,1.611-.364s.639,25.492.639,25.492h35.794c0-.915-.007-1.829-.033-2.742a21.456,21.456,0,0,1,.036-2.521c.6-7.089,5.41-6.157,10.044-8.93a7.406,7.406,0,0,0,2.433-3.589,19.878,19.878,0,0,1-3.271-2.775,8.809,8.809,0,0,1-2.691-5.058c-4-.279-5.906-4.458-2.518-7.1-2.533-1.862-2.144-6.383-1.485-9.111,1.583-4.852,4.869-12.53,11.107-11.33a9.093,9.093,0,0,1,5.906-2.044,6.009,6.009,0,0,0,1.211-.127,3.351,3.351,0,0,0-.314-.828" transform="translate(398.913 10508.991)" fill="#dce4eb"/><path d="M746.7,1103.854a1.71,1.71,0,0,0-.851.33c-.153.1-.3.211-.449.318l-.005,0-.184.135-3.262,2.347-.046.033c-3.237,2.327-6.583,4.733-9.864,7.139a1.611,1.611,0,0,1-.945.389,1.673,1.673,0,0,1-.973-.406c-3.611-2.646-7.3-5.3-10.87-7.86l-.3-.214-2.1-1.508c-.073-.052-.148-.11-.221-.167a1.965,1.965,0,0,0-1.058-.515h-.051a.757.757,0,0,0-.784.491c-.236.641.175,1.006.616,1.324l.944.681c4.546,3.278,9.247,6.668,13.867,10.014a1.6,1.6,0,0,0,.932.357,1.414,1.414,0,0,0,.836-.307c4.367-3.16,8.753-6.323,12.995-9.383l1.908-1.376c.489-.353.933-.8.52-1.426a.775.775,0,0,0-.657-.4" transform="translate(-95.115 10499.103)" fill="#3a3d3f"/><path d="M1228.581,934.542l-.049-.095a10.921,10.921,0,0,0-1.711-2.42,13.011,13.011,0,0,0-4.408-2.973c-.578-.25-1.193-.512-1.688-.722l-.042-.018a69.274,69.274,0,0,1-8.636-4.162l-.061-.036c-2.12-1.275-4.312-2.594-5.5-4.967a14.571,14.571,0,0,1-.925-2.427c-.167-.557-.436-.828-.824-.828a1,1,0,0,0-.281.044c-.518.152-.693.564-.537,1.26.033.146.077.292.119.433.017.058.035.115.051.173a10.707,10.707,0,0,0,2.131,4,14.67,14.67,0,0,0,3.457,2.937,76.269,76.269,0,0,0,11.805,5.785,11.212,11.212,0,0,1,4.318,2.977,8.57,8.57,0,0,1,1.344,2.167c.058.133.11.277.161.417a4.987,4.987,0,0,0,.279.666,1.882,1.882,0,0,0,.227.337,1.211,1.211,0,0,0,.854.425.653.653,0,0,0,.622-.431c.279-.656-.359-1.88-.7-2.538" transform="translate(-558.411 10677.115)" fill="#3a3d3f"/><path d="M29.655,791.851l0-.085c-.134-4.646-.273-9.451-.412-14.176q-.1-3.526-.211-7.052c-.022-.71-.024-1.428-.027-2.123a28.285,28.285,0,0,0-.441-5.912c-.169-.781-.388-1.564-.6-2.322-.155-.555-.315-1.13-.455-1.7-.162-.662-.318-1.336-.469-1.988-.16-.7-.326-1.414-.5-2.119l0-.011c-.112-.449-.378-.721-.728-.748l-.058,0a.959.959,0,0,0-.264.039c-.524.149-.726.594-.57,1.252.19.8.395,1.616.593,2.4.344,1.367.7,2.78.992,4.183a37.087,37.087,0,0,1,.746,6.664c.078,2.968.172,5.979.265,8.916-.29-2.1-.731-4.178-1.164-6.218v-.006c-.173-.815-.352-1.657-.518-2.485-.575-2.871-1.394-5.741-2.188-8.521-.374-1.309-.76-2.663-1.116-4-.281-1.056-.674-1.527-1.273-1.527a2.616,2.616,0,0,0-1.239.437l-.048.027a2.955,2.955,0,0,1-.026-.626,3.057,3.057,0,0,1,.532-1.25l.018-.03a20.434,20.434,0,0,0,2.533-5.738c.182-.131.366-.259.552-.383.283-.188.558-.39.824-.586a12.164,12.164,0,0,1,1.432-.952,25.866,25.866,0,0,1,2.511-1.128l.133-.054c.453-.184.92-.375,1.377-.575A57.732,57.732,0,0,0,40.257,737.9a11.193,11.193,0,0,0,4.414-6.452,1.46,1.46,0,0,0,.005-1.071.826.826,0,0,0-.531-.369,1.025,1.025,0,0,0-.268-.039c-.535,0-.732.513-.845.96a9.425,9.425,0,0,1-1.868,3.735,12.771,12.771,0,0,1-3.187,2.73,77.324,77.324,0,0,1-10.791,5.3l-.553.237a17.9,17.9,0,0,0-3.254,1.821c0-.037,0-.075.006-.112a10.089,10.089,0,0,0-.881-4.739,17.446,17.446,0,0,0-1.157-1.979c-.321-.5-.652-1.011-.936-1.54-.121-.225-.24-.463-.355-.693a5.158,5.158,0,0,0-2.3-2.779,2.665,2.665,0,0,0-1.014-.2,6.741,6.741,0,0,0-3.671,1.65l-.03.022-.011-.036c-1.165-3.822-2.371-7.774-3.881-11.547a7,7,0,0,0-1.414-2.453,2.786,2.786,0,0,0-1.959-.775,2.278,2.278,0,0,0-1.744.714,1.959,1.959,0,0,0-.4,1.615l0,.026-.026,0a3.051,3.051,0,0,0-1.93.789c-.633.733-.416,1.776-.207,2.784.041.2.083.4.116.592a.7.7,0,0,1-.035.469.734.734,0,0,1-.434.278c-.045.016-.092.032-.136.05-.679.279-1,1.077-.982,2.439a66.219,66.219,0,0,0,2.477,18.093c.735,2.48,1.889,5.563,4.307,7.408.07.054.142.107.214.16a3.347,3.347,0,0,1,.967.938,1.918,1.918,0,0,1,.235.7,4.474,4.474,0,0,0-.5-.03A1.623,1.623,0,0,0,6.488,757a2.125,2.125,0,0,0-.437,1.577q.052,2.517.1,5.035v.031c.1,4.916.2,10,.324,15.01A21.073,21.073,0,0,0,8.017,786.9c2.281,5.05,5.659,7.5,10.329,7.505h0c.274,0,.556-.009.838-.026,3.95-.237,6.517-2.051,7.849-5.545a12.4,12.4,0,0,0,.724-3.9q.012.391.024.782l0,.061c0,1.244.056,2.505.108,3.73.045,1.051.091,2.138.1,3.207.021,1.732.084,3.564.151,5.5.111,3.214.226,6.537.137,9.47a.835.835,0,0,0,.716.964,1.139,1.139,0,0,0,.182.015.846.846,0,0,0,.849-.78,5.843,5.843,0,0,0,.056-1.257c-.145-4.875-.29-9.912-.431-14.784M4.326,747.133a62.89,62.89,0,0,1-2.668-17.372,2.09,2.09,0,0,1,.281-1.317l.012-.015.018.006c.578.2.783.873.906,1.508l1.5,7.683a2.434,2.434,0,0,0,.375,1.04.913.913,0,0,0,.688.362.587.587,0,0,0,.273-.065c.342-.177.456-.632.337-1.351a63.235,63.235,0,0,0-1.977-9.141c-.1-.316-.211-.636-.316-.946a21.9,21.9,0,0,1-.81-2.777,1.114,1.114,0,0,1,.083-.871.629.629,0,0,1,.528-.246.945.945,0,0,1,.637.251,2.31,2.31,0,0,1,.535,1.153l2.817,11.292c.159.637.537,1.279,1.024,1.279a.619.619,0,0,0,.185-.029c.531-.167.56-.921.41-1.571A137.19,137.19,0,0,0,5.5,722.33a.979.979,0,0,1-.008-.9.565.565,0,0,1,.465-.212.785.785,0,0,1,.394.107,1.772,1.772,0,0,1,.585.7,34.748,34.748,0,0,1,2.8,7.538,46.8,46.8,0,0,0,1.916,5.747,1.987,1.987,0,0,0,.558.84,1.066,1.066,0,0,0,.657.217,3.17,3.17,0,0,0,1.845-.949,3.148,3.148,0,0,1,1.935-1.03,1.156,1.156,0,0,1,.626.179,2.21,2.21,0,0,1,.646.761l1.465,2.388a1.119,1.119,0,0,1,.233.685.725.725,0,0,1-.763.566.827.827,0,0,1-.281-.047,1.983,1.983,0,0,1-.921-.9l-.05-.08a2.525,2.525,0,0,0-.766-.891,1.225,1.225,0,0,0-.639-.176,2.622,2.622,0,0,0-1.99,1.34,5.367,5.367,0,0,0-.754,4.209,3.879,3.879,0,0,0,3.04,2.825,2.823,2.823,0,0,0,.39.027,3.043,3.043,0,0,0,2.949-2.209,5.35,5.35,0,0,0,.091-.99c.007-.236.014-.48.045-.718a1.81,1.81,0,0,1,.857-1.433l.025-.011.011.025a10.8,10.8,0,0,1-.061,8.384,21.34,21.34,0,0,1-1.067,2.023,20.9,20.9,0,0,0-1.081,2.055A6.15,6.15,0,0,0,18.1,755.7a16.6,16.6,0,0,1-6.413,1.2c-.491,0-1-.019-1.514-.055a14.634,14.634,0,0,0-.085-1.5.958.958,0,0,0-.441-.707l0,0,0,0a3.68,3.68,0,0,0-.976-.735c-.1-.058-.2-.119-.3-.179-2.247-1.413-3.307-4.118-4.048-6.576m13.534-3.925a.623.623,0,0,1-.588.424l-.058,0a2.5,2.5,0,0,1-.782-.259,2.5,2.5,0,0,1-1.448-1.454,2.554,2.554,0,0,1,.344-2.062c.13-.226.274-.444.44-.7l.01-.015c.063-.1.13-.2.2-.306l.017-.026.023.02c.784.682,1.483,1.3,2.09,1.911.574.581.174,1.578-.247,2.467m7.674,44.638a6.236,6.236,0,0,1-5.415,4.69,14.161,14.161,0,0,1-1.8.122,8.221,8.221,0,0,1-5.191-1.626,12.365,12.365,0,0,1-3.5-4.77c-1.263-2.719-1.372-5.686-1.477-8.556-.1-2.688-.121-5.422-.143-8.07-.027-3.265-.055-6.641-.226-9.959-.013-.256,0-.512.013-.81.007-.137.013-.277.018-.431v-.028l.028,0c1.308.13,2.474.193,3.563.193a17.905,17.905,0,0,0,9.36-2.3l.029-.017.009.033c.174.61.343,1.205.509,1.791.369,1.3.717,2.532,1.082,3.77a93.491,93.491,0,0,1,3.686,18.922,17.447,17.447,0,0,1-.543,7.041" transform="translate(581.724 10863.042)" fill="#3a3d3f"/><path d="M123.75,1132.46l.069,0a1.027,1.027,0,0,0,.142-.01c.6-.083.723-.6.762-1.1a16.569,16.569,0,0,0-4.03-8.223.685.685,0,0,0-.485-.251l-.052,0a.95.95,0,0,0-.648.288.843.843,0,0,0-.046,1.187,18.407,18.407,0,0,1,3.534,7.406.81.81,0,0,0,.753.7" transform="translate(468.795 10481.09)" fill="#3a3d3f"/><path d="M652.916,30.853q.279-.955.593-1.9a22.934,22.934,0,0,0-.467-16.413,26.69,26.69,0,0,0-2.728-4.8,9.846,9.846,0,0,0-8.556-4.632,1.238,1.238,0,0,1-1.04-.3A9.724,9.724,0,0,0,633.867.035a19.612,19.612,0,0,0-16.051,6.592,34.036,34.036,0,0,0-3.683,4.563c-2.954,4.489-4.245,9.239-2,14.517A10.973,10.973,0,0,1,613.29,30.6a3.81,3.81,0,0,0-.98.935,3.732,3.732,0,0,0-.744,2.377,8.771,8.771,0,0,0,1.381,4.822,6.469,6.469,0,0,0,3.948,2.5l.009,0,0,.009c.054.195.11.388.167.586l.021.072a2.3,2.3,0,0,1,.178.432,13.543,13.543,0,0,0,3.957,6.252c.542.471,1.112.921,1.7,1.34.44.316.908.627,1.39.925a30.535,30.535,0,0,0,7.569,3.275,3.441,3.441,0,0,0,.984.14,4.618,4.618,0,0,0,1.171-.163,28.663,28.663,0,0,0,5.831-2.328c.634-.324,1.244-.667,1.813-1.02.5-.308.975-.632,1.422-.964a14.271,14.271,0,0,0,5.466-7.555,1.311,1.311,0,0,1,.2-.417l0-.006.035-.082c.076-.179.136-.356.181-.491l0-.008.009,0a6.532,6.532,0,0,0,4.315-3.117,8.16,8.16,0,0,0,.843-5.039,3.267,3.267,0,0,0-1.241-2.218m-36.5,8.63a6.333,6.333,0,0,1-1.568-.971A5.1,5.1,0,0,1,613.4,35.92a5.075,5.075,0,0,1-.028-2.945,1.829,1.829,0,0,1,1.5-1.308l.015,0,.112.691,0,.005a2.666,2.666,0,0,1,.265.862c.221,1.378.494,2.772.758,4.121l0,.016c.118.6.24,1.224.356,1.839.006.035.016.07.024.105a1.146,1.146,0,0,1,.033.163l0,.026Zm32.239-5.016,0,.017c-.333,1.735-.677,3.529-1.061,5.285a13.731,13.731,0,0,1-4.184,7.731,25.842,25.842,0,0,1-9.438,5,3.408,3.408,0,0,1-1.055.169,3.717,3.717,0,0,1-1.071-.164,30.391,30.391,0,0,1-4.952-2.019c-4.375-2.188-7.058-5.134-8.2-9.007a64.986,64.986,0,0,1-1.474-6.683c-.2-1.086-.406-2.209-.637-3.309-.03-.141-.056-.269-.082-.384-.108-1.1-.115-2.211-.141-3.284a13.93,13.93,0,0,1,.145-2.671,3.234,3.234,0,0,1,.524-1.341,1.272,1.272,0,0,1,.984-.846,18.312,18.312,0,0,0,11.238-7.945c.115-.178.194-.415.579-.423a7.08,7.08,0,0,1-.145,2.739c-.12.537-.2,1.056.313,1.438a1.267,1.267,0,0,0,1.388-.017,12.209,12.209,0,0,0,6.021-5.563c1.023-1.966,1.214-2.009,3.053-.659.636.467,1.218,1.007,1.836,1.5a30.793,30.793,0,0,1,3.641,3.843,12.776,12.776,0,0,1,3.49,7.637c.019.255.037.51.065.763q.06,2.181-.057,4.362c-.051.169-.1.384-.152.656-.213,1.057-.42,2.134-.619,3.175m3.552,2.208a5.675,5.675,0,0,1-2.745,2.664l-.027.012.082-.491c.143-.855.278-1.662.427-2.473.082-.447.174-.9.264-1.342.141-.695.287-1.413.4-2.124a1.61,1.61,0,0,1,.214-.618l0-.006c.026-.187.057-.378.087-.562l.012-.074.015,0a1.725,1.725,0,0,1,.913.428,2.155,2.155,0,0,1,.6.894,4.68,4.68,0,0,1-.241,3.691" transform="translate(3.071 11544.531)" fill="#3a3d3f"/><path d="M1005.321,892.677a1.282,1.282,0,0,0-.918.295.807.807,0,0,0-.191.633c.031.536.381.776,1.135.779h0c.492-.022,1.055-.139,1.049-.861-.006-.56-.369-.845-1.079-.846" transform="translate(-369.33 10699.102)" fill="#3a3d3f"/><path d="M934.349,769.264c-1.7.068-3.389.2-5.087.129-1.031-.05-2.061-.132-3.091-.14-.862-.006-1.237.627-.751,1.315a12.278,12.278,0,0,0,3.341,3.608,2.729,2.729,0,0,0,3.494-.03,11.8,11.8,0,0,0,2.989-3.134c.291-.393.7-.776.428-1.321s-.826-.446-1.321-.426m-1.339,2.125a6.755,6.755,0,0,1-2.032,1.723.859.859,0,0,1-.947.023,6.026,6.026,0,0,1-2.31-2.125c-.045-.08,0-.147.088-.146.884.008,1.773-.022,2.655,0,.765,0,1.53,0,2.3,0,.127,0,.517-.029.575.048.112.151-.227.343-.323.478" transform="translate(-294.507 10816.004)" fill="#3a3d3f"/><path d="M979.714,604.561a.864.864,0,0,0,.1.005.663.663,0,0,0,.664-.482.7.7,0,0,0-.387-.877,2,2,0,0,0-.356-.142,1.631,1.631,0,0,1-.406-.174l-.1-.067.189-.314c.187-.309.364-.6.526-.91a.689.689,0,0,0-.152-.884.748.748,0,0,0-.479-.2.5.5,0,0,0-.359.149,5.414,5.414,0,0,0-1.431,2.271.76.76,0,0,0,.185.636,3.139,3.139,0,0,0,2.011.984" transform="translate(-344.035 10975.793)" fill="#3a3d3f"/><path d="M845.443,532.565a1.235,1.235,0,1,0,1.462,1.214,1.357,1.357,0,0,0-1.462-1.214" transform="translate(-217.583 11040.152)" fill="#3a3d3f"/><path d="M1151.221,532.565a1.235,1.235,0,1,0,1.462,1.214,1.357,1.357,0,0,0-1.462-1.214" transform="translate(-507.176 11040.152)" fill="#3a3d3f"/><path d="M818.326,442.774c.565.031,1.089-.077,1.142-.744.05-.645-.431-.9-.989-.964a5.474,5.474,0,0,0-2.813.408.821.821,0,0,0,.478,1.57c.543-.1,1.082-.211,1.476-.289.339.008.524.008.707.018" transform="translate(-190.22 11126.842)" fill="#3a3d3f"/><path d="M1154.156,441.566a5.732,5.732,0,0,0-2-.456,7.476,7.476,0,0,0-1.021.067.833.833,0,0,0-.792.9.788.788,0,0,0,.915.753,9.2,9.2,0,0,1,2.4.293.779.779,0,0,0,1.027-.585.8.8,0,0,0-.53-.974" transform="translate(-507.728 11126.767)" fill="#3a3d3f"/><path d="M1371.516,2141.418a6.086,6.086,0,0,0-2.608-3.942c-1.323-.907-6.248-3.415-6.248-3.415s-5.119,3.394-9.226,3.2-8.723-.242-10.711-2.424c0,0-2.156.658-4.524,1.59s-3.475,1.665-4.09,3.231-.861,7.395-.861,7.395l.027.962,1.079.016a12.34,12.34,0,0,1,.6-2.161,8.806,8.806,0,0,1,1.132-2.492,7.728,7.728,0,0,1,1.758-1.744,2.006,2.006,0,0,1,2.133-.246,1.871,1.871,0,0,1,.744.8,3.761,3.761,0,0,1,.218.564l.006,0c.031.018.062.035.094.052.071.038.145.075.22.106,0,0,.138.049.16.056.088.03.177.058.266.085.38.117.754.236,1.123.385.716.287,1.43.514,2.167.738a2.371,2.371,0,0,1,1.831,1.476,4.166,4.166,0,0,1,.077,1.1c0,.347,0,.693-.007,1.04,0,.081-.007.163-.011.243h8.883a4.747,4.747,0,0,1,.176-2.04,2.246,2.246,0,0,1,.791-1.139,3.042,3.042,0,0,1,1.018-.437c.689-.188,1.372-.411,2.041-.662a10.643,10.643,0,0,0,1.008-.423c.149-.071.3-.143.446-.227-.041.02.111-.091.121-.1.027-.024.043-.037.053-.044a.54.54,0,0,1,.036-.061,1.807,1.807,0,0,0,.142-.254l.008-.017c0-.012,0-.028.006-.049a2.486,2.486,0,0,1,.108-.442,1.491,1.491,0,0,1,1.041-.982,2.123,2.123,0,0,1,1.252.213,5,5,0,0,1,.9.424,4.878,4.878,0,0,1,1.546,1.535,13.319,13.319,0,0,1,.944,2.052,8.673,8.673,0,0,1,.637,2.637h3.767a47.069,47.069,0,0,0-.271-6.6" transform="translate(-680.951 9523.427)" fill="#f9e9aa"/><path d="M1277.126,2060.72a10.2,10.2,0,0,0,4.546-4.242c.212-.385.352-.911-.183-1.225a.8.8,0,0,0-.4-.124c-.27,0-.507.186-.727.57a9.785,9.785,0,0,1-5.216,4.238,36.631,36.631,0,0,0-3.629,1.649,6.782,6.782,0,0,0-3.595,4.558,19.3,19.3,0,0,0-.671,4.419c0,.2,0,.391,0,.591,0,.44-.007.895.009,1.342.031.892.477,1.079.844,1.079h.055a.8.8,0,0,0,.62-.276,1.078,1.078,0,0,0,.152-.869,13.139,13.139,0,0,1,0-3.472l.008-.088a8.721,8.721,0,0,1,1.208-3.992,6.357,6.357,0,0,1,3.326-2.577,37.427,37.427,0,0,0,3.66-1.578" transform="translate(-618.441 9598.181)" fill="#3a3d3f"/><path d="M1820.046,2071.136l-.01-.253c-.033-.876-.086-1.763-.158-2.635a11.755,11.755,0,0,0-.6-2.762,8.48,8.48,0,0,0-.692-1.479,7.393,7.393,0,0,0-3.851-3.149c-.452-.176-.9-.377-1.341-.572s-.918-.409-1.389-.59a10.3,10.3,0,0,1-4.732-3.622,3.348,3.348,0,0,1-.237-.4c-.186-.354-.379-.72-.724-.72a.856.856,0,0,0-.445.158c-.708.449-.38.974-.032,1.53.078.125.158.253.22.375a2,2,0,0,0,.247.346l.05.061a12.221,12.221,0,0,0,5.239,3.765,34.832,34.832,0,0,1,3.541,1.607,5.34,5.34,0,0,1,2.8,3.6,15.94,15.94,0,0,1,.547,5.011c-.011.15-.025.3-.042.443,0,.033-.014.112-.014.112a3.447,3.447,0,0,0-.039.6.8.8,0,0,0,.783.847l.066,0a.763.763,0,0,0,.6-.252,1.458,1.458,0,0,0,.237-.949c0-.355-.011-.716-.025-1.066" transform="translate(-1128.158 9598.352)" fill="#3a3d3f"/><path d="M1517.714,2140.485a.63.63,0,0,0-.6-.409,1.566,1.566,0,0,0-.606.156c-.055.024-.111.052-.16.075s-.078.039-.117.056a18.2,18.2,0,0,1-7.6,1.665,20.36,20.36,0,0,1-4.341-.484,14.3,14.3,0,0,1-3.68-1.264,1.54,1.54,0,0,0-.689-.215.642.642,0,0,0-.6.419c-.229.469-.037.826.622,1.159a11.56,11.56,0,0,0,1.4.628,19.27,19.27,0,0,0,6.362,1.248c.232,0,.465-.006.693-.019.17,0,.335,0,.5.005h.015c.158,0,.307,0,.456,0,.2,0,.372,0,.529-.014a18.5,18.5,0,0,0,7.275-1.9c.573-.29.755-.663.54-1.109" transform="translate(-838.151 9517.742)" fill="#3a3d3f"/><path d="M1361.625,2255.7a2.926,2.926,0,0,1-1.055-.394l-.208-.132a2.648,2.648,0,0,0-1.419-.564c-.513,0-.656-.218-.768-.673a1.776,1.776,0,0,0-1.785-1.493,2.545,2.545,0,0,0-.478.048,2.854,2.854,0,0,0-.73.238,6.62,6.62,0,0,0-3.241,3.175,13.145,13.145,0,0,0-.858,3.028q-.057.29-.116.579a1.227,1.227,0,0,0-.014.345.666.666,0,0,0,.537.641.758.758,0,0,0,.175.021.6.6,0,0,0,.561-.408,3.265,3.265,0,0,0,.163-.562c.044-.2.087-.395.129-.593a17.883,17.883,0,0,1,.5-1.979,5.175,5.175,0,0,1,2.431-2.811,2.579,2.579,0,0,1,.6-.261,1.018,1.018,0,0,1,.278-.045.43.43,0,0,1,.4.233.509.509,0,0,1-.11.684c-.183.185-.35.391-.512.589-.065.079-.129.159-.2.238l-.086.1a2.136,2.136,0,0,0-.231.3.75.75,0,0,0,.14,1.037.539.539,0,0,0,.337.126.871.871,0,0,0,.556-.271,4.47,4.47,0,0,0,.441-.481l.121-.146a.968.968,0,0,1,.76-.4,1.282,1.282,0,0,1,.361.057.132.132,0,0,1,.084.055.158.158,0,0,1-.025.116c-.063.119-.132.238-.2.354a7.193,7.193,0,0,0-.355.673.9.9,0,0,0-.027.7.639.639,0,0,0,.355.357.671.671,0,0,0,.247.049.86.86,0,0,0,.7-.507c.063-.106.123-.214.181-.32.1-.18.2-.367.319-.539s.215-.258.306-.258.183.069.32.222a.591.591,0,0,1,.145.567c-.034.138-.081.277-.127.411-.024.072-.049.145-.072.217a.76.76,0,0,0,.329.984.663.663,0,0,0,.26.054.792.792,0,0,0,.687-.515,4.859,4.859,0,0,0,.244-.668c.036-.116.074-.237.115-.353.067-.187.117-.225.173-.225a.524.524,0,0,1,.24.106,1.462,1.462,0,0,1,.678,1.373c-.006.15-.026.3-.046.453s-.04.3-.046.454a.736.736,0,0,0,.56.808.683.683,0,0,0,.142.016h0a.719.719,0,0,0,.664-.566,3.273,3.273,0,0,0,.155-.991,3.023,3.023,0,0,0-2.7-3.253" transform="translate(-697.715 9411.313)" fill="#3a3d3f"/><path d="M1758.4,2259.5a19.121,19.121,0,0,0-.631-2.755,6.567,6.567,0,0,0-3.159-3.781,4.066,4.066,0,0,0-.94-.389,2.346,2.346,0,0,0-.642-.092,1.786,1.786,0,0,0-1.82,1.459c-.025.106-.047.216-.066.329a.37.37,0,0,1-.395.344h-.065a3.4,3.4,0,0,0-1.8.688l-.108.067a2.69,2.69,0,0,1-.978.363,3,3,0,0,0-2.728,3.307,3.065,3.065,0,0,0,.2,1.073.647.647,0,0,0,.6.433.748.748,0,0,0,.126-.011.618.618,0,0,0,.555-.619c.008-.154.006-.31,0-.46,0-.068,0-.136,0-.2v-.052h-.05q0-.091,0-.181c0-.167-.006-.34.006-.508a1.379,1.379,0,0,1,.717-1.1.374.374,0,0,1,.186-.071c.049,0,.121.02.173.194.026.085.049.17.072.256.042.153.085.311.139.463a1.541,1.541,0,0,0,.33.6.718.718,0,0,0,.512.246.655.655,0,0,0,.311-.083.623.623,0,0,0,.336-.683,1.926,1.926,0,0,0-.084-.3c-.02-.06-.04-.121-.056-.181-.012-.043-.024-.087-.037-.131a2.293,2.293,0,0,1-.093-.422.753.753,0,0,1,.44-.649l.043,0c.167,0,.24.134.318.276.019.035.04.072.061.105.081.129.157.266.23.4a5.819,5.819,0,0,0,.32.533.71.71,0,0,0,.578.309.652.652,0,0,0,.307-.076.746.746,0,0,0,.327-.851,3.5,3.5,0,0,0-.266-.567l-.023-.042c-.067-.122-.141-.242-.214-.358-.044-.071-.089-.142-.131-.214a.158.158,0,0,1-.028-.125.116.116,0,0,1,.075-.063.952.952,0,0,1,.346-.064,1.045,1.045,0,0,1,.784.372l.047.054c.2.231.407.47.632.687a.621.621,0,0,0,.431.2.567.567,0,0,0,.321-.108.642.642,0,0,0,.29-.782,2.034,2.034,0,0,0-.345-.583c-.224-.281-.465-.556-.7-.822l-.17-.194a.473.473,0,0,1-.049-.561.443.443,0,0,1,.45-.261h.052a1.478,1.478,0,0,1,.612.2,5.144,5.144,0,0,1,2.6,2.868,15.652,15.652,0,0,1,.532,2.082c.014.07.027.14.041.21a5.976,5.976,0,0,0,.181.766.668.668,0,0,0,.638.524.708.708,0,0,0,.11-.009.739.739,0,0,0,.579-.708,1.139,1.139,0,0,0-.025-.274c0-.022-.008-.044-.011-.066" transform="translate(-1070.967 9411.27)" fill="#3a3d3f"/><path d="M1604.837,1925.559a.865.865,0,0,0-.85-1.408c-.419-.012-.856-.018-1.42-.018l-.806,0h-.033l-.771,0c-.306,0-.612,0-.919,0h-.024q-.449,0-.9,0c-.457,0-.836,0-1.19.013-.549.014-.89.149-1.045.414s-.1.643.161,1.145a6.308,6.308,0,0,0,3.137,2.822,1.741,1.741,0,0,0,.724.158,1.687,1.687,0,0,0,.687-.146,6.2,6.2,0,0,0,3.246-2.978m-2.162.643-.008.007-.114.1a1.977,1.977,0,0,1-3.291.012,3.518,3.518,0,0,1-.708-.819l.406.006c.751.011,1.461.021,2.178.021.789,0,1.457-.012,2.1-.038a1.764,1.764,0,0,1-.558.709" transform="translate(-930.547 9722.244)" fill="#3a3d3f"/><path d="M1659.139,2025.206c-.524,0-.838.273-.84.726,0,.437.291.7.828.735h.015c.539-.02.847-.265.867-.693a.693.693,0,0,0-.176-.533.923.923,0,0,0-.694-.235" transform="translate(-988.797 9626.52)" fill="#3a3d3f"/><path d="M1640.36,1821.509a.684.684,0,0,0-.107-.523.731.731,0,0,0-.507-.288.587.587,0,0,0-.067,0,.605.605,0,0,0-.37.124l-.018.014c-.425.323-1.008.766-.928,1.446.064.546.518.953,1.311,1.177a.533.533,0,0,0,.087.016l.057,0h0a.715.715,0,0,0,.386-.117.676.676,0,0,0-.227-1.219l-.03-.009c-.025-.01-.051-.02-.076-.031.078-.066.147-.121.213-.171a.7.7,0,0,0,.275-.417" transform="translate(-969.91 9820.207)" fill="#3a3d3f"/><path d="M1768.015,1772.376a.681.681,0,0,0,.595.356.745.745,0,0,0,.334-.081,1.2,1.2,0,0,1,.541-.141,1.276,1.276,0,0,1,.773.3.811.811,0,0,0,.489.177.714.714,0,0,0,.391-1.3,2.479,2.479,0,0,0-1.624-.645,2.21,2.21,0,0,0-1.23.37.683.683,0,0,0-.268.959" transform="translate(-1092.609 9867.226)" fill="#3a3d3f"/><path d="M1516.028,1771.047a2.478,2.478,0,0,0-1.624.645.714.714,0,0,0,.391,1.3.812.812,0,0,0,.489-.177,1.275,1.275,0,0,1,.773-.3,1.2,1.2,0,0,1,.541.141.744.744,0,0,0,.334.081.7.7,0,0,0,.327-1.316,2.211,2.211,0,0,0-1.231-.37" transform="translate(-852.217 9867.226)" fill="#3a3d3f"/><path d="M1502.739,1699.316a.651.651,0,0,0,.611.4,1.007,1.007,0,0,0,.366-.074,3.413,3.413,0,0,1,1.159-.245,1.179,1.179,0,0,0,.864-.264.648.648,0,0,0,.15-.5c-.047-.661-.7-.669-1.1-.675a3.393,3.393,0,0,0-1.714.422.69.69,0,0,0-.339.941" transform="translate(-841.398 9936.45)" fill="#3a3d3f"/><path d="M1786.551,1699.368a3.588,3.588,0,0,1,1.083.255.968.968,0,0,0,.328.062.649.649,0,0,0,.592-.35.685.685,0,0,0-.278-.958,3.223,3.223,0,0,0-1.673-.452h-.014l-.151,0c-.393.008-.987.02-1.007.708s.628.715,1.057.729Z" transform="translate(-1109.2 9936.479)" fill="#3a3d3f"/><path d="M1344.042,1362.547a5.3,5.3,0,0,0,1.18-3.789,26.7,26.7,0,0,0-2.028-8.441,17.2,17.2,0,0,0-4.737-7,19.431,19.431,0,0,0-5.688-3.227,18.638,18.638,0,0,0-6.251-1.051,22.655,22.655,0,0,0-3.513.284,6.389,6.389,0,0,0-2.788,1.085c-.418.3-.8.634-.491,1.165a.725.725,0,0,0,.638.418,1.263,1.263,0,0,0,.755-.32,4.439,4.439,0,0,1,.8-.415,6.954,6.954,0,0,1,1.723-.424,28.244,28.244,0,0,1,3.942-.224,11.147,11.147,0,0,1,3.77.631c3.138,1.18,6.333,2.72,8.453,5.974a29,29,0,0,1,3.839,10.715,4.381,4.381,0,0,1-.924,3.741,1.847,1.847,0,0,0-.12.163,2.556,2.556,0,0,0-.339-.131c-.077-.023-.153-.044-.227-.064a1.458,1.458,0,0,1-1.033-.651.511.511,0,0,0-.445-.273,2.654,2.654,0,0,0-1.2-1.351c-1.4-.781-2.738-1.66-4.149-2.411-4.074-2.169-6.451-5.7-8.052-9.859-.2-.527-.42-1.029-1.089-.823-.649.2-.618.757-.487,1.3a3.224,3.224,0,0,0,.174.49c1.821,4.283,4.315,8,8.583,10.254,1.2.633,2.332,1.386,3.518,2.042a2.238,2.238,0,0,1,1.414,1.66.762.762,0,0,0,.364.576c-.132.979-.234,1.967-.334,2.927-.145,1.4-.295,2.839-.533,4.249a7.787,7.787,0,0,1-2.829,4.808,24.19,24.19,0,0,1-8.914,4.276l-.23.071a3.445,3.445,0,0,1-1.027.211,1.715,1.715,0,0,1-.468-.064,33.259,33.259,0,0,1-6.925-2.631c-3.724-2.023-5.551-4.495-5.747-7.781-.032-.544-.1-1.095-.173-1.627-.031-.236-.062-.481-.09-.721q-.272-2.345-.545-4.689a.837.837,0,0,0-.595-.836l-.015,0a6.163,6.163,0,0,0,1.643-.908c3.716-2.828,5.193-6.816,5.829-11.319a.74.74,0,0,0-.631-.847.78.78,0,0,0-.917.658c-.1.366-.176.742-.25,1.116-.85,4.306-2.408,8.13-6.82,10.035a.721.721,0,0,0-.456.936.748.748,0,0,0,.914.524,1.042,1.042,0,0,0-.184.317c-.088.228-.272.255-.505.29l-.022,0a3.179,3.179,0,0,0-.594.148.584.584,0,0,0,.092-.221,1.141,1.141,0,0,0-.3-.847,6.163,6.163,0,0,1-.9-5.372,30.408,30.408,0,0,1,3.462-8.229,10.468,10.468,0,0,1,2.445-3.043,6.244,6.244,0,0,1,3.713-1.407.91.91,0,0,0,.653-.278.725.725,0,0,0,.16-.562.762.762,0,0,0-.86-.692l-.09,0a7.629,7.629,0,0,0-4.953,2.112c-2.269,2.1-3.464,4.89-4.619,7.587q-.161.377-.324.754a14.683,14.683,0,0,0-1.39,5.505,7.381,7.381,0,0,0,1.37,4.488,1.159,1.159,0,0,0,.814.588,3.52,3.52,0,0,0-.967,1.146,4.231,4.231,0,0,0-.222,3.735,4.729,4.729,0,0,0,3.215,2.667c.64.169.875.394.967.926a8.366,8.366,0,0,0,3.018,4.9c2.812,2.45,6.288,3.712,9.626,4.71a6.121,6.121,0,0,0,1.731.335h0a2.877,2.877,0,0,0,.776-.1,32.167,32.167,0,0,0,7.362-2.8c2.717-1.543,5.576-3.619,6.185-7.324.069-.419.341-.489.717-.585l.046-.012a4.564,4.564,0,0,0,3.676-4.266,4.435,4.435,0,0,0-.806-2.593,2.077,2.077,0,0,0,.243-.308m-35.42,3.718a2.8,2.8,0,0,1,.623-2.868.987.987,0,0,1,.728-.389.822.822,0,0,1,.25.04c.3.095.307.329.318.578,0,.057.005.115.011.17.131,1.1.246,2.2.369,3.366q.061.577.125,1.174a3.219,3.219,0,0,1-2.424-2.071m33.49,1.253a2.634,2.634,0,0,1-1.6.744c.051-.454.1-.91.147-1.352.131-1.219.254-2.37.42-3.54a.4.4,0,0,1,.434-.365,1.209,1.209,0,0,1,.754.338,2.614,2.614,0,0,1,.81,2.04,2.826,2.826,0,0,1-.968,2.135" transform="translate(-655.422 10276.367)" fill="#3a3d3f"/><path d="M1552.942,1490a24.073,24.073,0,0,0,2.659,1.023c.6.047.957-.08,1.1-.506a.736.736,0,0,0-.448-.941,7.869,7.869,0,0,0-1.164-.462,9.229,9.229,0,0,1-5.825-5.44c-.245-.536-.495-1.1-1.206-.785-.692.308-.5.922-.271,1.442a11.15,11.15,0,0,0,5.158,5.668" transform="translate(-883.934 10140.218)" fill="#3a3d3f"/><path d="M0,0H110.188V127.3H0Z" transform="translate(581.725 11544.527)" fill="none"/></g></svg>