<svg xmlns="http://www.w3.org/2000/svg" xmlns:xlink="http://www.w3.org/1999/xlink" width="239.087" height="114.239" viewBox="0 0 239.087 114.239"><defs><clipPath id="a"><rect width="151.058" height="22.092" fill="none"/></clipPath><clipPath id="b"><rect width="163.058" height="22.092" fill="none"/></clipPath><clipPath id="c"><rect width="75.282" height="96.859" fill="none"/></clipPath><clipPath id="d"><path d="M816.514,1073.833l-1.423,4.015a16.494,16.494,0,0,0,1.423,2.668c.594.742-.051,2.287,0,2.465s-.077,4.631-.077,4.631l6.635,3.535a30.993,30.993,0,0,0-1.556-6.769c-1.062-2.49-1.86-4.269-1.86-4.269l.518-3.3-3-2.973Z" transform="translate(-815.091 -1073.833)" fill="none"/></clipPath></defs><g transform="translate(-1333.281 -8550)"><g transform="matrix(0.995, 0.105, -0.105, 0.995, 1717.911, 3713.815)"><g transform="translate(-21.68 216.598)"><path d="M-57.112,2.178a1.336,1.336,0,0,1-.935-.352A1.219,1.219,0,0,1-58.432.88V-5.9H-62.3a8.979,8.979,0,0,1-1.529,4.774,8.571,8.571,0,0,1-4.3,2.926,2.338,2.338,0,0,1-1.177.121,1.131,1.131,0,0,1-.8-.693A1.307,1.307,0,0,1-70.147.22a1.245,1.245,0,0,1,.869-.748,8.062,8.062,0,0,0,2.442-1.188A4.448,4.448,0,0,0-65.45-3.443,6.99,6.99,0,0,0-64.9-5.9h-4.6a1.168,1.168,0,0,1-.858-.352,1.142,1.142,0,0,1-.352-.836,1.168,1.168,0,0,1,.352-.858,1.168,1.168,0,0,1,.858-.352h4.62v-1.8a1.254,1.254,0,0,1,.385-.957,1.313,1.313,0,0,1,.935-.363,1.286,1.286,0,0,1,.913.363,1.254,1.254,0,0,1,.385.957v1.8h3.828v-1.848a1.228,1.228,0,0,1,.385-.935,1.313,1.313,0,0,1,.935-.363,1.286,1.286,0,0,1,.913.363,1.228,1.228,0,0,1,.385.935v1.848h4.444a1.168,1.168,0,0,1,.858.352,1.168,1.168,0,0,1,.352.858,1.142,1.142,0,0,1-.352.836,1.168,1.168,0,0,1-.858.352h-4.444V.88a1.219,1.219,0,0,1-.385.946A1.308,1.308,0,0,1-57.112,2.178Zm5.544-13.134a1.317,1.317,0,0,1-.935.374,1.208,1.208,0,0,1-.913-.4l-.726-.726q-.4-.4-.858-.814-1.408.154-3.256.33t-3.828.341q-1.98.165-3.806.308t-3.19.253a1.4,1.4,0,0,1-.946-.286,1.15,1.15,0,0,1-.44-.858,1.129,1.129,0,0,1,.286-.88,1.183,1.183,0,0,1,.88-.4q.638-.044,1.419-.088l1.617-.088q.33-.572.781-1.4t.858-1.617q.407-.792.605-1.232a1.326,1.326,0,0,1,.836-.726,1.438,1.438,0,0,1,1.144.132,1.148,1.148,0,0,1,.627.77,1.35,1.35,0,0,1-.143.99q-.308.55-.792,1.364t-.946,1.54l3.2-.22q1.6-.11,2.959-.2-.308-.264-.594-.506t-.55-.44a1.12,1.12,0,0,1-.44-.825,1.189,1.189,0,0,1,.264-.891,1.4,1.4,0,0,1,.836-.462,1.227,1.227,0,0,1,.946.22q.814.594,1.8,1.441t1.9,1.683q.913.836,1.485,1.43a1.2,1.2,0,0,1,.352.957A1.37,1.37,0,0,1-51.568-10.956Zm17.4,4.95a7.476,7.476,0,0,1-2.178-.242,1.587,1.587,0,0,1-1.012-.792,3.381,3.381,0,0,1-.264-1.452V-9.768q-.088.11-.165.2t-.165.2a1.09,1.09,0,0,1-.77.385,1.194,1.194,0,0,1-.836-.253.876.876,0,0,1-.22-.264,1.118,1.118,0,0,1-.594.176h-4.51a.939.939,0,0,1-.7-.3.968.968,0,0,1-.286-.693.994.994,0,0,1,.286-.715.939.939,0,0,1,.7-.3h4.51a.965.965,0,0,1,.858.484q.484-.55,1-1.254t.968-1.43a14.286,14.286,0,0,0,.737-1.32.992.992,0,0,1,.88-.594v-.066H-38.1a.844.844,0,0,1-.616-.264.844.844,0,0,1-.264-.616.833.833,0,0,1,.264-.627.862.862,0,0,1,.616-.253h2.178v-.352a1.061,1.061,0,0,1,.33-.814,1.12,1.12,0,0,1,.792-.308,1.12,1.12,0,0,1,.792.308,1.061,1.061,0,0,1,.33.814v.352h2.244v-.352a1.061,1.061,0,0,1,.33-.814,1.12,1.12,0,0,1,.792-.308,1.082,1.082,0,0,1,.781.308,1.08,1.08,0,0,1,.319.814v.352h2.2a.851.851,0,0,1,.627.253.851.851,0,0,1,.253.627.862.862,0,0,1-.253.616.833.833,0,0,1-.627.264h-2.2v.286a1.08,1.08,0,0,1-.319.814,1.082,1.082,0,0,1-.781.308h-.066a.386.386,0,0,1-.044.11.749.749,0,0,1-.088.2q-.066.11-.132.242h3.476a.685.685,0,0,1,.506.2.685.685,0,0,1,.2.506.723.723,0,0,1-.2.517.666.666,0,0,1-.506.209h-3.454v.682h2.9a.615.615,0,0,1,.451.187.641.641,0,0,1,.187.473.615.615,0,0,1-.187.451.615.615,0,0,1-.451.187h-2.9v.66h2.9a.615.615,0,0,1,.451.187.615.615,0,0,1,.187.451.641.641,0,0,1-.187.473.615.615,0,0,1-.451.187h-2.9v.748h3.652a.723.723,0,0,1,.517.2.666.666,0,0,1,.209.506.713.713,0,0,1-.209.506.685.685,0,0,1-.517.22ZM-37.4,1.936a1.611,1.611,0,0,1-.935-.088,1.016,1.016,0,0,1-.539-.66.991.991,0,0,1,.143-.88,1.192,1.192,0,0,1,.8-.462,17.273,17.273,0,0,0,2-.418A15.673,15.673,0,0,0-34.1-1.188a11.321,11.321,0,0,1-2.046-2.42h-1.5a.809.809,0,0,1-.6-.264.862.862,0,0,1-.253-.616.851.851,0,0,1,.253-.627.826.826,0,0,1,.6-.253h7.326a2.584,2.584,0,0,1,1.7.506,1.572,1.572,0,0,1,.6,1.254,2.017,2.017,0,0,1-.748,1.452q-.286.286-.6.561a7.758,7.758,0,0,1-.671.517,14.691,14.691,0,0,0,1.518.517A13.377,13.377,0,0,0-26.8-.2a1.228,1.228,0,0,1,.8.44.987.987,0,0,1,.165.858q-.242.99-1.54.792A13.315,13.315,0,0,1-32.12.22a17.911,17.911,0,0,1-2.431,1.012A19.041,19.041,0,0,1-37.4,1.936Zm-5.192-.528A5.079,5.079,0,0,1-44.6,1.089,1.764,1.764,0,0,1-45.584.044a5.8,5.8,0,0,1-.264-1.936,5.888,5.888,0,0,1,.264-1.958A1.764,1.764,0,0,1-44.6-4.895a5.079,5.079,0,0,1,2.013-.319,5.066,5.066,0,0,1,2.024.319A1.768,1.768,0,0,1-39.6-3.85a5.888,5.888,0,0,1,.264,1.958A5.8,5.8,0,0,1-39.6.044a1.768,1.768,0,0,1-.968,1.045A5.066,5.066,0,0,1-42.592,1.408Zm-3.19-13.772a.939.939,0,0,1-.7-.3.994.994,0,0,1-.286-.715.968.968,0,0,1,.286-.693.939.939,0,0,1,.7-.3h6.2a.914.914,0,0,1,.682.3.968.968,0,0,1,.286.693.994.994,0,0,1-.286.715.914.914,0,0,1-.682.3Zm.946-3.036a.993.993,0,0,1-.726-.308.993.993,0,0,1-.308-.726.993.993,0,0,1,.308-.726.993.993,0,0,1,.726-.308h4.444a.948.948,0,0,1,.726.308,1.032,1.032,0,0,1,.286.726,1.032,1.032,0,0,1-.286.726.948.948,0,0,1-.726.308Zm-.044,9.13a.939.939,0,0,1-.7-.3.994.994,0,0,1-.286-.715A.994.994,0,0,1-45.584-8a.939.939,0,0,1,.7-.3h4.51a.939.939,0,0,1,.7.3.994.994,0,0,1,.286.715.994.994,0,0,1-.286.715.939.939,0,0,1-.7.3Zm2.288,5.676a1.085,1.085,0,0,0,.869-.264,1.781,1.781,0,0,0,.209-1.034,1.84,1.84,0,0,0-.209-1.045,1.059,1.059,0,0,0-.869-.275,1.026,1.026,0,0,0-.847.275,1.84,1.84,0,0,0-.209,1.045,1.781,1.781,0,0,0,.209,1.034A1.051,1.051,0,0,0-42.592-.594Zm7.568-12.958H-33l.506-1.21a.951.951,0,0,1,.429-.495,1.272,1.272,0,0,1,.627-.165v-.088h-2.244v.286a1.052,1.052,0,0,1-.319.792,1.142,1.142,0,0,1-.759.33,1.708,1.708,0,0,1-.088.22.484.484,0,0,1-.077.165A1.228,1.228,0,0,0-35.024-13.552ZM-32.076-2.2q.286-.176.55-.352t.484-.33q.374-.286.308-.506t-.572-.22h-2.4q.374.374.781.737A9.187,9.187,0,0,0-32.076-2.2Zm-2.09-5.236h1.254v-.748h-2.42a.742.742,0,0,0,.3.583A1.675,1.675,0,0,0-34.166-7.436Zm-1.188-4h2.442v-.682h-2.442Zm0,1.958h2.442v-.66h-2.442ZM-19.272.99a1.229,1.229,0,0,1-.9-.374,1.255,1.255,0,0,1-.374-.924,1.229,1.229,0,0,1,.374-.9,1.229,1.229,0,0,1,.9-.374h5.7v-7.26h-7.3a1.229,1.229,0,0,1-.9-.374,1.229,1.229,0,0,1-.374-.9,1.229,1.229,0,0,1,.374-.9,1.229,1.229,0,0,1,.9-.374h7.3v-5.5a1.377,1.377,0,0,1,.429-1.045,1.435,1.435,0,0,1,1.023-.407,1.424,1.424,0,0,1,1.034.407A1.4,1.4,0,0,1-10.67-16.9v5.5h7.392a1.229,1.229,0,0,1,.9.374,1.229,1.229,0,0,1,.374.9,1.229,1.229,0,0,1-.374.9,1.229,1.229,0,0,1-.9.374H-10.67v7.26h5.742a1.266,1.266,0,0,1,.913.374,1.212,1.212,0,0,1,.385.9,1.237,1.237,0,0,1-.385.924A1.266,1.266,0,0,1-4.928.99Zm34.166.858a1.269,1.269,0,0,1-.9-.352,1.21,1.21,0,0,1-.374-.924V-3.982q-.946,1.034-2.1,2.079A23.02,23.02,0,0,1,9.328-.132a1.425,1.425,0,0,1-.99.253A1.184,1.184,0,0,1,7.458-.4a1.155,1.155,0,0,1-.187-.913,1.12,1.12,0,0,1,.517-.759A18.457,18.457,0,0,0,9.416-3.256q.9-.726,1.793-1.518t1.507-1.452H8.866a1.161,1.161,0,0,1-.836-.341,1.106,1.106,0,0,1-.352-.825,1.106,1.106,0,0,1,.352-.825,1.161,1.161,0,0,1,.836-.341h4.752v-1.76h-.11a7.27,7.27,0,0,1-2.475-.341,2.23,2.23,0,0,1-1.3-1.155,5.281,5.281,0,0,1-.385-2.222,5.267,5.267,0,0,1,.385-2.233,2.237,2.237,0,0,1,1.287-1.144,7.253,7.253,0,0,1,2.486-.341h2.728a7.352,7.352,0,0,1,2.5.341,2.194,2.194,0,0,1,1.287,1.144,5.4,5.4,0,0,1,.374,2.233,5.418,5.418,0,0,1-.374,2.222,2.188,2.188,0,0,1-1.287,1.155,7.352,7.352,0,0,1-2.5.341H16.17v1.76h4.752a1.15,1.15,0,0,1,.847.341,1.124,1.124,0,0,1,.341.825,1.124,1.124,0,0,1-.341.825,1.15,1.15,0,0,1-.847.341h-3.85q.616.616,1.507,1.386t1.8,1.474q.913.7,1.617,1.144a1.1,1.1,0,0,1,.517.781,1.229,1.229,0,0,1-.209.913,1.186,1.186,0,0,1-.858.539A1.414,1.414,0,0,1,20.438-.22Q19.8-.66,19.052-1.276t-1.5-1.32q-.748-.7-1.386-1.364V.572A1.21,1.21,0,0,1,15.8,1.5,1.269,1.269,0,0,1,14.894,1.848ZM5.962,1.98a1.242,1.242,0,0,1-.88-.352,1.158,1.158,0,0,1-.374-.88V-9.57Q4.2-8.756,3.7-8.1a1.2,1.2,0,0,1-.814.495,1.319,1.319,0,0,1-.946-.209,1.273,1.273,0,0,1-.517-.781,1.055,1.055,0,0,1,.187-.869q.616-.858,1.243-1.936t1.2-2.211q.572-1.133,1.023-2.2t.715-1.9a1.213,1.213,0,0,1,.638-.77,1.281,1.281,0,0,1,.99-.044,1.3,1.3,0,0,1,.737.561,1.1,1.1,0,0,1,.077.957q-.2.66-.451,1.342t-.561,1.386v15a1.175,1.175,0,0,1-.374.913A1.264,1.264,0,0,1,5.962,1.98Zm7.612-14.652h2.6a1.957,1.957,0,0,0,1.21-.264,1.448,1.448,0,0,0,.308-1.1,1.486,1.486,0,0,0-.308-1.122,1.957,1.957,0,0,0-1.21-.264h-2.6a1.909,1.909,0,0,0-1.188.264,1.486,1.486,0,0,0-.308,1.122,1.448,1.448,0,0,0,.308,1.1A1.909,1.909,0,0,0,13.574-12.672Zm14.3,14.5a1.2,1.2,0,0,1-.836-.319,1.114,1.114,0,0,1-.352-.869V-15.07a4.02,4.02,0,0,1,.286-1.683,1.7,1.7,0,0,1,1.045-.869,6.9,6.9,0,0,1,2.167-.264q2.442,0,3.1.968a2.444,2.444,0,0,1-.132,2.552l-.2.374q.814-.506,1.683-1.166t1.639-1.353q.77-.693,1.3-1.243a2.339,2.339,0,0,1,1.672-.814,2.519,2.519,0,0,1,1.738.682q.638.528,1.562,1.232T44.462-15.3q.99.649,1.782,1.067a1,1,0,0,1,.572.726,1.32,1.32,0,0,1-.132.946,1.359,1.359,0,0,1-.814.638,1.177,1.177,0,0,1-.99-.132q-.286-.176-.638-.4t-.726-.484a1.129,1.129,0,0,1,.088.462,1.1,1.1,0,0,1-.3.781,1.044,1.044,0,0,1-.8.319H40.722v1.122H41.8A6.144,6.144,0,0,1,43.747-10a1.8,1.8,0,0,1,1.067.9,4.2,4.2,0,0,1,.33,1.859,4.2,4.2,0,0,1-.33,1.859,1.8,1.8,0,0,1-1.067.9,6.144,6.144,0,0,1-1.947.253h-.484a12.165,12.165,0,0,0,2.1,1.881A11.571,11.571,0,0,0,45.98-.924a1.055,1.055,0,0,1,.66.682A1.174,1.174,0,0,1,46.6.7a1.165,1.165,0,0,1-.759.649A1.6,1.6,0,0,1,44.748,1.3,11.048,11.048,0,0,1,42.955.341a13.23,13.23,0,0,1-1.782-1.386,12.626,12.626,0,0,1-1.485-1.617,7.582,7.582,0,0,1-2.64,2.64,14.633,14.633,0,0,1-3.784,1.606,1.418,1.418,0,0,1-.957-.022A1.064,1.064,0,0,1,31.7.9a1.21,1.21,0,0,1,.055-.924,1.03,1.03,0,0,1,.649-.55,12.293,12.293,0,0,0,3.322-1.419,5.681,5.681,0,0,0,2.09-2.233h-.484a6.251,6.251,0,0,1-1.958-.253,1.8,1.8,0,0,1-1.078-.9,4.2,4.2,0,0,1-.33-1.859A4.2,4.2,0,0,1,34.3-9.1a1.8,1.8,0,0,1,1.078-.9,6.251,6.251,0,0,1,1.958-.253h1.012v-1.122H36.454a1.052,1.052,0,0,1-.792-.319,1.082,1.082,0,0,1-.308-.781.691.691,0,0,1,.011-.11.692.692,0,0,0,.011-.11q-.352.264-.693.506t-.649.418a1.392,1.392,0,0,1-.968.209,1.147,1.147,0,0,1-.814-.561.519.519,0,0,1-.11-.242q-.088.176-.176.341t-.154.275a1.5,1.5,0,0,0-.209.781,1.488,1.488,0,0,0,.429.737,5.5,5.5,0,0,1,1.474,3.85,3.729,3.729,0,0,1-.825,2.651,3.175,3.175,0,0,1-2.255.935,1.2,1.2,0,0,1-1.364-.836V.638a1.132,1.132,0,0,1-.341.869A1.192,1.192,0,0,1,27.874,1.826Zm1.188-6.314a1.335,1.335,0,0,1,.33-.5,1.089,1.089,0,0,1,.55-.275,1.285,1.285,0,0,0,.8-.462,2.194,2.194,0,0,0,.231-1.188,4.073,4.073,0,0,0-.352-1.628,4.557,4.557,0,0,0-.88-1.364,1.645,1.645,0,0,1-.5-.858,2.329,2.329,0,0,1,.275-1.144q.132-.242.385-.814t.506-1.166q.253-.594.363-.88.22-.528.088-.737t-.792-.209a1.371,1.371,0,0,0-.814.165.973.973,0,0,0-.2.737ZM36.5-13.574h6.138q-.748-.55-1.452-1.111t-1.166-.979a.914.914,0,0,0-.627-.341,1.011,1.011,0,0,0-.627.385q-.418.418-1.012.957T36.5-13.574Zm4.224,7.26h.77A2.079,2.079,0,0,0,42.5-6.468q.22-.154.22-.77,0-.638-.22-.781a2.22,2.22,0,0,0-1.012-.143h-.77Zm-3.1,0h.726V-8.162H37.62a2.22,2.22,0,0,0-1.012.143q-.22.143-.22.781,0,.616.22.77A2.079,2.079,0,0,0,37.62-6.314ZM61.6,1.254A5.845,5.845,0,0,1,57.508-.11,5,5,0,0,1,56.012-4a5.945,5.945,0,0,1,.066-.748q.066-.484.154-1.122-.616-.11-1.177-.242l-1.023-.242A1.238,1.238,0,0,1,53.251-7a1.266,1.266,0,0,1-.1-.99,1.372,1.372,0,0,1,.649-.77,1.21,1.21,0,0,1,.979-.11,15.116,15.116,0,0,0,1.914.44q.11-.638.242-1.3t.242-1.342q-.594-.11-1.1-.22t-.836-.2a1.282,1.282,0,0,1-.77-.627,1.21,1.21,0,0,1-.11-.979,1.293,1.293,0,0,1,.616-.792,1.226,1.226,0,0,1,.99-.11q.264.066.7.165t.99.209q.176-1.034.319-1.881a11.519,11.519,0,0,0,.165-1.375,1.16,1.16,0,0,1,.495-.88,1.328,1.328,0,0,1,.979-.264,1.254,1.254,0,0,1,.88.495,1.294,1.294,0,0,1,.264.979q-.066.55-.209,1.441t-.363,1.947q.352.066.649.1t.539.077a1.337,1.337,0,0,1,.858.506,1.225,1.225,0,0,1,.264.946,1.217,1.217,0,0,1-.495.869,1.282,1.282,0,0,1-.957.253q-.264-.022-.616-.077t-.726-.1q-.132.638-.253,1.276t-.231,1.254q.44.044.847.088t.759.066a1.221,1.221,0,0,1,.891.429,1.279,1.279,0,0,1,.341.935,1.207,1.207,0,0,1-.429.9,1.33,1.33,0,0,1-.957.33q-.44-.044-.924-.077t-.99-.1A10.59,10.59,0,0,0,58.586-4q0,2.64,3.014,2.64a3.567,3.567,0,0,0,2.09-.583A2.332,2.332,0,0,0,64.7-3.476,3.405,3.405,0,0,0,63.36-6.688,1.134,1.134,0,0,1,63-7.623a1.312,1.312,0,0,1,.451-.935,1.154,1.154,0,0,1,.924-.33,1.493,1.493,0,0,1,.924.418,6.462,6.462,0,0,1,1.716,2.541,5.394,5.394,0,0,1,.242,2.761A5,5,0,0,1,65.406.044,5.914,5.914,0,0,1,61.6,1.254ZM-69.41,41.76a1.45,1.45,0,0,1-1.056-.385,1.49,1.49,0,0,1-.44-1,1.33,1.33,0,0,1,.33-.957,1.371,1.371,0,0,1,.99-.451,2.281,2.281,0,0,0,1.221-.3,1.313,1.313,0,0,0,.253-.957V29.066h-6.842a1.166,1.166,0,0,1-.891-.363,1.225,1.225,0,0,1-.341-.869,1.225,1.225,0,0,1,.341-.869,1.166,1.166,0,0,1,.891-.363h6.842V22.884a1.246,1.246,0,0,1,.385-.968,1.336,1.336,0,0,1,.935-.352,1.336,1.336,0,0,1,.935.352,1.246,1.246,0,0,1,.385.968V26.6h1.958a1.158,1.158,0,0,1,.9.363,1.247,1.247,0,0,1,.33.869,1.247,1.247,0,0,1-.33.869,1.158,1.158,0,0,1-.9.363h-1.958v9.086a5.265,5.265,0,0,1-.363,2.156,2.12,2.12,0,0,1-1.221,1.122A6.752,6.752,0,0,1-69.41,41.76Zm-8.712.088a1.336,1.336,0,0,1-.935-.352,1.219,1.219,0,0,1-.385-.946V30.386q-.726.924-1.452,1.716a1.249,1.249,0,0,1-.891.429,1.24,1.24,0,0,1-.935-.319,1.232,1.232,0,0,1-.407-.836,1.067,1.067,0,0,1,.3-.836,25.49,25.49,0,0,0,2.046-2.552,32.559,32.559,0,0,0,1.848-2.926,20.4,20.4,0,0,0,1.32-2.794,1.242,1.242,0,0,1,.682-.693,1.334,1.334,0,0,1,.968-.011,1.129,1.129,0,0,1,.7.616,1.168,1.168,0,0,1,0,.99q-.286.77-.682,1.595t-.88,1.661V40.55a1.219,1.219,0,0,1-.385.946A1.308,1.308,0,0,1-78.122,41.848Zm7.766-6.138a1.376,1.376,0,0,1-1.067.242,1.274,1.274,0,0,1-.847-.594q-.22-.374-.605-.9t-.781-1.056q-.4-.528-.682-.858a1.118,1.118,0,0,1-.22-.913,1.248,1.248,0,0,1,.506-.825,1.574,1.574,0,0,1,.957-.3,1.17,1.17,0,0,1,.891.451q.286.33.7.869t.825,1.078q.407.539.627.891a1.332,1.332,0,0,1,.242,1.056A1.322,1.322,0,0,1-70.356,35.71Zm23.43,4.818a1.384,1.384,0,0,1-.979.33,1.308,1.308,0,0,1-.935-.418,1.285,1.285,0,0,1-.341-.968,1.3,1.3,0,0,1,.451-.924A8.072,8.072,0,0,0-46.915,36.3a8.544,8.544,0,0,0,.858-2.772,26.668,26.668,0,0,0,.231-3.784q-1.078.088-2.079.2t-1.815.242a1.331,1.331,0,0,1-.99-.209,1.271,1.271,0,0,1-.55-.825,1.331,1.331,0,0,1,.209-.99,1.205,1.205,0,0,1,.847-.528q.836-.132,1.991-.242t2.387-.2V24.182a1.292,1.292,0,0,1,.374-.935,1.237,1.237,0,0,1,.924-.385,1.237,1.237,0,0,1,.924.385,1.292,1.292,0,0,1,.374.935v2.86Q-42.46,27-41.789,27h1.155a1.3,1.3,0,0,1,.924.418,1.183,1.183,0,0,1,.33.946,1.207,1.207,0,0,1-.429.9,1.33,1.33,0,0,1-.957.33q-1.056-.044-2.464,0v.132A30.429,30.429,0,0,1-43.5,33.95a12.206,12.206,0,0,1-1.067,3.608A8.977,8.977,0,0,1-46.926,40.528ZM-54.34,40a1.26,1.26,0,0,1-.99-.187,1.271,1.271,0,0,1-.55-.825,23.086,23.086,0,0,1-.363-2.453q-.143-1.419-.2-3.036t-.011-3.278q.044-1.661.187-3.234a23.121,23.121,0,0,1,.429-2.871,1.231,1.231,0,0,1,.561-.836A1.277,1.277,0,0,1-54.3,23.1a1.221,1.221,0,0,1,.814.561,1.319,1.319,0,0,1,.176,1,26.387,26.387,0,0,0-.473,3.432q-.143,1.87-.132,3.762t.154,3.608a25.34,25.34,0,0,0,.407,2.992,1.277,1.277,0,0,1-.176.979A1.221,1.221,0,0,1-54.34,40ZM-26,40.792a1.292,1.292,0,0,1-.935-.374,1.315,1.315,0,0,1-.407-.924,1.292,1.292,0,0,1,.374-.935,1.315,1.315,0,0,1,.924-.407q6.16-.11,6.16-3.52a2.162,2.162,0,0,0-.77-1.76,3.1,3.1,0,0,0-2.046-.638,6.961,6.961,0,0,0-2.915.693,8.314,8.314,0,0,0-2.739,2.079,1.214,1.214,0,0,1-.737.407,1.262,1.262,0,0,1-.825-.121,1.109,1.109,0,0,1-.55-.561,1.375,1.375,0,0,1-.11-.8q.154-.924.341-2t.407-2.189q.22-1.111.44-2.057a1.178,1.178,0,0,1,.583-.825,1.3,1.3,0,0,1,1-.143,1.283,1.283,0,0,1,.814.6,1.269,1.269,0,0,1,.154,1q-.154.616-.363,1.419t-.429,1.705a8.878,8.878,0,0,1,4.994-1.716,6.178,6.178,0,0,1,2.838.616,4.586,4.586,0,0,1,1.881,1.716,4.844,4.844,0,0,1,.671,2.574A5.322,5.322,0,0,1-19.4,39.054Q-21.56,40.726-26,40.792Zm3.52-13.772q-.7-.352-1.595-.759t-1.782-.792q-.891-.385-1.573-.649a1.126,1.126,0,0,1-.66-.726,1.34,1.34,0,0,1,.044-1.012,1.227,1.227,0,0,1,.748-.671,1.458,1.458,0,0,1,1.012.033q.726.286,1.573.649t1.7.748q.858.385,1.562.737a1.416,1.416,0,0,1,.693.737,1.282,1.282,0,0,1,.011,1,1.364,1.364,0,0,1-.726.7A1.219,1.219,0,0,1-22.484,27.02ZM-4.268,41.65a1.229,1.229,0,0,1-.9-.374,1.229,1.229,0,0,1-.374-.9v-4.84q-.374.572-.737,1.133t-.671,1.067a1.18,1.18,0,0,1-.825.561,1.3,1.3,0,0,1-.979-.187,1.276,1.276,0,0,1-.539-.847,1.249,1.249,0,0,1,.209-.979q.638-.858,1.551-2.167t1.991-2.673V28.626a.806.806,0,0,1-.154.033.543.543,0,0,0-.176.055q-.242.044-.693.176l-.858.253-.561.165a1.309,1.309,0,0,1-.99-.176A1.3,1.3,0,0,1-9.57,28.3a1.283,1.283,0,0,1,.187-.99,1.25,1.25,0,0,1,.825-.572q.2-.044.616-.143t.891-.2q.473-.1.8-.165a5.936,5.936,0,0,1,.7-.132V22.928a1.229,1.229,0,0,1,.374-.9,1.229,1.229,0,0,1,.9-.374,1.229,1.229,0,0,1,.9.374,1.229,1.229,0,0,1,.374.9v3.608a1.819,1.819,0,0,1,.616.7,1.913,1.913,0,0,1,.22.616A11.514,11.514,0,0,1-.1,26.47a4.406,4.406,0,0,1,2.035-.528,3.7,3.7,0,0,1,3.432,1.617q.99,1.617.352,5.159-.242,1.408-.352,2.255a9.087,9.087,0,0,0-.1,1.287,1.433,1.433,0,0,0,.11.616.79.79,0,0,0,.275.286,1.325,1.325,0,0,0,1.122.033,3.923,3.923,0,0,0,1.3-.891A1.12,1.12,0,0,1,9.02,36a1.348,1.348,0,0,1,.9.484,1.2,1.2,0,0,1,.319.957,1.416,1.416,0,0,1-.451.913,5.759,5.759,0,0,1-2.9,1.573,4.115,4.115,0,0,1-2.816-.385,2.684,2.684,0,0,1-1.1-1.188,4.565,4.565,0,0,1-.33-2,20.544,20.544,0,0,1,.374-3.19,14.356,14.356,0,0,0,.308-2.937,1.985,1.985,0,0,0-.429-1.364A1.526,1.526,0,0,0,1.8,28.494a2.836,2.836,0,0,0-1.452.484,9.727,9.727,0,0,0-1.639,1.3A24.547,24.547,0,0,0-2.992,32.1v8.272a1.229,1.229,0,0,1-.374.9A1.229,1.229,0,0,1-4.268,41.65Zm26.07-.33a4.633,4.633,0,0,1-2.9-.847,2.982,2.982,0,0,1-1.1-2.519,2.933,2.933,0,0,1,1.111-2.4,4.59,4.59,0,0,1,2.981-.9q.66,0,1.32.066l-.066-2.486q-2.288.066-4.048,0a1.244,1.244,0,0,1-.891-.451,1.323,1.323,0,0,1-.319-.935,1.263,1.263,0,0,1,.451-.88,1.222,1.222,0,0,1,.935-.308q.836.044,1.815.055t1.991-.011q-.022-.528-.022-1.056t-.022-1.034q-1.078.022-2.09.011T19.1,27.592a1.172,1.172,0,0,1-.891-.429,1.355,1.355,0,0,1-.319-.957,1.263,1.263,0,0,1,.451-.88,1.222,1.222,0,0,1,.935-.308q1.628.11,3.718.066V23.192a1.292,1.292,0,0,1,.374-.935,1.237,1.237,0,0,1,.924-.385,1.315,1.315,0,0,1,1.32,1.32v.847q0,.451.022.957.9-.066,1.738-.143t1.518-.165a1.282,1.282,0,0,1,.957.253,1.2,1.2,0,0,1,.5.847,1.319,1.319,0,0,1-.253.979,1.2,1.2,0,0,1-.847.5q-.77.088-1.683.154t-1.881.11q0,.506.011,1.034t.033,1.056q.88-.044,1.683-.121t1.485-.165a1.188,1.188,0,0,1,.957.242,1.238,1.238,0,0,1,.5.858,1.282,1.282,0,0,1-.253.957,1.2,1.2,0,0,1-.847.495q-.748.088-1.628.154t-1.848.11q.044.88.055,1.672t.033,1.474a15.887,15.887,0,0,1,2.42.924,14.434,14.434,0,0,1,2.024,1.166,1.2,1.2,0,0,1,.539.836,1.3,1.3,0,0,1-1.056,1.529,1.249,1.249,0,0,1-.979-.209,13.2,13.2,0,0,0-1.364-.847,15.262,15.262,0,0,0-1.562-.737,3.24,3.24,0,0,1-1.144,2.552A4.689,4.689,0,0,1,21.8,41.32Zm-.022-2.486a1.611,1.611,0,0,0,1.188-.319,1.323,1.323,0,0,0,.286-.913v-.418a8.471,8.471,0,0,0-1.474-.132,1.762,1.762,0,0,0-1.034.242.775.775,0,0,0-.33.66Q20.416,38.834,21.78,38.834Zm24.4,2.706a1.678,1.678,0,0,1-1.023-.011,1.237,1.237,0,0,1-.737-.649,1.4,1.4,0,0,1-.044-1.034,1.122,1.122,0,0,1,.682-.726,8.837,8.837,0,0,0,2.6-1.43,4.335,4.335,0,0,0,1.3-1.826,3.443,3.443,0,0,1-1.474.352,4.366,4.366,0,0,1-2.838-.891,3.184,3.184,0,0,1-1.1-2.629,3.418,3.418,0,0,1,1.144-2.728,4.247,4.247,0,0,1,2.882-.99q.154,0,.286.011t.286.033q-.066-.374-.1-.77t-.055-.836q-2.2.088-4.323.253t-3.949.341a1.327,1.327,0,0,1-.946-.275,1.214,1.214,0,0,1-.484-.847,1.336,1.336,0,0,1,.286-.968,1.105,1.105,0,0,1,.858-.44q1.87-.154,4.07-.275T47.96,25V23.1a1.277,1.277,0,0,1,1.3-1.3,1.282,1.282,0,0,1,.946.374,1.255,1.255,0,0,1,.374.924v1.8q1.826-.044,3.5-.077t3.08-.055a1.186,1.186,0,0,1,.913.4A1.3,1.3,0,0,1,58,27a1.257,1.257,0,0,1-.935.33q-2.816-.11-6.49,0,.022.77.077,1.54t.1,1.474a5.127,5.127,0,0,1,1.056,3.41,8.216,8.216,0,0,1-1.441,4.818A7.926,7.926,0,0,1,46.178,41.54Zm1.3-7.59a1.55,1.55,0,0,0,1-.341,1.178,1.178,0,0,0,.363-.935,2.7,2.7,0,0,0-.033-.4q-.033-.22-.077-.44a1.5,1.5,0,0,0-1.21-.55,1.563,1.563,0,0,0-1.045.363,1.241,1.241,0,0,0-.429,1,1.205,1.205,0,0,0,.407.979A1.453,1.453,0,0,0,47.476,33.95ZM72.6,35.974a1.093,1.093,0,0,1-.77-.308,1.169,1.169,0,0,1-.374-.77q-.066-.836-.121-1.914t-.121-2.211q-.066-1.133-.11-2.167t-.066-1.826q-.022-.792-.022-1.166V23.434a1.448,1.448,0,0,1,.451-1.078,1.557,1.557,0,0,1,1.133-.44,1.585,1.585,0,0,1,1.155.44,1.448,1.448,0,0,1,.451,1.078v2.178q0,.374-.033,1.166T74.1,28.6q-.044,1.034-.1,2.167t-.121,2.211q-.066,1.078-.132,1.914a1.084,1.084,0,0,1-.352.77A1.12,1.12,0,0,1,72.6,35.974Zm0,5.368a1.878,1.878,0,1,1,1.32-.55A1.8,1.8,0,0,1,72.6,41.342Z" transform="translate(311.271 4658.5)" fill="#60432e" opacity="0.999"/><g transform="translate(228.941 4663.501)" clip-path="url(#a)"><g transform="translate(-453.942 -1414.971)"><path d="M-3743.688,4344c-6.457.185-5.916-4.024-11.831-4.024s-5.916,4.024-11.832,4.024-5.916-4.024-11.831-4.024-5.916,4.024-11.831,4.024-5.916-4.024-11.832-4.024-5.915,4.024-11.831,4.024-5.916-4.024-11.831-4.024-5.916,4.024-11.831,4.024-5.916-4.024-11.831-4.024-5.374,4.209-11.831,4.024" transform="translate(4320 -2921)" fill="none" stroke="#ffd86e" stroke-linecap="round" stroke-width="3"/></g><g transform="translate(-334.942 -1414.971)"><path d="M-3743.688,4344c-6.457.185-5.916-4.024-11.831-4.024s-5.916,4.024-11.832,4.024-5.916-4.024-11.831-4.024-5.916,4.024-11.831,4.024-5.916-4.024-11.832-4.024-5.915,4.024-11.831,4.024-5.916-4.024-11.831-4.024-5.916,4.024-11.831,4.024-5.916-4.024-11.831-4.024-5.374,4.209-11.831,4.024" transform="translate(4320 -2921)" fill="none" stroke="#ffd86e" stroke-linecap="round" stroke-width="3"/></g></g><g transform="translate(224.941 4700.501)" clip-path="url(#b)"><g transform="translate(-453.942 -1414.971)"><path d="M-3743.688,4344c-6.457.185-5.916-4.024-11.831-4.024s-5.916,4.024-11.832,4.024-5.916-4.024-11.831-4.024-5.916,4.024-11.831,4.024-5.916-4.024-11.832-4.024-5.915,4.024-11.831,4.024-5.916-4.024-11.831-4.024-5.916,4.024-11.831,4.024-5.916-4.024-11.831-4.024-5.374,4.209-11.831,4.024" transform="translate(4320 -2921)" fill="none" stroke="#ffd86e" stroke-linecap="round" stroke-width="3"/></g><g transform="translate(-334.942 -1414.971)"><path d="M-3743.688,4344c-6.457.185-5.916-4.024-11.831-4.024s-5.916,4.024-11.832,4.024-5.916-4.024-11.831-4.024-5.916,4.024-11.831,4.024-5.916-4.024-11.832-4.024-5.915,4.024-11.831,4.024-5.916-4.024-11.831-4.024-5.916,4.024-11.831,4.024-5.916-4.024-11.831-4.024-5.374,4.209-11.831,4.024" transform="translate(4320 -2921)" fill="none" stroke="#ffd86e" stroke-linecap="round" stroke-width="3"/></g></g></g></g><g transform="translate(1341.724 8549.996) rotate(5)"><g transform="translate(0 0.004)"><g transform="translate(0 0)" clip-path="url(#c)"><path d="M32.2,11.411A5.581,5.581,0,0,0,27.825,13.5c-1.579,2.182-3.37,5.447-3.229,7.447s.109,2.785.637,3.984,2.11,4.7,2.11,4.7-2.517,4.114,2.829,5.893l.671.484.24,4.579a.719.719,0,0,0-1.049.447,9.174,9.174,0,0,0-.433,2.057s-.6-.406-.974.46-1.444,3.058-1.444,3.058-8.6,4.818-9.761,5.251a3.621,3.621,0,0,0-2.165,2.9c-.244,1.353-4.06,29.014-4.06,29.014s-.3,3.056,1.164,4.275,8.2,6.118,8.2,6.118l-.433,4.412,13.4,1.243s5.231,5.151,8.2,5.009,2.815-1.11,3.383-1.624,1.786-1.191,1.543-2.084,1.137-1.516,1.137-1.516l9.554-.758L55.818,80.609l1.306-2.2s3.3,3.573,5.873,3.167,5.981-1.678,7.984-9.04,2.842-11.5,2.842-11.5l-.677-1.083.568-1.7-1.056-.388s-.027-.812,1.3-1.407,9.392-5.819,10.745-9.5V45.8l.92-1.434a1.715,1.715,0,0,1-.866-1.245c-.135-.893.217-1.705-.541-1.624s-1.326.433-1.462.027-.893-1.218-1.543-.92-6.577,4.439-8.066,4.682l-.46-.379,1.028-3.41s-.379-1.191-.947-1.11-.406.108-.866,1.218a20.069,20.069,0,0,1-2.409,4.439c-1,1.218-2.382,3.194-2.382,5.061s.162,2.328-.162,2.788-.65,1.028-.65,1.028h-.746l-3.693,6.82-3.631-8.9s.166-1.517-2.27-2.356a43.792,43.792,0,0,1-7.055-3.039,11.552,11.552,0,0,1-2.944-3.484,15.724,15.724,0,0,0-1.639-1.813s4.845-1.832,6.09-6.41,1.73-13.835,1.8-15.756a8.367,8.367,0,0,0-4.338-7.605c-3.577-1.786-6.933-4.2-10.289-3.41s-4.227.888-5.388,2.447" transform="translate(-10.757 -8.485)" fill="#fff"/><path d="M64.748,976.783l9.754-19.77,3.075,1.374c-.871-1.3-7.41-16.974-10.373-18.131-.873.261-.873.337-1.378,1.745-.771,3.149-9.467,5.862-11.618,7.348,0,0-1.041.688-1.485,3.444s-3.75,27.583-3.75,27.583a5.62,5.62,0,0,0,2.235,5.664c3.077,2.235,7.225,5.112,7.225,5.112l-.52,4.547,11.555,1.091-.113-.134c-.447-.523-.857-1.078-1.307-1.6-.031,0-.071-.007-.084-.007-3.091.149-1.827-2.549-.968-4.267a33.53,33.53,0,0,1,2.636-4.269c.4-.621,1.09-.023,1.567.181l.579-.712a1.493,1.493,0,0,0-.75-1.659c-1.047-.617-7.621-4.4-7.621-4.4s-.51-.942-.268-1.29,1.61-1.852,1.61-1.852" transform="translate(-47.059 -905.455)" fill="#a9b9ca"/><path d="M1018.941,1030.1l1.441,4.247s2.642,12.533,2.642,15.408l9.345,4.791-3.747,7.891a9.872,9.872,0,0,0,3.747,2.266c1.7.32,6.7,1.355,9.251-5.749a76.9,76.9,0,0,0,3.461-14.724s.126-.383-.346-.479a13.012,13.012,0,0,1-8.36-2.886s-.38-.5-.632-.439a48.482,48.482,0,0,0-2.171,5.017l-3.343-8.911s-.315-1.246-3.335-2.715-6.517-1.967-7.953-3.716" transform="translate(-981.227 -991.977)" fill="#a9b9ca"/><path d="M1040.731,1919.008s-.226-2.061-.226-2.143l-1.1,1.857s.146,1.222.249,2.059c-1.738,3.745-5.548,11.814-5.548,11.814a.958.958,0,0,1,.489,1.241c-.285.927-2.027,1.159-2,1.565a14.947,14.947,0,0,0,.3,1.518l9.235-.722Z" transform="translate(-994.375 -1845.917)" fill="#a9b9ca"/></g></g><g transform="translate(30.169 39.749)"><g clip-path="url(#d)"><path d="M1013.011,1065.053a.3.3,0,1,1-.426,0,.3.3,0,0,1,.426,0" transform="translate(-1005.191 -1065.294)" fill="#f4dd92"/><path d="M1034.414,1086.455a.3.3,0,1,1-.426,0,.3.3,0,0,1,.426,0" transform="translate(-1025.801 -1085.903)" fill="#f4dd92"/><path d="M970.206,1065.053a.3.3,0,1,1-.426,0,.3.3,0,0,1,.426,0" transform="translate(-963.97 -1065.294)" fill="#f4dd92"/><path d="M991.609,1086.455a.3.3,0,1,1-.426,0,.3.3,0,0,1,.426,0" transform="translate(-984.581 -1085.903)" fill="#f4dd92"/><path d="M1013.011,1107.859a.3.3,0,1,1-.426,0,.3.3,0,0,1,.426,0" transform="translate(-1005.191 -1106.514)" fill="#f4dd92"/><path d="M1034.414,1129.261a.3.3,0,1,1-.426,0,.3.3,0,0,1,.426,0" transform="translate(-1025.801 -1127.125)" fill="#f4dd92"/><path d="M927.4,1065.053a.3.3,0,1,1-.426,0,.3.3,0,0,1,.426,0" transform="translate(-922.749 -1065.294)" fill="#f4dd92"/><path d="M948.8,1086.455a.3.3,0,1,1-.426,0,.3.3,0,0,1,.426,0" transform="translate(-943.359 -1085.903)" fill="#f4dd92"/><path d="M970.206,1107.859a.3.3,0,1,1-.426,0,.3.3,0,0,1,.426,0" transform="translate(-963.97 -1106.514)" fill="#f4dd92"/><path d="M991.609,1129.261a.3.3,0,1,1-.426,0,.3.3,0,0,1,.426,0" transform="translate(-984.581 -1127.125)" fill="#f4dd92"/><path d="M1013.011,1150.664a.3.3,0,1,1-.426,0,.3.3,0,0,1,.426,0" transform="translate(-1005.191 -1147.735)" fill="#f4dd92"/><path d="M1034.414,1172.067a.3.3,0,1,1-.426,0,.3.3,0,0,1,.426,0" transform="translate(-1025.801 -1168.346)" fill="#f4dd92"/><path d="M884.6,1065.053a.3.3,0,1,1-.426,0,.3.3,0,0,1,.426,0" transform="translate(-881.528 -1065.294)" fill="#f4dd92"/><path d="M906,1086.455a.3.3,0,1,1-.426,0,.3.3,0,0,1,.426,0" transform="translate(-902.139 -1085.903)" fill="#f4dd92"/><path d="M927.4,1107.859a.3.3,0,1,1-.426,0,.3.3,0,0,1,.426,0" transform="translate(-922.749 -1106.514)" fill="#f4dd92"/><path d="M948.8,1129.261a.3.3,0,1,1-.426,0,.3.3,0,0,1,.426,0" transform="translate(-943.359 -1127.125)" fill="#f4dd92"/><path d="M970.206,1150.664a.3.3,0,1,1-.426,0,.3.3,0,0,1,.426,0" transform="translate(-963.97 -1147.735)" fill="#f4dd92"/><path d="M991.609,1172.067a.3.3,0,1,1-.426,0,.3.3,0,0,1,.426,0" transform="translate(-984.581 -1168.346)" fill="#f4dd92"/><path d="M1013.011,1193.469a.3.3,0,1,1-.426,0,.3.3,0,0,1,.426,0" transform="translate(-1005.191 -1188.957)" fill="#f4dd92"/><path d="M1034.414,1214.872a.3.3,0,1,1-.426,0,.3.3,0,0,1,.426,0" transform="translate(-1025.801 -1209.567)" fill="#f4dd92"/><path d="M841.79,1065.053a.3.3,0,1,1-.426,0,.3.3,0,0,1,.426,0" transform="translate(-840.307 -1065.294)" fill="#f4dd92"/><path d="M863.193,1086.455a.3.3,0,1,1-.426,0,.3.3,0,0,1,.426,0" transform="translate(-860.918 -1085.903)" fill="#f4dd92"/><path d="M884.6,1107.859a.3.3,0,1,1-.426,0,.3.3,0,0,1,.426,0" transform="translate(-881.528 -1106.514)" fill="#f4dd92"/><path d="M906,1129.261a.3.3,0,1,1-.426,0,.3.3,0,0,1,.426,0" transform="translate(-902.139 -1127.125)" fill="#f4dd92"/><path d="M927.4,1150.664a.3.3,0,1,1-.426,0,.3.3,0,0,1,.426,0" transform="translate(-922.749 -1147.735)" fill="#f4dd92"/><path d="M948.8,1172.067a.3.3,0,1,1-.426,0,.3.3,0,0,1,.426,0" transform="translate(-943.359 -1168.346)" fill="#f4dd92"/><path d="M970.206,1193.469a.3.3,0,1,1-.426,0,.3.3,0,0,1,.426,0" transform="translate(-963.97 -1188.957)" fill="#f4dd92"/><path d="M991.609,1214.872a.3.3,0,1,1-.426,0,.3.3,0,0,1,.426,0" transform="translate(-984.581 -1209.567)" fill="#f4dd92"/><path d="M1013.011,1236.274a.3.3,0,1,1-.426,0,.3.3,0,0,1,.426,0" transform="translate(-1005.191 -1230.177)" fill="#f4dd92"/><path d="M1034.414,1257.677a.3.3,0,1,1-.426,0,.3.3,0,0,1,.426,0" transform="translate(-1025.801 -1250.788)" fill="#f4dd92"/><path d="M798.984,1065.053a.3.3,0,1,1-.426,0,.3.3,0,0,1,.426,0" transform="translate(-799.085 -1065.294)" fill="#f4dd92"/><path d="M820.387,1086.455a.3.3,0,1,1-.426,0,.3.3,0,0,1,.426,0" transform="translate(-819.696 -1085.903)" fill="#f4dd92"/><path d="M841.79,1107.859a.3.3,0,1,1-.426,0,.3.3,0,0,1,.426,0" transform="translate(-840.307 -1106.514)" fill="#f4dd92"/><path d="M863.193,1129.261a.3.3,0,1,1-.426,0,.3.3,0,0,1,.426,0" transform="translate(-860.918 -1127.125)" fill="#f4dd92"/><path d="M884.6,1150.664a.3.3,0,1,1-.426,0,.3.3,0,0,1,.426,0" transform="translate(-881.528 -1147.735)" fill="#f4dd92"/><path d="M906,1172.067a.3.3,0,1,1-.426,0,.3.3,0,0,1,.426,0" transform="translate(-902.139 -1168.346)" fill="#f4dd92"/><path d="M927.4,1193.469a.3.3,0,1,1-.426,0,.3.3,0,0,1,.426,0" transform="translate(-922.749 -1188.957)" fill="#f4dd92"/><path d="M948.8,1214.872a.3.3,0,1,1-.426,0,.3.3,0,0,1,.426,0" transform="translate(-943.359 -1209.567)" fill="#f4dd92"/><path d="M970.206,1236.274a.3.3,0,1,1-.426,0,.3.3,0,0,1,.426,0" transform="translate(-963.97 -1230.177)" fill="#f4dd92"/><path d="M991.609,1257.677a.3.3,0,1,1-.426,0,.3.3,0,0,1,.426,0" transform="translate(-984.581 -1250.788)" fill="#f4dd92"/><path d="M1013.011,1279.08a.3.3,0,1,1-.426,0,.3.3,0,0,1,.426,0" transform="translate(-1005.191 -1271.399)" fill="#f4dd92"/><path d="M1034.414,1300.482a.3.3,0,1,1-.426,0,.3.3,0,0,1,.426,0" transform="translate(-1025.801 -1292.009)" fill="#f4dd92"/><path d="M798.984,1107.859a.3.3,0,1,1-.426,0,.3.3,0,0,1,.426,0" transform="translate(-799.085 -1106.514)" fill="#f4dd92"/><path d="M820.387,1129.261a.3.3,0,1,1-.426,0,.3.3,0,0,1,.426,0" transform="translate(-819.696 -1127.125)" fill="#f4dd92"/><path d="M841.79,1150.664a.3.3,0,1,1-.426,0,.3.3,0,0,1,.426,0" transform="translate(-840.307 -1147.735)" fill="#f4dd92"/><path d="M863.193,1172.067a.3.3,0,1,1-.426,0,.3.3,0,0,1,.426,0" transform="translate(-860.918 -1168.346)" fill="#f4dd92"/><path d="M884.6,1193.469a.3.3,0,1,1-.426,0,.3.3,0,0,1,.426,0" transform="translate(-881.528 -1188.957)" fill="#f4dd92"/><path d="M906,1214.872a.3.3,0,1,1-.426,0,.3.3,0,0,1,.426,0" transform="translate(-902.139 -1209.567)" fill="#f4dd92"/><path d="M927.4,1236.274a.3.3,0,1,1-.426,0,.3.3,0,0,1,.426,0" transform="translate(-922.749 -1230.177)" fill="#f4dd92"/><path d="M948.8,1257.677a.3.3,0,1,1-.426,0,.3.3,0,0,1,.426,0" transform="translate(-943.359 -1250.788)" fill="#f4dd92"/><path d="M970.206,1279.08a.3.3,0,1,1-.426,0,.3.3,0,0,1,.426,0" transform="translate(-963.97 -1271.399)" fill="#f4dd92"/><path d="M991.609,1300.482a.3.3,0,1,1-.426,0,.3.3,0,0,1,.426,0" transform="translate(-984.581 -1292.009)" fill="#f4dd92"/><path d="M1013.011,1321.885a.3.3,0,1,1-.426,0,.3.3,0,0,1,.426,0" transform="translate(-1005.191 -1312.619)" fill="#f4dd92"/><path d="M1034.414,1343.288a.3.3,0,1,1-.426,0,.3.3,0,0,1,.426,0" transform="translate(-1025.801 -1333.23)" fill="#f4dd92"/><path d="M798.984,1150.664a.3.3,0,1,1-.426,0,.3.3,0,0,1,.426,0" transform="translate(-799.085 -1147.735)" fill="#f4dd92"/><path d="M820.387,1172.067a.3.3,0,1,1-.426,0,.3.3,0,0,1,.426,0" transform="translate(-819.696 -1168.346)" fill="#f4dd92"/><path d="M841.79,1193.469a.3.3,0,1,1-.426,0,.3.3,0,0,1,.426,0" transform="translate(-840.307 -1188.957)" fill="#f4dd92"/><path d="M863.193,1214.872a.3.3,0,1,1-.426,0,.3.3,0,0,1,.426,0" transform="translate(-860.918 -1209.567)" fill="#f4dd92"/><path d="M884.6,1236.274a.3.3,0,1,1-.426,0,.3.3,0,0,1,.426,0" transform="translate(-881.528 -1230.177)" fill="#f4dd92"/><path d="M906,1257.677a.3.3,0,1,1-.426,0,.3.3,0,0,1,.426,0" transform="translate(-902.139 -1250.788)" fill="#f4dd92"/><path d="M927.4,1279.08a.3.3,0,1,1-.426,0,.3.3,0,0,1,.426,0" transform="translate(-922.749 -1271.399)" fill="#f4dd92"/><path d="M948.8,1300.482a.3.3,0,1,1-.426,0,.3.3,0,0,1,.426,0" transform="translate(-943.359 -1292.009)" fill="#f4dd92"/><path d="M970.206,1321.885a.3.3,0,1,1-.426,0,.3.3,0,0,1,.426,0" transform="translate(-963.97 -1312.619)" fill="#f4dd92"/><path d="M991.609,1343.288a.3.3,0,1,1-.426,0,.3.3,0,0,1,.426,0" transform="translate(-984.581 -1333.23)" fill="#f4dd92"/><path d="M1013.011,1364.69a.3.3,0,1,1-.426,0,.3.3,0,0,1,.426,0" transform="translate(-1005.191 -1353.84)" fill="#f4dd92"/><path d="M1034.414,1386.093a.3.3,0,1,1-.426,0,.3.3,0,0,1,.426,0" transform="translate(-1025.801 -1374.451)" fill="#f4dd92"/><path d="M798.984,1193.469a.3.3,0,1,1-.426,0,.3.3,0,0,1,.426,0" transform="translate(-799.085 -1188.957)" fill="#f4dd92"/><path d="M820.387,1214.872a.3.3,0,1,1-.426,0,.3.3,0,0,1,.426,0" transform="translate(-819.696 -1209.567)" fill="#f4dd92"/><path d="M841.79,1236.274a.3.3,0,1,1-.426,0,.3.3,0,0,1,.426,0" transform="translate(-840.307 -1230.177)" fill="#f4dd92"/><path d="M863.193,1257.677a.3.3,0,1,1-.426,0,.3.3,0,0,1,.426,0" transform="translate(-860.918 -1250.788)" fill="#f4dd92"/><path d="M884.6,1279.08a.3.3,0,1,1-.426,0,.3.3,0,0,1,.426,0" transform="translate(-881.528 -1271.399)" fill="#f4dd92"/><path d="M906,1300.482a.3.3,0,1,1-.426,0,.3.3,0,0,1,.426,0" transform="translate(-902.139 -1292.009)" fill="#f4dd92"/><path d="M927.4,1321.885a.3.3,0,1,1-.426,0,.3.3,0,0,1,.426,0" transform="translate(-922.749 -1312.619)" fill="#f4dd92"/><path d="M948.8,1343.288a.3.3,0,1,1-.426,0,.3.3,0,0,1,.426,0" transform="translate(-943.359 -1333.23)" fill="#f4dd92"/><path d="M970.206,1364.69a.3.3,0,1,1-.426,0,.3.3,0,0,1,.426,0" transform="translate(-963.97 -1353.84)" fill="#f4dd92"/><path d="M991.609,1386.093a.3.3,0,1,1-.426,0,.3.3,0,0,1,.426,0" transform="translate(-984.581 -1374.451)" fill="#f4dd92"/><path d="M1013.011,1407.5a.3.3,0,1,1-.426,0,.3.3,0,0,1,.426,0" transform="translate(-1005.191 -1395.062)" fill="#f4dd92"/><path d="M1034.414,1428.9a.3.3,0,1,1-.426,0,.3.3,0,0,1,.426,0" transform="translate(-1025.801 -1415.672)" fill="#f4dd92"/><path d="M798.984,1236.274a.3.3,0,1,1-.426,0,.3.3,0,0,1,.426,0" transform="translate(-799.085 -1230.177)" fill="#f4dd92"/><path d="M820.387,1257.677a.3.3,0,1,1-.426,0,.3.3,0,0,1,.426,0" transform="translate(-819.696 -1250.788)" fill="#f4dd92"/><path d="M841.79,1279.08a.3.3,0,1,1-.426,0,.3.3,0,0,1,.426,0" transform="translate(-840.307 -1271.399)" fill="#f4dd92"/><path d="M863.193,1300.482a.3.3,0,1,1-.426,0,.3.3,0,0,1,.426,0" transform="translate(-860.918 -1292.009)" fill="#f4dd92"/><path d="M884.6,1321.885a.3.3,0,1,1-.426,0,.3.3,0,0,1,.426,0" transform="translate(-881.528 -1312.619)" fill="#f4dd92"/><path d="M906,1343.288a.3.3,0,1,1-.426,0,.3.3,0,0,1,.426,0" transform="translate(-902.139 -1333.23)" fill="#f4dd92"/><path d="M927.4,1364.69a.3.3,0,1,1-.426,0,.3.3,0,0,1,.426,0" transform="translate(-922.749 -1353.84)" fill="#f4dd92"/><path d="M948.8,1386.093a.3.3,0,1,1-.426,0,.3.3,0,0,1,.426,0" transform="translate(-943.359 -1374.451)" fill="#f4dd92"/><path d="M970.206,1407.5a.3.3,0,1,1-.426,0,.3.3,0,0,1,.426,0" transform="translate(-963.97 -1395.062)" fill="#f4dd92"/><path d="M991.609,1428.9a.3.3,0,1,1-.426,0,.3.3,0,0,1,.426,0" transform="translate(-984.581 -1415.672)" fill="#f4dd92"/><path d="M1013.011,1450.3a.3.3,0,1,1-.426,0,.3.3,0,0,1,.426,0" transform="translate(-1005.191 -1436.282)" fill="#f4dd92"/><path d="M1034.414,1471.7a.3.3,0,1,1-.426,0,.3.3,0,0,1,.426,0" transform="translate(-1025.801 -1456.893)" fill="#f4dd92"/><path d="M798.984,1279.08a.3.3,0,1,1-.426,0,.3.3,0,0,1,.426,0" transform="translate(-799.085 -1271.399)" fill="#f4dd92"/><path d="M820.387,1300.482a.3.3,0,1,1-.426,0,.3.3,0,0,1,.426,0" transform="translate(-819.696 -1292.009)" fill="#f4dd92"/><path d="M841.79,1321.885a.3.3,0,1,1-.426,0,.3.3,0,0,1,.426,0" transform="translate(-840.307 -1312.619)" fill="#f4dd92"/><path d="M863.193,1343.288a.3.3,0,1,1-.426,0,.3.3,0,0,1,.426,0" transform="translate(-860.918 -1333.23)" fill="#f4dd92"/><path d="M884.6,1364.69a.3.3,0,1,1-.426,0,.3.3,0,0,1,.426,0" transform="translate(-881.528 -1353.84)" fill="#f4dd92"/><path d="M906,1386.093a.3.3,0,1,1-.426,0,.3.3,0,0,1,.426,0" transform="translate(-902.139 -1374.451)" fill="#f4dd92"/><path d="M927.4,1407.5a.3.3,0,1,1-.426,0,.3.3,0,0,1,.426,0" transform="translate(-922.749 -1395.062)" fill="#f4dd92"/><path d="M948.8,1428.9a.3.3,0,1,1-.426,0,.3.3,0,0,1,.426,0" transform="translate(-943.359 -1415.672)" fill="#f4dd92"/><path d="M970.206,1450.3a.3.3,0,1,1-.426,0,.3.3,0,0,1,.426,0" transform="translate(-963.97 -1436.282)" fill="#f4dd92"/><path d="M991.609,1471.7a.3.3,0,1,1-.426,0,.3.3,0,0,1,.426,0" transform="translate(-984.581 -1456.893)" fill="#f4dd92"/><path d="M1013.011,1493.107a.3.3,0,1,1-.426,0,.3.3,0,0,1,.426,0" transform="translate(-1005.191 -1477.504)" fill="#f4dd92"/><path d="M1034.414,1514.509a.3.3,0,1,1-.426,0,.3.3,0,0,1,.426,0" transform="translate(-1025.801 -1498.114)" fill="#f4dd92"/><path d="M798.984,1321.885a.3.3,0,1,1-.426,0,.3.3,0,0,1,.426,0" transform="translate(-799.085 -1312.619)" fill="#f4dd92"/><path d="M820.387,1343.288a.3.3,0,1,1-.426,0,.3.3,0,0,1,.426,0" transform="translate(-819.696 -1333.23)" fill="#f4dd92"/><path d="M841.79,1364.69a.3.3,0,1,1-.426,0,.3.3,0,0,1,.426,0" transform="translate(-840.307 -1353.84)" fill="#f4dd92"/><path d="M863.193,1386.093a.3.3,0,1,1-.426,0,.3.3,0,0,1,.426,0" transform="translate(-860.918 -1374.451)" fill="#f4dd92"/><path d="M884.6,1407.5a.3.3,0,1,1-.426,0,.3.3,0,0,1,.426,0" transform="translate(-881.528 -1395.062)" fill="#f4dd92"/><path d="M906,1428.9a.3.3,0,1,1-.426,0,.3.3,0,0,1,.426,0" transform="translate(-902.139 -1415.672)" fill="#f4dd92"/><path d="M927.4,1450.3a.3.3,0,1,1-.426,0,.3.3,0,0,1,.426,0" transform="translate(-922.749 -1436.282)" fill="#f4dd92"/><path d="M948.8,1471.7a.3.3,0,1,1-.426,0,.3.3,0,0,1,.426,0" transform="translate(-943.359 -1456.893)" fill="#f4dd92"/><path d="M970.206,1493.107a.3.3,0,1,1-.426,0,.3.3,0,0,1,.426,0" transform="translate(-963.97 -1477.504)" fill="#f4dd92"/><path d="M991.609,1514.509a.3.3,0,1,1-.426,0,.3.3,0,0,1,.426,0" transform="translate(-984.581 -1498.114)" fill="#f4dd92"/><path d="M1013.011,1535.912a.3.3,0,1,1-.426,0,.3.3,0,0,1,.426,0" transform="translate(-1005.191 -1518.724)" fill="#f4dd92"/><path d="M798.984,1364.69a.3.3,0,1,1-.426,0,.3.3,0,0,1,.426,0" transform="translate(-799.085 -1353.84)" fill="#f4dd92"/><path d="M820.387,1386.093a.3.3,0,1,1-.426,0,.3.3,0,0,1,.426,0" transform="translate(-819.696 -1374.451)" fill="#f4dd92"/><path d="M841.79,1407.5a.3.3,0,1,1-.426,0,.3.3,0,0,1,.426,0" transform="translate(-840.307 -1395.062)" fill="#f4dd92"/><path d="M863.193,1428.9a.3.3,0,1,1-.426,0,.3.3,0,0,1,.426,0" transform="translate(-860.918 -1415.672)" fill="#f4dd92"/><path d="M884.6,1450.3a.3.3,0,1,1-.426,0,.3.3,0,0,1,.426,0" transform="translate(-881.528 -1436.282)" fill="#f4dd92"/><path d="M906,1471.7a.3.3,0,1,1-.426,0,.3.3,0,0,1,.426,0" transform="translate(-902.139 -1456.893)" fill="#f4dd92"/><path d="M927.4,1493.107a.3.3,0,1,1-.426,0,.3.3,0,0,1,.426,0" transform="translate(-922.749 -1477.504)" fill="#f4dd92"/><path d="M948.8,1514.509a.3.3,0,1,1-.426,0,.3.3,0,0,1,.426,0" transform="translate(-943.359 -1498.114)" fill="#f4dd92"/><path d="M970.206,1535.912a.3.3,0,1,1-.426,0,.3.3,0,0,1,.426,0" transform="translate(-963.97 -1518.724)" fill="#f4dd92"/><path d="M798.984,1407.5a.3.3,0,1,1-.426,0,.3.3,0,0,1,.426,0" transform="translate(-799.085 -1395.062)" fill="#f4dd92"/><path d="M820.387,1428.9a.3.3,0,1,1-.426,0,.3.3,0,0,1,.426,0" transform="translate(-819.696 -1415.672)" fill="#f4dd92"/><path d="M841.79,1450.3a.3.3,0,1,1-.426,0,.3.3,0,0,1,.426,0" transform="translate(-840.307 -1436.282)" fill="#f4dd92"/><path d="M863.193,1471.7a.3.3,0,1,1-.426,0,.3.3,0,0,1,.426,0" transform="translate(-860.918 -1456.893)" fill="#f4dd92"/><path d="M884.6,1493.107a.3.3,0,1,1-.426,0,.3.3,0,0,1,.426,0" transform="translate(-881.528 -1477.504)" fill="#f4dd92"/><path d="M906,1514.509a.3.3,0,1,1-.426,0,.3.3,0,0,1,.426,0" transform="translate(-902.139 -1498.114)" fill="#f4dd92"/><path d="M927.4,1535.912a.3.3,0,1,1-.426,0,.3.3,0,0,1,.426,0" transform="translate(-922.749 -1518.724)" fill="#f4dd92"/><path d="M798.984,1450.3a.3.3,0,1,1-.426,0,.3.3,0,0,1,.426,0" transform="translate(-799.085 -1436.282)" fill="#f4dd92"/><path d="M820.387,1471.7a.3.3,0,1,1-.426,0,.3.3,0,0,1,.426,0" transform="translate(-819.696 -1456.893)" fill="#f4dd92"/><path d="M841.79,1493.107a.3.3,0,1,1-.426,0,.3.3,0,0,1,.426,0" transform="translate(-840.307 -1477.504)" fill="#f4dd92"/><path d="M863.193,1514.509a.3.3,0,1,1-.426,0,.3.3,0,0,1,.426,0" transform="translate(-860.918 -1498.114)" fill="#f4dd92"/><path d="M884.6,1535.912a.3.3,0,1,1-.426,0,.3.3,0,0,1,.426,0" transform="translate(-881.528 -1518.724)" fill="#f4dd92"/><path d="M798.984,1493.107a.3.3,0,1,1-.426,0,.3.3,0,0,1,.426,0" transform="translate(-799.085 -1477.504)" fill="#f4dd92"/><path d="M820.387,1514.509a.3.3,0,1,1-.426,0,.3.3,0,0,1,.426,0" transform="translate(-819.696 -1498.114)" fill="#f4dd92"/><path d="M841.79,1535.912a.3.3,0,1,1-.426,0,.3.3,0,0,1,.426,0" transform="translate(-840.307 -1518.724)" fill="#f4dd92"/><path d="M798.984,1535.912a.3.3,0,1,1-.426,0,.3.3,0,0,1,.426,0" transform="translate(-799.085 -1518.724)" fill="#f4dd92"/></g></g><g transform="translate(0 0.004)"><g transform="translate(0 0)" clip-path="url(#c)"><path d="M444.451,26.837c-.023-1.064-.383-4.71-2.795-6.341s-6.288-4.687-10.931-4.574c0,0-4.485-.091-5.7,2.446,0,0-2.019-.641-4.1,1.676S417.9,25.909,417.608,27a11.306,11.306,0,0,0,.947,5.842c.592,1.324,1.062,2.54,1.315,3.219a4.519,4.519,0,0,1,1.612-.1,6.694,6.694,0,0,1,1.2.235l-.159-2.21a2.318,2.318,0,0,0,1.037-1.573,17.648,17.648,0,0,0,0-2.786s1.465-6.386,5.139-6.2c0,0,1.274-1.562,2.2-1.268s1.464,1,2.357,1.4,3.767.011,3.936.408,1.516.566,2,.362,1.667.556,2.511,1.621,1.222,2.688,1.605,2.85,1.165-.893,1.143-1.957" transform="translate(-402.052 -15.33)" fill="#f9e9aa"/><path d="M365.973,1776.129a.661.661,0,0,0-.166-.559,1.48,1.48,0,0,1-.349-1.5c.006-.046.012-.092.018-.137.144-1.124.288-2.264.426-3.367l.145-1.15c0-.027.007-.054.011-.083a2.088,2.088,0,0,0,.024-.239c.008-.348-.132-.55-.415-.6a.683.683,0,0,0-.117-.011c-.263,0-.443.178-.493.49-.068.427-.12.863-.171,1.286l0,.013c-.022.182-.043.364-.066.546q-.2,1.564-.4,3.128l-.152,1.2a.56.56,0,0,0,.251.64.748.748,0,0,1,.374,1,1,1,0,0,0,.569,1.193c1.676,1.017,3.334,2.043,5.026,3.092.206.128.411.265.613.4a10.034,10.034,0,0,0,1.354.806c.059.027.118.062.175.1s.106.062.162.089a1.135,1.135,0,0,0,.464.138.443.443,0,0,0,.409-.272c.221-.417-.132-.633-.389-.79l-4.249-2.6-1.271-.779c-.085-.052-.169-.1-.253-.158-.184-.116-.375-.237-.57-.343-.611-.331-1.188-.643-.963-1.511" transform="translate(-350.775 -1703.023)" fill="#3a3d3f"/><path d="M1008.971,1121.9c-.5-2.172-.907-4.123-1.231-5.964l-.011-.063c-.059-.345-.147-.681-.526-.681a.737.737,0,0,0-.119.01.5.5,0,0,0-.345.191.877.877,0,0,0-.047.65c.087.446.17.9.251,1.34.188,1.029.383,2.094.643,3.125a70.556,70.556,0,0,1,1.457,9.007l.059.5a3.1,3.1,0,0,0,.129.669.5.5,0,0,0,.476.365.654.654,0,0,0,.168-.023.474.474,0,0,0,.371-.465c-.137-.954-.251-1.909-.362-2.833a53.766,53.766,0,0,0-.914-5.833" transform="translate(-969.396 -1073.921)" fill="#3a3d3f"/><path d="M220.209,1217.429a9.722,9.722,0,0,0-1.093-.786.746.746,0,0,0-.389-.132.447.447,0,0,0-.385.226c-.191.291-.112.549.241.788a18.565,18.565,0,0,1,5.213,5.983,15.1,15.1,0,0,1,1.552,4.208v.006q.068.264.137.527c.016.06.029.121.041.183a2.619,2.619,0,0,0,.062.255c.089.282.254.426.491.426a.656.656,0,0,0,.1-.008c.271-.042.406-.284.4-.72v0c-.063-.253-.125-.513-.185-.765a15.834,15.834,0,0,0-1.243-3.774,20.987,20.987,0,0,0-4.95-6.412" transform="translate(-210.164 -1171.485)" fill="#3a3d3f"/><path d="M165.7,1962.051c-.111,0-.231-.006-.378-.006l-.292,0h-.321a12.879,12.879,0,0,0-4.121.7,2.809,2.809,0,0,0-.638.3.478.478,0,0,0,.269.877l.053,0a1.433,1.433,0,0,0,.378-.088,12.065,12.065,0,0,1,4.213-.746c.119,0,.239,0,.358,0l.125,0a2.222,2.222,0,0,0,.39-.03c.344-.061.518-.242.5-.525a.5.5,0,0,0-.54-.486" transform="translate(-153.818 -1889.424)" fill="#3a3d3f"/><path d="M75.279,744.6a1.543,1.543,0,0,0-.575-1.054.633.633,0,0,1-.246-.53c-.02-.907-.477-1.436-1.255-1.45H73.17a2.2,2.2,0,0,0-.382.036,1.247,1.247,0,0,1-.215.022h-.014a.634.634,0,0,1-.5-.283,1.762,1.762,0,0,0-1.337-.584h-.04a2.4,2.4,0,0,0-1,.224,14.572,14.572,0,0,0-2.025,1.219l-.009.006c-.142.1-.3.206-.466.314l-.118.079a31.716,31.716,0,0,1-3.73,2.241c-.039.019-.08.041-.107.055a.906.906,0,0,1-.428.14h-.06l.01-.06a3.228,3.228,0,0,1,.268-.787,4.752,4.752,0,0,0,.2-.49,3.788,3.788,0,0,0,.258-1.736,2.037,2.037,0,0,0-1.8-1.664l-.066,0h-.02a.662.662,0,0,0-.694.581,16.267,16.267,0,0,1-2.929,5.683,9,9,0,0,0-1.907,6.31,2.251,2.251,0,0,1-.077,1l-.5.93a.638.638,0,0,0-.082.126.824.824,0,0,0-.386-.113c-.333,0-.6.29-.845.913l-.023.058c-.108.281-.2.523-.565.573-.228.031-.307.232-.384.426-.015.039-.031.079-.048.117-.611,1.369-1.243,2.785-2,4.146a6.263,6.263,0,0,0-.665-1.849c-.053-.11-.114-.234-.169-.354a16.27,16.27,0,0,1-.972-2.505,19.655,19.655,0,0,0-1.21-2.981c-.106-.225-.216-.458-.323-.691a4.079,4.079,0,0,0-2.342-2.01c-.574-.239-1.161-.474-1.729-.7-1.308-.523-2.661-1.065-3.945-1.691a7.933,7.933,0,0,1-4.007-3.708,4.3,4.3,0,0,0-1.278-1.439.77.77,0,0,0-.473-.2c-.266,0-.473.212-.569.581l-.007.028a1.207,1.207,0,0,0-.059.424,5.274,5.274,0,0,1-1.015,3.254c-.193.334-.392.679-.56,1.029a.255.255,0,0,1-.084.079l-.052.039-.551-.45q-.607-.5-1.211-.99a71.871,71.871,0,0,0-6.38-4.652,18.66,18.66,0,0,0-1.974-1.073c-.239-.117-.482-.238-.724-.362a.932.932,0,0,0,.034-.276L20.792,737a.715.715,0,0,0-.565-.751H20.2a.4.4,0,0,0-.288.134.865.865,0,0,0-.218.609l.079,3.264a1.11,1.11,0,0,0-.007.227,1.043,1.043,0,0,0-.788.848c-.082.35-.175.7-.265,1.041l-.02.077c-.125.473-.275.871-.841.956-.336.051-.47.375-.588.661-.179.434-.321.8-.435,1.089-.593,1.516-.593,1.516-2.146,2.426l0,0c-.253.148-.54.316-.879.52a56.942,56.942,0,0,1-5.4,2.741l-.315.146a18.479,18.479,0,0,0-2.03,1.1,4.223,4.223,0,0,0-1.815,2.57A51.02,51.02,0,0,0,2.885,762.4c-.1.844-.211,1.718-.331,2.575-.373,2.667-.734,5.381-1.082,8.006l0,.023c-.426,3.208-.867,6.526-1.334,9.784a8.762,8.762,0,0,0,.359,4.551,6.279,6.279,0,0,0,1.452,2.094,16.949,16.949,0,0,0,1.99,1.684c.4.307.82.624,1.214.96a20.454,20.454,0,0,0,2.936,1.967c.394.232.8.47,1.193.717l-.424,4.16a.539.539,0,0,0,1.077.056l.363-3.559a35.616,35.616,0,0,0,3.793,1.965c1.04.487,2.116.99,3.129,1.569a1.509,1.509,0,0,0,.753.21,1.619,1.619,0,0,0,.911-.3.688.688,0,0,1,.378-.145.622.622,0,0,1,.379.163,2.117,2.117,0,0,0,.626.336,1.026,1.026,0,0,0,.32.054.755.755,0,0,0,.441-.135.9.9,0,0,0,.259.461,20.724,20.724,0,0,0,5.411,4.533c.246.118.5.233.742.345l-.028.01.092.031-.008-.016c.578.264,1.174.537,1.729.86a3.892,3.892,0,0,0,2.034.5,12.847,12.847,0,0,0,1.512-.121l.079-.01A1.568,1.568,0,0,0,34.078,805a3.118,3.118,0,0,1,1.4-1.291,1.614,1.614,0,0,0,.9-1.865.51.51,0,0,1,.191-.573,2.04,2.04,0,0,0,.877-2.394l-.008-.027.028-.006a2.189,2.189,0,0,0,1.853-1.629,1.764,1.764,0,0,0-.339-1.71.543.543,0,0,0,.067-.105l5.736-11.867a87.022,87.022,0,0,0,.637,10.45c.14,1.058.222,2.142.3,3.19.04.522.08,1.063.128,1.6.026.288.069.77.532.77a.792.792,0,0,0,.109-.008c.519-.073.478-.473.442-.827,0-.041-.008-.083-.012-.124-.112-1.357-.26-2.735-.4-4.067l-.018,0,.018-.006c-.265-2.469-.538-5.022-.6-7.549-.011-.478-.026-.965-.04-1.436v-.013c-.04-1.36-.081-2.753-.052-4.143l4.632-9.582a.544.544,0,0,0-.252-.726l-2.924-1.418V769.6c0-.027,0-.053,0-.08a89.675,89.675,0,0,0,.04-10.647c-.018-.266-.018-.538-.018-.8,0-.158,0-.32,0-.481,0-.029,0-.058,0-.088v-.013c0-.363-.008-.775-.521-.775h-.022a.488.488,0,0,0-.357.135,1,1,0,0,0-.144.711l.006.2c.045,1.555.091,3.164.161,4.745a55.1,55.1,0,0,1-.137,5.63l0,.029q-.028.483-.055.966l-2.707-1.313h0l-5.065-2.456a27.594,27.594,0,0,0-.881-4.289,47.193,47.193,0,0,0-1.777-4.812c-.105-.24-.249-.568-.551-.568a.576.576,0,0,0-.225.052c-.493.212-.31.65-.176.97a32.64,32.64,0,0,1,2.345,7.368c.036.224.068.453.1.678l.006.039-5.288-2.564a1.325,1.325,0,0,0,.052-.425q0-.8,0-1.593v-.627h.093V758.9c0-.517,0-1.052,0-1.578,0-.331-.061-.711-.517-.714h0c-.453,0-.5.37-.511.716-.033,1.216-.061,2.452-.088,3.647l-.018.785L29.463,761a1.133,1.133,0,0,0-.064-.215,1.626,1.626,0,0,0-.158-.285,36.442,36.442,0,0,1-2.516-4.829c-.448-.976-.91-1.985-1.419-2.951-.008-.016-.018-.032-.027-.048a.221.221,0,0,1-.049-.18l.5.474.02.019c.436.414.887.842,1.329,1.27.183.177.361.363.534.542.1.1.211.219.319.329a1.321,1.321,0,0,0,.869.493c.315,0,.594-.231.879-.727.1-.174.2-.353.3-.543l0-.006.134-.252c.119.182.239.358.355.53a13.657,13.657,0,0,1,.78,1.24c.168.315.339.456.555.456a.816.816,0,0,0,.4-.128,3.5,3.5,0,0,1,1.763-.511l.116,0h.057a.953.953,0,0,0,.994-.87,14.448,14.448,0,0,0,.284-1.968,1.694,1.694,0,0,1,.552.722l0,.005c.025.051.052.1.079.156.1.183.256.427.513.427a.537.537,0,0,0,.23-.058.492.492,0,0,0,.273-.289.683.683,0,0,0-.077-.525,10.643,10.643,0,0,0-3.653-4.07.644.644,0,0,0-.342-.112.472.472,0,0,0-.384.206.5.5,0,0,0,.116.719,1.684,1.684,0,0,0,.186.148c.04.029.081.059.119.09a5.117,5.117,0,0,0,.443.31c.389.253.79.514.861.931a6.939,6.939,0,0,1-.178,2.854.323.323,0,0,1-.343.282l-.05,0c-.052,0-.105-.006-.158-.006a2.97,2.97,0,0,0-1.22.314.569.569,0,0,1-.235.062c-.149,0-.255-.1-.367-.257a7.346,7.346,0,0,1-.906-1.756.873.873,0,0,1,.1-.714L31,752.2a8.9,8.9,0,0,0,.635-1.733c.079-.366.126-.766-.325-.889a.653.653,0,0,0-.171-.025c-.331,0-.425.33-.507.622l-.007.023a19.173,19.173,0,0,1-1.574,3.594l0,0q-.156.3-.312.6l-.144-.125c-.1-.084-.183-.157-.259-.236-.52-.534-1.049-1.066-1.561-1.582-1.267-1.275-2.577-2.594-3.782-3.965a15.912,15.912,0,0,1-1.609-2.354c-.232-.387-.472-.788-.723-1.169l-.021-.032c-.307-.468-.623-.951-1.335-.978l.736-2.355c.25.125.5.245.751.362a15.793,15.793,0,0,1,1.614.839,58.438,58.438,0,0,1,8.479,6.318,1.144,1.144,0,0,0,.772.289,1.132,1.132,0,0,0,1.009-.574q.129-.24.256-.482a19.942,19.942,0,0,1,1-1.751,3.667,3.667,0,0,0,.454-2.066,1.571,1.571,0,0,1,.692,1.046,14.793,14.793,0,0,0,1.388,3.371l.089.175c.135.264.3.4.5.4a.548.548,0,0,0,.2-.039c.32-.122.411-.386.27-.784-.052-.146-.106-.289-.169-.453l0-.01-.076-.2a.82.82,0,0,1,.479.282,1.747,1.747,0,0,0,.134.123,23.946,23.946,0,0,1,3.949,4.013c.255.329.255.536,0,.791-.208.207-.421.423-.61.614q-.237.241-.475.48c-.253.254-.362.468-.331.656s.2.352.513.508c.214.105.427.218.634.327.352.186.716.378,1.088.539a.926.926,0,0,1,.608,1.023c-.084,3.3-.268,6.047-.577,8.642l-.01.086c-.012.1-.024.2-.033.3a.771.771,0,0,0,.119.579.5.5,0,0,0,.358.159l.056,0c.414,0,.5-.354.529-.662q.063-.668.128-1.337v-.008c.077-.8.156-1.617.229-2.426.115-1.28.148-2.584.181-3.845.018-.716.038-1.456.071-2.185a.912.912,0,0,0-.582-.934c-.436-.219-.864-.446-1.319-.686l-.568-.3c.126-.137.244-.269.359-.4l0,0c.26-.289.5-.562.763-.814a.853.853,0,0,0,.031-1.364c-.414-.458-.81-.94-1.229-1.45-.175-.213-.355-.433-.546-.662a8.208,8.208,0,0,1,1.705.618c.291.132.566.256.855.361,1.551.565,3.214,1.427,3.783,3.541a7.338,7.338,0,0,0,.386,1.016,7.063,7.063,0,0,1,.4,1.08,14.729,14.729,0,0,0,.982,2.528c.254.549.516,1.117.725,1.7.115.319.261.462.471.462a1.1,1.1,0,0,0,.549-.216l-.409.881c-.384.828-.782,1.685-1.176,2.526-.027.058-.059.117-.093.18a.86.86,0,0,0-.169.619.493.493,0,0,0,.279.28.657.657,0,0,0,.287.077c.319,0,.472-.33.607-.622l.05-.106c.606-1.26,1.214-2.531,1.8-3.759l.017-.035q.658-1.374,1.316-2.748c.018-.037.034-.076.052-.116a1.018,1.018,0,0,1,.306-.447,15.444,15.444,0,0,0,8.349,3.5,2.558,2.558,0,0,1-.057.925c-.019.1-.039.2-.053.3a69.423,69.423,0,0,1-3.639,13.413,7.836,7.836,0,0,1-4.28,4.931,5.557,5.557,0,0,1-2.23.484,5.106,5.106,0,0,1-3.613-1.527l-.089-.088a4.252,4.252,0,0,0-.584-.51.557.557,0,0,0-.31-.1.538.538,0,0,0-.417.215.5.5,0,0,0,.049.726,6.948,6.948,0,0,0,4.91,2.35,6.343,6.343,0,0,0,1.911-.309,7.681,7.681,0,0,0,4.224-3.091,24.009,24.009,0,0,0,2.828-6.934c.157-.551.32-1.109.479-1.648a45.781,45.781,0,0,0,1.906-8.463c.009-.1.024-.195.038-.291a1.28,1.28,0,0,0-.3-1.287c-.131-.123-.045-.328.04-.527a1.844,1.844,0,0,0,.086-.231c.148-.557.2-.927.051-1.171a.871.871,0,0,0-.51-.327c.005-.021.01-.043.014-.065l.063-.307a11.471,11.471,0,0,1,1.852-1.212c.363-.205.739-.418,1.093-.649a38.208,38.208,0,0,0,6.757-5.819l.049-.052a7.21,7.21,0,0,0,1.7-2.365c.017-.046.037-.092.059-.143a.715.715,0,0,0,.087-.561c-.267-.608.052-.962.421-1.371l.051-.057a1.415,1.415,0,0,0,.393-1.047M33.072,763.955l1.738.842,7.755,3.76-.5,1.039-9.492-4.6ZM19.415,745.081a2.514,2.514,0,0,1,.308.365,70.389,70.389,0,0,1,6.335,11.36,19.116,19.116,0,0,0,1.275,2.432c.194.33.391.666.58,1.008l-1.536-.745a.544.544,0,0,0-.726.252l-2.061,4.224a.91.91,0,0,0-.094-.221c-.383-.663-.779-1.33-1.161-1.974l-.174-.294q-.269-.453-.536-.908c-.5-.845-1.011-1.718-1.54-2.563-.239-.382-.2-.59.171-.855.454-.326.9-.674,1.335-1.011.28-.218.569-.443.86-.661a.862.862,0,0,0,.434-.827c-.049-.356-.315-.485-.631-.605l-1.058-.405-.005,0c-.948-.364-1.929-.74-2.9-1.095a.927.927,0,0,1-.662-.74c-.139-.611-.3-1.227-.457-1.823l-.005-.02q-.093-.354-.185-.708l-.013-.05c-.017-.066-.034-.134-.057-.2-.11-.316-.255-.609-.569-.609a.622.622,0,0,0-.175.027c-.449.132-.405.524-.3.89.053.192.117.386.178.573a6.2,6.2,0,0,1,.309,1.216,2.924,2.924,0,0,0,2.518,2.8,10.53,10.53,0,0,1,1.75.624c.272.115.553.234.849.348l-.721.566-.022.017c-.527.414-1.025.8-1.513,1.194-.627.5-.679.772-.277,1.45.875,1.478,1.792,3.019,2.6,4.379l.908,1.526.034.057c.043.073.087.148.137.217a.624.624,0,0,0,.482.313.481.481,0,0,0,.209-.052l-7.889,16.17a.544.544,0,1,0,.978.474l9.993-20.481,5.7,2.765-.741,1.528a.543.543,0,0,0,.252.726l10.471,5.077a.543.543,0,0,0,.726-.252l.741-1.528,5.7,2.765L38.093,794.87c-.517-.263-1.056-.5-1.58-.72-.252-.109-.537-.231-.809-.353a6.191,6.191,0,0,1-.681-.342l.018-.051a8.051,8.051,0,0,0,1.117.086,5.169,5.169,0,0,0,.833-.064,2.25,2.25,0,0,0,1.847-1.673c.2-.576-.173-.839-.524-1a25.973,25.973,0,0,0-5.5-1.92,5.866,5.866,0,0,0-1.259-.142,5.065,5.065,0,0,0-1.32.179,6.343,6.343,0,0,0-.926.36c-.1.046-.22.1-.33.146-.863.367-1.733.751-2.586,1.141a1.172,1.172,0,0,0-.637.553.465.465,0,0,0,.032.374.5.5,0,0,0,.459.327,1.547,1.547,0,0,0,.725-.271c.087-.05.17-.1.251-.136.364-.175.736-.349,1.1-.515.5-.224,1.006-.443,1.512-.649.085-.035.172-.073.256-.109l.011,0a2.979,2.979,0,0,1,1.167-.331,3.971,3.971,0,0,1,.637.059A19.445,19.445,0,0,1,37,791.38c.055.025.112.046.167.066a.756.756,0,0,1,.386.237l.01.013-.007.014a1.355,1.355,0,0,1-1.279.7,2.473,2.473,0,0,1-.48-.05c-.561-.112-1.126-.245-1.671-.373l-.136-.032a2.586,2.586,0,0,0-.593-.084,1.373,1.373,0,0,0-.3.032,1,1,0,0,0-.8.951c-.065.461.221.644.6.835,1.277.643,2.685,1.287,4.432,2.026a3.788,3.788,0,0,1,.48.257.769.769,0,0,1,.448.821.9.9,0,0,1-.691.814c-.144.034-.294.055-.438.076a4.067,4.067,0,0,0-.572.111.75.75,0,0,0-.531.413.771.771,0,0,0,.132.678c.426.678.359,1.045-.268,1.458-.567.373-1.042.781-.641,1.654a.491.491,0,0,1,.023.4,1.077,1.077,0,0,1-.613.5,2.112,2.112,0,0,0-1.327,1.232.7.7,0,0,1-.543.449l-.234.037a8.32,8.32,0,0,1-1.287.137,2.815,2.815,0,0,1-1.285-.281c-.543-.271-1.095-.541-1.628-.8l-.034-.016c-.565-.277-1.149-.563-1.724-.85a16.319,16.319,0,0,1-3.718-3.153l0,0c-.216-.222-.42-.432-.615-.628-.032-.032-.064-.067-.092-.1l-.049-.052a.861.861,0,0,0-.559-.323.444.444,0,0,0-.189.044,17,17,0,0,1,3.062-6.423l.063-.079c.155-.193.316-.393.284-.6a.5.5,0,0,0-.245-.327.55.55,0,0,0-.305-.107c-.258,0-.445.244-.61.459l-.052.067a17.547,17.547,0,0,0-2.837,5.443c-.075.234-.16.471-.242.7q-.053.149-.106.3c-1.016-.406-1-.447-.708-1.451a19.678,19.678,0,0,1,2.782-5.255q.229-.343.456-.686c.118-.179.235-.262.369-.262a.522.522,0,0,1,.286.106,1.7,1.7,0,0,0,.232.123c.038.018.076.036.113.055a1.188,1.188,0,0,0,.508.161.456.456,0,0,0,.421-.282c.234-.445-.142-.651-.444-.816-.25-.137-.454-.264-.62-.368a1.515,1.515,0,0,0-.688-.314c-.307,0-.562.329-1.211,1.271l-.09.13a20.318,20.318,0,0,0-3,5.477c-.03.1-.061.195-.092.294a5.986,5.986,0,0,0-.313,1.326c-.031.382-.157.459-.35.459a1.9,1.9,0,0,1-.337-.044,4.1,4.1,0,0,1-1.357-.625,7.068,7.068,0,0,0-.748-.423c-.389-.18-.791-.352-1.179-.518a19.156,19.156,0,0,1-2.644-1.294c-.593-.37-1.2-.737-1.793-1.091l0,0a37.111,37.111,0,0,1-5.752-3.971c-.212-.19-.432-.376-.646-.556-.381-.322-.776-.654-1.127-1.013a5.4,5.4,0,0,1-1.4-4.666c.234-1.915.505-3.858.768-5.738v-.005c.13-.929.264-1.89.393-2.842q.364-2.687.725-5.373l.02-.152c.485-3.605.987-7.333,1.494-11.018a32.775,32.775,0,0,1,.824-3.764l.047-.18a3.026,3.026,0,0,1,1.746-1.992c.594-.291,1.195-.581,1.778-.863,1.272-.614,2.587-1.249,3.862-1.91.688-.357,1.363-.766,2.016-1.162.445-.27.9-.549,1.366-.809a3.024,3.024,0,0,0,1.417-1.691c.069-.194.15-.388.229-.575.093-.22.189-.448.265-.679.155-.47.359-.783.855-.783.037,0,.075,0,.115.005a1.149,1.149,0,0,0,.439.835M61.573,760.2a3.014,3.014,0,0,1-.582-.088,14.055,14.055,0,0,1-5.5-2.314c-.862-.63-.875-.693-.289-1.653a15,15,0,0,0,6.977,3.088c-.146.731-.226.967-.6.967m12.394-15.094c-.033.037-.068.076-.1.116a4.36,4.36,0,0,1-1.493,1.1l-.149.081a18.5,18.5,0,0,0-2.55,1.786c-.289.227-.587.463-.889.69A8.368,8.368,0,0,1,66,750.35a14.04,14.04,0,0,0-3.5,1.577,4.488,4.488,0,0,0-1.607,1.78c-.2.368-.148.646.166.826a.539.539,0,0,0,.26.076h.008a.5.5,0,0,0,.436-.29c.89-1.722,2.56-2.271,4.175-2.8l.015,0c.185-.061.376-.123.567-.189a8.491,8.491,0,0,0,2.418-1.223c1.086-.814,2.27-1.688,3.621-2.67l.04-.029a.905.905,0,0,1,.556-.234h.013a.763.763,0,0,1,.079.006l.055.007-.011.054a2.733,2.733,0,0,1-.768,1.426c-.4.4-.8.823-1.183,1.229l-.006.006a29.42,29.42,0,0,1-3.792,3.544,40.622,40.622,0,0,1-5.283,3.447,1.628,1.628,0,0,0-.552.471.464.464,0,0,0-.1.132l-.012.018-.016.025.009,0a1.013,1.013,0,0,0-.046.166l-.053.264a11.749,11.749,0,0,1-5.248-2.36.436.436,0,0,0,.063-.088l.425-.79a2.383,2.383,0,0,0,.307-.574.708.708,0,0,0,.056-.176,2.355,2.355,0,0,0,.051-.929,8.252,8.252,0,0,1,1.905-6.176,14.9,14.9,0,0,0,2.567-4.661c.012-.041.022-.084.034-.129a.926.926,0,0,1,.23-.489l.019-.018.026.005c.6.119.53.663.493.956a6.432,6.432,0,0,1-.606,1.815c-.049.109-.1.217-.145.326-.016.037-.028.064-.037.084l-.009.021a3.337,3.337,0,0,0-.295.884v.008c-.043.312-.08.581.184.8a.5.5,0,0,0,.317.123h.01a1.189,1.189,0,0,0,.428-.115l.063-.025a29.448,29.448,0,0,0,5.4-3.022c.379-.25.766-.5,1.141-.735l.033-.021c.3-.189.606-.385.91-.583a1.308,1.308,0,0,1,.747-.208h.036c.063,0,.128.005.2.013l.07.006c.151.011.281.021.338.192s-.051.252-.166.337c-.018.014-.043.032-.066.051a30.1,30.1,0,0,1-3.852,2.669c-.465.277-.923.579-1.365.871l-.02.013-.426.281c-.369.241-.458.5-.272.8a.479.479,0,0,0,.4.256h.008a.866.866,0,0,0,.475-.184c.688-.479,1.412-.929,2.112-1.363a27.75,27.75,0,0,0,3.657-2.557,2.776,2.776,0,0,1,1.137-.6l.015,0a1.023,1.023,0,0,1,.25-.044h.008a.291.291,0,0,1,.242.125c.122.164.042.339-.028.494l-.016.035a.678.678,0,0,1-.314.381A19.941,19.941,0,0,0,69.54,745.8c-.675.487-1.373.99-2.1,1.428a9.594,9.594,0,0,1-.92.483c-.4.186-.613.379-.446.767a.456.456,0,0,0,.428.312h.011a1.1,1.1,0,0,0,.432-.111,11.817,11.817,0,0,0,2.459-1.476,21.154,21.154,0,0,1,4.057-2.583c.043-.02.088-.046.132-.072a.659.659,0,0,1,.3-.12h0a.263.263,0,0,1,.216.15c.133.213-.005.367-.151.53" transform="translate(0 -708.995)" fill="#3a3d3f"/><path d="M795.426,678.03a.688.688,0,0,0-.018-.68.838.838,0,0,0-.724-.349h-.008c-.4,0-.814.023-1.21.044-.307.016-.624.032-.936.04a.075.075,0,0,0-.048-.016h-.033l-.018.018h-.013c-.858.018-1.554.045-2.191.085a.682.682,0,0,0-.569,1.1,7.266,7.266,0,0,0,2.074,2.251,1.792,1.792,0,0,0,1,.346,1.726,1.726,0,0,0,1.189-.543,6.642,6.642,0,0,0,1.506-2.293m-2.14,1.529a.873.873,0,0,1-.535.314.377.377,0,0,1-.137-.027,4.153,4.153,0,0,1-1.789-1.681l3.454-.07a5.428,5.428,0,0,1-.992,1.463" transform="translate(-760.302 -651.943)" fill="#3a3d3f"/><path d="M853.926,800.787c-.067,0-.134,0-.2.008l-.036,0-.093,0c-.286.009-.677.022-.676.495,0,.521.462.522.636.523.059,0,.118,0,.175,0,.286-.011.763-.03.743-.553-.016-.423-.322-.473-.551-.474" transform="translate(-821.354 -771.148)" fill="#3a3d3f"/><path d="M907.765,554.328a3.38,3.38,0,0,0-1.068-1.292.319.319,0,0,0-.2-.069.339.339,0,0,0-.045,0,.48.48,0,0,0-.289.164.443.443,0,0,0-.024.575c.124.177.257.343.4.52l.133.167-.047.04a1.006,1.006,0,0,1-.234.138,1.253,1.253,0,0,0-.21.117.447.447,0,0,0-.173.59.426.426,0,0,0,.394.257.541.541,0,0,0,.069,0,.565.565,0,0,0,.061-.011,1.965,1.965,0,0,0,1.17-.773.481.481,0,0,0,.065-.421" transform="translate(-872.425 -532.501)" fill="#3a3d3f"/><path d="M958.525,462.975a.793.793,0,1,0-.916-.764.849.849,0,0,0,.916.764" transform="translate(-922.165 -444.325)" fill="#3a3d3f"/><path d="M692.387,467.623h-.012a.843.843,0,1,0,.184,1.649h.012a.843.843,0,1,0-.184-1.649" transform="translate(-665.882 -450.309)" fill="#3a3d3f"/><path d="M960.781,381.349a.534.534,0,0,0,.649.389,2.282,2.282,0,0,1,1.32.089.583.583,0,0,0,.325.04.526.526,0,0,0,.367-.271.518.518,0,0,0-.192-.725,2.739,2.739,0,0,0-1.743-.244,1.3,1.3,0,0,0-.406.132.538.538,0,0,0-.322.579v.006Z" transform="translate(-925.211 -366.5)" fill="#3a3d3f"/><path d="M665.944,385.188a.547.547,0,0,0,.7.3,4.028,4.028,0,0,1,2.538-.257.541.541,0,0,0,.152-1.072,5.068,5.068,0,0,0-3.086.322.55.55,0,0,0-.3.7" transform="translate(-641.259 -369.841)" fill="#3a3d3f"/><path d="M389.6,8.011A7.475,7.475,0,0,0,386.1,3.7c-.328-.183-.657-.378-.978-.568a16.227,16.227,0,0,0-2.579-1.328l-.308-.114A20.253,20.253,0,0,0,375.259,0h-.03a6.371,6.371,0,0,0-5.291,2.15.836.836,0,0,1-.727.3,5.085,5.085,0,0,0-3.63,1.551,8.683,8.683,0,0,0-2.052,3.016l-.005.013c-.321.81-.652,1.649-1.043,2.442a8.761,8.761,0,0,0-.13,7.159,26.724,26.724,0,0,0,1.145,2.629c.258.54.526,1.1.764,1.657a.916.916,0,0,0,.1.176,3.734,3.734,0,0,0-.57,2.008,4.384,4.384,0,0,0,1.136,2.941,6.3,6.3,0,0,0,3.027,1.8,2.074,2.074,0,0,0,.441.064.926.926,0,0,0,.376-.078.451.451,0,0,0,.256-.511.573.573,0,0,0-.428-.478c-.149-.046-.3-.087-.45-.126-.225-.059-.457-.121-.676-.2A4.149,4.149,0,0,1,365.4,24.9a3.264,3.264,0,0,1-.493-2.357c.145-.839.534-1.283,1.125-1.283a1.982,1.982,0,0,1,.951.3,1.522,1.522,0,0,0,.228.108.439.439,0,0,0,.4.238.674.674,0,0,0,.131-.014c.412-.082.416-.472.382-.7l-.023-.152a13.606,13.606,0,0,0-.3-1.572,1.166,1.166,0,0,1,.364-1.264,2.4,2.4,0,0,0,.726-2.189,8.749,8.749,0,0,1,1.883-5.957A3.322,3.322,0,0,1,373.3,8.523a.656.656,0,0,0,.5-.232.523.523,0,0,0,.076-.447c-.078-.339-.347-.367-.593-.367l-.132,0h-.036c-1.779.039-2.777,1.271-3.573,2.424a10.777,10.777,0,0,0-1.784,5.4c.006.1.007.194.008.275a1.613,1.613,0,0,0,.038.415,1.537,1.537,0,0,1-.5,1.6,2.111,2.111,0,0,0-.529,2.178c.053.174.1.354.133.534a2.75,2.75,0,0,0-.935-.18,1.824,1.824,0,0,0-.221.013,1.545,1.545,0,0,0-.359.09l-.083.034c-.049.022-.1.046-.143.072-.333-.77-.653-1.462-.975-2.11a18.8,18.8,0,0,1-.866-2.1,7.788,7.788,0,0,1,.18-6.3c.225-.46.423-.942.615-1.407a11.509,11.509,0,0,1,1.531-2.89,4.5,4.5,0,0,1,3.663-2.018c.06,0,.122,0,.183,0h.051a1.469,1.469,0,0,0,1.127-.565,5.4,5.4,0,0,1,4.424-1.888c.217,0,.443.008.673.024a21.01,21.01,0,0,1,5.625,1.459,25.614,25.614,0,0,1,3.884,1.921l.069.039a7.2,7.2,0,0,1,3.708,5.93c.035.329.041.667.047.994,0,.122,0,.244.008.366,0,.01-.016.031-.04.063s-.034.045-.057.078a6.356,6.356,0,0,0-2-2.767,3.147,3.147,0,0,0-2.117-.753,5.082,5.082,0,0,0-.763.062c-.353.054-.531.247-.5.544s.224.448.582.473l.026,0c.022,0,.046,0,.069,0a.316.316,0,0,0,.044,0,3.435,3.435,0,0,1,.458-.032c.785,0,1.816.239,2.836,2.107a10.293,10.293,0,0,1,.968,5.04c0,.116,0,.235,0,.35v.008c0,.175-.006.355,0,.534,0,.026-.006.051-.007.076q-.024.377-.049.753c-.048.727-.1,1.478-.122,2.22a20.925,20.925,0,0,1-.764,5.434,11.789,11.789,0,0,1-5.031,6.762,3.8,3.8,0,0,1-2.08.58,7.317,7.317,0,0,1-2.052-.344,20.08,20.08,0,0,1-4.582-2.223c-.213-.127-.454-.271-.689-.409-.073-.043-.145-.09-.216-.136a3.755,3.755,0,0,0-.34-.2.856.856,0,0,0-.381-.106.492.492,0,0,0-.438.266.5.5,0,0,0,.231.729l.478.3a19.777,19.777,0,0,0,6.624,3.051c.263.05.532.082.784.109.138.015.276.02.41.025h0l.163.007h0a7.06,7.06,0,0,0,5.031-2.628,12.946,12.946,0,0,0,3.047-5.131,20.965,20.965,0,0,0,.906-5.835c.018-.523.055-1.052.092-1.564v-.014c.017-.234.036-.5.052-.758l.006-.1c.009-.147.018-.3.025-.447a.554.554,0,0,0,.008-.06c.053-.691.13-1.393.2-2.072.279-2.551.567-5.189-.326-7.776" transform="translate(-348.271 -0.003)" fill="#3a3d3f"/><path d="M806.653,150.741a6.338,6.338,0,0,0-2.813-2.3,1.641,1.641,0,0,0-.613-.147.959.959,0,0,0-.193.019.52.52,0,0,0-.463.512.472.472,0,0,0,.388.509,4.352,4.352,0,0,1,2.985,2.381.48.48,0,0,0,.425.283.521.521,0,0,0,.159-.026.531.531,0,0,0,.373-.583,1.257,1.257,0,0,0-.248-.65" transform="translate(-772.865 -142.807)" fill="#3a3d3f"/><path d="M717.906,169.335h-.022c-.237,0-.561.043-.635.417a.48.48,0,0,0,.375.582,5.28,5.28,0,0,1,2.635,1.359.427.427,0,0,0,.314.136.527.527,0,0,0,.329-.125.494.494,0,0,0,.1-.681,2.5,2.5,0,0,0-.757-.731,6,6,0,0,0-2.343-.956" transform="translate(-690.692 -163.067)" fill="#3a3d3f"/><path d="M1344.733,346.89h.006l2.5.231a.509.509,0,0,1-.088,1.015h-.006l-2.5-.231a.509.509,0,0,1,.088-1.015" transform="translate(-1294.43 -334.049)" fill="#3a3d3f"/><path d="M1330.379,231.256l2.448-1.077a.509.509,0,0,1,.41.932l-2.448,1.077a.509.509,0,1,1-.41-.932" transform="translate(-1280.845 -221.618)" fill="#3a3d3f"/><path d="M1275.166,137.776l1.521-1.993a.509.509,0,1,1,.81.618l-1.521,1.993a.509.509,0,1,1-.81-.618" transform="translate(-1227.868 -130.564)" fill="#3a3d3f"/></g></g></g></g></svg>