<svg xmlns="http://www.w3.org/2000/svg" width="333.629" height="97.026" viewBox="0 0 333.629 97.026"><g transform="translate(-20.686 -10105.911)"><path d="M33.68,0H299.949a33.68,33.68,0,0,1,0,67.361H33.68A33.68,33.68,0,0,1,33.68,0Z" transform="translate(20.686 10127.89)" fill="#60432e"/><path d="M0,0H26.426V26.426H0Z" transform="translate(187.598 10165.564) rotate(45)" fill="#60432e"/><path d="M18.485,87.854c1-3,6.762-27.354,6.762-27.354a13.2,13.2,0,0,1,2.884-2.917c1.174-.611,1.753-3.665,1.911-5.456s.026-9.583,3-10.557c0,0-2.456-3.2-.7-5.187a9.063,9.063,0,0,1-2.591-8.241c1.027-5.055,4.476-10,6.95-10.531,0,0,2.683.181,3.335-.739,0,0,5.648-2.1,9.824,0a16.2,16.2,0,0,1,7.086,6.561c.949,1.677,2.267,6.264.58,8.384a3.931,3.931,0,0,0-.705,1.7c-.031.77.956,11.817-5.567,14.477l.3,2.87s.474-.369,1.29.342a37.12,37.12,0,0,0,7.53,4.823,7.262,7.262,0,0,1,4.054,3.918l4.107,9.239,3.4-7.976,1.208-.234s-.339-4.294,1.109-6.269,3.765-4.4,3.633-6.872c0,0,1.817-.342,1.659,1.4a11.139,11.139,0,0,1-1.017,3.449s6.573-3.133,7.784-4.4c0,0,1.843-.237,2.212.342s1.474-.158,1.764.711.658,1.136.842,1.74-.9,2.025-.9,2.025.026.527.105,1.053S83.2,63.08,79.617,64.107l.9.421-5.029,17.3A6.562,6.562,0,0,1,68.317,87.3a5.571,5.571,0,0,1-4.3-2.449l-3.047,6.819,1.327,11.626-6.66.414s.579,1.1-1.764,1.5c0,0,1.027,1.632-1.106,2.685,0,0,.764,1.659-1.343,2.317,0,0-.419,1.786-2.949,1.553s-6-2.817-6-2.817l-4.476-4.275-.952,2.169a5.785,5.785,0,0,1-2.339-1.158c-.1-.09-.346-.288-.706-.572l-7.124-.881.852-3.95C23.56,97.091,19.09,93.7,19.09,93.7a7.947,7.947,0,0,1-.606-5.845m44.8-4.091h0m.724,1.079L64,84.83l.008.012m-.028-.042-.066-.1.066.1m-.108-.161-.079-.117.079.117m-.1-.146-.123-.183.123.183m-.16-.239-.018-.027.018.027m-.159-.237-.048-.072.048.072m-.067-.1-.014-.02.014.02m-.057-.085-.02-.03.02.03m-.028-.041-.015-.022.015.022M51.25,48h0m-1.209.493.006,0-.006,0m.028-.011.045-.018-.045.018m.088-.036.123-.05-.123.05m.151-.062.18-.074-.18.074m.246-.1.061-.025-.061.025m.13-.053.093-.038-.093.038m.155-.063.029-.012-.029.012m.06-.024.091-.037-.091.037m.14-.057.2-.082-.2.082m-1.316.537-.111.045.111-.045m-.211.086-.194.079.194-.079m-.258.105-.064.026.064-.026m-.3.12-.037.015.037-.015m-.107.044-.029.012.029-.012m-.1.041-.036.015.036-.015m-.08.033,0,0,0,0m-.053.022-.045.018.045-.018m-.111.045h0m-.044.018-.04.016.04-.016m-.047.019-.015.006.015-.006m-.018.007-.021.009.021-.009m-.031.013-.007,0,.007,0" transform="translate(5.316 10090.58)" fill="#fff"/><path d="M348.69,936.128s.009-.338.963.172,3.694,3.327,6.62,4.34,3.457,1.77,4.291,3.75,4.41,9.9,4.38,9.809,3.188-7.469,3.188-7.469.157-.722,1.658.374a13.11,13.11,0,0,0,4.808,2.176c1.583.349,1.877-.06,1.967.63s-4.41,15.779-4.41,15.779-1.371,4.74-3.278,5.729-5.155,1.05-6.2.36-.98-1.273-.98-1.273l3.327-6.631-11.562-5.613s-1.435-7.538-1.858-9.593-2.5-10-2.5-10Z" transform="translate(-292.728 9205.639)" fill="#dce4eb"/><path d="M819.913,2046.608l.915,9.9-5.2.324-.058-1.1Z" transform="translate(-754.82 8137.461)" fill="#dce4eb"/><path d="M1244.195,940.664c2.069-9.2,4.412-18.345,6.538-27.534,0,0,.58-4.26,2.961-4.969a16.883,16.883,0,0,0,6.95-4.776c1.385-2.005,1.149-3.7,2.958-3.385,3.342,3.758,7.406,14.172,8.189,18.467l-3.367-1.319-9.538,19.788s.365,1.077,0,1.572.327,1.01.565,1.047c.82.572,10.517,6.99,10.4,7.581,0,.331-1.17.037-2.12,1.509s-3.279,2.944-3.924,6.257-2.181,1.7-2.181,1.7l-1.912-1.447-6.56-.819.578-3.708-1.194-.9q-2.522-1.9-5.029-3.826c-1.787-1.163-3.679-2.89-3.317-5.238" transform="translate(-1222.15 9240.318)" fill="#dce4eb"/><path d="M1454.224,683.353l1.754,1.619-.206,5.661s-.547-.693-1.435.266c-1.019,1.1-1.284,3.51-2.682,4.734a12.89,12.89,0,0,1-4.1,2.618c.06-1.153.416-2.859.521-4.027.112-1.247.166-2.5.26-3.745a24.007,24.007,0,0,1,.682-4.466c.341-1.262,1.5-3.356,2.792-3.967Z" transform="translate(-1414.104 9449.912)" fill="#f9e9aa"/><path d="M935.633,13.628c4.231-2.449,9.432-.929,13.023,1.986a10.769,10.769,0,0,1,3.368,4.592c.646,1.77,1.576,4.026,1.232,5.936-.322,1.793-.752,2.18-.752,2.18a14.176,14.176,0,0,1-2.955-1.931,15,15,0,0,1-1.881-1.683,10.488,10.488,0,0,1-3.949-.469c-1.343-.635-6.586-5.472-6.9-5.96s-.994.276-1.075,1.131S933.82,29.435,930.932,31l-.94,1.512c-.155.25-1.171,1.07-1.409.951-.106-.053-.845-.661-.929-.745-2.626-2.624-2.782-6.986-1.62-10.328a15.717,15.717,0,0,1,2.531-4.431c.851-1.094,2.018-2.934,3.307-3.514a15.68,15.68,0,0,1,3.761-.815" transform="translate(-891.515 10093.98)" fill="#f9e9aa"/><path d="M633.193,875.612a.592.592,0,0,1-.184.033c-.287,0-.4-.276-.5-.542l-.025-.061c-.224-.551-.456-1.109-.681-1.649-.168-.4-.342-.821-.511-1.233-.264-.643-.569-1.281-.864-1.9a25.458,25.458,0,0,1-1.211-2.822,6.618,6.618,0,0,0-.8-1.585,4.139,4.139,0,0,0-1.837-1.592c-.826-.348-1.637-.767-2.422-1.173-.322-.167-.655-.339-.985-.5a25.738,25.738,0,0,0,2.007,3.878c.216.353.281.558.233.733s-.206.311-.549.49c-.071.037-.145.072-.216.106a1.911,1.911,0,0,0-.776.55c.136.065.268.13.395.193a8.816,8.816,0,0,0,.841.382,1.2,1.2,0,0,1,.847,1.395c-.037.468-.076.945-.115,1.4-.094,1.12-.191,2.278-.249,3.42-.06,1.171-.18,2.358-.3,3.507-.046.452-.093.919-.135,1.378-.031.327-.068.733-.5.733l-.052,0c-.5-.035-.471-.424-.45-.768,0-.028,0-.055,0-.082.016-.313.047-.646.093-1.016.178-1.419.265-2.869.349-4.271.08-1.327.162-2.7.321-4.042a.706.706,0,0,0-.513-.859c-.4-.152-.792-.337-1.173-.515-.206-.1-.42-.2-.631-.291-.261-.115-.53-.235-.545-.576-.016-.374.263-.52.551-.637a6.435,6.435,0,0,0,1.548-.867c-.286-.535-.582-1.072-.869-1.59-.645-1.166-1.311-2.371-1.873-3.6a1.07,1.07,0,0,0-.438-.428l-.057-.038q-.218-.146-.438-.29a12.556,12.556,0,0,1-2.205-1.7l0,0a.921.921,0,0,0-.648-.368c-.014.053-.024.11-.035.17-.04.218-.081.443-.3.521a.663.663,0,0,1-.121.062.49.49,0,0,1-.175.031.586.586,0,0,1-.555-.4,16.528,16.528,0,0,1-.544-3.311.586.586,0,0,1,.546-.606l.046,0a.507.507,0,0,1,.16.026.392.392,0,0,1,.285.21.58.58,0,0,1,.117.312c.032.531.089,1.056.17,1.561.005.032.011.065.016.1l.005.03a.51.51,0,0,0,.427.217,1.952,1.952,0,0,1,1.142.541,33.149,33.149,0,0,0,8.254,5.087A5.258,5.258,0,0,1,629.5,865.7a22.5,22.5,0,0,1,1.167,2.556c.282.692.573,1.408.917,2.087.531,1.049.976,2.163,1.407,3.241.143.359.292.73.441,1.093a.919.919,0,0,1,.081.684.5.5,0,0,1-.317.252" transform="translate(-559.916 9283.294)" fill="#3a3d3f"/><path d="M.2,795.359l.014-.059L1.3,790.728c1.642-6.9,3.34-14.04,5.034-21.055a24.157,24.157,0,0,1,.836-2.585c.092-.251.187-.511.277-.767a3.679,3.679,0,0,1,.249-.554l0,0a5.417,5.417,0,0,1,2.577-2.39c.77-.381,1.518-.829,2.241-1.263.315-.189.641-.384.965-.571a11.09,11.09,0,0,0,2.717-2.178,10.347,10.347,0,0,0,1.844-2.945,1.512,1.512,0,0,1,1.224-.94.691.691,0,0,0,.432-.179V750.75a.59.59,0,0,1,.546-.606l.044,0a.586.586,0,0,1,.562.549v1.376c.026.715.026,1.5,0,2.465v1.047a.644.644,0,0,1-.041.23l-.009.25a.892.892,0,0,0,.135.63c.3.4.59.822.873,1.227.218.312.444.635.67.949a31.835,31.835,0,0,1,3.881,7.932.853.853,0,0,0,.356.5.476.476,0,0,1,.158-.03q.994-.015,1.988-.068c.349-.028.688-.05,1.02-.066l.084,0q1.389-.105,2.772-.286.931-.122,1.857-.279c.6-.1,1.069-.19,1.648-.309-.114-.431-.214-.868-.311-1.292a20.866,20.866,0,0,0-.657-2.415,21.465,21.465,0,0,1-.771-2.562c-.075-.332-.095-.686.33-.795a.591.591,0,0,1,.146-.02c.307,0,.43.3.5.519.127.428.258.862.386,1.282.3,1,.616,2.03.885,3.056.908,3.462,1.523,7.044,2.117,10.508.122.712.249,1.449.375,2.173.1.579.168,1.175.231,1.751.024.213.048.433.074.649a1.188,1.188,0,0,1-.009.43l3.163,1.534h0l2.485,1.2c0-.024.007-.049.011-.072a18.023,18.023,0,0,0-.527-7.18c-.267-1.145-.444-2.325-.615-3.466-.1-.7-.212-1.414-.339-2.118a.693.693,0,0,1,.069-.533.456.456,0,0,1,.319-.176.648.648,0,0,1,.094-.007c.329,0,.446.3.511.559.023.093.04.19.056.283l.005.031c.1.582.2,1.175.291,1.748.252,1.546.513,3.144.879,4.7a18.419,18.419,0,0,1,.442,4.388,10.506,10.506,0,0,1-.183,1.943,1.386,1.386,0,0,1-.1.34l3.5,1.7a.561.561,0,0,1,.26.749l-2.834,5.846a5.825,5.825,0,0,0,4.391,2.01,6.254,6.254,0,0,0,2.091-.367,5.29,5.29,0,0,0,2.786-2.676,27.527,27.527,0,0,0,2.151-5.665c.954-3.3,1.909-6.668,2.833-9.921l.018-.065.728-2.561c.01-.036.023-.073.036-.109a.541.541,0,0,0,0-.5,11.682,11.682,0,0,1-7.289-3.19c-.057.114-.105.21-.148.293-.08.157-.137.271-.19.388-.87,1.953-1.512,3.474-2.133,4.946s-1.273,3.016-2.15,4.982l0,.011a3.329,3.329,0,0,1-.347.646.479.479,0,0,1-.387.2.56.56,0,0,1-.248-.062.46.46,0,0,1-.267-.52,2.273,2.273,0,0,1,.165-.515c.915-2.06,1.614-3.707,2.29-5.3l0,0c.706-1.664,1.435-3.385,2.4-5.551.218-.487.529-.745.9-.745a.949.949,0,0,1,.363.077,2.573,2.573,0,0,0,0-.741,9.051,9.051,0,0,1,1.8-6.383,16.236,16.236,0,0,0,2.819-5.722.711.711,0,0,1,.754-.634l.069,0a2.092,2.092,0,0,1,1.875,1.674,3.831,3.831,0,0,1-.228,1.764,4.785,4.785,0,0,1-.188.5,3.187,3.187,0,0,0-.25.779.867.867,0,0,0,.4-.142c.033-.019.07-.039.108-.058a31.7,31.7,0,0,0,3.685-2.307l.117-.081c.161-.112.323-.226.466-.327l0,0a14.612,14.612,0,0,1,2.011-1.261,2.441,2.441,0,0,1,1.059-.248,1.814,1.814,0,0,1,1.387.577.591.591,0,0,0,.471.257,1.151,1.151,0,0,0,.219-.025,2.212,2.212,0,0,1,.424-.044c.809,0,1.3.538,1.333,1.477a.582.582,0,0,0,.237.489,1.6,1.6,0,0,1,.613,1.08,1.466,1.466,0,0,1-.387,1.093l-.05.058c-.35.4-.652.751-.388,1.325a.75.75,0,0,1-.075.6c-.02.049-.039.1-.056.142a7.254,7.254,0,0,1-1.671,2.415l-.048.053a38.286,38.286,0,0,1-6.663,5.954c-.351.239-.724.459-1.084.672-.19.112-.381.225-.571.341a.389.389,0,0,1,.174.125c.136.181.079.506-.084,1.08-.425,1.5-.853,3.024-1.267,4.5l0,.006c-.9,3.215-1.836,6.539-2.795,9.8a27.057,27.057,0,0,1-2.3,5.476,5.627,5.627,0,0,1-2.4,2.234,7.286,7.286,0,0,1-3.311.794,5.8,5.8,0,0,1-3.713-1.239c-.338-.281-.661-.576-.965-.883l-2.693,5.555L45.155,809.2a.578.578,0,0,1-.44.665.513.513,0,0,1-.107.011.565.565,0,0,1-.568-.458l-1.122-9.972-4.457,9.192a.557.557,0,0,1-.25.255,1.683,1.683,0,0,1,.241,1.523,2.07,2.07,0,0,1-1.752,1.542,1.931,1.931,0,0,1-.829,2.266.45.45,0,0,0-.17.512,1.533,1.533,0,0,1-.856,1.772,2.894,2.894,0,0,0-1.3,1.2,1.492,1.492,0,0,1-1.167.693l-.074.009a12.031,12.031,0,0,1-1.418.114,3.664,3.664,0,0,1-1.916-.471c-.527-.306-1.094-.565-1.642-.816l0-.016-.007.015c-.236-.108-.48-.219-.718-.333a19.41,19.41,0,0,1-5.07-4.247c-.306-.333-.333-.622-.08-.861a.521.521,0,0,1,.358-.162.826.826,0,0,1,.541.31l.046.049c.028.03.057.061.086.09.183.183.375.381.579.59a15.261,15.261,0,0,0,3.473,2.946c.538.269,1.087.538,1.618.8l.021.01c.5.246,1.02.5,1.528.753a2.611,2.611,0,0,0,1.192.261,7.738,7.738,0,0,0,1.2-.127l.221-.035a.626.626,0,0,0,.489-.4,2,2,0,0,1,1.255-1.166.986.986,0,0,0,.56-.452.436.436,0,0,0-.021-.352c-.384-.835.068-1.223.608-1.578.578-.381.637-.7.243-1.331a.744.744,0,0,1-.125-.656.725.725,0,0,1,.513-.4,3.785,3.785,0,0,1,.536-.1c.136-.02.276-.04.41-.071a.818.818,0,0,0,.628-.742.7.7,0,0,0-.408-.743,3.535,3.535,0,0,0-.446-.239c-1.635-.692-2.953-1.294-4.149-1.9-.352-.177-.638-.36-.575-.807a.957.957,0,0,1,.768-.91,1.308,1.308,0,0,1,.287-.03,2.451,2.451,0,0,1,.56.079l.126.03c.511.12,1.039.245,1.563.349a2.289,2.289,0,0,0,.444.046,1.244,1.244,0,0,0,1.175-.642.688.688,0,0,0-.35-.213c-.052-.019-.107-.039-.158-.063a18.172,18.172,0,0,0-4.757-1.467,3.674,3.674,0,0,0-.592-.055,2.768,2.768,0,0,0-1.082.308c-.082.036-.167.073-.25.107-.473.193-.948.4-1.414.607-.345.155-.692.317-1.033.481-.075.036-.152.08-.233.126a1.465,1.465,0,0,1-.69.257.494.494,0,0,1-.451-.319.459.459,0,0,1-.031-.369,1.118,1.118,0,0,1,.609-.531c.8-.365,1.613-.725,2.42-1.068.1-.044.207-.091.308-.136a5.953,5.953,0,0,1,.87-.338,4.764,4.764,0,0,1,1.241-.168,5.519,5.519,0,0,1,1.183.134,24.334,24.334,0,0,1,5.147,1.8c.312.146.7.4.5.968a2.127,2.127,0,0,1-1.747,1.581,4.868,4.868,0,0,1-.783.06,7.611,7.611,0,0,1-1.057-.081,5.722,5.722,0,0,0,.642.323c.25.112.507.223.755.33.532.229,1.079.464,1.6.737a.56.56,0,0,1,.04-.11l11.139-22.973-5.884-2.853-.765,1.577a.561.561,0,0,1-.749.26l-10.8-5.238a.561.561,0,0,1-.26-.749L30.9,776.6l-5.884-2.853-8.673,17.888a.561.561,0,0,1-1.009-.489L23.3,774.708a1.614,1.614,0,0,1-.328-.352c-.374-.489-.752-.986-1.118-1.466-.684-.9-1.391-1.829-2.1-2.736a1.011,1.011,0,0,1,0-1.4c.249-.321.484-.659.712-.987.1-.139.2-.282.3-.421a.94.94,0,0,0-.55-.24c-.05-.009-.1-.017-.143-.028-.526-.125-1.062-.248-1.58-.366-.5-.114-1.018-.232-1.526-.353-.752-.179-.921-.425-.82-1.2.04-.308.086-.62.131-.922.083-.566.169-1.151.222-1.728a11.131,11.131,0,0,0,.019-1.249c0-.2-.008-.4-.009-.608l-.351.249a37.191,37.191,0,0,1-4.482,2.883,6.387,6.387,0,0,0-2.9,2.416l.006.006.009.009-.007.01q-.066.1-.129.206a.562.562,0,0,1-.041.071,6.859,6.859,0,0,0-.558,1.294c-.724,2.23-1.262,4.546-1.781,6.785-.173.747-.353,1.519-.536,2.277-1.642,6.778-3.093,12.868-4.434,18.615a4.346,4.346,0,0,0,1.738,4.968c3.406,2.506,6.825,5.112,10.133,7.633,1.476,1.125,3,2.288,4.507,3.427l.128.1a4.251,4.251,0,0,0,1.4.811c.379.1.534.339.45.678a.507.507,0,0,1-.559.39c-.037,0-.075,0-.115-.006a2.979,2.979,0,0,1-1.5-.685l-3.916-2.98-3.073-2.339-.426,2.81a.608.608,0,0,1-.565.551h0l-.053,0a.668.668,0,0,1-.447-.248.48.48,0,0,1-.1-.373l.537-3.542c-2.435-1.852-4.895-3.721-7.333-5.564a5.641,5.641,0,0,1-1.267-1.256,5.424,5.424,0,0,1-.841-3.038A4.63,4.63,0,0,1,.2,795.359m66.326-28.972a29.4,29.4,0,0,0,3.723-3.61l0,0c.379-.414.77-.841,1.164-1.254a2.686,2.686,0,0,0,.729-1.414.728.728,0,0,0-.074,0,.855.855,0,0,0-.535.234l-.04.03c-1.331,1.007-2.5,1.9-3.573,2.737a8.544,8.544,0,0,1-2.411,1.276c-.192.07-.384.136-.569.2l-.01,0c-1.6.557-3.248,1.133-4.1,2.854a.545.545,0,0,1-.485.326.615.615,0,0,1-.487-.971,4.541,4.541,0,0,1,1.594-1.83,14.1,14.1,0,0,1,3.49-1.647,8.326,8.326,0,0,0,2.748-1.511c.3-.232.591-.473.876-.706a18.549,18.549,0,0,1,2.526-1.839l.147-.083a4.324,4.324,0,0,0,1.458-1.118c.031-.042.066-.082.1-.121.136-.158.253-.294.137-.472a.218.218,0,0,0-.176-.122.611.611,0,0,0-.275.117c-.047.029-.092.056-.137.078a21.132,21.132,0,0,0-4,2.653A11.867,11.867,0,0,1,65.9,761.72a1.125,1.125,0,0,1-.462.124.5.5,0,0,1-.48-.335c-.2-.446.1-.669.456-.843a9.581,9.581,0,0,0,.906-.5c.714-.45,1.4-.966,2.068-1.465A19.994,19.994,0,0,1,71.8,756.5a.637.637,0,0,0,.282-.361l.015-.036c.068-.157.132-.3.026-.443a.241.241,0,0,0-.2-.1.952.952,0,0,0-.243.047l-.015,0a2.727,2.727,0,0,0-1.106.607,27.8,27.8,0,0,1-3.619,2.631c-.692.448-1.407.911-2.086,1.4a.9.9,0,0,1-.51.2.527.527,0,0,1-.449-.272c-.2-.311-.11-.613.272-.873l.44-.3c.438-.3.891-.613,1.353-.9a30.078,30.078,0,0,0,3.8-2.736c.023-.02.049-.039.068-.054.11-.085.19-.146.142-.282s-.147-.143-.3-.152l-.072,0c-.069-.006-.133-.009-.194-.009a1.277,1.277,0,0,0-.751.214c-.3.206-.612.41-.91.607l-.017.011c-.373.247-.758.5-1.133.759a29.508,29.508,0,0,1-5.36,3.127l-.064.027a1.19,1.19,0,0,1-.454.126.547.547,0,0,1-.351-.128.819.819,0,0,1-.218-.843v-.007a3.378,3.378,0,0,1,.282-.9l.044-.106c.046-.11.093-.22.139-.329a6.4,6.4,0,0,0,.57-1.813c.042-.4.041-.8-.469-.891a.884.884,0,0,0-.207.466c-.011.047-.021.091-.032.133a14.957,14.957,0,0,1-2.491,4.727,8.21,8.21,0,0,0-1.784,6.177A2.3,2.3,0,0,1,56,767.6a7.541,7.541,0,0,0,.8.65,9.666,9.666,0,0,0,4.467,1.7l.039-.022a40.609,40.609,0,0,0,5.217-3.542M38.385,778.366q-.093-.63-.184-1.26c-.439-3.014-.893-6.131-1.621-9.147-.011-.045-.018-.092-.025-.138a.6.6,0,0,0-.218-.448l-.124.02q-.856.17-1.718.314a50.9,50.9,0,0,1-7.214.671l-.4.034c.044.137.082.261.119.382.076.247.141.461.221.67.495,1.3.9,2.653,1.3,3.961q.107.352.214.7a1.691,1.691,0,0,1,.048.194l8.512,4.127,1.2.582c-.035-.2-.069-.409-.107-.666m-6.48-1.281-.52,1.073,9.794,4.749.52-1.072-7.784-3.774Zm-14.234-11.6c1.128.239,2.332.516,3.79.873a.657.657,0,0,1,.443,1.151,16.2,16.2,0,0,1-1.009,1.395.716.716,0,0,0,0,1.079c.736.915,1.455,1.868,2.15,2.79q.359.477.72.952l.005.007.477-.984a.561.561,0,0,1,.749-.26l2.552,1.237c-.274-.933-.588-1.858-.9-2.758-.244-.717-.5-1.458-.725-2.193a31.821,31.821,0,0,0-5.386-10.819l-.092-.114a3.03,3.03,0,0,1-.758-1.373l-.061,0a.656.656,0,0,0-.655.384,15.513,15.513,0,0,1-1.087,1.869,2.2,2.2,0,0,0-.328,1.329,21.18,21.18,0,0,1-.337,4.759c-.081.425.027.589.446.678" transform="translate(22.957 9384.416)" fill="#3a3d3f"/><path d="M1246.552,1689.279c1.956,1.388,3.939,2.808,5.857,4.181l1.241.889.606.433c.707.5,1.437,1.026,2.147,1.55a1.753,1.753,0,0,1,.83,1.239.585.585,0,0,1-.443.71.6.6,0,0,1-.135.016.511.511,0,0,1-.495-.451,1.372,1.372,0,0,0-.667-.824c-1.192-.85-2.4-1.716-3.573-2.554-2.133-1.526-4.338-3.1-6.513-4.647-.613-.435-.731-.872-.383-1.418a.615.615,0,0,0-.179-.884,1.3,1.3,0,0,1-.521-1.041c.017-.081.031-.161.045-.238a3.213,3.213,0,0,1,.118-.505c.565-1.607,1.151-3.237,1.717-4.813l.007-.018c.111-.311.258-.642.587-.642a.643.643,0,0,1,.205.038.525.525,0,0,1,.328.255,1.038,1.038,0,0,1-.088.743l-.005.015q-.216.6-.43,1.206c-.384,1.082-.781,2.2-1.194,3.293a.9.9,0,0,0,.211,1.148,1.241,1.241,0,0,1,.4,1.458c-.215.451-.018.621.322.863" transform="translate(-1207.604 8489.818)" fill="#3a3d3f"/><path d="M1280.063,2147.429v0a8.731,8.731,0,0,1,.727-2.317,28.519,28.519,0,0,1,3.859-5.883,2.006,2.006,0,0,1,.41-.373.724.724,0,0,1,.4-.144.49.49,0,0,1,.37.178.518.518,0,0,1-.051.763c-.065.075-.135.149-.2.221-.118.127-.241.258-.347.4l-.056.073c-1.68,2.187-3.417,4.449-4.035,7.283a.518.518,0,0,1-.528.439.805.805,0,0,1-.114-.009c-.357-.056-.421-.348-.435-.625" transform="translate(-1237.705 8048.877)" fill="#3a3d3f"/><path d="M1613.532,1867.377a.567.567,0,0,1-.531.589,12.682,12.682,0,0,0-1.714.178l-.105.019-.02,0-.218.045q-.218.047-.434.1-.4.1-.8.231a12.81,12.81,0,0,0-1.574.627l-.141.07-.148.077q-.2.1-.39.214-.387.221-.757.469a.561.561,0,1,1-.624-.932,13.305,13.305,0,0,1,6.87-2.223.572.572,0,0,1,.589.531" transform="translate(-1577.705 8310.358)" fill="#3a3d3f"/><path d="M1481.131,1193.862a13.71,13.71,0,0,1,2.021,1.759,14.817,14.817,0,0,1,3.994,8.742.561.561,0,0,1-1.12.058c-.021-.223-.047-.445-.078-.667q-.023-.16-.049-.319c-.011-.065-.023-.13-.034-.2l0-.022-.005-.025c-.087-.422-.187-.84-.309-1.254a14.37,14.37,0,0,0-.809-2.094l-.061-.123-.068-.133q-.057-.11-.116-.22-.13-.241-.269-.476-.3-.514-.649-1-.33-.466-.7-.906-.085-.1-.172-.2l-.057-.065-.1-.11q-.185-.2-.377-.4a13.689,13.689,0,0,0-1.779-1.509.567.567,0,0,1-.051-.792.574.574,0,0,1,.792-.051" transform="translate(-1446.522 8957.77)" fill="#3a3d3f"/><path d="M1066.991,664.149a.7.7,0,0,1,.583-1.128c.655-.043,1.371-.072,2.253-.092h.014l.018-.019h.034a.077.077,0,0,1,.05.016c.321-.008.646-.026.962-.043.407-.022.828-.044,1.244-.047h.008a.862.862,0,0,1,.745.358.708.708,0,0,1,.02.7,6.829,6.829,0,0,1-1.543,2.36,1.775,1.775,0,0,1-1.221.56,1.843,1.843,0,0,1-1.028-.354,7.471,7.471,0,0,1-2.137-2.311m3.182,1.645a.9.9,0,0,0,.55-.324,5.578,5.578,0,0,0,1.017-1.506l-3.552.079a4.269,4.269,0,0,0,1.843,1.725.385.385,0,0,0,.141.027" transform="translate(-1016.591 9468.388)" fill="#3a3d3f"/><path d="M1123.443,786.307l.037,0c.067,0,.136-.008.2-.008.235,0,.55.05.568.486.022.538-.469.558-.763.57-.058,0-.119,0-.18,0-.179,0-.653,0-.655-.536,0-.486.4-.5.694-.51l.1,0" transform="translate(-1069.972 9349.644)" fill="#3a3d3f"/><path d="M1068.3,540.007a.455.455,0,0,1,.024-.591.493.493,0,0,1,.3-.169.356.356,0,0,1,.046,0,.328.328,0,0,1,.205.07,3.476,3.476,0,0,1,1.1,1.326.5.5,0,0,1-.066.433,2.019,2.019,0,0,1-1.2.8.607.607,0,0,1-.063.012.548.548,0,0,1-.071,0h0a.438.438,0,0,1-.406-.263.46.46,0,0,1,.177-.607,1.291,1.291,0,0,1,.216-.121,1.032,1.032,0,0,0,.24-.142l.048-.042-.137-.172c-.145-.181-.281-.352-.409-.534" transform="translate(-1013.638 9587.262)" fill="#3a3d3f"/><path d="M1011.6,453.185a.934.934,0,1,1-.947-.787.876.876,0,0,1,.947.787" transform="translate(-953.01 9670.79)" fill="#3a3d3f"/><path d="M1273.934,463.048a.851.851,0,1,1,.056,1.674h-.013a.851.851,0,1,1-.056-1.674Z" transform="translate(-1226.422 9660.548)" fill="#3a3d3f"/><path d="M898.445,82.272c.082-.3.176-.659.251-1.014a20.358,20.358,0,0,0,.322-2.766c.049-.7.1-1.434.209-2.147.017-.347.032-.7.047-1.048v-.021c.033-.782.067-1.591.131-2.385a9.121,9.121,0,0,1,2.277-5.168,2.1,2.1,0,0,1,.334-.339c-.07-.086-.137-.175-.2-.266a5.158,5.158,0,0,1-.911-2.864,2.8,2.8,0,0,1,.569-1.848.613.613,0,0,1-.061-.062c-.192-.224-.4-.437-.608-.644a8.988,8.988,0,0,1-.843-.936,5.834,5.834,0,0,1-1.052-2.517,15.193,15.193,0,0,1-.169-2.7,14.536,14.536,0,0,1,.639-3.8,18.232,18.232,0,0,1,2.485-4.729l.11-.166a13.606,13.606,0,0,1,3.733-3.555,2.637,2.637,0,0,1,1.606-.445c.273,0,.552.022.822.043l.107.008a.472.472,0,0,1,.46.475.506.506,0,0,1-.459.546,2.029,2.029,0,0,1-.353.035,1.263,1.263,0,0,1-.168-.011,2.186,2.186,0,0,0-.29-.02,2.681,2.681,0,0,0-1.647.64,14.536,14.536,0,0,0-3.444,3.691,13.582,13.582,0,0,0-2.508,7.883c0,2.372.629,3.935,2.051,5.067a1.147,1.147,0,0,1,.34.432,1.966,1.966,0,0,1,1.158-.375,2.573,2.573,0,0,1,.912.181.757.757,0,0,1,.458.369.521.521,0,0,1-.012.415.436.436,0,0,1-.425.308,1.068,1.068,0,0,1-.384-.089,1.392,1.392,0,0,0-.506-.1,1.26,1.26,0,0,0-1.006.584,2.113,2.113,0,0,0-.452,1.58,3.751,3.751,0,0,0,2.246,3.254,2.541,2.541,0,0,0,1.087.2h.1a1.1,1.1,0,0,1,.3.036.405.405,0,0,1,.118-.018.85.85,0,0,1,.511.259c.288.25.58.506.862.754.516.453,1.048.921,1.581,1.37a22.8,22.8,0,0,0,6.216,3.671,6.821,6.821,0,0,0,2.392.592,3.231,3.231,0,0,0,.871-.116,9.415,9.415,0,0,0,4.017-2.37,10.07,10.07,0,0,0,2.3-3.073,12.221,12.221,0,0,0,1.079-3.7c.174-1.282.3-2.576.365-3.846.035-.65.057-1.308.065-1.957,0-.06,0-.131,0-.207a1.312,1.312,0,0,1,.168-.909.443.443,0,0,1,.333-.128c.023,0,.047,0,.072,0,.507.049.549.549.529.98-.038.821-.088,1.692-.157,2.743a25.493,25.493,0,0,1-.938,6.093,11.783,11.783,0,0,1-3.08,4.746,11.22,11.22,0,0,1-3.452,2.263,5.12,5.12,0,0,1-2.176.454,7.063,7.063,0,0,1-2.236-.382,21.357,21.357,0,0,1-4.256-2.017,29.238,29.238,0,0,1-5.278-4.19L905.593,69a1.813,1.813,0,0,1-.217.024c-.089.005-.176.008-.258.008a2.944,2.944,0,0,1-1.014-.163,4.754,4.754,0,0,1-1.238-.668,7.154,7.154,0,0,0-2.311,4.547c-.264,2.148-.375,4.347-.482,6.475l-.006.12a17.618,17.618,0,0,1-.513,3.249c-.082.341-.286.536-.561.536a.693.693,0,0,1-.225-.041c-.335-.115-.44-.383-.323-.817" transform="translate(-864.339 10064.696)" fill="#3a3d3f"/><path d="M880.792,17.039a.518.518,0,0,1-.292-.308.763.763,0,0,1,.127-.593,6.188,6.188,0,0,0,.47-4.481,12.929,12.929,0,0,0-2.631-5.769,11.86,11.86,0,0,0-5.241-3.831,13.793,13.793,0,0,0-4.591-.944c-.116,0-.233,0-.348.007a8.583,8.583,0,0,0-4.514,1.014.678.678,0,0,1-.364.122.5.5,0,0,1-.4-.207.527.527,0,0,1,.091-.763,2.648,2.648,0,0,1,1.29-.7A19.966,19.966,0,0,1,868.745,0a10.785,10.785,0,0,1,2.518.285,14.988,14.988,0,0,1,5.8,2.675,13.8,13.8,0,0,1,3.955,5.016,15.669,15.669,0,0,1,1.418,5.422,6.559,6.559,0,0,1-.76,3.079l-.067.149c-.146.326-.328.485-.555.485a.609.609,0,0,1-.264-.067" transform="translate(-818.238 10105.915)" fill="#3a3d3f"/><path d="M1345,175.345a1.817,1.817,0,0,1,.054-.3.461.461,0,0,1,.469-.345h.026a.469.469,0,0,1,.471.379,2.33,2.33,0,0,1,.044.394c0,.049,0,.1.009.139v.013a19.832,19.832,0,0,1-.531,2.6q-.052.205-.1.411a29.158,29.158,0,0,1-1.232,3.946,15.335,15.335,0,0,1-2.022,3.615l-.071.093a7.33,7.33,0,0,1-1.058,1.194.844.844,0,0,1-.527.249.523.523,0,0,1-.394-.2c-.3-.342-.07-.634.168-.85a8.421,8.421,0,0,0,1.089-1.287c2.215-3.008,2.94-6.642,3.579-9.848.013-.064.021-.132.029-.2" transform="translate(-1300.088 9937.886)" fill="#3a3d3f"/><path d="M926.22,182.245a27.723,27.723,0,0,1-2.06-3.155l-.009-.015a.789.789,0,0,1-.092-.77.513.513,0,0,1,.457-.252.7.7,0,0,1,.548.419c.106.171.21.343.31.51.251.416.51.846.794,1.247l.182.258a17.675,17.675,0,0,0,4.789,5.156c.31.194.607.415.9.63l.083.062a.532.532,0,0,1,.2.741.479.479,0,0,1-.433.258.75.75,0,0,1-.25-.047l-.015-.005a1.4,1.4,0,0,1-.4-.192c-.3-.238-.626-.464-.937-.684a9.887,9.887,0,0,1-2.174-1.877c-.31-.394-.64-.784-.96-1.161s-.626-.74-.928-1.121" transform="translate(-870.528 9934.659)" fill="#3a3d3f"/><path d="M1086.958,149.21a.522.522,0,0,1,.325-.129.766.766,0,0,1,.552.38,19.5,19.5,0,0,0,3.527,3.714,13.538,13.538,0,0,0,4.524,2.384.522.522,0,0,1,.423.64c-.061.281-.253.412-.6.412-.035,0-.072,0-.112,0h-.006l-.006,0-.11-.029c-.105-.028-.236-.062-.367-.1a12.4,12.4,0,0,1-3.172-1.55,19.073,19.073,0,0,1-4.945-4.738c-.231-.309-.416-.667-.028-.976" transform="translate(-1040.672 9962.523)" fill="#3a3d3f"/><path d="M562.385,317.643h.006l2.576.239a.526.526,0,0,1-.091,1.047h-.006l-2.576-.239a.526.526,0,0,1,.091-1.047" transform="translate(-489.746 9800.4)" fill="#3a3d3f"/><path d="M577.559,202.046l2.525-1.111a.526.526,0,1,1,.423.962l-2.525,1.111a.526.526,0,1,1-.423-.962" transform="translate(-505.713 9912.693)" fill="#3a3d3f"/><path d="M657.408,108.6l1.569-2.057a.526.526,0,1,1,.836.638l-1.569,2.057a.526.526,0,0,1-.836-.638" transform="translate(-587.868 10003.637)" fill="#3a3d3f"/><path d="M0,0H75.154V97.026H0Z" transform="translate(22 10105.911)" fill="none"/><path d="M-95.013.986A9.915,9.915,0,0,1-98.66.468a4.292,4.292,0,0,1-2.133-1.573,3.781,3.781,0,0,1-.6-2.4,3.007,3.007,0,0,1,.858-2.032,3.99,3.99,0,0,1,2.015-1.02A7.717,7.717,0,0,1-95.778-6.6a11.624,11.624,0,0,1-.978-1.173A15.475,15.475,0,0,1-97.7-9.214q-1,.153-2.014.264t-1.98.161a1.017,1.017,0,0,1-.731-.246.917.917,0,0,1-.323-.689.941.941,0,0,1,.272-.722,1.016,1.016,0,0,1,.714-.315q.748-.034,1.555-.1t1.624-.17a8.15,8.15,0,0,1-.289-.807q-.119-.4-.2-.773a1.074,1.074,0,0,1,.153-.765.937.937,0,0,1,.629-.442.979.979,0,0,1,.773.153,1,1,0,0,1,.433.646,11.687,11.687,0,0,0,.51,1.666q.833-.17,1.606-.357t1.437-.408a.971.971,0,0,1,.774.051.921.921,0,0,1,.5.578.922.922,0,0,1-.06.765,1.032,1.032,0,0,1-.6.493q-.629.17-1.318.34t-1.437.323a13.022,13.022,0,0,0,1.445,1.946A9.423,9.423,0,0,0-92.48-6.086a.988.988,0,0,1,.417.578.965.965,0,0,1-.076.7,1.069,1.069,0,0,1-.51.5.9.9,0,0,1-.7.043A9.272,9.272,0,0,0-97.742-4.9q-1.572.306-1.658,1.581-.153,2.329,4.352,2.261a.928.928,0,0,1,.722.281,1.046,1.046,0,0,1,.314.722A1,1,0,0,1-94.3.672,1.016,1.016,0,0,1-95.013.986Zm16.1-.374a1,1,0,0,1-.723-.289,1.016,1.016,0,0,1-.314-.714,1,1,0,0,1,.289-.722,1.016,1.016,0,0,1,.714-.314q4.76-.085,4.76-2.72a1.67,1.67,0,0,0-.6-1.36A2.4,2.4,0,0,0-76.364-6a5.379,5.379,0,0,0-2.252.536,6.425,6.425,0,0,0-2.117,1.606.938.938,0,0,1-.57.315.975.975,0,0,1-.637-.094.857.857,0,0,1-.425-.433,1.063,1.063,0,0,1-.085-.621q.119-.714.264-1.547t.314-1.691q.17-.859.34-1.59a.91.91,0,0,1,.451-.637,1,1,0,0,1,.773-.11.991.991,0,0,1,.629.467.981.981,0,0,1,.119.773q-.119.476-.281,1.1t-.331,1.318a6.86,6.86,0,0,1,3.859-1.326,4.774,4.774,0,0,1,2.193.476,3.544,3.544,0,0,1,1.453,1.326,3.743,3.743,0,0,1,.519,1.989A4.112,4.112,0,0,1-73.814-.731,8.493,8.493,0,0,1-78.914.612Zm2.72-10.642q-.544-.272-1.233-.587t-1.377-.612q-.688-.3-1.215-.5a.87.87,0,0,1-.51-.561,1.036,1.036,0,0,1,.034-.782.948.948,0,0,1,.578-.518,1.127,1.127,0,0,1,.782.025q.561.221,1.215.5t1.317.578q.663.3,1.207.569a1.094,1.094,0,0,1,.535.569.99.99,0,0,1,.008.774,1.054,1.054,0,0,1-.561.544A.942.942,0,0,1-76.194-10.03ZM-62.883.272A1.008,1.008,0,0,1-63.648.1a1.014,1.014,0,0,1-.425-.646q-.153-.867-.238-2.015T-64.4-4.981q0-1.275.068-2.567t.213-2.474q.145-1.181.349-2.116a.966.966,0,0,1,.442-.638.991.991,0,0,1,.765-.144,1.039,1.039,0,0,1,.637.451,1,1,0,0,1,.145.773A23.417,23.417,0,0,0-62.2-9.078q-.153,1.411-.2,2.865t.042,2.822A21.41,21.41,0,0,0-62.067-.9a.908.908,0,0,1-.161.748A1.047,1.047,0,0,1-62.883.272Zm6.97-.918a5.528,5.528,0,0,1-3.289-.8,3.364,3.364,0,0,1-1.3-2.346.959.959,0,0,1,.178-.748.99.99,0,0,1,.672-.408,1.018,1.018,0,0,1,.748.2.99.99,0,0,1,.408.672,1.43,1.43,0,0,0,.7,1.088,3.939,3.939,0,0,0,1.938.357,14.878,14.878,0,0,0,3.077-.391.921.921,0,0,1,.765.136,1,1,0,0,1,.442.646.948.948,0,0,1-.153.757,1.073,1.073,0,0,1-.646.45A12.949,12.949,0,0,1-54.2-.731Q-55.114-.646-55.913-.646Zm-3.111-8.415a.967.967,0,0,1-.757-.144.981.981,0,0,1-.434-.655.991.991,0,0,1,.145-.765.916.916,0,0,1,.654-.425A15.027,15.027,0,0,1-57.29-11.3q1.173-.059,2.329-.017a15.4,15.4,0,0,1,2.04.2.952.952,0,0,1,.663.417.979.979,0,0,1,.153.774.924.924,0,0,1-.417.655,1.024,1.024,0,0,1-.757.161,16.2,16.2,0,0,0-2.856-.229A15.713,15.713,0,0,0-59.024-9.061Zm20.264,5.95a.845.845,0,0,1-.6-.238.9.9,0,0,1-.289-.595q-.051-.646-.094-1.479t-.093-1.708q-.051-.876-.085-1.674t-.051-1.411q-.017-.612-.017-.9V-12.8a1.119,1.119,0,0,1,.348-.833,1.2,1.2,0,0,1,.875-.34,1.225,1.225,0,0,1,.893.34,1.119,1.119,0,0,1,.348.833v1.683q0,.289-.026.9t-.06,1.411q-.034.8-.076,1.674t-.093,1.708q-.051.833-.1,1.479a.838.838,0,0,1-.272.595A.865.865,0,0,1-38.76-3.111Zm0,4.148A1.391,1.391,0,0,1-39.78.612a1.391,1.391,0,0,1-.425-1.02,1.391,1.391,0,0,1,.425-1.02,1.391,1.391,0,0,1,1.02-.425,1.391,1.391,0,0,1,1.02.425,1.391,1.391,0,0,1,.425,1.02A1.391,1.391,0,0,1-37.74.612,1.391,1.391,0,0,1-38.76,1.037Zm21-.323A1.046,1.046,0,0,1-18.487.4a.928.928,0,0,1-.281-.722.99.99,0,0,1,.306-.74.954.954,0,0,1,.731-.281,3.888,3.888,0,0,0,2.116-.442,1.539,1.539,0,0,0,.722-1.394,1.517,1.517,0,0,0-.791-1.377,4.4,4.4,0,0,0-2.252-.476q-.578,0-1.1.051t-1.02.136V-2.7a3.587,3.587,0,0,1-.8,2.575A3.073,3.073,0,0,1-23.171.7a3.242,3.242,0,0,1-2.04-.629,2.374,2.374,0,0,1-.816-2.006,3.59,3.59,0,0,1,1.063-2.533,7.054,7.054,0,0,1,2.9-1.751V-8.755q-.731.068-1.419.1t-1.284.051a1.028,1.028,0,0,1-.731-.289.943.943,0,0,1-.306-.714.956.956,0,0,1,.3-.714,1,1,0,0,1,.722-.289q.595-.017,1.292-.051t1.428-.085v-2.091a1.019,1.019,0,0,1,.289-.74.956.956,0,0,1,.714-.3.956.956,0,0,1,.714.3,1.019,1.019,0,0,1,.289.74v1.921q.391-.034.731-.085t.663-.085a1.051,1.051,0,0,1,.765.153.9.9,0,0,1,.408.646.874.874,0,0,1-.187.731,1.073,1.073,0,0,1-.68.374q-.357.068-.791.119t-.91.119V-6.7A14.557,14.557,0,0,1-17.9-6.851a7.464,7.464,0,0,1,2.7.442,3.9,3.9,0,0,1,1.759,1.266,3.172,3.172,0,0,1,.62,1.963A3.516,3.516,0,0,1-14.127-.255,5.45,5.45,0,0,1-17.765.714Zm3.706-8.262q-.272-.2-.663-.45t-.782-.476q-.391-.23-.68-.366a1.091,1.091,0,0,1-.535-.578.924.924,0,0,1,.008-.765.97.97,0,0,1,.6-.527,1.02,1.02,0,0,1,.774.068q.357.17.816.442t.91.553q.45.281.74.5a.892.892,0,0,1,.391.646,1.038,1.038,0,0,1-.187.748.994.994,0,0,1-.655.383A.992.992,0,0,1-14.059-7.548Zm-9.112,6.307a1.11,1.11,0,0,0,.808-.289,1.671,1.671,0,0,0,.3-1.173v-1.53a4.1,4.1,0,0,0-1.419,1.011,1.856,1.856,0,0,0-.5,1.216Q-23.987-1.241-23.171-1.241Zm23.154,2.8a1.062,1.062,0,0,1-.756-.3A1.016,1.016,0,0,1-1.088.493V-2.958h-1.02a12.509,12.509,0,0,1-2.261-.17A3.07,3.07,0,0,1-5.8-3.74a2.4,2.4,0,0,1-.748-1.25,8.093,8.093,0,0,1-.221-2.082v-.884a7.991,7.991,0,0,1,.221-2.074A2.451,2.451,0,0,1-5.8-11.28a3.018,3.018,0,0,1,1.428-.62,12.509,12.509,0,0,1,2.261-.17h1.02V-13.4a1.016,1.016,0,0,1,.315-.774,1.062,1.062,0,0,1,.756-.3,1.062,1.062,0,0,1,.757.3,1.016,1.016,0,0,1,.314.774v1.326H2.091a12.509,12.509,0,0,1,2.261.17,2.96,2.96,0,0,1,1.42.62,2.48,2.48,0,0,1,.74,1.25,7.991,7.991,0,0,1,.221,2.074v.884A8.093,8.093,0,0,1,6.511-4.99a2.432,2.432,0,0,1-.74,1.25,3.01,3.01,0,0,1-1.42.612,12.509,12.509,0,0,1-2.261.17H1.054V.493a1.016,1.016,0,0,1-.314.774A1.062,1.062,0,0,1-.017,1.564ZM1.054-4.794H2.091A8.336,8.336,0,0,0,3.672-4.9a.971.971,0,0,0,.722-.5A3.02,3.02,0,0,0,4.607-6.63H1.054Zm-3.162,0h1.02V-6.63H-4.624a3.148,3.148,0,0,0,.2,1.224.951.951,0,0,0,.722.5A8.48,8.48,0,0,0-2.108-4.794ZM1.054-8.415H4.607A2.953,2.953,0,0,0,4.394-9.63a.977.977,0,0,0-.722-.493,8.336,8.336,0,0,0-1.581-.111H1.054Zm-5.678,0h3.536v-1.819h-1.02a8.48,8.48,0,0,0-1.589.111.956.956,0,0,0-.722.493A3.078,3.078,0,0,0-4.624-8.415ZM19.924.731a4.724,4.724,0,0,1-3.2-1.012,4.1,4.1,0,0,1-1.165-3.256V-12.6a.984.984,0,0,1,.3-.722.984.984,0,0,1,.722-.3.984.984,0,0,1,.722.3.984.984,0,0,1,.3.722v9.061a2.231,2.231,0,0,0,.569,1.751,2.641,2.641,0,0,0,1.759.493A3.759,3.759,0,0,0,21.9-1.853a3.99,3.99,0,0,0,1.5-1.8.978.978,0,0,1,.6-.527.987.987,0,0,1,.782.051.893.893,0,0,1,.518.578,1.111,1.111,0,0,1-.042.8A5.68,5.68,0,0,1,23.077-.17,5.819,5.819,0,0,1,19.924.731ZM44.812-2.108a12.765,12.765,0,0,1-2.2-2.541,12.523,12.523,0,0,1-1.556-3.324,17.372,17.372,0,0,1-1.6,3.239,12.02,12.02,0,0,1-2.176,2.609,1.04,1.04,0,0,1-.782.263.961.961,0,0,1-.731-.365A.835.835,0,0,1,35.59-2.9a1.028,1.028,0,0,1,.349-.621,10.64,10.64,0,0,0,1.912-2.227A17.025,17.025,0,0,0,39.3-8.483a21.028,21.028,0,0,0,.961-2.822,1.307,1.307,0,0,0-.816-.2H37.757a.922.922,0,0,1-.706-.28.968.968,0,0,1-.264-.689.946.946,0,0,1,.264-.672.922.922,0,0,1,.706-.28h1.887a2.8,2.8,0,0,1,1.811.468,2.439,2.439,0,0,1,.672,1.675,10.911,10.911,0,0,0,.705,2.915,12,12,0,0,0,1.411,2.6,12.415,12.415,0,0,0,1.93,2.134.991.991,0,0,1,.357.663.847.847,0,0,1-.2.7,1.194,1.194,0,0,1-.731.391A.936.936,0,0,1,44.812-2.108Zm-4.2,3.145A16.961,16.961,0,0,1,36.686.672a4.93,4.93,0,0,1-2.363-1.25q-.221.17-.569.425L33.082.34q-.323.238-.493.357a1.054,1.054,0,0,1-.79.17.894.894,0,0,1-.671-.442A.984.984,0,0,1,31-.34a.9.9,0,0,1,.468-.612l.791-.442q.518-.289.91-.51V-5.525a.9.9,0,0,0-.136-.578.725.725,0,0,0-.544-.153h-.714a.835.835,0,0,1-.663-.272.949.949,0,0,1-.238-.646.918.918,0,0,1,.238-.638.848.848,0,0,1,.663-.263h1.479a1.608,1.608,0,0,1,1.819,1.819V-2.3a3.656,3.656,0,0,0,1.071.842,5.3,5.3,0,0,0,1.692.485,20.277,20.277,0,0,0,2.779.153q1.445,0,2.694-.051t2.185-.119a1.155,1.155,0,0,1,.841.238.879.879,0,0,1,.331.714,1.047,1.047,0,0,1-.272.748A1.143,1.143,0,0,1,45.526,1q-.748,0-1.666.008l-1.785.017Q41.208,1.037,40.613,1.037ZM33.949-10.489a7.738,7.738,0,0,0-.6-.57q-.365-.314-.731-.62t-.654-.51a.773.773,0,0,1-.315-.62.988.988,0,0,1,.229-.672.969.969,0,0,1,.621-.349.963.963,0,0,1,.722.179q.323.238.714.544t.757.612q.365.306.6.527a.862.862,0,0,1,.323.689.988.988,0,0,1-.306.722.949.949,0,0,1-.672.332A.857.857,0,0,1,33.949-10.489ZM58,.408a1,1,0,0,1-.323-.714.968.968,0,0,1,.272-.731,8.891,8.891,0,0,0,1.292-1.675A14.769,14.769,0,0,0,60.282-4.76a20.741,20.741,0,0,0-2.669-.51,9.069,9.069,0,0,1-1.428,2.21,4.428,4.428,0,0,1-1.7,1.224,3.255,3.255,0,0,1-1.666.23,2.263,2.263,0,0,1-1.352-.655,2.088,2.088,0,0,1-.535-1.53,2.808,2.808,0,0,1,.561-1.7,3.841,3.841,0,0,1,1.743-1.233,8.4,8.4,0,0,1,3.051-.467A21.629,21.629,0,0,0,56.95-9.5q.238-.986-.085-1.318a1.5,1.5,0,0,0-1.258-.212q-.323.051-.833.119t-.8.1a1.057,1.057,0,0,1-.748-.255.979.979,0,0,1-.357-.7,1.028,1.028,0,0,1,.255-.74.991.991,0,0,1,.7-.348l.884-.085q.527-.051.867-.068a3.587,3.587,0,0,1,2.95.748,3.321,3.321,0,0,1,.417,2.924q-.119.612-.272,1.182t-.323,1.1q.612.068,1.258.2t1.275.28q.136-.578.221-1.13a8.956,8.956,0,0,0,.1-1.062,1.081,1.081,0,0,1,.3-.723.986.986,0,0,1,.706-.314.984.984,0,0,1,.722.3.928.928,0,0,1,.281.722,10.17,10.17,0,0,1-.128,1.352,13.76,13.76,0,0,1-.3,1.385q.527.17,1.029.349t.977.365a1.013,1.013,0,0,1,.553.561.964.964,0,0,1-.008.782.986.986,0,0,1-.544.544.942.942,0,0,1-.782,0q-.442-.2-.9-.383t-.918-.349a17.116,17.116,0,0,1-1.232,2.55,10.03,10.03,0,0,1-1.5,1.989,1.022,1.022,0,0,1-.705.306A1.045,1.045,0,0,1,58,.408ZM53.771-3.621A2.774,2.774,0,0,0,54.6-4.2a4.97,4.97,0,0,0,.833-1.122,4.176,4.176,0,0,0-1.913.51,1.135,1.135,0,0,0-.586.867.4.4,0,0,0,.212.382A.757.757,0,0,0,53.771-3.621ZM79.339-.051a1.039,1.039,0,0,1-.8-.119A.985.985,0,0,1,78.064-.8a.981.981,0,0,1,.119-.774.991.991,0,0,1,.629-.467,5.1,5.1,0,0,0,2.78-1.6,4.321,4.321,0,0,0,.892-2.805,3.863,3.863,0,0,0-.476-1.921,3.7,3.7,0,0,0-1.352-1.377,4.95,4.95,0,0,0-2.1-.646,22.472,22.472,0,0,1-1.029,4.939,9.84,9.84,0,0,1-1.7,3.213A2.751,2.751,0,0,1,73.78-1.105a2.8,2.8,0,0,1-1.649-.527,3.534,3.534,0,0,1-1.182-1.513,5.846,5.846,0,0,1-.433-2.363,6.561,6.561,0,0,1,.535-2.643,6.565,6.565,0,0,1,1.521-2.168,7.148,7.148,0,0,1,2.32-1.462,7.917,7.917,0,0,1,2.933-.527,7.706,7.706,0,0,1,3.442.74A5.873,5.873,0,0,1,83.64-9.511a5.454,5.454,0,0,1,.867,3.068,6.347,6.347,0,0,1-1.317,4.106A6.956,6.956,0,0,1,79.339-.051ZM73.8-3.2q.306,0,.705-.519a6.928,6.928,0,0,0,.808-1.47,16.108,16.108,0,0,0,.748-2.253,19.789,19.789,0,0,0,.51-2.882,5,5,0,0,0-2.227.978,4.718,4.718,0,0,0-1.36,1.717A5.107,5.107,0,0,0,72.5-5.542a3.388,3.388,0,0,0,.366,1.751A1.071,1.071,0,0,0,73.8-3.2ZM97.614,1.326a1.311,1.311,0,0,1-.892-.289,1.054,1.054,0,0,1-.349-.8A.984.984,0,0,1,96.7-.544a1.259,1.259,0,0,1,.859-.289,5.161,5.161,0,0,0,1.224-.111,1.021,1.021,0,0,0,.637-.451,3.426,3.426,0,0,0,.366-1.054q.1-.459.2-1.062t.17-1.148q.085-.731-.187-.977a1.66,1.66,0,0,0-1.071-.247H96.662A11.332,11.332,0,0,1,94.6-1.742a10.263,10.263,0,0,1-3.834,2.882,1.348,1.348,0,0,1-.867.085A.917.917,0,0,1,89.25.7a.96.96,0,0,1-.017-.808,1.232,1.232,0,0,1,.646-.6,8.659,8.659,0,0,0,3.834-3.392,11.749,11.749,0,0,0,1.437-5.5H89.964a.916.916,0,0,1-.672-.281.916.916,0,0,1-.281-.672.916.916,0,0,1,.281-.671.916.916,0,0,1,.672-.281h5.61v-1.8a1.037,1.037,0,0,1,.331-.8,1.125,1.125,0,0,1,.79-.306,1.126,1.126,0,0,1,.791.306,1.037,1.037,0,0,1,.331.8v1.8h5.865a.916.916,0,0,1,.672.281.916.916,0,0,1,.281.671.916.916,0,0,1-.281.672.916.916,0,0,1-.672.281H97.257q-.017.459-.068.9t-.119.884h2.091a4.121,4.121,0,0,1,2.66.655,2.634,2.634,0,0,1,.569,2.372q-.068.68-.187,1.4t-.221,1.3a5.922,5.922,0,0,1-.731,2.066A2.56,2.56,0,0,1,99.909,1.02,7.061,7.061,0,0,1,97.614,1.326ZM-74.069,26.816a.861.861,0,0,1-.672-.272.93.93,0,0,1-.246-.646.921.921,0,0,1,.246-.655.875.875,0,0,1,.672-.264h5.2V23.127h-3.366a.874.874,0,0,1-.68-.281.942.942,0,0,1-.255-.655.934.934,0,0,1,.255-.663.888.888,0,0,1,.68-.272h3.366V19.676h-3.281a.9.9,0,0,1-.688-.28.946.946,0,0,1-.263-.672,1.016,1.016,0,0,1,.085-.391q-.34.272-.68.5t-.663.434a1.385,1.385,0,0,1-.867.238.889.889,0,0,1-.7-.408.878.878,0,0,1-.127-.782,1.159,1.159,0,0,1,.5-.629,22.332,22.332,0,0,0,2.1-1.428q1.1-.833,2.108-1.725t1.725-1.658a2.548,2.548,0,0,1,1.76-.969,2.833,2.833,0,0,1,1.912.986q.731.7,1.691,1.5t2.04,1.581a23.541,23.541,0,0,0,2.133,1.369,1.022,1.022,0,0,1,.5.638.943.943,0,0,1-.111.807,1,1,0,0,1-.739.485,1.367,1.367,0,0,1-.91-.213q-1.054-.68-2.151-1.5t-2.091-1.709a23.964,23.964,0,0,1-1.743-1.7.557.557,0,0,0-.935.034q-.748.8-1.836,1.768t-2.21,1.853a.516.516,0,0,1,.153-.017h8.6a.888.888,0,0,1,.68.272.934.934,0,0,1,.255.663.964.964,0,0,1-.255.672.874.874,0,0,1-.68.28h-3.2v1.581h3.3a.861.861,0,0,1,.671.272.952.952,0,0,1,.247.663.961.961,0,0,1-.247.655.848.848,0,0,1-.671.281h-3.3V24.98h5.168a.875.875,0,0,1,.672.264.921.921,0,0,1,.246.655.93.93,0,0,1-.246.646.861.861,0,0,1-.672.272Zm20.179.493a1.293,1.293,0,0,1-.816.068.865.865,0,0,1-.561-.476.923.923,0,0,1-.042-.722.738.738,0,0,1,.468-.467q.459-.153,1.071-.391t1.215-.51q.6-.272,1.063-.527A4.259,4.259,0,0,1-53.023,24a1.526,1.526,0,0,1-.807-.8,3.659,3.659,0,0,1-.246-1.471V19.064a3.547,3.547,0,0,1,.272-1.538,1.549,1.549,0,0,1,.926-.782,5.468,5.468,0,0,1,1.76-.229h5.389a5.388,5.388,0,0,1,1.751.229,1.548,1.548,0,0,1,.918.782,3.547,3.547,0,0,1,.272,1.538v2.669a3.711,3.711,0,0,1-.246,1.488,1.491,1.491,0,0,1-.808.79,4.462,4.462,0,0,1-1.547.272q.459.255,1.045.518t1.181.484q.6.221,1.054.374a.789.789,0,0,1,.5.485.914.914,0,0,1-.008.722.869.869,0,0,1-.561.493,1.254,1.254,0,0,1-.833-.051q-.527-.2-1.215-.51t-1.36-.637a11.81,11.81,0,0,1-1.147-.638.784.784,0,0,1-.365-.561.833.833,0,0,1,.178-.629l.034-.034H-50l.034.034a.833.833,0,0,1,.179.629.784.784,0,0,1-.366.561,9.891,9.891,0,0,1-1.139.638q-.68.331-1.368.637T-53.89,27.309Zm2.6-11.441a4.563,4.563,0,0,1-1.394-.17A1.15,1.15,0,0,1-53.4,15.1a2.709,2.709,0,0,1-.2-1.156,2.7,2.7,0,0,1,.2-1.165,1.156,1.156,0,0,1,.714-.587,4.563,4.563,0,0,1,1.394-.17h5.678a4.549,4.549,0,0,1,1.4.17,1.154,1.154,0,0,1,.706.587,2.7,2.7,0,0,1,.2,1.165,2.71,2.71,0,0,1-.2,1.156,1.148,1.148,0,0,1-.706.595,4.549,4.549,0,0,1-1.4.17Zm.578-1.411h4.522a1.685,1.685,0,0,0,.688-.085q.144-.085.144-.425t-.144-.425a1.685,1.685,0,0,0-.688-.085h-4.522a1.691,1.691,0,0,0-.68.085q-.153.085-.153.425t.153.425A1.691,1.691,0,0,0-50.711,14.457Zm-1.241,6.324h7.038v-.8h-7.038Zm1.241,2.091h4.556a2.2,2.2,0,0,0,.969-.144q.255-.145.272-.689h-7.021q.017.544.264.689A2.136,2.136,0,0,0-50.711,22.872Zm-1.224-4.148h7q-.017-.527-.272-.663a2.262,2.262,0,0,0-.952-.136h-4.556a2.2,2.2,0,0,0-.944.136Q-51.9,18.2-51.935,18.724Zm18.122,7.548a1.008,1.008,0,0,1-.765-.17A1.014,1.014,0,0,1-35,25.456q-.153-.867-.238-2.014t-.085-2.423q0-1.275.068-2.567t.212-2.474q.144-1.181.349-2.116a.966.966,0,0,1,.442-.638.991.991,0,0,1,.765-.144,1.039,1.039,0,0,1,.637.451,1,1,0,0,1,.145.773,23.417,23.417,0,0,0-.425,2.618q-.153,1.411-.2,2.864t.042,2.822A21.41,21.41,0,0,0-33,25.1a.908.908,0,0,1-.161.748A1.047,1.047,0,0,1-33.813,26.272Zm6.97-.918a5.528,5.528,0,0,1-3.289-.8,3.364,3.364,0,0,1-1.3-2.346.959.959,0,0,1,.178-.748.99.99,0,0,1,.671-.408,1.018,1.018,0,0,1,.748.2.99.99,0,0,1,.408.671,1.43,1.43,0,0,0,.7,1.088,3.939,3.939,0,0,0,1.938.357,14.878,14.878,0,0,0,3.077-.391.921.921,0,0,1,.765.136,1,1,0,0,1,.442.646.948.948,0,0,1-.153.757,1.073,1.073,0,0,1-.646.45,12.949,12.949,0,0,1-1.827.306Q-26.044,25.354-26.843,25.354Zm-3.111-8.415a.967.967,0,0,1-.757-.144.981.981,0,0,1-.434-.655A.991.991,0,0,1-31,15.375a.916.916,0,0,1,.655-.425A15.027,15.027,0,0,1-28.22,14.7q1.173-.059,2.329-.017a15.4,15.4,0,0,1,2.04.2.952.952,0,0,1,.663.417.979.979,0,0,1,.153.774.924.924,0,0,1-.417.655,1.024,1.024,0,0,1-.757.161,16.2,16.2,0,0,0-2.856-.229A15.713,15.713,0,0,0-29.954,16.939Zm18.615,9.775a1.054,1.054,0,0,1-.8.025,1.009,1.009,0,0,1-.595-.535,1.075,1.075,0,0,1-.026-.808.949.949,0,0,1,.536-.587,6.309,6.309,0,0,0,2.839-2.431,7.916,7.916,0,0,0,.969-3.944H-11q.017.68.017,1.292t-.034,1.1a.965.965,0,0,1-.34.722,1.063,1.063,0,0,1-.765.264.968.968,0,0,1-.7-.366,1.087,1.087,0,0,1-.255-.757q.034-.459.034-1.045t-.017-1.216h-3.485a1,1,0,0,1-.722-.289.956.956,0,0,1-.3-.714.984.984,0,0,1,.3-.722.984.984,0,0,1,.722-.3h3.417q-.034-.595-.076-1.13t-.111-.943a1.014,1.014,0,0,1,.179-.774.981.981,0,0,1,.671-.416.972.972,0,0,1,.791.17.951.951,0,0,1,.4.68q.068.476.119,1.1t.085,1.317h2.635q-.017-.731-.043-1.419t-.076-1.2a1.031,1.031,0,0,1,.247-.773,1,1,0,0,1,.706-.366,1.031,1.031,0,0,1,.773.247.954.954,0,0,1,.349.723q.051.527.076,1.266t.043,1.521h3.23a.984.984,0,0,1,.723.3.984.984,0,0,1,.3.722.956.956,0,0,1-.3.714,1,1,0,0,1-.723.289h-3.23a10.051,10.051,0,0,1-1.309,5.108A7.987,7.987,0,0,1-11.339,26.714ZM4.4,20.662a1.074,1.074,0,0,1-1.054-1.054,1,1,0,0,1,.314-.748,1.026,1.026,0,0,1,.739-.306H14.994a1.052,1.052,0,0,1,.748,1.793,1,1,0,0,1-.748.314Zm29.291,4.811a25.265,25.265,0,0,1-5.125.434A4.845,4.845,0,0,1,25.636,25a2.956,2.956,0,0,1-.995-1.513,8.31,8.31,0,0,1-.263-2.261v-6.9a1.017,1.017,0,0,1,.306-.748,1,1,0,0,1,.731-.306,1.045,1.045,0,0,1,1.054,1.054v3.757q1.394-.34,2.882-.79t2.677-.91a1,1,0,0,1,.816.008,1.008,1.008,0,0,1,.544.6,1.05,1.05,0,0,1-.017.807.919.919,0,0,1-.578.535q-1.445.527-3.128.986t-3.2.8v1.1a4.762,4.762,0,0,0,.153,1.437,1.48,1.48,0,0,0,.476.688,2.647,2.647,0,0,0,1.114.417,8.568,8.568,0,0,0,1.972.042q1.249-.085,3.188-.408a.933.933,0,0,1,.782.178,1.063,1.063,0,0,1,.408.706.905.905,0,0,1-.179.765A1.122,1.122,0,0,1,33.694,25.473Zm1.87-8.466a.649.649,0,0,1-.519.212.76.76,0,0,1-.535-.229q-.2-.238-.527-.578t-.578-.595a.6.6,0,0,1-.187-.425A.646.646,0,0,1,33.4,14.9a.688.688,0,0,1,.459-.2.712.712,0,0,1,.493.153,4.714,4.714,0,0,1,.638.5,7.535,7.535,0,0,1,.6.6.719.719,0,0,1,.2.527A.751.751,0,0,1,35.564,17.007Zm.442-1.547q-.221-.238-.569-.544t-.638-.544a.658.658,0,0,1-.2-.425.617.617,0,0,1,.153-.493.655.655,0,0,1,.433-.238.784.784,0,0,1,.5.1,5.91,5.91,0,0,1,.672.476q.383.306.654.561a.742.742,0,0,1,.229.519.766.766,0,0,1-.2.535.7.7,0,0,1-.5.247A.649.649,0,0,1,36.006,15.46Zm7.089,10.2a.982.982,0,0,1-.791.042,1.051,1.051,0,0,1-.127-1.929A19.212,19.212,0,0,0,46.5,20.942a15.71,15.71,0,0,0,3.085-3.6q.748-1.224-.816-1.224H44.132a.984.984,0,0,1-.731-.315,1.057,1.057,0,0,1,0-1.488,1,1,0,0,1,.731-.306h4.709a4.173,4.173,0,0,1,2.346.552,1.927,1.927,0,0,1,.893,1.5,3.885,3.885,0,0,1-.638,2.193,10.442,10.442,0,0,1-.9,1.36q.782.646,1.606,1.42t1.547,1.5q.722.722,1.215,1.233a1.049,1.049,0,0,1,.289.748,1.059,1.059,0,0,1-1.071,1.045,1.048,1.048,0,0,1-.748-.314l-1.156-1.2q-.7-.722-1.479-1.5t-1.513-1.4A23.145,23.145,0,0,1,46.35,23.68,19.847,19.847,0,0,1,43.095,25.66ZM67.83,22.889a.845.845,0,0,1-.6-.238.9.9,0,0,1-.289-.6q-.051-.646-.093-1.479t-.093-1.708q-.051-.875-.085-1.674t-.051-1.411q-.017-.612-.017-.9V13.2a1.119,1.119,0,0,1,.348-.833,1.2,1.2,0,0,1,.876-.34,1.225,1.225,0,0,1,.893.34,1.119,1.119,0,0,1,.348.833v1.683q0,.289-.025.9t-.06,1.411q-.034.8-.076,1.674t-.093,1.708q-.051.833-.1,1.479a.838.838,0,0,1-.272.6A.865.865,0,0,1,67.83,22.889Zm0,4.148a1.451,1.451,0,1,1,1.02-.425A1.391,1.391,0,0,1,67.83,27.037Z" transform="translate(207.686 10155.634)" fill="#fff" opacity="0.999"/></g></svg>