<svg xmlns="http://www.w3.org/2000/svg" width="900.13" height="168.978" viewBox="0 0 900.13 168.978"><g transform="translate(-477.87 -9459.001)"><path d="M51,0H785a51,51,0,0,1,0,102H51A51,51,0,0,1,51,0Z" transform="translate(542 9491.614)" fill="#60432e"/><path d="M0,0H47V47H0Z" transform="translate(960.234 9542.614) rotate(45)" fill="#60432e"/><path d="M-324.768,1.856A18.664,18.664,0,0,1-331.632.88a8.08,8.08,0,0,1-4.016-2.96,7.117,7.117,0,0,1-1.12-4.512,5.661,5.661,0,0,1,1.616-3.824,7.511,7.511,0,0,1,3.792-1.92,14.525,14.525,0,0,1,5.152-.08,21.881,21.881,0,0,1-1.84-2.208,29.127,29.127,0,0,1-1.776-2.72q-1.888.288-3.792.5t-3.728.3a1.915,1.915,0,0,1-1.376-.464,1.726,1.726,0,0,1-.608-1.3,1.771,1.771,0,0,1,.512-1.36,1.912,1.912,0,0,1,1.344-.592q1.408-.064,2.928-.192t3.056-.32a15.333,15.333,0,0,1-.544-1.52q-.224-.752-.384-1.456a2.022,2.022,0,0,1,.288-1.44,1.763,1.763,0,0,1,1.184-.832,1.842,1.842,0,0,1,1.456.288,1.891,1.891,0,0,1,.816,1.216,22,22,0,0,0,.96,3.136q1.568-.32,3.024-.672t2.7-.768a1.828,1.828,0,0,1,1.456.1,1.734,1.734,0,0,1,.944,1.088,1.735,1.735,0,0,1-.112,1.44,1.942,1.942,0,0,1-1.136.928q-1.184.32-2.48.64t-2.7.608a24.512,24.512,0,0,0,2.72,3.664,17.738,17.738,0,0,0,3.3,2.9,1.86,1.86,0,0,1,.784,1.088,1.816,1.816,0,0,1-.144,1.312,2.012,2.012,0,0,1-.96.944,1.7,1.7,0,0,1-1.312.08q-5.312-1.76-8.272-1.184t-3.12,2.976q-.288,4.384,8.192,4.256a1.746,1.746,0,0,1,1.36.528A1.969,1.969,0,0,1-322.88-.1a1.88,1.88,0,0,1-.544,1.36A1.912,1.912,0,0,1-324.768,1.856Zm30.3-.7a1.879,1.879,0,0,1-1.36-.544,1.912,1.912,0,0,1-.592-1.344,1.88,1.88,0,0,1,.544-1.36,1.912,1.912,0,0,1,1.344-.592q8.96-.16,8.96-5.12a3.144,3.144,0,0,0-1.12-2.56,4.516,4.516,0,0,0-2.976-.928,10.125,10.125,0,0,0-4.24,1.008,12.093,12.093,0,0,0-3.984,3.024,1.766,1.766,0,0,1-1.072.592,1.836,1.836,0,0,1-1.2-.176,1.612,1.612,0,0,1-.8-.816,2,2,0,0,1-.16-1.168q.224-1.344.5-2.912t.592-3.184q.32-1.616.64-2.992a1.713,1.713,0,0,1,.848-1.2,1.885,1.885,0,0,1,1.456-.208,1.865,1.865,0,0,1,1.184.88,1.847,1.847,0,0,1,.224,1.456q-.224.9-.528,2.064t-.624,2.48a12.913,12.913,0,0,1,7.264-2.5,8.987,8.987,0,0,1,4.128.9,6.671,6.671,0,0,1,2.736,2.5,7.046,7.046,0,0,1,.976,3.744,7.741,7.741,0,0,1-3.136,6.432Q-288,1.056-294.464,1.152Zm5.12-20.032q-1.024-.512-2.32-1.1t-2.592-1.152q-1.3-.56-2.288-.944a1.638,1.638,0,0,1-.96-1.056,1.949,1.949,0,0,1,.064-1.472,1.785,1.785,0,0,1,1.088-.976,2.121,2.121,0,0,1,1.472.048q1.056.416,2.288.944t2.48,1.088q1.248.56,2.272,1.072a2.06,2.06,0,0,1,1.008,1.072,1.864,1.864,0,0,1,.016,1.456,1.984,1.984,0,0,1-1.056,1.024A1.773,1.773,0,0,1-289.344-18.88ZM-264.288.512a1.9,1.9,0,0,1-1.44-.32,1.908,1.908,0,0,1-.8-1.216q-.288-1.632-.448-3.792t-.16-4.56q0-2.4.128-4.832t.4-4.656q.272-2.224.656-3.984a1.818,1.818,0,0,1,.832-1.2,1.866,1.866,0,0,1,1.44-.272,1.956,1.956,0,0,1,1.2.848,1.879,1.879,0,0,1,.272,1.456,44.08,44.08,0,0,0-.8,4.928q-.288,2.656-.368,5.392t.08,5.312a40.3,40.3,0,0,0,.544,4.688,1.708,1.708,0,0,1-.3,1.408A1.97,1.97,0,0,1-264.288.512Zm13.12-1.728q-4.16,0-6.192-1.5a6.332,6.332,0,0,1-2.448-4.416,1.806,1.806,0,0,1,.336-1.408,1.863,1.863,0,0,1,1.264-.768,1.916,1.916,0,0,1,1.408.368,1.863,1.863,0,0,1,.768,1.264,2.692,2.692,0,0,0,1.312,2.048,7.414,7.414,0,0,0,3.648.672A28.006,28.006,0,0,0-245.28-5.7a1.734,1.734,0,0,1,1.44.256,1.875,1.875,0,0,1,.832,1.216A1.785,1.785,0,0,1-243.3-2.8a2.02,2.02,0,0,1-1.216.848,24.375,24.375,0,0,1-3.44.576Q-249.664-1.216-251.168-1.216Zm-5.856-15.84a1.82,1.82,0,0,1-1.424-.272,1.847,1.847,0,0,1-.816-1.232,1.866,1.866,0,0,1,.272-1.44,1.725,1.725,0,0,1,1.232-.8,28.286,28.286,0,0,1,4-.464q2.208-.112,4.384-.032a28.992,28.992,0,0,1,3.84.368,1.791,1.791,0,0,1,1.248.784A1.842,1.842,0,0,1-244-18.688a1.738,1.738,0,0,1-.784,1.232,1.928,1.928,0,0,1-1.424.3,30.488,30.488,0,0,0-5.376-.432A29.577,29.577,0,0,0-257.024-17.056Zm38.144,11.2A1.59,1.59,0,0,1-220-6.3a1.7,1.7,0,0,1-.544-1.12q-.1-1.216-.176-2.784t-.176-3.216q-.1-1.648-.16-3.152t-.1-2.656q-.032-1.152-.032-1.7V-24.1a2.106,2.106,0,0,1,.656-1.568,2.265,2.265,0,0,1,1.648-.64,2.305,2.305,0,0,1,1.68.64,2.106,2.106,0,0,1,.656,1.568v3.168q0,.544-.048,1.7t-.112,2.656q-.064,1.5-.144,3.152t-.176,3.216q-.1,1.568-.192,2.784a1.577,1.577,0,0,1-.512,1.12A1.629,1.629,0,0,1-218.88-5.856Zm0,7.808a2.619,2.619,0,0,1-1.92-.8,2.619,2.619,0,0,1-.8-1.92,2.619,2.619,0,0,1,.8-1.92,2.619,2.619,0,0,1,1.92-.8,2.619,2.619,0,0,1,1.92.8,2.619,2.619,0,0,1,.8,1.92,2.619,2.619,0,0,1-.8,1.92A2.619,2.619,0,0,1-218.88,1.952Zm39.52-.608a1.969,1.969,0,0,1-1.36-.592,1.746,1.746,0,0,1-.528-1.36A1.863,1.863,0,0,1-180.672-2a1.8,1.8,0,0,1,1.376-.528,7.318,7.318,0,0,0,3.984-.832,2.9,2.9,0,0,0,1.36-2.624,2.856,2.856,0,0,0-1.488-2.592,8.277,8.277,0,0,0-4.24-.9q-1.088,0-2.08.1t-1.92.256v4.032a6.751,6.751,0,0,1-1.5,4.848,5.785,5.785,0,0,1-4.352,1.552,6.1,6.1,0,0,1-3.84-1.184,4.468,4.468,0,0,1-1.536-3.776,6.758,6.758,0,0,1,2-4.768,13.278,13.278,0,0,1,5.456-3.3V-16.48q-1.376.128-2.672.192t-2.416.1a1.934,1.934,0,0,1-1.376-.544,1.775,1.775,0,0,1-.576-1.344,1.8,1.8,0,0,1,.56-1.344,1.88,1.88,0,0,1,1.36-.544q1.12-.032,2.432-.1t2.688-.16V-24.16a1.919,1.919,0,0,1,.544-1.392,1.8,1.8,0,0,1,1.344-.56,1.8,1.8,0,0,1,1.344.56,1.919,1.919,0,0,1,.544,1.392v3.616q.736-.064,1.376-.16t1.248-.16a1.979,1.979,0,0,1,1.44.288,1.7,1.7,0,0,1,.768,1.216,1.645,1.645,0,0,1-.352,1.376,2.019,2.019,0,0,1-1.28.7q-.672.128-1.488.224t-1.712.224v4.224a27.4,27.4,0,0,1,4.064-.288,14.05,14.05,0,0,1,5.088.832,7.342,7.342,0,0,1,3.312,2.384,5.971,5.971,0,0,1,1.168,3.7,6.619,6.619,0,0,1-2.464,5.5A10.259,10.259,0,0,1-179.36,1.344Zm6.976-15.552q-.512-.384-1.248-.848t-1.472-.9q-.736-.432-1.28-.688a2.053,2.053,0,0,1-1.008-1.088,1.739,1.739,0,0,1,.016-1.44,1.825,1.825,0,0,1,1.136-.992,1.92,1.92,0,0,1,1.456.128q.672.32,1.536.832t1.712,1.04q.848.528,1.392.944A1.68,1.68,0,0,1-169.408-16a1.955,1.955,0,0,1-.352,1.408,1.871,1.871,0,0,1-1.232.72A1.868,1.868,0,0,1-172.384-14.208ZM-189.536-2.336a2.088,2.088,0,0,0,1.52-.544,3.145,3.145,0,0,0,.56-2.208v-2.88a7.712,7.712,0,0,0-2.672,1.9,3.494,3.494,0,0,0-.944,2.288Q-191.072-2.336-189.536-2.336Zm43.584,5.28a2,2,0,0,1-1.424-.56,1.913,1.913,0,0,1-.592-1.456v-6.5h-1.92a23.547,23.547,0,0,1-4.256-.32,5.779,5.779,0,0,1-2.688-1.152,4.527,4.527,0,0,1-1.408-2.352,15.233,15.233,0,0,1-.416-3.92v-1.664a15.043,15.043,0,0,1,.416-3.9,4.614,4.614,0,0,1,1.408-2.352,5.681,5.681,0,0,1,2.688-1.168,23.547,23.547,0,0,1,4.256-.32h1.92v-2.5a1.913,1.913,0,0,1,.592-1.456,2,2,0,0,1,1.424-.56,2,2,0,0,1,1.424.56,1.913,1.913,0,0,1,.592,1.456v2.5h1.952a23.547,23.547,0,0,1,4.256.32,5.572,5.572,0,0,1,2.672,1.168,4.667,4.667,0,0,1,1.392,2.352,15.043,15.043,0,0,1,.416,3.9v1.664a15.233,15.233,0,0,1-.416,3.92,4.578,4.578,0,0,1-1.392,2.352,5.666,5.666,0,0,1-2.672,1.152,23.547,23.547,0,0,1-4.256.32h-1.952v6.5a1.913,1.913,0,0,1-.592,1.456A2,2,0,0,1-145.952,2.944Zm2.016-11.968h1.952a15.691,15.691,0,0,0,2.976-.208,1.828,1.828,0,0,0,1.36-.944,5.685,5.685,0,0,0,.4-2.3h-6.688Zm-5.952,0h1.92V-12.48h-6.656a5.926,5.926,0,0,0,.384,2.3,1.79,1.79,0,0,0,1.36.944A15.962,15.962,0,0,0-149.888-9.024Zm5.952-6.816h6.688a5.56,5.56,0,0,0-.4-2.288,1.839,1.839,0,0,0-1.36-.928,15.691,15.691,0,0,0-2.976-.208h-1.952Zm-10.688,0h6.656v-3.424h-1.92a15.963,15.963,0,0,0-2.992.208,1.8,1.8,0,0,0-1.36.928A5.8,5.8,0,0,0-154.624-15.84Zm46.208,17.216a8.892,8.892,0,0,1-6.032-1.9q-2.192-1.9-2.192-6.128V-23.712a1.852,1.852,0,0,1,.56-1.36,1.852,1.852,0,0,1,1.36-.56,1.852,1.852,0,0,1,1.36.56,1.852,1.852,0,0,1,.56,1.36V-6.656a4.2,4.2,0,0,0,1.072,3.3,4.971,4.971,0,0,0,3.312.928,7.076,7.076,0,0,0,3.728-1.056,7.511,7.511,0,0,0,2.832-3.392,1.842,1.842,0,0,1,1.12-.992,1.857,1.857,0,0,1,1.472.1,1.682,1.682,0,0,1,.976,1.088,2.092,2.092,0,0,1-.08,1.5A10.693,10.693,0,0,1-102.48-.32,10.953,10.953,0,0,1-108.416,1.376Zm46.848-5.344a24.028,24.028,0,0,1-4.144-4.784,23.573,23.573,0,0,1-2.928-6.256,32.7,32.7,0,0,1-3.008,6.1A22.626,22.626,0,0,1-75.744-4a1.957,1.957,0,0,1-1.472.5,1.808,1.808,0,0,1-1.376-.688,1.572,1.572,0,0,1-.336-1.264,1.935,1.935,0,0,1,.656-1.168,20.029,20.029,0,0,0,3.6-4.192,32.048,32.048,0,0,0,2.72-5.152,39.582,39.582,0,0,0,1.808-5.312,2.461,2.461,0,0,0-1.536-.384h-3.168a1.735,1.735,0,0,1-1.328-.528,1.822,1.822,0,0,1-.5-1.3,1.782,1.782,0,0,1,.5-1.264,1.735,1.735,0,0,1,1.328-.528H-71.3a5.266,5.266,0,0,1,3.408.88,4.591,4.591,0,0,1,1.264,3.152A20.539,20.539,0,0,0-65.3-15.76a22.587,22.587,0,0,0,2.656,4.9,23.37,23.37,0,0,0,3.632,4.016A1.866,1.866,0,0,1-58.336-5.6a1.594,1.594,0,0,1-.384,1.312,2.247,2.247,0,0,1-1.376.736A1.761,1.761,0,0,1-61.568-3.968Zm-7.9,5.92a31.926,31.926,0,0,1-7.392-.688,9.279,9.279,0,0,1-4.448-2.352q-.416.32-1.072.8T-83.648.64q-.608.448-.928.672a1.983,1.983,0,0,1-1.488.32A1.683,1.683,0,0,1-87.328.8a1.852,1.852,0,0,1-.24-1.44,1.691,1.691,0,0,1,.88-1.152q.512-.288,1.488-.832t1.712-.96V-10.4a1.688,1.688,0,0,0-.256-1.088,1.365,1.365,0,0,0-1.024-.288h-1.344a1.571,1.571,0,0,1-1.248-.512,1.786,1.786,0,0,1-.448-1.216,1.727,1.727,0,0,1,.448-1.2,1.6,1.6,0,0,1,1.248-.5h2.784q3.424,0,3.424,3.424V-4.32a6.882,6.882,0,0,0,2.016,1.584,9.975,9.975,0,0,0,3.184.912,38.168,38.168,0,0,0,5.232.288q2.72,0,5.072-.1t4.112-.224a2.174,2.174,0,0,1,1.584.448A1.654,1.654,0,0,1-58.08-.064a1.971,1.971,0,0,1-.512,1.408,2.151,2.151,0,0,1-1.632.544q-1.408,0-3.136.016l-3.36.032Q-68.352,1.952-69.472,1.952Zm-12.544-21.7a14.566,14.566,0,0,0-1.136-1.072q-.688-.592-1.376-1.168t-1.232-.96a1.455,1.455,0,0,1-.592-1.168,1.861,1.861,0,0,1,.432-1.264,1.823,1.823,0,0,1,1.168-.656,1.813,1.813,0,0,1,1.36.336q.608.448,1.344,1.024t1.424,1.152q.688.576,1.136.992a1.622,1.622,0,0,1,.608,1.3,1.86,1.86,0,0,1-.576,1.36,1.786,1.786,0,0,1-1.264.624A1.613,1.613,0,0,1-82.016-19.744ZM-36.736.768a1.885,1.885,0,0,1-.608-1.344,1.821,1.821,0,0,1,.512-1.376A16.735,16.735,0,0,0-34.4-5.1,27.8,27.8,0,0,0-32.448-8.96a39.042,39.042,0,0,0-5.024-.96A17.071,17.071,0,0,1-40.16-5.76a8.335,8.335,0,0,1-3.2,2.3,6.126,6.126,0,0,1-3.136.432A4.261,4.261,0,0,1-49.04-4.256a3.93,3.93,0,0,1-1.008-2.88,5.285,5.285,0,0,1,1.056-3.2,7.231,7.231,0,0,1,3.28-2.32,15.818,15.818,0,0,1,5.744-.88,40.716,40.716,0,0,0,1.248-4.352q.448-1.856-.16-2.48a2.824,2.824,0,0,0-2.368-.4q-.608.1-1.568.224t-1.5.192a1.99,1.99,0,0,1-1.408-.48,1.842,1.842,0,0,1-.672-1.312,1.935,1.935,0,0,1,.48-1.392,1.865,1.865,0,0,1,1.312-.656l1.664-.16q.992-.1,1.632-.128,4.032-.256,5.552,1.408t.784,5.5q-.224,1.152-.512,2.224T-36.1-13.28q1.152.128,2.368.368t2.4.528q.256-1.088.416-2.128a16.859,16.859,0,0,0,.192-2,2.035,2.035,0,0,1,.56-1.36,1.856,1.856,0,0,1,1.328-.592,1.852,1.852,0,0,1,1.36.56,1.746,1.746,0,0,1,.528,1.36A19.143,19.143,0,0,1-27.184-14a25.9,25.9,0,0,1-.56,2.608q.992.32,1.936.656t1.84.688a1.907,1.907,0,0,1,1.04,1.056,1.814,1.814,0,0,1-.016,1.472A1.855,1.855,0,0,1-23.968-6.5a1.773,1.773,0,0,1-1.472,0q-.832-.384-1.7-.72t-1.728-.656a32.218,32.218,0,0,1-2.32,4.8A18.88,18.88,0,0,1-34.016.672a1.924,1.924,0,0,1-1.328.576A1.968,1.968,0,0,1-36.736.768ZM-44.7-6.816A5.222,5.222,0,0,0-43.136-7.9a9.355,9.355,0,0,0,1.568-2.112,7.861,7.861,0,0,0-3.6.96,2.136,2.136,0,0,0-1.1,1.632.743.743,0,0,0,.4.72A1.424,1.424,0,0,0-44.7-6.816ZM3.424-.1A1.955,1.955,0,0,1,1.92-.32a1.853,1.853,0,0,1-.9-1.184A1.846,1.846,0,0,1,1.248-2.96a1.865,1.865,0,0,1,1.184-.88A9.6,9.6,0,0,0,7.664-6.848a8.134,8.134,0,0,0,1.68-5.28,7.272,7.272,0,0,0-.9-3.616A6.971,6.971,0,0,0,5.9-18.336a9.317,9.317,0,0,0-3.952-1.216,42.3,42.3,0,0,1-1.936,9.3,18.522,18.522,0,0,1-3.2,6.048A5.177,5.177,0,0,1-7.04-2.08a5.271,5.271,0,0,1-3.1-.992A6.652,6.652,0,0,1-12.368-5.92a11,11,0,0,1-.816-4.448,12.35,12.35,0,0,1,1.008-4.976,12.358,12.358,0,0,1,2.864-4.08,13.456,13.456,0,0,1,4.368-2.752,14.9,14.9,0,0,1,5.52-.992,14.5,14.5,0,0,1,6.48,1.392A11.055,11.055,0,0,1,11.52-17.9a10.266,10.266,0,0,1,1.632,5.776A11.948,11.948,0,0,1,10.672-4.4,13.094,13.094,0,0,1,3.424-.1ZM-7.008-6.016q.576,0,1.328-.976A13.041,13.041,0,0,0-4.16-9.76,30.319,30.319,0,0,0-2.752-14a37.248,37.248,0,0,0,.96-5.424,9.421,9.421,0,0,0-4.192,1.84,8.881,8.881,0,0,0-2.56,3.232,9.614,9.614,0,0,0-.9,3.92,6.377,6.377,0,0,0,.688,3.3A2.017,2.017,0,0,0-7.008-6.016ZM37.824,2.5a2.467,2.467,0,0,1-1.68-.544,1.984,1.984,0,0,1-.656-1.5,1.853,1.853,0,0,1,.624-1.472,2.37,2.37,0,0,1,1.616-.544,9.714,9.714,0,0,0,2.3-.208,1.921,1.921,0,0,0,1.2-.848,6.45,6.45,0,0,0,.688-1.984q.192-.864.384-2t.32-2.16q.16-1.376-.352-1.84a3.125,3.125,0,0,0-2.016-.464H36.032A21.331,21.331,0,0,1,32.144-3.28a19.319,19.319,0,0,1-7.216,5.424A2.537,2.537,0,0,1,23.3,2.3a1.727,1.727,0,0,1-1.216-.992,1.807,1.807,0,0,1-.032-1.52,2.318,2.318,0,0,1,1.216-1.136A16.3,16.3,0,0,0,30.48-7.728a22.116,22.116,0,0,0,2.7-10.352h-9.76a1.725,1.725,0,0,1-1.264-.528,1.725,1.725,0,0,1-.528-1.264,1.725,1.725,0,0,1,.528-1.264,1.725,1.725,0,0,1,1.264-.528h10.56v-3.392a1.952,1.952,0,0,1,.624-1.5,2.119,2.119,0,0,1,1.488-.576,2.119,2.119,0,0,1,1.488.576,1.952,1.952,0,0,1,.624,1.5v3.392h11.04a1.725,1.725,0,0,1,1.264.528,1.725,1.725,0,0,1,.528,1.264,1.725,1.725,0,0,1-.528,1.264,1.725,1.725,0,0,1-1.264.528h-12.1q-.032.864-.128,1.7T36.8-14.72h3.936q3.584,0,5.008,1.232t1.072,4.464q-.128,1.28-.352,2.64t-.416,2.448A11.147,11.147,0,0,1,44.672-.048,4.819,4.819,0,0,1,42.144,1.92,13.292,13.292,0,0,1,37.824,2.5Zm23.392-.96a1.62,1.62,0,0,1-1.264-.512,1.75,1.75,0,0,1-.464-1.216,1.734,1.734,0,0,1,.464-1.232,1.647,1.647,0,0,1,1.264-.5h9.792V-5.408H64.672a1.646,1.646,0,0,1-1.28-.528,1.774,1.774,0,0,1-.48-1.232,1.758,1.758,0,0,1,.48-1.248,1.671,1.671,0,0,1,1.28-.512h6.336V-11.9H64.832a1.7,1.7,0,0,1-1.3-.528,1.782,1.782,0,0,1-.5-1.264,1.912,1.912,0,0,1,.16-.736q-.64.512-1.28.944t-1.248.816a2.607,2.607,0,0,1-1.632.448,1.674,1.674,0,0,1-1.312-.768,1.652,1.652,0,0,1-.24-1.472,2.181,2.181,0,0,1,.944-1.184,42.038,42.038,0,0,0,3.952-2.688q2.064-1.568,3.968-3.248T69.6-24.7a4.8,4.8,0,0,1,3.312-1.824,5.332,5.332,0,0,1,3.6,1.856Q77.888-23.36,79.7-21.84t3.84,2.976a44.314,44.314,0,0,0,4.016,2.576,1.923,1.923,0,0,1,.944,1.2,1.776,1.776,0,0,1-.208,1.52,1.878,1.878,0,0,1-1.392.912,2.574,2.574,0,0,1-1.712-.4q-1.984-1.28-4.048-2.832T77.2-19.1a45.11,45.11,0,0,1-3.28-3.2,1.048,1.048,0,0,0-1.76.064q-1.408,1.5-3.456,3.328t-4.16,3.488a.971.971,0,0,1,.288-.032H81.024a1.671,1.671,0,0,1,1.28.512,1.758,1.758,0,0,1,.48,1.248,1.814,1.814,0,0,1-.48,1.264,1.646,1.646,0,0,1-1.28.528H75.008v2.976h6.208a1.621,1.621,0,0,1,1.264.512,1.792,1.792,0,0,1,.464,1.248,1.808,1.808,0,0,1-.464,1.232,1.6,1.6,0,0,1-1.264.528H75.008V-1.92h9.728a1.647,1.647,0,0,1,1.264.5,1.734,1.734,0,0,1,.464,1.232A1.75,1.75,0,0,1,86,1.024a1.62,1.62,0,0,1-1.264.512ZM99.2,2.464a2.433,2.433,0,0,1-1.536.128,1.628,1.628,0,0,1-1.056-.9,1.737,1.737,0,0,1-.08-1.36,1.39,1.39,0,0,1,.88-.88q.864-.288,2.016-.736t2.288-.96q1.136-.512,2-.992a8.017,8.017,0,0,1-2.88-.528,2.872,2.872,0,0,1-1.52-1.5,6.887,6.887,0,0,1-.464-2.768v-5.024a6.676,6.676,0,0,1,.512-2.9,2.916,2.916,0,0,1,1.744-1.472,10.293,10.293,0,0,1,3.312-.432H114.56a10.141,10.141,0,0,1,3.3.432,2.915,2.915,0,0,1,1.728,1.472,6.676,6.676,0,0,1,.512,2.9v5.024a6.985,6.985,0,0,1-.464,2.8,2.807,2.807,0,0,1-1.52,1.488,8.4,8.4,0,0,1-2.912.512q.864.48,1.968.976t2.224.912q1.12.416,1.984.7a1.485,1.485,0,0,1,.944.912,1.721,1.721,0,0,1-.016,1.36,1.635,1.635,0,0,1-1.056.928,2.361,2.361,0,0,1-1.568-.1q-.992-.384-2.288-.96T114.832.3a22.231,22.231,0,0,1-2.16-1.2,1.475,1.475,0,0,1-.688-1.056,1.567,1.567,0,0,1,.336-1.184l.064-.064h-5.856l.064.064a1.567,1.567,0,0,1,.336,1.184A1.475,1.475,0,0,1,106.24-.9,18.619,18.619,0,0,1,104.1.3q-1.28.624-2.576,1.2T99.2,2.464Zm4.9-21.536a8.589,8.589,0,0,1-2.624-.32,2.164,2.164,0,0,1-1.344-1.12,5.1,5.1,0,0,1-.384-2.176,5.081,5.081,0,0,1,.384-2.192,2.176,2.176,0,0,1,1.344-1.1,8.589,8.589,0,0,1,2.624-.32h10.688a8.562,8.562,0,0,1,2.64.32,2.173,2.173,0,0,1,1.328,1.1,5.081,5.081,0,0,1,.384,2.192,5.1,5.1,0,0,1-.384,2.176,2.162,2.162,0,0,1-1.328,1.12,8.563,8.563,0,0,1-2.64.32Zm1.088-2.656H113.7a3.171,3.171,0,0,0,1.3-.16q.272-.16.272-.8t-.272-.8a3.171,3.171,0,0,0-1.3-.16h-8.512a3.182,3.182,0,0,0-1.28.16q-.288.16-.288.8t.288.8A3.182,3.182,0,0,0,105.184-21.728Zm-2.336,11.9H116.1v-1.5H102.848Zm2.336,3.936h8.576a4.135,4.135,0,0,0,1.824-.272q.48-.272.512-1.3H102.88q.032,1.024.5,1.3A4.02,4.02,0,0,0,105.184-5.888Zm-2.3-7.808h13.184q-.032-.992-.512-1.248a4.257,4.257,0,0,0-1.792-.256h-8.576a4.137,4.137,0,0,0-1.776.256Q102.944-14.688,102.88-13.7ZM136.992.512a1.9,1.9,0,0,1-1.44-.32,1.908,1.908,0,0,1-.8-1.216q-.288-1.632-.448-3.792t-.16-4.56q0-2.4.128-4.832t.4-4.656q.272-2.224.656-3.984a1.818,1.818,0,0,1,.832-1.2,1.866,1.866,0,0,1,1.44-.272,1.956,1.956,0,0,1,1.2.848,1.879,1.879,0,0,1,.272,1.456,44.076,44.076,0,0,0-.8,4.928q-.288,2.656-.368,5.392t.08,5.312a40.3,40.3,0,0,0,.544,4.688,1.708,1.708,0,0,1-.3,1.408A1.97,1.97,0,0,1,136.992.512Zm13.12-1.728q-4.16,0-6.192-1.5a6.333,6.333,0,0,1-2.448-4.416,1.806,1.806,0,0,1,.336-1.408,1.864,1.864,0,0,1,1.264-.768,1.916,1.916,0,0,1,1.408.368,1.864,1.864,0,0,1,.768,1.264,2.692,2.692,0,0,0,1.312,2.048,7.414,7.414,0,0,0,3.648.672A28.006,28.006,0,0,0,156-5.7a1.734,1.734,0,0,1,1.44.256,1.875,1.875,0,0,1,.832,1.216,1.785,1.785,0,0,1-.288,1.424,2.02,2.02,0,0,1-1.216.848,24.375,24.375,0,0,1-3.44.576Q151.616-1.216,150.112-1.216Zm-5.856-15.84a1.819,1.819,0,0,1-1.424-.272,1.847,1.847,0,0,1-.816-1.232,1.866,1.866,0,0,1,.272-1.44,1.725,1.725,0,0,1,1.232-.8,28.286,28.286,0,0,1,4-.464q2.208-.112,4.384-.032a28.992,28.992,0,0,1,3.84.368,1.791,1.791,0,0,1,1.248.784,1.842,1.842,0,0,1,.288,1.456,1.738,1.738,0,0,1-.784,1.232,1.928,1.928,0,0,1-1.424.3,30.488,30.488,0,0,0-5.376-.432A29.577,29.577,0,0,0,144.256-17.056Zm35.04,18.4a1.984,1.984,0,0,1-1.5.048,1.9,1.9,0,0,1-1.12-1.008,2.023,2.023,0,0,1-.048-1.52,1.786,1.786,0,0,1,1.008-1.1,11.875,11.875,0,0,0,5.344-4.576A14.9,14.9,0,0,0,184.8-14.24h-4.864q.032,1.28.032,2.432t-.064,2.08a1.817,1.817,0,0,1-.64,1.36,2,2,0,0,1-1.44.5,1.821,1.821,0,0,1-1.312-.688,2.046,2.046,0,0,1-.48-1.424q.064-.864.064-1.968t-.032-2.288H169.5a1.88,1.88,0,0,1-1.36-.544,1.8,1.8,0,0,1-.56-1.344,1.852,1.852,0,0,1,.56-1.36,1.852,1.852,0,0,1,1.36-.56h6.432q-.064-1.12-.144-2.128t-.208-1.776a1.909,1.909,0,0,1,.336-1.456,1.846,1.846,0,0,1,1.264-.784,1.83,1.83,0,0,1,1.488.32,1.789,1.789,0,0,1,.752,1.28q.128.9.224,2.064t.16,2.48h4.96q-.032-1.376-.08-2.672t-.144-2.256a1.94,1.94,0,0,1,.464-1.456,1.875,1.875,0,0,1,1.328-.688,1.94,1.94,0,0,1,1.456.464,1.8,1.8,0,0,1,.656,1.36q.1.992.144,2.384t.08,2.864h6.08a1.852,1.852,0,0,1,1.36.56,1.852,1.852,0,0,1,.56,1.36,1.8,1.8,0,0,1-.56,1.344,1.88,1.88,0,0,1-1.36.544h-6.08a18.92,18.92,0,0,1-2.464,9.616A15.034,15.034,0,0,1,179.3,1.344Zm29.632-11.392a1.905,1.905,0,0,1-1.392-.592,1.905,1.905,0,0,1-.592-1.392,1.889,1.889,0,0,1,.592-1.408,1.931,1.931,0,0,1,1.392-.576h19.936a1.915,1.915,0,0,1,1.408.576,1.915,1.915,0,0,1,.576,1.408,1.931,1.931,0,0,1-.576,1.392,1.889,1.889,0,0,1-1.408.592ZM264.064-.992a47.559,47.559,0,0,1-9.648.816,9.119,9.119,0,0,1-5.52-1.712,5.565,5.565,0,0,1-1.872-2.848,15.643,15.643,0,0,1-.5-4.256V-21.984a1.915,1.915,0,0,1,.576-1.408,1.878,1.878,0,0,1,1.376-.576,1.915,1.915,0,0,1,1.408.576,1.915,1.915,0,0,1,.576,1.408v7.072q2.624-.64,5.424-1.488t5.04-1.712a1.878,1.878,0,0,1,1.536.016,1.9,1.9,0,0,1,1.024,1.136,1.976,1.976,0,0,1-.032,1.52,1.729,1.729,0,0,1-1.088,1.008q-2.72.992-5.888,1.856t-6.016,1.5v2.08a8.964,8.964,0,0,0,.288,2.7,2.787,2.787,0,0,0,.9,1.3,4.982,4.982,0,0,0,2.1.784,16.129,16.129,0,0,0,3.712.08q2.352-.16,6-.768a1.756,1.756,0,0,1,1.472.336,2,2,0,0,1,.768,1.328,1.7,1.7,0,0,1-.336,1.44A2.112,2.112,0,0,1,264.064-.992Zm3.52-15.936a1.222,1.222,0,0,1-.976.4,1.431,1.431,0,0,1-1.008-.432q-.384-.448-.992-1.088t-1.088-1.12a1.121,1.121,0,0,1-.352-.8,1.216,1.216,0,0,1,.352-.928,1.3,1.3,0,0,1,.864-.384,1.34,1.34,0,0,1,.928.288,8.873,8.873,0,0,1,1.2.944,14.188,14.188,0,0,1,1.136,1.136,1.354,1.354,0,0,1,.368.992A1.413,1.413,0,0,1,267.584-16.928Zm.832-2.912q-.416-.448-1.072-1.024t-1.2-1.024a1.239,1.239,0,0,1-.384-.8,1.162,1.162,0,0,1,.288-.928,1.232,1.232,0,0,1,.816-.448,1.476,1.476,0,0,1,.944.192,11.125,11.125,0,0,1,1.264.9q.72.576,1.232,1.056a1.4,1.4,0,0,1,.432.976,1.442,1.442,0,0,1-.368,1.008,1.322,1.322,0,0,1-.944.464A1.222,1.222,0,0,1,268.416-19.84ZM281.76-.64a1.848,1.848,0,0,1-1.488.08,1.9,1.9,0,0,1-1.136-1.008,1.893,1.893,0,0,1-.08-1.5,1.917,1.917,0,0,1,.976-1.12,36.164,36.164,0,0,0,8.144-5.328,29.573,29.573,0,0,0,5.808-6.768q1.408-2.3-1.536-2.3h-8.736a1.853,1.853,0,0,1-1.376-.592,1.931,1.931,0,0,1-.576-1.392,1.915,1.915,0,0,1,.576-1.408,1.878,1.878,0,0,1,1.376-.576h8.864a7.855,7.855,0,0,1,4.416,1.04,3.627,3.627,0,0,1,1.68,2.832,7.313,7.313,0,0,1-1.2,4.128,19.653,19.653,0,0,1-1.7,2.56q1.472,1.216,3.024,2.672t2.912,2.816q1.36,1.36,2.288,2.32a1.974,1.974,0,0,1,.544,1.408,1.865,1.865,0,0,1-.608,1.408,1.861,1.861,0,0,1-1.408.56,1.972,1.972,0,0,1-1.408-.592l-2.176-2.256q-1.312-1.36-2.784-2.816t-2.848-2.64a43.565,43.565,0,0,1-5.424,4.752A37.36,37.36,0,0,1,281.76-.64Zm46.56-5.216A1.59,1.59,0,0,1,327.2-6.3a1.7,1.7,0,0,1-.544-1.12q-.1-1.216-.176-2.784t-.176-3.216q-.1-1.648-.16-3.152t-.1-2.656q-.032-1.152-.032-1.7V-24.1a2.106,2.106,0,0,1,.656-1.568,2.265,2.265,0,0,1,1.648-.64,2.306,2.306,0,0,1,1.68.64,2.106,2.106,0,0,1,.656,1.568v3.168q0,.544-.048,1.7t-.112,2.656q-.064,1.5-.144,3.152t-.176,3.216q-.1,1.568-.192,2.784a1.577,1.577,0,0,1-.512,1.12A1.629,1.629,0,0,1,328.32-5.856Zm0,7.808a2.619,2.619,0,0,1-1.92-.8,2.619,2.619,0,0,1-.8-1.92,2.619,2.619,0,0,1,.8-1.92,2.619,2.619,0,0,1,1.92-.8,2.619,2.619,0,0,1,1.92.8,2.619,2.619,0,0,1,.8,1.92,2.619,2.619,0,0,1-.8,1.92A2.619,2.619,0,0,1,328.32,1.952Z" transform="translate(960 9556.615)" fill="#fff" opacity="0.999"/><path d="M18.728,141.184c1.742-5.227,11.777-47.64,11.777-47.64s2.979-4.015,5.023-5.079,3.053-6.383,3.328-9.5.046-16.69,5.227-18.386c0,0-4.277-5.574-1.219-9.033a15.784,15.784,0,0,1-4.512-14.351c1.788-8.8,7.795-17.423,12.1-18.34,0,0,4.672.315,5.807-1.287,0,0,9.836-3.658,17.109,0A28.22,28.22,0,0,1,85.715,28.991c1.653,2.92,3.947,10.909,1.01,14.6A6.846,6.846,0,0,0,85.5,46.551c-.055,1.341,1.665,20.58-9.695,25.212l.516,5s.825-.642,2.247.6a64.647,64.647,0,0,0,13.113,8.4c5.71,2.559,7.061,6.824,7.061,6.824l7.153,16.091,5.915-13.89,2.1-.407s-.591-7.479,1.931-10.918S122.4,75.8,122.169,71.49c0,0,3.164-.6,2.889,2.43a19.4,19.4,0,0,1-1.772,6.007s11.447-5.456,13.556-7.657c0,0,3.21-.413,3.852.6s2.568-.275,3.072,1.238,1.146,1.979,1.467,3.03-1.559,3.527-1.559,3.527.046.917.183,1.834S131.43,98.037,125.195,99.826l1.559.734L118,130.684s-1.535,10.206-12.482,9.528a9.7,9.7,0,0,1-7.495-4.264l-5.307,11.875,2.31,20.247-11.6.721s1.009,1.922-3.072,2.609c0,0,1.788,2.843-1.926,4.677,0,0,1.33,2.889-2.338,4.035,0,0-.73,3.111-5.135,2.705S60.5,177.91,60.5,177.91L52.7,170.466l-1.659,3.777a10.076,10.076,0,0,1-4.073-2.017c-.175-.156-.6-.5-1.23-1l-12.406-1.535,1.483-6.88c-7.252-5.542-15.037-11.451-15.037-11.451s-2.8-4.952-1.055-10.179m78.023-7.125h0m1.261,1.878L98,135.917l.014.021m-.049-.073-.115-.171.115.171m-.189-.281-.137-.2.137.2m-.17-.253-.214-.319.214.319m-.279-.416-.032-.047.032.047m-.277-.412-.084-.125.084.125m-.116-.173-.024-.035.024.035m-.1-.147-.035-.052.035.052m-.048-.072-.026-.039.026.039M75.792,71.767l0,0,0,0m-2.106.859.011,0-.011,0m.048-.02.079-.032-.079.032m.154-.063.213-.087-.213.087m.264-.108.314-.128-.314.128m.428-.175.106-.043-.106.043m.227-.093.162-.066-.162.066m.27-.11.05-.02-.05.02m.1-.043.159-.065-.159.065m.243-.1.351-.143-.351.143m-2.292.935-.193.079.193-.079m-.368.15-.338.138L72.764,73m-.449.183-.111.045.111-.045m-.514.21-.064.026.064-.026m-.187.076-.05.02.05-.02m-.177.072-.063.026.063-.026M71.3,73.6l-.007,0,.007,0m-.093.038-.079.032.079-.032m-.193.078h0m-.077.032-.069.028.069-.028m-.082.034-.026.011.026-.011m-.032.013-.037.015.037-.015m-.054.022-.013.005.013-.005" transform="translate(462.279 9444.122)" fill="#fff"/><path d="M348.69,936.209s.016-.588,1.676.3,6.434,5.793,11.528,7.559,6.02,3.082,7.473,6.53,7.68,17.24,7.628,17.083,5.553-13.008,5.553-13.008.273-1.258,2.887.651a22.833,22.833,0,0,0,8.374,3.789c2.757.607,3.269-.1,3.425,1.1s-7.68,27.48-7.68,27.48-2.387,8.254-5.708,9.978-8.978,1.829-10.794.627-1.707-2.216-1.707-2.216l5.8-11.548L357,974.755s-2.5-13.129-3.236-16.707-4.359-17.419-4.359-17.419Z" transform="translate(188.328 8585.237)" fill="#dce4eb"/><path d="M823.132,2046.608l1.594,17.241-9.053.565-.1-1.919Z" transform="translate(-270.213 7548.511)" fill="#dce4eb"/><path d="M1244.228,970.848c3.6-16.019,7.685-31.949,11.387-47.953,0,0,1.01-7.419,5.157-8.653s10.421-5.778,12.1-8.318c2.413-3.492,2-6.446,5.151-5.9,5.82,6.544,12.9,24.682,14.262,32.161l-5.864-2.3-16.611,34.463s.637,1.875,0,2.738.569,1.76.985,1.824c1.428,1,18.317,12.173,18.116,13.2,0,.577-2.038.064-3.693,2.628s-5.711,5.128-6.834,10.9-3.8,2.968-3.8,2.968l-3.329-2.52-11.424-1.427,1.007-6.457-2.08-1.574q-4.391-3.311-8.758-6.662c-3.113-2.026-6.407-5.033-5.777-9.123" transform="translate(-766.279 8618.896)" fill="#dce4eb"/><path d="M1459.171,684.322l3.055,2.82-.359,9.86s-.953-1.207-2.5.464c-1.774,1.918-2.235,6.113-4.67,8.244-1.885,1.651-4.724,3.844-7.143,4.56.1-2.008.725-4.98.908-7.014.195-2.171.289-4.349.454-6.522a41.829,41.829,0,0,1,1.188-7.778c.594-2.2,2.614-5.845,4.863-6.908Z" transform="translate(-949.744 8822.317)" fill="#f9e9aa"/><path d="M943.264,14.535c7.369-4.265,16.426-1.617,22.68,3.458a18.756,18.756,0,0,1,5.866,8c1.125,3.083,2.744,7.011,2.146,10.338-.562,3.123-1.31,3.8-1.31,3.8a24.692,24.692,0,0,1-5.147-3.364,26.116,26.116,0,0,1-3.275-2.931s-4.538.288-6.878-.817-11.471-9.53-12.025-10.379-1.731.481-1.872,1.97-3.346,17.461-8.375,20.182l-1.637,2.634c-.27.435-2.04,1.864-2.454,1.656-.184-.093-1.472-1.152-1.618-1.3-4.573-4.571-4.845-12.167-2.821-17.987a27.372,27.372,0,0,1,4.408-7.717c1.482-1.906,3.514-5.111,5.76-6.119a27.309,27.309,0,0,1,6.55-1.42" transform="translate(-426.873 9447.422)" fill="#f9e9aa"/><path d="M646.019,890.69a1.03,1.03,0,0,1-.32.057c-.5,0-.692-.48-.877-.944l-.043-.107c-.39-.96-.795-1.932-1.186-2.872-.293-.7-.6-1.431-.891-2.148-.46-1.12-.991-2.231-1.505-3.306a44.293,44.293,0,0,1-2.109-4.914A11.533,11.533,0,0,0,637.7,873.7a7.208,7.208,0,0,0-3.2-2.772c-1.438-.606-2.851-1.337-4.218-2.043-.561-.29-1.141-.59-1.716-.877a44.826,44.826,0,0,0,3.5,6.753c.376.615.49.972.406,1.276s-.359.542-.955.853c-.123.064-.252.125-.377.184a3.328,3.328,0,0,0-1.351.957c.237.112.466.226.688.336a15.355,15.355,0,0,0,1.464.666,2.094,2.094,0,0,1,1.476,2.429c-.064.816-.133,1.645-.2,2.447-.163,1.95-.332,3.967-.434,5.957-.1,2.039-.313,4.107-.515,6.107-.079.786-.161,1.6-.236,2.4-.053.569-.119,1.277-.872,1.277q-.044,0-.091,0c-.862-.06-.821-.739-.784-1.338,0-.048.006-.1.008-.142.028-.546.081-1.124.162-1.769.309-2.471.461-5,.608-7.438.139-2.311.283-4.7.56-7.04a1.23,1.23,0,0,0-.893-1.5c-.694-.265-1.38-.586-2.042-.9-.359-.169-.731-.343-1.1-.506-.454-.2-.923-.409-.949-1-.029-.651.459-.9.96-1.109a11.2,11.2,0,0,0,2.7-1.51c-.5-.932-1.014-1.866-1.514-2.77-1.123-2.03-2.284-4.129-3.263-6.269a1.865,1.865,0,0,0-.762-.745l-.1-.066q-.38-.254-.763-.5a21.869,21.869,0,0,1-3.841-2.958l-.008-.008a1.6,1.6,0,0,0-1.128-.64c-.024.093-.042.192-.061.3-.069.38-.141.772-.524.907a1.146,1.146,0,0,1-.212.108.849.849,0,0,1-.3.054,1.021,1.021,0,0,1-.967-.692,28.787,28.787,0,0,1-.947-5.766,1.021,1.021,0,0,1,.951-1.056c.026,0,.053,0,.079,0a.882.882,0,0,1,.278.046.683.683,0,0,1,.5.366,1.011,1.011,0,0,1,.2.543c.055.924.155,1.839.3,2.719.009.056.019.113.028.168l.009.052a.887.887,0,0,0,.744.379,3.4,3.4,0,0,1,1.989.942,57.727,57.727,0,0,0,14.374,8.86,9.157,9.157,0,0,1,4.237,4.071,39.176,39.176,0,0,1,2.032,4.452c.49,1.206,1,2.452,1.6,3.635.925,1.827,1.7,3.768,2.45,5.644.25.625.508,1.271.768,1.9a1.6,1.6,0,0,1,.141,1.191.865.865,0,0,1-.551.439" transform="translate(-78.847 8660.605)" fill="#3a3d3f"/><path d="M.34,828.89l.025-.1q.948-3.981,1.895-7.962c2.86-12.021,5.817-24.452,8.767-36.668a42.062,42.062,0,0,1,1.456-4.5c.16-.438.325-.89.483-1.336a6.413,6.413,0,0,1,.433-.965l0-.007a9.434,9.434,0,0,1,4.488-4.162c1.341-.664,2.644-1.444,3.9-2.2.549-.329,1.116-.669,1.68-.995A19.308,19.308,0,0,0,28.2,766.2a18.021,18.021,0,0,0,3.211-5.129,2.633,2.633,0,0,1,2.131-1.638,1.2,1.2,0,0,0,.753-.311V751.2a1.028,1.028,0,0,1,.95-1.056c.025,0,.051,0,.077,0a1.02,1.02,0,0,1,.979.957v2.4c.044,1.245.045,2.61,0,4.294v1.824a1.122,1.122,0,0,1-.072.4l-.016.436a1.554,1.554,0,0,0,.235,1.1c.519.7,1.028,1.432,1.52,2.137.38.544.772,1.106,1.167,1.653A55.444,55.444,0,0,1,45.9,779.15a1.485,1.485,0,0,0,.62.865.834.834,0,0,1,.275-.052q1.732-.026,3.462-.119c.608-.049,1.2-.088,1.777-.116l.147-.008q2.42-.183,4.827-.5,1.621-.213,3.233-.485c1.051-.178,1.862-.33,2.87-.538-.2-.751-.373-1.512-.542-2.25a36.343,36.343,0,0,0-1.144-4.207,37.385,37.385,0,0,1-1.343-4.462c-.131-.578-.165-1.2.575-1.385a1.028,1.028,0,0,1,.254-.034c.534,0,.749.516.864.9.221.745.45,1.5.672,2.232.528,1.738,1.073,3.536,1.542,5.322,1.582,6.03,2.652,12.268,3.687,18.3.213,1.241.433,2.523.654,3.784.177,1.009.292,2.046.4,3.049.041.371.084.755.129,1.131a2.068,2.068,0,0,1-.017.749L74.352,804h0l4.328,2.1c.006-.042.012-.085.02-.126.744-4.335,0-8.571-.918-12.5-.465-1.994-.773-4.049-1.072-6.037-.182-1.211-.37-2.463-.591-3.688a1.208,1.208,0,0,1,.119-.928.8.8,0,0,1,.555-.307,1.111,1.111,0,0,1,.163-.013c.573,0,.777.52.89.974.041.162.069.33.1.492l.009.054c.175,1.014.344,2.047.507,3.045.44,2.692.894,5.476,1.53,8.185a32.077,32.077,0,0,1,.771,7.643,18.3,18.3,0,0,1-.319,3.384,2.416,2.416,0,0,1-.179.592l6.1,2.955a.977.977,0,0,1,.453,1.3l-4.936,10.18a10.145,10.145,0,0,0,7.648,3.5,10.891,10.891,0,0,0,3.642-.64,9.214,9.214,0,0,0,4.852-4.661,47.946,47.946,0,0,0,3.746-9.866c1.661-5.755,3.325-11.613,4.934-17.279l.032-.113q.633-2.23,1.267-4.46c.018-.064.041-.128.063-.19a.942.942,0,0,0,0-.867c-5.454-.622-9.489-2.388-12.695-5.556-.1.2-.184.365-.258.511-.139.274-.239.471-.331.676-1.515,3.4-2.634,6.05-3.716,8.613-1.091,2.585-2.218,5.253-3.744,8.676l-.008.019a5.8,5.8,0,0,1-.6,1.125.835.835,0,0,1-.674.357.974.974,0,0,1-.431-.108.8.8,0,0,1-.465-.906,3.956,3.956,0,0,1,.287-.9c1.594-3.587,2.811-6.456,3.988-9.231l0-.008c1.229-2.9,2.5-5.895,4.185-9.668.379-.849.921-1.3,1.568-1.3a1.648,1.648,0,0,1,.633.134,4.481,4.481,0,0,0,0-1.29c-.457-3.747.569-7.384,3.137-11.117,2.043-2.969,4.1-6.185,4.909-9.965a1.238,1.238,0,0,1,1.313-1.1c.039,0,.079,0,.12,0a3.642,3.642,0,0,1,3.266,2.916,6.671,6.671,0,0,1-.4,3.073,8.332,8.332,0,0,1-.328.87,5.551,5.551,0,0,0-.436,1.357,1.51,1.51,0,0,0,.7-.247c.058-.032.122-.068.187-.1a55.22,55.22,0,0,0,6.417-4.018l.2-.141c.281-.194.563-.393.811-.569l.005,0a25.452,25.452,0,0,1,3.5-2.2,4.252,4.252,0,0,1,1.845-.432,3.159,3.159,0,0,1,2.415,1.005,1.029,1.029,0,0,0,.821.447,2,2,0,0,0,.382-.044,3.861,3.861,0,0,1,.738-.076c1.41,0,2.256.938,2.322,2.573a1.014,1.014,0,0,0,.414.851,2.778,2.778,0,0,1,1.068,1.88,2.554,2.554,0,0,1-.674,1.9l-.087.1c-.609.7-1.135,1.308-.676,2.308a1.306,1.306,0,0,1-.131,1.05c-.035.086-.069.167-.1.247a12.635,12.635,0,0,1-2.911,4.206l-.084.092a66.675,66.675,0,0,1-11.6,10.369c-.611.416-1.261.8-1.889,1.17-.33.195-.663.391-.994.595a.676.676,0,0,1,.3.218c.238.315.137.881-.147,1.881-.74,2.611-1.486,5.267-2.207,7.836l0,.011c-1.572,5.6-3.2,11.388-4.868,17.069a47.121,47.121,0,0,1-4.01,9.536,9.8,9.8,0,0,1-4.173,3.89,12.686,12.686,0,0,1-5.766,1.383,10.1,10.1,0,0,1-6.466-2.157c-.589-.489-1.151-1-1.68-1.538l-4.691,9.674L78.64,853a1.007,1.007,0,0,1-.766,1.158.9.9,0,0,1-.186.019.984.984,0,0,1-.99-.8L74.746,836.01l-7.762,16.009a.972.972,0,0,1-.435.444,2.931,2.931,0,0,1,.42,2.653,3.606,3.606,0,0,1-3.052,2.685,3.363,3.363,0,0,1-1.443,3.946.783.783,0,0,0-.3.892,2.67,2.67,0,0,1-1.491,3.085,5.041,5.041,0,0,0-2.26,2.086,2.6,2.6,0,0,1-2.032,1.207l-.129.015a20.982,20.982,0,0,1-2.469.2,6.382,6.382,0,0,1-3.336-.821c-.917-.533-1.905-.984-2.86-1.42l.006-.028-.012.025c-.411-.188-.836-.382-1.25-.58-3.239-1.551-6.591-4.964-8.83-7.4-.533-.579-.58-1.084-.14-1.5a.908.908,0,0,1,.623-.283,1.439,1.439,0,0,1,.941.54l.08.085c.048.052.1.106.15.157.318.319.653.664,1.008,1.028,1.775,1.826,3.985,4.1,6.048,5.13.937.468,1.893.937,2.818,1.39l.036.018c.873.428,1.777.87,2.662,1.312a4.546,4.546,0,0,0,2.075.454,13.476,13.476,0,0,0,2.086-.222l.386-.06a1.091,1.091,0,0,0,.852-.7,3.479,3.479,0,0,1,2.186-2.031,1.718,1.718,0,0,0,.975-.787.759.759,0,0,0-.037-.614c-.669-1.454.119-2.13,1.059-2.749,1.007-.663,1.11-1.226.424-2.318a1.3,1.3,0,0,1-.218-1.142,1.262,1.262,0,0,1,.893-.7,6.623,6.623,0,0,1,.934-.181c.236-.034.481-.07.715-.124a1.424,1.424,0,0,0,1.094-1.292,1.216,1.216,0,0,0-.711-1.294,6.175,6.175,0,0,0-.777-.416c-2.848-1.2-5.143-2.254-7.225-3.3-.612-.308-1.111-.627-1-1.4a1.667,1.667,0,0,1,1.337-1.585,2.284,2.284,0,0,1,.5-.053,4.262,4.262,0,0,1,.976.138l.22.052c.89.209,1.81.426,2.723.608a3.984,3.984,0,0,0,.774.08,2.166,2.166,0,0,0,2.046-1.118,1.2,1.2,0,0,0-.61-.371c-.091-.033-.185-.068-.276-.11a31.645,31.645,0,0,0-8.284-2.556,6.409,6.409,0,0,0-1.031-.1,4.823,4.823,0,0,0-1.884.536c-.143.063-.291.127-.435.186-.823.336-1.651.692-2.462,1.057-.6.27-1.205.552-1.8.839-.131.063-.264.139-.405.22a2.552,2.552,0,0,1-1.2.447.86.86,0,0,1-.785-.556.8.8,0,0,1-.054-.642,1.947,1.947,0,0,1,1.06-.925c1.39-.636,2.808-1.262,4.215-1.86.178-.076.36-.158.537-.237a10.376,10.376,0,0,1,1.515-.589,8.3,8.3,0,0,1,2.162-.293,9.607,9.607,0,0,1,2.06.233,42.381,42.381,0,0,1,8.964,3.132c.543.254,1.224.7.876,1.686a3.7,3.7,0,0,1-3.043,2.754,8.466,8.466,0,0,1-1.363.105,13.251,13.251,0,0,1-1.841-.142,9.917,9.917,0,0,0,1.118.562c.436.2.883.388,1.315.574.927.4,1.879.809,2.784,1.283a.975.975,0,0,1,.069-.192l19.4-40.01-10.247-4.968-1.332,2.746a.977.977,0,0,1-1.3.453l-18.815-9.123a.977.977,0,0,1-.453-1.3l1.332-2.746L43.56,791.245,28.454,822.4a.977.977,0,0,1-1.758-.852l13.877-28.621a2.813,2.813,0,0,1-.572-.613c-.652-.852-1.31-1.717-1.947-2.554-1.191-1.566-2.423-3.185-3.652-4.765a1.761,1.761,0,0,1,.005-2.439c.433-.56.844-1.149,1.241-1.718.168-.241.342-.491.515-.734a1.637,1.637,0,0,0-.958-.418c-.087-.015-.168-.03-.25-.049-.916-.219-1.849-.432-2.751-.638-.871-.2-1.773-.4-2.657-.615-1.31-.312-1.6-.74-1.428-2.083.07-.536.15-1.08.227-1.606.145-.985.294-2,.387-3.01a19.383,19.383,0,0,0,.033-2.175c-.007-.341-.015-.693-.015-1.059l-.61.434a64.767,64.767,0,0,1-7.806,5.02c-1.923.989-3.886,2.13-5.047,4.207l.01.011.015.016-.012.018q-.115.175-.224.359a.974.974,0,0,1-.072.123,11.943,11.943,0,0,0-.971,2.253c-1.261,3.884-2.2,7.917-3.1,11.817-.3,1.3-.614,2.646-.934,3.966-2.86,11.805-5.386,22.41-7.723,32.42-.873,3.741.088,6.49,3.027,8.652,5.931,4.364,11.887,8.9,17.647,13.294,2.571,1.959,5.229,3.985,7.849,5.969l.223.17a7.4,7.4,0,0,0,2.446,1.412c.66.183.931.591.783,1.181a.882.882,0,0,1-.973.679c-.064,0-.131,0-.2-.01a5.187,5.187,0,0,1-2.608-1.193l-6.82-5.191L18.3,849.984l-.742,4.893a1.059,1.059,0,0,1-.983.96h0c-.03,0-.061,0-.091,0a1.163,1.163,0,0,1-.779-.432.836.836,0,0,1-.181-.649l.935-6.169c-4.241-3.226-8.525-6.48-12.771-9.691A9.824,9.824,0,0,1,1.479,836.7a9.446,9.446,0,0,1-1.464-5.29A8.063,8.063,0,0,1,.34,828.89M115.85,778.434a51.213,51.213,0,0,0,6.484-6.287l.006-.006c.66-.721,1.342-1.464,2.027-2.183a4.678,4.678,0,0,0,1.27-2.463c-.044,0-.087-.007-.128-.007a1.489,1.489,0,0,0-.931.408l-.069.052c-2.319,1.753-4.354,3.313-6.223,4.768a14.883,14.883,0,0,1-4.2,2.222c-.335.121-.668.238-.991.35l-.017.006c-2.781.97-5.656,1.974-7.136,4.971a.949.949,0,0,1-.844.568,1.071,1.071,0,0,1-.849-1.69,7.907,7.907,0,0,1,2.776-3.187,24.561,24.561,0,0,1,6.078-2.869,14.5,14.5,0,0,0,4.786-2.631c.518-.4,1.03-.824,1.526-1.229a32.3,32.3,0,0,1,4.4-3.2l.257-.145a7.532,7.532,0,0,0,2.54-1.948c.054-.073.114-.143.173-.211.237-.275.441-.512.239-.822a.379.379,0,0,0-.307-.213,1.064,1.064,0,0,0-.479.2,2.736,2.736,0,0,1-.238.136,36.809,36.809,0,0,0-6.97,4.62,20.671,20.671,0,0,1-4.257,2.662,1.96,1.96,0,0,1-.8.216.878.878,0,0,1-.836-.583c-.351-.778.174-1.165.795-1.468a16.683,16.683,0,0,0,1.579-.867c1.244-.784,2.442-1.682,3.6-2.551a34.814,34.814,0,0,1,5.931-3.843,1.11,1.11,0,0,0,.49-.629l.027-.062c.118-.273.23-.531.045-.772a.419.419,0,0,0-.355-.176,1.659,1.659,0,0,0-.424.082l-.026.007a4.749,4.749,0,0,0-1.926,1.057,48.423,48.423,0,0,1-6.3,4.581c-1.205.78-2.451,1.587-3.633,2.441a1.573,1.573,0,0,1-.888.353.918.918,0,0,1-.782-.474c-.356-.542-.192-1.068.473-1.521q.384-.261.766-.524c.763-.525,1.553-1.067,2.356-1.565a52.384,52.384,0,0,0,6.616-4.765c.04-.034.085-.069.118-.094.192-.148.331-.254.247-.491s-.256-.249-.515-.264l-.125-.008c-.12-.01-.231-.015-.339-.015a2.225,2.225,0,0,0-1.309.372c-.531.36-1.067.714-1.585,1.058l-.03.02c-.65.43-1.32.874-1.974,1.323a51.4,51.4,0,0,1-9.334,5.446l-.112.047a2.075,2.075,0,0,1-.79.22.953.953,0,0,1-.611-.223,1.427,1.427,0,0,1-.379-1.468l0-.013a5.882,5.882,0,0,1,.492-1.573l.077-.185c.08-.192.161-.383.243-.574a11.143,11.143,0,0,0,.992-3.157c.074-.7.071-1.393-.817-1.552a1.54,1.54,0,0,0-.361.812c-.018.081-.036.158-.056.232a26.051,26.051,0,0,1-4.338,8.233c-2.657,3.739-3.645,7.157-3.107,10.757a4,4,0,0,1-.333,2.408,13.132,13.132,0,0,0,1.388,1.132,16.834,16.834,0,0,0,7.78,2.956l.068-.038a70.73,70.73,0,0,0,9.085-6.168m-49,20.862q-.162-1.1-.321-2.193c-.765-5.249-1.555-10.677-2.823-15.93-.019-.078-.032-.161-.044-.241a1.052,1.052,0,0,0-.38-.78l-.217.034q-1.492.3-2.992.547A88.673,88.673,0,0,1,47.509,781.9l-.7.06c.076.238.142.455.207.665.132.431.246.8.384,1.167.862,2.265,1.575,4.62,2.264,6.9q.186.613.372,1.226a2.934,2.934,0,0,1,.084.338l14.824,7.188,2.091,1.014c-.06-.34-.12-.712-.186-1.161m-11.286-2.231-.905,1.868,17.057,8.27.905-1.868-13.557-6.573Zm-24.79-20.2c1.964.415,4.061.9,6.6,1.52a1.143,1.143,0,0,1,.772,2,28.206,28.206,0,0,1-1.757,2.429,1.248,1.248,0,0,0,0,1.878c1.281,1.593,2.533,3.253,3.744,4.858q.626.83,1.254,1.658l.01.013.831-1.713a.977.977,0,0,1,1.3-.453l4.444,2.155c-.477-1.625-1.024-3.236-1.559-4.8-.425-1.248-.865-2.538-1.263-3.819-2.476-7.974-5.456-13.962-9.379-18.843l-.16-.2a5.278,5.278,0,0,1-1.32-2.391l-.106,0a1.143,1.143,0,0,0-1.14.669,27.008,27.008,0,0,1-1.893,3.254,3.833,3.833,0,0,0-.572,2.315A36.887,36.887,0,0,1,30,775.686c-.141.739.048,1.026.777,1.18" transform="translate(479.537 8758.75)" fill="#3a3d3f"/><path d="M1248.2,1695.967c3.407,2.418,6.861,4.891,10.2,7.282l2.162,1.547,1.055.753c1.23.878,2.5,1.786,3.739,2.7a3.053,3.053,0,0,1,1.446,2.159,1.019,1.019,0,0,1-.771,1.236,1.064,1.064,0,0,1-.236.028.891.891,0,0,1-.862-.786,2.387,2.387,0,0,0-1.161-1.435c-2.075-1.481-4.183-2.989-6.222-4.448-3.714-2.657-7.555-5.4-11.343-8.093-1.068-.758-1.274-1.519-.667-2.47a1.072,1.072,0,0,0-.311-1.54,2.26,2.26,0,0,1-.908-1.812c.03-.14.054-.28.078-.415a5.559,5.559,0,0,1,.206-.88c.985-2.8,2-5.637,2.99-8.382l.012-.032c.194-.541.45-1.118,1.023-1.118a1.111,1.111,0,0,1,.357.066.913.913,0,0,1,.572.445,1.806,1.806,0,0,1-.153,1.293l-.009.025q-.376,1.049-.748,2.1c-.669,1.884-1.361,3.833-2.079,5.735a1.564,1.564,0,0,0,.367,2,2.161,2.161,0,0,1,.7,2.54c-.375.785-.031,1.082.56,1.5" transform="translate(-740.817 7890.493)" fill="#3a3d3f"/><path d="M1280.063,2153.895v-.006a15.2,15.2,0,0,1,1.266-4.035,49.676,49.676,0,0,1,6.721-10.245,3.492,3.492,0,0,1,.715-.649,1.261,1.261,0,0,1,.7-.25.857.857,0,0,1,.645.31.9.9,0,0,1-.089,1.329c-.114.13-.234.26-.35.385-.206.221-.419.45-.6.693l-.1.127c-2.926,3.809-5.951,7.748-7.026,12.684a.9.9,0,0,1-.919.764,1.335,1.335,0,0,1-.2-.016c-.622-.1-.732-.605-.758-1.089" transform="translate(-766.738 7462.535)" fill="#3a3d3f"/><path d="M1619.248,1867.771a.987.987,0,0,1-.925,1.026,22.036,22.036,0,0,0-2.986.311l-.183.033-.036.007c-.127.026-.253.051-.38.078q-.379.081-.755.176-.7.178-1.4.4a22.326,22.326,0,0,0-2.741,1.093c-.013.008-.222.11-.245.122l-.258.133q-.343.18-.68.373-.673.385-1.318.817a.977.977,0,0,1-1.086-1.624,23.173,23.173,0,0,1,11.964-3.871,1,1,0,0,1,1.026.925" transform="translate(-1117.297 7716.317)" fill="#3a3d3f"/><path d="M1481.819,1193.96a23.893,23.893,0,0,1,3.52,3.063,25.806,25.806,0,0,1,6.956,15.225.977.977,0,0,1-1.951.1q-.054-.582-.136-1.161-.04-.278-.086-.556c-.019-.114-.039-.227-.06-.341l-.007-.038-.009-.044c-.151-.735-.325-1.464-.539-2.183a25,25,0,0,0-1.409-3.648l-.106-.214q-.058-.116-.118-.231-.1-.192-.2-.383-.227-.419-.469-.83-.528-.895-1.13-1.744-.575-.812-1.215-1.577-.148-.177-.3-.35l-.1-.113-.175-.192q-.322-.351-.657-.688a23.839,23.839,0,0,0-3.1-2.628.988.988,0,0,1-.089-1.379,1,1,0,0,1,1.379-.088" transform="translate(-981.99 8344.666)" fill="#3a3d3f"/><path d="M1067.095,665.123a1.221,1.221,0,0,1,1.016-1.964c1.141-.074,2.388-.125,3.923-.16h.024l.031-.032h.059a.133.133,0,0,1,.086.028c.558-.014,1.125-.045,1.675-.074.709-.038,1.443-.078,2.166-.082h.014a1.5,1.5,0,0,1,1.3.623,1.232,1.232,0,0,1,.035,1.217,11.892,11.892,0,0,1-2.688,4.111,3.091,3.091,0,0,1-2.127.976,3.209,3.209,0,0,1-1.791-.617,13.01,13.01,0,0,1-3.721-4.024m5.542,2.864a1.562,1.562,0,0,0,.958-.565,9.715,9.715,0,0,0,1.772-2.623l-6.186.137a7.435,7.435,0,0,0,3.21,3,.672.672,0,0,0,.246.048" transform="translate(-539.764 8840.249)" fill="#3a3d3f"/><path d="M1124.028,786.315l.064,0c.116-.007.237-.015.356-.015.41,0,.958.088.988.846.038.937-.816.972-1.329.993-.1,0-.206.008-.313.008-.311,0-1.138,0-1.141-.933,0-.846.7-.871,1.209-.889l.166-.007" transform="translate(-591.349 8725.001)" fill="#3a3d3f"/><path d="M1068.441,540.573a.793.793,0,0,1,.041-1.03.86.86,0,0,1,.517-.3.624.624,0,0,1,.08-.005.572.572,0,0,1,.358.123,6.054,6.054,0,0,1,1.917,2.309.864.864,0,0,1-.115.755,3.519,3.519,0,0,1-2.092,1.388,1.043,1.043,0,0,1-.11.021.955.955,0,0,1-.123.008h0a.763.763,0,0,1-.707-.458.8.8,0,0,1,.308-1.057,2.25,2.25,0,0,1,.375-.21,1.8,1.8,0,0,0,.418-.248l.084-.072-.238-.3c-.252-.315-.49-.613-.713-.929" transform="translate(-533.682 8955.623)" fill="#3a3d3f"/><path d="M1012.976,453.768a1.627,1.627,0,1,1-1.649-1.37,1.525,1.525,0,0,1,1.649,1.37" transform="translate(-471.378 9036.692)" fill="#3a3d3f"/><path d="M1274.665,463.048a1.482,1.482,0,1,1,.1,2.916h-.022a1.482,1.482,0,1,1-.1-2.916Z" transform="translate(-752.364 9026.751)" fill="#3a3d3f"/><path d="M898.479,111.506c.143-.53.307-1.148.437-1.766a35.429,35.429,0,0,0,.56-4.817c.086-1.228.175-2.5.364-3.74.03-.6.056-1.225.081-1.825l0-.037c.057-1.362.116-2.771.228-4.154a15.885,15.885,0,0,1,3.966-9,3.675,3.675,0,0,1,.582-.59c-.121-.15-.238-.3-.35-.464a8.983,8.983,0,0,1-1.586-4.988,4.883,4.883,0,0,1,.99-3.218,1.079,1.079,0,0,1-.107-.107c-.334-.39-.7-.761-1.058-1.121a15.664,15.664,0,0,1-1.468-1.629,10.161,10.161,0,0,1-1.831-4.384,26.454,26.454,0,0,1-.294-4.7,25.319,25.319,0,0,1,1.113-6.621,31.753,31.753,0,0,1,4.328-8.236l.191-.29a23.7,23.7,0,0,1,6.5-6.192,4.591,4.591,0,0,1,2.8-.775c.475,0,.961.038,1.432.075l.187.015a.822.822,0,0,1,.8.827.881.881,0,0,1-.8.951,3.534,3.534,0,0,1-.614.06,2.2,2.2,0,0,1-.293-.019,3.8,3.8,0,0,0-.5-.034,4.669,4.669,0,0,0-2.868,1.115,25.314,25.314,0,0,0-6,6.429A23.653,23.653,0,0,0,900.9,66c-.006,4.131,1.1,6.852,3.571,8.824a2,2,0,0,1,.593.752,3.425,3.425,0,0,1,2.017-.652,4.479,4.479,0,0,1,1.589.315,1.319,1.319,0,0,1,.8.643.908.908,0,0,1-.021.722.76.76,0,0,1-.74.536,1.859,1.859,0,0,1-.669-.155,2.425,2.425,0,0,0-.881-.182,2.194,2.194,0,0,0-1.752,1.016,3.68,3.68,0,0,0-.788,2.752,6.533,6.533,0,0,0,3.912,5.667,4.425,4.425,0,0,0,1.893.355h.174a1.922,1.922,0,0,1,.525.063.707.707,0,0,1,.206-.031,1.481,1.481,0,0,1,.891.45c.5.435,1.01.881,1.5,1.313.9.79,1.825,1.6,2.753,2.385A39.71,39.71,0,0,0,927.3,97.162a11.881,11.881,0,0,0,4.167,1.032,5.626,5.626,0,0,0,1.516-.2,16.4,16.4,0,0,0,7-4.127,17.538,17.538,0,0,0,4.01-5.353,21.284,21.284,0,0,0,1.879-6.448c.3-2.233.516-4.487.636-6.7.061-1.132.1-2.279.113-3.408,0-.1,0-.229-.009-.36a2.285,2.285,0,0,1,.292-1.583.77.77,0,0,1,.579-.223c.04,0,.082,0,.126.006.884.085.957.956.922,1.707-.067,1.43-.153,2.948-.273,4.777A44.392,44.392,0,0,1,946.617,86.9a20.52,20.52,0,0,1-5.365,8.265,19.537,19.537,0,0,1-6.012,3.941,8.917,8.917,0,0,1-3.79.791,12.3,12.3,0,0,1-3.894-.666,37.2,37.2,0,0,1-7.413-3.513,50.924,50.924,0,0,1-9.192-7.3l-.023-.022a3.161,3.161,0,0,1-.378.042c-.155.009-.306.013-.45.013a5.128,5.128,0,0,1-1.765-.284A8.281,8.281,0,0,1,906.179,87a12.459,12.459,0,0,0-4.024,7.919c-.459,3.742-.652,7.571-.839,11.277l-.011.208a30.686,30.686,0,0,1-.893,5.658c-.143.593-.5.934-.978.934a1.207,1.207,0,0,1-.392-.071c-.583-.2-.767-.666-.562-1.423" transform="translate(-399.526 9419)" fill="#3a3d3f"/><path d="M894.073,29.677a.9.9,0,0,1-.509-.537,1.33,1.33,0,0,1,.221-1.033c1.548-2.684,1.283-5.451.818-7.8a22.518,22.518,0,0,0-4.583-10.047,20.654,20.654,0,0,0-9.128-6.671A24.024,24.024,0,0,0,872.9,1.942c-.2,0-.406,0-.606.012-2.674.1-5.439.209-7.861,1.767a1.181,1.181,0,0,1-.634.212.873.873,0,0,1-.694-.361.918.918,0,0,1,.158-1.329,4.611,4.611,0,0,1,2.247-1.226A34.772,34.772,0,0,1,873.092,0a18.786,18.786,0,0,1,4.386.5,26.1,26.1,0,0,1,10.1,4.659,24.028,24.028,0,0,1,6.887,8.736,27.291,27.291,0,0,1,2.47,9.443,11.42,11.42,0,0,1-1.323,5.362l-.117.259c-.255.568-.571.844-.967.844a1.06,1.06,0,0,1-.46-.117" transform="translate(-345.574 9459.005)" fill="#3a3d3f"/><path d="M1348.711,175.826a3.169,3.169,0,0,1,.094-.529.8.8,0,0,1,.817-.6h.046a.816.816,0,0,1,.82.659,4.063,4.063,0,0,1,.076.687c0,.086.009.167.015.242v.022a34.532,34.532,0,0,1-.925,4.523q-.09.358-.179.715a50.763,50.763,0,0,1-2.146,6.872,26.694,26.694,0,0,1-3.522,6.3l-.124.162a12.763,12.763,0,0,1-1.842,2.08,1.471,1.471,0,0,1-.918.433.912.912,0,0,1-.685-.346c-.531-.595-.122-1.1.292-1.48a14.668,14.668,0,0,0,1.9-2.241c3.857-5.239,5.12-11.568,6.234-17.152.022-.112.036-.23.05-.344" transform="translate(-830.944 9295.923)" fill="#3a3d3f"/><path d="M927.87,185.354a48.3,48.3,0,0,1-3.588-5.495l-.016-.027a1.375,1.375,0,0,1-.16-1.341.893.893,0,0,1,.8-.44,1.224,1.224,0,0,1,.955.729c.184.3.365.6.54.888.437.724.889,1.474,1.382,2.172l.317.449c2.337,3.312,4.754,6.736,8.341,8.979.539.337,1.057.723,1.559,1.1l.145.108a.926.926,0,0,1,.347,1.291.833.833,0,0,1-.754.449,1.309,1.309,0,0,1-.436-.082l-.026-.009a2.438,2.438,0,0,1-.7-.335c-.53-.414-1.09-.809-1.632-1.191a17.219,17.219,0,0,1-3.786-3.269c-.541-.687-1.115-1.365-1.671-2.021-.536-.633-1.091-1.288-1.616-1.952" transform="translate(-391.324 9292.791)" fill="#3a3d3f"/><path d="M1087.124,149.306a.91.91,0,0,1,.566-.225,1.334,1.334,0,0,1,.962.662,33.949,33.949,0,0,0,6.142,6.468,23.576,23.576,0,0,0,7.879,4.152.909.909,0,0,1,.737,1.115c-.106.489-.441.717-1.053.717-.061,0-.126,0-.194-.007h-.011l-.011,0-.191-.051c-.183-.048-.412-.108-.64-.177a21.6,21.6,0,0,1-5.524-2.7,33.217,33.217,0,0,1-8.612-8.252c-.4-.538-.724-1.161-.049-1.7" transform="translate(-566.958 9319.836)" fill="#3a3d3f"/><path d="M562.806,317.644h.011l4.486.416a.915.915,0,0,1-.158,1.824h-.011l-4.487-.416a.915.915,0,0,1,.159-1.824" transform="translate(3.256 9162.486)" fill="#3a3d3f"/><path d="M577.792,202.9l4.4-1.935a.915.915,0,1,1,.737,1.676l-4.4,1.935a.915.915,0,1,1-.737-1.675" transform="translate(-13.11 9271.473)" fill="#3a3d3f"/><path d="M657.488,110.277l2.733-3.582a.915.915,0,1,1,1.455,1.11l-2.733,3.582a.915.915,0,0,1-1.455-1.11" transform="translate(-96.824 9359.738)" fill="#3a3d3f"/><path d="M0,0H130.886V168.978H0Z" transform="translate(477.87 9459.001)" fill="none"/></g></svg>